<svg width="22" height="22" viewBox="0 0 22 22" fill="none" xmlns="http://www.w3.org/2000/svg">
<g clip-path="url(#clip0_29335_33846)">
<path d="M5.16255 0.300781C4.69189 0.300781 4.30192 0.690757 4.30192 1.16142V2.02205H1.72001C1.49477 2.02205 1.26616 2.10442 1.10479 2.26747C0.94174 2.42884 0.859375 2.65744 0.859375 2.88269V20.0954C0.859375 20.3206 0.94174 20.5492 1.10479 20.7123C1.26616 20.8737 1.49477 20.956 1.72001 20.956H19.7934C20.0186 20.956 20.2472 20.8737 20.4103 20.7123C20.5716 20.5492 20.654 20.3206 20.654 20.0954V2.88269C20.654 2.65744 20.5716 2.42884 20.4103 2.26747C20.2472 2.10442 20.0186 2.02205 19.7934 2.02205H17.2114V1.16142C17.2114 0.690757 16.8215 0.300781 16.3508 0.300781H15.4902C15.0195 0.300781 14.6295 0.690757 14.6295 1.16142V2.02205H6.88382V1.16142C6.88382 0.690757 6.49385 0.300781 6.02319 0.300781H5.16255ZM5.16255 1.16142H6.02319V3.74332H5.16255V1.16142ZM15.4902 1.16142H16.3508V3.74332H15.4902V1.16142ZM1.72001 2.88269H4.30192V3.74332C4.30192 4.21398 4.69189 4.60396 5.16255 4.60396H6.02319C6.49385 4.60396 6.88382 4.21398 6.88382 3.74332V2.88269H14.6295V3.74332C14.6295 4.21398 15.0195 4.60396 15.4902 4.60396H16.3508C16.8215 4.60396 17.2114 4.21398 17.2114 3.74332V2.88269H19.7934V5.89491H1.72001V2.88269ZM1.72001 6.75555H19.7934V20.0954H1.72001V6.75555ZM4.30192 8.47682V18.3741H17.2114V8.47682H4.30192ZM5.16255 9.33745H7.31414V11.489H5.16255V9.33745ZM8.17478 9.33745H10.3264V11.489H8.17478V9.33745ZM11.187 9.33745H13.3386V11.489H11.187V9.33745ZM14.1992 9.33745H16.3508V11.489H14.1992V9.33745ZM5.16255 12.3497H7.31414V14.5013H5.16255V12.3497ZM8.17478 12.3497H10.3264V14.5013H8.17478V12.3497ZM11.187 12.3497H13.3386V14.5013H11.187V12.3497ZM14.1992 12.3497H16.3508V14.5013H14.1992V12.3497ZM5.16255 15.3619H7.31414V17.5135H5.16255V15.3619ZM8.17478 15.3619H10.3264V17.5135H8.17478V15.3619ZM11.187 15.3619H13.3386V17.5135H11.187V15.3619ZM14.1992 15.3619H16.3508V17.5135H14.1992V15.3619Z" fill="#ACACAC"/>
</g>
<defs>
<clipPath id="clip0_29335_33846">
<rect width="21.5159" height="21.5159" fill="white" transform="translate(0 0.302734)"/>
</clipPath>
</defs>
</svg>
