<svg xmlns="http://www.w3.org/2000/svg" xmlns:xlink="http://www.w3.org/1999/xlink" viewBox="0,0,255.99263,255.99263" width="50px" height="50px"><g fill="#fa5252" fill-rule="nonzero" stroke="none" stroke-width="1" stroke-linecap="butt" stroke-linejoin="miter" stroke-miterlimit="10" stroke-dasharray="" stroke-dashoffset="0" font-family="none" font-weight="none" font-size="none" text-anchor="none" style="mix-blend-mode: normal"><g transform="scale(5.12,5.12)"><path d="M7,4c-1.654,0 -3,1.346 -3,3v3.91211c-0.03745,0.1825 -1,4.88717 -1,7.58789c0,1.37865 0.26606,2.69854 0.99609,3.75195c0.00133,0.00192 0.00257,0.00394 0.00391,0.00586v20.74219c0,1.657 1.343,3 3,3h36c1.657,0 3,-1.343 3,-3v-20.74219c0.00133,-0.00192 0.00258,-0.00394 0.00391,-0.00586c0.73003,-1.05341 0.99609,-2.3733 0.99609,-3.75195c0,-2.70073 -0.96255,-7.40539 -1,-7.58789v-3.91211c0,-1.654 -1.346,-3 -3,-3zM8,7c0.552,0 1,0.448 1,1c0,0.552 -0.448,1 -1,1c-0.552,0 -1,-0.448 -1,-1c0,-0.552 0.448,-1 1,-1zM11,7c0.552,0 1,0.448 1,1c0,0.552 -0.448,1 -1,1c-0.552,0 -1,-0.448 -1,-1c0,-0.552 0.448,-1 1,-1zM14,7c0.552,0 1,0.448 1,1c0,0.552 -0.448,1 -1,1c-0.552,0 -1,-0.448 -1,-1c0,-0.552 0.448,-1 1,-1zM5.87305,12h4.12695v8.88672c-0.63849,0.67636 -1.50337,1.11328 -2.5,1.11328c-0.97221,0 -1.46066,-0.31334 -1.85937,-0.88867c-0.39872,-0.57533 -0.64062,-1.50498 -0.64062,-2.61133c0,-1.97255 0.70197,-5.58856 0.87305,-6.5zM12,12h5v8.88672c-0.63849,0.67636 -1.50337,1.11328 -2.5,1.11328c-0.99514,0 -1.86097,-0.43366 -2.5,-1.10742zM19,12h5v8.88672c-0.63849,0.67636 -1.50337,1.11328 -2.5,1.11328c-0.99514,0 -1.86097,-0.43366 -2.5,-1.10742zM26,12h5v8.88672c-0.63761,0.67565 -1.50358,1.11328 -2.5,1.11328c-0.99514,0 -1.86097,-0.43366 -2.5,-1.10742zM33,12h5v8.89258c-0.6381,0.67329 -1.50496,1.10742 -2.5,1.10742c-0.99514,0 -1.86179,-0.43412 -2.5,-1.10742zM40,12h4.12695c0.17107,0.91144 0.87305,4.52745 0.87305,6.5c0,1.10635 -0.24191,2.03599 -0.64062,2.61133c-0.39872,0.57534 -0.88716,0.88867 -1.85937,0.88867c-0.99514,0 -1.86179,-0.43412 -2.5,-1.10742zM10,28h9v16h-9zM24,28h16v12h-16z"></path></g></g></svg>