<svg width="36" height="35" viewBox="0 0 36 35" fill="none" xmlns="http://www.w3.org/2000/svg">
<g id="Duotone/Notebook">
<path id="Vector" opacity="0.2" d="M11.4997 29.2516H7.16635C6.87903 29.2516 6.60348 29.1374 6.40031 28.9343C6.19715 28.7311 6.08301 28.4555 6.08301 28.1682V6.50131C6.08301 6.21399 6.19715 5.93844 6.40031 5.73527C6.60348 5.53211 6.87903 5.41797 7.16635 5.41797H11.4997V29.2516Z" fill="#A4A4A4"/>
<path id="Vector_2" d="M15.833 15.168H24.4998" stroke="#A4A4A4" stroke-width="2.16669" stroke-linecap="round" stroke-linejoin="round"/>
<path id="Vector_3" d="M15.833 19.5H24.4998" stroke="#A4A4A4" stroke-width="2.16669" stroke-linecap="round" stroke-linejoin="round"/>
<path id="Vector_4" d="M28.8333 5.41797H7.16635C6.56804 5.41797 6.08301 5.903 6.08301 6.50131V28.1682C6.08301 28.7665 6.56804 29.2516 7.16635 29.2516H28.8333C29.4316 29.2516 29.9166 28.7665 29.9166 28.1682V6.50131C29.9166 5.903 29.4316 5.41797 28.8333 5.41797Z" stroke="#A4A4A4" stroke-width="2.16669" stroke-linecap="round" stroke-linejoin="round"/>
<path id="Vector_5" d="M11.499 5.41797V29.2516" stroke="#A4A4A4" stroke-width="2.16669" stroke-linecap="round" stroke-linejoin="round"/>
</g>
</svg>
