<svg width="62" height="62" viewBox="0 0 62 62" fill="none" xmlns="http://www.w3.org/2000/svg">
<circle cx="31" cy="31" r="31" fill="#F6F6F6"/>
<path d="M31.0036 14.5352C23.3086 14.5352 17.0703 20.7735 17.0703 28.4685C17.0703 37.6316 26.1295 42.018 27.2644 43.039C28.4234 44.0814 29.381 46.4184 29.7674 47.7434C29.9548 48.3868 30.4818 48.7124 31.0036 48.7263C31.5268 48.7111 32.0524 48.3856 32.2399 47.7434C32.6262 46.4184 33.5838 44.0827 34.7428 43.039C35.8778 42.018 44.937 37.6316 44.937 28.4685C44.937 20.7735 38.6986 14.5352 31.0036 14.5352ZM36.0703 34.8018H25.937C25.2378 34.8018 24.6703 34.2344 24.6703 33.5352V23.4018C24.6703 22.7026 25.2378 22.1352 25.937 22.1352H36.0703C36.7695 22.1352 37.337 22.7026 37.337 23.4018V33.5352C37.337 34.2344 36.7695 34.8018 36.0703 34.8018Z" fill="#D1D1D1"/>
<path d="M33.5354 24.668H28.4688V25.9346H33.5354V24.668Z" fill="#D1D1D1"/>
</svg>
