<svg width="23" height="23"  viewBox="0 0 34 34" fill="none" xmlns="http://www.w3.org/2000/svg">
<g id="icons8-partner 1">
<path id="Vector" d="M17.4773 1.63281C16.1173 1.63281 15.0981 2.04028 14.5541 2.78828C13.9421 3.53628 13.8743 4.62402 14.1463 5.91602C14.0103 6.05202 13.9415 6.32402 14.0095 6.59602C14.0775 7.20802 14.2823 7.48002 14.4863 7.61602C14.6223 8.22802 15.0295 8.77308 15.3695 9.04508V9.99602C15.2335 10.336 14.7581 10.5408 14.2141 10.8128C13.2621 11.2208 12.0375 11.7651 11.9695 13.4651C11.9695 13.5331 11.9693 13.668 12.0373 13.736C12.1053 13.804 12.1735 13.8728 12.3095 13.8728H21.8295C21.8295 13.9408 21.9661 13.8731 22.0341 13.8051C22.1021 13.7371 22.1018 13.6688 22.1018 13.5328C22.0338 11.8328 20.8093 11.2885 19.8573 10.8805C19.3133 10.6085 18.8378 10.4051 18.7018 10.0651V9.11281C18.9738 8.84081 19.4503 8.29708 19.5863 7.68508C19.7903 7.54908 19.9938 7.27708 20.0618 6.66508C20.0618 6.39308 20.0623 6.12002 19.9263 5.91602C20.1983 4.82802 20.1303 3.80828 19.5863 3.12828C19.3143 2.78828 18.8381 2.38081 17.9541 2.31281L17.8173 1.83602C17.7493 1.70002 17.6133 1.63281 17.4773 1.63281ZM11.5405 6.11789C11.4563 6.1216 11.3734 6.14097 11.2962 6.175C7.05249 7.97317 4.0818 12.0181 4.0818 16.6605C4.0818 17.0005 4.07772 17.3879 4.16281 17.8134C4.17814 17.9029 4.21126 17.9885 4.26022 18.065C4.30917 18.1416 4.37297 18.2075 4.44784 18.259C4.52271 18.3105 4.60713 18.3464 4.69613 18.3647C4.78512 18.383 4.87688 18.3833 4.96599 18.3656C5.0551 18.3478 5.13975 18.3124 5.21494 18.2614C5.29012 18.2104 5.35433 18.1448 5.40376 18.0686C5.45319 17.9924 5.48684 17.907 5.50272 17.8175C5.51861 17.7281 5.51641 17.6363 5.49625 17.5477C5.44535 17.2932 5.4418 17.0005 5.4418 16.6605C5.4418 12.599 8.0471 9.02793 11.8274 7.42609C11.9751 7.36517 12.0967 7.25417 12.1708 7.11257C12.2448 6.97097 12.2666 6.80781 12.2324 6.65173C12.1982 6.49564 12.1101 6.35659 11.9836 6.25898C11.8571 6.16136 11.7002 6.11141 11.5405 6.11789ZM22.3502 6.38883C22.1975 6.39232 22.0505 6.44706 21.9328 6.54424C21.8151 6.64143 21.7334 6.7754 21.7011 6.92459C21.6687 7.07379 21.6875 7.22953 21.7544 7.36675C21.8213 7.50397 21.9325 7.6147 22.0699 7.68109C25.5347 9.41347 27.8818 12.7875 27.8818 16.6605C27.8818 17.0005 27.8783 17.2932 27.8273 17.5477C27.8072 17.6363 27.805 17.7281 27.8209 17.8175C27.8368 17.907 27.8704 17.9924 27.9198 18.0686C27.9693 18.1448 28.0335 18.2104 28.1087 18.2614C28.1838 18.3124 28.2685 18.3478 28.3576 18.3656C28.4467 18.3833 28.5385 18.3831 28.6275 18.3647C28.7165 18.3464 28.8009 18.3105 28.8758 18.259C28.9506 18.2075 29.0144 18.1416 29.0634 18.065C29.1123 17.9885 29.1455 17.9029 29.1608 17.8134C29.2459 17.3879 29.2418 17.0005 29.2418 16.6605C29.2418 12.2376 26.5574 8.40415 22.6782 6.46453C22.5769 6.4122 22.4641 6.38617 22.3502 6.38883ZM7.27727 19.3128C5.91727 19.3128 4.89806 19.7203 4.35406 20.4683C3.74206 21.2163 3.67433 22.304 3.94633 23.596C3.81033 23.732 3.74153 24.004 3.80953 24.276C3.87753 24.888 4.08233 25.16 4.28633 25.296C4.42233 25.908 4.82953 26.4531 5.16953 26.7251V27.676C5.03353 28.016 4.55806 28.2208 4.01406 28.4928C3.06206 28.9008 1.83753 29.4451 1.76953 31.1451C1.76953 31.2131 1.76927 31.348 1.83727 31.416C1.90527 31.484 1.97353 31.5528 2.10953 31.5528H11.6295C11.6975 31.5528 11.8338 31.484 11.9018 31.416C11.9698 31.348 11.9695 31.2811 11.9695 31.1451C11.8335 29.5131 10.6093 29.0365 9.65727 28.5605C9.11327 28.3565 8.6378 28.0851 8.5018 27.7451V26.7928C8.7738 26.5208 9.25033 25.9771 9.38633 25.3651C9.59033 25.2291 9.7938 24.9571 9.8618 24.3451C9.8618 24.0731 9.86233 23.8 9.72633 23.596C9.99833 22.508 9.93033 21.4883 9.38633 20.8083C9.11433 20.4683 8.63806 20.0608 7.75406 19.9928L7.61727 19.516C7.54927 19.38 7.41327 19.3128 7.27727 19.3128ZM26.9973 19.3128C25.6373 19.3128 24.6181 19.7203 24.0741 20.4683C23.4621 21.2163 23.3943 22.304 23.6663 23.596C23.5303 23.732 23.4615 24.004 23.5295 24.276C23.5975 24.888 23.8023 25.16 24.0063 25.296C24.1423 25.908 24.5495 26.4531 24.8895 26.7251V27.676C24.7535 28.016 24.2781 28.2208 23.7341 28.4928C22.7821 28.9008 21.5575 29.4451 21.4895 31.1451C21.4895 31.2131 21.4893 31.348 21.5573 31.416C21.6253 31.484 21.6935 31.5528 21.8295 31.5528H31.3495C31.4175 31.5528 31.5538 31.484 31.6218 31.416C31.6898 31.348 31.6895 31.2811 31.6895 31.1451C31.5535 29.5131 30.3293 29.0365 29.3773 28.5605C28.8333 28.3565 28.3578 28.0851 28.2218 27.7451V26.7928C28.4938 26.5208 28.9703 25.9771 29.1063 25.3651C29.3103 25.2291 29.5138 24.9571 29.5818 24.3451C29.5818 24.0731 29.5823 23.8 29.4463 23.596C29.7183 22.508 29.6503 21.4883 29.1063 20.8083C28.8343 20.4683 28.3581 20.0608 27.4741 19.9928L27.3373 19.516C27.2693 19.38 27.1333 19.3128 26.9973 19.3128ZM21.7472 26.1062C21.6585 26.11 21.5714 26.1313 21.4909 26.1686C20.0009 26.8164 18.3971 27.2005 16.6618 27.2005C14.9265 27.2005 13.3227 26.8164 11.8327 26.1686C11.7499 26.1313 11.6605 26.111 11.5698 26.1088C11.4114 26.1052 11.2568 26.157 11.1326 26.2552C11.0083 26.3534 10.9222 26.4919 10.8892 26.6468C10.8561 26.8017 10.8782 26.9632 10.9515 27.1036C11.0248 27.244 11.1448 27.3544 11.2909 27.4157C12.9289 28.1279 14.7251 28.5605 16.6618 28.5605C18.5985 28.5605 20.3947 28.1279 22.0327 27.4157C22.1813 27.3554 22.3037 27.2446 22.3785 27.1028C22.4532 26.961 22.4755 26.7973 22.4414 26.6407C22.4072 26.4841 22.3188 26.3446 22.1918 26.2468C22.0648 26.149 21.9073 26.0992 21.7472 26.1062Z" fill="black"/>
</g>
</svg>
