<svg width="26" height="26" viewBox="0 0 26 26" fill="none" xmlns="http://www.w3.org/2000/svg">
<path d="M7.79992 1.73438C6.8526 1.73438 6.06659 2.52039 6.06659 3.46771V11.2677C5.10892 11.2677 4.33325 12.0434 4.33325 13.001V22.5344C4.33325 23.492 5.10892 24.2677 6.06659 24.2677H19.9333C20.8909 24.2677 21.6666 23.492 21.6666 22.5344V13.001C21.6666 12.0434 20.8909 11.2677 19.9333 11.2677V3.46771C19.9333 2.52039 19.1472 1.73438 18.1999 1.73438H7.79992ZM7.79992 3.46771H18.1999V11.2677H7.79992V3.46771ZM9.53325 6.06771V8.66771H12.1333V6.06771H9.53325ZM13.8666 6.06771V8.66771H16.4666V6.06771H13.8666ZM17.3333 13.8677C17.5549 13.8677 17.7766 13.9522 17.946 14.1216C18.2849 14.4605 18.2849 15.0083 17.946 15.3471L12.746 20.5471C12.577 20.7161 12.3551 20.801 12.1333 20.801C11.9114 20.801 11.6895 20.7161 11.5205 20.5471L8.92049 17.9471C8.58162 17.6083 8.58162 17.0605 8.92049 16.7216C9.25936 16.3827 9.80715 16.3827 10.146 16.7216L12.1333 18.7089L16.7205 14.1216C16.8899 13.9522 17.1116 13.8677 17.3333 13.8677Z" fill="black"/>
</svg>
