<svg width="24" height="24" viewBox="0 0 24 24" fill="none" xmlns="http://www.w3.org/2000/svg">
<path d="M5.6001 3.20312C5.1585 3.20312 4.8001 3.56153 4.8001 4.00313V5.60313H19.2001V4.00313C19.2001 3.56153 18.8417 3.20312 18.4001 3.20312H5.6001ZM3.2001 7.20312C2.3161 7.20312 1.6001 7.91913 1.6001 8.80312V12.9578C1.8561 12.8666 2.12326 12.8031 2.40166 12.8031H6.4001V11.2031H17.6001V12.8031H21.5985C21.8769 12.8031 22.1441 12.8666 22.4001 12.9578V8.80312C22.4001 7.91913 21.6841 7.20312 20.8001 7.20312H3.2001ZM2.40166 14.4031C1.85526 14.4031 1.46949 14.9387 1.64229 15.4563L2.70791 18.6562C2.81751 18.9834 3.12329 19.2031 3.46729 19.2031H20.5329C20.8769 19.2031 21.1835 18.9834 21.2923 18.6562L22.3579 15.4563C22.5307 14.9387 22.1449 14.4031 21.5985 14.4031H2.40166Z" fill="black"/>
</svg>
