<svg width="28" height="26" viewBox="0 0 28 26" fill="none" xmlns="http://www.w3.org/2000/svg">
<path d="M19.6667 7.33073H25.3333C26.1158 7.33073 26.75 7.965 26.75 8.7474V24.3307L22.0282 20.408C21.774 20.1966 21.4528 20.0807 21.122 20.0807H9.75C8.96759 20.0807 8.33333 19.4465 8.33333 18.6641V14.4141M19.6667 7.33073V3.08073C19.6667 2.29833 19.0324 1.66406 18.25 1.66406H2.66667C1.88427 1.66406 1.25 2.29833 1.25 3.08073V18.6645L5.97176 14.741C6.22611 14.5298 6.54726 14.4141 6.87793 14.4141H8.33333M19.6667 7.33073V12.9974C19.6667 13.7798 19.0324 14.4141 18.25 14.4141H8.33333" stroke="#888888" stroke-width="2.3" stroke-linecap="round" stroke-linejoin="round"/>
</svg>
