<svg width="26" height="30" viewBox="0 0 26 30" fill="none" xmlns="http://www.w3.org/2000/svg">
<path fill-rule="evenodd" clip-rule="evenodd" d="M14.02 6.5H22.52L23.5825 7.5625V11.8763H24.6875L25.75 12.9388V15L24.6875 16.0625H23.5825V22.4375L22.52 23.5H15.89L10.5775 29.365L8.75 28.6V23.5H3.4375L2.375 22.14V16.0625H1.3125L0.25 15V12.9388L1.3125 11.8763H2.375V7.265L3.50125 6.5H12.0013V4.0775C11.6682 3.90028 11.3883 3.63759 11.1904 3.31642C10.9925 2.99525 10.8836 2.62717 10.875 2.25C10.875 1.68641 11.0989 1.14591 11.4974 0.747398C11.8959 0.348883 12.4364 0.125 13 0.125C13.5636 0.125 14.1041 0.348883 14.5026 0.747398C14.9011 1.14591 15.125 1.68641 15.125 2.25C15.1075 2.61407 14.9967 2.96754 14.8032 3.27642C14.6097 3.5853 14.34 3.83921 14.02 4.01375V6.5ZM21.5 15V8.625H4.5V21.0775L9.8125 21.375H10.875V26.0287L14.7 21.6937L15.4437 21.375H21.5V15ZM16.995 16.0838C16.1993 16.8814 15.1871 17.4282 14.0838 17.6562V17.635C13.1633 17.8111 12.2138 17.7599 11.3177 17.4859C10.4215 17.2118 9.60578 16.7232 8.94125 16.0625L7.45375 17.5713C8.17625 18.2938 9.03687 18.8633 9.9825 19.25C10.9388 19.6495 11.963 19.8577 13 19.8662C15.0544 19.8537 17.0222 19.0376 18.4825 17.5925L16.995 16.0838ZM9.79125 11.8125H7.66625V13.9375H9.79125V11.8125ZM16.1662 11.8125H18.2913V13.9375H16.1662V11.8125Z" fill="#888888"/>
</svg>
