<svg width="34" height="34" viewBox="0 0 34 34" fill="none" xmlns="http://www.w3.org/2000/svg">
<path d="M16.9434 15.0275C18.5777 15.0275 19.9025 13.7027 19.9025 12.0684C19.9025 10.4342 18.5777 9.10938 16.9434 9.10938C15.3092 9.10938 13.9844 10.4342 13.9844 12.0684C13.9844 13.7027 15.3092 15.0275 16.9434 15.0275Z" stroke="#888888" stroke-width="2"/>
<path d="M22.9275 23.2372C22.9261 21.6497 22.2949 20.1277 21.1723 19.0052C20.0498 17.8826 18.5278 17.2514 16.9403 17.25C15.3524 17.25 13.8295 17.8808 12.7067 19.0036C11.5839 20.1264 10.9531 21.6493 10.9531 23.2372H22.9275Z" stroke="#888888" stroke-width="2"/>
<path d="M25.7445 15.0275C27.3787 15.0275 28.7035 13.7027 28.7035 12.0684C28.7035 10.4342 27.3787 9.10938 25.7445 9.10938C24.1102 9.10938 22.7854 10.4342 22.7854 12.0684C22.7854 13.7027 24.1102 15.0275 25.7445 15.0275Z" stroke="#888888" stroke-width="2"/>
<path d="M24.8992 23.2372H31.7311C31.7311 21.6493 31.1003 20.1264 29.9775 19.0036C28.8547 17.8808 27.3318 17.25 25.7439 17.25C24.7638 17.2496 23.7986 17.4904 22.9336 17.9513" stroke="#888888" stroke-width="2"/>
<path d="M8.25594 15.0275C9.89018 15.0275 11.215 13.7027 11.215 12.0684C11.215 10.4342 9.89018 9.10938 8.25594 9.10938C6.62169 9.10938 5.29688 10.4342 5.29688 12.0684C5.29688 13.7027 6.62169 15.0275 8.25594 15.0275Z" stroke="#888888" stroke-width="2"/>
<path d="M9.10141 23.2372H2.26953C2.26953 21.6493 2.90032 20.1264 4.02314 19.0036C5.14595 17.8808 6.66882 17.25 8.25672 17.25C9.23684 17.2496 10.202 17.4904 11.067 17.9513" stroke="#888888" stroke-width="2"/>
</svg>
