<svg width="36" height="35" viewBox="0 0 36 35" fill="none" xmlns="http://www.w3.org/2000/svg">
<g id="Duotone/Package">
<path id="Vector" opacity="0.2" d="M5.14799 10.1211C5.04986 10.2896 4.99844 10.4813 4.99903 10.6763V24.0285C5.00006 24.2214 5.05194 24.4106 5.14941 24.577C5.24689 24.7434 5.38653 24.8812 5.55424 24.9765L17.471 31.6797C17.6317 31.7715 17.8142 31.8183 17.9992 31.8151L18.1211 17.3524L5.14799 10.1211Z" fill="#A4A4A4"/>
<path id="Vector_2" d="M30.9993 24.0277V10.6755C30.9983 10.4826 30.9464 10.2934 30.8489 10.127C30.7515 9.96055 30.6118 9.82277 30.4441 9.72753L18.5273 3.02432C18.3667 2.93162 18.1846 2.88281 17.9992 2.88281C17.8138 2.88281 17.6316 2.93162 17.471 3.02432L5.55424 9.72753C5.38652 9.82277 5.24689 9.96055 5.14941 10.127C5.05193 10.2934 5.00006 10.4826 4.99902 10.6755V24.0277C5.00006 24.2206 5.05193 24.4097 5.14941 24.5762C5.24689 24.7426 5.38652 24.8804 5.55424 24.9756L17.471 31.6788C17.6316 31.7715 17.8138 31.8203 17.9992 31.8203C18.1846 31.8203 18.3667 31.7715 18.5273 31.6788L30.4441 24.9756C30.6118 24.8804 30.7515 24.7426 30.8489 24.5762C30.9464 24.4097 30.9983 24.2206 30.9993 24.0277V24.0277Z" stroke="#A4A4A4" stroke-width="2.16669" stroke-linecap="round" stroke-linejoin="round"/>
<path id="Vector_3" d="M24.6346 20.6694V13.6277L11.499 6.38281" stroke="#A4A4A4" stroke-width="2.16669" stroke-linecap="round" stroke-linejoin="round"/>
<path id="Vector_4" d="M30.8508 10.1211L18.1215 17.3524L5.14844 10.1211" stroke="#A4A4A4" stroke-width="2.16669" stroke-linecap="round" stroke-linejoin="round"/>
<path id="Vector_5" d="M18.1219 17.3516L18 31.8142" stroke="#A4A4A4" stroke-width="2.16669" stroke-linecap="round" stroke-linejoin="round"/>
</g>
</svg>
