<svg width="36" height="35" viewBox="0 0 36 35" fill="none" xmlns="http://www.w3.org/2000/svg">
<g id="Duotone/Truck">
<path id="Vector" opacity="0.2" d="M24.2519 19.5195H2.58496V24.9363C2.58496 25.2236 2.6991 25.4991 2.90227 25.7023C3.10543 25.9055 3.38099 26.0196 3.66831 26.0196H6.37667C6.37667 25.1576 6.71908 24.331 7.32858 23.7215C7.93808 23.112 8.76474 22.7696 9.62671 22.7696C10.4887 22.7696 11.3153 23.112 11.9248 23.7215C12.5343 24.331 12.8767 25.1576 12.8767 26.0196H22.6269C22.6265 25.4488 22.7765 24.8879 23.0618 24.3934C23.347 23.8989 23.7575 23.4883 24.2519 23.2029V19.5195Z" fill="#A4A4A4"/>
<path id="Vector_2" opacity="0.2" d="M29.127 26.0196C29.1274 25.449 28.9775 24.8883 28.6924 24.3939C28.4073 23.8995 27.997 23.489 27.5029 23.2035C27.0088 22.918 26.4482 22.7676 25.8775 22.7675C25.3068 22.7674 24.7462 22.9176 24.252 23.2029V16.2695H32.9187V24.9363C32.9187 25.2236 32.8046 25.4992 32.6014 25.7023C32.3982 25.9055 32.1227 26.0196 31.8354 26.0196H29.127Z" fill="#A4A4A4"/>
<path id="Vector_3" d="M24.252 10.8516H30.0208C30.2366 10.8502 30.4478 10.9141 30.6267 11.0349C30.8055 11.1558 30.9436 11.3279 31.0229 11.5287L32.9187 16.2683" stroke="#A4A4A4" stroke-width="2.16669" stroke-linecap="round" stroke-linejoin="round"/>
<path id="Vector_4" d="M2.58496 19.5195H24.2519" stroke="#A4A4A4" stroke-width="2.16669" stroke-linecap="round" stroke-linejoin="round"/>
<path id="Vector_5" d="M25.877 29.2696C27.6719 29.2696 29.127 27.8145 29.127 26.0196C29.127 24.2246 27.6719 22.7695 25.877 22.7695C24.082 22.7695 22.627 24.2246 22.627 26.0196C22.627 27.8145 24.082 29.2696 25.877 29.2696Z" stroke="#A4A4A4" stroke-width="2.16669" stroke-miterlimit="10"/>
<path id="Vector_6" d="M9.62601 29.2696C11.421 29.2696 12.8761 27.8145 12.8761 26.0196C12.8761 24.2246 11.421 22.7695 9.62601 22.7695C7.83107 22.7695 6.37598 24.2246 6.37598 26.0196C6.37598 27.8145 7.83107 29.2696 9.62601 29.2696Z" stroke="#A4A4A4" stroke-width="2.16669" stroke-miterlimit="10"/>
<path id="Vector_7" d="M22.6261 26.0195H12.876" stroke="#A4A4A4" stroke-width="2.16669" stroke-linecap="round" stroke-linejoin="round"/>
<path id="Vector_8" d="M6.37667 26.021H3.66831C3.38099 26.021 3.10543 25.9069 2.90227 25.7037C2.6991 25.5006 2.58496 25.225 2.58496 24.9377V9.77085C2.58496 9.48352 2.6991 9.20797 2.90227 9.0048C3.10543 8.80164 3.38099 8.6875 3.66831 8.6875H24.2519V23.2043" stroke="#A4A4A4" stroke-width="2.16669" stroke-linecap="round" stroke-linejoin="round"/>
<path id="Vector_9" d="M24.252 16.2695H32.9187V24.9363C32.9187 25.2236 32.8046 25.4992 32.6014 25.7023C32.3982 25.9055 32.1227 26.0196 31.8354 26.0196H29.127" stroke="#A4A4A4" stroke-width="2.16669" stroke-linecap="round" stroke-linejoin="round"/>
</g>
</svg>
