<svg width="14" height="12" viewBox="0 0 12 12" fill="none" xmlns="http://www.w3.org/2000/svg">
<g clip-path="url(#clip0_11221_29272)">
<path d="M8.60085 0.375676C8.51723 0.390485 8.45015 0.451462 8.42663 0.532474C8.40311 0.614358 8.42751 0.701468 8.48935 0.758961L10.5382 2.80779H0.38462C0.377651 2.80779 0.370682 2.80779 0.363714 2.80779C0.240888 2.81389 0.145067 2.91842 0.151165 3.04125C0.157262 3.16407 0.261795 3.25989 0.38462 3.2538H10.5382L8.48935 5.30263C8.42315 5.35664 8.39266 5.44288 8.41183 5.5265C8.43099 5.60926 8.49632 5.67459 8.57908 5.69375C8.6627 5.71292 8.74894 5.68243 8.80295 5.61623L11.2351 3.19108L11.3884 3.03079L11.2351 2.87051L8.80295 0.445364C8.75678 0.395711 8.68971 0.370449 8.62176 0.375676C8.61479 0.375676 8.60782 0.375676 8.60085 0.375676ZM2.79583 6.17373C2.74705 6.18244 2.70349 6.20683 2.67039 6.24342L0.238275 8.66857L0.0849609 8.82885L0.238275 8.98913L2.67039 11.4143C2.7244 11.4805 2.81064 11.511 2.89426 11.4918C2.97702 11.4726 3.04235 11.4073 3.06152 11.3246C3.08068 11.2409 3.05019 11.1547 2.98399 11.1007L0.935157 9.05185H11.0887C11.1689 9.05272 11.2438 9.01091 11.2847 8.94122C11.3248 8.87153 11.3248 8.78617 11.2847 8.71648C11.2438 8.64679 11.1689 8.60498 11.0887 8.60585H0.935157L2.98399 6.55702C3.05629 6.48994 3.07545 6.38367 3.0319 6.29569C2.98922 6.20683 2.89252 6.15805 2.79583 6.17373Z" fill="#ACACAC"/>
</g>
<defs>
<clipPath id="clip0_11221_29272">
<rect width="11.1501" height="11.1501" fill="white" transform="translate(0.162109 0.359375)"/>
</clipPath>
</defs>
</svg>
