<svg width="21" height="19" viewBox="0 0 21 19" fill="none" xmlns="http://www.w3.org/2000/svg">
<path d="M2.9643 0.382812C1.80126 0.382812 0.84668 1.3374 0.84668 2.50043V12.665C0.84668 13.828 1.80126 14.7826 2.9643 14.7826H4.6981C4.756 15.2922 4.74938 15.7637 4.61869 16.1591C4.45821 16.6455 4.15877 17.0541 3.59958 17.3899C3.44242 17.4892 3.36962 17.6795 3.4176 17.8581C3.46558 18.0368 3.62605 18.1642 3.81135 18.1708C5.60801 18.1708 7.66773 17.2328 8.70834 14.7826H18.2112C19.3742 14.7826 20.3288 13.828 20.3288 12.665V2.50043C20.3288 1.3374 19.3742 0.382812 18.2112 0.382812H2.9643ZM2.9643 1.22986H18.2112C18.9126 1.22986 19.4817 1.79897 19.4817 2.50043V12.665C19.4817 13.3665 18.9126 13.9356 18.2112 13.9356H8.47011C8.29309 13.9356 8.13426 14.0464 8.07305 14.2135C7.41461 16.0102 6.23834 16.8655 5.01574 17.1782C5.18118 16.9416 5.33835 16.6918 5.42603 16.4238C5.64606 15.7554 5.62787 15.0242 5.49221 14.2797C5.45415 14.0828 5.28375 13.9389 5.08192 13.9356H2.9643C2.26284 13.9356 1.69373 13.3665 1.69373 12.665V2.50043C1.69373 1.79897 2.26284 1.22986 2.9643 1.22986ZM6.35249 6.31214C5.65599 6.31214 5.08192 6.88622 5.08192 7.58272C5.08192 8.27921 5.65599 8.85329 6.35249 8.85329C7.04899 8.85329 7.62306 8.27921 7.62306 7.58272C7.62306 6.88622 7.04899 6.31214 6.35249 6.31214ZM10.5877 6.31214C9.89123 6.31214 9.31715 6.88622 9.31715 7.58272C9.31715 8.27921 9.89123 8.85329 10.5877 8.85329C11.2842 8.85329 11.8583 8.27921 11.8583 7.58272C11.8583 6.88622 11.2842 6.31214 10.5877 6.31214ZM14.823 6.31214C14.1265 6.31214 13.5524 6.88622 13.5524 7.58272C13.5524 8.27921 14.1265 8.85329 14.823 8.85329C15.5195 8.85329 16.0935 8.27921 16.0935 7.58272C16.0935 6.88622 15.5195 6.31214 14.823 6.31214ZM6.35249 7.15919C6.59072 7.15919 6.77601 7.34448 6.77601 7.58272C6.77601 7.82095 6.59072 8.00624 6.35249 8.00624C6.11426 8.00624 5.92896 7.82095 5.92896 7.58272C5.92896 7.34448 6.11426 7.15919 6.35249 7.15919ZM10.5877 7.15919C10.826 7.15919 11.0112 7.34448 11.0112 7.58272C11.0112 7.82095 10.826 8.00624 10.5877 8.00624C10.3495 8.00624 10.1642 7.82095 10.1642 7.58272C10.1642 7.34448 10.3495 7.15919 10.5877 7.15919ZM14.823 7.15919C15.0612 7.15919 15.2465 7.34448 15.2465 7.58272C15.2465 7.82095 15.0612 8.00624 14.823 8.00624C14.5847 8.00624 14.3994 7.82095 14.3994 7.58272C14.3994 7.34448 14.5847 7.15919 14.823 7.15919Z" fill="#191919"/>
</svg>
