<svg width="19" height="19" viewBox="0 0 19 19" fill="none" xmlns="http://www.w3.org/2000/svg">
<path d="M3.98567 0.262113C3.66162 0.235794 3.30138 0.329556 2.96911 0.563136C2.67631 0.767108 2.04465 1.26881 1.45412 1.83631C1.15968 2.11924 0.878396 2.41369 0.661265 2.70319C0.442488 2.9927 0.251676 3.25754 0.263191 3.64245C0.274706 3.98789 0.309249 5.00939 1.04453 6.57537C1.77982 8.1397 3.20598 10.2863 5.98756 13.0696C8.77078 15.8528 10.9174 17.2789 12.4818 18.0142C14.0461 18.7495 15.0692 18.7841 15.4147 18.7956C15.7979 18.8071 16.0628 18.6163 16.3523 18.3975C16.6418 18.1787 16.9362 17.8991 17.2192 17.6046C17.785 17.0141 18.2867 16.3825 18.4907 16.0897C18.9562 15.4267 18.8789 14.6438 18.3607 14.2802C18.035 14.0516 15.0396 12.0579 14.5889 11.7816C14.1316 11.5019 13.6052 11.6286 13.1348 11.877C12.7647 12.0727 11.7629 12.6468 11.4767 12.8113C11.2612 12.6748 10.4437 12.1303 8.68525 10.3719C6.92517 8.61344 6.38234 7.79591 6.24581 7.58042C6.41031 7.2942 6.98274 6.29737 7.18013 5.92068C7.42687 5.45188 7.56505 4.92056 7.27061 4.45998C7.14723 4.26424 6.58631 3.41052 6.02046 2.55351C5.45295 1.69649 4.91506 0.883898 4.77524 0.689796V0.688151C4.59265 0.436476 4.30808 0.288432 3.98567 0.262113ZM3.90836 1.12241C4.02351 1.13722 4.09259 1.18328 4.09259 1.18328C4.16004 1.27704 4.75057 2.16201 5.31642 3.01738C5.88228 3.87439 6.45965 4.75278 6.55999 4.91234C6.57644 4.93701 6.59947 5.21665 6.43498 5.52754V5.52919C6.2491 5.88285 5.38222 7.39783 5.38222 7.39783L5.26214 7.61003L5.38551 7.82058C5.38551 7.82058 6.03197 8.91117 8.08814 10.9673C10.1459 13.0235 11.2365 13.6716 11.2365 13.6716L11.4471 13.795L11.6593 13.6749C11.6593 13.6749 13.171 12.8097 13.5279 12.6221C13.8388 12.4593 14.1185 12.4807 14.1514 12.5004C14.4425 12.6797 17.6781 14.8296 17.8771 14.9695C17.8837 14.9744 18.0597 15.2409 17.8031 15.606H17.8015C17.6468 15.8281 17.1402 16.4713 16.6122 17.0207C16.3473 17.2954 16.0759 17.552 15.8456 17.7247C15.6154 17.8974 15.4097 17.9517 15.4426 17.9534C15.084 17.9419 14.2928 17.9336 12.8403 17.251C11.3879 16.57 9.31526 15.2063 6.58302 12.4725C3.85243 9.74186 2.48879 7.66925 1.80614 6.21513C1.12514 4.76265 1.11691 3.97144 1.1054 3.61449C1.10704 3.64739 1.16132 3.44012 1.33404 3.20983C1.50676 2.97954 1.76172 2.70648 2.03643 2.44165C2.58748 1.91363 3.22901 1.40699 3.45107 1.25236V1.25401C3.63366 1.1257 3.79322 1.10925 3.90836 1.12241Z" fill="#020202"/>
</svg>
