<svg width="14" height="14" viewBox="0 0 14 14" fill="none" xmlns="http://www.w3.org/2000/svg">
<path d="M3.31533 0.776297C3.09986 0.758797 2.86033 0.821141 2.63939 0.976453C2.4447 1.11208 2.0247 1.44567 1.63205 1.82302C1.43627 2.01114 1.24924 2.20692 1.10486 2.39942C0.959392 2.59192 0.832517 2.76802 0.840173 3.02395C0.84783 3.25364 0.870798 3.93286 1.3597 4.97411C1.84861 6.01427 2.79689 7.44161 4.64642 9.29224C6.49705 11.1429 7.92439 12.0911 8.96455 12.58C10.0047 13.069 10.685 13.0919 10.9147 13.0996C11.1695 13.1072 11.3456 12.9804 11.5381 12.8349C11.7306 12.6894 11.9264 12.5035 12.1145 12.3077C12.4908 11.915 12.8244 11.495 12.96 11.3004C13.2695 10.8596 13.2181 10.339 12.8736 10.0972C12.657 9.9452 10.6653 8.61958 10.3656 8.43583C10.0616 8.24989 9.71158 8.33411 9.39877 8.49927C9.15267 8.62942 8.48658 9.01114 8.29627 9.12052C8.15299 9.02973 7.60939 8.6677 6.44017 7.49849C5.26986 6.32927 4.90892 5.78567 4.81814 5.64239C4.92752 5.45208 5.30814 4.78927 5.43939 4.5388C5.60345 4.22708 5.69533 3.8738 5.49955 3.56755C5.41752 3.43739 5.04455 2.86974 4.6683 2.29989C4.29095 1.73005 3.9333 1.18973 3.84033 1.06067V1.05958C3.71892 0.892235 3.5297 0.793797 3.31533 0.776297ZM3.26392 1.34833C3.34049 1.35817 3.38642 1.3888 3.38642 1.3888C3.43127 1.45114 3.82392 2.03958 4.20017 2.60833C4.57642 3.17817 4.96033 3.76223 5.02705 3.86833C5.03799 3.88473 5.0533 4.07067 4.94392 4.27739V4.27848C4.82033 4.51364 4.24392 5.52099 4.24392 5.52099L4.16408 5.66208L4.24611 5.80208C4.24611 5.80208 4.67595 6.52724 6.04314 7.89442C7.41142 9.26161 8.13658 9.69255 8.13658 9.69255L8.27658 9.77458L8.41767 9.69473C8.41767 9.69473 9.42283 9.11942 9.66017 8.99473C9.86689 8.88645 10.0528 8.90067 10.0747 8.9138C10.2683 9.03302 12.4197 10.4625 12.552 10.5555C12.5564 10.5588 12.6735 10.736 12.5028 10.9788H12.5017C12.3989 11.1265 12.062 11.5541 11.711 11.9194C11.5349 12.1021 11.3544 12.2727 11.2013 12.3875C11.0481 12.5024 10.9114 12.5385 10.9333 12.5396C10.6949 12.5319 10.1688 12.5265 9.20299 12.0725C8.2372 11.6197 6.85908 10.713 5.04236 8.8952C3.22674 7.07958 2.32002 5.70145 1.86611 4.73458C1.4133 3.7688 1.40783 3.2427 1.40017 3.00536C1.40127 3.02723 1.43736 2.88942 1.5522 2.7363C1.66705 2.58317 1.83658 2.40161 2.01924 2.22552C2.38564 1.87442 2.8122 1.53755 2.95986 1.43473V1.43583C3.08127 1.35052 3.18736 1.33958 3.26392 1.34833Z" fill="#ACACAC"/>
</svg>
