<svg width="75" height="29" viewBox="0 0 75 29" fill="none" xmlns="http://www.w3.org/2000/svg">
<g id="Layer_1" clip-path="url(#clip0_1449_20194)">
<path id="Vector" d="M25.063 26.6177L22.1291 28.1328C22.079 27.994 21.6742 27.0572 20.9224 25.3262C20.1668 23.5913 19.176 21.363 17.9385 18.6373H6.78138C5.45518 21.5635 4.43354 23.8303 3.71646 25.438C2.99938 27.0456 2.60229 27.9439 2.52519 28.1328L0 26.768C0.327696 26.1165 1.67318 23.2366 4.0403 18.1323C6.40742 13.0279 8.86707 7.66143 11.4154 2.03662H13.8673C16.381 7.66143 18.8483 13.1127 21.2733 18.3867C23.6982 23.6607 24.9589 26.4056 25.0591 26.6177M16.8706 16.2239C16.2036 14.6895 15.502 13.0896 14.7617 11.4164C14.0215 9.74326 13.2466 7.99683 12.4332 6.1733L12.3561 6.18872C11.7238 7.5689 10.9605 9.26907 10.0699 11.2815C9.17549 13.2939 8.43914 14.944 7.857 16.2239L7.84929 16.2432H16.8783L16.8706 16.2239Z" fill="#1D493E"/>
<path id="Vector_2" d="M38.988 10.7845C38.2979 10.9464 37.2377 11.2933 35.8151 11.8215C34.3887 12.3497 32.7463 13.0513 30.8881 13.9303C30.8881 14.0691 30.8804 14.7014 30.8688 15.8233C30.8573 16.949 30.8495 17.9938 30.8495 18.9614C30.8495 20.4418 30.865 22.2037 30.8958 24.2393C30.9267 26.2748 30.9421 27.4044 30.9421 27.6319H27.9658C27.9658 27.4198 27.9774 26.7143 28.0044 25.5231C28.0275 24.3279 28.0429 22.2885 28.0429 19.4009C28.0429 18.2328 28.0352 16.5982 28.0236 14.5009C28.0121 12.4037 27.9928 10.4259 27.9658 8.56383H30.8881V11.4283L30.9074 11.4476C32.3261 10.6418 33.7294 9.94786 35.1096 9.35415C36.4898 8.7643 37.5962 8.36335 38.4251 8.14746L38.9918 10.7845H38.988Z" fill="#1D493E"/>
<path id="Vector_3" d="M56.3061 17.3941H42.6817C42.6932 18.728 42.9785 19.9462 43.5298 21.0604C44.0811 22.1707 44.9293 23.0921 46.0743 23.8207C46.8029 24.2872 47.6318 24.6342 48.5609 24.8655C49.49 25.0968 50.6081 25.2125 51.915 25.2125C52.6321 25.2125 53.2875 25.1932 53.885 25.1547C54.4826 25.1161 54.8488 25.093 54.9876 25.0776L54.6484 27.5835C54.5481 27.595 54.2127 27.6182 53.6499 27.649C53.0831 27.6799 52.42 27.6953 51.6528 27.6953C49.6443 27.6953 47.894 27.437 46.4058 26.9127C44.9177 26.3922 43.6956 25.6713 42.7434 24.7537C41.9261 23.9865 41.2321 23.0073 40.6615 21.8122C40.091 20.6209 39.8057 19.2947 39.8057 17.8374C39.8057 16.3801 40.0177 15.1117 40.4456 13.9552C40.8736 12.7986 41.5135 11.7268 42.3655 10.7322C43.1058 9.88017 44.0272 9.22093 45.1259 8.75444C46.2247 8.28796 47.3658 8.05664 48.5455 8.05664C49.7252 8.05664 50.7507 8.23398 51.6528 8.58481C52.5588 8.93564 53.3414 9.46766 54.0084 10.1847C54.7486 10.9905 55.3153 11.9774 55.7047 13.1533C56.0941 14.3291 56.2946 15.7363 56.3061 17.3825M53.3838 15.2737C53.1834 13.7161 52.6513 12.494 51.7916 11.6073C50.9319 10.7245 49.7985 10.2773 48.3913 10.2773C46.9841 10.2773 45.8083 10.7283 44.8676 11.6266C43.9269 12.5249 43.2715 13.7393 42.9091 15.2737H53.3877H53.3838Z" fill="#1D493E"/>
<path id="Vector_4" d="M74.9997 27.9101C74.9226 27.9101 74.6836 27.9101 74.2827 27.9179C73.8817 27.9256 73.5617 27.9256 73.3227 27.9256C70.9479 27.9256 69.0897 27.8215 67.7442 27.6171C66.3987 27.409 65.0879 27.0003 63.808 26.3835C62.1348 25.5816 60.8703 24.5137 60.0028 23.1836C59.1354 21.8535 58.7036 20.3731 58.7036 18.7424C58.7036 16.834 59.1855 15.1416 60.1532 13.6689C61.1209 12.1923 62.5165 11.0434 64.3361 10.2146C65.404 9.71337 66.63 9.3317 68.0102 9.07726C69.3942 8.81896 70.7474 8.69173 72.0813 8.69173L72.0235 0.00585938H74.9997C74.9997 0.25645 74.9843 2.01444 74.9612 5.27984C74.9342 8.54523 74.9226 11.853 74.9226 15.2032C74.9226 17.8518 74.9304 20.2459 74.9496 22.3856C74.9689 24.5252 74.9843 26.368 74.9959 27.914M72.0736 14.6828V11.2015C70.8168 11.2015 69.6332 11.3094 68.5229 11.5215C67.4126 11.7335 66.4604 12.0227 65.6662 12.3889C64.4094 12.9672 63.434 13.7884 62.7439 14.864C62.0538 15.9357 61.7068 17.1926 61.7068 18.6383C61.7068 19.9298 62.0384 21.0401 62.7054 21.9692C63.3723 22.8983 64.2012 23.627 65.192 24.1513C66.0594 24.6139 67.0348 24.9647 68.122 25.196C69.2092 25.4274 70.3503 25.543 71.5416 25.543H72.0312C72.0312 25.4312 72.0389 24.4905 72.0505 22.7287C72.062 20.9668 72.0698 18.2836 72.0698 14.6828" fill="#1D493E"/>
</g>
<defs>
<clipPath id="clip0_1449_20194">
<rect width="75" height="28.1317" fill="white"/>
</clipPath>
</defs>
</svg>
