<svg width="106" height="42" viewBox="0 0 106 42" fill="none" xmlns="http://www.w3.org/2000/svg">
<g id="Verra-Logo 1">
<path id="Vector" d="M15.4965 14.4054C15.3679 14.1472 15.5287 13.9176 15.8505 13.9176H18.2309C18.4239 13.9176 18.5526 14.0324 18.5847 14.1185L22.7023 22.7262H22.8631L31.2591 6.05582C31.2913 5.96974 31.4199 5.85498 31.6129 5.85498H33.9935C34.3151 5.85498 34.476 6.11321 34.3473 6.34275L23.2814 27.69C23.217 27.8048 23.1205 27.8909 22.9274 27.8909H22.7023C22.5093 27.8909 22.4128 27.8048 22.3484 27.69L15.4965 14.4054Z" fill="#D7D7D7"/>
<path id="Vector_2" d="M33.7915 14.6357C33.7915 14.4349 33.9523 14.2627 34.2096 14.2627H42.9595C43.1846 14.2627 43.3776 14.4349 43.3776 14.6357V16.2138C43.3776 16.4146 43.2168 16.5868 42.9595 16.5868H36.5902V19.743H41.898C42.1231 19.743 42.3161 19.9151 42.3161 20.116V21.7227C42.3161 21.9236 42.1231 22.0958 41.898 22.0958H36.5902V25.4528H42.9595C43.1846 25.4528 43.3776 25.625 43.3776 25.8258V27.4039C43.3776 27.6048 43.2168 27.7769 42.9595 27.7769H34.2096C33.9845 27.7769 33.7915 27.6048 33.7915 27.4039V14.6357Z" fill="#D7D7D7"/>
<path id="Vector_3" d="M47.0474 14.6357C47.0474 14.4349 47.2082 14.2627 47.4656 14.2627H53.6097C56.1832 14.2627 58.3063 16.0991 58.3063 18.3944C58.3063 20.1733 56.9874 21.608 55.1216 22.2679L58.0812 27.1456C58.242 27.4039 58.0812 27.6908 57.7273 27.6908H55.4755C55.2825 27.6908 55.186 27.6048 55.1216 27.5187L52.2587 22.4401H49.8782V27.3465C49.8782 27.5474 49.6852 27.7196 49.46 27.7196H47.4656C47.2404 27.7196 47.0474 27.5474 47.0474 27.3465V14.6357ZM53.3845 20.3742C54.5105 20.3742 55.5076 19.4847 55.5076 18.4232C55.5076 17.4188 54.5105 16.5581 53.3845 16.5581H49.8782V20.3742H53.3845Z" fill="#D7D7D7"/>
<path id="Vector_4" d="M61.9077 14.6357C61.9077 14.4349 62.0685 14.2627 62.3259 14.2627H68.4701C71.0435 14.2627 73.1666 16.0991 73.1666 18.3944C73.1666 20.1733 71.8478 21.608 69.982 22.2679L72.9415 27.1456C73.1023 27.4039 72.9415 27.6908 72.5876 27.6908H70.3359C70.1429 27.6908 70.0464 27.6048 69.982 27.5187L67.119 22.4401H64.7386V27.3465C64.7386 27.5474 64.5456 27.7196 64.3204 27.7196H62.3259C62.1007 27.7196 61.9077 27.5474 61.9077 27.3465V14.6357ZM68.2449 20.3742C69.3708 20.3742 70.368 19.4847 70.368 18.4232C70.368 17.4188 69.3708 16.5581 68.2449 16.5581H64.7386V20.3742H68.2449Z" fill="#D7D7D7"/>
<path id="Vector_5" d="M75.066 27.2078L81.757 14.2961C81.8214 14.1813 81.9179 14.0952 82.1109 14.0952H82.336C82.5612 14.0952 82.6255 14.1813 82.6899 14.2961L89.3166 27.2078C89.4453 27.466 89.2844 27.6955 88.9628 27.6955H87.097C86.7753 27.6955 86.6145 27.5807 86.4857 27.3225L85.4242 25.2566H78.9905L77.929 27.3225C77.8325 27.5234 77.6395 27.6955 77.3177 27.6955H75.452C75.0981 27.6955 74.9373 27.466 75.066 27.2078ZM84.3626 23.1047L82.2074 18.8868H82.143L80.0199 23.1047H84.3626Z" fill="#D7D7D7"/>
<path id="Vector_6" d="M97.9012 36.0957H7.05745C6.54276 36.0957 6.15674 35.7227 6.15674 35.2923V6.59966C6.15674 6.14058 6.57492 5.79626 7.05745 5.79626H27.3879C27.5809 5.79626 27.7097 5.96842 27.6452 6.14058L26.7446 8.17776C26.7124 8.26384 26.6159 8.32122 26.4872 8.32122H9.27707C9.11623 8.32122 8.98756 8.43599 8.98756 8.57945V33.3412C8.98756 33.4846 9.11623 33.5994 9.27707 33.5994H95.6816C95.8425 33.5994 95.9711 33.4846 95.9711 33.3412V8.55076C95.9711 8.4073 95.8425 8.29252 95.6816 8.29252H37.1028C36.9098 8.29252 36.7812 8.12037 36.8455 7.94821L37.8748 5.91104C37.907 5.82496 38.0035 5.76758 38.1322 5.76758H97.9012C98.4159 5.76758 98.8019 6.14058 98.8019 6.57096V35.2635C98.8019 35.7227 98.3837 36.0957 97.9012 36.0957Z" fill="#D7D7D7"/>
</g>
</svg>
