<svg width="204" height="204" viewBox="0 0 404 404" fill="none" xmlns="http://www.w3.org/2000/svg">
	<g clip-path="url(#clip0_23226_19702)">
		<path d="M277.471 254.999H265.152C264.581 254.999 264.019 254.851 263.522 254.568L249.941 246.839V244.289L263.462 251.983C263.999 252.289 264.604 252.449 265.22 252.449H277.471V254.999Z" fill="#60524A" />
		<path d="M281.124 256.272H274.827C274.454 256.272 274.097 256.123 273.833 255.857C273.57 255.591 273.422 255.231 273.422 254.856V252.588C273.422 252.213 273.57 251.852 273.833 251.587C274.097 251.321 274.454 251.172 274.827 251.172H281.124C281.497 251.172 281.854 251.321 282.117 251.587C282.381 251.852 282.529 252.213 282.529 252.588V254.856C282.529 255.231 282.381 255.591 282.117 255.857C281.854 256.123 281.497 256.272 281.124 256.272Z" fill="#54463E" />
	</g>
	<g clip-path="url(#clip1_23226_19702)">
		<path d="M197.419 340.781C197.419 340.781 195.918 340.589 194.636 341.554C194.011 342.024 192.617 343.397 192.788 345.9C192.965 348.504 195.271 350.44 198.379 350.194L197.419 340.781Z" fill="#443731" />
		<path d="M202.876 345.66C202.979 343.062 201.06 340.876 198.588 340.778C196.117 340.679 194.029 342.706 193.926 345.304C193.822 347.902 195.742 350.088 198.213 350.186C200.685 350.284 202.772 348.258 202.876 345.66Z" fill="#54463E" />
		<path d="M201.439 345.61C201.509 343.846 200.206 342.362 198.527 342.295C196.849 342.228 195.432 343.604 195.362 345.368C195.291 347.132 196.595 348.617 198.273 348.683C199.951 348.75 201.368 347.374 201.439 345.61Z" fill="#60524A" />
		<path d="M195.125 341.182L195.79 341.168L200.196 341.077C200.856 341.063 201.505 340.913 202.104 340.638L240.113 323.14L242.416 322.08L242.497 313.25L239.779 314.777L239.6 314.876L194.794 340.035C194.25 340.36 194.491 341.196 195.125 341.182Z" fill="#60524A" />
		<path d="M195.789 341.165L200.196 341.074C200.855 341.06 201.505 340.909 202.103 340.635L240.112 323.136L239.778 314.773L239.6 314.873C239.6 314.873 238.378 319.305 238.028 320.354C237.678 321.403 203.027 339.416 201.277 340.115C199.527 340.815 195.789 341.165 195.789 341.165Z" fill="#443731" />
		<path d="M239.777 224.344V321.927C239.777 325.018 242.285 327.524 245.377 327.524C247.331 327.524 249.051 326.523 250.052 325.009H250.054C250.39 324.5 250.645 323.933 250.801 323.326C250.916 322.879 250.978 322.41 250.978 321.927V224.344H239.777Z" fill="#60524A" />
		<path d="M240.495 265.269H250.265C252.303 265.269 253.955 263.618 253.955 261.582V230.992H236.805V261.582C236.805 263.618 238.457 265.269 240.495 265.269Z" fill="#54463E" />
		<path d="M197.972 233.8C202.299 234.034 205.618 234.187 206.257 234.162C209.369 233.945 211.96 233.936 214.314 233.815C220.206 233.515 224.621 232.512 232.016 225.816C241.827 216.931 251.453 193.394 251.094 189.527C242.867 185.323 225.692 184.984 212.552 185.595C198.861 186.232 189.877 187.421 186.047 190.933C185.985 190.993 185.922 191.064 185.863 191.145C182.751 195.319 182.732 226.11 197.972 233.8Z" fill="#B79576" />
		<path d="M197.972 233.803C202.299 234.037 205.618 234.19 206.257 234.165C209.369 233.948 211.96 233.939 214.314 233.818L216.061 232.216L191.217 192.908L185.863 191.148C182.751 195.322 182.732 226.113 197.972 233.803Z" fill="#8E694D" />
		<path d="M251.094 189.527C255.739 191.477 245.467 224.749 234.542 232.226C232.173 233.847 219.48 234.344 206.526 234.207C185.884 233.988 187.128 194.304 190.015 192.328C195.333 188.689 208.402 188.392 220.686 187.87C231.963 187.39 250.09 188.433 251.094 189.527Z" fill="#9B795D" />
		<path d="M203.779 233.997C203.781 233.997 203.781 233.999 203.782 233.999C205.041 234.299 206.367 234.464 207.759 234.474C212.275 234.509 216.761 234.466 220.788 234.326L236.017 210.045L238.453 188.164C236.972 188.103 236.769 187.48 235.229 187.445C234.966 188.517 230.075 203.503 228.054 207.207C225.954 211.054 206.783 214.494 202.328 218.574C200.228 220.498 199.353 230.116 203.779 233.997Z" fill="#8E694D" />
		<path d="M300.682 96.1562L244.969 96.2307L246.606 142.675L234.355 221.371L285.982 221.021L301.732 137.737L300.682 96.1562Z" fill="#B79576" />
		<path d="M228.578 221.374L232.253 222.074L239.253 221.549C239.253 221.549 239.295 221.358 239.374 220.995C239.432 220.722 239.511 220.353 239.61 219.893C239.843 218.798 240.184 217.188 240.61 215.143C240.61 215.138 240.611 215.133 240.611 215.126C240.659 214.902 240.706 214.671 240.755 214.437C245.594 191.036 260.088 117.038 253.273 101.38C248.023 89.3128 224.047 98.4066 239.448 128.661C240.687 131.097 240.816 177.33 230.757 214.076C230.682 214.354 230.605 214.631 230.528 214.907C230.528 214.911 230.526 214.914 230.524 214.916C230.066 216.563 229.586 218.19 229.084 219.79C228.995 220.077 228.904 220.362 228.811 220.647C228.735 220.89 228.657 221.133 228.578 221.374Z" fill="#B79576" />
		<path d="M280.203 205.434L283.708 212.398L297.889 193.017C297.889 193.017 298.421 190.912 299.263 187.327H299.265C303.059 171.185 313.16 125.034 309.473 105.729C309.156 104.069 308.738 102.607 308.204 101.38C302.954 89.3128 278.978 98.4066 294.378 128.661C295.374 130.618 293.187 162.004 287.272 185.77L287.221 185.971C285.285 193.71 282.952 200.626 280.203 205.434Z" fill="#9B795D" />
		<path d="M206.878 224.167L251.674 225.25L267.254 215.773C267.254 215.773 255.671 215.484 245.535 215.239C243.832 215.197 242.171 215.159 240.612 215.121C235.276 214.993 231.141 214.898 230.679 214.898C230.644 214.898 230.593 214.9 230.528 214.902C230.481 214.904 230.425 214.905 230.36 214.907C227.803 215.016 213.036 216.047 206.817 218.083C205.264 218.592 204.244 219.162 204.078 219.795C204.076 219.804 204.074 219.813 204.073 219.823C203.793 221.094 206.878 224.167 206.878 224.167Z" fill="#B79576" />
		<path d="M260.603 220.494L204.601 219.444C201.976 219.794 199.876 232.56 206.351 234.309C207.795 234.699 256.928 236.058 256.928 236.058L260.603 220.494ZM230.358 214.906L230.523 214.91L240.608 215.137L245.552 215.247L245.533 215.239L243.977 214.548L240.754 214.431L230.756 214.07C230.68 214.348 230.603 214.625 230.526 214.901C230.479 214.903 230.423 214.904 230.358 214.906Z" fill="#9B795D" />
		<path d="M256.858 236.055C261.191 236.102 264.515 236.113 265.152 236.06C268.251 235.711 270.839 235.59 273.186 235.368C279.059 234.815 283.427 233.624 290.527 226.617C299.948 217.318 308.553 193.389 308.028 189.542C299.627 185.695 282.454 186.093 269.352 187.269C255.701 188.493 246.776 190.067 243.101 193.739C243.042 193.802 242.982 193.876 242.926 193.96C239.997 198.263 241.302 229.027 256.858 236.055Z" fill="#9B795D" />
		<path d="M256.862 236.057C261.195 236.104 264.518 236.114 265.155 236.062C268.255 235.712 270.843 235.591 273.19 235.369L274.866 233.694L248.355 195.489L242.93 193.961C240.001 198.265 241.306 229.028 256.862 236.057Z" fill="#8E694D" />
		<path d="M308.029 189.541C312.754 191.289 303.922 224.972 293.329 232.911C291.032 234.633 278.372 235.674 265.424 236.093C244.792 236.76 244.327 197.061 247.127 194.962C252.284 191.098 265.328 190.24 277.578 189.191C288.824 188.228 306.979 188.491 308.029 189.541Z" fill="#B79576" />
		<path d="M294.381 128.658C294.381 128.658 239.469 127.933 239.449 128.658C239.43 129.383 295.239 130.187 295.239 130.187L296.806 128.622L294.381 128.658Z" fill="#9B795D" />
		<path d="M287.117 186.401C287.117 186.401 296.625 187.029 299.266 187.324H299.268C303.062 171.183 313.163 125.032 309.476 105.727L309.337 105.861C309.337 105.861 309.782 123.264 303.832 151.419C297.882 179.575 296.832 183.598 295.607 184.297C294.382 184.997 287.275 185.768 287.275 185.768L287.224 185.969L287.117 186.401Z" fill="#8E694D" />
		<path d="M235.57 185.92L235.094 187.901L236.178 187.942L236.468 186.01L235.57 185.92ZM290.704 173.978L238.201 172.055L290.179 175.552L290.704 173.978Z" fill="#9B795D" />
		<path d="M260.951 362.456C262.906 362.422 264.453 360.28 264.406 357.672C264.36 355.065 262.737 352.98 260.782 353.015C258.827 353.05 257.28 355.192 257.327 357.799C257.373 360.406 258.996 362.491 260.951 362.456Z" fill="#443731" />
		<path d="M260.946 362.473L257.915 362.527L257.895 361.407L257.746 353.085L260.777 353.031L261.874 358.093L260.946 362.473Z" fill="#443731" />
		<path d="M257.92 362.511C259.875 362.476 261.422 360.334 261.375 357.727C261.328 355.12 259.706 353.035 257.751 353.069C255.796 353.104 254.249 355.246 254.296 357.854C254.342 360.461 255.965 362.546 257.92 362.511Z" fill="#54463E" />
		<path d="M257.866 361C258.97 360.98 259.838 359.529 259.807 357.759C259.775 355.989 258.855 354.57 257.752 354.589C256.648 354.609 255.78 356.06 255.811 357.83C255.843 359.601 256.763 361.02 257.866 361Z" fill="#60524A" />
		<path d="M244.766 325.942L257.803 353.232C258.131 353.232 258.853 353.232 259.728 353.757C261.021 354.532 262.661 353.966 262.179 352.883C258.503 343.789 244.853 313.359 244.853 313.359L244.766 325.942Z" fill="#60524A" />
		<path d="M292.734 340.547C292.734 340.547 294.235 340.355 295.517 341.319C296.142 341.79 297.535 343.162 297.365 345.666C297.187 348.27 294.881 350.206 291.773 349.959L292.734 340.547Z" fill="#443731" />
		<path d="M291.936 349.949C294.407 349.85 296.327 347.664 296.223 345.067C296.12 342.469 294.032 340.442 291.561 340.541C289.089 340.639 287.17 342.825 287.273 345.423C287.377 348.021 289.464 350.047 291.936 349.949Z" fill="#54463E" />
		<path d="M291.879 348.439C293.557 348.372 294.86 346.888 294.79 345.124C294.72 343.36 293.302 341.984 291.624 342.051C289.946 342.118 288.643 343.602 288.713 345.366C288.784 347.13 290.201 348.506 291.879 348.439Z" fill="#60524A" />
		<path d="M247.652 313.008L247.733 321.838L250.804 323.251L287.013 339.92L288.045 340.396C288.07 340.408 288.096 340.419 288.122 340.429L288.141 340.438C288.141 340.438 288.143 340.438 288.145 340.44C288.716 340.687 289.33 340.822 289.953 340.835L293.005 340.898L295.026 340.94C295.659 340.954 295.899 340.118 295.355 339.793L247.652 313.008Z" fill="#60524A" />
		<path d="M250.806 323.324L287.016 339.918L288.125 340.427L288.145 340.436C288.145 340.436 288.146 340.436 288.148 340.438C288.719 340.686 289.333 340.82 289.956 340.833L293.008 340.896C291.436 340.81 289.608 340.604 288.402 339.99C281.62 336.314 254.939 321.813 254.481 321.051C254.159 320.514 250.981 314.93 250.981 314.93L250.807 323.249L250.806 323.324ZM257.806 353.229H256.931L243.105 324.723V315.447C243.105 315.447 244.315 323.241 244.768 324.555C245.731 327.346 257.806 353.229 257.806 353.229Z" fill="#443731" />
	</g>
	<g clip-path="url(#clip2_23226_19702)">
		<path d="M98.7227 89.6953H99.4156V102.857H98.7227V89.6953Z" fill="#DBD6C1" />
		<path d="M99.0682 107.015C98.7465 107.015 98.4381 106.887 98.2107 106.659C97.9832 106.432 97.8555 106.124 97.8555 105.802V103.204C97.8555 102.883 97.9832 102.575 98.2107 102.347C98.4381 102.12 98.7465 101.992 99.0682 101.992C99.3898 101.992 99.6982 102.12 99.9257 102.347C100.153 102.575 100.281 102.883 100.281 103.204V105.802C100.281 106.124 100.153 106.432 99.9257 106.659C99.6982 106.887 99.3898 107.015 99.0682 107.015Z" fill="#EFECDF" />
		<path d="M130.726 349.384C130.726 351.059 120.643 352.417 108.205 352.417C95.7668 352.417 85.6836 351.059 85.6836 349.384V347.133H130.726V349.384Z" fill="#DBD6C1" />
		<path d="M105.348 321.422H111.065V344.456H105.348V321.422Z" fill="#EFECDF" />
		<path d="M108.166 45.1878C119.216 45.1878 128.175 44.0247 128.175 42.59C128.175 41.1553 119.216 39.9922 108.166 39.9922C97.1147 39.9922 88.1562 41.1553 88.1562 42.59C88.1562 44.0247 97.1147 45.1878 108.166 45.1878Z" fill="#DBD6C1" />
		<path d="M108.206 322.285C109.785 322.285 111.065 321.936 111.065 321.506C111.065 321.075 109.785 320.727 108.206 320.727C106.627 320.727 105.348 321.075 105.348 321.506C105.348 321.936 106.627 322.285 108.206 322.285Z" fill="#C6BD95" />
		<path d="M106.82 73.5V321.328C106.82 321.568 107.441 321.761 108.206 321.761C108.972 321.761 109.592 321.568 109.592 321.328V73.5H106.82Z" fill="#DBD6C1" />
		<path d="M128.214 42.5938H88.1952C88.1952 42.5938 74.3359 86.1546 74.3359 86.2365C74.3359 88.2451 89.586 91.0857 108.291 91.0857C126.996 91.0857 141.727 88.1415 142.073 86.2365C142.088 86.156 128.214 42.5938 128.214 42.5938Z" fill="#EFECDF" />
		<path d="M108.205 45.1878C119.256 45.1878 128.214 44.0247 128.214 42.59C128.214 41.1553 119.256 39.9922 108.205 39.9922C97.1538 39.9922 88.1953 41.1553 88.1953 42.59C88.1953 44.0247 97.1538 45.1878 108.205 45.1878Z" fill="#DBD6C1" />
		<path d="M127.336 345.532C125.125 345.033 120.769 342.541 118.12 339.893C112.707 334.481 110.851 331.981 110.851 323.148L107.968 329.063V329.07L105.48 323.148C105.653 331.635 103.233 334.488 97.8195 339.9C94.8649 342.853 90.1179 345.266 87.9998 345.792C86.5178 346.196 85.6836 346.651 85.6836 347.132C85.6836 348.807 95.7668 350.165 108.205 350.165C120.643 350.165 130.726 348.807 130.726 347.132C130.726 346.545 129.484 345.996 127.336 345.532Z" fill="#EFECDF" />
	</g>
	<g clip-path="url(#clip3_23226_19702)">
		<path d="M274.822 205.409C273.284 225.06 202.06 219.265 202.06 219.265C202.702 220.092 203.33 220.915 203.947 221.739C216.17 238.057 223.792 254.468 241.639 291.487L222.264 304.901L221.329 305.549C188.889 271.827 169.924 248.034 160.277 230.571C159.664 229.461 159.088 228.376 158.55 227.317C158.496 227.213 158.442 227.109 158.39 227.005V227.001C148.486 207.364 151.224 196.239 159.702 187.668C169.611 177.653 196.914 174.731 217.767 174.026C220.997 173.915 224.073 173.859 226.905 173.839C236.925 173.762 243.896 174.127 243.896 174.127C243.896 174.127 276.359 185.759 274.822 205.409Z" fill="#58A65F" />
		<path d="M236.051 166.055L226.906 173.843L160.278 230.575C159.665 229.465 159.089 228.38 158.551 227.321C165.771 202.652 168.987 185.358 192.687 180.034C204.937 177.282 210.388 176.348 217.768 174.03C230.26 170.103 235.886 166.171 236.051 166.055ZM241.641 291.491L222.266 304.906C220.603 304.647 220.078 304.352 221.302 303.729C228.968 299.824 237.822 291.144 237.127 286.63C236.433 282.116 203.45 223.783 203.45 223.783L203.948 221.743C216.171 238.061 223.793 254.472 241.641 291.491Z" fill="#4C874E" />
		<path d="M219.744 303.868C219.744 303.868 224.217 305.23 241.197 290.266C242.71 289.594 246.745 290.266 244.559 294.301C244.559 294.301 246.259 298.655 250.948 303.549C254.814 307.584 266.246 307.92 264.901 318.848C263.719 328.453 241.869 349.952 241.869 349.952L222.704 339.696L226.066 331.963C226.066 331.963 231.11 324.229 229.765 320.53C228.42 316.831 222.434 307.903 222.434 307.903C222.434 307.903 217.895 307.903 219.744 303.868Z" fill="#EFECDF" />
		<path d="M223.394 309.367C222.81 308.468 222.434 307.907 222.434 307.907C222.434 307.907 226.364 306.423 230.183 304.166C233.381 302.277 226.326 308.145 223.394 309.367ZM245.114 295.499V295.501C245.114 295.501 239.904 298.437 241.293 297.221C242.682 296.006 244.558 294.305 244.558 294.305C244.558 294.305 244.73 294.744 245.114 295.499ZM259.191 330.106C252.355 339.639 241.869 349.957 241.869 349.957L238.153 347.967L225.643 334.651L227.891 331.75C236.432 333.679 242.161 340.797 243.897 342.707C244.904 343.816 253.235 337.028 259.191 330.106ZM264.9 318.851C264.546 321.726 262.342 325.665 259.427 329.775C246.834 321.009 254.509 305.895 254.509 305.895C259.344 308.285 265.94 310.403 264.9 318.851Z" fill="#DBD6C1" />
		<path d="M207.068 352.313C205.387 330.96 234.303 320.704 243.952 347.85C258.175 330.96 269.439 319.191 263.055 311.298C264.732 310.112 270.106 309.97 270.616 315.324C271.288 322.386 247.752 353.322 239.85 356.516C231.949 359.711 214.801 359.038 208.413 356.684C206.267 355.894 205.555 353.826 207.068 352.313Z" fill="#FFCE55" />
		<path d="M256.562 332.72C263.299 324.099 266.913 317.361 263.698 312.189C263.698 312.189 266.872 311.585 267.189 314.642C267.507 317.701 261.067 327.429 256.562 332.72ZM207.07 352.304C207.07 352.304 221.725 357.193 237.301 352.944C241.12 351.903 243.954 347.841 243.954 347.841L243.898 347.563C243.898 347.563 241.294 350.861 236.781 352.076C222.387 355.952 207.004 350.976 207.004 350.976L207.07 352.304Z" fill="#F4BA37" />
		<path d="M280.178 217.358C258.305 228.295 204.664 220.309 204.664 220.309C199.63 260.934 187.999 271.35 168.036 318.572L146.598 311.123L143.559 310.065C154.842 250.344 161.265 206.594 175.153 190.796C185.452 179.077 218.977 175.143 244.723 175.695C246.454 175.732 248.148 175.789 249.799 175.865C249.799 175.865 252.07 174.994 255.543 174.02C263.919 171.676 279.288 168.749 286.634 176.075C287.337 176.777 287.968 177.572 288.511 178.469C296.903 192.353 297.147 208.872 280.178 217.358Z" fill="#58A65F" />
		<path d="M280.176 217.357C258.303 228.294 204.662 220.308 204.662 220.308C199.628 260.933 187.997 271.35 168.034 318.571L146.596 311.122L146.43 309.849C146.43 309.849 163.298 315.547 167.402 312.893C171.506 310.238 179.317 289.058 187.824 270.308C196.33 251.558 202.046 227.167 203.274 218.572C204.142 212.496 205.704 213.017 205.183 217.357C205.066 221.095 245.631 221.871 261.949 218.225C272.947 215.768 279.478 210.693 282.433 203.121C285.211 196.003 259.866 191.837 244.832 180.238C242.491 178.431 242.947 176.672 244.721 175.694C246.695 174.606 250.62 174.118 255.542 174.019C264.529 173.84 276.837 174.955 286.633 176.075C287.336 176.776 287.966 177.571 288.509 178.469C296.901 192.352 297.145 208.871 280.176 217.357Z" fill="#4C874E" />
		<path d="M205.398 178.501C205.398 178.501 206.747 179.335 208.483 178.988C210.532 178.578 209.26 181.222 209.26 181.222C209.26 181.222 210.558 182.9 212.996 182.807C215.434 182.714 214.414 184.34 214.414 184.34C214.414 184.34 216.294 185.758 219.245 184.717L221.502 186.974C221.502 186.974 224.28 188.363 228.62 183.154C230.586 180.795 234.695 184.89 242.854 180.897C242.854 180.897 245.718 181.472 250.97 184.31C256.221 187.147 255.527 172.738 255.527 172.738L235.737 164.578L207.386 171.101L205.398 178.501Z" fill="#4C874E" />
		<path d="M168.354 321.903C168.354 321.903 166.236 327.047 166.071 333.335C166.047 334.254 166.247 335.505 166.512 336.953C167.585 342.804 169.726 351.861 162.431 355.177C160.128 356.224 156.881 357.08 153.316 357.774C142.796 359.824 129.505 360.47 129.505 360.47L125.535 338.96C125.535 338.96 134.541 336.688 136.786 332.839C140.261 326.882 141.822 314.229 141.822 314.229C139.565 313.014 138.697 309.195 143.57 308.846C145.393 308.716 154.126 314.802 168.354 316.457C172.135 316.898 172.491 321.752 168.354 321.903Z" fill="#EFECDF" />
		<path d="M141.599 315.823C141.603 315.795 141.608 315.769 141.611 315.741C141.733 314.941 141.8 314.413 141.818 314.273L141.823 314.234C141.823 314.234 144.531 315.677 149.808 317.707C152.065 318.575 149.114 318.401 141.599 315.823ZM168.355 321.91C168.355 321.91 168.354 321.91 168.354 321.911C168.338 321.95 168.211 322.266 168.022 322.811C168.015 322.83 168.008 322.849 168.001 322.87C165.432 322.394 161.787 321.179 163.349 321.352C165.448 321.587 168.355 321.91 168.355 321.91ZM162.432 355.182C160.129 356.229 156.882 357.085 153.317 357.779C153.301 357.491 153.292 357.203 153.289 356.915C153.126 340.741 166.514 336.958 166.514 336.958C167.586 342.809 169.727 351.866 162.432 355.182ZM151.475 357.291L150.706 358.251C140.724 359.93 129.506 360.475 129.506 360.475L128.168 353.224L130.373 343.677C130.373 343.677 133.143 346.873 136.094 357.289C136.57 358.968 151.475 357.291 151.475 357.291Z" fill="#DBD6C1" />
		<path d="M99.8904 354.847C102.041 331.516 134.304 327.711 134.686 360.127C165.74 355.509 165.952 353.119 167.187 349.586C168.903 349.821 172.896 356.244 163.424 358.818C160.635 359.575 131.318 365.404 121.556 365.735C111.795 366.066 99.6824 359.544 98.8974 358.983C97.7395 358.156 97.0778 355.674 99.8904 354.847Z" fill="#FFCE55" />
		<path d="M158.849 355.542C165.074 353.757 166.204 352.224 166.881 350.453C166.881 350.453 170.492 353.446 158.849 355.542ZM134.686 360.132C134.686 360.132 125.157 361.63 120.123 361.456C111.594 361.163 99.8906 354.851 99.8906 354.851C99.9392 354.316 100.005 353.792 100.085 353.278C101.908 354.306 112.511 360.099 120.123 360.415C126.55 360.682 132.358 360.021 134.677 359.703C134.683 359.845 134.684 359.988 134.686 360.132Z" fill="#F4BA37" />
		<path d="M330 162.677C333.819 172.052 319.585 184.205 287.817 172.052C276.018 154.758 312.988 127.955 330 162.677Z" fill="#E5A32C" />
		<path d="M252.922 105.729C252.326 106.24 249.509 105.724 246.735 104.875C246.73 104.875 246.724 104.874 246.719 104.872C245.134 104.386 243.567 103.79 242.437 103.217C242.435 103.217 242.433 103.216 242.433 103.216C241.503 102.742 240.871 102.283 240.77 101.91C240.497 100.894 243.502 95.0351 243.891 92.0212C243.909 91.8893 243.921 91.7643 243.928 91.6445C243.935 91.5125 243.907 91.3754 243.844 91.2295C242.548 88.1688 226.535 82.4658 226.535 82.4658C226.612 82.1446 226.695 81.8303 226.787 81.5213C226.973 80.8923 227.198 80.2754 227.46 79.6741C230.727 72.1412 238.916 69.1638 243.895 72.7436C243.895 72.7436 248.061 72.0492 251.359 75.0006C252.649 76.1533 254.1 77.9797 255.165 80.5925C257.246 85.6914 257.859 93.7901 252.922 105.729Z" fill="#60524A" />
		<path d="M249.452 109.724C240.444 123.418 232.617 118.441 232.961 112.328C233.428 110.33 233.407 108.484 233.207 106.97L233.206 106.969C232.883 104.536 232.093 102.953 232.093 102.953C224.107 104.168 221.156 99.2952 221.156 94.7935C221.156 89.238 225.137 82.9534 228.1 80.2103C239.731 69.4466 247.716 84.5506 243.55 94.4463C243.724 103.648 249.452 109.724 249.452 109.724Z" fill="#FFA290" />
		<path d="M235.891 77.5861C235.891 77.5861 242.485 78.8003 242.148 90.5285L245.457 86.8054L242.159 78.4722L236.257 76.5625L235.891 77.5861ZM240.8 102.017C240.8 102.017 242.159 105.208 246.76 105.888L245.284 103.125L241.623 101.544L240.8 102.017Z" fill="#EE8268" />
		<path d="M249.767 105.652C249.767 105.652 248.403 105.349 246.736 104.873C246.731 104.873 246.726 104.871 246.72 104.869C244.651 104.279 242.12 103.427 241.164 102.571C241.162 102.569 241.16 102.569 241.158 102.567C240.912 102.345 240.771 102.125 240.771 101.908C240.771 100.172 242.507 98.0883 243.481 95.8974C243.891 94.9755 243.955 93.4634 243.893 92.0189C243.882 91.7516 243.865 91.4859 243.846 91.2273C243.726 89.5658 243.481 88.1769 243.481 88.1769C242.716 76.066 232.671 74.908 226.788 81.519C226.517 81.8228 226.26 82.1379 226.016 82.4635C226.13 81.7725 226.934 80.4704 227.462 79.6718C227.729 79.2673 227.925 78.9913 227.925 78.9913L234.522 75.1719L243.028 78.1232L248.007 89.6926L249.566 103.823L249.767 105.652Z" fill="#60524A" />
		<path d="M247.924 86.213C247.776 86.0176 247.249 85.9466 247.088 85.9248C246.743 85.8782 246.676 86.4095 246.933 86.4369C247.19 86.4643 247.825 86.6171 247.852 86.5871C247.878 86.557 248.073 86.4083 247.924 86.213Z" fill="#3A5082" />
		<path d="M243.896 72.7451C243.896 72.7451 241.987 73.7868 241.64 73.6132C241.293 73.4396 243.252 72.3281 243.252 72.3281L243.896 72.7451ZM252.923 105.731C252.328 106.241 249.511 105.726 246.736 104.877C246.731 104.877 246.726 104.875 246.721 104.873C244.652 104.283 242.121 103.431 241.164 102.575C241.523 102.814 241.954 103.03 242.435 103.217C242.435 103.217 242.437 103.219 242.438 103.219C244.454 104.005 247.348 104.304 249.566 103.826C250.97 103.524 252.044 102.878 252.576 101.911C256.395 94.9671 256.222 85.245 255.166 80.594C257.248 85.6929 257.86 93.7916 252.923 105.731Z" fill="#54463E" />
		<path d="M233.208 106.967L233.206 106.966C232.884 104.533 232.094 102.95 232.094 102.95C232.094 102.95 234.187 102.622 236.434 101.388C237.897 100.584 237.302 103.645 233.208 106.967Z" fill="#EE8268" />
		<path d="M330 162.669C325.139 156.94 299.273 156.072 283.129 161.801C281.393 177.947 291.727 177.796 284.691 179.683C259.346 176.211 277.053 165.621 251.881 172.739C231.965 175.996 221.99 176.27 215.763 176.822C213.361 177.036 211.515 177.291 209.871 177.773C205.655 178.36 193.206 180.204 183.832 182.808C184.332 181.742 185.021 180.652 185.842 179.549C191.578 171.864 203.795 163.666 203.795 159.718L182.676 140.744C182.676 140.744 201.598 123.036 212.756 118.279C222.473 114.135 232.96 112.323 232.96 112.323C233.654 118.052 244.417 116.316 248.93 109.198C248.93 109.198 269.588 106.073 281.046 109.545C304.55 116.668 325.833 147.566 330 162.669Z" fill="#FFCE55" />
		<path d="M266.927 141.182C268.639 145.576 271.324 153.124 278.577 161.801C278.577 161.801 278.578 161.803 278.58 161.804L278.582 161.803L292.535 168.317C292.712 165.86 292.963 163.548 293.274 161.374C292.852 161.959 290.727 164.79 289.403 164.661C286.794 164.405 282.096 162.295 279.203 158.759C272.887 151.041 270.585 146.135 268.146 141.036C267.056 138.756 266.69 134.237 266.261 133.935C265.781 133.598 266.481 140.038 266.927 141.182ZM213.343 176.908C212.449 171.99 214.036 157.301 216.534 148.991C217.39 146.145 216.001 139.669 215.677 140.217C215.591 140.362 216.565 145.823 215.74 148.498C214.072 153.903 211.781 157.464 210.913 163.02C209.848 169.836 210.119 171.922 210.219 177.256C210.566 177.603 211.781 178.124 213.343 176.908Z" fill="#F4BA37" />
		<path d="M226.494 102.661C226.489 102.661 226.482 102.663 226.477 102.665C222.673 101.437 221.156 98.0172 221.156 94.7898C221.156 92.1527 222.052 89.3524 223.312 86.8438L223.34 86.9514C223.34 86.9514 225.149 88.3663 224.455 90.6232C230.878 90.7968 230.53 102.255 226.494 102.661Z" fill="#EE8268" />
		<path d="M210.098 114.89C195.667 124.756 173.983 134.353 163.726 145.116C135.736 174.485 171.28 203.708 195.841 172.547C208.254 156.798 229.34 123.691 230.529 115.973C231.096 112.29 230.659 106.31 226.492 102.664C226.593 102.517 226.636 102.318 226.781 102.232C228.793 101.043 228.863 97.9057 228.619 95.8347C228.272 92.8834 225.798 90.5115 223.541 91.5532C224.93 88.7754 222.673 85.4768 220.069 86.6921C220.243 85.3032 217.813 83.0463 215.209 85.4768C215.035 84.6088 213.473 82.6991 211.042 84.6088C209.535 85.7935 204.173 95.117 205.041 100.152C205.668 103.789 208.748 109.367 210.409 112.184C211.047 113.266 210.565 114.571 210.098 114.89Z" fill="#FFA290" />
		<path d="M226.766 102.254C226.679 102.388 226.589 102.523 226.493 102.662C224.974 102.777 223.889 101.978 223.889 100.579C223.889 99.0163 225.451 96.2386 225.799 96.4122C226.146 96.5858 224.8 98.8497 224.584 100.232C224.299 102.056 225.984 102.395 226.766 102.254ZM223.847 90.7282C223.778 91.0043 223.678 91.2786 223.544 91.5494L223.542 91.5511C223.542 91.5511 221.459 92.7664 218.855 97.2803C217.509 99.6136 219.348 92.6293 223.847 90.7282ZM220.07 86.6901C220.07 86.6901 217.64 88.079 215.036 93.9817C213.775 96.8358 214.208 90.3185 219.886 85.8064C220.037 86.105 220.105 86.4158 220.07 86.6901ZM215.209 85.4748C215.209 85.4748 213.336 87.3133 211.043 91.8984C209.166 95.6518 210.852 88.7855 214.866 84.7578C215.051 85.0113 215.169 85.2717 215.209 85.4748Z" fill="#EE8268" />
		<path d="M230.529 115.969C229.34 123.686 208.254 156.794 195.841 172.542C171.28 203.703 135.736 174.48 163.726 145.112L230.529 115.969Z" fill="#FFA290" />
		<path d="M210.638 112.734C210.638 112.734 213.689 115.625 213.168 115.625C212.647 115.625 209.93 115.002 209.93 115.002C209.93 115.002 210.911 114.409 210.638 112.734Z" fill="#EE8268" />
		<path d="M288.273 193.881C264.2 191.095 245.528 181.001 242.403 178.744C242.403 178.744 239.973 181.522 235.807 181.175C231.469 180.814 230.599 180.48 229.384 181.001C228.169 181.522 225.278 185.715 223.829 186.73C222.093 187.946 218.794 187.078 218.968 183.605C217.058 185.515 212.892 184.994 212.545 181.696C211.156 182.564 207.858 181.696 208.205 178.05C205.254 179.786 202.452 177.428 203.692 173.71C205.948 166.939 216.571 159.699 223.134 158.606C231.467 157.217 249.561 153.802 283.065 161.788C289.488 158.316 306.674 150.851 323.165 157.101C324.603 159.91 325.604 162.647 326.2 165.281C330.352 183.646 314.69 196.939 288.273 193.881Z" fill="#FFA290" />
		<path d="M220.357 159.649C220.357 159.649 216.566 159.796 214.802 159.649C212.719 159.475 211.162 158.645 209.942 158.781C208.379 158.954 206.689 160.797 207.685 163.121C208.726 165.551 212.893 166.593 216.538 164.857C220.184 163.121 220.357 159.649 220.357 159.649Z" fill="#FFA290" />
		<path d="M217.569 184.468C218.094 184.284 218.579 183.996 218.969 183.605C218.969 183.605 220.657 177.84 226.26 172.668C230.668 168.599 220.009 174.797 217.569 184.468ZM211.27 182.005C211.757 182.015 212.208 181.908 212.546 181.696C212.72 179.439 214.803 173.189 221.573 168.154C226.818 164.255 213.241 170.238 211.274 181.982C211.272 181.989 211.272 181.998 211.27 182.005ZM206.922 178.559V178.56C207.339 178.474 207.771 178.307 208.206 178.05C208.206 178.05 209.074 170.411 218.449 164.856C222.79 162.283 209.595 166.245 206.922 178.559ZM209.224 164.809C209.524 164.995 209.854 165.153 210.208 165.283C213.598 162.583 219.468 159.675 219.468 159.675C219.225 159.682 218.943 159.689 218.638 159.694C214.168 161.55 210.812 163.703 209.224 164.809ZM242.405 178.744C242.405 178.744 243.1 178.049 243.447 177.181C243.794 176.313 244.315 177.288 243.447 179.491L242.405 178.744ZM306.045 166.321C305.3 167.216 293.025 163.717 283.066 161.788C289.489 158.316 306.675 150.851 323.167 157.101C324.604 159.91 325.606 162.647 326.201 165.281C315.284 159.383 295.803 160.418 295.803 161.807C295.803 162.815 306.913 165.279 306.045 166.321Z" fill="#EE8268" />
		<path d="M283.13 161.803C299.274 156.074 325.14 156.942 330.001 162.671C325.835 147.567 304.552 116.67 281.047 109.547L283.13 161.803Z" fill="#FFCE55" />
	</g>
	<g clip-path="url(#clip4_23226_19702)">
		<path d="M334.82 200.546L346.451 376.126L338.63 359.447L327.137 192.984L334.82 200.546Z" fill="#C6BD95" />
		<path d="M350.804 376.128H346.451L335.16 205.684L335.08 204.465L334.82 200.547H339.088L339.35 204.465L339.432 205.684L350.804 376.128Z" fill="#DBD6C1" />
		<path d="M339.43 205.683H335.159L335.079 204.464H339.349L339.43 205.683ZM66.8841 200.546L55.2539 376.126L63.0746 359.447L74.5677 192.984L66.8841 200.546Z" fill="#C6BD95" />
		<path d="M50.9023 376.128H55.2558L66.5469 205.684L66.627 204.465L66.8865 200.547H62.6183L62.3571 204.465L62.2753 205.684L50.9023 376.128Z" fill="#DBD6C1" />
		<path d="M62.2734 205.68H66.545L66.6251 204.461H62.3553L62.2734 205.68Z" fill="#C6BD95" />
		<path d="M349.651 196.797H52.7461L66.192 178.507C66.2899 178.399 66.4093 178.313 66.5426 178.254C66.6759 178.195 66.8201 178.164 66.9658 178.164H335.779C336.074 178.164 336.355 178.289 336.553 178.507L349.651 196.797Z" fill="#EFECDF" />
		<path d="M350 197.466V203.62C350 204.085 349.624 204.461 349.159 204.461H53.2395C52.7746 204.461 52.3984 204.085 52.3984 203.62V197.466C52.3984 197.001 52.7746 196.625 53.2395 196.625H349.159C349.624 196.625 350 197.001 350 197.466Z" fill="#DBD6C1" />
	</g>
	<g clip-path="url(#clip5_23226_19702)">
		<path d="M73.3633 174.244V181.048L99.3214 188.593L110.544 181.863L78.8671 172.617L73.3633 174.244Z" fill="#F7F5ED" />
		<path d="M103.371 179.769V186.164L100.077 188.14C99.9974 187.81 100.022 187.423 100.196 186.969C101.14 184.513 99.4549 183.095 98.9781 182.868C98.3755 182.581 73.3633 175.07 73.3633 175.07V174.244L78.8671 172.617L103.371 179.769Z" fill="#E2DBC5" />
		<path d="M72.5547 173.042L100.319 181.222L123.235 173.166L95.9972 166.774C95.6579 166.694 95.304 166.701 94.9683 166.795L72.5547 173.042Z" fill="#58A65F" />
		<path d="M100.319 181.22C100.319 181.22 102.344 186.774 99.9414 188.968L123.382 180.226C125.509 179.335 125.166 173.884 123.235 173.164L100.319 181.22Z" fill="#3B723B" />
		<path d="M99.4251 189.073C99.2231 189.082 98.5883 188.951 97.6398 188.718C92.0217 187.338 75.4003 182.362 72.5833 181.516C72.3417 181.444 72.1773 181.22 72.1797 180.968C72.1829 180.649 72.4447 180.407 72.7453 180.407C72.7963 180.407 72.8486 180.414 72.9006 180.429L99.3907 187.907C101.759 185.919 100.489 182.388 99.3907 182.079L72.5326 173.994C72.321 173.93 72.1773 173.734 72.1797 173.514C72.1829 173.235 72.4125 173.023 72.675 173.023C72.7217 173.023 72.7694 173.03 72.8172 173.044L100.317 181.222C102.857 182.319 102.685 188.73 99.4251 189.073Z" fill="#4C874E" />
		<path d="M99.3907 187.906C99.3907 187.906 98.4215 188.551 97.6398 188.717C92.0217 187.337 75.4003 182.361 72.5833 181.515C72.3417 181.442 72.1773 181.219 72.1797 180.967C72.1829 180.648 72.4447 180.406 72.7453 180.406C72.7963 180.406 72.8486 180.413 72.9006 180.428L99.3907 187.906Z" fill="#3B723B" />
	</g>
	<g clip-path="url(#clip6_23226_19702)">
		<path d="M119.047 172.239C112.94 174.505 100.3 179.137 99.0684 179.108C98.1231 179.086 84.6981 174.477 77.0312 171.82L94.8626 166.804C95.2335 166.699 95.6246 166.691 95.9995 166.78L119.047 172.239Z" fill="#4C874E" />
	</g>
	<g clip-path="url(#clip7_23226_19702)">
		<path d="M117.22 167.234V170.945L99.7824 177.197L94.4688 173.535L101.853 167.658L117.22 167.234Z" fill="#F7F5ED" />
		<path d="M99.0506 176.03C99.0506 176.03 98.9851 174.88 99.5589 174.382C100.068 173.941 117.221 168.089 117.221 168.089V167.234L96.0664 169.227V173.926L99.0506 176.03L99.0506 176.03Z" fill="#E2DBC5" />
		<path d="M117.646 166.712L96.5281 160.445C96.2766 160.371 96.0085 160.372 95.7579 160.45L76.4844 166.433L99.1608 172.983L117.646 166.712V166.712Z" fill="#FFCE55" />
		<path d="M76.4826 166.438L99.159 172.988C99.159 172.988 97.3835 176.181 99.6059 177.498L76.4826 170.912C74.9359 170.148 75.1853 166.736 76.4826 166.438Z" fill="#E5A32C" />
		<path d="M117.683 167.316C115.674 168.015 99.6897 173.512 99.4096 173.628C98.736 174.027 98.6861 176.642 99.7588 176.791L117.501 170.607C117.729 170.526 117.97 170.695 117.97 170.937C117.97 171.01 117.948 171.08 117.906 171.139C117.864 171.198 117.805 171.243 117.737 171.268C115.671 172.008 100.194 177.439 100.008 177.439C98.0126 177.987 97.6134 173.653 99.1601 172.981L117.479 166.72C117.683 166.651 117.895 166.803 117.895 167.018C117.895 167.084 117.875 167.148 117.837 167.201C117.799 167.254 117.745 167.294 117.683 167.316L117.683 167.316Z" fill="#F4BA37" />
		<path d="M117.968 170.937C117.968 171.011 117.945 171.081 117.904 171.139C117.863 171.198 117.804 171.243 117.736 171.267C115.931 171.914 103.893 176.14 100.753 177.198C100.294 177.057 99.9347 176.89 99.7344 176.787C99.742 176.789 99.7497 176.79 99.7574 176.791L117.499 170.607C117.728 170.525 117.968 170.695 117.968 170.937Z" fill="#E5A32C" />
	</g>
	<g clip-path="url(#clip8_23226_19702)">
		<path d="M235.747 186.225L190.262 193.426L181.694 187.272L186.462 177.647L235.735 183.588L235.747 186.225Z" fill="#667AC4" />
		<path d="M189.471 191.172L235.62 183.593C235.684 183.583 235.75 183.587 235.813 183.605C235.875 183.624 235.933 183.656 235.981 183.7C236.029 183.744 236.067 183.798 236.091 183.859C236.115 183.919 236.125 183.984 236.121 184.049L235.991 185.882C235.976 186.082 235.826 186.246 235.627 186.278L190.263 193.428L189.471 191.172L189.471 191.172ZM204.976 181.444L192.457 179.845C192.067 179.796 191.673 179.806 191.287 179.876L185.368 180.942C185.155 180.98 185.163 181.288 185.378 181.316L197.688 182.887C198.055 182.933 198.426 182.926 198.791 182.864L204.983 181.818C205.198 181.782 205.192 181.471 204.976 181.443L204.976 181.444ZM206.992 185.765L167.316 179.964L163.889 180.997L202.872 186.607C203.121 186.643 203.374 186.64 203.621 186.597L206.996 186.014C207.138 185.99 207.135 185.785 206.992 185.765ZM199.054 186.993L159.377 181.193L155.951 182.226L194.615 187.814C194.864 187.849 195.117 187.846 195.365 187.803L199.057 187.243C199.199 187.219 199.196 187.014 199.054 186.993Z" fill="#4A63A8" />
		<path d="M176.537 150.736L130.568 146.395C130.056 146.349 129.544 146.48 129.118 146.768L127.217 148.051L130.923 153.736L142.968 189.169L190.261 193.429L192.183 192.132L177.985 151.878C177.881 151.568 177.688 151.295 177.431 151.092C177.174 150.889 176.863 150.766 176.537 150.736Z" fill="#4A63A8" />
		<path d="M190.259 193.431L189.633 193.377L141.235 189.208C141.039 189.191 140.853 189.118 140.698 188.999C140.542 188.879 140.425 188.717 140.36 188.532L130.599 161.008C130.598 161.007 130.598 161.005 130.598 161.005L126.476 149.385C126.227 148.684 126.789 147.961 127.532 148.028L174.806 152.316C175.123 152.345 175.426 152.464 175.677 152.659C175.928 152.855 176.118 153.119 176.223 153.419L190.259 193.432L190.259 193.431Z" fill="#667AC4" />
		<path d="M189.634 193.372L141.236 189.202C141.041 189.186 140.854 189.113 140.699 188.993C140.544 188.873 140.427 188.711 140.362 188.527L130.601 161.003C130.753 161.292 140.52 179.8 143.648 183.451C146.802 187.13 189.634 193.372 189.634 193.372Z" fill="#4A63A8" />
		<path d="M191.715 190.804C191.715 190.804 192.323 192.33 192.521 193.073L193.107 192.976C193.107 192.976 192.561 191.231 192.248 190.717C191.664 190.37 191.715 190.804 191.715 190.804L191.715 190.804Z" fill="#667AC4" />
	</g>
	<g clip-path="url(#clip9_23226_19702)">
		<path d="M288.241 193.808C264.187 191.022 245.53 180.929 242.408 178.672C242.408 178.672 239.979 181.45 235.816 181.102C231.482 180.741 230.613 180.408 229.398 180.929C228.184 181.45 225.296 185.642 223.848 186.657C222.113 187.873 218.817 187.005 218.991 183.533C217.083 185.442 212.92 184.922 212.573 181.623C211.185 182.491 207.89 181.623 208.236 177.978C205.288 179.714 202.488 177.356 203.727 173.638C205.981 166.868 216.595 159.629 223.154 158.535C231.48 157.146 249.559 153.732 283.037 161.717C289.455 158.245 306.627 150.781 323.106 157.03C324.542 159.839 325.543 162.576 326.138 165.21C330.287 183.573 314.638 196.865 288.241 193.808Z" fill="#FFA290" />
		<path d="M220.378 159.578C220.378 159.578 216.59 159.725 214.828 159.578C212.746 159.405 211.19 158.575 209.971 158.71C208.41 158.884 206.721 160.727 207.716 163.05C208.757 165.48 212.92 166.522 216.562 164.786C220.205 163.05 220.378 159.578 220.378 159.578Z" fill="#FFA290" />
		<path d="M217.591 184.396C218.117 184.212 218.601 183.923 218.991 183.533C218.991 183.533 220.677 177.768 226.276 172.596C230.68 168.527 220.03 174.725 217.591 184.396ZM211.298 181.932C211.784 181.943 212.235 181.835 212.573 181.623C212.747 179.366 214.828 173.117 221.593 168.083C226.833 164.184 213.267 170.166 211.302 181.91C211.3 181.917 211.3 181.925 211.298 181.932ZM206.953 178.486V178.488C207.369 178.401 207.801 178.235 208.237 177.978C208.237 177.978 209.104 170.34 218.471 164.784C222.809 162.212 209.624 166.173 206.953 178.486ZM209.253 164.738C209.553 164.923 209.883 165.081 210.237 165.212C213.624 162.512 219.489 159.604 219.489 159.604C219.246 159.611 218.965 159.618 218.66 159.624C214.193 161.479 210.84 163.632 209.253 164.738ZM305.998 166.25C305.253 167.144 292.988 163.646 283.037 161.717C289.455 158.245 306.628 150.781 323.106 157.03C324.542 159.839 325.543 162.576 326.138 165.21C315.229 159.313 295.764 160.347 295.764 161.736C295.764 162.744 306.865 165.208 305.998 166.25Z" fill="#EE8268" />
		<path d="M283.101 161.736C299.233 156.008 325.078 156.876 329.935 162.604C325.772 147.502 304.506 116.607 281.02 109.484L283.101 161.736Z" fill="#FFCE55" />
	</g>
	<defs>
		<clipPath id="clip0_23226_19702">
			<rect width="32.5893" height="11.9853" fill="white" transform="translate(249.941 244.289)" />
		</clipPath>
		<clipPath id="clip1_23226_19702">
			<rect width="126.048" height="266.371" fill="white" transform="translate(184.223 96.1562)" />
		</clipPath>
		<clipPath id="clip2_23226_19702">
			<rect width="67.7373" height="312.427" fill="white" transform="translate(74.3359 39.9922)" />
		</clipPath>
		<clipPath id="clip3_23226_19702">
			<rect width="232.704" height="294.516" fill="white" transform="translate(97.9023 71.2344)" />
		</clipPath>
		<clipPath id="clip4_23226_19702">
			<rect width="299.903" height="197.96" fill="white" transform="translate(50.9023 178.164)" />
		</clipPath>
		<clipPath id="clip5_23226_19702">
			<rect width="52.6547" height="22.3547" fill="white" transform="translate(72.1797 166.719)" />
		</clipPath>
		<clipPath id="clip6_23226_19702">
			<rect width="42.016" height="12.3893" fill="white" transform="translate(77.0312 166.719)" />
		</clipPath>
		<clipPath id="clip7_23226_19702">
			<rect width="42.5547" height="17.1027" fill="white" transform="translate(75.4141 160.391)" />
		</clipPath>
		<clipPath id="clip8_23226_19702">
			<rect width="111.908" height="42.6893" fill="white" transform="matrix(-0.997489 -0.070825 -0.070825 0.997489 238.25 154.039)" />
		</clipPath>
		<clipPath id="clip9_23226_19702">
			<rect width="126.856" height="85.1093" fill="white" transform="translate(203.078 109.484)" />
		</clipPath>
	</defs>
</svg>
