<svg width="35" height="35" viewBox="0 0 45 45" fill="none" xmlns="http://www.w3.org/2000/svg">
	<path d="M22.3924 2.34375C18.0642 2.34373 14.6722 2.34371 12.0257 2.69953C9.31682 3.06373 7.17928 3.82374 5.50151 5.50151C3.82374 7.17928 3.06373 9.31682 2.69953 12.0257C2.34371 14.6722 2.34373 18.0642 2.34375 22.3924V22.6076C2.34373 26.9359 2.34371 30.3277 2.69953 32.9743C3.06373 35.6831 3.82374 37.8208 5.50151 39.4986C7.17928 41.1763 9.31682 41.9362 12.0257 42.3006C14.6722 42.6562 18.0642 42.6562 22.3924 42.6562H22.6076C26.9359 42.6562 30.3277 42.6562 32.9743 42.3006C35.6831 41.9362 37.8208 41.1763 39.4986 39.4986C41.1763 37.8208 41.9362 35.6831 42.3006 32.9743C42.6562 30.3277 42.6562 26.9359 42.6562 22.6076V19.6875C42.6562 18.9109 42.0266 18.2812 41.25 18.2812C40.4734 18.2812 39.8437 18.9109 39.8437 19.6875V22.5C39.8437 26.9591 39.8407 30.162 39.513 32.5995C39.1909 34.9965 38.5779 36.4416 37.5097 37.5097C36.4416 38.5779 34.9965 39.1909 32.5995 39.513C30.162 39.8407 26.9591 39.8437 22.5 39.8437C18.0408 39.8437 14.8379 39.8407 12.4005 39.513C10.0034 39.1909 8.55834 38.5779 7.49025 37.5097C6.42214 36.4416 5.80922 34.9965 5.48694 32.5995C5.15923 30.162 5.15625 26.9591 5.15625 22.5C5.15625 18.0408 5.15923 14.8379 5.48694 12.4005C5.80922 10.0034 6.42214 8.55834 7.49025 7.49025C8.55834 6.42214 10.0034 5.80922 12.4005 5.48694C14.8379 5.15923 18.0408 5.15625 22.5 5.15625H25.3125C26.0891 5.15625 26.7187 4.52664 26.7187 3.75C26.7187 2.97336 26.0891 2.34375 25.3125 2.34375H22.3924Z" fill="#FF4F4F" />
	<path fill-rule="evenodd" clip-rule="evenodd" d="M35.625 2.34375C31.7417 2.34375 28.5938 5.49174 28.5938 9.375C28.5938 13.2583 31.7417 16.4062 35.625 16.4062C39.5083 16.4062 42.6562 13.2583 42.6562 9.375C42.6562 5.49174 39.5083 2.34375 35.625 2.34375ZM31.4062 9.375C31.4062 7.04505 33.2951 5.15625 35.625 5.15625C37.9549 5.15625 39.8437 7.04505 39.8437 9.375C39.8437 11.7049 37.9549 13.5937 35.625 13.5937C33.2951 13.5937 31.4062 11.7049 31.4062 9.375Z" fill="#FF4F4F" />
	<path d="M11.7188 26.25C11.7188 25.4734 12.3484 24.8438 13.125 24.8438H30C30.7766 24.8438 31.4062 25.4734 31.4062 26.25C31.4062 27.0266 30.7766 27.6562 30 27.6562H13.125C12.3484 27.6562 11.7188 27.0266 11.7188 26.25Z" fill="#FF4F4F" />
	<path d="M13.125 31.4062C12.3484 31.4062 11.7188 32.0359 11.7188 32.8125C11.7188 33.5891 12.3484 34.2188 13.125 34.2188H24.375C25.1516 34.2188 25.7812 33.5891 25.7812 32.8125C25.7812 32.0359 25.1516 31.4062 24.375 31.4062H13.125Z" fill="#FF4F4F" />
</svg>
