<svg width="35" height="35" viewBox="0 0 45 45" fill="none" xmlns="http://www.w3.org/2000/svg">
	<path fill-rule="evenodd" clip-rule="evenodd" d="M13.3102 2.34382C13.4003 2.34386 13.4917 2.3439 13.5845 2.3439H31.4158C31.5084 2.3439 31.5999 2.34386 31.6901 2.34382C33.5964 2.343 34.9084 2.34242 36.0135 2.72691C38.1002 3.45302 39.7204 5.13236 40.4151 7.24798C40.7826 8.36758 40.7822 9.69851 40.7814 11.6748C40.7814 11.7632 40.7814 11.853 40.7814 11.944V38.2018C40.7814 40.9491 37.5433 42.5846 35.4107 40.6331C35.2616 40.4968 35.0513 40.4968 34.9022 40.6331L33.9964 41.4621C32.256 43.0545 29.6192 43.0545 27.879 41.4621C27.2134 40.8529 26.2245 40.8529 25.5589 41.4621C23.8185 43.0545 21.1817 43.0545 19.4415 41.4621C18.7759 40.8529 17.787 40.8529 17.1213 41.4621C15.381 43.0545 12.7443 43.0545 11.0039 41.4621L10.0981 40.6331C9.94909 40.4968 9.73866 40.4968 9.58966 40.6331C7.45697 42.5846 4.21889 40.9491 4.21889 38.2018V11.944C4.21889 11.853 4.21885 11.7632 4.21881 11.6748C4.2181 9.69853 4.21761 8.36758 4.58522 7.24798C5.27984 5.13236 6.90004 3.45302 8.98684 2.72691C10.0918 2.34242 11.4038 2.343 13.3102 2.34382ZM13.5845 5.1564C11.295 5.1564 10.5064 5.17607 9.91112 5.38318C8.67479 5.81338 7.68599 6.8199 7.25738 8.12531C7.04909 8.75968 7.03139 9.59617 7.03139 11.944V38.2018C7.03139 38.4249 7.14374 38.5614 7.2847 38.6267C7.35814 38.6606 7.42996 38.6694 7.48981 38.6614C7.54257 38.6542 7.61084 38.6316 7.69097 38.5582C8.91475 37.4383 10.773 37.4383 11.9968 38.5582L12.9026 39.3872C13.5682 39.9962 14.5571 39.9962 15.2227 39.3872C16.963 37.7946 19.5998 37.7946 21.3401 39.3872C22.0058 39.9962 22.9946 39.9962 23.6603 39.3872C25.4004 37.7946 28.0373 37.7946 29.7776 39.3872C30.4433 39.9962 31.4321 39.9962 32.0978 39.3872L33.0036 38.5582C34.2272 37.4383 36.0855 37.4383 37.3093 38.5582C37.3894 38.6316 37.4576 38.6542 37.5105 38.6614C37.5703 38.6694 37.6421 38.6606 37.7156 38.6267C37.8564 38.5614 37.9689 38.4251 37.9689 38.2018V11.944C37.9689 9.59619 37.9511 8.75968 37.7428 8.12531C37.3142 6.8199 36.3255 5.81338 35.0891 5.38318C34.4938 5.17607 33.7052 5.1564 31.4158 5.1564H13.5845ZM11.7189 14.0626C11.7189 13.286 12.3485 12.6564 13.1251 12.6564H14.0626C14.8393 12.6564 15.4689 13.286 15.4689 14.0626C15.4689 14.8393 14.8393 15.4689 14.0626 15.4689H13.1251C12.3485 15.4689 11.7189 14.8393 11.7189 14.0626ZM18.2814 14.0626C18.2814 13.286 18.9111 12.6564 19.6877 12.6564H31.8752C32.6518 12.6564 33.2814 13.286 33.2814 14.0626C33.2814 14.8393 32.6518 15.4689 31.8752 15.4689H19.6877C18.9111 15.4689 18.2814 14.8393 18.2814 14.0626ZM11.7189 20.6252C11.7189 19.8486 12.3485 19.2189 13.1251 19.2189H14.0626C14.8393 19.2189 15.4689 19.8486 15.4689 20.6252C15.4689 21.4018 14.8393 22.0314 14.0626 22.0314H13.1251C12.3485 22.0314 11.7189 21.4018 11.7189 20.6252ZM18.2814 20.6252C18.2814 19.8486 18.9111 19.2189 19.6877 19.2189H31.8752C32.6518 19.2189 33.2814 19.8486 33.2814 20.6252C33.2814 21.4018 32.6518 22.0314 31.8752 22.0314H19.6877C18.9111 22.0314 18.2814 21.4018 18.2814 20.6252ZM11.7189 27.1877C11.7189 26.4111 12.3485 25.7814 13.1251 25.7814H14.0626C14.8393 25.7814 15.4689 26.4111 15.4689 27.1877C15.4689 27.9643 14.8393 28.5939 14.0626 28.5939H13.1251C12.3485 28.5939 11.7189 27.9643 11.7189 27.1877ZM18.2814 27.1877C18.2814 26.4111 18.9111 25.7814 19.6877 25.7814H31.8752C32.6518 25.7814 33.2814 26.4111 33.2814 27.1877C33.2814 27.9643 32.6518 28.5939 31.8752 28.5939H19.6877C18.9111 28.5939 18.2814 27.9643 18.2814 27.1877Z" fill="#FF4F4F" />
</svg>
