<svg width="9" height="11" viewBox="0 0 9 11" fill="none" xmlns="http://www.w3.org/2000/svg">
<path d="M8.4 3H6.7V2.8C6.7 1.53 5.67 0.5 4.4 0.5C3.13 0.5 2.1 1.53 2.1 2.8V3H0.4C0.17875 3 0 3.17875 0 3.4V10.1C0 10.3212 0.17875 10.5 0.4 10.5H8.4C8.62125 10.5 8.8 10.3212 8.8 10.1V3.4C8.8 3.17875 8.62125 3 8.4 3ZM3 2.8C3 2.02625 3.62625 1.4 4.4 1.4C5.17375 1.4 5.8 2.02625 5.8 2.8V3H3V2.8ZM7.9 9.6H0.9V3.9H2.1V5C2.1 5.055 2.145 5.1 2.2 5.1H2.9C2.955 5.1 3 5.055 3 5V3.9H5.8V5C5.8 5.055 5.845 5.1 5.9 5.1H6.6C6.655 5.1 6.7 5.055 6.7 5V3.9H7.9V9.6Z" fill="black"/>
</svg>
