<svg width="40" height="41" viewBox="0 0 40 41" fill="none" xmlns="http://www.w3.org/2000/svg">
<g id="ClockCircle" clip-path="url(#clip0_1449_18632)">
<g id="Vector">
<path d="M20 0.167969C8.95536 0.167969 0 9.12333 0 20.168C0 31.2126 8.95536 40.168 20 40.168C31.0446 40.168 40 31.2126 40 20.168C40 9.12333 31.0446 0.167969 20 0.167969ZM20 36.7751C10.8304 36.7751 3.39286 29.3376 3.39286 20.168C3.39286 10.9983 10.8304 3.56083 20 3.56083C29.1696 3.56083 36.6071 10.9983 36.6071 20.168C36.6071 29.3376 29.1696 36.7751 20 36.7751Z" fill="#8C8C8C"/>
<path d="M27.7995 25.8156L21.4334 21.2129V10.1638C21.4334 9.96735 21.2727 9.80664 21.0762 9.80664H18.9289C18.7325 9.80664 18.5718 9.96735 18.5718 10.1638V22.4584C18.5718 22.5745 18.6253 22.6816 18.7191 22.7486L26.103 28.1325C26.2637 28.2486 26.487 28.2129 26.603 28.0566L27.8798 26.3156C27.9959 26.1504 27.9602 25.9272 27.7995 25.8156Z" fill="#8C8C8C"/>
</g>
</g>
<defs>
<clipPath id="clip0_1449_18632">
<rect width="40" height="40" fill="white" transform="translate(0 0.167969)"/>
</clipPath>
</defs>
</svg>
