<svg width="52" height="52" viewBox="0 0 52 52" fill="none" xmlns="http://www.w3.org/2000/svg">
<g id="bx:bx-search-alt">
<path id="Vector" d="M22.1631 38.7441C25.9338 38.7434 29.5959 37.481 32.5662 35.1582L41.905 44.497L44.9089 41.4931L35.5701 32.1543C37.8942 29.1837 39.1573 25.5207 39.1582 21.749C39.1582 12.3783 31.5338 4.75391 22.1631 4.75391C12.7924 4.75391 5.16797 12.3783 5.16797 21.749C5.16797 31.1197 12.7924 38.7441 22.1631 38.7441ZM22.1631 9.00269C29.1927 9.00269 34.9094 14.7194 34.9094 21.749C34.9094 28.7786 29.1927 34.4954 22.1631 34.4954C15.1335 34.4954 9.41675 28.7786 9.41675 21.749C9.41675 14.7194 15.1335 9.00269 22.1631 9.00269Z" fill="white"/>
<path id="Vector_2" d="M25.1672 18.7528C25.9724 19.5601 26.4164 20.6265 26.4164 21.7567H30.6651C30.667 20.6402 30.4476 19.5343 30.0195 18.5031C29.5914 17.4719 28.9632 16.5358 28.1711 15.7489C24.9548 12.5368 19.3783 12.5368 16.1641 15.7489L19.1637 18.757C20.7782 17.1468 23.5612 17.151 25.1672 18.7528Z" fill="white"/>
</g>
</svg>
