<svg width="37" height="37" viewBox="0 0 37 37" fill="none" xmlns="http://www.w3.org/2000/svg">
<g id="Social Icons" clip-path="url(#clip0_712_14471)">
<path id="Vector" d="M36.5187 18.7823C36.5187 8.89829 28.5061 0.885742 18.6221 0.885742C8.73814 0.885742 0.725586 8.89829 0.725586 18.7823C0.725586 27.7148 7.27006 35.1188 15.8258 36.4614V23.9555H11.2818V18.7823H15.8258V14.8395C15.8258 10.3541 18.4977 7.87658 22.5856 7.87658C24.543 7.87658 26.5917 8.22612 26.5917 8.22612V12.6304H24.3351C22.112 12.6304 21.4185 14.01 21.4185 15.4267V18.7823H26.382L25.5885 23.9555H21.4185V36.4614C29.9742 35.1188 36.5187 27.7148 36.5187 18.7823Z" fill="#1877F2"/>
<path id="Vector_2" d="M25.589 23.9554L26.3824 18.7822H21.4189V15.4266C21.4189 14.0113 22.1124 12.6302 24.3355 12.6302H26.5922V8.22601C26.5922 8.22601 24.5442 7.87646 22.5861 7.87646C18.4982 7.87646 15.8263 10.354 15.8263 14.8393V18.7822H11.2822V23.9554H15.8263V36.4613C17.6792 36.7512 19.566 36.7512 21.4189 36.4613V23.9554H25.589Z" fill="white"/>
</g>
<defs>
<clipPath id="clip0_712_14471">
<rect width="35.7931" height="35.7931" fill="white" transform="translate(0.725586 0.885742)"/>
</clipPath>
</defs>
</svg>
