<svg width="37" height="37" viewBox="0 0 37 37" fill="none" xmlns="http://www.w3.org/2000/svg">
<g id="Social Icons" clip-path="url(#clip0_712_14473)">
<path id="Vector" d="M18.4805 4.10852C23.2623 4.10852 23.8285 4.12949 25.7091 4.21338C27.4568 4.29028 28.4005 4.5839 29.0297 4.82858C29.8616 5.15015 30.4628 5.54164 31.085 6.16383C31.7142 6.793 32.0987 7.38722 32.4203 8.21913C32.6649 8.84831 32.9586 9.79906 33.0355 11.5398C33.1194 13.4273 33.1403 13.9936 33.1403 18.7683C33.1403 23.55 33.1194 24.1163 33.0355 25.9968C32.9586 27.7446 32.6649 28.6883 32.4203 29.3175C32.0987 30.1494 31.7072 30.7506 31.085 31.3728C30.4558 32.002 29.8616 32.3865 29.0297 32.708C28.4005 32.9527 27.4498 33.2463 25.7091 33.3232C23.8215 33.4071 23.2553 33.4281 18.4805 33.4281C13.6988 33.4281 13.1325 33.4071 11.252 33.3232C9.5043 33.2463 8.56053 32.9527 7.93136 32.708C7.09945 32.3865 6.49823 31.995 5.87605 31.3728C5.24687 30.7436 4.86238 30.1494 4.5408 29.3175C4.29612 28.6883 4.00251 27.7376 3.92561 25.9968C3.84172 24.1093 3.82074 23.5431 3.82074 18.7683C3.82074 13.9866 3.84172 13.4203 3.92561 11.5398C4.00251 9.79207 4.29612 8.84831 4.5408 8.21913C4.86238 7.38722 5.25387 6.78601 5.87605 6.16383C6.50523 5.53465 7.09945 5.15015 7.93136 4.82858C8.56053 4.5839 9.51129 4.29028 11.252 4.21338C13.1325 4.12949 13.6988 4.10852 18.4805 4.10852ZM18.4805 0.885742C13.6219 0.885742 13.0137 0.906715 11.1052 0.990605C9.20369 1.07449 7.8964 1.38209 6.76389 1.82251C5.58243 2.28391 4.58274 2.89211 3.59005 3.8918C2.59036 4.8845 1.98215 5.88419 1.52076 7.05865C1.08033 8.19816 0.772737 9.49846 0.688847 11.4C0.604957 13.3155 0.583984 13.9237 0.583984 18.7823C0.583984 23.6409 0.604957 24.2491 0.688847 26.1576C0.772737 28.0591 1.08033 29.3664 1.52076 30.4989C1.98215 31.6804 2.59036 32.6801 3.59005 33.6728C4.58274 34.6655 5.58244 35.2807 6.7569 35.7351C7.8964 36.1755 9.1967 36.4831 11.0982 36.567C13.0067 36.6509 13.6149 36.6718 18.4735 36.6718C23.3322 36.6718 23.9404 36.6509 25.8489 36.567C27.7504 36.4831 29.0577 36.1755 30.1902 35.7351C31.3647 35.2807 32.3643 34.6655 33.357 33.6728C34.3497 32.6801 34.9649 31.6804 35.4193 30.5059C35.8598 29.3664 36.1674 28.0661 36.2512 26.1646C36.3351 24.2561 36.3561 23.6479 36.3561 18.7893C36.3561 13.9307 36.3351 13.3224 36.2512 11.4139C36.1674 9.51244 35.8598 8.20515 35.4193 7.07264C34.9789 5.88419 34.3707 4.8845 33.371 3.8918C32.3783 2.8991 31.3786 2.28391 30.2042 1.82951C29.0647 1.38908 27.7644 1.08149 25.8629 0.997596C23.9474 0.906715 23.3392 0.885742 18.4805 0.885742Z" fill="#000100"/>
<path id="Vector_2" d="M18.4801 9.58936C13.4047 9.58936 9.28711 13.707 9.28711 18.7823C9.28711 23.8577 13.4047 27.9753 18.4801 27.9753C23.5554 27.9753 27.673 23.8577 27.673 18.7823C27.673 13.707 23.5554 9.58936 18.4801 9.58936ZM18.4801 24.7455C15.1874 24.7455 12.5169 22.075 12.5169 18.7823C12.5169 15.4896 15.1874 12.8191 18.4801 12.8191C21.7727 12.8191 24.4432 15.4896 24.4432 18.7823C24.4432 22.075 21.7727 24.7455 18.4801 24.7455Z" fill="#000100"/>
<path id="Vector_3" d="M30.183 9.22456C30.183 10.413 29.2183 11.3708 28.0368 11.3708C26.8484 11.3708 25.8906 10.406 25.8906 9.22456C25.8906 8.03612 26.8554 7.07837 28.0368 7.07837C29.2183 7.07837 30.183 8.04311 30.183 9.22456Z" fill="#000100"/>
</g>
<defs>
<clipPath id="clip0_712_14473">
<rect width="35.7931" height="35.7931" fill="white" transform="translate(0.583984 0.885742)"/>
</clipPath>
</defs>
</svg>
