<svg width="37" height="37" viewBox="0 0 37 37" fill="none" xmlns="http://www.w3.org/2000/svg">
<g id="Social Icons">
<path id="Vector" d="M0.405273 36.7838L2.92123 27.5925C1.3687 24.902 0.55292 21.8521 0.554411 18.7247C0.558885 8.94723 8.51539 0.990723 18.2914 0.990723C23.0355 0.992214 27.4887 2.84003 30.8384 6.19265C34.1865 9.54527 36.0298 14.0015 36.0284 18.7411C36.0239 28.5201 28.0674 36.4766 18.2914 36.4766C15.3235 36.4751 12.3989 35.7309 9.80842 34.3171L0.405273 36.7838ZM10.2439 31.1061C12.7435 32.5901 15.1297 33.4789 18.2854 33.4804C26.4104 33.4804 33.0292 26.8676 33.0337 18.7381C33.0366 10.5922 26.4492 3.98839 18.2973 3.98541C10.1663 3.98541 3.55208 10.5982 3.5491 18.7262C3.54761 22.0445 4.51999 24.5292 6.15305 27.1286L4.66316 32.5692L10.2439 31.1061ZM27.2262 22.9572C27.1159 22.7723 26.8206 22.662 26.3762 22.4397C25.9332 22.2175 23.7543 21.1452 23.3472 20.9976C22.9415 20.8499 22.6462 20.7754 22.3494 21.2198C22.0541 21.6627 21.204 22.662 20.946 22.9572C20.688 23.2525 20.4285 23.2898 19.9856 23.0676C19.5426 22.8454 18.1139 22.3786 16.4212 20.8678C15.1043 19.6926 14.214 18.2415 13.9559 17.7971C13.6979 17.3541 13.9291 17.114 14.1498 16.8933C14.3497 16.6949 14.5928 16.3758 14.815 16.1163C15.0402 15.8598 15.1133 15.6748 15.2624 15.3781C15.41 15.0828 15.337 14.8233 15.2251 14.601C15.1133 14.3803 14.2274 12.1984 13.859 11.3111C13.4981 10.4476 13.1327 10.5639 12.8613 10.5505L12.0112 10.5355C11.7159 10.5355 11.2357 10.6459 10.83 11.0903C10.4244 11.5348 9.27898 12.6056 9.27898 14.7875C9.27898 16.9694 10.8673 19.0767 11.088 19.372C11.3102 19.6673 14.2125 24.1444 18.6583 26.0638C19.7156 26.5202 20.5419 26.7931 21.1847 26.9974C22.2465 27.3344 23.2129 27.2867 23.9765 27.1734C24.8281 27.0466 26.5984 26.1011 26.9682 25.0661C27.3381 24.0295 27.3381 23.1422 27.2262 22.9572Z" fill="#25D366"/>
</g>
</svg>
