<svg width="37" height="36" viewBox="0 0 37 36" fill="none" xmlns="http://www.w3.org/2000/svg">
<path opacity="0.2" d="M11.4443 30.375H6.94434C6.64597 30.375 6.35982 30.2565 6.14884 30.0455C5.93786 29.8345 5.81934 29.5484 5.81934 29.25V6.75C5.81934 6.45163 5.93786 6.16548 6.14884 5.95451C6.35982 5.74353 6.64597 5.625 6.94434 5.625H11.4443V30.375Z" fill="#52C41A"/>
<path d="M15.9443 15.75H24.9443" stroke="#52C41A" stroke-width="2.16669" stroke-linecap="round" stroke-linejoin="round"/>
<path d="M15.9443 20.25H24.9443" stroke="#52C41A" stroke-width="2.16669" stroke-linecap="round" stroke-linejoin="round"/>
<path d="M29.4443 5.625H6.94434C6.32302 5.625 5.81934 6.12868 5.81934 6.75V29.25C5.81934 29.8713 6.32302 30.375 6.94434 30.375H29.4443C30.0657 30.375 30.5693 29.8713 30.5693 29.25V6.75C30.5693 6.12868 30.0657 5.625 29.4443 5.625Z" stroke="#52C41A" stroke-width="2.16669" stroke-linecap="round" stroke-linejoin="round"/>
<path d="M11.4443 5.625V30.375" stroke="#52C41A" stroke-width="2.16669" stroke-linecap="round" stroke-linejoin="round"/>
</svg>
