<svg width="38" height="39" viewBox="0 0 38 39" fill="none" xmlns="http://www.w3.org/2000/svg">
<circle cx="19.0436" cy="19.6803" r="18.8209" fill="white"/>
<g clip-path="url(#clip0_18080_19842)">
<path d="M12.8333 12C11.8204 12 11 12.8204 11 13.8333V26.6667C11 27.6796 11.8204 28.5 12.8333 28.5H17.9556C17.6109 27.6503 17.4167 26.7235 17.4167 25.75C17.4167 21.7002 20.7002 18.4167 24.75 18.4167C25.7235 18.4167 26.6503 18.6109 27.5 18.9556V13.8333C27.5 12.8204 26.6796 12 25.6667 12H21.0833C21.0833 13.0129 20.2629 13.8333 19.25 13.8333C18.2371 13.8333 17.4167 13.0129 17.4167 12H12.8333ZM24.75 20.25C21.725 20.25 19.25 22.725 19.25 25.75C19.25 28.775 21.725 31.25 24.75 31.25C27.775 31.25 30.25 28.775 30.25 25.75C30.25 22.725 27.775 20.25 24.75 20.25ZM24.75 22.0833C26.7667 22.0833 28.4167 23.7333 28.4167 25.75C28.4167 27.7667 26.7667 29.4167 24.75 29.4167C22.7333 29.4167 21.0833 27.7667 21.0833 25.75C21.0833 23.7333 22.7333 22.0833 24.75 22.0833ZM25.1421 23.1074L23.6758 25.8771L25.5986 27.8L26.5708 26.8278L25.3659 25.6229L26.3577 23.7502L25.1421 23.1074Z" fill="black"/>
</g>
<defs>
<clipPath id="clip0_18080_19842">
<rect width="22" height="22" fill="white" transform="translate(8 9)"/>
</clipPath>
</defs>
</svg>
