<svg width="26" height="26" viewBox="0 0 26 26" fill="none" xmlns="http://www.w3.org/2000/svg">
<path d="M4.42031 5.20312C3.55365 5.20312 2.86133 5.89714 2.86133 6.7638V19.2424C2.86133 20.1091 3.56231 20.8031 4.42031 20.8031H12.1865C12.1518 20.5171 12.134 20.2311 12.134 19.9365C12.134 17.9345 12.8787 16.1145 14.1094 14.7365H6.06732C5.59065 14.7365 5.20065 14.3465 5.20065 13.8698C5.20065 13.3931 5.59065 13.0031 6.06732 13.0031H16.3454C17.4201 12.4485 18.6426 12.1365 19.934 12.1365C21.078 12.1365 22.1606 12.3783 23.14 12.8203V6.7638C23.14 5.9058 22.4477 5.20312 21.581 5.20312H4.42031ZM6.06732 7.80312H14.734C15.2107 7.80312 15.6006 8.19312 15.6006 8.66979C15.6006 9.14646 15.2107 9.53646 14.734 9.53646H6.06732C5.59065 9.53646 5.20065 9.14646 5.20065 8.66979C5.20065 8.19312 5.59065 7.80312 6.06732 7.80312ZM18.2007 7.80312H19.934C20.4107 7.80312 20.8006 8.19312 20.8006 8.66979C20.8006 9.14646 20.4107 9.53646 19.934 9.53646H18.2007C17.724 9.53646 17.334 9.14646 17.334 8.66979C17.334 8.19312 17.724 7.80312 18.2007 7.80312ZM19.934 13.8698C16.58 13.8698 13.8673 16.5825 13.8673 19.9365C13.8673 20.2311 13.8847 20.5258 13.9367 20.8031C14.3527 23.7498 16.8747 26.0031 19.934 26.0031C23.288 26.0031 26.0007 23.2905 26.0007 19.9365C26.0007 17.7611 24.856 15.8549 23.14 14.7889C22.2126 14.2083 21.1126 13.8698 19.934 13.8698ZM19.934 17.3365C20.4107 17.3365 20.8006 17.7265 20.8006 18.2031V20.8031V21.6698C20.8006 22.1465 20.4107 22.5365 19.934 22.5365C19.4573 22.5365 19.0673 22.1465 19.0673 21.6698V20.8031V18.2031C19.0673 17.7265 19.4573 17.3365 19.934 17.3365Z" fill="black"/>
</svg>
