<svg width="37" height="36" viewBox="0 0 37 36" fill="none" xmlns="http://www.w3.org/2000/svg">
<g clip-path="url(#clip0_625_11151)">
<path d="M34.9086 3.84961H1.48005C0.768889 3.84961 0.194336 4.42416 0.194336 5.13532V30.8496C0.194336 31.5608 0.768889 32.1353 1.48005 32.1353H34.9086C35.6198 32.1353 36.1943 31.5608 36.1943 30.8496V5.13532C36.1943 4.42416 35.6198 3.84961 34.9086 3.84961ZM33.3015 29.2425H3.08719V27.6393L8.65193 21.038L14.6827 28.1898L24.0644 17.0684L33.3015 28.021V29.2425ZM33.3015 24.0273L24.3095 13.3639C24.1809 13.2112 23.9479 13.2112 23.8193 13.3639L14.6827 24.196L8.89701 17.3376C8.76844 17.1849 8.53541 17.1849 8.40684 17.3376L3.08719 23.6456V6.74247H33.3015V24.0273ZM9.83719 15.7425C10.3015 15.7425 10.7613 15.651 11.1903 15.4733C11.6192 15.2956 12.009 15.0352 12.3373 14.7069C12.6656 14.3786 12.9261 13.9888 13.1038 13.5598C13.2815 13.1308 13.3729 12.6711 13.3729 12.2068C13.3729 11.7424 13.2815 11.2827 13.1038 10.8537C12.9261 10.4247 12.6656 10.0349 12.3373 9.70662C12.009 9.3783 11.6192 9.11787 11.1903 8.94018C10.7613 8.76249 10.3015 8.67104 9.83719 8.67104C8.89946 8.67104 8.00014 9.04355 7.33707 9.70662C6.67399 10.3697 6.30148 11.269 6.30148 12.2068C6.30148 13.1445 6.67399 14.0438 7.33707 14.7069C8.00014 15.37 8.89946 15.7425 9.83719 15.7425ZM9.83719 11.0818C10.46 11.0818 10.9622 11.584 10.9622 12.2068C10.9622 12.8295 10.46 13.3318 9.83719 13.3318C9.21443 13.3318 8.71219 12.8295 8.71219 12.2068C8.71219 11.584 9.21443 11.0818 9.83719 11.0818Z" fill="#8C8C8C"/>
</g>
<defs>
<clipPath id="clip0_625_11151">
<rect width="36" height="36" fill="white" transform="translate(0.194336)"/>
</clipPath>
</defs>
</svg>
