<svg width="27" height="27" viewBox="0 0 27 27" fill="none" xmlns="http://www.w3.org/2000/svg">
<path d="M13.125 0C5.87695 0 0 5.87695 0 13.125C0 20.373 5.87695 26.25 13.125 26.25C20.373 26.25 26.25 20.373 26.25 13.125C26.25 5.87695 20.373 0 13.125 0ZM18.7939 8.83887L12.624 17.3936C12.5378 17.5139 12.4241 17.612 12.2924 17.6796C12.1607 17.7473 12.0148 17.7826 11.8667 17.7826C11.7186 17.7826 11.5727 17.7473 11.441 17.6796C11.3093 17.612 11.1956 17.5139 11.1094 17.3936L7.45605 12.3311C7.34473 12.1758 7.45605 11.959 7.64648 11.959H9.02051C9.31934 11.959 9.60352 12.1025 9.7793 12.3486L11.8652 15.2432L16.4707 8.85645C16.6465 8.61328 16.9277 8.4668 17.2295 8.4668H18.6035C18.7939 8.4668 18.9053 8.68359 18.7939 8.83887Z" fill="#52C41A"/>
</svg>
