<svg width="51" height="52" viewBox="0 0 61 62" fill="none" xmlns="http://www.w3.org/2000/svg">
<path d="M18.3789 18.4853C18.3789 19.5343 19.2293 20.3846 20.2783 20.3846H40.5379C41.5869 20.3846 42.4373 19.5343 42.4373 18.4853C42.4373 17.4363 41.5869 16.5859 40.5379 16.5859H20.2783C19.2293 16.5859 18.3789 17.4363 18.3789 18.4853Z" fill="#FF4F4F"/>
<path d="M30.4088 45.7056C31.4578 45.7056 32.3082 44.8552 32.3082 43.8062V30.6646L36.6632 35.0194C37.405 35.7611 38.6074 35.7611 39.3492 35.0194C40.0909 34.2776 40.0909 33.0752 39.3492 32.3334L31.7518 24.736C31.3957 24.3798 30.9125 24.1797 30.4088 24.1797C29.9051 24.1797 29.4219 24.3798 29.0659 24.736L21.4684 32.3334C20.7267 33.0752 20.7267 34.2776 21.4684 35.0194C22.2101 35.7611 23.4128 35.7611 24.1545 35.0194L28.5095 30.6646V43.8062C28.5095 44.8552 29.3599 45.7056 30.4088 45.7056Z" fill="#FF4F4F"/>
<path fill-rule="evenodd" clip-rule="evenodd" d="M30.2622 3.91406C24.4163 3.91404 19.835 3.91401 16.2605 4.3946C12.6017 4.8865 9.71468 5.91301 7.44861 8.17908C5.18254 10.4451 4.15603 13.3322 3.66413 16.9909C3.18354 20.5655 3.18357 25.1468 3.18359 30.9926V31.2834C3.18357 37.1293 3.18354 41.7105 3.66413 45.2851C4.15603 48.9437 5.18254 51.831 7.44861 54.097C9.71468 56.3631 12.6017 57.3895 16.2605 57.8815C19.835 58.3619 24.4163 58.3619 30.2622 58.3619H30.5529C36.3988 58.3619 40.98 58.3619 44.5546 57.8815C48.2133 57.3895 51.1005 56.3631 53.3666 54.097C55.6326 51.831 56.659 48.9437 57.1511 45.2851C57.6315 41.7105 57.6315 37.1293 57.6315 31.2834V30.9926C57.6315 25.1468 57.6315 20.5655 57.1511 16.9909C56.659 13.3322 55.6326 10.4451 53.3666 8.17908C51.1005 5.91301 48.2133 4.8865 44.5546 4.3946C40.98 3.91401 36.3988 3.91404 30.5529 3.91406H30.2622ZM10.1347 10.8652C11.5773 9.42252 13.5291 8.59468 16.7666 8.1594C20.0588 7.71678 24.3848 7.71275 30.4075 7.71275C36.4302 7.71275 40.7562 7.71678 44.0484 8.1594C47.2859 8.59468 49.2376 9.42252 50.6804 10.8652C52.1231 12.3078 52.951 14.2596 53.3861 17.4971C53.8287 20.7893 53.8328 25.1153 53.8328 31.138C53.8328 37.1607 53.8287 41.4866 53.3861 44.7788C52.951 48.0163 52.1231 49.9681 50.6804 51.4108C49.2376 52.8536 47.2859 53.6814 44.0484 54.1165C40.7562 54.5592 36.4302 54.5632 30.4075 54.5632C24.3848 54.5632 20.0588 54.5592 16.7666 54.1165C13.5291 53.6814 11.5773 52.8536 10.1347 51.4108C8.69205 49.9681 7.86421 48.0163 7.42893 44.7788C6.98631 41.4866 6.98228 37.1607 6.98228 31.138C6.98228 25.1153 6.98631 20.7893 7.42893 17.4971C7.86421 14.2596 8.69205 12.3078 10.1347 10.8652Z" fill="#FF4F4F"/>
</svg>
