<svg xmlns="http://www.w3.org/2000/svg" width="65" height="64" viewBox="0 0 65 64" fill="none">
  <g clip-path="url(#clip0_625_11202)">
    <path d="M62.2143 6.84375H2.78571C1.52143 6.84375 0.5 7.86518 0.5 9.12946V54.8438C0.5 56.108 1.52143 57.1295 2.78571 57.1295H62.2143C63.4786 57.1295 64.5 56.108 64.5 54.8438V9.12946C64.5 7.86518 63.4786 6.84375 62.2143 6.84375ZM59.3571 51.9866H5.64286V49.1366L15.5357 37.4009L26.2571 50.1152L42.9357 30.3438L59.3571 49.8152V51.9866ZM59.3571 42.7152L43.3714 23.758C43.1429 23.4866 42.7286 23.4866 42.5 23.758L26.2571 43.0152L15.9714 30.8223C15.7429 30.5509 15.3286 30.5509 15.1 30.8223L5.64286 42.0366V11.9866H59.3571V42.7152ZM17.6429 27.9866C18.4683 27.9866 19.2857 27.824 20.0483 27.5081C20.8109 27.1923 21.5038 26.7292 22.0875 26.1456C22.6712 25.5619 23.1342 24.869 23.4501 24.1063C23.766 23.3437 23.9286 22.5263 23.9286 21.7009C23.9286 20.8754 23.766 20.0581 23.4501 19.2955C23.1342 18.5328 22.6712 17.8399 22.0875 17.2562C21.5038 16.6725 20.8109 16.2095 20.0483 15.8937C19.2857 15.5778 18.4683 15.4152 17.6429 15.4152C15.9758 15.4152 14.377 16.0774 13.1982 17.2562C12.0194 18.435 11.3571 20.0338 11.3571 21.7009C11.3571 23.368 12.0194 24.9668 13.1982 26.1456C14.377 27.3244 15.9758 27.9866 17.6429 27.9866ZM17.6429 19.7009C18.75 19.7009 19.6429 20.5938 19.6429 21.7009C19.6429 22.808 18.75 23.7009 17.6429 23.7009C16.5357 23.7009 15.6429 22.808 15.6429 21.7009C15.6429 20.5938 16.5357 19.7009 17.6429 19.7009Z" fill="black" fill-opacity="0.45"/>
  </g>
  <defs>
    <clipPath id="clip0_625_11202">
      <rect width="64" height="64" fill="white" transform="translate(0.5)"/>
    </clipPath>
  </defs>
</svg>