<svg width="63" height="62" viewBox="0 0 73 72" fill="none" xmlns="http://www.w3.org/2000/svg">
<path fill-rule="evenodd" clip-rule="evenodd" d="M36.6278 4.10938C37.8618 4.10938 38.8623 5.10982 38.8623 6.3439V10.1625C51.4775 11.2334 61.532 21.2878 62.6028 33.903H66.4214C67.6555 33.903 68.6559 34.9035 68.6559 36.1375C68.6559 37.3716 67.6555 38.3721 66.4214 38.3721H62.6028C61.532 50.9873 51.4775 61.0417 38.8623 62.1125V65.9312C38.8623 67.1652 37.8618 68.1657 36.6278 68.1657C35.3937 68.1657 34.3932 67.1652 34.3932 65.9312V62.1125C21.7781 61.0417 11.7237 50.9873 10.6528 38.3721H6.83413C5.60005 38.3721 4.59961 37.3716 4.59961 36.1375C4.59961 34.9035 5.60005 33.903 6.83413 33.903H10.6528C11.7237 21.2878 21.7781 11.2334 34.3932 10.1625V6.3439C34.3932 5.10982 35.3937 4.10938 36.6278 4.10938ZM36.6278 14.5371C24.6982 14.5371 15.0274 24.208 15.0274 36.1375C15.0274 48.0672 24.6982 57.7379 36.6278 57.7379C48.5574 57.7379 58.2282 48.0672 58.2282 36.1375C58.2282 24.208 48.5574 14.5371 36.6278 14.5371ZM36.6278 29.434C32.9256 29.434 29.9242 32.4354 29.9242 36.1375C29.9242 39.8397 32.9256 42.8411 36.6278 42.8411C40.3299 42.8411 43.3313 39.8397 43.3313 36.1375C43.3313 32.4354 40.3299 29.434 36.6278 29.434ZM25.4552 36.1375C25.4552 29.9671 30.4573 24.9649 36.6278 24.9649C42.7983 24.9649 47.8004 29.9671 47.8004 36.1375C47.8004 42.3081 42.7983 47.3102 36.6278 47.3102C30.4573 47.3102 25.4552 42.3081 25.4552 36.1375Z" fill="#FF4F4F"/>
</svg>
