<svg width="34" height="34" viewBox="0 0 34 34" fill="none" xmlns="http://www.w3.org/2000/svg">
<g clip-path="url(#clip0_17385_26388)">
<path d="M21.0801 5.43768C21.0801 5.43768 18.793 5.38721 17.1913 6.98893C16.9204 7.25987 16.9204 7.69549 17.1913 7.96643C17.4622 8.23737 17.8979 8.23737 18.1688 7.96643C19.0613 7.07393 20.153 6.90924 20.6551 6.86143C20.7932 7.15362 20.9472 7.47768 21.0163 7.81768C21.0243 7.86815 21.0402 7.91862 21.0588 7.96643C21.0083 8.27721 20.8516 8.73674 20.5276 9.11393C20.2566 9.38487 19.991 9.51768 19.7201 9.51768C15.571 9.51768 14.7529 11.4939 14.3438 12.5139C14.2747 12.6494 14.2163 12.7822 14.2163 12.9177C12.0408 12.9177 10.4072 12.3067 10.1363 11.8977C9.18537 10.2667 8.431 10.1977 5.44006 10.1977C0.749125 10.1977 0.0691248 12.5192 6.19274e-05 12.7902C-0.0690009 12.9947 -0.00790685 13.1806 0.127562 13.3852C0.196625 13.4542 1.02537 14.2777 2.65631 14.2777H2.99631C3.94725 13.8686 4.96725 13.5977 6.05631 13.5977C10.2054 13.5977 13.5363 16.9286 13.5363 21.0777C13.5363 21.6222 13.4593 22.1694 13.3238 22.7139C14.5483 23.0539 15.9216 23.1177 16.5326 23.1177H16.6601C17.8846 23.1177 19.651 22.783 20.4001 22.0339C20.7401 21.6939 20.8038 21.3539 20.8038 21.0139C20.2115 16.9206 22.2594 15.0639 23.2051 14.4264C23.476 15.0453 23.7522 15.6669 24.0551 16.2752C22.6419 17.3642 21.7601 19.12 21.7601 21.0139C21.7601 24.4139 24.4801 27.1339 27.8801 27.1339C31.2801 27.1339 34.0001 24.4139 34.0001 21.0139C34.0001 17.6139 31.2801 14.9577 27.8801 14.9577C26.9291 14.9577 26.0393 15.1649 25.2238 15.5739C25.6329 16.3894 26.1083 17.2049 26.5838 17.9539C26.9929 17.8185 27.4046 17.6777 27.8801 17.6777C29.7846 17.6777 31.2801 19.1731 31.2801 21.0777C31.2801 22.9822 29.7846 24.4777 27.8801 24.4777C25.9755 24.4777 24.4801 22.9822 24.4801 21.0777C24.4801 20.1267 24.8254 19.3086 25.4363 18.6977C24.9688 17.9619 24.5013 17.1624 24.0976 16.2964C24.4322 16.0308 24.8254 15.7731 25.2238 15.5739C24.6129 14.3494 23.9966 13.0611 23.5876 11.7702C23.5637 11.7091 23.5397 11.6506 23.5026 11.6002C22.9554 9.80721 22.4268 7.5919 22.3763 7.54143C22.3683 7.50424 22.3471 7.46971 22.3338 7.43518C22.1426 6.60377 21.6751 5.79893 21.6751 5.79893C21.5582 5.57846 21.3297 5.44033 21.0801 5.43768ZM25.4363 18.6977C26.2518 20.0577 27.208 21.2742 28.0926 22.2252C28.228 22.3606 28.4246 22.4377 28.5601 22.4377C28.6955 22.4377 28.8921 22.3606 29.0276 22.2252C29.2985 21.9542 29.2985 21.5611 29.0276 21.2902C28.2121 20.4056 27.3355 19.2449 26.5201 17.9539C26.111 18.1585 25.7763 18.3577 25.4363 18.6977ZM25.5638 8.15768C25.0193 8.15768 24.488 8.23471 24.0126 8.37018C24.4216 9.86565 24.9476 11.8206 25.2876 12.7052C25.2876 12.7742 25.3726 12.8486 25.3726 12.9177H25.5638C26.4483 12.9177 27.0035 12.7052 27.4126 12.3652C27.888 11.8897 27.8801 11.2097 27.8801 10.6652V10.4102C27.8801 9.86565 27.888 9.18565 27.4126 8.71018C27.0035 8.37018 26.4483 8.15768 25.5638 8.15768ZM6.12006 14.9577C2.72006 14.9577 6.19274e-05 17.6777 6.19274e-05 21.0777C6.19274e-05 24.4777 2.72006 27.1977 6.12006 27.1977C9.24912 27.1977 11.8363 24.8177 12.1763 21.7577H9.45631C9.11631 23.3222 7.751 24.4777 6.12006 24.4777C4.21553 24.4777 2.72006 22.9822 2.72006 21.0777C2.72006 19.1731 4.21553 17.6777 6.12006 17.6777C7.751 17.6777 9.11631 18.8331 9.45631 20.3977H12.1763C11.8363 17.3377 9.24912 14.9577 6.12006 14.9577ZM9.45631 20.3977H8.05381C7.78287 19.5928 7.03647 19.0377 6.12006 19.0377C4.96459 19.0377 4.08006 19.9222 4.08006 21.0777C4.08006 22.2331 4.96459 23.1177 6.12006 23.1177C7.03647 23.1177 7.78287 22.5625 8.05381 21.7577H9.45631C9.52537 21.5531 9.52006 21.2822 9.52006 21.0777C9.52006 20.8731 9.52537 20.6022 9.45631 20.3977Z" fill="black"/>
</g>
<defs>
<clipPath id="clip0_17385_26388">
<rect width="34" height="34" fill="white"/>
</clipPath>
</defs>
</svg>
