<svg width="23" height="24" viewBox="0 0 23 24" fill="none" xmlns="http://www.w3.org/2000/svg">
<path d="M11.4979 21.5104C16.7906 21.5104 21.0812 17.2198 21.0812 11.9271C21.0812 6.63435 16.7906 2.34375 11.4979 2.34375C6.20515 2.34375 1.91455 6.63435 1.91455 11.9271C1.91455 17.2198 6.20515 21.5104 11.4979 21.5104Z" stroke="#E30000"/>
<path d="M7.66455 9.53125C7.66455 9.08472 7.66455 8.86146 7.7375 8.68535C7.83476 8.45053 8.02133 8.26396 8.25615 8.1667C8.43226 8.09375 8.65552 8.09375 9.10205 8.09375C9.54858 8.09375 9.77183 8.09375 9.94797 8.1667C10.1828 8.26396 10.3694 8.45053 10.4666 8.68535C10.5396 8.86146 10.5396 9.08472 10.5396 9.53125V14.3229C10.5396 14.7694 10.5396 14.9927 10.4666 15.1688C10.3694 15.4036 10.1828 15.5902 9.94797 15.6875C9.77183 15.7604 9.54858 15.7604 9.10205 15.7604C8.65552 15.7604 8.43226 15.7604 8.25615 15.6875C8.02133 15.5902 7.83476 15.4036 7.7375 15.1688C7.66455 14.9927 7.66455 14.7694 7.66455 14.3229V9.53125Z" stroke="#E30000"/>
<path d="M12.4565 9.53125C12.4565 9.08472 12.4565 8.86146 12.5295 8.68535C12.6267 8.45053 12.8133 8.26396 13.0481 8.1667C13.2243 8.09375 13.4476 8.09375 13.894 8.09375C14.3405 8.09375 14.5638 8.09375 14.74 8.1667C14.9748 8.26396 15.1613 8.45053 15.2586 8.68535C15.3315 8.86146 15.3315 9.08472 15.3315 9.53125V14.3229C15.3315 14.7694 15.3315 14.9927 15.2586 15.1688C15.1613 15.4036 14.9748 15.5902 14.74 15.6875C14.5638 15.7604 14.3405 15.7604 13.894 15.7604C13.4476 15.7604 13.2243 15.7604 13.0481 15.6875C12.8133 15.5902 12.6267 15.4036 12.5295 15.1688C12.4565 14.9927 12.4565 14.7694 12.4565 14.3229V9.53125Z" stroke="#E30000"/>
</svg>
