<svg width="23" height="23"  viewBox="0 0 36 36" fill="none" xmlns="http://www.w3.org/2000/svg">
<g id="icons8-ok 1">
<path id="Vector" d="M18.0016 3.60156C10.0492 3.60156 3.60156 10.0492 3.60156 18.0016C3.60156 25.954 10.0492 32.4016 18.0016 32.4016C25.954 32.4016 32.4016 25.954 32.4016 18.0016C32.4016 10.0492 25.954 3.60156 18.0016 3.60156ZM26.05 15.25L16.978 24.322C16.7524 24.5476 16.4476 24.6736 16.1296 24.6736C15.8116 24.6736 15.5056 24.5476 15.2812 24.322L11.1376 20.1784C10.6684 19.7092 10.6684 18.9508 11.1376 18.4816C11.6068 18.0124 12.3652 18.0124 12.8344 18.4816L16.1296 21.7768L24.3532 13.5532C24.8224 13.084 25.5808 13.084 26.05 13.5532C26.5192 14.0224 26.5192 14.7808 26.05 15.25Z" fill="black"/>
</g>
</svg>
