<svg width="23" height="23"  viewBox="0 0 28 28" fill="none" xmlns="http://www.w3.org/2000/svg">
<g id="icons8-pie-chart 1">
<path id="Vector" d="M12.8811 1.125C6.39629 1.125 1.12109 6.4002 1.12109 12.885V13.445H13.4411V1.125H12.8811ZM15.1211 3.365C14.9318 3.365 14.7481 3.38448 14.5611 3.39344V4.51344C14.7476 4.50336 14.9318 4.485 15.1211 4.485C20.9882 4.485 25.7611 9.25788 25.7611 15.125C25.7611 20.9921 20.9882 25.765 15.1211 25.765C9.25397 25.765 4.48109 20.9921 4.48109 15.125C4.48109 14.9357 4.49945 14.7515 4.50953 14.565H3.38953C3.38057 14.752 3.36109 14.9357 3.36109 15.125C3.36109 21.6098 8.63629 26.885 15.1211 26.885C21.6059 26.885 26.8811 21.6098 26.8811 15.125C26.8811 8.6402 21.6059 3.365 15.1211 3.365Z" fill="black"/>
</g>
</svg>
