<svg width="23" height="23"  viewBox="0 0 30 30" fill="none" xmlns="http://www.w3.org/2000/svg">
<g id="icons8-add-user 1" clip-path="url(#clip0_9863_15804)">
<path id="Vector" d="M11.9234 0.242188C9.71563 0.282031 8.10313 0.959375 7.12344 2.24844C5.96328 3.77656 5.75234 6.08516 6.48594 9.12969C6.21641 9.46016 6.0125 9.96172 6.09219 10.6297C6.25156 11.9516 6.76484 12.4953 7.19844 12.7109C7.40469 13.7492 7.97656 14.9164 8.52969 15.4672V15.7484C8.53438 16.3578 8.53203 16.8852 8.47344 17.5672C8.10547 18.4109 6.88438 18.9055 5.47344 19.4609C3.12969 20.382 0.216406 21.5211 -0.0015625 25.1609L-0.0390625 25.7984H16.2547C17.3961 28.2711 19.9016 29.9984 22.7984 29.9984C26.7688 29.9984 29.9984 26.7688 29.9984 22.7984C29.9984 18.8281 26.7688 15.5984 22.7984 15.5984C20.3328 15.5984 18.1531 16.8336 16.8547 18.7297C16.4258 18.5117 16.0766 18.275 15.8234 17.9984C15.7156 17.8813 15.6148 17.7406 15.5422 17.5672C15.4836 16.8852 15.5 16.3555 15.5047 15.7484V15.4672C16.0414 14.9188 16.5945 13.7492 16.7984 12.7109C17.232 12.493 17.7453 11.9516 17.9047 10.6297C17.9844 9.97578 17.7922 9.47891 17.5297 9.14844C17.8789 7.96016 18.5914 4.88516 17.3609 2.90469C16.8453 2.075 16.0648 1.55234 15.0359 1.34844C14.4688 0.633594 13.3813 0.242188 11.9234 0.242188ZM22.7984 16.7984C26.1078 16.7984 28.7984 19.4891 28.7984 22.7984C28.7984 26.1078 26.1078 28.7984 22.7984 28.7984C19.4891 28.7984 16.7984 26.1078 16.7984 22.7984C16.7984 19.4891 19.4891 16.7984 22.7984 16.7984ZM22.1984 19.1984V22.1984H19.1984V23.3984H22.1984V26.3984H23.3984V23.3984H26.3984V22.1984H23.3984V19.1984H22.1984ZM15.8609 20.9047C15.8211 21.0477 15.7789 21.1906 15.7484 21.3359C15.7789 21.1883 15.8211 21.0477 15.8609 20.9047ZM15.6359 22.1234C15.6148 22.3461 15.5984 22.5688 15.5984 22.7984C15.5984 22.5711 15.6148 22.3461 15.6359 22.1234Z" fill="black"/>
</g>
<defs>
<clipPath id="clip0_9863_15804">
<rect width="30" height="30" fill="white"/>
</clipPath>
</defs>
</svg>
