<svg width="34" height="29" viewBox="0 0 34 29" fill="none" xmlns="http://www.w3.org/2000/svg">
<path d="M3.40524 0.400391C1.90813 0.400391 0.679932 1.62905 0.679932 3.1257V20.7951C0.679932 22.2917 1.90813 23.5204 3.40524 23.5204H8.15993C8.25004 23.5217 8.3395 23.505 8.42312 23.4714C8.50674 23.4378 8.58285 23.3879 8.64702 23.3247C8.71119 23.2614 8.76215 23.186 8.79693 23.1029C8.83171 23.0197 8.84962 22.9305 8.84962 22.8404C8.84962 22.7503 8.83171 22.6611 8.79693 22.5779C8.76215 22.4948 8.71119 22.4194 8.64702 22.3561C8.58285 22.2929 8.50674 22.243 8.42312 22.2094C8.3395 22.1758 8.25004 22.1591 8.15993 22.1604H3.40524C2.6434 22.1604 2.03993 21.556 2.03993 20.7951V3.1257C2.03993 2.36476 2.6434 1.76039 3.40524 1.76039H30.5946C31.3556 1.76039 31.9599 2.36476 31.9599 3.1257V20.7951C31.9599 21.5569 31.3556 22.1604 30.5946 22.1604H28.5599C28.4698 22.1591 28.3804 22.1758 28.2967 22.2094C28.2131 22.243 28.137 22.2929 28.0728 22.3561C28.0087 22.4194 27.9577 22.4948 27.9229 22.5779C27.8882 22.6611 27.8702 22.7503 27.8702 22.8404C27.8702 22.9305 27.8882 23.0197 27.9229 23.1029C27.9577 23.186 28.0087 23.2614 28.0728 23.3247C28.137 23.3879 28.2131 23.4378 28.2967 23.4714C28.3804 23.505 28.4698 23.5217 28.5599 23.5204H30.5946C32.0913 23.5204 33.3199 22.2922 33.3199 20.7951V3.1257C33.3199 1.62905 32.0913 0.400391 30.5946 0.400391H3.40524ZM16.3199 5.16039C12.1968 5.16039 8.83993 8.51727 8.83993 12.6404C8.83993 12.9672 8.86116 13.2897 8.90235 13.6073C8.91073 13.6983 8.93737 13.7867 8.98068 13.8672C9.02399 13.9476 9.08308 14.0186 9.15442 14.0757C9.22576 14.1329 9.30788 14.175 9.39588 14.1997C9.48388 14.2244 9.57596 14.2311 9.66661 14.2194C9.75725 14.2077 9.84461 14.1778 9.92346 14.1316C10.0023 14.0854 10.071 14.0238 10.1255 13.9504C10.18 13.877 10.2192 13.7934 10.2406 13.7045C10.2621 13.6157 10.2654 13.5234 10.2504 13.4333C10.2168 13.1742 10.1999 12.9093 10.1999 12.6404C10.1999 9.25223 12.9318 6.52039 16.3199 6.52039C19.7081 6.52039 22.4399 9.25223 22.4399 12.6404C22.4399 12.9377 22.4184 13.2284 22.3775 13.513C22.352 13.6916 22.3984 13.873 22.5066 14.0173C22.6149 14.1616 22.776 14.2571 22.9546 14.2826C23.1332 14.3082 23.3146 14.2617 23.4589 14.1535C23.6033 14.0453 23.6987 13.8841 23.7242 13.7055C23.7744 13.3563 23.7999 13.0014 23.7999 12.6404C23.7999 8.51727 20.443 5.16039 16.3199 5.16039ZM16.3199 7.88039C13.699 7.88039 11.5599 10.0194 11.5599 12.6404C11.5587 12.7305 11.5753 12.82 11.6089 12.9036C11.6425 12.9872 11.6924 13.0633 11.7557 13.1275C11.8189 13.1916 11.8943 13.2426 11.9775 13.2774C12.0606 13.3122 12.1498 13.3301 12.2399 13.3301C12.33 13.3301 12.4193 13.3122 12.5024 13.2774C12.5855 13.2426 12.6609 13.1916 12.7242 13.1275C12.7875 13.0633 12.8374 12.9872 12.871 12.9036C12.9046 12.82 12.9212 12.7305 12.9199 12.6404C12.9199 10.7543 14.4338 9.24039 16.3199 9.24039C18.206 9.24039 19.7199 10.7543 19.7199 12.6404C19.7187 12.7305 19.7353 12.82 19.7689 12.9036C19.8025 12.9872 19.8524 13.0633 19.9157 13.1275C19.9789 13.1916 20.0543 13.2426 20.1375 13.2774C20.2206 13.3122 20.3098 13.3301 20.3999 13.3301C20.49 13.3301 20.5793 13.3122 20.6624 13.2774C20.7455 13.2426 20.8209 13.1916 20.8842 13.1275C20.9475 13.0633 20.9974 12.9872 21.031 12.9036C21.0646 12.82 21.0812 12.7305 21.0799 12.6404C21.0799 10.0194 18.9409 7.88039 16.3199 7.88039ZM16.3199 10.6004C15.2014 10.6004 14.2799 11.5218 14.2799 12.6404V19.0154V19.4404V20.9757L13.5588 20.2545C12.7679 19.4636 11.465 19.4636 10.6741 20.2545C9.88318 21.0454 9.88318 22.3483 10.6741 23.1392L14.4792 26.9443C14.4809 26.9461 14.4827 26.9478 14.4845 26.9496C14.4845 26.9496 14.9872 27.4415 15.6957 27.9311C16.4042 28.4207 17.3222 28.9604 18.3599 28.9604H21.6085C24.1929 28.9604 26.3189 26.9465 26.5013 24.4049C26.5063 24.3757 26.5199 24.3194 26.5199 24.2004V24.049V20.3754V19.4404C26.5199 18.3218 25.5985 17.4004 24.4799 17.4004C24.0671 17.4004 23.7401 17.6294 23.4174 17.844C23.0676 17.2171 22.5225 16.7204 21.7599 16.7204C21.3471 16.7204 21.0201 16.9494 20.6974 17.164C20.3476 16.5371 19.8025 16.0404 19.0399 16.0404C18.7759 16.0404 18.5925 16.2301 18.3599 16.3233V16.0404V12.6404C18.3599 11.5218 17.4385 10.6004 16.3199 10.6004ZM16.3199 11.9604C16.7042 11.9604 16.9999 12.2562 16.9999 12.6404V16.0404V18.0804V18.7604C16.9987 18.8505 17.0153 18.94 17.0489 19.0236C17.0825 19.1072 17.1324 19.1833 17.1957 19.2475C17.2589 19.3116 17.3343 19.3626 17.4175 19.3974C17.5006 19.4322 17.5898 19.4501 17.6799 19.4501C17.77 19.4501 17.8593 19.4322 17.9424 19.3974C18.0255 19.3626 18.1009 19.3116 18.1642 19.2475C18.2275 19.1833 18.2774 19.1072 18.311 19.0236C18.3446 18.94 18.3612 18.8505 18.3599 18.7604V18.0897C18.36 18.0866 18.36 18.0835 18.3599 18.0804C18.3599 17.6962 18.6557 17.4004 19.0399 17.4004C19.4242 17.4004 19.7199 17.6962 19.7199 18.0804V18.7604C19.7209 18.8285 19.7321 18.8961 19.7531 18.9609C19.76 18.9826 19.768 19.0039 19.777 19.0247C19.7956 19.0663 19.8183 19.1059 19.8448 19.1429C19.8576 19.1613 19.8714 19.179 19.8859 19.196C19.9006 19.2132 19.9161 19.2296 19.9324 19.2452C19.9654 19.2766 20.0014 19.3046 20.04 19.3288C20.0594 19.3404 20.0793 19.3511 20.0998 19.3607C20.1406 19.3809 20.1833 19.3969 20.2273 19.4085C20.2492 19.4145 20.2713 19.4194 20.2937 19.4231C20.3385 19.4298 20.3839 19.4321 20.4292 19.4298C20.4971 19.427 20.5643 19.414 20.6284 19.3913C20.6501 19.3835 20.6713 19.3746 20.6921 19.3647C20.7126 19.3551 20.7325 19.3444 20.7519 19.3328C20.8099 19.2974 20.8623 19.2536 20.9073 19.2027C20.9228 19.1857 20.9374 19.168 20.9511 19.1495C20.991 19.0943 21.0223 19.0334 21.0441 18.9689C21.0659 18.9047 21.078 18.8375 21.0799 18.7697C21.08 18.7666 21.08 18.7635 21.0799 18.7604C21.0799 18.3762 21.3757 18.0804 21.7599 18.0804C22.1442 18.0804 22.4399 18.3762 22.4399 18.7604V19.4404C22.4425 19.6191 22.5152 19.7896 22.6425 19.915C22.7697 20.0405 22.9412 20.1108 23.1199 20.1108C23.2986 20.1108 23.4701 20.0405 23.5974 19.915C23.7247 19.7896 23.7974 19.6191 23.7999 19.4404C23.7999 19.0562 24.0957 18.7604 24.4799 18.7604C24.8642 18.7604 25.1599 19.0562 25.1599 19.4404V20.3754V24.049V24.2004C25.1599 24.1686 25.1593 24.1877 25.1493 24.2695C25.1477 24.2809 25.1464 24.2924 25.1453 24.304C25.015 26.1499 23.4912 27.6004 21.6085 27.6004H18.3599C17.8568 27.6004 17.075 27.2317 16.4687 26.8128C15.8658 26.3962 15.4455 25.9874 15.4407 25.9827L15.4354 25.9774L11.6356 22.1777C11.3644 21.9064 11.3644 21.4874 11.6356 21.2161C11.9069 20.9448 12.3259 20.9448 12.5972 21.2161L14.4792 23.098C14.5743 23.1931 14.6954 23.2578 14.8273 23.284C14.9592 23.3102 15.0959 23.2968 15.2201 23.2453C15.3443 23.1939 15.4505 23.1067 15.5252 22.9949C15.6 22.8832 15.6399 22.7517 15.6399 22.6173V19.4404V19.0154V12.6404C15.6399 12.2562 15.9357 11.9604 16.3199 11.9604Z" fill="#FF4F4F"/>
</svg>
