<svg width="36" height="35" viewBox="0 0 36 35" fill="none" xmlns="http://www.w3.org/2000/svg">
<g id="laptop-minimalistic-svgrepo-com 1">
<path id="Vector" d="M5.078 13.3239C5.078 9.24252 5.078 7.20185 6.34592 5.93393C7.61383 4.66602 9.65451 4.66602 13.7359 4.66602H22.3937C26.4751 4.66602 28.5157 4.66602 29.7837 5.93393C31.0516 7.20185 31.0516 9.24252 31.0516 13.3239V20.5388C31.0516 23.2597 31.0516 24.6201 30.2063 25.4654C29.361 26.3107 28.0006 26.3107 25.2797 26.3107H10.8499C8.12901 26.3107 6.76855 26.3107 5.92328 25.4654C5.078 24.6201 5.078 23.2597 5.078 20.5388V13.3239Z" stroke="#FF3A3A" stroke-width="1.50572"/>
<path id="Vector_2" d="M32.4951 30.6406H3.6355" stroke="black" stroke-width="1.50572" stroke-linecap="round"/>
<path id="Vector_3" d="M22.394 21.9814H13.7361" stroke="#292929" stroke-width="1.50572" stroke-linecap="round"/>
</g>
</svg>
