<svg width="32" height="31" viewBox="0 0 32 31" fill="none" xmlns="http://www.w3.org/2000/svg">
<g id="order-svgrepo-com 1" clip-path="url(#clip0_273_9168)">
<path id="Vector" d="M9.80554 14.1953H22.2983V15.6069H9.80554V14.1953ZM9.80554 20.4064H17.4518V21.818H9.80554V20.4064Z" fill="black"/>
<path id="Vector_2" d="M25.0505 29.4633H7.029C6.65258 29.4633 6.29967 29.3927 5.94677 29.2515C5.6174 29.1104 5.31155 28.9222 5.07628 28.6634C4.81748 28.4046 4.62927 28.1222 4.48811 27.7929C4.34695 27.44 4.27637 27.0871 4.27637 26.7106V7.95976C4.27637 7.58333 4.34695 7.23043 4.48811 6.87752C4.62927 6.54815 4.81748 6.2423 5.07628 6.00703C5.33507 5.74824 5.6174 5.56002 5.94677 5.41886C6.29967 5.2777 6.65258 5.20712 7.029 5.20712H9.75812V6.5952H7.029C6.27615 6.5952 5.64092 7.2069 5.64092 7.98329V26.7342C5.64092 27.487 6.25262 28.1222 7.029 28.1222H25.027C25.7799 28.1222 26.4151 27.5105 26.4151 26.7342V7.95976C26.4151 7.2069 25.8034 6.57168 25.027 6.57168H22.3214V5.18359H25.0505C25.427 5.18359 25.7799 5.25417 26.1328 5.39534C26.4622 5.5365 26.768 5.72471 27.0033 5.98351C27.2621 6.2423 27.4503 6.52462 27.5914 6.854C27.7326 7.2069 27.8032 7.5598 27.8032 7.93623V26.6871C27.8032 27.0635 27.7326 27.4164 27.5914 27.7693C27.4503 28.0987 27.2621 28.4046 27.0033 28.6398C26.7445 28.8986 26.4622 29.0868 26.1328 29.228C25.7799 29.3927 25.427 29.4633 25.0505 29.4633Z" fill="#FF3A3A"/>
<path id="Vector_3" d="M22.9571 9.34616H9.12329V4.82901C9.12329 3.86441 9.89968 3.08803 10.8643 3.08803H12.6523C13.2875 1.81758 14.605 0.994141 16.0637 0.994141C17.5224 0.994141 18.8399 1.81758 19.4751 3.08803H21.2631C22.2277 3.08803 23.0041 3.86441 23.0041 4.82901L22.9571 9.34616ZM10.5114 7.95808H21.5925V4.82901C21.5925 4.6408 21.4278 4.47611 21.2396 4.47611H18.487L18.3223 4.00557C17.9929 3.04097 17.0754 2.38222 16.0402 2.38222C15.005 2.38222 14.0874 3.04097 13.7581 4.00557L13.5934 4.47611H10.8407C10.6525 4.47611 10.4878 4.6408 10.4878 4.82901V7.95808H10.5114Z" fill="#FF3A3A"/>
</g>
<defs>
<clipPath id="clip0_273_9168">
<rect width="30.1143" height="30.1143" fill="white" transform="translate(0.983276 0.595703)"/>
</clipPath>
</defs>
</svg>
