<svg width="171" height="171" viewBox="0 0 171 171" fill="none" xmlns="http://www.w3.org/2000/svg">
<path d="M85.3744 170.396C132.428 170.396 170.572 132.252 170.572 85.198C170.572 38.1444 132.428 0 85.3744 0C38.3209 0 0.176453 38.1444 0.176453 85.198C0.176453 132.252 38.3209 170.396 85.3744 170.396Z" fill="white"/>
<path opacity="0.1" d="M85.3744 170.396C132.428 170.396 170.572 132.252 170.572 85.198C170.572 38.1444 132.428 0 85.3744 0C38.3209 0 0.176453 38.1444 0.176453 85.198C0.176453 132.252 38.3209 170.396 85.3744 170.396Z" fill="#FF3A3A"/>
<path d="M113.067 111.929L57.5052 111.761L57.7339 36.2812L96.1533 36.3978L113.244 53.5918L113.067 111.929Z" fill="white"/>
<path opacity="0.3" d="M96.1533 36.3906L96.1014 53.5327L113.244 53.5846L96.1533 36.3906Z" fill="#FF3A3A"/>
<path d="M113.5 53.5719C113.498 53.5493 113.494 53.527 113.487 53.5055C113.484 53.4969 113.482 53.4889 113.478 53.4795C113.466 53.4514 113.449 53.4256 113.428 53.4035L96.3375 36.2095C96.3155 36.1878 96.2897 36.1702 96.2615 36.1576C96.2535 36.1539 96.2457 36.1519 96.2374 36.149C96.2156 36.1415 96.1929 36.1369 96.1699 36.1353C96.1644 36.1353 96.1595 36.1321 96.1541 36.1321L57.7346 36.0156C57.6658 36.0156 57.5998 36.043 57.5511 36.0916C57.5024 36.1403 57.4751 36.2063 57.4751 36.2751L57.2465 111.755C57.2465 111.824 57.2738 111.89 57.3225 111.938C57.3711 111.987 57.4371 112.014 57.506 112.014L113.067 112.183C113.136 112.183 113.202 112.155 113.25 112.107C113.299 112.058 113.326 111.992 113.326 111.923L113.503 53.5857C113.503 53.5825 113.5 53.5776 113.5 53.5719ZM96.4105 37.0207L112.617 53.3261L96.3611 53.2768L96.4105 37.0207ZM57.7655 111.498L57.9925 36.5372L95.893 36.6522L95.8411 53.5348C95.8411 53.6036 95.8684 53.6696 95.9171 53.7183C95.9658 53.767 96.0318 53.7943 96.1006 53.7943L112.983 53.8462L112.808 111.665L57.7655 111.498Z" fill="#262626"/>
<path d="M71.4969 80.2634C73.6451 80.2634 75.3865 78.522 75.3865 76.3739C75.3865 74.2258 73.6451 72.4844 71.4969 72.4844C69.3488 72.4844 67.6074 74.2258 67.6074 76.3739C67.6074 78.522 69.3488 80.2634 71.4969 80.2634Z" fill="#292A2E"/>
<path d="M98.1671 80.2634C100.315 80.2634 102.057 78.522 102.057 76.3739C102.057 74.2258 100.315 72.4844 98.1671 72.4844C96.019 72.4844 94.2776 74.2258 94.2776 76.3739C94.2776 78.522 96.019 80.2634 98.1671 80.2634Z" fill="#292A2E"/>
<path d="M90.0465 87.1284H79.6174C79.5485 87.1284 79.4825 87.1011 79.4339 87.0524C79.3852 87.0037 79.3578 86.9377 79.3578 86.8689C79.3578 86.8001 79.3852 86.7341 79.4339 86.6854C79.4825 86.6367 79.5485 86.6094 79.6174 86.6094H90.0465C90.1153 86.6094 90.1813 86.6367 90.23 86.6854C90.2787 86.7341 90.306 86.8001 90.306 86.8689C90.306 86.9377 90.2787 87.0037 90.23 87.0524C90.1813 87.1011 90.1153 87.1284 90.0465 87.1284Z" fill="#262626"/>
<path d="M67.4848 87.5039C69.401 87.5039 70.9544 86.6863 70.9544 85.6777C70.9544 84.6692 69.401 83.8516 67.4848 83.8516C65.5685 83.8516 64.0151 84.6692 64.0151 85.6777C64.0151 86.6863 65.5685 87.5039 67.4848 87.5039Z" fill="white"/>
<path d="M102.179 87.5039C104.096 87.5039 105.649 86.6863 105.649 85.6777C105.649 84.6692 104.096 83.8516 102.179 83.8516C100.263 83.8516 98.7098 84.6692 98.7098 85.6777C98.7098 86.6863 100.263 87.5039 102.179 87.5039Z" fill="white"/>
<g opacity="0.4">
<path d="M67.4848 87.5039C69.401 87.5039 70.9544 86.6863 70.9544 85.6777C70.9544 84.6692 69.401 83.8516 67.4848 83.8516C65.5685 83.8516 64.0151 84.6692 64.0151 85.6777C64.0151 86.6863 65.5685 87.5039 67.4848 87.5039Z" fill="#FF3A3A"/>
<path d="M102.179 87.5039C104.096 87.5039 105.649 86.6863 105.649 85.6777C105.649 84.6692 104.096 83.8516 102.179 83.8516C100.263 83.8516 98.7098 84.6692 98.7098 85.6777C98.7098 86.6863 100.263 87.5039 102.179 87.5039Z" fill="#FF3A3A"/>
</g>
<path d="M113.327 54.206C106.704 46.6023 97.3325 41.9407 87.2728 41.2465C77.2131 40.5524 67.2897 43.8826 59.6853 50.5047C46.9808 61.5693 43.0768 79.9649 50.1933 95.244C51.6222 98.3055 53.4544 101.162 55.6411 103.738L56.1082 104.291L21.2843 141.248C20.6474 141.934 20.3076 142.844 20.3388 143.779C20.3701 144.714 20.7698 145.599 21.451 146.241C22.1321 146.883 23.0394 147.229 23.9749 147.204C24.9104 147.18 25.7983 146.786 26.4448 146.11L61.2603 109.159L61.8418 109.594C69.3549 115.23 78.6879 117.885 88.0424 117.049C97.3969 116.212 106.111 111.944 112.505 105.065C118.899 98.1859 122.522 89.1839 122.674 79.7933C122.826 70.4028 119.497 61.2882 113.328 54.206H113.327ZM115.511 81.306C114.971 89.1139 111.493 96.4273 105.775 101.772C100.058 107.117 92.5274 110.096 84.7009 110.109C83.9783 110.109 83.2532 110.083 82.5257 110.031C77.4454 109.686 72.5287 108.093 68.2116 105.392C63.8946 102.692 60.3105 98.9685 57.7773 94.5513C55.2441 90.1342 53.8401 85.1602 53.6897 80.0704C53.5393 74.9806 54.6472 69.9324 56.9152 65.3734C59.1832 60.8144 62.5411 56.8855 66.6912 53.9351C70.8413 50.9847 75.6554 49.104 80.7065 48.4598C85.7575 47.8155 90.8895 48.4277 95.6473 50.242C100.405 52.0562 104.642 55.0165 107.981 58.8603C110.657 61.9188 112.7 65.4771 113.992 69.3297C115.285 73.1823 115.801 77.2528 115.511 81.306Z" fill="#FF3A3A"/>
</svg>
