<svg width="26" height="26" viewBox="0 0 26 26" fill="none" xmlns="http://www.w3.org/2000/svg">
<g id="icons8-sell 1" clip-path="url(#clip0_7604_36157)">
<path id="Vector" d="M6.23995 0C5.6712 0 5.19995 0.47125 5.19995 1.04V11.44C5.19995 12.0088 5.6712 12.48 6.23995 12.48H21.84C22.4087 12.48 22.88 12.0088 22.88 11.44V1.04C22.88 0.47125 22.4087 0 21.84 0H6.23995ZM6.23995 1.04H21.84V11.44H6.23995V1.04ZM11.7 2.08C10.989 2.08 10.4 2.66906 10.4 3.38C10.4 4.09094 10.989 4.68 11.7 4.68H16.38C17.0909 4.68 17.68 4.09094 17.68 3.38C17.68 2.66906 17.0909 2.08 16.38 2.08H11.7ZM11.7 3.12H16.38C16.5282 3.12 16.64 3.23172 16.64 3.38C16.64 3.52828 16.5282 3.64 16.38 3.64H11.7C11.5517 3.64 11.44 3.52828 11.44 3.38C11.44 3.23172 11.5517 3.12 11.7 3.12Z" fill="#FF3A3A"/>
<path id="Vector_2" d="M4.1112 15.2125C4.84855 14.92 5.52902 14.5625 7.0037 14.5625C10.2821 14.5625 11.0946 16.4536 11.57 16.74C11.7548 16.8517 12.3865 17.0731 13.0812 17.26C13.4225 17.0447 15.7482 15.5781 16.5262 15.115C17.0868 14.7798 17.8607 14.5381 18.6062 14.595C18.98 14.6234 19.3842 14.7331 19.6625 15.0662C19.7579 15.178 19.7945 15.3303 19.8412 15.4725C20.4912 15.1759 21.1473 15.0012 21.7262 15.115C22.169 15.2023 22.5732 15.4623 22.75 15.8462C22.7967 15.9478 22.7439 16.0656 22.7662 16.1712C23.337 15.9153 23.861 15.7569 24.2937 15.765C24.9092 15.7772 25.3865 16.0595 25.6587 16.415C26.004 16.8659 26.071 17.4753 25.8537 17.9912C25.6364 18.5072 25.2159 18.95 24.6187 19.3725C23.8367 19.927 17.3164 24.2698 16.2337 24.8975C15.7239 25.1941 15.1571 25.647 14.365 25.8725C13.5728 26.098 12.5876 26.0472 11.3587 25.45C10.5767 25.0702 7.61308 23.5122 6.6462 23.0125C6.18105 22.7728 5.91495 22.7098 5.71995 22.72C5.52495 22.7302 5.3198 22.8297 4.9562 23.0612L3.5587 23.9713C3.31698 24.1277 2.99198 24.0586 2.83558 23.8169C2.67917 23.5752 2.74823 23.2502 2.98995 23.0938L4.38745 22.1838C4.7998 21.9197 5.20605 21.7064 5.6712 21.68C6.13636 21.6536 6.57917 21.808 7.11745 22.0863C8.09245 22.59 11.1028 24.1622 11.8137 24.5075C12.8801 25.0255 13.5382 25.0377 14.0887 24.8813C14.6392 24.7248 15.1165 24.3491 15.7137 24.0038C16.5221 23.5366 23.3939 18.9703 24.0175 18.5275C24.5192 18.172 24.7954 17.8389 24.895 17.6013C24.9945 17.3636 24.9843 17.2498 24.83 17.0488C24.7243 16.9106 24.6106 16.8111 24.2775 16.805C23.9443 16.7989 23.3817 16.9248 22.5712 17.4063L17.8912 20.5588C17.8506 20.5872 17.8079 20.6075 17.7612 20.6238C17.6515 20.7456 17.5276 20.8492 17.3875 20.9325C16.9 21.2209 16.3028 21.3225 15.6 21.3225H12.5775C11.0479 21.3225 9.2137 20.7863 9.2137 20.7863C8.93542 20.705 8.77495 20.4145 8.8562 20.1363C8.93745 19.858 9.22792 19.6975 9.5062 19.7787C9.5062 19.7787 11.3039 20.2825 12.5775 20.2825H15.6C16.1992 20.2825 16.64 20.1748 16.8675 20.0388C17.095 19.9027 17.16 19.8052 17.16 19.5025C17.16 19.2445 17.095 19.1267 16.8675 18.9825C16.7598 18.9155 16.6075 18.8505 16.4125 18.8037H16.38C16.1667 18.757 15.9046 18.7225 15.6 18.7225C14.9012 18.7225 13.9892 18.558 13.13 18.3487C13.1239 18.3467 13.1198 18.3508 13.1137 18.3487C13.0385 18.3427 12.9675 18.3203 12.9025 18.2838C12.1407 18.0908 11.4643 17.8917 11.0337 17.6337C9.8373 16.9167 9.92464 15.6025 7.0037 15.6025C5.67933 15.6025 5.31167 15.8503 4.5012 16.1712C3.17683 16.6953 0.747452 17.8613 0.747452 17.8613C0.578858 17.9709 0.361515 17.975 0.19089 17.8714C0.0182335 17.7658 -0.0772356 17.5708 -0.0548917 17.3697C-0.0325478 17.1706 0.101515 17 0.292452 16.935C0.292452 16.935 2.70355 15.7711 4.1112 15.2125Z" fill="black"/>
</g>
<defs>
<clipPath id="clip0_7604_36157">
<rect width="26" height="26" fill="white"/>
</clipPath>
</defs>
</svg>
