<svg width="34" height="34" viewBox="0 0 34 34" fill="none" xmlns="http://www.w3.org/2000/svg">
<g id="stamp-svgrepo-com (4) 1">
<path id="Vector" d="M14.732 20.1553H19.8655L18.78 15.8136C18.3086 15.9446 17.8119 16.0146 17.2987 16.0146C16.7856 16.0146 16.2889 15.9446 15.8175 15.8136L14.732 20.1553ZM13.3093 20.1553L14.5303 15.2714C12.8845 14.3156 11.7778 12.5339 11.7778 10.4936C11.7778 7.44447 14.2496 4.97266 17.2987 4.97266C20.3479 4.97266 22.8197 7.44447 22.8197 10.4936C22.8197 12.5339 21.713 14.3156 20.0672 15.2714L21.2882 20.1553H26.2703C28.176 20.1553 29.7209 21.7002 29.7209 23.6059V26.3664C29.7209 26.7475 29.4119 27.0565 29.0308 27.0565H5.56671C5.18556 27.0565 4.87659 26.7475 4.87659 26.3664V23.6059C4.87659 21.7002 6.42147 20.1553 8.32719 20.1553H13.3093ZM17.2987 14.6343C19.5856 14.6343 21.4395 12.7805 21.4395 10.4936C21.4395 8.20676 19.5856 6.3529 17.2987 6.3529C15.0119 6.3529 13.158 8.20676 13.158 10.4936C13.158 12.7805 15.0119 14.6343 17.2987 14.6343ZM28.3407 25.6763V23.6059C28.3407 22.4625 27.4137 21.5355 26.2703 21.5355H8.32719C7.18376 21.5355 6.25683 22.4625 6.25683 23.6059V25.6763H28.3407Z" fill="#FF3A3A"/>
<rect id="Rectangle 34624251" x="4.5" y="28.6924" width="25.5972" height="1.50572" rx="0.752858" fill="black"/>
</g>
</svg>
