<svg width="30" height="25" viewBox="0 0 30 25" fill="none" xmlns="http://www.w3.org/2000/svg">
<rect width="30" height="25" fill="#1E1E1E"/>
<g id="Office Supplies">
<path d="M-913 -666C-913 -667.105 -912.105 -668 -911 -668H11381C11382.1 -668 11383 -667.105 11383 -666V3887C11383 3888.1 11382.1 3889 11381 3889H-911C-912.104 3889 -913 3888.1 -913 3887V-666Z" fill="#2B2B2B"/>
<path d="M-911 -667H11381V-669H-911V-667ZM11382 -666V3887H11384V-666H11382ZM11381 3888H-911V3890H11381V3888ZM-912 3887V-666H-914V3887H-912ZM-911 3888C-911.552 3888 -912 3887.55 -912 3887H-914C-914 3888.66 -912.657 3890 -911 3890V3888ZM11382 3887C11382 3887.55 11381.6 3888 11381 3888V3890C11382.7 3890 11384 3888.66 11384 3887H11382ZM11381 -667C11381.6 -667 11382 -666.552 11382 -666H11384C11384 -667.657 11382.7 -669 11381 -669V-667ZM-911 -669C-912.657 -669 -914 -667.657 -914 -666H-912C-912 -666.552 -911.552 -667 -911 -667V-669Z" fill="black" fill-opacity="0.1"/>
<g id="Office Supplies_2" clip-path="url(#clip0_0_1)">
<rect width="1920" height="1309" transform="translate(-693 -276)" fill="white"/>
<g id="Group 181707">
<g id="Group 181694">
<g id="Group 181454">
<circle id="Ellipse 83" cx="14.5029" cy="12.5029" r="39.7501" stroke="#FF3A3A" stroke-width="1.50572"/>
</g>
</g>
<g id="Group 181697">
<path id="Vector" d="M14.8154 4.58857C13.3069 2.66855 10.9814 0.748529 5.21804 0.607629C4.83948 0.598387 4.53076 0.90587 4.53076 1.28454C4.53076 4.09359 4.53076 14.7283 4.53076 17.8735C4.53076 18.2521 4.83951 18.5495 5.21797 18.5618C10.9814 18.7503 13.3069 21.3055 14.8154 23.2256M14.8154 4.58857C16.324 2.66855 18.6494 0.748529 24.4128 0.607629C24.7914 0.598387 25.1 0.898959 25.1 1.27763C25.1 4.41768 25.1 14.7324 25.1 17.8725C25.1 18.2511 24.7914 18.5495 24.4129 18.5618C18.6495 18.7503 16.324 21.3055 14.8154 23.2256M14.8154 4.58857V23.2256" stroke="black" stroke-width="1.12929" stroke-linejoin="round"/>
<path id="Vector_2" d="M24.7363 3.3418H27.8419C28.2205 3.3418 28.5275 3.64877 28.5275 4.02744V21.9076C28.5275 22.4625 27.8738 22.8311 27.3667 22.6058C26.2764 22.1213 24.4569 21.5294 22.0744 21.5294C18.0412 21.5294 14.8147 23.9111 14.8147 23.9111C14.8147 23.9111 11.5881 21.5294 7.55491 21.5294C5.1724 21.5294 3.35285 22.1213 2.26256 22.6058C1.75547 22.8311 1.10181 22.4625 1.10181 21.9076V4.02744C1.10181 3.64877 1.40878 3.3418 1.78745 3.3418H4.89301" stroke="#FF3A3A" stroke-width="1.12929" stroke-linejoin="round"/>
</g>
</g>
</g>
</g>
<defs>
<clipPath id="clip0_0_1">
<rect width="1920" height="1309" fill="white" transform="translate(-693 -276)"/>
</clipPath>
</defs>
</svg>
