<svg width="40" height="40" viewBox="0 0 40 40" fill="none" xmlns="http://www.w3.org/2000/svg">
<path d="M21.833 21.9662L14.1358 28.0414L16.0578 34.5322C16.0819 34.6146 16.1245 34.7609 15.8662 35.0192L15.7153 35.1701C15.5347 35.3507 15.2412 35.3507 15.0607 35.1701L4.78424 24.8937C4.60371 24.7131 4.60371 24.4196 4.78424 24.2391L4.93607 24.0873C5.17678 23.8466 5.31843 23.866 5.42675 23.8975L11.913 25.8176L17.9881 18.1204L4.912 13.1664C4.59723 13.047 4.51205 12.6434 4.74906 12.4064L5.38787 11.7675C5.56007 11.5953 5.7693 11.5157 6.04889 11.5157L22.6162 12.2471C23.6772 12.2971 24.2429 12.0416 24.9983 11.2861L29.6644 6.62005C30.344 5.9405 31.0698 5.40261 31.8206 5.02303C32.5446 4.65733 33.2223 4.46291 33.837 4.44625C34.2999 4.43329 34.7527 4.55364 35.0943 4.88138C35.3785 5.17856 35.5202 5.58962 35.5063 6.11641C35.4896 6.73114 35.2952 7.40884 34.9295 8.13282C34.5499 8.88365 34.012 9.60948 33.3325 10.289L28.6664 14.9551C27.9045 15.717 27.6554 16.2864 27.7054 17.34L28.434 33.8129C28.4525 34.1453 28.3748 34.3749 28.185 34.5656L27.5462 35.2044C27.3082 35.4423 26.9046 35.3544 26.7861 35.0414L21.833 21.9662Z" fill="#FF4F4F"/>
</svg>
