<svg width="16" height="17" viewBox="0 0 16 17" fill="none" xmlns="http://www.w3.org/2000/svg">
<path d="M7.75806 1.73221C5.06357 1.85912 2.99895 4.17415 2.99895 6.8533V9.27583L2.11548 11.0532C2.11393 11.0564 2.11241 11.0597 2.11093 11.0629C1.75551 11.8188 2.33085 12.7264 3.16626 12.7264H5.99895C5.99895 13.825 6.90032 14.7264 7.99895 14.7264C9.09757 14.7264 9.99895 13.825 9.99895 12.7264H12.831C13.6664 12.7264 14.2425 11.819 13.887 11.0629C13.8855 11.0597 13.884 11.0564 13.8824 11.0532L12.9989 9.27583V6.72635C12.9989 3.89095 10.62 1.59747 7.75806 1.73221ZM7.80494 2.73091C10.1116 2.62231 11.9989 4.44709 11.9989 6.72635V9.39302C11.9989 9.47026 12.0167 9.54647 12.051 9.61567L12.982 11.4894C13.0419 11.6177 12.9726 11.7264 12.831 11.7264H3.16626C3.02462 11.7264 2.95591 11.6179 3.01587 11.4894V11.4887L3.94686 9.61567C3.98119 9.54647 3.99902 9.47026 3.99895 9.39302V6.8533C3.99895 4.68646 5.65876 2.832 7.80494 2.73091ZM6.99895 12.7264H8.99895C8.99895 13.2844 8.55699 13.7264 7.99895 13.7264C7.4409 13.7264 6.99895 13.2844 6.99895 12.7264Z" fill="black"/>
</svg>
