<svg width="12" height="16" viewBox="0 0 12 16" fill="none" xmlns="http://www.w3.org/2000/svg">
<path fill-rule="evenodd" clip-rule="evenodd" d="M5.8398 0.58606H5.91558C7.15009 0.586046 8.12787 0.58604 8.89311 0.688929C9.68065 0.794808 10.3181 1.01791 10.8209 1.52061C11.3235 2.02331 11.5466 2.66076 11.6525 3.44831C11.7554 4.21356 11.7554 5.19137 11.7554 6.42586V9.18858C11.7554 10.4231 11.7554 11.4009 11.6525 12.1661C11.5466 12.9537 11.3235 13.5911 10.8209 14.0939C10.3181 14.5965 9.68065 14.8196 8.89311 14.9255C8.12787 15.0284 7.15009 15.0284 5.91558 15.0284H5.8398C4.60529 15.0284 3.6275 15.0284 2.86225 14.9255C2.0747 14.8196 1.43725 14.5965 0.934546 14.0939C0.431846 13.5911 0.208749 12.9537 0.10287 12.1661C-1.98091e-05 11.4009 -1.31303e-05 10.4231 3.04401e-07 9.18858V6.42585C-1.31303e-05 5.19136 -1.98091e-05 4.21356 0.10287 3.44831C0.208749 2.66076 0.431846 2.02331 0.934546 1.52061C1.43725 1.01791 2.0747 0.794808 2.86225 0.688929C3.6275 0.58604 4.60529 0.586046 5.8398 0.58606ZM2.99651 1.68755C2.32069 1.7784 1.93131 1.9488 1.64703 2.23309C1.36274 2.51737 1.19234 2.90675 1.10149 3.58257C1.00867 4.27289 1.0076 5.18287 1.0076 6.46375V9.15069C1.0076 10.4316 1.00867 11.3416 1.10149 12.0319C1.19234 12.7077 1.36274 13.0971 1.64703 13.3814C1.93131 13.6656 2.32069 13.836 2.99651 13.9269C3.68683 14.0197 4.59682 14.0208 5.87769 14.0208C7.15856 14.0208 8.06856 14.0197 8.7589 13.9269C9.43466 13.836 9.82407 13.6656 10.1083 13.3814C10.3926 13.0971 10.563 12.7077 10.6539 12.0319C10.7467 11.3416 10.7478 10.4316 10.7478 9.15069V6.46375C10.7478 5.18287 10.7467 4.27289 10.6539 3.58257C10.563 2.90675 10.3926 2.51737 10.1083 2.23309C9.82407 1.9488 9.43466 1.7784 8.7589 1.68755C8.06856 1.59473 7.15856 1.59366 5.87769 1.59366C4.59682 1.59366 3.68683 1.59473 2.99651 1.68755ZM3.35868 3.10507C3.35868 2.82683 3.58424 2.60127 3.86248 2.60127H7.8929C8.17113 2.60127 8.3967 2.82683 8.3967 3.10507C8.3967 3.38331 8.17113 3.60887 7.8929 3.60887H3.86248C3.58424 3.60887 3.35868 3.38331 3.35868 3.10507ZM5.87769 10.3262C5.41392 10.3262 5.03802 10.7021 5.03802 11.1659C5.03802 11.6297 5.41392 12.0056 5.87769 12.0056C6.34146 12.0056 6.71736 11.6297 6.71736 11.1659C6.71736 10.7021 6.34146 10.3262 5.87769 10.3262ZM4.03042 11.1659C4.03042 10.1457 4.85746 9.31863 5.87769 9.31863C6.89792 9.31863 7.72496 10.1457 7.72496 11.1659C7.72496 12.1861 6.89792 13.0132 5.87769 13.0132C4.85746 13.0132 4.03042 12.1861 4.03042 11.1659Z" fill="#212121"/>
</svg>
