<svg width="42" height="42" viewBox="0 0 42 42" fill="none" xmlns="http://www.w3.org/2000/svg">
<g clip-path="url(#clip0_9319_22252)">
<path d="M30.6083 0.335938C30.3627 0.335938 30.1268 0.41565 29.9706 0.616528L27.6748 3.57548H23.67C23.2173 3.57548 22.8538 3.94216 22.8538 4.39174V8.39653L19.8948 10.6923C19.6971 10.8453 19.5887 11.0781 19.5887 11.33C19.5887 11.5819 19.6971 11.8114 19.8948 11.9677L22.8538 14.2634V18.2682C22.8538 18.7178 23.2173 19.0845 23.67 19.0845H27.6748L29.9706 22.0434C30.1236 22.2443 30.3564 22.3495 30.6083 22.3495C30.8602 22.3495 31.0929 22.2443 31.246 22.0434L33.5417 19.0845H37.5465C37.9993 19.0845 38.3628 18.7178 38.3628 18.2682V14.2634L41.3217 11.9677C41.5226 11.8146 41.6278 11.5819 41.6278 11.33C41.6278 11.0781 41.5226 10.8485 41.3217 10.6923L38.3628 8.39653V4.39174C38.3628 3.94216 37.9993 3.57548 37.5465 3.57548H33.5417L31.246 0.616528C31.0897 0.41565 30.8538 0.335938 30.6083 0.335938ZM30.6083 6.84053C33.0858 6.84053 35.0977 8.8493 35.0977 11.33C35.0977 13.8106 33.0858 15.8194 30.6083 15.8194C28.1308 15.8194 26.1188 13.8106 26.1188 11.33C26.1188 8.8493 28.1308 6.84053 30.6083 6.84053ZM9.87009 22.3495C7.64769 22.3495 4.80033 23.0446 1.40136 24.4412C1.12396 24.556 0.923085 24.8334 0.891199 25.1299C0.859314 25.4265 0.99961 25.7007 1.24831 25.8697C1.92428 26.3352 2.393 27.7828 2.88084 29.3133C3.91711 32.5719 5.32644 37.0423 10.6098 37.0423C13.0714 37.0423 15.1694 36.0857 16.3747 34.4404C16.5692 34.1758 16.7286 33.9047 16.8593 33.6242C14.8506 30.5026 11.3559 28.2579 6.7836 27.3236C6.34039 27.2343 6.05661 26.7975 6.14589 26.3543C6.23517 25.9143 6.64649 25.6273 7.08969 25.7166C11.6684 26.6508 15.2746 28.7935 17.5736 31.7876C18.46 31.2264 19.0275 30.1997 19.0275 28.9562C19.0275 26.2108 16.177 22.3495 9.87009 22.3495ZM17.5736 31.7876C17.462 31.8577 17.3631 31.9374 17.242 31.9916C17.2515 32.5241 17.1112 33.0789 16.8593 33.6242C18.1029 35.5564 18.7725 37.8203 18.7725 40.3073C18.7725 40.7601 19.1391 41.1236 19.5887 41.1236C20.0383 41.1236 20.405 40.7601 20.405 40.3073C20.405 39.8577 20.3667 39.4177 20.3285 38.9809C20.3699 38.882 20.405 38.7864 20.405 38.6748C20.405 36.7712 20.9024 35.0271 21.7824 33.6242C21.5369 32.7664 21.5337 31.8768 21.8079 31.1754C21.7792 31.1499 21.7601 31.1275 21.7314 31.0988C20.6792 32.1319 19.8853 33.4456 19.3847 34.9251C18.9287 33.7995 18.3133 32.7505 17.5736 31.7876ZM21.7314 31.0988C21.9004 30.9362 22.0598 30.764 22.2416 30.6142C24.4672 28.768 27.5345 28.1335 31.0929 28.8031C31.5361 28.886 31.8135 29.3292 31.7306 29.7724C31.6477 30.2156 31.23 30.4962 30.7868 30.4101C27.7195 29.833 25.1272 30.3368 23.2874 31.8641C22.6975 32.3519 22.2001 32.9577 21.7824 33.6242C21.843 33.841 21.8908 34.0514 21.9865 34.2619C22.7517 35.9518 24.4034 36.9657 26.3994 36.9657H26.527C30.4999 36.9657 32.6967 34.0801 34.1539 32.1702C34.6736 31.4942 35.1583 30.8501 35.5058 30.6397C35.7067 30.5185 35.847 30.2858 35.8885 30.053C35.9299 29.8202 35.8311 29.5492 35.6844 29.3643C33.9211 27.1833 31.9283 24.7218 26.1188 24.7218C23.8837 24.7218 20.558 26.265 20.558 28.395C20.558 29.6385 21.1128 30.4803 21.7314 31.0988Z" fill="#FF4F4F"/>
</g>
<defs>
<clipPath id="clip0_9319_22252">
<rect width="40.8131" height="40.8131" fill="white" transform="translate(0.814697 0.3125)"/>
</clipPath>
</defs>
</svg>
