<svg width="27" height="28" viewBox="0 0 27 28" fill="none" xmlns="http://www.w3.org/2000/svg">
<path d="M17.8136 16.0865H17.7938C17.6366 16.0801 17.4795 16.1012 17.3296 16.149V15.3624C17.3293 15.1415 17.2735 14.9242 17.1673 14.7304C17.0611 14.5367 16.908 14.3727 16.7219 14.2536C16.5358 14.1345 16.3228 14.064 16.1024 14.0486C15.882 14.0332 15.6613 14.0734 15.4605 14.1655C15.3652 13.9159 15.1963 13.701 14.9762 13.5494C14.7561 13.3979 14.4952 13.3167 14.2279 13.3167H14.207C14.0352 13.3171 13.8651 13.3514 13.7067 13.4179C13.5482 13.4843 13.4044 13.5814 13.2837 13.7037C13.163 13.826 13.0677 13.971 13.0033 14.1303C12.9389 14.2895 12.9067 14.46 12.9085 14.6318V14.691C12.7564 14.6362 12.5961 14.6076 12.4344 14.6065C12.085 14.6067 11.7498 14.7453 11.5021 14.9919C11.2545 15.2385 11.1145 15.5731 11.1127 15.9226L11.107 20.4396C10.797 20.1038 10.3697 19.9003 9.91361 19.8714C9.45755 19.8424 9.00785 19.9901 8.65785 20.2839L8.39561 20.4864C8.31495 20.5487 8.25933 20.638 8.23885 20.7379C8.21838 20.8378 8.2344 20.9417 8.28402 21.0308L10.8636 25.649C11.1129 26.094 11.4765 26.4644 11.9169 26.7217C12.3573 26.9791 12.8585 27.114 13.3686 27.1127H16.2618C17.0208 27.1136 17.749 26.8133 18.2867 26.2777C18.8244 25.7421 19.1276 25.0151 19.1297 24.2561C19.1323 21.7589 19.1347 18.9766 19.1307 17.3848C19.1297 17.213 19.0948 17.0431 19.028 16.8848C18.9612 16.7266 18.8638 16.583 18.7415 16.4624C18.6191 16.3418 18.4742 16.2466 18.315 16.1821C18.1558 16.1176 17.9854 16.0851 17.8136 16.0865ZM18.2775 24.2553C18.2759 24.7884 18.0627 25.2991 17.6847 25.6751C17.3067 26.0511 16.795 26.2616 16.2618 26.2604H13.3686C13.0103 26.2619 12.6581 26.1676 12.3485 25.9872C12.0389 25.8068 11.7832 25.547 11.6078 25.2345L9.20617 20.9314C9.39006 20.7768 9.62709 20.7002 9.86666 20.718C10.1062 20.7357 10.3294 20.8465 10.4885 21.0265L11.2103 21.848C11.2675 21.9129 11.343 21.9589 11.427 21.9799C11.5109 22.0009 11.5992 21.9958 11.6802 21.9653C11.7612 21.9349 11.831 21.8805 11.8803 21.8095C11.9296 21.7384 11.9562 21.654 11.9564 21.5675L11.9606 15.9232C11.9606 15.8017 12.0081 15.685 12.093 15.5981C12.1779 15.5112 12.2934 15.461 12.4149 15.4582C12.5363 15.4554 12.6541 15.5003 12.7429 15.5832C12.8317 15.6661 12.8845 15.7805 12.89 15.9019C12.89 16.4659 12.89 17.0791 12.8903 17.6635C12.8907 19.007 12.8909 20.1673 12.8903 20.2789C12.8899 20.3919 12.9344 20.5005 13.014 20.5807C13.0936 20.6609 13.2019 20.7062 13.3149 20.7066C13.4279 20.707 13.5365 20.6625 13.6167 20.5829C13.6969 20.5033 13.7422 20.3951 13.7426 20.2821C13.743 20.1686 13.7426 19.0075 13.7426 17.6632C13.7426 17.245 13.7514 16.812 13.7513 16.3929C13.7513 16.3866 13.7608 16.3803 13.7608 16.3738V15.9237C13.7608 15.9112 13.7516 15.8989 13.7512 15.8867C13.7512 15.4189 13.7466 14.9865 13.7467 14.6327C13.7463 14.572 13.7579 14.5118 13.7808 14.4556C13.8037 14.3994 13.8376 14.3482 13.8804 14.3051C13.9231 14.262 13.974 14.2278 14.0301 14.2044C14.0861 14.1811 14.1463 14.169 14.207 14.169H14.228C14.287 14.1687 14.3455 14.1806 14.3997 14.2039C14.454 14.2272 14.5029 14.2613 14.5434 14.3043C14.5849 14.3479 14.6171 14.3995 14.6383 14.4558C14.6594 14.5122 14.6689 14.5722 14.6663 14.6324V20.2805C14.6663 20.3935 14.7112 20.5019 14.7911 20.5818C14.871 20.6617 14.9794 20.7066 15.0924 20.7066C15.2055 20.7066 15.3138 20.6617 15.3938 20.5818C15.4737 20.5019 15.5186 20.3935 15.5186 20.2805V15.3624C15.5186 15.2353 15.5691 15.1134 15.659 15.0235C15.7489 14.9336 15.8708 14.883 15.998 14.883C16.1251 14.883 16.247 14.9336 16.337 15.0235C16.4269 15.1134 16.4774 15.2353 16.4774 15.3624V20.2805C16.4774 20.3935 16.5223 20.5019 16.6022 20.5818C16.6821 20.6617 16.7905 20.7066 16.9035 20.7066C17.0165 20.7066 17.1249 20.6617 17.2048 20.5818C17.2847 20.5019 17.3296 20.3935 17.3296 20.2805V17.3814C17.3296 17.1251 17.5374 16.9388 17.7938 16.9388H17.8136C17.8737 16.9372 17.9335 16.9476 17.9895 16.9693C18.0456 16.9911 18.0967 17.0237 18.14 17.0655C18.1832 17.1072 18.2178 17.1571 18.2416 17.2123C18.2653 17.2675 18.2779 17.3269 18.2785 17.387C18.2824 18.9774 18.28 21.7588 18.2775 24.2553ZM8.43498 13.2676C8.5474 13.1553 8.63848 13.0236 8.70376 12.8787L9.25976 13.4352C9.41618 13.5912 9.60933 13.7055 9.82144 13.7674C10.0336 13.8294 10.2578 13.8371 10.4737 13.7897C10.6895 13.7423 10.89 13.6415 11.0567 13.4964C11.2234 13.3514 11.351 13.1668 11.4277 12.9595C11.6716 13.0691 11.9431 13.102 12.2061 13.0538C12.4691 13.0056 12.7113 12.8787 12.9005 12.6898L12.9151 12.6753C13.1617 12.4281 13.3002 12.0932 13.3002 11.744C13.3002 11.3949 13.1617 11.06 12.9151 10.8128L12.8737 10.7715C13.0674 10.6833 13.2369 10.5496 13.3678 10.3817C13.4986 10.2138 13.5869 10.0168 13.625 9.80741C13.6632 9.59803 13.6501 9.38252 13.5869 9.17929C13.5237 8.97606 13.4123 8.79114 13.2621 8.64032L10.0709 5.4439C10.5274 5.46238 10.9735 5.30418 11.3164 5.00221C11.6593 4.70024 11.8727 4.27773 11.9121 3.82252L11.9538 3.49424C11.9666 3.39313 11.9427 3.29079 11.8865 3.20577C11.8303 3.12075 11.7455 3.05868 11.6475 3.03082L6.55179 1.58331C6.06046 1.44397 5.54085 1.43824 5.04657 1.56673C4.55229 1.69522 4.10124 1.95326 3.73996 2.31423L1.69405 4.36014C1.15755 4.8981 0.856103 5.62674 0.855713 6.3865C0.855324 7.14626 1.15603 7.87521 1.69197 8.41372C3.45936 10.1848 5.43895 12.1677 6.5608 13.284C6.80822 13.5294 7.1427 13.6669 7.49117 13.6665C7.83965 13.6661 8.1738 13.5278 8.42065 13.2818L8.43498 13.2676ZM7.83264 12.6647L7.81826 12.6789C7.73118 12.7658 7.61326 12.8146 7.49028 12.8148C7.3673 12.815 7.24925 12.7665 7.16191 12.6799C6.04108 11.5646 4.06212 9.58228 2.29522 7.81176C1.91854 7.43326 1.70721 6.92093 1.70749 6.38694C1.70777 5.85296 1.91964 5.34084 2.29671 4.96274L4.34257 2.91689C4.59646 2.66316 4.91346 2.48179 5.26085 2.39147C5.60824 2.30116 5.97344 2.30519 6.31875 2.40313L11.0627 3.75077C11.0423 3.99005 10.9292 4.2119 10.7475 4.36898C10.5659 4.52607 10.3301 4.60597 10.0903 4.59164L8.99982 4.52191C8.91341 4.51639 8.82738 4.53731 8.75317 4.58189C8.67895 4.62648 8.62008 4.69261 8.58439 4.77149C8.54869 4.85037 8.53787 4.93825 8.55336 5.02343C8.56886 5.10861 8.60993 5.18705 8.67111 5.24831L12.6593 9.24255C12.7454 9.32837 12.7945 9.44449 12.796 9.56603C12.7975 9.68757 12.7513 9.80487 12.6674 9.89279C12.5835 9.98072 12.4684 10.0323 12.347 10.0364C12.2255 10.0406 12.1072 9.99698 12.0175 9.91498C11.6126 9.51016 11.1715 9.06927 10.7524 8.65044C9.81224 7.71066 8.99998 6.89898 8.92194 6.8202C8.84233 6.73997 8.7341 6.69466 8.62108 6.69422C8.50805 6.69379 8.39949 6.73827 8.31926 6.81788C8.23903 6.8975 8.19371 7.00572 8.19328 7.11874C8.19284 7.23177 8.23733 7.34034 8.31694 7.42057C8.39631 7.50047 9.20889 8.31278 10.1498 9.25325L11.0672 10.1703C11.0716 10.175 11.0759 10.1796 11.0805 10.1841L11.3988 10.5025C11.4075 10.5112 11.4164 10.5198 11.4254 10.5283C11.7562 10.859 12.0625 11.1653 12.3127 11.4154C12.3997 11.5027 12.4485 11.621 12.4484 11.7442C12.4483 11.8675 12.3994 11.9857 12.3122 12.0729L12.2977 12.0875C12.2104 12.1745 12.0922 12.2234 11.969 12.2234C11.8458 12.2234 11.7275 12.1745 11.6403 12.0875L11.1254 11.5725L11.1239 11.5711L7.64631 8.09343C7.56593 8.01582 7.45828 7.97289 7.34655 7.97388C7.23482 7.97487 7.12795 8.0197 7.04896 8.09873C6.96996 8.17775 6.92516 8.28464 6.92421 8.39637C6.92326 8.5081 6.96623 8.61573 7.04387 8.69609L10.5224 12.1744C10.6097 12.2619 10.6586 12.3804 10.6584 12.504C10.6583 12.6276 10.609 12.746 10.5215 12.8332C10.434 12.9205 10.3155 12.9694 10.1919 12.9692C10.0684 12.9691 9.94993 12.9198 9.86268 12.8323L6.38496 9.35494C6.30489 9.27582 6.19676 9.2316 6.08419 9.23194C5.97162 9.23228 5.86376 9.27714 5.78416 9.35674C5.70456 9.43633 5.65968 9.54419 5.65933 9.65676C5.65899 9.76933 5.7032 9.87746 5.78231 9.95754L7.209 11.384L7.21193 11.3869L7.83328 12.0083C7.91995 12.0955 7.96854 12.2136 7.96842 12.3366C7.9683 12.4596 7.91948 12.5775 7.83264 12.6647ZM24.1011 1.72899C23.5631 1.19249 22.8345 0.891025 22.0747 0.890625C21.315 0.890226 20.586 1.19092 20.0475 1.72686C18.2763 3.4944 16.2933 5.4741 15.1772 6.59568C14.9318 6.84318 14.7943 7.17774 14.7948 7.52629C14.7953 7.87483 14.9337 8.20902 15.1797 8.45585L15.1938 8.46986C15.3059 8.58226 15.4376 8.67333 15.5823 8.73865L15.026 9.29507C14.8702 9.45161 14.7562 9.64474 14.6944 9.85677C14.6325 10.0688 14.6249 10.2929 14.6721 10.5087C14.7193 10.7244 14.82 10.9249 14.9647 11.0917C15.1095 11.2585 15.2938 11.3863 15.5007 11.4634C15.3914 11.7073 15.3588 11.9787 15.4071 12.2415C15.4553 12.5044 15.5823 12.7464 15.7711 12.9356L15.7859 12.9504C16.0331 13.197 16.368 13.3354 16.7171 13.3354C17.0663 13.3354 17.4011 13.197 17.6483 12.9504L17.6902 12.9085C17.7782 13.1023 17.9118 13.2719 18.0796 13.4029C18.2474 13.5338 18.4445 13.6221 18.6538 13.6604C18.8632 13.6986 19.0788 13.6855 19.282 13.6223C19.4852 13.5591 19.6701 13.4476 19.8209 13.2974L23.0172 10.1058C22.9988 10.5623 23.157 11.0084 23.4589 11.3512C23.7609 11.6941 24.1834 11.9075 24.6385 11.9469L24.9668 11.9887C25.0679 12.0015 25.1703 11.9776 25.2553 11.9214C25.3403 11.8653 25.4024 11.7805 25.4302 11.6824L26.8776 6.58668C27.0169 6.09535 27.0226 5.57574 26.8942 5.08146C26.7657 4.58718 26.5076 4.13613 26.1467 3.77485L24.1011 1.72899ZM26.058 6.3538L24.7104 11.0978C24.471 11.0774 24.2491 10.9644 24.092 10.7827C23.9349 10.601 23.855 10.3651 23.8695 10.1253L23.9391 9.0347C23.9446 8.94831 23.9237 8.86229 23.8791 8.78809C23.8345 8.71389 23.7684 8.65502 23.6895 8.61933C23.6107 8.58364 23.5228 8.57282 23.4376 8.5883C23.3524 8.60378 23.274 8.64483 23.2128 8.70599L19.2185 12.6943C19.1326 12.7798 19.0166 12.8284 18.8953 12.8297C18.774 12.831 18.657 12.7848 18.5693 12.701C18.4816 12.6172 18.4301 12.5025 18.4258 12.3813C18.4215 12.2601 18.4647 12.142 18.5462 12.0522L19.7761 10.8217C20.694 9.90337 21.5611 9.03593 21.6408 8.95672C21.6812 8.91746 21.7134 8.87057 21.7356 8.81878C21.7578 8.76699 21.7694 8.71131 21.7699 8.65498C21.7705 8.59864 21.7598 8.54276 21.7386 8.49057C21.7173 8.43839 21.686 8.39093 21.6463 8.35094C21.6066 8.31095 21.5594 8.27923 21.5074 8.25761C21.4553 8.23599 21.3995 8.2249 21.3432 8.22498C21.2869 8.22506 21.2311 8.23632 21.1791 8.25809C21.1272 8.27986 21.0801 8.31172 21.0405 8.35183C20.9595 8.4322 20.1317 9.26034 19.1732 10.2192L18.2905 11.1023C18.2859 11.1066 18.2814 11.1109 18.2769 11.1154L17.9586 11.4337C17.9499 11.4423 17.9414 11.4511 17.9331 11.4599C17.6023 11.7908 17.2959 12.0973 17.0456 12.3475C16.9584 12.4345 16.8402 12.4834 16.717 12.4834C16.5938 12.4834 16.4756 12.4345 16.3884 12.3475L16.3736 12.3327C16.3304 12.2895 16.2962 12.2383 16.2728 12.1819C16.2495 12.1255 16.2374 12.0651 16.2374 12.004C16.2374 11.943 16.2495 11.8825 16.2728 11.8261C16.2962 11.7697 16.3304 11.7185 16.3736 11.6753L17.8525 10.1964L17.8542 10.1947L20.3676 7.68136C20.4071 7.64179 20.4385 7.59481 20.46 7.54311C20.4814 7.49141 20.4924 7.43599 20.4924 7.38003C20.4924 7.32407 20.4814 7.26866 20.46 7.21695C20.4385 7.16525 20.4071 7.11827 20.3676 7.0787C20.328 7.03913 20.281 7.00774 20.2293 6.98633C20.1776 6.96491 20.1222 6.95389 20.0662 6.95389C20.0103 6.95389 19.9549 6.96491 19.9032 6.98633C19.8515 7.00774 19.8045 7.03913 19.7649 7.0787L16.2874 10.5563C16.2 10.6437 16.0815 10.6928 15.9579 10.6928C15.8344 10.6928 15.7159 10.6437 15.6285 10.5563C15.5411 10.4689 15.4921 10.3504 15.4921 10.2269C15.4921 10.1033 15.5411 9.98483 15.6285 9.89746L17.6768 7.8492L17.6774 7.84856L19.1061 6.41985C19.1461 6.38037 19.1778 6.33337 19.1996 6.28157C19.2213 6.22976 19.2326 6.17417 19.2327 6.11799C19.2329 6.06181 19.222 6.00616 19.2006 5.95423C19.1791 5.90229 19.1477 5.85511 19.1079 5.81538C19.0682 5.77566 19.021 5.74419 18.9691 5.72277C18.9171 5.70135 18.8615 5.69042 18.8053 5.69059C18.7491 5.69076 18.6935 5.70204 18.6417 5.72378C18.5899 5.74551 18.5429 5.77728 18.5035 5.81725L16.4535 7.86721C16.3663 7.95426 16.248 8.00314 16.1248 8.00314C16.0015 8.00314 15.8833 7.95426 15.7961 7.86721L15.7821 7.85325C15.6953 7.76617 15.6464 7.64825 15.6462 7.52526C15.646 7.40227 15.6945 7.2842 15.7811 7.19685C16.8962 6.07617 18.8786 4.09716 20.6493 2.3301C21.0278 1.95344 21.5401 1.74212 22.0741 1.7424C22.608 1.74268 23.1202 1.95454 23.4983 2.33159L25.5443 4.37751C25.798 4.63144 25.9794 4.94846 26.0697 5.29586C26.16 5.64327 26.156 6.00847 26.058 6.3538Z" fill="#9C9DA1"/>
</svg>
