<svg width="14" height="14" viewBox="0 0 14 14" fill="none" xmlns="http://www.w3.org/2000/svg">
<path fill-rule="evenodd" clip-rule="evenodd" d="M9.40569 2.51107C9.40569 1.11986 8.27792 -0.00793457 6.88668 -0.00793457C5.49547 -0.00793457 4.36768 1.11986 4.36768 2.51107C4.36768 3.90229 5.49547 5.03008 6.88668 5.03008C8.27792 5.03008 9.40569 3.90229 9.40569 2.51107ZM6.88668 0.999669C7.72138 0.999669 8.39809 1.67635 8.39809 2.51107C8.39809 3.3458 7.72138 4.02248 6.88668 4.02248C6.05199 4.02248 5.37528 3.3458 5.37528 2.51107C5.37528 1.67635 6.05199 0.999669 6.88668 0.999669Z" fill="#212121"/>
<path fill-rule="evenodd" clip-rule="evenodd" d="M5.03802 10.5864C5.03802 9.19516 3.91022 8.06738 2.51901 8.06738C1.1278 8.06738 0 9.19516 0 10.5864C0 11.9776 1.1278 13.1054 2.51901 13.1054C3.91022 13.1054 5.03802 11.9776 5.03802 10.5864ZM2.51901 9.07499C3.35373 9.07499 4.03041 9.75169 4.03041 10.5864C4.03041 11.4211 3.35373 12.0978 2.51901 12.0978C1.68428 12.0978 1.0076 11.4211 1.0076 10.5864C1.0076 9.75169 1.68428 9.07499 2.51901 9.07499Z" fill="#212121"/>
<path fill-rule="evenodd" clip-rule="evenodd" d="M11.2524 8.06738C12.6436 8.06738 13.7714 9.19516 13.7714 10.5864C13.7714 11.9776 12.6436 13.1054 11.2524 13.1054C9.86118 13.1054 8.7334 11.9776 8.7334 10.5864C8.7334 9.19516 9.86118 8.06738 11.2524 8.06738ZM12.7638 10.5864C12.7638 9.75169 12.0871 9.07499 11.2524 9.07499C10.4177 9.07499 9.741 9.75169 9.741 10.5864C9.741 11.4211 10.4177 12.0978 11.2524 12.0978C12.0871 12.0978 12.7638 11.4211 12.7638 10.5864Z" fill="#212121"/>
<path d="M3.66627 3.58258C3.87487 3.39846 3.89472 3.08009 3.71061 2.87147C3.52648 2.66287 3.20812 2.64302 2.9995 2.82713C1.78009 3.9034 1.00977 5.47969 1.00977 7.23527C1.00977 7.51351 1.23533 7.73907 1.51357 7.73907C1.79181 7.73907 2.01737 7.51351 2.01737 7.23527C2.01737 5.78076 2.65436 4.47569 3.66627 3.58258Z" fill="#212121"/>
<path d="M10.7761 2.82713C10.5676 2.64302 10.2492 2.66287 10.065 2.87147C9.88092 3.08009 9.9008 3.39846 10.1094 3.58258C11.1213 4.47569 11.7583 5.78076 11.7583 7.23527C11.7583 7.51351 11.9839 7.73907 12.2621 7.73907C12.5403 7.73907 12.7659 7.51351 12.7659 7.23527C12.7659 5.47969 11.9955 3.9034 10.7761 2.82713Z" fill="#212121"/>
<path d="M5.66805 11.9487C5.39861 11.8793 5.12395 12.0415 5.0546 12.3109C4.98525 12.5804 5.14746 12.8551 5.41692 12.9244C5.88703 13.0454 6.37935 13.1096 6.88597 13.1096C7.39259 13.1096 7.88491 13.0454 8.35499 12.9244C8.62449 12.8551 8.78671 12.5804 8.71732 12.3109C8.648 12.0415 8.37333 11.8793 8.10389 11.9487C7.71516 12.0487 7.30715 12.102 6.88597 12.102C6.46479 12.102 6.05678 12.0487 5.66805 11.9487Z" fill="#212121"/>
</svg>
