<svg width="40" height="40" viewBox="0 0 40 40" fill="none" xmlns="http://www.w3.org/2000/svg">
<circle cx="19.9357" cy="19.693" r="19.693" fill="white"/>
<g clip-path="url(#clip0_7604_36238)">
<path d="M19.0402 8.96094C13.4818 8.96094 8.96021 13.4825 8.96021 19.0409V19.5209H19.5202V8.96094H19.0402ZM20.9602 10.8809C20.798 10.8809 20.6405 10.8976 20.4802 10.9053V11.8653C20.64 11.8567 20.798 11.8409 20.9602 11.8409C25.9892 11.8409 30.0802 15.932 30.0802 20.9609C30.0802 25.9899 25.9892 30.0809 20.9602 30.0809C15.9312 30.0809 11.8402 25.9899 11.8402 20.9609C11.8402 20.7987 11.8559 20.6408 11.8646 20.4809H10.9046C10.8969 20.6413 10.8802 20.7987 10.8802 20.9609C10.8802 26.5193 15.4018 31.0409 20.9602 31.0409C26.5186 31.0409 31.0402 26.5193 31.0402 20.9609C31.0402 15.4025 26.5186 10.8809 20.9602 10.8809Z" fill="black"/>
</g>
<defs>
<clipPath id="clip0_7604_36238">
<rect width="24" height="24" fill="white" transform="translate(8 8)"/>
</clipPath>
</defs>
</svg>
