<svg width="43" height="43" viewBox="0 0 43 43" fill="none" xmlns="http://www.w3.org/2000/svg">
<g clip-path="url(#clip0_4_13412)">
<path d="M10.5179 0.912354C9.5978 0.912354 8.83548 1.67468 8.83548 2.59473V4.27711H3.78834C2.81243 4.27711 2.10596 4.98358 2.10596 5.95949V11.8478H40.8007V5.95949C40.8007 4.98358 40.0942 4.27711 39.1183 4.27711H34.0712V2.59473C34.0712 1.67468 33.3088 0.912354 32.3888 0.912354H30.7064C29.7864 0.912354 29.024 1.67468 29.024 2.59473V4.27711H13.8826V2.59473C13.8826 1.67468 13.1203 0.912354 12.2002 0.912354H10.5179ZM10.5179 2.59473H12.2002V7.64187H10.5179V2.59473ZM30.7064 2.59473H32.3888V7.64187H30.7064V2.59473ZM2.10596 13.5302V39.6071C2.10596 40.537 2.85843 41.2895 3.78834 41.2895H29.047C30.4501 42.341 32.1851 42.9719 34.0712 42.9719C38.7109 42.9719 42.4831 39.1996 42.4831 34.56C42.4831 32.6738 41.8522 30.9389 40.8007 29.5358V13.5302H2.10596ZM21.0327 17.7362L23.1488 23.2039L29.024 23.5193L24.4599 27.2127L25.3964 30.7253L25.9714 32.8776L21.0327 29.6935L16.094 32.8776L17.6088 27.2127L13.0414 23.5193L18.9166 23.2039L21.0327 17.7362ZM34.0712 27.8304C37.781 27.8304 40.8007 30.8502 40.8007 34.56C40.8007 38.2697 37.781 41.2895 34.0712 41.2895C30.3614 41.2895 27.3417 38.2697 27.3417 34.56C27.3417 30.8502 30.3614 27.8304 34.0712 27.8304ZM37.6889 30.6925L33.1478 35.9893L30.368 33.8863L29.3625 35.2336L33.3121 38.2632L38.9507 31.7834L37.6889 30.6925Z" fill="#FF3A3A"/>
</g>
<defs>
<clipPath id="clip0_4_13412">
<rect width="42.0595" height="42.0595" fill="white" transform="translate(0.423828 0.912354)"/>
</clipPath>
</defs>
</svg>
