<svg width="36" height="35" viewBox="0 0 36 35" fill="none" xmlns="http://www.w3.org/2000/svg">
<path opacity="0.2" d="M27.5016 20.7266L22.5182 25.71C22.3824 25.837 22.2179 25.9292 22.0386 25.9787C21.8594 26.0282 21.6708 26.0336 21.4891 25.9943L13.6348 24.0308C13.4913 23.9908 13.3576 23.9216 13.2421 23.8276L5.83472 18.0453L10.2494 9.74415L17.1963 7.71287C17.4431 7.64209 17.7071 7.66128 17.9411 7.76704L22.6266 9.89311H19.8234C19.6827 9.89261 19.5434 9.91987 19.4132 9.97331C19.2831 10.0268 19.1648 10.1053 19.0651 10.2046L13.7567 15.4994C13.6483 15.6107 13.5648 15.7437 13.5117 15.8897C13.4585 16.0357 13.437 16.1912 13.4485 16.3462C13.4601 16.5011 13.5044 16.6518 13.5785 16.7883C13.6526 16.9248 13.7549 17.044 13.8786 17.138L14.6098 17.6932C15.3608 18.2537 16.2728 18.5565 17.2098 18.5565C18.1469 18.5565 19.0589 18.2537 19.8099 17.6932L21.5432 16.3932L27.5016 20.7266Z" fill="#A4A4A4"/>
<path d="M33.0132 16.5144L29.6683 18.18L25.335 9.89242L28.7204 8.19969C28.972 8.07145 29.2641 8.04788 29.533 8.13413C29.8019 8.22038 30.0258 8.40945 30.1559 8.66011L33.4871 15.0383C33.5547 15.166 33.596 15.3059 33.6087 15.4498C33.6214 15.5937 33.6052 15.7386 33.561 15.8762C33.5169 16.0137 33.4457 16.141 33.3516 16.2506C33.2575 16.3602 33.1424 16.4499 33.0132 16.5144V16.5144Z" stroke="#A4A4A4" stroke-width="2.16669" stroke-linecap="round" stroke-linejoin="round"/>
<path d="M5.83469 18.0447L2.48986 16.3655C2.36108 16.3023 2.24629 16.214 2.15234 16.1056C2.05839 15.9972 1.98719 15.8711 1.94298 15.7346C1.89876 15.5982 1.88243 15.4543 1.89496 15.3114C1.90749 15.1685 1.94862 15.0296 2.0159 14.9029L5.34719 8.52475C5.4775 8.27427 5.70046 8.08456 5.96858 7.99603C6.23669 7.90751 6.52878 7.92715 6.78262 8.05079L10.1681 9.74352L5.83469 18.0447Z" stroke="#A4A4A4" stroke-width="2.16669" stroke-linecap="round" stroke-linejoin="round"/>
<path d="M29.6683 18.1803L27.5016 20.7262L22.5182 25.7096C22.3824 25.8366 22.2179 25.9288 22.0386 25.9783C21.8594 26.0279 21.6708 26.0332 21.4891 25.994L13.6348 24.0304C13.4913 23.9904 13.3576 23.9213 13.2421 23.8273L5.83472 18.0449" stroke="#A4A4A4" stroke-width="2.16669" stroke-linecap="round" stroke-linejoin="round"/>
<path d="M27.5015 20.726L21.5431 16.3927L19.8098 17.6927C19.0588 18.2532 18.1468 18.556 17.2098 18.556C16.2727 18.556 15.3607 18.2532 14.6097 17.6927L13.8785 17.1375C13.7548 17.0434 13.6525 16.9242 13.5784 16.7877C13.5043 16.6512 13.46 16.5005 13.4485 16.3456C13.4369 16.1907 13.4584 16.0351 13.5116 15.8892C13.5647 15.7432 13.6482 15.6102 13.7566 15.4989L19.065 10.204C19.1647 10.1048 19.283 10.0262 19.4131 9.97279C19.5433 9.91935 19.6827 9.89209 19.8233 9.89258H25.3348" stroke="#A4A4A4" stroke-width="2.16669" stroke-linecap="round" stroke-linejoin="round"/>
<path d="M10.2493 9.74415L17.1962 7.71287C17.4431 7.64209 17.707 7.66128 17.941 7.76704L22.6265 9.89311" stroke="#A4A4A4" stroke-width="2.16669" stroke-linecap="round" stroke-linejoin="round"/>
<path d="M15.5848 28.8511L11.5087 27.8219C11.3426 27.7844 11.1888 27.7052 11.0618 27.5917L8.00134 24.9375" stroke="#A4A4A4" stroke-width="2.16669" stroke-linecap="round" stroke-linejoin="round"/>
</svg>
