<svg width="14" height="16" viewBox="0 0 14 16" fill="none" xmlns="http://www.w3.org/2000/svg">
<path fill-rule="evenodd" clip-rule="evenodd" d="M5.8398 0.951294H7.25905C8.49356 0.951281 9.47134 0.951274 10.2366 1.05416C11.0241 1.16004 11.6616 1.38314 12.1643 1.88584C12.667 2.38855 12.8901 3.02599 12.996 3.81355C13.0989 4.5788 13.0989 5.5566 13.0989 6.79109V9.55381C13.0989 10.7883 13.0989 11.7661 12.996 12.5313C12.8901 13.3189 12.667 13.9564 12.1643 14.4591C11.6616 14.9618 11.0241 15.1848 10.2366 15.2908C9.47134 15.3936 8.49356 15.3936 7.25905 15.3936H5.8398C4.60531 15.3936 3.6275 15.3936 2.86225 15.2908C2.0747 15.1848 1.43725 14.9618 0.934546 14.4591C0.431846 13.9564 0.208749 13.3189 0.10287 12.5313C-1.98091e-05 11.7661 -1.31303e-05 10.7883 3.04401e-07 9.55381V6.79108C-1.31303e-05 5.55659 -1.98091e-05 4.5788 0.10287 3.81355C0.208749 3.02599 0.431846 2.38855 0.934546 1.88584C1.43725 1.38314 2.0747 1.16004 2.86225 1.05416C3.6275 0.951274 4.6053 0.951281 5.8398 0.951294ZM2.99651 2.05278C2.32069 2.14364 1.93132 2.31404 1.64703 2.59832C1.36274 2.88261 1.19235 3.27198 1.10149 3.94781C1.00867 4.63812 1.0076 5.5481 1.0076 6.82898V9.51593C1.0076 10.7968 1.00867 11.7068 1.10149 12.3971C1.19235 13.0729 1.36274 13.4623 1.64703 13.7466C1.93132 14.0309 2.32069 14.2013 2.99651 14.2921C3.68683 14.3849 4.59681 14.386 5.87769 14.386H7.22116C8.50203 14.386 9.41203 14.3849 10.1024 14.2921C10.7781 14.2013 11.1675 14.0309 11.4518 13.7466C11.7361 13.4623 11.9065 13.0729 11.9973 12.3971C12.0902 11.7068 12.0912 10.7968 12.0912 9.51593V6.82898C12.0912 5.5481 12.0902 4.63812 11.9973 3.94781C11.9065 3.27198 11.7361 2.88261 11.4518 2.59832C11.1675 2.31404 10.7781 2.14364 10.1024 2.05278C9.41203 1.95997 8.50203 1.9589 7.22116 1.9589H5.87769C4.59681 1.9589 3.68683 1.95997 2.99651 2.05278ZM3.35868 6.82898C3.35868 6.55074 3.58424 6.32518 3.86248 6.32518H9.23637C9.5146 6.32518 9.74017 6.55074 9.74017 6.82898C9.74017 7.10722 9.5146 7.33278 9.23637 7.33278H3.86248C3.58424 7.33278 3.35868 7.10722 3.35868 6.82898ZM3.35868 9.51593C3.35868 9.23769 3.58424 9.01212 3.86248 9.01212H7.22116C7.49939 9.01212 7.72496 9.23769 7.72496 9.51593C7.72496 9.79416 7.49939 10.0197 7.22116 10.0197H3.86248C3.58424 10.0197 3.35868 9.79416 3.35868 9.51593Z" fill="#212121"/>
</svg>
