<svg width="31" height="28" viewBox="0 0 31 28" fill="none" xmlns="http://www.w3.org/2000/svg">
<path d="M26.9295 0.210938C29.151 0.210938 30.9577 2.01758 30.9577 4.23912V23.0373C30.9577 25.2589 29.151 27.0655 26.9295 27.0655H4.10313C1.88159 27.0655 0.0749512 25.2589 0.0749512 23.0373V4.23912C0.0749512 2.01758 1.88159 0.210938 4.10313 0.210938H26.9295ZM16.859 14.9809C17.6002 14.9809 18.2018 14.3794 18.2018 13.6382C18.2018 12.897 17.6002 12.2955 16.859 12.2955H7.45995C6.71877 12.2955 6.11723 12.897 6.11723 13.6382C6.11723 14.3794 6.71877 14.9809 7.45995 14.9809H16.859ZM16.859 8.93867C17.6002 8.93867 18.2018 8.33712 18.2018 7.59594C18.2018 6.85475 17.6002 6.25321 16.859 6.25321H7.45995C6.71877 6.25321 6.11723 6.85475 6.11723 7.59594C6.11723 8.33712 6.71877 8.93867 7.45995 8.93867H16.859ZM23.5727 21.6946C24.3139 21.6946 24.9154 21.093 24.9154 20.3519C24.9154 19.6107 24.3139 19.0091 23.5727 19.0091H18.2018C17.4606 19.0091 16.859 19.6107 16.859 20.3519C16.859 21.093 17.4606 21.6946 18.2018 21.6946H23.5727ZM23.5727 14.9809C24.3139 14.9809 24.9154 14.3794 24.9154 13.6382C24.9154 12.897 24.3139 12.2955 23.5727 12.2955H22.23C21.4888 12.2955 20.8872 12.897 20.8872 13.6382C20.8872 14.3794 21.4888 14.9809 22.23 14.9809H23.5727ZM23.5727 8.93867C24.3139 8.93867 24.9154 8.33712 24.9154 7.59594C24.9154 6.85475 24.3139 6.25321 23.5727 6.25321H22.23C21.4888 6.25321 20.8872 6.85475 20.8872 7.59594C20.8872 8.33712 21.4888 8.93867 22.23 8.93867H23.5727Z" fill="#FF4F4F"/>
</svg>
