<svg width="15" height="16" viewBox="0 0 15 16" fill="none" xmlns="http://www.w3.org/2000/svg">
<path fill-rule="evenodd" clip-rule="evenodd" d="M7.22116 0.708374C6.81496 0.708374 6.44087 0.809329 6.03138 0.978694C5.63592 1.14223 5.17662 1.38327 4.60468 1.68342L3.21586 2.41224C2.51392 2.78059 1.95217 3.07538 1.51844 3.36503C1.06909 3.66511 0.723003 3.98108 0.470968 4.40909C0.219779 4.83566 0.106779 5.29757 0.0525903 5.84764C-6.57634e-06 6.38157 -6.56806e-06 7.03821 1.49294e-07 7.86411V7.99496C-6.56806e-06 8.82079 -6.57634e-06 9.47748 0.0525903 10.0114C0.106779 10.5615 0.219779 11.0234 0.470968 11.45C0.723003 11.878 1.06909 12.194 1.51844 12.494C1.95217 12.7837 2.51391 13.0785 3.21585 13.4468L4.60462 14.1756C5.17658 14.4758 5.6359 14.7168 6.03138 14.8804C6.44087 15.0497 6.81496 15.1507 7.22116 15.1507C7.62736 15.1507 8.00145 15.0497 8.41094 14.8804C8.80639 14.7168 9.26572 14.4758 9.83764 14.1757L11.2265 13.4468C11.9284 13.0785 12.4901 12.7837 12.9239 12.494C13.3733 12.194 13.7193 11.878 13.9714 11.45C14.2225 11.0234 14.3355 10.5615 14.3897 10.0114C14.4423 9.47748 14.4423 8.82086 14.4423 7.99503V7.86404C14.4423 7.03821 14.4423 6.38157 14.3897 5.84764C14.3355 5.29757 14.2225 4.83566 13.9714 4.40909C13.7193 3.98108 13.3733 3.66511 12.9239 3.36503C12.4901 3.07538 11.9284 2.78059 11.2265 2.41223L9.83764 1.68343C9.26572 1.38328 8.80639 1.14224 8.41094 0.978694C8.00145 0.809329 7.62736 0.708374 7.22116 0.708374ZM5.05199 2.5866C5.64965 2.27296 6.06846 2.05373 6.41642 1.90981C6.75511 1.76974 6.99311 1.71598 7.22116 1.71598C7.44921 1.71598 7.68721 1.76974 8.0259 1.90981C8.37386 2.05373 8.79269 2.27296 9.39033 2.5866L10.7338 3.29162C11.4658 3.67575 11.9801 3.94636 12.3643 4.20296C12.5539 4.32955 12.7028 4.44711 12.8231 4.56531L10.5858 5.68397L4.8761 2.6789L5.05199 2.5866ZM3.82531 3.23033L3.70852 3.29162C2.97654 3.67575 2.46227 3.94636 2.07803 4.20296C1.88846 4.32955 1.7395 4.44711 1.61925 4.56531L7.22116 7.36628L9.47631 6.2387L3.9637 3.33734C3.91015 3.30915 3.86376 3.27268 3.82531 3.23033ZM1.13368 5.44906C1.09975 5.59273 1.07411 5.75588 1.05534 5.94642C1.00817 6.42525 1.0076 7.03236 1.0076 7.89024V7.96883C1.0076 8.8267 1.00817 9.43382 1.05534 9.91263C1.10147 10.381 1.18912 10.6838 1.33922 10.9387C1.48848 11.1922 1.70438 11.4066 2.07803 11.6561C2.46227 11.9127 2.97654 12.1833 3.70852 12.5675L5.05199 13.2725C5.64965 13.5861 6.06846 13.8053 6.41642 13.9492C6.52632 13.9947 6.6256 14.031 6.71736 14.0595V8.24088L1.13368 5.44906ZM7.72496 14.0595C7.81672 14.031 7.916 13.9947 8.0259 13.9492C8.37386 13.8053 8.79269 13.5861 9.39033 13.2725L10.7338 12.5675C11.4658 12.1833 11.9801 11.9127 12.3643 11.6561C12.7379 11.4066 12.9538 11.1922 13.1031 10.9387C13.2532 10.6838 13.3409 10.381 13.387 9.91263C13.4342 9.43382 13.4347 8.8267 13.4347 7.96883V7.89024C13.4347 7.03236 13.4342 6.42525 13.387 5.94642C13.3682 5.75588 13.3426 5.59273 13.3086 5.44906L11.0836 6.56156V8.60127C11.0836 8.8795 10.8581 9.10507 10.5798 9.10507C10.3016 9.10507 10.076 8.8795 10.076 8.60127V7.06535L7.72496 8.24088V14.0595Z" fill="#212121"/>
</svg>
