<svg width="17" height="18" viewBox="0 0 17 18" fill="none" xmlns="http://www.w3.org/2000/svg">
<g clip-path="url(#clip0_6_1299)">
<path d="M8.39893 0.705444C13.0375 0.705444 16.7979 4.46577 16.7979 9.10437C16.7979 13.743 13.0375 17.5033 8.39893 17.5033C3.76033 17.5033 0 13.743 0 9.10437C0 4.46577 3.76033 0.705444 8.39893 0.705444ZM8.39893 1.75531C4.34015 1.75531 1.04987 5.0456 1.04987 9.10437C1.04987 13.1631 4.34015 16.4534 8.39893 16.4534C12.4577 16.4534 15.748 13.1631 15.748 9.10437C15.748 5.0456 12.4577 1.75531 8.39893 1.75531ZM5.4593 8.36946C5.86518 8.36946 6.19421 8.69849 6.19421 9.10437C6.19421 9.51025 5.86518 9.83928 5.4593 9.83928C5.05342 9.83928 4.7244 9.51025 4.7244 9.10437C4.7244 8.69849 5.05342 8.36946 5.4593 8.36946ZM8.39893 8.36946C8.8048 8.36946 9.13383 8.69849 9.13383 9.10437C9.13383 9.51025 8.8048 9.83928 8.39893 9.83928C7.99305 9.83928 7.66402 9.51025 7.66402 9.10437C7.66402 8.69849 7.99305 8.36946 8.39893 8.36946ZM11.3385 8.36946C11.7444 8.36946 12.0735 8.69849 12.0735 9.10437C12.0735 9.51025 11.7444 9.83928 11.3385 9.83928C10.9327 9.83928 10.6036 9.51025 10.6036 9.10437C10.6036 8.69849 10.9327 8.36946 11.3385 8.36946Z" fill="#212121"/>
</g>
<defs>
<clipPath id="clip0_6_1299">
<rect width="16.7979" height="16.7979" fill="white" transform="translate(0 0.705444)"/>
</clipPath>
</defs>
</svg>
