<svg width="45" height="46" viewBox="0 0 45 46" fill="none" xmlns="http://www.w3.org/2000/svg">
<path d="M6.40663 3.75256C5.58974 3.75256 4.92676 4.41555 4.92676 5.23243V36.3097C4.92676 39.5788 7.57721 42.2292 10.8462 42.2292H33.0443H34.5242H36.0041C39.2731 42.2292 41.9235 39.5788 41.9235 36.3097V15.5915C41.9235 14.7746 41.2606 14.1117 40.4437 14.1117H37.4839V36.3097C37.4839 37.1281 36.8209 37.7896 36.0041 37.7896C35.1872 37.7896 34.5242 37.1281 34.5242 36.3097V5.23243C34.5242 4.41555 33.8612 3.75256 33.0443 3.75256H6.40663ZM9.36637 9.67205H30.0846V14.1117H9.36637V9.67205ZM9.36637 20.0312H18.2456V22.9909H9.36637V20.0312ZM21.2053 20.0312H30.0846V22.9909H21.2053V20.0312ZM9.36637 25.9506H18.2456V28.9104H9.36637V25.9506ZM21.2053 25.9506H30.0846V28.9104H21.2053V25.9506ZM9.36637 31.8701H18.2456V34.8299H9.36637V31.8701ZM21.2053 31.8701H30.0846V34.8299H21.2053V31.8701Z" fill="#FF3A3A"/>
</svg>
