<svg width="36" height="35" viewBox="0 0 36 35" fill="none" xmlns="http://www.w3.org/2000/svg">
<path opacity="0.2" d="M11.4999 29.2711H7.16655C6.87923 29.2711 6.60367 29.157 6.40051 28.9538C6.19734 28.7506 6.0832 28.4751 6.0832 28.1878V6.52085C6.0832 6.23352 6.19734 5.95797 6.40051 5.7548C6.60367 5.55164 6.87923 5.4375 7.16655 5.4375H11.4999V29.2711Z" fill="#2DB324"/>
<path d="M15.8333 15.1875H24.5001" stroke="#2DB324" stroke-width="2.16669" stroke-linecap="round" stroke-linejoin="round"/>
<path d="M15.8333 19.5205H24.5001" stroke="#2DB324" stroke-width="2.16669" stroke-linecap="round" stroke-linejoin="round"/>
<path d="M28.8335 5.4375H7.16655C6.56823 5.4375 6.0832 5.92253 6.0832 6.52085V28.1878C6.0832 28.7861 6.56823 29.2711 7.16655 29.2711H28.8335C29.4318 29.2711 29.9168 28.7861 29.9168 28.1878V6.52085C29.9168 5.92253 29.4318 5.4375 28.8335 5.4375Z" stroke="#2DB324" stroke-width="2.16669" stroke-linecap="round" stroke-linejoin="round"/>
<path d="M11.4999 5.4375V29.2711" stroke="#2DB324" stroke-width="2.16669" stroke-linecap="round" stroke-linejoin="round"/>
</svg>
