<svg width="33" height="33" viewBox="0 0 33 33" fill="none" xmlns="http://www.w3.org/2000/svg">
<path d="M6.30365 25.6651V23.6515H8.9885V13.9189C8.9885 12.0842 9.55367 10.4675 10.684 9.0687C11.8134 7.67078 13.2619 6.77046 15.0294 6.36773V5.42803C15.0294 4.95818 15.1919 4.56083 15.5167 4.23596C15.8407 3.91199 16.2376 3.75 16.7075 3.75C17.1773 3.75 17.5742 3.91199 17.8982 4.23596C18.2231 4.56083 18.3855 4.95818 18.3855 5.42803V6.36773C20.153 6.77046 21.6019 7.67078 22.7323 9.0687C23.8617 10.4675 24.4264 12.0842 24.4264 13.9189V23.6515H27.1113V25.6651H6.30365ZM16.7075 29.5917C16.0362 29.5917 15.4657 29.3568 14.9959 28.8869C14.526 28.4171 14.2911 27.8466 14.2911 27.1754H19.1238C19.1238 27.8466 18.8889 28.4171 18.4191 28.8869C17.9492 29.3568 17.3787 29.5917 16.7075 29.5917ZM11.0021 23.6515H22.4128V13.9189C22.4128 12.3303 21.8588 10.9821 20.7508 9.87415C19.6438 8.7671 18.296 8.21357 16.7075 8.21357C15.1189 8.21357 13.7711 8.7671 12.6641 9.87415C11.5561 10.9821 11.0021 12.3303 11.0021 13.9189V23.6515Z" fill="#9C9DA1"/>
</svg>
