<svg width="18" height="19" viewBox="0 0 18 19" fill="none" xmlns="http://www.w3.org/2000/svg">
<path d="M7.03126 6.50799C7.33756 6.4561 7.62793 6.66234 7.67983 6.96863L8.07598 9.30704C8.12781 9.61334 7.92163 9.90367 7.61533 9.95557C7.30901 10.0075 7.01864 9.80122 6.96676 9.49492L6.57061 7.15654C6.51872 6.85025 6.72496 6.55988 7.03126 6.50799Z" fill="#212121"/>
<path d="M11.0918 6.96863C11.1436 6.66234 11.434 6.4561 11.7403 6.50799C12.0466 6.55988 12.2528 6.85025 12.2009 7.15654L11.8048 9.49492C11.7529 9.80122 11.4626 10.0075 11.1563 9.95557C10.85 9.90367 10.6437 9.61334 10.6956 9.30704L11.0918 6.96863Z" fill="#212121"/>
<path fill-rule="evenodd" clip-rule="evenodd" d="M1.68672 2.032C1.39365 1.92895 1.07254 2.08301 0.969496 2.37608C0.866454 2.66916 1.02051 2.99027 1.31359 3.09331L1.5095 3.16219C2.0102 3.33823 2.33927 3.45489 2.5814 3.5737C2.80882 3.68528 2.90907 3.7756 2.97512 3.87225C3.04281 3.97132 3.09509 4.10738 3.12458 4.37989C3.15545 4.66505 3.15621 5.03646 3.15621 5.59142V7.63265C3.15621 8.72203 3.16643 9.50758 3.26923 10.1077C3.37897 10.7485 3.59807 11.2072 4.00775 11.6393C4.45314 12.109 5.01774 12.3136 5.68992 12.4089C6.33359 12.5002 7.15098 12.5002 8.1603 12.5002H12.2146C12.7709 12.5002 13.2389 12.5002 13.6176 12.4538C14.0194 12.4047 14.3858 12.2971 14.7057 12.0365C15.0256 11.7758 15.2048 11.4386 15.3341 11.0551C15.4559 10.6934 15.5504 10.2351 15.6627 9.69028L16.0444 7.83823L16.0451 7.83478L16.0529 7.7956C16.1765 7.17694 16.2803 6.65652 16.3062 6.23794C16.3333 5.79829 16.2833 5.36478 15.9969 4.99249C15.8207 4.76342 15.5729 4.63374 15.3476 4.55455C15.1177 4.47379 14.8577 4.42706 14.5955 4.39774C14.0801 4.34014 13.4542 4.34014 12.8402 4.34015H4.25107C4.2486 4.31259 4.24593 4.28548 4.24305 4.25883C4.20275 3.88654 4.11544 3.547 3.90395 3.23752C3.69082 2.92563 3.40743 2.72587 3.07696 2.56372C2.76789 2.41207 2.37517 2.27401 1.91277 2.11147L1.68672 2.032ZM4.28121 5.46515H12.8168C13.4591 5.46515 14.0243 5.4659 14.4704 5.51577C14.6921 5.54055 14.858 5.57497 14.9746 5.61594C15.0698 5.64942 15.1021 5.67676 15.1067 5.68071C15.1528 5.74177 15.2028 5.85254 15.1833 6.16863C15.1628 6.50131 15.0754 6.9455 14.9422 7.61295L14.9419 7.61461L14.5678 9.42973C14.4467 10.0168 14.3653 10.4071 14.268 10.6957C14.1757 10.9698 14.089 11.0878 13.995 11.1644C13.9011 11.2409 13.768 11.302 13.481 11.3371C13.1786 11.3742 12.7799 11.3752 12.1805 11.3752H8.20328C7.14068 11.3752 6.40337 11.3738 5.84787 11.2951C5.31176 11.219 5.02855 11.0809 4.82414 10.8652C4.58402 10.612 4.4545 10.364 4.37808 9.91783C4.29471 9.43101 4.28121 8.74941 4.28121 7.63265V5.46515Z" fill="#212121"/>
<path fill-rule="evenodd" clip-rule="evenodd" d="M5.62512 16.625C4.69314 16.625 3.93762 15.8695 3.93762 14.9375C3.93762 14.0055 4.69314 13.25 5.62512 13.25C6.55711 13.25 7.31262 14.0055 7.31262 14.9375C7.31262 15.8695 6.55711 16.625 5.62512 16.625ZM5.06262 14.9375C5.06262 15.2481 5.31446 15.5 5.62512 15.5C5.93579 15.5 6.18762 15.2481 6.18762 14.9375C6.18762 14.6269 5.93579 14.375 5.62512 14.375C5.31446 14.375 5.06262 14.6269 5.06262 14.9375Z" fill="#212121"/>
<path fill-rule="evenodd" clip-rule="evenodd" d="M12.3751 16.625C11.4432 16.625 10.6876 15.8695 10.6876 14.9375C10.6876 14.0055 11.4432 13.25 12.3751 13.25C13.3071 13.25 14.0626 14.0055 14.0626 14.9375C14.0626 15.8695 13.3071 16.625 12.3751 16.625ZM11.8126 14.9375C11.8126 15.2481 12.0645 15.5 12.3751 15.5C12.6858 15.5 12.9376 15.2481 12.9376 14.9375C12.9376 14.6269 12.6858 14.375 12.3751 14.375C12.0645 14.375 11.8126 14.6269 11.8126 14.9375Z" fill="#212121"/>
</svg>
