<svg width="36" height="35" viewBox="0 0 36 35" fill="none" xmlns="http://www.w3.org/2000/svg">
<path opacity="0.2" d="M5.14881 10.123C5.05068 10.2916 4.99926 10.4832 4.99985 10.6783V24.0305C5.00089 24.2234 5.05276 24.4126 5.15024 24.579C5.24772 24.7454 5.38735 24.8832 5.55507 24.9784L17.4719 31.6816C17.6325 31.7734 17.815 31.8202 18 31.817L18.1219 17.3544L5.14881 10.123Z" fill="#A4A4A4"/>
<path d="M31.0001 24.0306V10.6784C30.9991 10.4855 30.9472 10.2963 30.8498 10.1299C30.7523 9.96348 30.6126 9.8257 30.4449 9.73046L18.5281 3.02725C18.3676 2.93455 18.1854 2.88574 18 2.88574C17.8146 2.88574 17.6324 2.93455 17.4719 3.02725L5.55506 9.73046C5.38735 9.8257 5.24771 9.96348 5.15023 10.1299C5.05276 10.2963 5.00088 10.4855 4.99985 10.6784V24.0306C5.00088 24.2235 5.05276 24.4127 5.15023 24.5791C5.24771 24.7455 5.38735 24.8833 5.55506 24.9785L17.4719 31.6818C17.6324 31.7745 17.8146 31.8233 18 31.8233C18.1854 31.8233 18.3676 31.7745 18.5281 31.6818L30.4449 24.9785C30.6126 24.8833 30.7523 24.7455 30.8498 24.5791C30.9472 24.4127 30.9991 24.2235 31.0001 24.0306V24.0306Z" stroke="#A4A4A4" stroke-width="2.16669" stroke-linecap="round" stroke-linejoin="round"/>
<path d="M24.6355 20.6714V13.6296L11.4999 6.38477" stroke="#A4A4A4" stroke-width="2.16669" stroke-linecap="round" stroke-linejoin="round"/>
<path d="M30.8511 10.123L18.1218 17.3544L5.14877 10.123" stroke="#A4A4A4" stroke-width="2.16669" stroke-linecap="round" stroke-linejoin="round"/>
<path d="M18.1219 17.3545L18 31.8172" stroke="#A4A4A4" stroke-width="2.16669" stroke-linecap="round" stroke-linejoin="round"/>
</svg>
