<svg width="17" height="16" viewBox="0 0 17 16" fill="none" xmlns="http://www.w3.org/2000/svg">
<path d="M1.29137 0.29126C1.20736 0.291541 1.12357 0.300004 1.0412 0.31653C1.03435 0.317906 1.0278 0.320097 1.02098 0.321583C0.731639 0.383417 0.472228 0.542557 0.285995 0.772474C0.0997622 1.00239 -0.00204 1.28919 -0.00244141 1.58507V9.34795C-0.00216052 9.43196 0.00630269 9.51575 0.0228284 9.59812C0.024205 9.60497 0.0263957 9.61152 0.0278823 9.61833C0.0897162 9.90768 0.248856 10.1671 0.478773 10.3533C0.70869 10.5396 0.995492 10.6414 1.29137 10.6418H15.5233C15.6073 10.6415 15.6911 10.633 15.7735 10.6165C15.7803 10.6151 15.7869 10.6129 15.7937 10.6114C16.083 10.5496 16.3425 10.3905 16.5287 10.1605C16.7149 9.93063 16.8167 9.64383 16.8171 9.34795V1.58507C16.8168 1.50106 16.8084 1.41727 16.7919 1.3349C16.7905 1.32805 16.7883 1.3215 16.7868 1.31469C16.725 1.02534 16.5658 0.765929 16.3359 0.579696C16.106 0.393463 15.8192 0.291661 15.5233 0.29126H1.29137ZM2.58518 1.58507H14.2295C14.2295 1.92821 14.3658 2.2573 14.6084 2.49994C14.8511 2.74257 15.1802 2.87889 15.5233 2.87889V8.05414C15.1802 8.05414 14.8511 8.19045 14.6084 8.43308C14.3658 8.67572 14.2295 9.00481 14.2295 9.34795H2.58518C2.58518 9.00481 2.44887 8.67572 2.20623 8.43308C1.9636 8.19045 1.63451 8.05414 1.29137 8.05414V2.87889C1.63451 2.87889 1.9636 2.74257 2.20623 2.49994C2.44887 2.2573 2.58518 1.92821 2.58518 1.58507ZM8.40734 2.87889C6.97832 2.87889 5.81972 4.1824 5.81972 5.78996C5.81972 6.70986 6.20635 7.52044 6.79892 8.05414H10.0158C10.6083 7.52044 10.995 6.70986 10.995 5.78996C10.995 4.1824 9.83636 2.87889 8.40734 2.87889ZM3.23209 4.8196C3.06052 4.8196 2.89598 4.88776 2.77466 5.00908C2.65334 5.1304 2.58518 5.29494 2.58518 5.46651C2.58518 5.63808 2.65334 5.80262 2.77466 5.92394C2.89598 6.04526 3.06052 6.11342 3.23209 6.11342C3.40366 6.11342 3.5682 6.04526 3.68952 5.92394C3.81084 5.80262 3.879 5.63808 3.879 5.46651C3.879 5.29494 3.81084 5.1304 3.68952 5.00908C3.5682 4.88776 3.40366 4.8196 3.23209 4.8196ZM13.5826 4.8196C13.411 4.8196 13.2465 4.88776 13.1252 5.00908C13.0038 5.1304 12.9357 5.29494 12.9357 5.46651C12.9357 5.63808 13.0038 5.80262 13.1252 5.92394C13.2465 6.04526 13.411 6.11342 13.5826 6.11342C13.7542 6.11342 13.9187 6.04526 14.04 5.92394C14.1613 5.80262 14.2295 5.63808 14.2295 5.46651C14.2295 5.29494 14.1613 5.1304 14.04 5.00908C13.9187 4.88776 13.7542 4.8196 13.5826 4.8196ZM15.5132 11.9267C15.4819 11.9274 15.4506 11.9304 15.4197 11.9356H14.8764V12.5825V13.2294C14.3338 13.2294 13.8709 13.5634 13.6786 14.0368C13.0605 13.8065 12.2869 13.5347 11.2856 13.2534C8.93562 12.5932 5.56261 11.9356 1.29137 11.9356C1.20565 11.9344 1.12054 11.9502 1.04099 11.9822C0.961442 12.0141 0.889039 12.0616 0.827991 12.1218C0.766943 12.182 0.718466 12.2537 0.685378 12.3328C0.65229 12.4119 0.635251 12.4967 0.635251 12.5825C0.635251 12.6682 0.65229 12.7531 0.685378 12.8322C0.718466 12.9113 0.766943 12.983 0.827991 13.0432C0.889039 13.1034 0.961442 13.1508 1.04099 13.1828C1.12054 13.2148 1.20565 13.2306 1.29137 13.2294C5.42991 13.2294 8.68037 13.8656 10.9356 14.4992C12.0632 14.816 12.9405 15.1317 13.5611 15.3697C13.8714 15.4888 14.1172 15.5882 14.3053 15.6616C14.3993 15.6983 14.4773 15.7283 14.553 15.7538C14.6194 15.7763 14.6647 15.8046 14.8233 15.812C14.8414 15.8136 14.8582 15.8233 14.8764 15.8233C15.5726 15.8233 16.1293 15.273 16.1639 14.5889C16.1681 14.5588 16.1703 14.5284 16.1702 14.4979V13.2294V12.5825V11.9356H15.6231C15.5868 11.9295 15.55 11.9265 15.5132 11.9267Z" fill="black"/>
</svg>
