<svg width="15" height="15" viewBox="0 0 15 15" fill="none" xmlns="http://www.w3.org/2000/svg">
<path fill-rule="evenodd" clip-rule="evenodd" d="M7.1826 9.75266e-08H7.25972C8.81035 -6.61983e-06 10.0255 -1.33629e-05 10.9737 0.127462C11.9441 0.25794 12.71 0.530221 13.3111 1.1313C13.9121 1.73237 14.1844 2.49817 14.3149 3.46865C14.4423 4.41679 14.4423 5.63199 14.4423 7.1826V7.25972C14.4423 8.81035 14.4423 10.0255 14.3149 10.9737C14.1844 11.9441 13.9121 12.71 13.3111 13.3111C12.71 13.9121 11.9441 14.1844 10.9737 14.3149C10.0255 14.4423 8.81035 14.4423 7.25972 14.4423H7.1826C5.63199 14.4423 4.41679 14.4423 3.46864 14.3149C2.49817 14.1844 1.73237 13.9121 1.1313 13.3111C0.530221 12.71 0.25794 11.9441 0.127462 10.9737C-1.33629e-05 10.0255 -6.61983e-06 8.81035 9.75266e-08 7.25972V7.1826C-6.61983e-06 5.63199 -1.33629e-05 4.41679 0.127462 3.46865C0.25794 2.49817 0.530221 1.73237 1.1313 1.1313C1.73237 0.530221 2.49817 0.25794 3.46864 0.127462C4.41679 -1.33629e-05 5.63199 -6.61983e-06 7.1826 9.75266e-08ZM3.60291 1.12608C2.74416 1.24154 2.22644 1.46112 1.84378 1.84378C1.46112 2.22644 1.24154 2.74416 1.12608 3.60291C1.00867 4.47615 1.0076 5.62362 1.0076 7.22116C1.0076 8.81868 1.00867 9.96614 1.12608 10.8394C1.24154 11.6981 1.46112 12.2159 1.84378 12.5985C2.22644 12.9812 2.74416 13.2008 3.60291 13.3162C4.47615 13.4336 5.62362 13.4347 7.22116 13.4347C8.81868 13.4347 9.96614 13.4336 10.8394 13.3162C11.6981 13.2008 12.2159 12.9812 12.5985 12.5985C12.9812 12.2159 13.2008 11.6981 13.3162 10.8394C13.4336 9.96614 13.4347 8.81868 13.4347 7.22116C13.4347 5.62362 13.4336 4.47615 13.3162 3.60291C13.2008 2.74416 12.9812 2.22644 12.5985 1.84378C12.2159 1.46112 11.6981 1.24154 10.8394 1.12608C9.96614 1.00867 8.81868 1.0076 7.22116 1.0076C5.62362 1.0076 4.47615 1.00867 3.60291 1.12608Z" fill="#212121"/>
<path d="M3.36816 4.87456C3.36816 4.59632 3.59436 4.37076 3.87339 4.37076H7.19339L6.24451 3.58226C6.03016 3.40413 6.0012 3.08645 6.17978 2.8727C6.35842 2.65894 6.67698 2.63006 6.89133 2.80819L8.91223 4.48753C9.02742 4.58325 9.09405 4.72504 9.09405 4.87456C9.09405 5.02408 9.02742 5.16587 8.91223 5.2616L6.89133 6.94096C6.67698 7.11903 6.35842 7.09015 6.17978 6.8764C6.0012 6.66266 6.03016 6.34499 6.24451 6.16685L7.19339 5.37836H3.87339C3.59436 5.37836 3.36816 5.1528 3.36816 4.87456Z" fill="#212121"/>
<path d="M3.36816 9.57767C3.36816 9.29943 3.59436 9.07386 3.87339 9.07386H7.19339L6.24451 8.28538C6.03016 8.10724 6.0012 7.78957 6.17978 7.57583C6.35842 7.36208 6.67698 7.3332 6.89133 7.51127L8.91223 9.19061C9.02742 9.28633 9.09405 9.42814 9.09405 9.57767C9.09405 9.72719 9.02742 9.869 8.91223 9.96472L6.89133 11.6441C6.67698 11.8221 6.35842 11.7933 6.17978 11.5795C6.0012 11.3658 6.03016 11.0481 6.24451 10.87L7.19339 10.0815H3.87339C3.59436 10.0815 3.36816 9.8559 3.36816 9.57767Z" fill="#212121"/>
<path d="M10.0967 11.256C10.0967 11.5343 10.3229 11.7598 10.6019 11.7598C10.8809 11.7598 11.1071 11.5343 11.1071 11.256V3.19521C11.1071 2.91697 10.8809 2.69141 10.6019 2.69141C10.3229 2.69141 10.0967 2.91697 10.0967 3.19521V11.256Z" fill="#212121"/>
</svg>
