<svg width="33" height="33" viewBox="0 0 33 33" fill="none" xmlns="http://www.w3.org/2000/svg">
<path d="M16.0541 1.33777L19.0642 4.68236L23.4122 3.34453L24.4156 7.6925L28.7636 8.69588L27.4257 13.0438L30.7703 16.054L27.4257 19.0641L28.7636 23.4121L24.4156 24.4155L23.4122 28.7634L19.0642 27.4256L16.0541 30.7702L13.044 27.4256L8.696 28.7634L7.69262 24.4155L3.34465 23.4121L4.68249 19.0641L1.33789 16.054L4.68249 13.0438L3.34465 8.69588L7.69262 7.6925L8.696 3.34453L13.044 4.68236L16.0541 1.33777Z" fill="#FF3A3A"/>
<path d="M23.1449 9.76611L14.0476 18.8634L10.3017 15.1175L8.42871 16.9904L14.0476 22.6094L25.0179 11.6391L23.1449 9.76611Z" fill="#E3F2FD"/>
</svg>
