<svg width="25" height="24" viewBox="0 0 25 24" fill="none" xmlns="http://www.w3.org/2000/svg">
<path d="M13.7642 8.05396C13.7642 7.50168 13.3165 7.05396 12.7642 7.05396C12.2119 7.05396 11.7642 7.50168 11.7642 8.05396C11.7642 8.60624 12.2119 9.05396 12.7642 9.05396C13.3165 9.05396 13.7642 8.60624 13.7642 8.05396Z" fill="#9C9DA1"/>
<path d="M12.7649 17.8171C13.1791 17.8171 13.5149 17.4813 13.5149 17.0671V11.0671C13.5149 10.6529 13.1791 10.3171 12.7649 10.3171C12.3507 10.3171 12.0149 10.6529 12.0149 11.0671V17.0671C12.0149 17.4813 12.3507 17.8171 12.7649 17.8171Z" fill="#9C9DA1"/>
<path fill-rule="evenodd" clip-rule="evenodd" d="M12.8264 1.32105H12.7116C10.4033 1.32104 8.59423 1.32103 7.18275 1.5108C5.73801 1.70504 4.59799 2.11037 3.70318 3.00519C2.80837 3.9 2.40303 5.04001 2.20879 6.48476C2.01902 7.89623 2.01903 9.70527 2.01904 12.0136V12.1284C2.01903 14.4368 2.01902 16.2458 2.20879 17.6573C2.40303 19.102 2.80837 20.2421 3.70318 21.1369C4.59799 22.0317 5.73801 22.437 7.18275 22.6313C8.59423 22.821 10.4033 22.821 12.7116 22.821H12.8264C15.1348 22.821 16.9438 22.821 18.3553 22.6313C19.8 22.437 20.9401 22.0317 21.8349 21.1369C22.7297 20.2421 23.135 19.102 23.3293 17.6573C23.519 16.2458 23.519 14.4368 23.519 12.1284V12.0136C23.519 9.70527 23.519 7.89623 23.3293 6.48476C23.135 5.04001 22.7297 3.9 21.8349 3.00519C20.9401 2.11037 19.8 1.70504 18.3553 1.5108C16.9438 1.32103 15.1348 1.32104 12.8264 1.32105ZM4.76384 4.06585C5.33349 3.49619 6.10421 3.16929 7.38262 2.99741C8.6826 2.82263 10.3908 2.82105 12.769 2.82105C15.1472 2.82105 16.8554 2.82263 18.1554 2.99741C19.4338 3.16929 20.2045 3.49619 20.7742 4.06585C21.3439 4.6355 21.6708 5.40622 21.8426 6.68463C22.0174 7.98461 22.019 9.69281 22.019 12.071C22.019 14.4492 22.0174 16.1574 21.8426 17.4574C21.6708 18.7358 21.3439 19.5065 20.7742 20.0762C20.2045 20.6459 19.4338 20.9728 18.1554 21.1446C16.8554 21.3194 15.1472 21.321 12.769 21.321C10.3908 21.321 8.6826 21.3194 7.38262 21.1446C6.10421 20.9728 5.33349 20.6459 4.76384 20.0762C4.19418 19.5065 3.86729 18.7358 3.69541 17.4574C3.52063 16.1574 3.51904 14.4492 3.51904 12.071C3.51904 9.69281 3.52063 7.98461 3.69541 6.68463C3.86729 5.40622 4.19418 4.6355 4.76384 4.06585Z" fill="#9C9DA1"/>
</svg>
