<svg width="14" height="14" viewBox="0 0 14 14" fill="none" xmlns="http://www.w3.org/2000/svg">
<path d="M1 8.23763C1 5.90389 1 4.737 1.725 4.01199C2.45001 3.28699 3.61688 3.28699 5.95064 3.28699H8.42596C10.7597 3.28699 11.9266 3.28699 12.6516 4.01199C13.3766 4.737 13.3766 5.90389 13.3766 8.23763C13.3766 10.5714 13.3766 11.7383 12.6516 12.4632C11.9266 13.1883 10.7597 13.1883 8.42596 13.1883H5.95064C3.61688 13.1883 2.45001 13.1883 1.725 12.4632C1 11.7383 1 10.5714 1 8.23763Z" stroke="#212121" stroke-width="0.928245"/>
<path d="M9.66353 3.28709C9.66353 2.12021 9.66353 1.53677 9.30102 1.17427C8.93851 0.811768 8.35508 0.811768 7.18821 0.811768C6.02134 0.811768 5.43789 0.811768 5.07539 1.17427C4.71289 1.53677 4.71289 2.12021 4.71289 3.28709" stroke="#212121" stroke-width="0.928245"/>
<path d="M10.2826 5.14361C10.2826 5.48538 10.0055 5.76244 9.66375 5.76244C9.32197 5.76244 9.04492 5.48538 9.04492 5.14361C9.04492 4.80184 9.32197 4.52478 9.66375 4.52478C10.0055 4.52478 10.2826 4.80184 10.2826 5.14361Z" fill="#212121"/>
<path d="M5.3319 5.14361C5.3319 5.48538 5.05484 5.76244 4.71307 5.76244C4.3713 5.76244 4.09424 5.48538 4.09424 5.14361C4.09424 4.80184 4.3713 4.52478 4.71307 4.52478C5.05484 4.52478 5.3319 4.80184 5.3319 5.14361Z" fill="#212121"/>
</svg>
