<svg width="47" height="47" viewBox="0 0 47 47" fill="none" xmlns="http://www.w3.org/2000/svg">
<g id="icons8-glacier 1">
<path id="Vector" d="M21.8626 3.5564C19.8418 3.5564 18.1985 5.19976 18.1985 7.22053C18.1985 9.24129 19.8418 10.8847 21.8626 10.8847C23.8834 10.8847 25.5267 9.24129 25.5267 7.22053C25.5267 5.19976 23.8834 3.5564 21.8626 3.5564ZM13.6791 4.95013C13.277 4.95196 12.9291 5.1856 12.7953 5.55843L10.3317 12.4591L10.0168 11.8293C9.851 11.4977 9.49389 11.2973 9.13297 11.3248C8.7629 11.3513 8.44691 11.5974 8.32966 11.9492L4.50629 23.4193C4.4934 23.4579 4.49955 23.4966 4.49198 23.5356C3.84337 23.6377 3.41493 23.7168 3.36304 23.727C2.86747 23.8268 2.54488 24.3085 2.64382 24.804C2.72992 25.2401 3.11238 25.5412 3.54017 25.5412C3.59971 25.5412 3.66041 25.5361 3.72087 25.5233C3.76575 25.515 8.29891 24.6251 14.5343 24.6251C15.04 24.6251 15.4504 24.2157 15.4504 23.7091C15.4504 23.2025 15.04 22.7931 14.5343 22.7931C11.2366 22.7931 8.46332 23.0272 6.48865 23.2618L9.36735 14.6275L9.65361 15.1964C9.81758 15.5244 10.1566 15.7147 10.5285 15.7028C10.894 15.6808 11.2117 15.4425 11.3354 15.0963L13.5915 8.77885L18.2396 23.9775C18.3248 24.2624 18.4712 25.1333 18.1305 25.7433C17.929 26.1033 17.5748 26.3465 17.0463 26.4876C16.5617 26.6159 15.8769 26.7471 15.0836 26.8973C11.4362 27.5897 6.47514 28.5374 6.30615 31.787C6.30254 31.8065 6.30314 31.8263 6.30079 31.846C6.29956 31.8829 6.29005 31.916 6.29005 31.9534C6.29005 31.9604 6.29348 31.9661 6.29363 31.9731C6.29391 31.9869 6.29093 32.0003 6.29184 32.0142L6.70871 38.3119C6.71054 38.3358 6.71399 38.3615 6.71765 38.3853C6.85689 39.3279 7.62823 40.106 9.00594 40.6968C9.67007 40.9808 10.4977 41.2339 11.4696 41.4501C11.6445 41.4885 12.1091 41.7907 12.416 41.9904C13.0637 42.4108 13.733 42.8452 14.4127 42.9368C14.5107 42.9506 14.6073 42.9565 14.7007 42.9565C15.3255 42.9565 15.8182 42.6832 16.1929 42.4752C16.541 42.281 16.7528 42.1716 16.9854 42.189C18.0581 42.2659 19.1918 42.3199 20.3579 42.3464C20.8233 42.3409 21.3166 42.2627 21.7892 42.1711C22.1474 42.1024 22.5165 42.0307 22.784 42.0297C23.3098 42.0526 23.7423 42.0882 24.2296 42.1496C24.8287 42.2266 25.4449 42.3033 26.1511 42.2713C26.4891 42.253 26.9066 42.4035 27.3463 42.5629C27.9188 42.769 28.5742 43.0045 29.2749 42.9422C30.0829 42.8689 30.8049 42.4902 31.4434 42.1568C31.8886 41.9241 32.3098 41.7053 32.6313 41.6558C33.2368 41.5624 33.7595 41.055 34.6334 40.1637C34.8541 39.9383 35.1787 39.6051 35.4224 39.3908C36.332 39.9862 37.5149 40.0646 38.2742 39.7486C38.8962 39.4921 39.2672 38.9739 39.2672 38.3656V31.9534C39.2672 29.1806 36.6188 29.1017 35.0359 29.055C33.0335 28.9955 32.855 28.8077 32.855 28.2893C32.855 27.1726 31.8847 26.5454 31.0301 25.9902C29.9466 25.2891 29.2332 24.7472 29.198 23.7807L32.1769 9.92926L32.5991 10.373C32.819 10.6038 33.1429 10.7073 33.4526 10.6395C33.764 10.5727 34.0181 10.3505 34.1253 10.0509L34.501 9.00249L36.0289 15.014C36.1232 15.3849 36.4368 15.658 36.8179 15.6992C37.1926 15.7413 37.5644 15.5381 37.7357 15.1964L38.022 14.6275L40.9007 23.2618C38.926 23.027 36.1527 22.7931 32.855 22.7931C32.3493 22.7931 31.939 23.2025 31.939 23.7091C31.939 24.2157 32.3493 24.6251 32.855 24.6251C39.0904 24.6251 43.6236 25.515 43.6685 25.5233C43.7289 25.5361 43.7896 25.5412 43.8492 25.5412C44.2769 25.5412 44.6594 25.2392 44.7455 24.804C44.8444 24.3085 44.5228 23.8259 44.0263 23.727C43.9744 23.7165 43.5469 23.6395 42.8991 23.5373C42.8915 23.4978 42.8979 23.4585 42.8848 23.4193L39.0615 11.9492C38.9442 11.5974 38.6264 11.3522 38.2564 11.3266C37.8991 11.2991 37.5383 11.4977 37.3725 11.8293L37.199 12.1782L35.5351 5.64073C35.4362 5.2505 35.0928 4.97115 34.6906 4.95191C34.3004 4.92352 33.9209 5.17827 33.7853 5.55843L32.9015 8.031L32.3111 7.40838C32.0775 7.16197 31.7266 7.0663 31.3986 7.15791C31.0716 7.25042 30.8224 7.51599 30.751 7.84851L28.9153 16.3808H18.1985C18.0758 16.3808 17.9601 16.4069 17.8532 16.4506L14.5343 5.59958C14.4189 5.22126 14.0739 4.95929 13.6791 4.95013ZM21.8626 5.38846C22.873 5.38846 23.6947 6.21014 23.6947 7.22053C23.6947 8.23091 22.873 9.05259 21.8626 9.05259C20.8522 9.05259 20.0305 8.23091 20.0305 7.22053C20.0305 6.21014 20.8522 5.38846 21.8626 5.38846ZM18.3917 18.2129H28.5217L27.3803 23.5159C27.3735 23.5475 27.3819 23.5775 27.3785 23.6089C27.3745 23.6434 27.3588 23.6735 27.3588 23.7091C27.3588 23.7681 27.3724 23.8181 27.3749 23.8755V23.8826C27.4652 25.8479 28.9996 26.8595 30.0335 27.5289C30.3816 27.7542 30.9634 28.1299 31.0229 28.2893C31.0229 30.768 33.5019 30.8431 34.9823 30.8871C36.6193 30.9352 37.183 31.0762 37.36 31.4864L35.2953 32.7621L31.6491 32.8676C31.4467 32.874 31.2493 32.9469 31.0927 33.077L29.2177 34.621L27.6272 34.2506C27.2369 34.1618 26.8322 34.3329 26.6288 34.6782L25.5947 36.4405L24.7306 34.6979C24.5391 34.3123 24.1043 34.1112 23.6875 34.2184L22.0666 34.6228L19.9948 33.0537C19.7685 32.8824 19.4734 32.8247 19.2004 32.9016L15.9817 33.7855H12.7023C12.4485 33.7855 12.2124 33.8896 12.0439 34.0646L11.7684 32.6905C11.6987 32.3443 11.4356 32.0681 11.0921 31.982L8.33502 31.2932C9.28386 29.8631 13.1944 29.1208 15.4253 28.6972C16.2543 28.5405 16.969 28.4036 17.5186 28.2571C18.529 27.9877 19.2974 27.4233 19.7389 26.6218C20.5084 25.2251 20.0506 23.6329 19.9912 23.4425L19.9894 23.4354L19.9876 23.4336L18.3917 18.2129ZM8.20263 33.1467L10.0848 33.6173L10.8881 37.6285C10.9687 38.0361 11.314 38.3382 11.729 38.3638C12.1412 38.3876 12.5221 38.1342 12.654 37.7394L13.3625 35.6175H16.1052C16.1876 35.6175 16.2688 35.6073 16.3485 35.5835L19.2487 34.7874L21.3098 36.3475C21.5314 36.5151 21.8151 36.5736 22.0844 36.5049L23.4173 36.1721L24.7055 38.7717C24.8548 39.0731 25.1583 39.268 25.4945 39.2799C25.8344 39.2973 26.1444 39.1175 26.3157 38.829L27.8687 36.1865L29.2445 36.5085C29.5212 36.5717 29.8155 36.5056 30.0353 36.3242L32.0177 34.6908L35.5977 34.587C35.7589 34.5824 35.9157 34.5362 36.0522 34.451L37.4351 33.5958V38.0919C37.1429 38.1276 36.5805 38.0468 36.2507 37.718C36.0437 37.5109 35.7758 37.4096 35.4689 37.3977C34.8084 37.4014 34.2516 37.9365 33.3255 38.8791C33.0122 39.1988 32.4952 39.724 32.2753 39.856C31.6817 39.9631 31.1294 40.2519 30.5935 40.5322C30.0824 40.7988 29.5547 41.077 29.1086 41.1173C28.8081 41.1512 28.3985 40.9966 27.9671 40.84C27.4037 40.6366 26.7634 40.4126 26.0617 40.4392C25.5194 40.4694 25.0054 40.3997 24.4604 40.3301C23.9346 40.2623 23.3879 40.1785 22.7733 40.1959C22.3354 40.1977 21.881 40.287 21.4404 40.3712C21.062 40.4445 20.663 40.5318 20.3973 40.5126C19.2614 40.4869 18.1576 40.4365 17.116 40.3623C16.3264 40.3055 15.7333 40.6322 15.3019 40.8722C14.9932 41.0444 14.8172 41.141 14.656 41.1209C14.3858 41.0842 13.8229 40.7201 13.4126 40.4535C12.873 40.1036 12.3642 39.7718 11.8668 39.6609C11.0066 39.4704 10.2867 39.2515 9.72696 39.0115C8.91902 38.6652 8.58308 38.3326 8.53362 38.1402L8.20263 33.1467Z" fill="#343434"/>
</g>
</svg>
