<svg width="61" height="62" viewBox="0 0 61 62" fill="none" xmlns="http://www.w3.org/2000/svg">
<g id="icons8-snow 1">
<path id="Vector" d="M27.3303 6.90137C20.3654 6.90137 14.689 12.573 14.689 19.5426C14.689 19.7495 14.7173 19.9424 14.7267 20.1446C14.7126 20.1446 14.7031 20.1446 14.689 20.1446C9.38423 20.1446 5.05762 24.4712 5.05762 29.776C5.05762 35.0808 9.38423 39.4074 14.689 39.4074C15.1217 39.4121 15.5261 39.1864 15.7472 38.8102C15.9635 38.4339 15.9635 37.9731 15.7472 37.5968C15.5261 37.2206 15.1217 36.9949 14.689 36.9996C10.6869 36.9996 7.46547 33.7781 7.46547 29.776C7.46547 25.7739 10.6869 22.5524 14.689 22.5524C15.0794 22.5524 15.4509 22.5995 15.8553 22.6653L17.5484 22.9287L17.2474 21.2733C17.1486 20.6948 17.0969 20.1164 17.0969 19.5426C17.0969 13.8757 21.6634 9.30922 27.3303 9.30922C32.447 9.30922 36.6419 13.0386 37.4132 17.9248L37.6765 19.5802L39.1814 18.8278C40.5123 18.1412 41.989 17.7367 43.5833 17.7367C48.9163 17.7367 53.2147 22.0351 53.2147 27.3681C53.2147 32.7012 48.9163 36.9996 43.5833 36.9996C43.1506 36.9949 42.7462 37.2206 42.5252 37.5968C42.3088 37.9731 42.3088 38.4339 42.5252 38.8102C42.7462 39.1864 43.1506 39.4121 43.5833 39.4074C50.219 39.4074 55.6226 34.0039 55.6226 27.3681C55.6226 20.7324 50.219 15.3289 43.5833 15.3289C42.0737 15.3289 40.6628 15.6863 39.3319 16.1942C37.8411 10.8706 33.1195 6.90137 27.3303 6.90137ZM29.0233 22.5148C28.9716 22.5242 28.9198 22.5383 28.8728 22.5524C28.3132 22.6794 27.9181 23.1826 27.9322 23.7564V24.9603H27.3303C27.2927 24.9603 27.255 24.9603 27.2174 24.9603C26.5543 24.9932 26.037 25.5575 26.0699 26.2206C26.1028 26.8837 26.6672 27.4011 27.3303 27.3681H27.9322V31.2809L24.5086 29.3245L24.8096 28.7978C25.0353 28.4122 25.0259 27.9325 24.7907 27.5563C24.5509 27.1753 24.1276 26.959 23.6809 26.9919C23.2858 27.0248 22.9378 27.2506 22.7403 27.5939L22.4393 28.1206L21.3859 27.5186C21.146 27.3775 20.8686 27.3258 20.5958 27.3681C20.0738 27.434 19.6599 27.829 19.5612 28.3463C19.4671 28.8636 19.7211 29.381 20.182 29.6255L21.2354 30.2275L20.9344 30.7542C20.6617 31.1257 20.624 31.6195 20.8357 32.0287C21.052 32.4378 21.4799 32.6871 21.9408 32.6729C22.4064 32.6588 22.8156 32.3814 23.0037 31.9581L23.3046 31.4314L26.6907 33.3878L23.3046 35.3442L23.0037 34.8174C22.7638 34.3895 22.2841 34.1543 21.7997 34.2155C21.4 34.2719 21.0567 34.5259 20.8827 34.888C20.7087 35.2501 20.7275 35.6734 20.9344 36.0214L21.2354 36.5481L20.182 37.1501C19.5988 37.484 19.3966 38.2223 19.7305 38.8055C20.0644 39.3886 20.8027 39.5908 21.3859 39.2569L22.4393 38.655L22.7403 39.1817C22.9284 39.6049 23.3376 39.8824 23.8031 39.8965C24.264 39.9106 24.692 39.6614 24.9083 39.2522C25.1199 38.8431 25.0823 38.3493 24.8096 37.9778L24.5086 37.451L27.9322 35.4947V39.4074H27.3303C27.2927 39.4074 27.255 39.4074 27.2174 39.4074C26.5543 39.4403 26.037 40.0047 26.0699 40.6678C26.1028 41.3309 26.6672 41.8482 27.3303 41.8153H27.9322V43.0192C27.9275 43.4519 28.1533 43.8563 28.5295 44.0773C28.9057 44.2937 29.3666 44.2937 29.7428 44.0773C30.1191 43.8563 30.3448 43.4519 30.3401 43.0192V41.8153H30.9421C31.3747 41.82 31.7792 41.5942 32.0002 41.218C32.2165 40.8418 32.2165 40.3809 32.0002 40.0047C31.7792 39.6285 31.3747 39.4027 30.9421 39.4074H30.3401V35.4947L33.7638 37.451L33.4628 37.9778C33.19 38.3493 33.1524 38.8431 33.364 39.2522C33.5804 39.6614 34.0083 39.9106 34.4692 39.8965C34.9348 39.8824 35.3439 39.6049 35.532 39.1817L35.833 38.655L36.8865 39.2569C37.4696 39.5908 38.208 39.3886 38.5419 38.8055C38.8758 38.2223 38.6735 37.484 38.0904 37.1501L37.0369 36.5481L37.3379 36.0214C37.5637 35.6357 37.5543 35.156 37.3191 34.7798C37.0793 34.3989 36.656 34.1826 36.2092 34.2155C35.8142 34.2484 35.4662 34.4741 35.2687 34.8174L34.9677 35.3442L31.5816 33.3878L34.9677 31.4314L35.2687 31.9581C35.4568 32.3814 35.8659 32.6588 36.3315 32.6729C36.7924 32.6871 37.2204 32.4378 37.4367 32.0287C37.6483 31.6195 37.6107 31.1257 37.3379 30.7542L37.0369 30.2275L38.0904 29.6255C38.6406 29.3574 38.8993 28.7226 38.6971 28.1441C38.4995 27.5704 37.8976 27.2365 37.3003 27.3681C37.1545 27.3917 37.0134 27.4434 36.8865 27.5186L35.833 28.1206L35.532 27.5939C35.2922 27.1659 34.8125 26.9308 34.3281 26.9919C33.9284 27.0483 33.5851 27.3023 33.4111 27.6644C33.2371 28.0265 33.2559 28.4498 33.4628 28.7978L33.7638 29.3245L30.3401 31.2809V27.3681H30.9421C31.3747 27.3728 31.7792 27.1471 32.0002 26.7709C32.2165 26.3947 32.2165 25.9338 32.0002 25.5575C31.7792 25.1813 31.3747 24.9556 30.9421 24.9603H30.3401V23.7564C30.3542 23.4083 30.2131 23.0744 29.9639 22.8393C29.7099 22.5995 29.3666 22.4819 29.0233 22.5148ZM48.5871 41.7777C48.5119 41.7824 48.4366 41.7965 48.3614 41.8153C48.0087 41.8858 47.703 42.1163 47.5337 42.4361C47.3691 42.7605 47.355 43.1368 47.4961 43.4707L48.0228 44.7875L46.7436 45.3142C46.3015 45.4459 45.9771 45.8127 45.8971 46.2642C45.8219 46.7156 46.0053 47.1718 46.3768 47.4446C46.7483 47.7126 47.2421 47.7456 47.6466 47.5339L48.9634 47.0072L49.4901 48.2864C49.6218 48.7285 49.9886 49.053 50.4401 49.1329C50.8915 49.2081 51.3477 49.0247 51.6205 48.6532C51.8885 48.2817 51.9214 47.7879 51.7098 47.3834L51.1831 46.0666L52.4623 45.5399C53.0266 45.333 53.3511 44.7499 53.2288 44.162C53.1066 43.5741 52.5704 43.1697 51.9732 43.2073C51.8274 43.2214 51.691 43.259 51.5593 43.3202L50.2425 43.8469L49.7158 42.5677C49.5418 42.0927 49.0903 41.7777 48.5871 41.7777ZM10.0614 42.9816C9.9862 42.9863 9.91095 43.0004 9.83571 43.0192C9.48299 43.0897 9.17731 43.3202 9.00801 43.64C8.84341 43.9645 8.8293 44.3407 8.97038 44.6746L9.4971 45.9914L8.21793 46.5181C7.77586 46.6498 7.45136 47.0166 7.37142 47.4681C7.29617 47.9196 7.47958 48.3757 7.85111 48.6485C8.22263 48.9166 8.71643 48.9495 9.12087 48.7379L10.4377 48.2111L10.9644 49.4903C11.0961 49.9324 11.4629 50.2569 11.9144 50.3368C12.3658 50.4121 12.822 50.2287 13.0948 49.8571C13.3628 49.4856 13.3958 48.9918 13.1841 48.5874L12.6574 47.2706L13.9366 46.7439C14.5009 46.5369 14.8254 45.9538 14.7031 45.3659C14.5809 44.7781 14.0448 44.3736 13.4475 44.4112C13.3017 44.4254 13.1653 44.463 13.0336 44.5241L11.7168 45.0508L11.1901 43.7717C11.0161 43.2967 10.5646 42.9816 10.0614 42.9816ZM30.5282 47.7973C30.453 47.802 30.3777 47.8161 30.3025 47.8349C29.9498 47.9055 29.6441 48.1359 29.4748 48.4557C29.3102 48.7802 29.2961 49.1564 29.4372 49.4903L29.9639 50.8071L28.6847 51.3338C28.2426 51.4655 27.9181 51.8323 27.8382 52.2838C27.7629 52.7353 27.9464 53.1915 28.3179 53.4642C28.6894 53.7323 29.1832 53.7652 29.5876 53.5536L30.9044 53.0269L31.4312 54.306C31.5628 54.7481 31.9297 55.0726 32.3811 55.1525C32.8326 55.2278 33.2888 55.0444 33.5615 54.6728C33.8296 54.3013 33.8625 53.8075 33.6509 53.4031L33.1242 52.0863L34.4034 51.5596C34.9677 51.3526 35.2922 50.7695 35.1699 50.1816C35.0476 49.5938 34.5115 49.1893 33.9143 49.227C33.7685 49.2411 33.6321 49.2787 33.5004 49.3398L32.1836 49.8665L31.6569 48.5874C31.4829 48.1124 31.0314 47.7973 30.5282 47.7973ZM18.4889 52.613C18.4137 52.6177 18.3384 52.6318 18.2632 52.6506C17.9105 52.7212 17.6048 52.9516 17.4355 53.2714C17.2709 53.5959 17.2568 53.9721 17.3979 54.306L17.9246 55.6228L16.6454 56.1495C16.2034 56.2812 15.8789 56.648 15.7989 57.0995C15.7237 57.551 15.9071 58.0072 16.2786 58.2799C16.6501 58.548 17.1439 58.5809 17.5484 58.3693L18.8652 57.8426L19.3919 59.1217C19.5236 59.5638 19.8904 59.8883 20.3419 59.9683C20.7933 60.0435 21.2495 59.8601 21.5223 59.4886C21.7903 59.117 21.8233 58.6232 21.6116 58.2188L21.0849 56.902L22.3641 56.3753C22.9284 56.1684 23.2529 55.5852 23.1306 54.9973C23.0084 54.4095 22.4722 54.005 21.875 54.0427C21.7292 54.0568 21.5928 54.0944 21.4611 54.1555L20.1443 54.6823L19.6176 53.4031C19.4436 52.9281 18.9921 52.613 18.4889 52.613ZM42.5675 52.613C42.4922 52.6177 42.417 52.6318 42.3418 52.6506C41.989 52.7212 41.6834 52.9516 41.5141 53.2714C41.3495 53.5959 41.3353 53.9721 41.4764 54.306L42.0032 55.6228L40.724 56.1495C40.2819 56.2812 39.9574 56.648 39.8775 57.0995C39.8022 57.551 39.9856 58.0072 40.3572 58.2799C40.7287 58.548 41.2225 58.5809 41.6269 58.3693L42.9437 57.8426L43.4704 59.1217C43.6021 59.5638 43.9689 59.8883 44.4204 59.9683C44.8719 60.0435 45.3281 59.8601 45.6008 59.4886C45.8689 59.117 45.9018 58.6232 45.6902 58.2188L45.1635 56.902L46.4426 56.3753C47.007 56.1684 47.3315 55.5852 47.2092 54.9973C47.0869 54.4095 46.5508 54.005 45.9535 54.0427C45.8078 54.0568 45.6714 54.0944 45.5397 54.1555L44.2229 54.6823L43.6962 53.4031C43.5222 52.9281 43.0707 52.613 42.5675 52.613Z" fill="#343434"/>
</g>
</svg>
