<svg width="56" height="56" viewBox="0 0 56 56" fill="none" xmlns="http://www.w3.org/2000/svg">
<g id="icons8-hurricane 1">
<path id="Vector" d="M23.7097 4.26539C23.4572 4.27271 23.2149 4.36677 23.0236 4.53176C22.8323 4.69675 22.7036 4.92259 22.6593 5.17129C22.6149 5.42 22.6576 5.67639 22.7801 5.89733C22.9026 6.11827 23.0974 6.29029 23.3318 6.38443C23.3318 6.38443 26.581 7.83786 28.8989 10.3756C21.9142 9.05655 16.1154 10.9364 12.1011 13.523C7.53647 16.4643 5.04197 20.0906 5.04197 20.0906C4.89145 20.3088 4.82489 20.5742 4.85456 20.8377C4.88423 21.1011 5.00812 21.345 5.20341 21.5244C5.39871 21.7037 5.65223 21.8064 5.91728 21.8136C6.18233 21.8208 6.44105 21.7319 6.64575 21.5634C6.64575 21.5634 9.29219 19.5429 12.5391 18.8067C8.17325 23.8501 6.99792 29.7346 7.23616 34.5395C7.50971 40.0567 9.33587 44.2373 9.33587 44.2373C9.44419 44.4852 9.64012 44.6845 9.88616 44.797C10.1322 44.9095 10.4111 44.9273 10.6694 44.847C10.9278 44.7667 11.1475 44.594 11.2865 44.3619C11.4254 44.1298 11.4739 43.8546 11.4227 43.5889C11.4227 43.5889 10.8984 40.2497 11.7727 37.0708C13.8862 43.6728 18.435 47.7007 22.7908 49.843C27.8011 52.3072 32.4564 52.6297 32.4564 52.6297C32.7176 52.6477 32.9767 52.5719 33.187 52.4158C33.3972 52.2598 33.5449 52.0338 33.6034 51.7786C33.6619 51.5234 33.6274 51.2556 33.5061 51.0236C33.3847 50.7916 33.1846 50.6104 32.9416 50.5129C32.9416 50.5129 29.7147 49.0717 27.3982 46.5517C34.1414 47.8536 39.8918 45.9765 43.9426 43.4022C48.5752 40.4581 51.2164 36.8303 51.2164 36.8303C51.3722 36.6184 51.4468 36.3576 51.4268 36.0953C51.4067 35.833 51.2932 35.5866 51.1069 35.4008C50.9206 35.2151 50.6739 35.1023 50.4115 35.0829C50.1492 35.0635 49.8886 35.1389 49.6771 35.2953C49.6771 35.2953 46.6898 37.3244 43.3071 38.0799C48.0124 32.9635 49.3301 27.0642 49.1103 22.2697C48.8579 16.7662 46.9247 12.6342 46.9247 12.6342C46.8144 12.3999 46.625 12.2121 46.3898 12.1038C46.1546 11.9955 45.8888 11.9737 45.6391 12.0422C45.3894 12.1108 45.1719 12.2652 45.0249 12.4784C44.878 12.6915 44.811 12.9497 44.8357 13.2074C44.8357 13.2074 45.0565 16.6522 43.9876 19.9038C41.9183 13.2639 37.4744 9.21443 33.2207 7.06072C28.3461 4.59262 23.8192 4.26754 23.8192 4.26754C23.7828 4.26501 23.7462 4.26429 23.7097 4.26539ZM30.0475 8.24369C30.8167 8.53598 31.4111 8.61013 32.2267 9.02304C36.6837 11.2797 41.3823 15.3642 42.7124 23.1908C42.7495 23.4081 42.8511 23.6092 43.004 23.7681C43.1569 23.9269 43.354 24.0361 43.5698 24.0815C43.7855 24.1268 44.0099 24.1063 44.2139 24.0225C44.4178 23.9387 44.5918 23.7955 44.7133 23.6116C45.569 22.3156 46.0756 20.923 46.433 19.5581C46.5998 20.5293 46.8623 21.244 46.9139 22.3706C47.1452 27.4141 45.9093 33.5838 39.7968 38.6488C39.6273 38.7896 39.504 38.9781 39.4429 39.1898C39.3819 39.4016 39.3858 39.6268 39.4543 39.8362C39.5228 40.0457 39.6527 40.2297 39.8271 40.3644C40.0015 40.4992 40.2123 40.5784 40.4323 40.5918C41.838 40.6762 43.2056 40.4811 44.4771 40.1517C43.8517 40.6372 43.5039 41.0769 42.7639 41.5472C38.4998 44.257 32.5289 46.3311 25.1847 43.8938C24.9784 43.8255 24.7566 43.8199 24.5472 43.8775C24.3378 43.9352 24.1501 44.0536 24.0079 44.2179C23.8657 44.3821 23.7754 44.5848 23.7483 44.8003C23.7212 45.0158 23.7586 45.2346 23.8557 45.4289C24.5144 46.7463 25.4155 47.8383 26.3784 48.776C25.4689 48.456 24.7394 48.351 23.7612 47.87C19.1647 45.6093 14.34 41.5213 13.0115 33.7065C12.9743 33.4892 12.8727 33.2881 12.7198 33.1292C12.5669 32.9704 12.3698 32.8612 12.154 32.8158C11.9383 32.7704 11.7139 32.791 11.51 32.8748C11.306 32.9586 11.132 33.1018 11.0105 33.2857C10.3862 34.2314 10.0409 35.2476 9.73306 36.2528C9.64815 35.5837 9.46858 35.1579 9.43249 34.43C9.18006 29.339 10.307 23.1558 15.9485 18.2313C16.1129 18.0879 16.2309 17.8987 16.2875 17.688C16.3441 17.4773 16.3367 17.2544 16.2663 17.0479C16.1958 16.8414 16.0655 16.6605 15.8919 16.5283C15.7183 16.3961 15.5093 16.3185 15.2915 16.3055C14.0272 16.2296 12.8322 16.4163 11.7104 16.6898C12.2943 16.2309 12.6002 15.8164 13.2906 15.3716C17.4736 12.6762 23.4451 10.5941 31.1038 13.0078C31.3096 13.0726 31.53 13.0754 31.7374 13.0159C31.9448 12.9563 32.1301 12.837 32.2702 12.6729C32.4103 12.5088 32.499 12.3071 32.5252 12.0929C32.5514 11.8787 32.5141 11.6615 32.4177 11.4684C31.7932 10.2194 30.9536 9.15094 30.0475 8.24369ZM28.1367 24.0517C26.7627 24.0517 25.5922 24.6065 24.8411 25.4515C24.0901 26.2965 23.7398 27.3799 23.7398 28.4486C23.7398 29.5173 24.0901 30.6008 24.8411 31.4458C25.5922 32.2907 26.7627 32.8456 28.1367 32.8456C29.5108 32.8456 30.6812 32.2907 31.4323 31.4458C32.1834 30.6008 32.5337 29.5173 32.5337 28.4486C32.5337 27.3799 32.1834 26.2965 31.4323 25.4515C30.6812 24.6065 29.5108 24.0517 28.1367 24.0517ZM28.1367 26.2502C28.9611 26.2502 29.4396 26.5197 29.7877 26.9114C30.1359 27.3031 30.3352 27.8685 30.3352 28.4486C30.3352 29.0288 30.1359 29.5942 29.7877 29.9859C29.4396 30.3775 28.9611 30.6471 28.1367 30.6471C27.3123 30.6471 26.8339 30.3775 26.4857 29.9859C26.1376 29.5942 25.9382 29.0288 25.9382 28.4486C25.9382 27.8685 26.1376 27.3031 26.4857 26.9114C26.8339 26.5197 27.3123 26.2502 28.1367 26.2502Z" fill="#343434"/>
</g>
</svg>
