<svg width="53" height="53" viewBox="0 0 53 53" fill="none" xmlns="http://www.w3.org/2000/svg">
<g id="icons8-temperature 1" clip-path="url(#clip0_2183_15731)">
<path id="Vector" d="M26.3196 0.518799C24.7165 0.518799 23.1911 0.8664 22.0011 1.72927C20.8111 2.59214 20.0382 4.02344 20.0382 5.75327V10.6606C19.9769 10.8651 19.9769 11.0777 20.0382 11.2822V29.5047C16.3005 31.6802 13.7568 35.6715 13.7568 40.3008C13.7568 47.2283 19.3921 52.8635 26.3196 52.8635C33.2471 52.8635 38.8823 47.2283 38.8823 40.3008C38.8823 35.6715 36.3387 31.6802 32.6009 29.5047V28.7849H35.7416C36.1178 28.789 36.4695 28.5927 36.6617 28.2656C36.8498 27.9384 36.8498 27.5377 36.6617 27.2105C36.4695 26.8833 36.1178 26.6871 35.7416 26.6911H32.6009V24.5974H35.7416C36.1178 24.6014 36.4695 24.4052 36.6617 24.078C36.8498 23.7508 36.8498 23.3501 36.6617 23.0229C36.4695 22.6958 36.1178 22.4995 35.7416 22.5036H32.6009V20.4098H35.7416C36.1178 20.4139 36.4695 20.2176 36.6617 19.8904C36.8498 19.5633 36.8498 19.1625 36.6617 18.8354C36.4695 18.5082 36.1178 18.3119 35.7416 18.316H32.6009V16.2222H35.7416C36.1178 16.2263 36.4695 16.03 36.6617 15.7028C36.8498 15.3757 36.8498 14.9749 36.6617 14.6478C36.4695 14.3206 36.1178 14.1243 35.7416 14.1284H32.6009V12.0346H35.7416C36.1178 12.0387 36.4695 11.8424 36.6617 11.5153C36.8498 11.1881 36.8498 10.7874 36.6617 10.4602C36.4695 10.133 36.1178 9.93675 35.7416 9.94084H32.6009V5.75327C32.6009 4.02344 31.828 2.59214 30.638 1.72927C29.448 0.8664 27.9226 0.518799 26.3196 0.518799ZM26.3196 2.61259C27.6077 2.61259 28.6914 2.92338 29.3948 3.43047C30.0982 3.93756 30.5071 4.59187 30.5071 5.75327V9.94084H22.132V5.75327C22.132 4.59187 22.5409 3.93756 23.2443 3.43047C23.9477 2.92338 25.0314 2.61259 26.3196 2.61259ZM22.132 12.0346H30.5071V14.8482C30.4458 15.0526 30.4458 15.2653 30.5071 15.4697V18.8722C30.3681 19.1625 30.3681 19.4978 30.5071 19.7882V23.0597C30.3681 23.3501 30.3681 23.6854 30.5071 23.9758V27.2473C30.3681 27.5377 30.3681 27.873 30.5071 28.1633V30.0608C30.5112 30.4452 30.7239 30.7969 31.0633 30.9769C34.4493 32.7108 36.7885 36.2277 36.7885 40.3008C36.7885 46.0955 32.1143 50.7697 26.3196 50.7697C20.5248 50.7697 15.8506 46.0955 15.8506 40.3008C15.8506 36.2277 18.1898 32.7108 21.5758 30.9769C21.9152 30.7969 22.1279 30.4452 22.132 30.0608V12.0346Z" fill="#343434"/>
</g>
<defs>
<clipPath id="clip0_2183_15731">
<rect width="52.3447" height="52.3447" fill="white" transform="translate(0.146484 0.519043)"/>
</clipPath>
</defs>
</svg>
