<svg width="27" height="26" viewBox="0 0 27 26" fill="none" xmlns="http://www.w3.org/2000/svg">
<path d="M4.57317 18.0547L3.10938 23.3968L8.57631 21.9616L4.57317 18.0547Z" fill="#2A2A2A"/>
<path d="M13.4156 2.60156C7.67222 2.60156 3.01562 7.25816 3.01562 13.0016C3.01562 18.745 7.67222 23.4016 13.4156 23.4016C19.159 23.4016 23.8156 18.745 23.8156 13.0016C23.8156 7.25816 19.159 2.60156 13.4156 2.60156ZM18.5498 16.5922C18.3357 17.1928 17.2836 17.7734 16.8121 17.8142C16.3363 17.8584 15.8926 18.0282 13.7198 17.1728C11.099 16.1406 9.44629 13.4557 9.31716 13.2824C9.18802 13.1134 8.26849 11.887 8.26849 10.6217C8.26849 9.35203 8.93409 8.73063 9.16722 8.47236C9.40469 8.2141 9.68289 8.14996 9.85622 8.14996C10.0252 8.14996 10.1986 8.14996 10.3485 8.15776C10.534 8.1621 10.7359 8.17423 10.9292 8.6015C11.1588 9.10936 11.6589 10.3834 11.723 10.5125C11.7872 10.6416 11.8322 10.795 11.743 10.964C11.658 11.1374 11.6138 11.2422 11.489 11.3956C11.3599 11.5447 11.2186 11.7302 11.1016 11.8428C10.9725 11.972 10.8399 12.1132 10.989 12.3706C11.138 12.628 11.6546 13.4713 12.4198 14.1525C13.4035 15.0313 14.2338 15.3017 14.492 15.4308C14.7503 15.56 14.8994 15.54 15.0484 15.3667C15.2018 15.1977 15.6932 14.617 15.8666 14.3588C16.0356 14.1005 16.2089 14.1447 16.4429 14.2296C16.6804 14.3146 17.9466 14.9394 18.2048 15.0686C18.4631 15.1977 18.6321 15.2618 18.6971 15.3667C18.7638 15.475 18.7638 15.9907 18.5498 16.5922Z" fill="#2A2A2A"/>
</svg>
