<svg width="32" height="33" viewBox="0 0 32 33" fill="none" xmlns="http://www.w3.org/2000/svg">
<g id="mobile-4-svgrepo-com 1">
<g id="Mobile 4">
<g id="Group">
<path id="Vector" d="M16.1178 27.1106C15.3902 27.1106 14.8003 26.5207 14.8003 25.7931C14.8003 25.0655 15.3902 24.4756 16.1178 24.4756C16.8454 24.4756 17.4353 25.0655 17.4353 25.7931C17.4353 26.5207 16.8454 27.1106 16.1178 27.1106Z" fill="black"/>
<path id="Vector_2" d="M9.89641 3.56836H22.3468C23.1734 3.61801 23.947 3.99179 24.4996 4.60851C25.0521 5.22523 25.3391 6.03507 25.298 6.86211V26.4534C25.3391 27.2804 25.0521 28.0903 24.4996 28.707C23.947 29.3237 23.1734 29.6975 22.3468 29.7471H9.89641C9.06896 29.6998 8.29393 29.3268 7.74086 28.7095C7.18778 28.0922 6.90171 27.281 6.94521 26.4534V6.86211C6.90171 6.03446 7.18778 5.22326 7.74086 4.60599C8.29393 3.98873 9.06896 3.61564 9.89641 3.56836ZM8.26271 26.4534C8.22007 26.9315 8.36769 27.4072 8.67354 27.7771C8.97939 28.1471 9.41879 28.3816 9.89641 28.4296H22.3468C22.8235 28.3793 23.2614 28.1442 23.5668 27.7748C23.8722 27.4054 24.0207 26.931 23.9805 26.4534V23.1596H8.26271V26.4534ZM8.26271 21.8421H23.9805V6.86211C24.0207 6.38449 23.8722 5.91013 23.5668 5.54071C23.2614 5.17128 22.8235 4.9362 22.3468 4.88586H9.89641C9.41879 4.93391 8.97939 5.16836 8.67354 5.53834C8.36769 5.90832 8.22007 6.38398 8.26271 6.86211V21.8421Z" fill="#FF3A3A"/>
</g>
</g>
<rect id="Rectangle 34624252" x="13.1112" y="6.11328" width="6.02287" height="1.50572" rx="0.752858" fill="black"/>
</g>
</svg>
