<svg width="29" height="29" viewBox="0 0 29 29" fill="none" xmlns="http://www.w3.org/2000/svg">
<path d="M4.56047 21.9392H2.67818C1.8465 21.9392 1.17234 21.265 1.17234 20.4334V8.38669C1.17234 7.55505 1.8465 6.88086 2.67818 6.88086H26.7715C27.6032 6.88086 28.2773 7.55505 28.2773 8.38669V20.4334C28.2773 21.265 27.6032 21.9392 26.7715 21.9392H24.8892" stroke="#FF3A3A" stroke-width="1.17856" stroke-linecap="round" stroke-linejoin="round"/>
<path d="M23.76 14.4072C23.76 13.5755 23.0858 12.9014 22.2542 12.9014H7.19584C6.36417 12.9014 5.69001 13.5755 5.69001 14.4072V26.4539C5.69001 27.2855 6.36417 27.9597 7.19584 27.9597H22.2542C23.0858 27.9597 23.76 27.2855 23.76 26.4539V14.4072Z" stroke="black" stroke-width="1.17856" stroke-linecap="round" stroke-linejoin="round"/>
<path d="M23.76 2.35935C23.76 1.52771 23.0858 0.853516 22.2542 0.853516H7.19584C6.36417 0.853516 5.69001 1.52771 5.69001 2.35935V6.87685H23.76V2.35935Z" stroke="#FF3A3A" stroke-width="1.17856" stroke-linecap="round" stroke-linejoin="round"/>
<path d="M19.9958 16.6689H9.45502" stroke="black" stroke-width="1.17856" stroke-linecap="round" stroke-linejoin="round"/>
<path d="M19.9958 24.1963H9.45502" stroke="black" stroke-width="1.17856" stroke-linecap="round" stroke-linejoin="round"/>
<path d="M19.9958 20.4297H9.45502" stroke="black" stroke-width="1.17856" stroke-linecap="round" stroke-linejoin="round"/>
</svg>
