<svg width="19" height="19" viewBox="0 0 19 19" fill="none" xmlns="http://www.w3.org/2000/svg">
<g id="shopping-cart-plus-svgrepo-com 1" clip-path="url(#clip0_9480_25938)">
<path id="Vector" d="M6.55222 17.6591C7.17002 17.6591 7.67084 17.1583 7.67084 16.5405C7.67084 15.9227 7.17002 15.4219 6.55222 15.4219C5.93442 15.4219 5.43359 15.9227 5.43359 16.5405C5.43359 17.1583 5.93442 17.6591 6.55222 17.6591Z" fill="#FF4F4F"/>
<path id="Vector_2" d="M14.3818 17.6591C14.9996 17.6591 15.5004 17.1583 15.5004 16.5405C15.5004 15.9227 14.9996 15.4219 14.3818 15.4219C13.764 15.4219 13.2632 15.9227 13.2632 16.5405C13.2632 17.1583 13.764 17.6591 14.3818 17.6591Z" fill="#FF4F4F"/>
<path id="Vector_3" d="M3.74591 2.43401C3.72056 2.30721 3.65205 2.19312 3.55206 2.11115C3.45206 2.02917 3.32676 1.98437 3.19745 1.98438H0.960205V3.103H2.73882L4.88624 13.8396C4.9116 13.9664 4.9801 14.0805 5.08009 14.1625C5.18009 14.2444 5.3054 14.2892 5.4347 14.2892H15.5023V13.1706H5.89334L5.44589 10.9334H15.5023C15.6296 10.9334 15.753 10.89 15.8523 10.8104C15.9516 10.7307 16.0207 10.6196 16.0483 10.4954L17.317 4.78093H16.1719L15.0539 9.81474H5.22216L3.74591 2.43401Z" fill="#FF4F4F"/>
<path id="Vector_4" d="M11.0285 4.22162V1.98438H9.90986V4.22162H7.67261V5.34025H9.90986V7.57749H11.0285V5.34025H13.2657V4.22162H11.0285Z" fill="#FF4F4F"/>
</g>
<defs>
<clipPath id="clip0_9480_25938">
<rect width="17.898" height="17.898" fill="white" transform="translate(0.959961 0.890625)"/>
</clipPath>
</defs>
</svg>
