<svg width="31" height="31" viewBox="0 0 31 31" fill="none" xmlns="http://www.w3.org/2000/svg">
<g id="ink-svgrepo-com 1" clip-path="url(#clip0_273_9150)">
<g id="Group">
<g id="Group_2">
<g id="Group_3">
<path id="Vector" d="M20.544 18.7459V14.3993H22.0514C22.3541 14.3993 22.5996 14.1538 22.5996 13.8511V10.4252C22.5996 10.1225 22.3541 9.8771 22.0514 9.8771H20.544V4.79512C20.544 4.2861 20.3155 3.8125 19.9171 3.49574L16.7247 0.957358C16.4322 0.72474 16.0653 0.59668 15.6916 0.59668C15.3142 0.59668 14.9445 0.727001 14.6506 0.963593L11.5022 3.49787C11.1088 3.81463 10.8831 4.28596 10.8831 4.79108V9.87716H9.37566C9.07295 9.87716 8.82751 10.1226 8.82751 10.4253V13.8512C8.82751 14.1539 9.07295 14.3993 9.37566 14.3993H10.8831V18.746C10.8831 19.7495 11.6995 20.566 12.7031 20.566H12.7288C13.1278 20.566 13.4525 20.8907 13.4525 21.2898V22.5145C13.4525 23.5181 14.269 24.3346 15.2726 24.3346H16.1548C17.1583 24.3346 17.9748 23.5181 17.9748 22.5145V21.2898C17.9748 20.8907 18.2994 20.566 18.6986 20.566H18.7243C19.7276 20.566 20.544 19.7495 20.544 18.7459ZM11.9792 4.79108C11.9793 4.61951 12.0559 4.45945 12.1896 4.35188L15.338 1.8176C15.4393 1.73606 15.5615 1.69297 15.6915 1.69297C15.8203 1.69297 15.9415 1.73531 16.0424 1.81548L19.2348 4.35386C19.3701 4.46144 19.4477 4.62232 19.4477 4.79519V5.43138H16.6007C16.298 5.43138 16.0525 5.67681 16.0525 5.97952C16.0525 6.28223 16.298 6.52766 16.6007 6.52766H19.4477V7.66965H16.6007C16.298 7.66965 16.0525 7.91508 16.0525 8.2178C16.0525 8.52051 16.298 8.76594 16.6007 8.76594H19.4477V9.87723H11.9792V4.79108ZM18.724 19.4697H18.6983C17.6948 19.4697 16.8782 20.2861 16.8782 21.2897V22.5145C16.8782 22.9135 16.5536 23.2382 16.1545 23.2382H15.2723C14.8733 23.2382 14.5486 22.9136 14.5486 22.5145V21.2897C14.5486 20.2862 13.7321 19.4697 12.7285 19.4697H12.7028C12.3038 19.4697 11.9791 19.145 11.9791 18.7459V14.3993H19.4475V18.7459H19.4477C19.4477 19.145 19.1231 19.4697 18.724 19.4697ZM11.4311 13.3031H9.92373V10.9735H11.4311H19.9959H21.5033V13.3031H19.9959H11.4311Z" fill="#FF3A3A"/>
<path id="Vector_2" d="M15.7128 25.5791C15.5661 25.5791 15.4256 25.6379 15.3226 25.7424C15.0336 26.0354 13.5923 27.5499 13.5923 28.5904C13.5923 29.7597 14.5436 30.711 15.7128 30.711C16.8821 30.711 17.8334 29.7597 17.8334 28.5904C17.8334 27.5498 16.3921 26.0354 16.1031 25.7424C16.0001 25.6379 15.8595 25.5791 15.7128 25.5791ZM15.7128 29.6147C15.1481 29.6147 14.6886 29.1553 14.6886 28.5905C14.6886 28.2799 15.1679 27.5649 15.7128 26.9358C16.2578 27.565 16.7371 28.2799 16.7371 28.5905C16.7371 29.1553 16.2776 29.6147 15.7128 29.6147Z" fill="black"/>
<path id="Vector_3" d="M26.6855 29.6191H19.4783C19.1756 29.6191 18.9302 29.8646 18.9302 30.1673C18.9302 30.47 19.1756 30.7154 19.4783 30.7154H26.6855C26.9882 30.7154 27.2337 30.47 27.2337 30.1673C27.2337 29.8646 26.9882 29.6191 26.6855 29.6191Z" fill="black"/>
<path id="Vector_4" d="M11.9482 29.6191H4.74101C4.4383 29.6191 4.19287 29.8646 4.19287 30.1673C4.19287 30.47 4.4383 30.7154 4.74101 30.7154H11.9482C12.2509 30.7154 12.4964 30.47 12.4964 30.1673C12.4964 29.8646 12.2509 29.6191 11.9482 29.6191Z" fill="black"/>
</g>
</g>
</g>
</g>
<defs>
<clipPath id="clip0_273_9150">
<rect width="30.1143" height="30.1143" fill="white" transform="translate(0.654541 0.595703)"/>
</clipPath>
</defs>
</svg>
