<svg width="18" height="19" viewBox="0 0 18 19" fill="none" xmlns="http://www.w3.org/2000/svg">
<path d="M8.99855 4.35156C7.65679 4.35156 6.56105 5.44731 6.56105 6.78906C6.56105 8.13081 7.65679 9.22656 8.99855 9.22656C10.3403 9.22656 11.436 8.13081 11.436 6.78906C11.436 5.44731 10.3403 4.35156 8.99855 4.35156ZM8.99855 5.10156C9.93497 5.10156 10.686 5.85264 10.686 6.78906C10.686 7.72549 9.93497 8.47656 8.99855 8.47656C8.06212 8.47656 7.31105 7.72549 7.31105 6.78906C7.31105 5.85264 8.06212 5.10156 8.99855 5.10156ZM3.74855 6.22656C3.1548 6.22656 2.66176 6.46272 2.34303 6.82129C2.0243 7.17986 1.87355 7.64323 1.87355 8.10156C1.87355 8.5599 2.0243 9.02327 2.34303 9.38184C2.66176 9.7404 3.1548 9.97656 3.74855 9.97656C4.3423 9.97656 4.83534 9.7404 5.15406 9.38184C5.47279 9.02327 5.62355 8.5599 5.62355 8.10156C5.62355 7.64323 5.47279 7.17986 5.15406 6.82129C4.83534 6.46272 4.3423 6.22656 3.74855 6.22656ZM14.2485 6.22656C13.6548 6.22656 13.1618 6.46272 12.843 6.82129C12.5243 7.17986 12.3735 7.64323 12.3735 8.10156C12.3735 8.5599 12.5243 9.02327 12.843 9.38184C13.1618 9.7404 13.6548 9.97656 14.2485 9.97656C14.8423 9.97656 15.3353 9.7404 15.6541 9.38184C15.9728 9.02327 16.1235 8.5599 16.1235 8.10156C16.1235 7.64323 15.9728 7.17986 15.6541 6.82129C15.3353 6.46272 14.8423 6.22656 14.2485 6.22656ZM3.74855 6.97656C4.1548 6.97656 4.41176 7.1154 4.59303 7.31934C4.7743 7.52327 4.87355 7.8099 4.87355 8.10156C4.87355 8.39323 4.7743 8.67986 4.59303 8.88379C4.41176 9.08772 4.1548 9.22656 3.74855 9.22656C3.3423 9.22656 3.08534 9.08772 2.90406 8.88379C2.72279 8.67986 2.62355 8.39323 2.62355 8.10156C2.62355 7.8099 2.72279 7.52327 2.90406 7.31934C3.08534 7.1154 3.3423 6.97656 3.74855 6.97656ZM14.2485 6.97656C14.6548 6.97656 14.9118 7.1154 15.093 7.31934C15.2743 7.52327 15.3735 7.8099 15.3735 8.10156C15.3735 8.39323 15.2743 8.67986 15.093 8.88379C14.9118 9.08772 14.6548 9.22656 14.2485 9.22656C13.8423 9.22656 13.5853 9.08772 13.4041 8.88379C13.2228 8.67986 13.1235 8.39323 13.1235 8.10156C13.1235 7.8099 13.2228 7.52327 13.4041 7.31934C13.5853 7.1154 13.8423 6.97656 14.2485 6.97656ZM8.99855 10.3516C7.86754 10.3516 6.80787 10.7598 5.98317 11.4553C5.35101 10.9937 4.57366 10.7266 3.74855 10.7266C2.13055 10.7266 0.68989 11.7496 0.185314 13.2659L0.0600699 13.6409C-0.197428 14.415 0.40694 15.2266 1.22389 15.2266H2.99855C3.04824 15.2273 3.09757 15.2181 3.14369 15.1996C3.1898 15.181 3.23177 15.1535 3.26716 15.1186C3.30255 15.0837 3.33065 15.0422 3.34983 14.9963C3.36901 14.9505 3.37889 14.9013 3.37889 14.8516C3.37889 14.8019 3.36901 14.7527 3.34983 14.7068C3.33065 14.661 3.30255 14.6194 3.26716 14.5845C3.23177 14.5496 3.1898 14.5221 3.14369 14.5036C3.09757 14.485 3.04824 14.4759 2.99855 14.4766H1.22389C0.885836 14.4766 0.670982 14.1818 0.771984 13.8782L0.896496 13.5024C1.29792 12.2962 2.44604 11.4766 3.74855 11.4766C4.36997 11.4766 4.95492 11.6658 5.44191 11.9922C5.05211 12.4482 4.74605 12.9832 4.55201 13.5779L4.39235 14.0657C4.08824 14.9979 4.79818 15.9766 5.77882 15.9766H12.2183C13.1989 15.9766 13.9086 14.998 13.604 14.0657L13.4451 13.5779C13.2512 12.9831 12.945 12.4482 12.5552 11.9922C13.0422 11.6658 13.6271 11.4766 14.2485 11.4766C15.5511 11.4766 16.6992 12.2962 17.1006 13.5024L17.2251 13.8782C17.3261 14.1818 17.1113 14.4766 16.7732 14.4766H14.9985C14.9489 14.4759 14.8995 14.485 14.8534 14.5036C14.8073 14.5221 14.7653 14.5496 14.7299 14.5845C14.6945 14.6194 14.6664 14.661 14.6473 14.7068C14.6281 14.7527 14.6182 14.8019 14.6182 14.8516C14.6182 14.9013 14.6281 14.9505 14.6473 14.9963C14.6664 15.0422 14.6945 15.0837 14.7299 15.1186C14.7653 15.1535 14.8073 15.181 14.8534 15.1996C14.8995 15.2181 14.9489 15.2273 14.9985 15.2266H16.7732C17.5902 15.2266 18.1945 14.415 17.937 13.6409L17.8118 13.2659C17.3072 11.7496 15.8665 10.7266 14.2485 10.7266C13.4234 10.7266 12.6461 10.9937 12.0139 11.4553C11.1892 10.7599 10.1296 10.3516 8.99855 10.3516ZM8.99855 11.1016C10.6996 11.1016 12.2045 12.1938 12.7317 13.8108L12.8914 14.2986C13.0443 14.7666 12.7106 15.2266 12.2183 15.2266H5.77882C5.28647 15.2266 4.95307 14.7666 5.10572 14.2986L5.26466 13.8108C5.79227 12.1937 7.2975 11.1016 8.99855 11.1016Z" fill="black"/>
</svg>
