<svg xmlns="http://www.w3.org/2000/svg" width="39" height="38" viewBox="0 0 39 38" fill="none">
<g clip-path="url(#clip0_563_8583)">
<path d="M32.2444 34.6694C33.1147 34.6694 33.8203 33.9638 33.8203 33.0935C33.8203 32.2231 33.1147 31.5176 32.2444 31.5176C31.374 31.5176 30.6685 32.2231 30.6685 33.0935C30.6685 33.9638 31.374 34.6694 32.2444 34.6694Z" stroke="#212121" stroke-width="2.52146" stroke-linecap="round" stroke-linejoin="round"/>
<path d="M14.9094 34.6694C15.7798 34.6694 16.4853 33.9638 16.4853 33.0935C16.4853 32.2231 15.7798 31.5176 14.9094 31.5176C14.0391 31.5176 13.3335 32.2231 13.3335 33.0935C13.3335 33.9638 14.0391 34.6694 14.9094 34.6694Z" stroke="#212121" stroke-width="2.52146" stroke-linecap="round" stroke-linejoin="round"/>
<path d="M2.30176 1.57617H8.60542L12.8289 22.6777C12.973 23.4032 13.3677 24.055 13.9439 24.5188C14.5201 24.9827 15.2411 25.2291 15.9807 25.2149H31.2986C32.0382 25.2291 32.7592 24.9827 33.3354 24.5188C33.9116 24.055 34.3063 23.4032 34.4504 22.6777L36.9719 9.45575H10.1813" stroke="#212121" stroke-width="2.52146" stroke-linecap="round" stroke-linejoin="round"/>
</g>
<defs>
<clipPath id="clip0_563_8583">
<rect width="37.822" height="37.822" fill="white" transform="translate(0.726074)"/>
</clipPath>
</defs>
</svg>