<svg width="17" height="18" viewBox="0 0 13 14" fill="none" xmlns="http://www.w3.org/2000/svg">
<path d="M10.6934 1.16699H2.18629C1.55959 1.16699 1.052 1.67459 1.052 2.30128C1.052 2.92797 1.55959 3.43556 2.18629 3.43556H7.29057" stroke="black" stroke-width="1.13429" stroke-miterlimit="10" stroke-linecap="round" stroke-linejoin="round"/>
<path d="M11.8277 2.86841H1.61915L0.484863 2.30127V11.3756C0.484863 12.3153 1.24654 13.077 2.18629 13.077H11.8277C12.4544 13.077 12.962 12.5694 12.962 11.9427V4.0027C12.962 3.37601 12.4544 2.86841 11.8277 2.86841ZM10.6934 9.10698C10.0667 9.10698 9.55915 8.59939 9.55915 7.9727C9.55915 7.346 10.0667 6.83841 10.6934 6.83841C11.3201 6.83841 11.8277 7.346 11.8277 7.9727C11.8277 8.59939 11.3201 9.10698 10.6934 9.10698Z" fill="black"/>
</svg>
