<svg width="18" height="15" viewBox="0 0 18 15" fill="none" xmlns="http://www.w3.org/2000/svg">
<path fill-rule="evenodd" clip-rule="evenodd" d="M6.87631 0.265625H10.1323C11.5872 0.26561 12.7396 0.265602 13.6414 0.386861C14.5696 0.511644 15.3209 0.774572 15.9134 1.36702C16.4501 1.90384 16.7171 2.57185 16.8551 3.38568C16.956 3.97979 16.9927 4.68279 17.0064 5.50992C17.0119 5.54226 17.0147 5.57548 17.0147 5.60938C17.0147 5.63732 17.0128 5.66479 17.009 5.69171C17.0119 5.91844 17.0133 6.1542 17.014 6.3993C17.015 6.72721 16.7499 6.99384 16.422 6.99479C16.0941 6.99574 15.8275 6.73069 15.8265 6.40278C15.8263 6.33518 15.826 6.26868 15.8257 6.20313H1.18297C1.18147 6.51061 1.1814 6.8397 1.1814 7.19271C1.1814 8.70226 1.18266 9.77473 1.29204 10.5883C1.39912 11.3847 1.59994 11.8437 1.93498 12.1787C2.27003 12.5137 2.72891 12.7146 3.5254 12.8216C4.33897 12.931 5.41141 12.9323 6.92098 12.9323H8.10848C8.43639 12.9323 8.70223 13.1981 8.70223 13.526C8.70223 13.854 8.43639 14.1198 8.10848 14.1198H6.87632C5.42143 14.1198 4.26905 14.1198 3.36717 13.9986C2.43901 13.8737 1.68775 13.6108 1.0953 13.0184C0.502844 12.4259 0.239915 11.6747 0.115133 10.7465C-0.00612674 9.84464 -0.00611879 8.69228 -0.00610296 7.23736V7.14806C-0.00611087 6.62413 -0.00611084 6.13948 -0.000450423 5.69163C-0.00417917 5.66471 -0.00610296 5.63724 -0.00610296 5.60938C-0.00610296 5.57546 -0.00326092 5.54222 0.00220158 5.50986C0.0141953 4.79167 0.0435108 4.17159 0.115133 3.6389C0.239915 2.71074 0.502844 1.95948 1.0953 1.36702C1.68775 0.774572 2.43901 0.511644 3.36717 0.386861C4.26905 0.265602 5.42142 0.26561 6.87631 0.265625ZM1.20204 5.01563H15.8065C15.7876 4.44973 15.7518 3.98155 15.6844 3.58433C15.5713 2.91784 15.3784 2.51152 15.0736 2.20671C14.7386 1.87167 14.2797 1.67085 13.4833 1.56377C12.6697 1.45438 11.5972 1.45313 10.0876 1.45313H6.92098C5.41141 1.45313 4.33897 1.45438 3.5254 1.56377C2.72891 1.67085 2.27003 1.87167 1.93498 2.20671C1.59994 2.54175 1.39912 3.00064 1.29204 3.79713C1.24463 4.14981 1.21753 4.55113 1.20204 5.01563ZM11.2751 8.18229C11.6031 8.18229 11.8689 8.44813 11.8689 8.77604V12.0926L12.4387 11.5229C12.6705 11.291 13.0464 11.291 13.2783 11.5229C13.5102 11.7548 13.5102 12.1307 13.2783 12.3625L11.695 13.9459C11.4631 14.1777 11.0872 14.1777 10.8553 13.9459L9.27199 12.3625C9.04011 12.1307 9.04011 11.7548 9.27199 11.5229C9.50387 11.291 9.87976 11.291 10.1116 11.5229L10.6814 12.0926V8.77604C10.6814 8.44813 10.9472 8.18229 11.2751 8.18229ZM14.4178 8.35622C14.6497 8.12434 15.0256 8.12434 15.2575 8.35622L16.8408 9.93956C17.0727 10.1714 17.0727 10.5473 16.8408 10.7792C16.6089 11.0111 16.233 11.0111 16.0012 10.7792L15.4314 10.2095V13.526C15.4314 13.854 15.1656 14.1198 14.8376 14.1198C14.5097 14.1198 14.2439 13.854 14.2439 13.526V10.2095L13.6741 10.7792C13.4423 11.0111 13.0664 11.0111 12.8345 10.7792C12.6026 10.5473 12.6026 10.1714 12.8345 9.93956L14.4178 8.35622ZM3.16056 10.3594C3.16056 10.0315 3.4264 9.76563 3.75431 9.76563H6.92098C7.24889 9.76563 7.51473 10.0315 7.51473 10.3594C7.51473 10.6873 7.24889 10.9531 6.92098 10.9531H3.75431C3.4264 10.9531 3.16056 10.6873 3.16056 10.3594Z" fill="#212121"/>
</svg>
