<svg width="13" height="14" viewBox="0 0 13 14" fill="none" xmlns="http://www.w3.org/2000/svg">
<path fill-rule="evenodd" clip-rule="evenodd" d="M0.0185548 3.3956C0.0185548 1.52697 0.0374514 0.904297 2.37145 0.904297C4.70545 0.904297 4.72435 1.52697 4.72435 3.3956C4.72435 5.26423 4.73179 5.8869 2.37145 5.8869C0.0111109 5.8869 0.0185548 5.26423 0.0185548 3.3956Z" fill="#212121"/>
<path fill-rule="evenodd" clip-rule="evenodd" d="M7.41211 3.3956C7.41211 1.52697 7.43101 0.904297 9.76501 0.904297C12.099 0.904297 12.1179 1.52697 12.1179 3.3956C12.1179 5.26423 12.1253 5.8869 9.76501 5.8869C7.40467 5.8869 7.41211 5.26423 7.41211 3.3956Z" fill="#212121"/>
<path fill-rule="evenodd" clip-rule="evenodd" d="M0.0185548 11.2242C0.0185548 9.35558 0.0374514 8.73291 2.37145 8.73291C4.70545 8.73291 4.72435 9.35558 4.72435 11.2242C4.72435 13.0928 4.73179 13.7155 2.37145 13.7155C0.0111109 13.7155 0.0185548 13.0928 0.0185548 11.2242Z" fill="#212121"/>
<path fill-rule="evenodd" clip-rule="evenodd" d="M7.41211 11.2242C7.41211 9.35558 7.43101 8.73291 9.76501 8.73291C12.099 8.73291 12.1179 9.35558 12.1179 11.2242C12.1179 13.0928 12.1253 13.7155 9.76501 13.7155C7.40467 13.7155 7.41211 13.0928 7.41211 11.2242Z" fill="#212121"/>
</svg>


