<svg width="15" height="15" viewBox="0 0 15 15" fill="none" xmlns="http://www.w3.org/2000/svg">
<path fill-rule="evenodd" clip-rule="evenodd" d="M7.1826 0.0190431C5.63199 0.0190363 4.41679 0.0190296 3.46865 0.146505C2.49817 0.276983 1.73237 0.549264 1.1313 1.15034C0.530221 1.75142 0.25794 2.51721 0.127462 3.48769C-1.33672e-05 4.43583 -6.61983e-06 5.65102 9.75262e-08 7.20165V7.27876C-6.61983e-06 8.8294 -1.33672e-05 10.0446 0.127462 10.9927C0.25794 11.9632 0.530221 12.729 1.1313 13.3301C1.73237 13.9312 2.49817 14.2034 3.46865 14.3339C4.41679 14.4614 5.63199 14.4614 7.1826 14.4614H7.25972C8.81035 14.4614 10.0255 14.4614 10.9737 14.3339C11.9441 14.2034 12.71 13.9312 13.3111 13.3301C13.9121 12.729 14.1844 11.9632 14.3149 10.9927C14.4423 10.0446 14.4423 8.8294 14.4423 7.27876V7.20165C14.4423 5.65103 14.4423 4.43583 14.3149 3.48769C14.1844 2.51721 13.9121 1.75142 13.3111 1.15034C12.71 0.549264 11.9441 0.276983 10.9737 0.146505C10.0255 0.0190296 8.81035 0.0190363 7.25972 0.0190431H7.1826ZM6.71736 1.02683C5.37811 1.02825 4.3815 1.04044 3.60291 1.14512C2.74415 1.26058 2.22643 1.48016 1.84378 1.86282C1.46112 2.24548 1.24154 2.7632 1.12608 3.62195C1.0214 4.40055 1.0092 5.39715 1.00779 6.7364H3.80455C3.56879 6.44191 3.39264 6.09456 3.29658 5.71034C2.93502 4.26408 4.24504 2.95406 5.6913 3.31563C6.07551 3.41168 6.42287 3.58783 6.71736 3.82359V1.02683ZM1.00779 7.744C1.0092 9.08324 1.0214 10.0798 1.12608 10.8584C1.24154 11.7172 1.46112 12.2349 1.84378 12.6176C2.22643 13.0003 2.74415 13.2199 3.60291 13.3353C4.3815 13.44 5.37811 13.4521 6.71736 13.4536V8.6667C6.19367 9.7128 5.11193 10.4309 3.86248 10.4309C3.58424 10.4309 3.35868 10.2054 3.35868 9.92715C3.35868 9.64891 3.58424 9.42334 3.86248 9.42334C4.8948 9.42334 5.75977 8.70687 5.98718 7.744H5.90127H5.89509H1.00779ZM7.72496 13.4536C9.0642 13.4521 10.0608 13.44 10.8394 13.3353C11.6981 13.2199 12.2159 13.0003 12.5985 12.6176C12.9812 12.2349 13.2008 11.7172 13.3162 10.8584C13.4209 10.0798 13.4331 9.08324 13.4345 7.744H8.54723H8.54105H8.45514C8.68259 8.70687 9.54751 9.42334 10.5798 9.42334C10.8581 9.42334 11.0836 9.64891 11.0836 9.92715C11.0836 10.2054 10.8581 10.4309 10.5798 10.4309C9.33041 10.4309 8.24865 9.7128 7.72496 8.6667V13.4536ZM13.4345 6.7364H10.6378C10.8735 6.44191 11.0497 6.09456 11.1458 5.71034C11.5073 4.26408 10.1973 2.95406 8.75104 3.31563C8.36681 3.41168 8.01945 3.58783 7.72496 3.82359V1.02683C9.0642 1.02825 10.0608 1.04044 10.8394 1.14512C11.6981 1.26058 12.2159 1.48016 12.5985 1.86282C12.9812 2.24548 13.2008 2.7632 13.3162 3.62195C13.4209 4.40055 13.4331 5.39715 13.4345 6.7364ZM7.72496 6.7364V5.91628C7.72678 5.14834 8.25006 4.47948 8.99542 4.29314C9.70369 4.11607 10.3453 4.75766 10.1682 5.46596C9.98193 6.21104 9.31355 6.73418 8.54596 6.7364H7.72496ZM6.71736 5.9152C6.71507 5.14771 6.19193 4.4794 5.44692 4.29314C4.73861 4.11607 4.09702 4.75766 4.2741 5.46596C4.46037 6.21104 5.12879 6.73418 5.89636 6.7364H6.71736V5.9152Z" fill="#212121"/>
</svg>
