<svg width="15" height="16" viewBox="0 0 15 16" fill="none" xmlns="http://www.w3.org/2000/svg">
<path d="M7.81275 5.61328C7.81275 5.28139 7.5437 5.01233 7.21179 5.01233C6.87989 5.01233 6.61084 5.28139 6.61084 5.61328C6.61084 5.94518 6.87989 6.21424 7.21179 6.21424C7.5437 6.21424 7.81275 5.94518 7.81275 5.61328Z" fill="#212121"/>
<path d="M7.21195 11.48C7.46086 11.48 7.66266 11.2782 7.66266 11.0293V7.42356C7.66266 7.17464 7.46086 6.97284 7.21195 6.97284C6.96303 6.97284 6.76123 7.17464 6.76123 7.42356V11.0293C6.76123 11.2782 6.96303 11.48 7.21195 11.48Z" fill="#212121"/>
<path fill-rule="evenodd" clip-rule="evenodd" d="M7.24915 1.56219H7.18016C5.79294 1.56219 4.70578 1.56218 3.85755 1.67623C2.98933 1.79296 2.30423 2.03655 1.76649 2.57429C1.22875 3.11203 0.985155 3.79713 0.868426 4.66535C0.754383 5.51358 0.754389 6.60073 0.754395 7.98796V8.05695C0.754389 9.44419 0.754383 10.5313 0.868426 11.3796C0.985155 12.2478 1.22875 12.9329 1.76649 13.4706C2.30423 14.0084 2.98933 14.2519 3.85755 14.3687C4.70578 14.4827 5.79293 14.4827 7.18016 14.4827H7.24915C8.63639 14.4827 9.72352 14.4827 10.5718 14.3687C11.44 14.2519 12.1251 14.0084 12.6628 13.4706C13.2006 12.9329 13.4441 12.2478 13.5609 11.3796C13.6749 10.5313 13.6749 9.44419 13.6749 8.05695V7.98796C13.6749 6.60073 13.6749 5.51358 13.5609 4.66535C13.4441 3.79713 13.2006 3.11203 12.6628 2.57429C12.1251 2.03655 11.44 1.79296 10.5718 1.67623C9.72352 1.56218 8.63639 1.56219 7.24915 1.56219ZM2.40389 3.21169C2.74623 2.86935 3.2094 2.67291 3.97766 2.56962C4.75889 2.46458 5.78545 2.46363 7.21465 2.46363C8.64384 2.46363 9.67039 2.46458 10.4516 2.56962C11.2199 2.67291 11.683 2.86935 12.0254 3.21169C12.3678 3.55403 12.5642 4.0172 12.6675 4.78546C12.7725 5.56669 12.7735 6.59325 12.7735 8.02245C12.7735 9.45164 12.7725 10.4782 12.6675 11.2594C12.5642 12.0277 12.3678 12.4908 12.0254 12.8332C11.683 13.1756 11.2199 13.372 10.4516 13.4753C9.67039 13.5803 8.64384 13.5813 7.21465 13.5813C5.78545 13.5813 4.75889 13.5803 3.97766 13.4753C3.2094 13.372 2.74623 13.1756 2.40389 12.8332C2.06155 12.4908 1.86511 12.0277 1.76182 11.2594C1.65678 10.4782 1.65583 9.45164 1.65583 8.02245C1.65583 6.59325 1.65678 5.56669 1.76182 4.78546C1.86511 4.0172 2.06155 3.55403 2.40389 3.21169Z" fill="#212121"/>
</svg>
