<svg width="34" height="34" viewBox="0 0 34 34" fill="none" xmlns="http://www.w3.org/2000/svg">
<path d="M17.0845 0.421875C7.84399 0.421875 0.352051 7.91382 0.352051 17.1543C0.352051 26.3948 7.84399 33.8867 17.0845 33.8867C26.325 33.8867 33.8169 26.3948 33.8169 17.1543C33.8169 7.91382 26.325 0.421875 17.0845 0.421875ZM17.0845 27.6121C15.9299 27.6121 14.9929 26.675 14.9929 25.5205C14.9929 24.366 15.9299 23.429 17.0845 23.429C18.239 23.429 19.176 24.366 19.176 25.5205C19.176 26.675 18.239 27.6121 17.0845 27.6121ZM19.968 17.8515C19.045 18.7034 18.4788 19.2626 18.4788 19.943H15.6901C15.6901 18.0063 17.0134 16.7848 18.0759 15.8018C19.19 14.7727 19.8732 14.0853 19.8732 12.9712C19.8732 11.4332 18.6225 10.1825 17.0845 10.1825C15.5465 10.1825 14.2957 11.4332 14.2957 12.9712H11.507C11.507 9.89521 14.0085 7.39372 17.0845 7.39372C20.1605 7.39372 22.6619 9.89521 22.6619 12.9712C22.6619 15.3625 21.1686 16.7416 19.968 17.8515Z" fill="#FF4F4F"/>
</svg>
