<svg width="19" height="20" viewBox="0 0 15 16" fill="none" xmlns="http://www.w3.org/2000/svg">
<g id="shield-minus-svgrepo-com 2">
<path id="Vector" d="M9.36987 8.32812C9.62875 8.32812 9.83862 8.11825 9.83862 7.85938C9.83862 7.6005 9.62875 7.39062 9.36987 7.39062H5.61987C5.36099 7.39062 5.15112 7.6005 5.15112 7.85938C5.15112 8.11825 5.36099 8.32812 5.61987 8.32812H9.36987Z" fill="black"/>
<path id="Vector_2" fill-rule="evenodd" clip-rule="evenodd" d="M7.49732 1.14062C6.91138 1.14062 6.35188 1.33224 5.44943 1.64132L4.99478 1.79696C4.06895 2.11387 3.35444 2.35845 2.84296 2.56624C2.5853 2.67091 2.3638 2.77229 2.18543 2.87588C2.01378 2.97556 1.84158 3.0999 1.72458 3.26659C1.60894 3.43135 1.54915 3.6339 1.51157 3.82889C1.47251 4.0316 1.44895 4.27477 1.43375 4.55397C1.40356 5.10835 1.40356 5.86782 1.40356 6.85287V7.854C1.40356 11.6671 4.28358 13.4953 5.99627 14.2435L6.01321 14.2509C6.22558 14.3437 6.42519 14.4309 6.65457 14.4896C6.89675 14.5516 7.154 14.5781 7.49732 14.5781C7.84063 14.5781 8.09788 14.5516 8.34007 14.4896C8.56944 14.4309 8.76907 14.3437 8.98138 14.2509L8.99838 14.2435C10.7111 13.4953 13.5911 11.6671 13.5911 7.854V6.853C13.5911 5.86788 13.5911 5.10837 13.5609 4.55397C13.5457 4.27477 13.5221 4.0316 13.4831 3.82889C13.4455 3.6339 13.3857 3.43135 13.2701 3.26659C13.1531 3.0999 12.9809 2.97556 12.8092 2.87588C12.6308 2.77229 12.4093 2.67091 12.1517 2.56624C11.6402 2.35845 10.9257 2.11387 9.99982 1.79696L9.54519 1.64132C8.64275 1.33224 8.08325 1.14062 7.49732 1.14062ZM5.6727 2.55581C6.68175 2.2104 7.08625 2.07812 7.49732 2.07812C7.90838 2.07812 8.31288 2.2104 9.32194 2.55581L9.67994 2.67836C10.6253 3.00196 11.3148 3.23816 11.7988 3.43481C12.0404 3.53296 12.2155 3.61522 12.3384 3.68658C12.3991 3.72181 12.4409 3.75089 12.4688 3.77358C12.4924 3.79281 12.5014 3.8037 12.5028 3.8053C12.5039 3.80725 12.5118 3.82023 12.5227 3.85096C12.5352 3.88603 12.549 3.93631 12.5625 4.00629C12.5898 4.14793 12.6105 4.34251 12.6248 4.60495C12.6534 5.13069 12.6536 5.86458 12.6536 6.86981V7.854C12.6536 11.0884 10.2349 12.6803 8.62307 13.3844C8.39088 13.4858 8.25682 13.5432 8.10757 13.5814C7.965 13.6179 7.79107 13.6406 7.49732 13.6406C7.20357 13.6406 7.02963 13.6179 6.88707 13.5814C6.73782 13.5432 6.60375 13.4858 6.37157 13.3844C4.75975 12.6803 2.34106 11.0884 2.34106 7.854V6.86981C2.34106 5.86458 2.34124 5.13069 2.36986 4.60495C2.38415 4.34251 2.40484 4.14793 2.43213 4.00629C2.44562 3.93631 2.45946 3.88603 2.47196 3.85096C2.4829 3.82025 2.49066 3.80727 2.49187 3.80531C2.49316 3.80372 2.50219 3.79282 2.52586 3.77358C2.55378 3.75089 2.59558 3.72181 2.65625 3.68658C2.77913 3.61522 2.95419 3.53296 3.19581 3.43481C3.67988 3.23816 4.36932 3.00196 5.31469 2.67836L5.6727 2.55581Z" fill="black"/>
</g>
</svg>
