<svg width="14" height="16" viewBox="0 0 14 16" fill="none" xmlns="http://www.w3.org/2000/svg">
<g clip-path="url(#clip0_10887_13644)">
<path d="M7.00164 1.46094C6.3093 1.46094 5.69023 1.68008 5.23414 2.05156C4.85461 2.35977 4.58773 2.78164 4.50789 3.26094H0.841641C0.381172 3.26094 0.00164063 3.66758 0.00164063 4.16094V9.20469C-0.000546875 9.22344 -0.000546875 9.24219 0.00164063 9.26094V14.3609C0.00164063 14.8543 0.381172 15.2609 0.841641 15.2609H13.1616C13.6221 15.2609 14.0016 14.8543 14.0016 14.3609V9.23281C14.0016 9.22344 14.0016 9.21406 14.0016 9.20469V4.16094C14.0016 3.66758 13.6221 3.26094 13.1616 3.26094H9.49539C9.41555 2.78164 9.14867 2.35977 8.76914 2.05156C8.31305 1.68008 7.69398 1.46094 7.00164 1.46094ZM7.00164 2.06094C7.58461 2.06094 8.08336 2.24961 8.42789 2.52969C8.68383 2.73828 8.85555 2.98437 8.92664 3.26094H5.07664C5.14773 2.98437 5.31945 2.73828 5.57539 2.52969C5.91992 2.24961 6.41867 2.06094 7.00164 2.06094ZM0.841641 3.86094H13.1616C13.3202 3.86094 13.4416 3.99102 13.4416 4.16094V9.20469C13.4405 9.21758 13.4405 9.2293 13.4416 9.24219V9.26094C13.4416 9.43086 13.3202 9.56094 13.1616 9.56094H8.40164C8.40164 9.06758 8.02211 8.66094 7.56164 8.66094H6.44164C5.98117 8.66094 5.60164 9.06758 5.60164 9.56094H0.841641C0.683047 9.56094 0.561641 9.43086 0.561641 9.26094C0.563828 9.24219 0.563828 9.22344 0.561641 9.20469V4.16094C0.561641 3.99102 0.683047 3.86094 0.841641 3.86094ZM6.44164 9.26094H7.56164C7.72023 9.26094 7.84164 9.39102 7.84164 9.56094V9.80469C7.84164 9.81406 7.84164 9.82344 7.84164 9.83281V9.86094C7.83945 9.8832 7.83945 9.9043 7.84164 9.92656V10.1609C7.84164 10.3309 7.72023 10.4609 7.56164 10.4609H6.44164C6.28305 10.4609 6.16164 10.3309 6.16164 10.1609V9.91719C6.1693 9.87734 6.1693 9.83516 6.16164 9.79531V9.56094C6.16164 9.39102 6.28305 9.26094 6.44164 9.26094ZM0.561641 10.1047C0.650234 10.1387 0.743203 10.1609 0.841641 10.1609H5.60164C5.60164 10.6543 5.98117 11.0609 6.44164 11.0609H7.56164C8.02211 11.0609 8.40164 10.6543 8.40164 10.1609H13.1616C13.2601 10.1609 13.353 10.1387 13.4416 10.1047V14.3609C13.4416 14.5309 13.3202 14.6609 13.1616 14.6609H0.841641C0.683047 14.6609 0.561641 14.5309 0.561641 14.3609V10.1047Z" fill="black"/>
</g>
<defs>
<clipPath id="clip0_10887_13644">
<rect width="14" height="15" fill="white" transform="translate(0 0.859375)"/>
</clipPath>
</defs>
</svg>
