<svg width="16" height="16" viewBox="0 0 16 16" fill="none" xmlns="http://www.w3.org/2000/svg">
<g clip-path="url(#clip0_3_12947)">
<path fill-rule="evenodd" clip-rule="evenodd" d="M3.4917 9.66545C3.4917 9.3899 3.71503 9.16663 3.99053 9.16663H9.31136C9.58684 9.16663 9.81019 9.3899 9.81019 9.66545C9.81019 9.94094 9.58684 10.1643 9.31136 10.1643H3.99053C3.71503 10.1643 3.4917 9.94094 3.4917 9.66545Z" fill="#212121"/>
<path fill-rule="evenodd" clip-rule="evenodd" d="M3.4917 11.9881C3.4917 11.7126 3.71503 11.4893 3.99053 11.4893H7.6486C7.92408 11.4893 8.14743 11.7126 8.14743 11.9881C8.14743 12.2636 7.92408 12.4869 7.6486 12.4869H3.99053C3.71503 12.4869 3.4917 12.2636 3.4917 11.9881Z" fill="#212121"/>
<path fill-rule="evenodd" clip-rule="evenodd" d="M8.1472 1.89608C7.84098 1.84404 7.42356 1.8401 6.67053 1.8401C5.39574 1.8401 4.48963 1.84115 3.80264 1.93309C3.12963 2.02317 2.74292 2.19213 2.46182 2.47321C2.18034 2.75469 2.01163 3.14022 1.92167 3.80937C1.82977 4.49287 1.82871 5.39387 1.82871 6.66214V9.32255C1.82871 10.5908 1.82977 11.4917 1.92167 12.1753C2.01163 12.8444 2.18034 13.2299 2.46182 13.5114C2.7433 13.7929 3.12883 13.9616 3.79798 14.0516C4.48148 14.1435 5.38248 14.1446 6.65071 14.1446H9.31113C10.5793 14.1446 11.4804 14.1435 12.1639 14.0516C12.833 13.9616 13.2185 13.7929 13.5 13.5114C13.7815 13.2299 13.9502 12.8444 14.0402 12.1753C14.1321 11.4917 14.1331 10.5908 14.1331 9.32255V9.03177C14.1331 8.01017 14.1259 7.52591 14.0175 7.16096H11.9358C11.1824 7.16096 10.5666 7.16096 10.0806 7.09558C9.57245 7.02728 9.13195 6.87943 8.78031 6.52782C8.42867 6.17618 8.28082 5.73566 8.21251 5.22755C8.1472 4.74145 8.1472 4.12574 8.1472 3.37229V1.89608ZM9.14485 2.41172V3.33658C9.14485 4.13452 9.14592 4.68279 9.20125 5.09461C9.25473 5.49209 9.35037 5.68699 9.48579 5.82237C9.62113 5.95774 9.81601 6.05341 10.2135 6.10685C10.6254 6.16222 11.1736 6.16328 11.9715 6.16328H13.3147C13.1175 5.97202 12.8649 5.74288 12.5369 5.44764L9.90387 3.07794C9.58103 2.78739 9.34079 2.57292 9.14485 2.41172ZM6.76744 0.842424C7.68834 0.842178 8.28328 0.842025 8.83086 1.05215C9.37844 1.26228 9.81874 1.65873 10.4999 2.27208C10.5233 2.29326 10.5472 2.31469 10.5713 2.33639L13.2042 4.70608C13.2323 4.73131 13.26 4.75621 13.2873 4.78082C14.0746 5.48892 14.5837 5.9468 14.8575 6.56165C15.1313 7.17646 15.1311 7.86119 15.1308 8.92003C15.1308 8.95681 15.1308 8.99406 15.1308 9.03177V9.36006C15.1308 10.5823 15.1308 11.5505 15.029 12.3082C14.9241 13.088 14.7032 13.7191 14.2055 14.2169C13.7077 14.7146 13.0765 14.9355 12.2968 15.0403C11.5391 15.1422 10.571 15.1422 9.34864 15.1422H6.61319C5.39089 15.1422 4.42274 15.1422 3.66505 15.0403C2.88527 14.9355 2.25412 14.7146 1.75637 14.2169C1.25864 13.7191 1.03774 13.088 0.932909 12.3082C0.831035 11.5505 0.831042 10.5823 0.831055 9.36006V6.62458C0.831042 5.40228 0.831035 4.43413 0.932909 3.67644C1.03774 2.89666 1.25864 2.26551 1.75637 1.76776C2.2545 1.26964 2.88777 1.04899 3.6703 0.944258C4.43115 0.842424 5.40411 0.84243 6.6331 0.842444H6.67053C6.70319 0.842444 6.73551 0.842437 6.76744 0.842424Z" fill="#212121"/>
</g>
<defs>
<clipPath id="clip0_3_12947">
<rect width="15.9625" height="15.9625" fill="white" transform="translate(0 0.0162354)"/>
</clipPath>
</defs>
</svg>
