<svg width="20" height="21" viewBox="0 0 20 21" fill="none" xmlns="http://www.w3.org/2000/svg">
<path fill-rule="evenodd" clip-rule="evenodd" d="M10 13.1953C10.3452 13.1953 10.625 13.4751 10.625 13.8203V17.3114L11.2248 16.7117C11.4689 16.4676 11.8645 16.4676 12.1086 16.7117C12.3527 16.9558 12.3527 17.3515 12.1086 17.5956L10.442 19.2622C10.1979 19.5063 9.8022 19.5063 9.55812 19.2622L7.89143 17.5956C7.64736 17.3515 7.64736 16.9558 7.89143 16.7117C8.13551 16.4676 8.53121 16.4676 8.77529 16.7117L9.37504 17.3114V13.8203C9.37504 13.4751 9.65487 13.1953 10 13.1953Z" fill="#1C274C"/>
<path d="M10.1885 3.39844C7.89679 3.39844 6.05162 5.23246 6.05162 7.47932C6.05162 7.86445 6.10554 8.23636 6.20611 8.58855C6.62045 8.70812 7.0083 8.88919 7.35875 9.12102C7.64664 9.31144 7.72564 9.69919 7.5352 9.9871C7.34476 10.275 6.957 10.354 6.66911 10.1635C6.35176 9.9536 5.99101 9.80302 5.60279 9.72769C5.41793 9.69185 5.22641 9.67294 5.0298 9.67294C3.39554 9.67294 2.08337 10.9803 2.08337 12.5774C2.08337 14.1744 3.39554 15.4818 5.0298 15.4818C5.37498 15.4818 5.6548 15.7616 5.6548 16.1068C5.6548 16.4519 5.37498 16.7318 5.0298 16.7318C2.71917 16.7318 0.833374 14.8788 0.833374 12.5774C0.833374 10.3239 2.6416 8.50016 4.8863 8.42534C4.83065 8.11806 4.80162 7.80188 4.80162 7.47932C4.80162 4.5282 7.22042 2.14844 10.1885 2.14844C12.8203 2.14844 15.0187 4.01818 15.4845 6.4995C17.4011 7.31303 18.75 9.19785 18.75 11.4009C18.75 13.9625 16.927 16.0937 14.5057 16.6115C14.1682 16.6837 13.836 16.4685 13.7639 16.131C13.6917 15.7934 13.9068 15.4613 14.2444 15.3891C16.1108 14.9899 17.5 13.3509 17.5 11.4009C17.5 9.62027 16.3423 8.09916 14.7187 7.54396C14.2949 7.39904 13.839 7.32 13.3631 7.32C12.8776 7.32 12.413 7.40225 11.982 7.55282C11.656 7.66665 11.2996 7.49475 11.1858 7.16888C11.072 6.843 11.2439 6.48656 11.5697 6.37274C12.1316 6.17647 12.7355 6.07 13.3631 6.07C13.6094 6.07 13.852 6.0864 14.0898 6.11816C13.5225 4.53703 11.9935 3.39844 10.1885 3.39844Z" fill="#1C274C"/>
</svg>
