<svg width="34" height="34" viewBox="0 0 34 34" fill="none" xmlns="http://www.w3.org/2000/svg">
<path d="M32.672 10.6994C32.672 9.85399 32.3362 9.04324 31.7384 8.44547C31.1406 7.84769 30.3299 7.51187 29.4845 7.51187H23.237C23.7757 6.68157 23.978 5.67729 23.8029 4.70316C23.6277 3.72903 23.0881 2.85815 22.2939 2.26755C21.4997 1.67695 20.5104 1.41095 19.527 1.5236C18.5437 1.63626 17.6402 2.11913 17.0001 2.87406C16.3706 2.07972 15.4562 1.56212 14.4512 1.4312C13.4462 1.30028 12.4297 1.56636 11.6177 2.17293C10.8057 2.77949 10.2622 3.67873 10.1027 4.67962C9.94313 5.6805 10.1801 6.70416 10.7632 7.53312H4.49449C3.75468 7.5598 3.04723 7.84316 2.49355 8.33455C1.93988 8.82595 1.5745 9.49474 1.46014 10.2261C1.34578 10.9575 1.48957 11.7059 1.86682 12.3429C2.24407 12.9798 2.83126 13.4656 3.52761 13.7169V29.75C3.52902 30.5245 3.83731 31.2669 4.38496 31.8145C4.93261 32.3622 5.67499 32.6705 6.44949 32.6719H27.5507C28.3252 32.6705 29.0676 32.3622 29.6153 31.8145C30.1629 31.2669 30.4712 30.5245 30.4726 29.75V13.7169C31.1099 13.5091 31.6655 13.1056 32.0604 12.5639C32.4552 12.0222 32.6693 11.3697 32.672 10.6994ZM15.1407 31.0781V13.8656H18.8595V31.0781H15.1407ZM15.1407 12.2719V9.12687H18.8595V12.2719H15.1407ZM20.1026 2.92187C20.7141 2.92187 21.3005 3.16478 21.7329 3.59717C22.1653 4.02956 22.4082 4.616 22.4082 5.22749C22.4082 5.83898 22.1653 6.42543 21.7329 6.85782C21.3005 7.29021 20.7141 7.53312 20.1026 7.53312H17.797V5.22749C17.7984 4.61644 18.0418 4.03081 18.4738 3.59872C18.9059 3.16664 19.4916 2.92327 20.1026 2.92187ZM11.6026 5.22749C11.6026 4.616 11.8455 4.02956 12.2779 3.59717C12.7103 3.16478 13.2967 2.92187 13.9082 2.92187C14.5197 2.92187 15.1062 3.16478 15.5386 3.59717C15.9709 4.02956 16.2139 4.616 16.2139 5.22749V7.53312H13.8976C13.2866 7.53172 12.7009 7.28835 12.2688 6.85627C11.8368 6.42418 11.5934 5.83855 11.592 5.22749H11.6026ZM2.92199 10.6994C2.92199 10.2767 3.0899 9.8713 3.38879 9.57242C3.68767 9.27353 4.09305 9.10562 4.51574 9.10562H13.5523V12.2719H4.52105C4.1011 12.2733 3.69755 12.1089 3.39812 11.8145C3.09869 11.52 2.92758 11.1193 2.92199 10.6994ZM5.12136 29.75V13.8656H13.5523V31.0781H6.44949C6.09725 31.0781 5.75943 30.9382 5.51036 30.6891C5.26129 30.44 5.12136 30.1022 5.12136 29.75ZM28.8789 29.75C28.8789 30.1022 28.7389 30.44 28.4899 30.6891C28.2408 30.9382 27.903 31.0781 27.5507 31.0781H20.4479V13.8656H28.8789V29.75ZM29.5057 12.2719H20.4745V9.12687H29.5057C29.8784 9.18835 30.2172 9.38019 30.4615 9.6682C30.7059 9.9562 30.8401 10.3216 30.8401 10.6994C30.8401 11.0771 30.7059 11.4425 30.4615 11.7305C30.2172 12.0185 29.8784 12.2104 29.5057 12.2719Z" fill="#C7C7C7"/>
</svg>
