<svg width="28" height="28" viewBox="0 0 28 28" fill="none" xmlns="http://www.w3.org/2000/svg">
<path fill-rule="evenodd" clip-rule="evenodd" d="M14 2.4375C7.61421 2.4375 2.4375 7.61421 2.4375 14C2.4375 15.8514 2.87191 17.5985 3.6435 19.1476C3.95317 19.7694 4.07242 20.5129 3.87704 21.2431L3.13252 24.0256C2.99579 24.5366 3.46332 25.0042 3.97436 24.8675L6.75691 24.123C7.48716 23.9276 8.23064 24.0469 8.85239 24.3565C10.4015 25.1281 12.1486 25.5625 14 25.5625C20.3857 25.5625 25.5625 20.3857 25.5625 14C25.5625 7.61421 20.3857 2.4375 14 2.4375ZM0.5625 14C0.5625 6.57867 6.57867 0.5625 14 0.5625C21.4214 0.5625 27.4375 6.57867 27.4375 14C27.4375 21.4214 21.4214 27.4375 14 27.4375C11.8521 27.4375 9.8194 26.9329 8.01644 26.0349C7.74739 25.9009 7.47267 25.8724 7.24155 25.9342L4.459 26.6787C2.55421 27.1884 0.811587 25.4457 1.32125 23.541L2.06575 20.7585C2.1276 20.5274 2.09916 20.2526 1.96516 19.9836C1.06714 18.1806 0.5625 16.1479 0.5625 14ZM15.9467 9.96785L16.0815 10.0506C17.1835 10.7278 18.1019 11.292 18.735 11.8254C19.3934 12.3799 19.9375 13.0599 19.9375 14C19.9375 14.9401 19.3934 15.6201 18.735 16.1746C18.1019 16.708 17.1836 17.2722 16.0815 17.9494L15.9467 18.0321C14.8309 18.718 13.9004 19.2897 13.1379 19.6122C12.3534 19.944 11.4714 20.1312 10.6404 19.6285C9.82815 19.137 9.55112 18.277 9.43101 17.4185C9.31242 16.571 9.31246 15.4434 9.3125 14.0749V13.9251C9.31246 12.5566 9.31242 11.4289 9.43101 10.5815C9.55112 9.72305 9.82815 8.86299 10.6404 8.37154C11.4714 7.86872 12.3534 8.05606 13.1379 8.38777C13.9004 8.71022 14.8309 9.28205 15.9467 9.96785ZM11.611 9.97575C11.5475 10.0141 11.3867 10.1351 11.2879 10.8413C11.1897 11.543 11.1875 12.5379 11.1875 14C11.1875 15.4621 11.1897 16.457 11.2879 17.1587C11.3867 17.8649 11.5475 17.9859 11.611 18.0242C11.6569 18.052 11.8034 18.1407 12.4076 17.8852C13.0227 17.6251 13.8314 17.1314 15.0336 16.3926C16.2191 15.6641 17.0145 15.1724 17.5271 14.7405C18.0274 14.3192 18.0625 14.1155 18.0625 14C18.0625 13.8845 18.0274 13.6807 17.5271 13.2595C17.0145 12.8276 16.2191 12.3359 15.0336 11.6074C13.8314 10.8686 13.0227 10.3749 12.4076 10.1147C11.8034 9.85922 11.6569 9.94796 11.611 9.97575Z" fill="#FF4F4F"/>
</svg>
