<svg width="15" height="15" viewBox="0 0 15 15" fill="none" xmlns="http://www.w3.org/2000/svg">
<g clip-path="url(#clip0_6_610)">
<path d="M4.66022 5.82749C4.66022 5.57856 4.45843 5.37677 4.2095 5.37677C3.96058 5.37677 3.75879 5.57856 3.75879 5.82749V11.2361C3.75879 11.485 3.96058 11.6868 4.2095 11.6868C4.45843 11.6868 4.66022 11.485 4.66022 11.2361V5.82749Z" fill="#212121"/>
<path d="M7.21195 3.57837C7.46086 3.57837 7.66266 3.78016 7.66266 4.02908V11.2405C7.66266 11.4895 7.46086 11.6913 7.21195 11.6913C6.96303 11.6913 6.76123 11.4895 6.76123 11.2405V4.02908C6.76123 3.78016 6.96303 3.57837 7.21195 3.57837Z" fill="#212121"/>
<path d="M10.6632 8.23569C10.6632 7.98677 10.4613 7.78497 10.2124 7.78497C9.96352 7.78497 9.76172 7.98677 9.76172 8.23569V11.2405C9.76172 11.4894 9.96352 11.6912 10.2124 11.6912C10.4613 11.6912 10.6632 11.4894 10.6632 11.2405V8.23569Z" fill="#212121"/>
<path fill-rule="evenodd" clip-rule="evenodd" d="M7.18016 1.18567C5.79293 1.18566 4.70578 1.18566 3.85755 1.2997C2.98933 1.41643 2.30423 1.66002 1.76649 2.19776C1.22875 2.7355 0.985155 3.4206 0.868426 4.28882C0.754383 5.13706 0.754389 6.22421 0.754395 7.61143V7.68042C0.754389 9.06767 0.754383 10.1548 0.868426 11.003C0.985155 11.8712 1.22875 12.5564 1.76649 13.0941C2.30423 13.6319 2.98933 13.8754 3.85755 13.9922C4.70578 14.1062 5.79293 14.1062 7.18016 14.1062H7.24915C8.63639 14.1062 9.72352 14.1062 10.5718 13.9922C11.44 13.8754 12.1251 13.6319 12.6628 13.0941C13.2006 12.5564 13.4441 11.8712 13.5609 11.003C13.6749 10.1548 13.6749 9.06767 13.6749 7.68042V7.61143C13.6749 6.22421 13.6749 5.13706 13.5609 4.28882C13.4441 3.4206 13.2006 2.7355 12.6628 2.19776C12.1251 1.66002 11.44 1.41643 10.5718 1.2997C9.72352 1.18566 8.63639 1.18566 7.24915 1.18567H7.18016ZM2.40389 2.83517C2.74623 2.49283 3.2094 2.29638 3.97766 2.19309C4.75889 2.08806 5.78545 2.0871 7.21465 2.0871C8.64384 2.0871 9.67039 2.08806 10.4516 2.19309C11.2199 2.29638 11.683 2.49283 12.0254 2.83517C12.3678 3.1775 12.5642 3.64067 12.6675 4.40894C12.7725 5.19016 12.7735 6.21673 12.7735 7.64593C12.7735 9.07512 12.7725 10.1017 12.6675 10.8829C12.5642 11.6512 12.3678 12.1143 12.0254 12.4567C11.683 12.7991 11.2199 12.9955 10.4516 13.0987C9.67039 13.2038 8.64384 13.2048 7.21465 13.2048C5.78545 13.2048 4.75889 13.2038 3.97766 13.0987C3.2094 12.9955 2.74623 12.7991 2.40389 12.4567C2.06155 12.1143 1.86511 11.6512 1.76182 10.8829C1.65678 10.1017 1.65583 9.07512 1.65583 7.64593C1.65583 6.21673 1.65678 5.19016 1.76182 4.40894C1.86511 3.64067 2.06155 3.1775 2.40389 2.83517Z" fill="#212121"/>
</g>
<defs>
<clipPath id="clip0_6_610">
<rect width="14.4229" height="14.4229" fill="white" transform="translate(0 0.415894)"/>
</clipPath>
</defs>
</svg>
