<svg width="18" height="19" viewBox="0 0 18 19" fill="none" xmlns="http://www.w3.org/2000/svg">
<path d="M7.99188 1.42188C7.90654 1.42192 7.824 1.45227 7.75897 1.50752C7.69393 1.56276 7.65064 1.63931 7.6368 1.72352L7.28664 3.86734C6.86559 3.98983 6.4641 4.15509 6.0857 4.36094L4.31664 3.09742C4.24738 3.04796 4.16284 3.02464 4.07801 3.03159C3.99319 3.03854 3.91357 3.07532 3.85328 3.13539L2.45266 4.53461C2.3928 4.59451 2.35598 4.67358 2.34865 4.75794C2.34132 4.8423 2.36395 4.92654 2.41258 4.99586L3.65711 6.77617C3.44809 7.15677 3.27916 7.56053 3.15367 7.98555L1.01898 8.34062C0.935041 8.35476 0.858821 8.39819 0.803857 8.46319C0.748893 8.5282 0.71874 8.61058 0.718751 8.6957V10.6757C0.718597 10.7603 0.748253 10.8423 0.802513 10.9072C0.856773 10.9722 0.93217 11.0159 1.01547 11.0308L3.15156 11.4091C3.27637 11.8333 3.44423 12.2374 3.65359 12.6184L2.39359 14.3812C2.34414 14.4504 2.32081 14.535 2.32776 14.6198C2.33471 14.7046 2.37149 14.7842 2.43156 14.8445L3.83149 16.2452C3.89125 16.3049 3.97014 16.3418 4.05435 16.3492C4.13855 16.3567 4.22269 16.3343 4.29203 16.2859L6.07586 15.0372C6.45537 15.2442 6.85785 15.4107 7.28031 15.5343L7.6368 17.6809C7.65079 17.765 7.69415 17.8414 7.75917 17.8965C7.82419 17.9516 7.90665 17.9819 7.99188 17.9819H9.97188C10.0566 17.982 10.1386 17.9522 10.2036 17.8978C10.2685 17.8434 10.3122 17.7679 10.327 17.6845L10.7088 15.5294C11.1295 15.4039 11.5301 15.235 11.9076 15.0266L13.7034 16.2866C13.7727 16.3353 13.8569 16.3579 13.9413 16.3506C14.0256 16.3432 14.1047 16.3064 14.1646 16.2466L15.5645 14.8452C15.6249 14.7848 15.6617 14.7048 15.6686 14.6197C15.6754 14.5346 15.6517 14.4498 15.6018 14.3805L14.3214 12.603C14.5261 12.2273 14.6911 11.8291 14.8136 11.4112L16.9799 11.0315C17.0634 11.0168 17.1389 10.9731 17.1933 10.9081C17.2477 10.8432 17.2775 10.7611 17.2773 10.6764V8.69641C17.2773 8.61107 17.2469 8.52853 17.1917 8.4635C17.1365 8.39847 17.0599 8.35517 16.9757 8.34133L14.8129 7.98766C14.6895 7.57025 14.5241 7.17278 14.3193 6.79727L15.5821 4.99797C15.6307 4.92865 15.6534 4.84441 15.646 4.76005C15.6387 4.67569 15.6019 4.59661 15.542 4.53672L14.1414 3.1368C14.0809 3.07647 14.001 3.0396 13.9159 3.03277C13.8307 3.02594 13.7459 3.04961 13.6766 3.09953L11.9041 4.3743C11.5264 4.16681 11.1255 3.99875 10.7038 3.87438L10.327 1.72C10.3124 1.63644 10.2688 1.56072 10.2038 1.50618C10.1388 1.45163 10.0567 1.42178 9.97188 1.42188H7.99188ZM8.29844 2.14188H9.66953L10.0281 4.18867C10.0401 4.25732 10.0717 4.32103 10.1191 4.37208C10.1665 4.42312 10.2277 4.45931 10.2953 4.47625C10.8218 4.60745 11.3163 4.81543 11.7677 5.08867C11.828 5.12523 11.8978 5.14326 11.9683 5.14051C12.0388 5.13776 12.1069 5.11436 12.1642 5.0732L13.8489 3.86242L14.8185 4.83203L13.619 6.54133C13.5789 6.59835 13.5563 6.66577 13.5538 6.73541C13.5513 6.80506 13.569 6.87393 13.6049 6.93367C13.8755 7.384 14.0806 7.87537 14.2117 8.39898C14.2288 8.46718 14.2654 8.52889 14.3172 8.57649C14.3689 8.6241 14.4334 8.65552 14.5028 8.66687L16.5573 9.00297V10.3741L14.4986 10.7355C14.4299 10.7476 14.3662 10.7795 14.3153 10.8272C14.2643 10.8749 14.2284 10.9363 14.2117 11.0041C14.0822 11.527 13.8769 12.0184 13.6063 12.4687C13.57 12.529 13.5522 12.5987 13.5551 12.669C13.5579 12.7394 13.5814 12.8074 13.6225 12.8645L14.8389 14.5527L13.8693 15.523L12.1628 14.3256C12.1055 14.2855 12.0378 14.2629 11.9678 14.2607C11.8979 14.2584 11.8288 14.2766 11.7691 14.313C11.32 14.5862 10.825 14.7952 10.3002 14.9282C10.233 14.9452 10.172 14.9812 10.1248 15.032C10.0775 15.0827 10.0459 15.1461 10.0338 15.2144L9.67024 17.2619H8.29703L7.95813 15.2235C7.94659 15.1542 7.91501 15.0897 7.86728 15.0381C7.81955 14.9865 7.75776 14.95 7.68953 14.9331C7.16271 14.8033 6.666 14.5956 6.21156 14.3228C6.1519 14.2871 6.08316 14.2694 6.01366 14.2719C5.94416 14.2744 5.87687 14.297 5.81992 14.3369L4.1268 15.523L3.15649 14.5513L4.3532 12.8786C4.3941 12.8213 4.4173 12.7532 4.41992 12.6829C4.42255 12.6125 4.40448 12.5429 4.36797 12.4827C4.0922 12.0271 3.88364 11.5304 3.75203 11.0012C3.73519 10.9339 3.69922 10.8728 3.64844 10.8254C3.59766 10.7779 3.53425 10.7462 3.46586 10.7341L1.43875 10.3741V9.00086L3.46445 8.66406C3.5337 8.65258 3.59808 8.6211 3.64968 8.57351C3.70127 8.52591 3.73783 8.46427 3.75484 8.39617C3.88759 7.86521 4.09604 7.36862 4.37078 6.91398C4.40701 6.8543 4.4251 6.78537 4.42286 6.71558C4.42061 6.6458 4.39812 6.57817 4.35813 6.52094L3.17547 4.83063L4.14649 3.86031L5.82484 5.05984C5.88194 5.10056 5.94969 5.12371 6.01976 5.12646C6.08984 5.12921 6.15919 5.11143 6.2193 5.07531C6.67133 4.80382 7.1692 4.59782 7.69656 4.46852C7.76512 4.45164 7.82719 4.41498 7.87507 4.3631C7.92296 4.31122 7.95453 4.2464 7.96586 4.17672L8.29844 2.14188ZM8.99805 6.82188C7.41173 6.82188 6.11805 8.11556 6.11805 9.70187C6.11805 11.2882 7.41173 12.5819 8.99805 12.5819C10.5844 12.5819 11.878 11.2882 11.878 9.70187C11.878 8.11556 10.5844 6.82188 8.99805 6.82188ZM8.99805 7.54187C10.1952 7.54187 11.158 8.50468 11.158 9.70187C11.158 10.8991 10.1952 11.8619 8.99805 11.8619C7.80085 11.8619 6.83805 10.8991 6.83805 9.70187C6.83805 8.50468 7.80085 7.54187 8.99805 7.54187Z" fill="black"/>
</svg>
