<svg width="13" height="13" viewBox="0 0 13 13" fill="none" xmlns="http://www.w3.org/2000/svg">
<g id="icons8-verified-badge 1" clip-path="url(#clip0_2563_16644)">
<path id="Vector" d="M6.72729 1L7.85229 2.25L9.47729 1.75L9.85229 3.375L11.4773 3.75L10.9773 5.375L12.2273 6.5L10.9773 7.625L11.4773 9.25L9.85229 9.625L9.47729 11.25L7.85229 10.75L6.72729 12L5.60229 10.75L3.97729 11.25L3.60229 9.625L1.97729 9.25L2.47729 7.625L1.22729 6.5L2.47729 5.375L1.97729 3.75L3.60229 3.375L3.97729 1.75L5.60229 2.25L6.72729 1Z" fill="#FF3A3A"/>
<path id="Vector_2" d="M9.37744 4.14996L5.97744 7.54996L4.57744 6.14996L3.87744 6.84996L5.97744 8.94996L10.0774 4.84996L9.37744 4.14996Z" fill="#E3F2FD"/>
</g>
<defs>
<clipPath id="clip0_2563_16644">
<rect width="12" height="12" fill="white" transform="translate(0.727295 0.5)"/>
</clipPath>
</defs>
</svg>
