<svg width="20" height="20" viewBox="0 0 20 20" fill="none" xmlns="http://www.w3.org/2000/svg">
<path d="M10.9147 7.92449C10.9147 7.59567 10.6481 7.3291 10.3193 7.3291C9.99051 7.3291 9.72394 7.59567 9.72394 7.92449V8.91682H8.73162C8.40281 8.91682 8.13623 9.18339 8.13623 9.51221C8.13623 9.84102 8.40281 10.1076 8.73162 10.1076H9.72394V11.0999C9.72394 11.4287 9.99051 11.6953 10.3193 11.6953C10.6481 11.6953 10.9147 11.4287 10.9147 11.0999V10.1076H11.907C12.2358 10.1076 12.5024 9.84102 12.5024 9.51221C12.5024 9.18339 12.2358 8.91682 11.907 8.91682H10.9147V7.92449Z" fill="#212121"/>
<path fill-rule="evenodd" clip-rule="evenodd" d="M1.03045 2.96558C1.13952 2.65537 1.47941 2.4923 1.78961 2.60137L2.02888 2.68549C2.51831 2.85754 2.934 3.00367 3.26114 3.16419C3.61094 3.33582 3.91089 3.54726 4.13649 3.87739C4.36034 4.20496 4.45276 4.56436 4.49542 4.95841C4.49846 4.98662 4.50129 5.01531 4.5039 5.04449H13.5953C14.2451 5.04448 14.9077 5.04447 15.4531 5.10544C15.7308 5.13648 16.0059 5.18594 16.2492 5.27143C16.4878 5.35524 16.75 5.49251 16.9365 5.73497C17.2396 6.12903 17.2926 6.58788 17.2639 7.05324C17.2365 7.4963 17.1266 8.04715 16.9958 8.70199L16.9876 8.74346L16.9868 8.74711L16.5828 10.7074C16.464 11.284 16.3639 11.7692 16.235 12.152C16.0981 12.558 15.9084 12.9149 15.5698 13.1909C15.2313 13.4667 14.8434 13.5806 14.4181 13.6326C14.0172 13.6816 13.5219 13.6816 12.9331 13.6816H8.64172C7.57338 13.6816 6.7082 13.6816 6.02689 13.585C5.3154 13.4841 4.71779 13.2676 4.24635 12.7704C3.81272 12.313 3.58081 11.8275 3.46465 11.1493C3.35585 10.5141 3.34503 9.68259 3.34503 8.52951V6.36892C3.34503 5.78151 3.34422 5.38839 3.31155 5.08656C3.28033 4.79811 3.225 4.65409 3.15334 4.54923C3.08344 4.44693 2.97732 4.35133 2.7366 4.23322C2.48031 4.10746 2.132 3.98398 1.60202 3.79765L1.39466 3.72475C1.08445 3.61568 0.921382 3.27579 1.03045 2.96558ZM4.53581 6.23527V8.52951C4.53581 9.71156 4.5501 10.433 4.63834 10.9483C4.71923 11.4206 4.85632 11.6831 5.11049 11.9511C5.32684 12.1793 5.62662 12.3256 6.19407 12.4061C6.78206 12.4894 7.56247 12.4908 8.6872 12.4908H12.8969C13.5315 12.4908 13.9534 12.4898 14.2735 12.4506C14.5773 12.4134 14.7182 12.3487 14.8176 12.2678C14.9171 12.1867 15.0088 12.0618 15.1065 11.7717C15.2095 11.4662 15.2957 11.0531 15.4238 10.4317L15.8198 8.51042L15.8201 8.50865C15.9611 7.80218 16.0536 7.33201 16.0754 6.97988C16.096 6.64531 16.0435 6.52845 15.9948 6.46383C15.9899 6.45964 15.9553 6.43031 15.8544 6.39487C15.7311 6.35151 15.5555 6.31508 15.3208 6.28885C14.8486 6.23606 14.2503 6.23527 13.5704 6.23527H4.53581Z" fill="#212121"/>
<path fill-rule="evenodd" clip-rule="evenodd" d="M4.16748 16.2729C4.16748 17.2593 4.96718 18.059 5.95365 18.059C6.94013 18.059 7.73982 17.2593 7.73982 16.2729C7.73982 15.2863 6.94013 14.4867 5.95365 14.4867C4.96718 14.4867 4.16748 15.2863 4.16748 16.2729ZM5.95365 16.8683C5.62483 16.8683 5.35826 16.6017 5.35826 16.2729C5.35826 15.9441 5.62483 15.6775 5.95365 15.6775C6.28248 15.6775 6.54904 15.9441 6.54904 16.2729C6.54904 16.6017 6.28248 16.8683 5.95365 16.8683Z" fill="#212121"/>
<path fill-rule="evenodd" clip-rule="evenodd" d="M11.3125 16.2729C11.3125 17.2593 12.1122 18.059 13.0987 18.059C14.0851 18.059 14.8848 17.2593 14.8848 16.2729C14.8848 15.2863 14.0851 14.4867 13.0987 14.4867C12.1122 14.4867 11.3125 15.2863 11.3125 16.2729ZM13.0987 16.8683C12.7699 16.8683 12.5033 16.6017 12.5033 16.2729C12.5033 15.9441 12.7699 15.6775 13.0987 15.6775C13.4275 15.6775 13.6941 15.9441 13.6941 16.2729C13.6941 16.6017 13.4275 16.8683 13.0987 16.8683Z" fill="#212121"/>
</svg>
