<svg width="17" height="17" viewBox="0 0 17 17" fill="none" xmlns="http://www.w3.org/2000/svg">
<g clip-path="url(#clip0_3_13003)">
<path fill-rule="evenodd" clip-rule="evenodd" d="M8.06155 0.897095H8.14596C9.54248 0.897081 10.6478 0.897075 11.5125 1.02625C12.4065 1.1598 13.1153 1.44051 13.6671 2.05355C14.2119 2.65895 14.4551 3.42386 14.5721 4.3903C14.687 5.34004 14.687 6.55867 14.687 8.1203V8.19079C14.687 9.75241 14.687 10.9711 14.5721 11.9208C14.4551 12.8872 14.2119 13.6521 13.6671 14.2576C13.1153 14.8706 12.4065 15.1513 11.5125 15.2848C10.6478 15.414 9.54248 15.414 8.14596 15.414H8.06155C6.66503 15.414 5.55972 15.414 4.69496 15.2848C3.80099 15.1513 3.09218 14.8706 2.54044 14.2576C1.99558 13.6521 1.75236 12.8872 1.63541 11.9208C1.52049 10.9711 1.5205 9.75241 1.52051 8.19079V8.1203C1.5205 6.55868 1.52049 5.34004 1.63541 4.3903C1.75236 3.42386 1.99558 2.65895 2.54044 2.05355C3.09218 1.44051 3.80099 1.1598 4.69496 1.02625C5.55972 0.897075 6.66504 0.897081 8.06155 0.897095ZM4.8446 2.02795C4.08376 2.14161 3.63145 2.3553 3.29325 2.73108C2.94818 3.11449 2.74643 3.63973 2.64089 4.51197C2.53419 5.39377 2.53332 6.55116 2.53332 8.15555C2.53332 9.75997 2.53419 10.9173 2.64089 11.7992C2.74643 12.6714 2.94818 13.1966 3.29325 13.58C3.63145 13.9558 4.08376 14.1695 4.8446 14.2832C5.62595 14.3998 6.65558 14.4012 8.10375 14.4012C9.55193 14.4012 10.5816 14.3998 11.3629 14.2832C12.1237 14.1695 12.576 13.9558 12.9143 13.58C13.2593 13.1966 13.4611 12.6714 13.5666 11.7992C13.6733 10.9173 13.6742 9.75997 13.6742 8.15555C13.6742 6.55116 13.6733 5.39377 13.5666 4.51197C13.4611 3.63973 13.2593 3.11449 12.9143 2.73108C12.576 2.3553 12.1237 2.14161 11.3629 2.02795C10.5816 1.91123 9.55193 1.9099 8.10375 1.9099C6.65558 1.9099 5.62595 1.91123 4.8446 2.02795ZM6.0215 3.59787C6.04019 3.59789 6.05907 3.59791 6.07814 3.59791H10.1294C10.1484 3.59791 10.1673 3.59789 10.186 3.59787C10.4431 3.5976 10.6649 3.59737 10.8601 3.64968C11.3844 3.79016 11.794 4.19966 11.9344 4.72393C11.9867 4.91916 11.9865 5.14098 11.9862 5.39809C11.9862 5.41678 11.9862 5.43566 11.9862 5.45473C11.9862 5.4738 11.9862 5.49267 11.9862 5.51137C11.9865 5.76848 11.9867 5.9903 11.9344 6.18553C11.794 6.7098 11.3844 7.11931 10.8601 7.25975C10.6649 7.31208 10.4431 7.31188 10.186 7.31161C10.1673 7.31154 10.1484 7.31154 10.1294 7.31154H6.07814C6.05907 7.31154 6.04019 7.31154 6.0215 7.31161C5.76439 7.31188 5.54257 7.31208 5.34734 7.25975C4.82307 7.11931 4.41357 6.7098 4.2731 6.18553C4.22078 5.9903 4.22102 5.76848 4.22129 5.51137C4.22131 5.49267 4.22133 5.4738 4.22133 5.45473C4.22133 5.43566 4.22131 5.41678 4.22129 5.39809C4.22102 5.14098 4.22078 4.91916 4.2731 4.72393C4.41357 4.19966 4.82307 3.79016 5.34734 3.64968C5.54257 3.59737 5.76439 3.5976 6.0215 3.59787ZM6.07814 4.61072C5.73158 4.61072 5.65764 4.61507 5.60947 4.62798C5.43472 4.67481 5.29822 4.8113 5.25139 4.98606C5.23848 5.03422 5.23413 5.10817 5.23413 5.45473C5.23413 5.80129 5.23848 5.87523 5.25139 5.9234C5.29822 6.09815 5.43472 6.23466 5.60947 6.28148C5.65764 6.29439 5.73158 6.29873 6.07814 6.29873H10.1294C10.476 6.29873 10.5499 6.29439 10.598 6.28148C10.7728 6.23466 10.9093 6.09815 10.9561 5.9234C10.9691 5.87523 10.9734 5.80129 10.9734 5.45473C10.9734 5.10817 10.9691 5.03422 10.9561 4.98606C10.9093 4.8113 10.7728 4.67481 10.598 4.62798C10.5499 4.61507 10.476 4.61072 10.1294 4.61072H6.07814Z" fill="#212121"/>
<path d="M6.07844 8.83048C6.07844 9.20339 5.77614 9.50568 5.40323 9.50568C5.03033 9.50568 4.72803 9.20339 4.72803 8.83048C4.72803 8.45756 5.03033 8.15527 5.40323 8.15527C5.77614 8.15527 6.07844 8.45756 6.07844 8.83048Z" fill="#212121"/>
<path d="M6.07844 11.531C6.07844 11.904 5.77614 12.2062 5.40323 12.2062C5.03033 12.2062 4.72803 11.904 4.72803 11.531C4.72803 11.1581 5.03033 10.8558 5.40323 10.8558C5.77614 10.8558 6.07844 11.1581 6.07844 11.531Z" fill="#212121"/>
<path d="M8.77912 8.83048C8.77912 9.20339 8.47683 9.50568 8.10392 9.50568C7.731 9.50568 7.42871 9.20339 7.42871 8.83048C7.42871 8.45756 7.731 8.15527 8.10392 8.15527C8.47683 8.15527 8.77912 8.45756 8.77912 8.83048Z" fill="#212121"/>
<path d="M8.77912 11.531C8.77912 11.904 8.47683 12.2062 8.10392 12.2062C7.731 12.2062 7.42871 11.904 7.42871 11.531C7.42871 11.1581 7.731 10.8558 8.10392 10.8558C8.47683 10.8558 8.77912 11.1581 8.77912 11.531Z" fill="#212121"/>
<path d="M11.4793 8.83048C11.4793 9.20339 11.177 9.50568 10.8041 9.50568C10.4312 9.50568 10.1289 9.20339 10.1289 8.83048C10.1289 8.45756 10.4312 8.15527 10.8041 8.15527C11.177 8.15527 11.4793 8.45756 11.4793 8.83048Z" fill="#212121"/>
<path d="M11.4793 11.531C11.4793 11.904 11.177 12.2062 10.8041 12.2062C10.4312 12.2062 10.1289 11.904 10.1289 11.531C10.1289 11.1581 10.4312 10.8558 10.8041 10.8558C11.177 10.8558 11.4793 11.1581 11.4793 11.531Z" fill="#212121"/>
</g>
<defs>
<clipPath id="clip0_3_13003">
<rect width="16.2049" height="16.2049" fill="white" transform="translate(0 0.0528564)"/>
</clipPath>
</defs>
</svg>
