<svg width="18" height="18" viewBox="0 0 18 18" fill="none" xmlns="http://www.w3.org/2000/svg">
<g clip-path="url(#clip0_3_12939)">
<path d="M1.42334 10.8258C1.42334 8.14141 1.42334 6.7992 2.25726 5.96527C3.0912 5.13135 4.43338 5.13135 7.11775 5.13135H9.96495C12.6493 5.13135 13.9915 5.13135 14.8254 5.96527C15.6594 6.7992 15.6594 8.14141 15.6594 10.8258C15.6594 13.5101 15.6594 14.8523 14.8254 15.6862C13.9915 16.5202 12.6493 16.5202 9.96495 16.5202H7.11775C4.43338 16.5202 3.0912 16.5202 2.25726 15.6862C1.42334 14.8523 1.42334 13.5101 1.42334 10.8258Z" stroke="#212121" stroke-width="1.0677"/>
<path d="M11.3887 5.13138C11.3887 3.7892 11.3887 3.1181 10.9718 2.70115C10.5548 2.28418 9.88371 2.28418 8.54154 2.28418C7.19937 2.28418 6.52826 2.28418 6.1113 2.70115C5.69434 3.1181 5.69434 3.7892 5.69434 5.13138" stroke="#212121" stroke-width="1.0677"/>
<path d="M7.11809 11.5376H4.27088C3.93534 11.5376 3.76756 11.5376 3.66333 11.6418C3.55908 11.7461 3.55908 11.9139 3.55908 12.2494V12.9612C3.55908 13.2967 3.55908 13.4645 3.66333 13.5688C3.76756 13.673 3.93534 13.673 4.27088 13.673H7.11809C7.45363 13.673 7.6214 13.673 7.72568 13.5688C7.82989 13.4645 7.82989 13.2967 7.82989 12.9612V12.2494C7.82989 11.9139 7.82989 11.7461 7.72568 11.6418C7.6214 11.5376 7.45363 11.5376 7.11809 11.5376Z" stroke="#212121" stroke-width="1.0677" stroke-linejoin="round"/>
<path d="M4.271 5.4873V11.5376M4.271 16.1643V14.0289" stroke="#212121" stroke-width="1.0677" stroke-linecap="round"/>
<path d="M12.8125 5.4873V16.1643" stroke="#212121" stroke-width="1.0677" stroke-linecap="round"/>
</g>
<defs>
<clipPath id="clip0_3_12939">
<rect width="17.0832" height="17.0832" fill="white" transform="translate(0 0.860596)"/>
</clipPath>
</defs>
</svg>
