<svg width="36" height="35" viewBox="0 0 36 35" fill="none" xmlns="http://www.w3.org/2000/svg">
<path opacity="0.2" d="M24.2515 19.5205H2.58459V24.9372C2.58459 25.2246 2.69873 25.5001 2.9019 25.7033C3.10507 25.9064 3.38062 26.0206 3.66794 26.0206H6.3763C6.3763 25.1586 6.71872 24.332 7.32822 23.7225C7.93772 23.113 8.76438 22.7705 9.62634 22.7705C10.4883 22.7705 11.315 23.113 11.9245 23.7225C12.534 24.332 12.8764 25.1586 12.8764 26.0206H22.6265C22.6261 25.4497 22.7761 24.8888 23.0614 24.3944C23.3467 23.8999 23.7571 23.4893 24.2515 23.2039V19.5205Z" fill="#A4A4A4"/>
<path opacity="0.2" d="M29.1266 26.0206C29.1269 25.4499 28.977 24.8892 28.6919 24.3949C28.4068 23.9005 27.9966 23.4899 27.5025 23.2044C27.0083 22.9189 26.4477 22.7686 25.8771 22.7685C25.3064 22.7684 24.7457 22.9186 24.2515 23.2039V16.2705H32.9183V24.9373C32.9183 25.2246 32.8042 25.5001 32.601 25.7033C32.3978 25.9065 32.1223 26.0206 31.8349 26.0206H29.1266Z" fill="#A4A4A4"/>
<path d="M24.2515 10.8535H30.0203C30.2362 10.8521 30.4474 10.916 30.6262 11.0369C30.8051 11.1577 30.9432 11.3299 31.0224 11.5306L32.9183 16.2703" stroke="#A4A4A4" stroke-width="2.16669" stroke-linecap="round" stroke-linejoin="round"/>
<path d="M2.58459 19.5205H24.2515" stroke="#A4A4A4" stroke-width="2.16669" stroke-linecap="round" stroke-linejoin="round"/>
<path d="M25.8765 29.2706C27.6714 29.2706 29.1265 27.8155 29.1265 26.0205C29.1265 24.2256 27.6714 22.7705 25.8765 22.7705C24.0816 22.7705 22.6265 24.2256 22.6265 26.0205C22.6265 27.8155 24.0816 29.2706 25.8765 29.2706Z" stroke="#A4A4A4" stroke-width="2.16669" stroke-miterlimit="10"/>
<path d="M9.62632 29.2706C11.4213 29.2706 12.8764 27.8155 12.8764 26.0205C12.8764 24.2256 11.4213 22.7705 9.62632 22.7705C7.83137 22.7705 6.37628 24.2256 6.37628 26.0205C6.37628 27.8155 7.83137 29.2706 9.62632 29.2706Z" stroke="#A4A4A4" stroke-width="2.16669" stroke-miterlimit="10"/>
<path d="M22.6265 26.0205H12.8764" stroke="#A4A4A4" stroke-width="2.16669" stroke-linecap="round" stroke-linejoin="round"/>
<path d="M6.3763 26.021H3.66794C3.38062 26.021 3.10507 25.9069 2.9019 25.7037C2.69873 25.5006 2.58459 25.225 2.58459 24.9377V9.77085C2.58459 9.48352 2.69873 9.20797 2.9019 9.0048C3.10507 8.80164 3.38062 8.6875 3.66794 8.6875H24.2515V23.2043" stroke="#A4A4A4" stroke-width="2.16669" stroke-linecap="round" stroke-linejoin="round"/>
<path d="M24.2515 16.2705H32.9183V24.9373C32.9183 25.2246 32.8042 25.5001 32.601 25.7033C32.3978 25.9065 32.1223 26.0206 31.8349 26.0206H29.1266" stroke="#A4A4A4" stroke-width="2.16669" stroke-linecap="round" stroke-linejoin="round"/>
</svg>
