<svg width="17" height="13" viewBox="0 0 17 13" fill="none" xmlns="http://www.w3.org/2000/svg">
<path d="M13.6475 9.69988C13.5689 9.62158 13.4634 9.57848 13.3491 9.57848H12.3516C12.4162 9.50264 12.5458 9.38667 12.8121 9.22025L12.8776 9.17386C13.1614 8.99325 13.3411 8.85493 13.441 8.73896C13.617 8.53926 13.7056 8.28168 13.7056 7.97474C13.7056 7.68391 13.6066 7.43289 13.4115 7.22989C12.9782 6.78217 12.1431 6.78543 11.721 7.23235C11.5292 7.43372 11.4315 7.68391 11.4315 7.97503V8.07488C11.4315 8.22685 11.494 8.32753 11.5562 8.39627C11.7177 8.55617 12.0102 8.54578 12.1493 8.40663C12.2388 8.32504 12.2885 8.21157 12.2885 8.08687V7.975C12.2885 7.8784 12.3212 7.83204 12.3523 7.79902C12.3851 7.76381 12.4394 7.72318 12.5665 7.72318C12.6961 7.72318 12.7537 7.76548 12.7881 7.80148C12.8167 7.83176 12.8497 7.87815 12.8497 7.975C12.8497 8.08767 12.8195 8.1739 12.757 8.24427C12.7177 8.28737 12.6067 8.38723 12.3046 8.5744C11.9977 8.7591 11.7658 8.96757 11.6141 9.19538C11.4422 9.45513 11.356 9.76041 11.359 10.1034L11.3614 10.4079H13.3493C13.4691 10.4079 13.5796 10.359 13.6475 10.2832C13.725 10.2049 13.7673 10.1026 13.7673 9.99314C13.7673 9.88133 13.725 9.77739 13.6475 9.69988Z" fill="#212121"/>
<path d="M13.6405 4.6877C12.8564 2.11866 10.4767 0.344116 7.77587 0.344116C5.19075 0.344116 2.89207 1.96205 2.01028 4.38485C0.748939 5.22491 0 6.61012 0 8.11999C0 10.602 2.01981 12.6218 4.50182 12.6218C5.0022 12.6218 5.50587 12.5331 5.99887 12.3563C7.41218 12.7871 8.92668 12.6889 10.2688 12.0879C10.8859 12.4379 11.5759 12.6218 12.2777 12.6218C14.5343 12.6218 16.3703 10.7859 16.3703 8.52924C16.3703 6.78201 15.2825 5.26475 13.6405 4.6877ZM12.2777 11.8033C11.6575 11.8033 11.0475 11.6227 10.5143 11.2797L10.3201 11.155L10.1122 11.2565C8.86532 11.8704 7.43756 11.9703 6.11567 11.5354L5.97569 11.489L5.839 11.5425C5.397 11.7152 4.94682 11.803 4.50182 11.803C2.47082 11.8033 0.818513 10.151 0.818513 8.11999C0.818513 6.84666 1.47169 5.68053 2.56575 5.00008L2.69045 4.92261L2.73764 4.78346C3.46912 2.61741 5.49385 1.16263 7.77587 1.16263C10.1818 1.16263 12.2938 2.78766 12.9115 5.11442L12.9707 5.33733L13.1923 5.40198C14.6036 5.81562 15.5517 7.072 15.5517 8.52924C15.5517 10.3349 14.0833 11.8033 12.2777 11.8033Z" fill="#212121"/>
<path d="M6.7593 7.27941C6.69777 7.18611 6.60561 7.12361 6.49516 7.09963L6.39589 7.08844C6.32533 7.08844 6.25806 7.10589 6.1908 7.14273C6.08743 7.20274 6.0169 7.30505 5.9953 7.42403C5.93051 7.72141 5.81182 7.93723 5.64449 8.06438C5.49628 8.17543 5.2912 8.23135 5.03716 8.23135C4.7022 8.23135 4.44434 8.11947 4.24881 7.89083C4.02841 7.63192 3.91629 7.24667 3.91629 6.74463C3.91629 6.25544 4.02921 5.87183 4.24798 5.60881C4.45143 5.37228 4.70954 5.25714 5.03713 5.25714C5.29034 5.25714 5.49869 5.31306 5.65647 5.4241C5.82547 5.54087 5.93045 5.7166 5.97694 5.95259C6.00428 6.11792 6.09317 6.2085 6.15713 6.24997C6.22275 6.29636 6.29905 6.32118 6.37752 6.32118L6.46968 6.30999C6.57716 6.28514 6.66438 6.22676 6.72536 6.13727C6.78798 6.04368 6.81178 5.93756 6.79426 5.81996C6.72043 5.429 6.54678 5.11086 6.27444 4.8735C5.96272 4.60722 5.54707 4.47217 5.03767 4.47217C4.46017 4.47217 3.98656 4.68716 3.63164 5.1109C3.27753 5.52805 3.09814 6.07729 3.09814 6.74466C3.09814 7.42649 3.27753 7.97953 3.63081 8.38741C3.98493 8.80539 4.45825 9.01738 5.03767 9.01738C5.54627 9.01738 5.963 8.87113 6.27444 8.58494C6.53557 8.3492 6.71658 8.02698 6.81368 7.62565C6.85062 7.46329 6.80332 7.34681 6.7593 7.27941Z" fill="#212121"/>
<path d="M10.7527 5.19C10.3893 4.71363 9.8725 4.47217 9.21733 4.47217C8.55889 4.47217 8.04045 4.71363 7.67512 5.19246C7.36913 5.60172 7.21436 6.12448 7.21436 6.74463C7.21436 7.36478 7.36884 7.88617 7.67592 8.29299C8.04042 8.77345 8.55886 9.01709 9.2173 9.01709C9.87247 9.01709 10.3893 8.77317 10.7521 8.29462C11.066 7.88783 11.2255 7.3667 11.2255 6.74463C11.2255 6.12256 11.0669 5.59925 10.7527 5.19ZM10.1153 7.81576C9.91021 8.09869 9.61628 8.23621 9.21733 8.23621C8.81591 8.23621 8.52197 8.09869 8.32016 7.81739C8.1304 7.55192 8.03334 7.19152 8.03334 6.7446C8.03334 6.2947 8.12959 5.93398 8.32016 5.67097C8.52197 5.38967 8.81591 5.25215 9.21733 5.25215C9.61628 5.25215 9.91021 5.38967 10.1161 5.6726C10.3092 5.93724 10.4068 6.29768 10.4068 6.74457C10.4068 7.18771 10.3084 7.54811 10.1153 7.81576Z" fill="#212121"/>
</svg>
