<svg width="11" height="20" viewBox="0 0 11 20" fill="none" xmlns="http://www.w3.org/2000/svg">
<g id="Group 1000000886">
<path id="Vector" d="M1.6183 10.0016L10.1951 18.5784C10.359 18.7423 10.4398 18.9382 10.4377 19.1663C10.4356 19.3943 10.3525 19.5903 10.1887 19.7542C10.0248 19.9181 9.8288 20 9.60076 20C9.37273 20 9.17676 19.9181 9.01287 19.7542L0.517359 11.2651C0.337754 11.0855 0.206636 10.8852 0.124004 10.6643C0.0413346 10.4434 0 10.2225 0 10.0016C0 9.78073 0.0413346 9.55983 0.124004 9.33893C0.206654 9.11802 0.337773 8.91778 0.517359 8.7382L9.01287 0.242685C9.17676 0.0787922 9.37379 -0.00208963 9.60396 4.10149e-05C9.83414 0.00219019 10.0312 0.0852124 10.1951 0.249106C10.359 0.412999 10.4409 0.608963 10.4409 0.836998C10.4409 1.06503 10.359 1.261 10.1951 1.42489L1.6183 10.0016Z" fill="#C7C7C7"/>
</g>
</svg>
