<svg width="10" height="10" viewBox="0 0 20 20" fill="none" xmlns="http://www.w3.org/2000/svg">
<g id="Close">
<path id="Vector" d="M11.1559 9.99944L17.0153 3.01507C17.1135 2.899 17.0309 2.72266 16.8791 2.72266H15.0979C14.993 2.72266 14.8925 2.76953 14.8233 2.84989L9.99073 8.61105L5.15814 2.84989C5.09117 2.76953 4.99073 2.72266 4.88358 2.72266H3.10233C2.95055 2.72266 2.86796 2.899 2.96617 3.01507L8.82555 9.99944L2.96617 16.9838C2.94417 17.0097 2.93006 17.0413 2.92551 17.075C2.92095 17.1086 2.92615 17.1429 2.94049 17.1737C2.95483 17.2045 2.9777 17.2305 3.00638 17.2487C3.03507 17.2669 3.06837 17.2764 3.10233 17.2762H4.88358C4.9885 17.2762 5.08894 17.2294 5.15814 17.149L9.99073 11.3878L14.8233 17.149C14.8903 17.2294 14.9907 17.2762 15.0979 17.2762H16.8791C17.0309 17.2762 17.1135 17.0999 17.0153 16.9838L11.1559 9.99944Z" fill="black" fill-opacity="0.85"/>
</g>
</svg>
