<svg width="15" height="15" viewBox="0 0 21 21" fill="none" xmlns="http://www.w3.org/2000/svg">
<path d="M7.22822 17.0374L7.22809 17.0372C4.85539 14.7558 2.37216 11.2554 3.29465 7.18703C4.11413 3.58185 7.26279 1.94812 10.0585 1.94812H10.0586H10.0586H10.0587H10.0587H10.0588H10.0588H10.0588H10.0589H10.0589H10.059H10.059H10.0591H10.0591H10.0592H10.0592H10.0593H10.0593H10.0594H10.0594H10.0595H10.0595H10.0595H10.0596H10.0596H10.0597H10.0597H10.0598H10.0598H10.0599H10.0599H10.0599H10.06H10.06H10.0601H10.0601H10.0602H10.0602H10.0602H10.0603H10.0603H10.0604H10.0604H10.0604H10.0605H10.0605H10.0606H10.0606H10.0607H10.0607H10.0607H10.0608H10.0608H10.0609H10.0609H10.0609H10.061H10.061H10.061H10.0611H10.0611H10.0612H10.0612H10.0612H10.0613H10.0613H10.0614H10.0614H10.0614H10.0615H10.0615H10.0615H10.0616H10.0616H10.0616H10.0617H10.0617H10.0618H10.0618H10.0618H10.0619H10.0619H10.0619H10.062H10.062H10.062H10.0621H10.0621H10.0621H10.0622H10.0622H10.0622H10.0623H10.0623H10.0623H10.0624H10.0624H10.0624H10.0625H10.0625H10.0625H10.0626H10.0626H10.0626H10.0627H10.0627H10.0627H10.0627H10.0628H10.0628H10.0628H10.0629H10.0629H10.0629H10.063H10.063H10.063H10.063H10.0631H10.0631H10.0631H10.0632H10.0632H10.0632H10.0632H10.0633H10.0633H10.0633H10.0634H10.0634H10.0634H10.0634H10.0635H10.0635H10.0635H10.0635H10.0636H10.0636H10.0636H10.0637H10.0637H10.0637H10.0637H10.0638H10.0638H10.0638H10.0638H10.0639H10.0639H10.0639H10.0639H10.064H10.064H10.064H10.064H10.0641H10.0641H10.0641H10.0641H10.0641H10.0642H10.0642H10.0642H10.0642H10.0643H10.0643H10.0643H10.0643H10.0644H10.0644H10.0644H10.0644H10.0644H10.0645H10.0645H10.0645H10.0645H10.0645H10.0646H10.0646H10.0646H10.0646H10.0647H10.0647H10.0647H10.0647H10.0647H10.0648H10.0648H10.0648H10.0648H10.0648H10.0648H10.0649H10.0649H10.0649H10.0649H10.0649H10.065H10.065H10.065H10.065H10.065H10.0651H10.0651H10.0651H10.0651H10.0651H10.0651H10.0652H10.0652H10.0652H10.0652H10.0652H10.0652H10.0653H10.0653H10.0653H10.0653H10.0653H10.0653H10.0654H10.0654H10.0654H10.0654H10.0654H10.0654H10.0654H10.0655H10.0655H10.0655H10.0655H10.0655H10.0655H10.0656H10.0656H10.0656H10.0656H10.0656H10.0656H10.0656H10.0657H10.0657H10.0657H10.0657H10.0657H10.0657H10.0657H10.0657H10.0658H10.0658H10.0658H10.0658H10.0658H10.0658H10.0658H10.0658H10.0659H10.0659H10.0659H10.0659H10.0659H10.0659H10.0659H10.0659H10.066H10.066H10.066H10.066H10.066H10.066H10.066H10.066H10.066H10.0661H10.0661H10.0661H10.0661H10.0661H10.0661H10.0661H10.0661H10.0661H10.0661H10.0662H10.0662H10.0662H10.0662H10.0662H10.0662H10.0662H10.0662H10.0662H10.0662H10.0662H10.0663H10.0663H10.0663H10.0663H10.0663H10.0663H10.0663H10.0663H10.0663H10.0663H10.0663H10.0663H10.0664H10.0664H10.0664H10.0664H10.0664H10.0664H10.0664H10.0664H10.0664H10.0664H10.0664H10.0664H10.0664H10.0665H10.0665H10.0665H10.0665H10.0665H10.0665H10.0665H10.0665H10.0665H10.0665H10.0665H10.0665H10.0665H10.0665H10.0665H10.0665H10.0666H10.0666H10.0666H10.0666H10.0666H10.0666H10.0666H10.0666H10.0666H10.0666H10.0666H10.0666H10.0666H10.0666H10.0666H10.0666H10.0666H10.0666H10.0666H10.0667H10.0667H10.0667H10.0667H10.0667H10.0667H10.0667H10.0667H10.0667H10.0667H10.0667H10.0667H10.0667H10.0667H10.0667H10.0667H10.0667H10.0667H10.0667H10.0667H10.0667H10.0668H10.0668H10.0668H10.0668H10.0668H10.0668H10.0668H10.0668H10.0668H10.0668H10.0668H10.0668H10.0668H10.0668H10.0668H10.0668H10.0668H10.0668H10.0668H10.0668H10.0669H10.0669H10.0669H10.0669H10.0669H10.0669H10.0669H10.0669H10.0669H10.0669H10.0669H10.0669C12.8697 1.94812 16.011 3.58919 16.8308 7.19542C17.7532 11.2636 15.2703 14.7555 12.8973 17.0372L12.8955 17.0389C12.1076 17.8044 11.0879 18.1869 10.0669 18.1869C9.04628 18.1869 8.02555 17.8046 7.22822 17.0374ZM6.94497 8.64978C6.94497 10.3742 8.34245 11.7717 10.0669 11.7717C11.7913 11.7717 13.1888 10.3742 13.1888 8.64978C13.1888 6.92534 11.7913 5.52786 10.0669 5.52786C8.34245 5.52786 6.94497 6.92534 6.94497 8.64978Z" stroke="#7B7B7B" stroke-width="0.958749"/>
</svg>
