<svg width="24" height="24" viewBox="0 0 24 24" fill="none" xmlns="http://www.w3.org/2000/svg">
<g id="ShareAlt">
<path id="Vector" d="M18.4284 16.0714C17.665 16.0714 16.9605 16.3393 16.4087 16.7866L10.8587 12.7714C10.9517 12.2613 10.9517 11.7387 10.8587 11.2286L16.4087 7.21339C16.9605 7.66071 17.665 7.92857 18.4284 7.92857C20.2016 7.92857 21.6426 6.4875 21.6426 4.71429C21.6426 2.94107 20.2016 1.5 18.4284 1.5C16.6551 1.5 15.2141 2.94107 15.2141 4.71429C15.2141 5.025 15.2569 5.32232 15.34 5.60625L10.0685 9.42321C9.2864 8.38661 8.04354 7.71429 6.64265 7.71429C4.27479 7.71429 2.35693 9.63214 2.35693 12C2.35693 14.3679 4.27479 16.2857 6.64265 16.2857C8.04354 16.2857 9.2864 15.6134 10.0685 14.5768L15.34 18.3938C15.2569 18.6777 15.2141 18.9777 15.2141 19.2857C15.2141 21.0589 16.6551 22.5 18.4284 22.5C20.2016 22.5 21.6426 21.0589 21.6426 19.2857C21.6426 17.5125 20.2016 16.0714 18.4284 16.0714ZM18.4284 3.32143C19.1971 3.32143 19.8212 3.94554 19.8212 4.71429C19.8212 5.48304 19.1971 6.10714 18.4284 6.10714C17.6596 6.10714 17.0355 5.48304 17.0355 4.71429C17.0355 3.94554 17.6596 3.32143 18.4284 3.32143ZM6.64265 14.3571C5.34354 14.3571 4.28551 13.2991 4.28551 12C4.28551 10.7009 5.34354 9.64286 6.64265 9.64286C7.94176 9.64286 8.99979 10.7009 8.99979 12C8.99979 13.2991 7.94176 14.3571 6.64265 14.3571ZM18.4284 20.6786C17.6596 20.6786 17.0355 20.0545 17.0355 19.2857C17.0355 18.517 17.6596 17.8929 18.4284 17.8929C19.1971 17.8929 19.8212 18.517 19.8212 19.2857C19.8212 20.0545 19.1971 20.6786 18.4284 20.6786Z" fill="black" fill-opacity="0.85"/>
</g>
</svg>
