<svg width="13" height="11" viewBox="0 0 13 11" fill="none" xmlns="http://www.w3.org/2000/svg">
<path d="M9.25277 1.88282L8.2984 2.36103L8.59367 2.95029H9.25277H11.6254V9.82781H7.9134C9.21279 9.23627 10.0962 7.89349 10.0962 6.37688C10.0962 4.3335 8.49255 2.60567 6.42846 2.60567C6.02164 2.60567 5.63274 2.67276 5.27049 2.79612L4.66452 1.58677C4.66181 1.50629 4.65948 1.38487 4.65948 1.20688C4.65948 1.17669 4.67036 1.15885 4.67869 1.15019C4.67964 1.14921 4.68047 1.14842 4.68119 1.1478H8.13672C8.13743 1.14842 8.13827 1.14921 8.13921 1.15019C8.14755 1.15885 8.15842 1.17669 8.15842 1.20688C8.15842 1.52884 8.16523 1.72754 8.17474 1.85663C8.17945 1.92049 8.18594 1.98355 8.19633 2.04441C8.20161 2.07533 8.20958 2.11573 8.22208 2.16136C8.22848 2.18473 8.23706 2.21309 8.24851 2.2448C8.25432 2.26086 8.26116 2.27863 8.26923 2.29774C8.27328 2.30733 8.2777 2.31742 8.28252 2.32793L8.2901 2.34409L8.29416 2.35246L8.29626 2.35672C8.29733 2.35887 8.2984 2.36103 9.25277 1.88282ZM2.76073 6.37688C2.76073 7.89342 3.64384 9.23626 4.94331 9.82781H1.19247V2.95029H3.61888H4.89099C3.62018 3.55375 2.76073 4.88079 2.76073 6.37688Z" fill="white" stroke="white" stroke-width="2.13495"/>
</svg>
