<svg width="25" height="25" viewBox="0 0 25 25" fill="none" xmlns="http://www.w3.org/2000/svg">
<path fill-rule="evenodd" clip-rule="evenodd" d="M10.0262 3.74755C9.77103 3.8284 9.51899 3.92029 9.27085 4.02307C8.13489 4.4936 7.10272 5.18327 6.2333 6.0527C5.36387 6.92212 4.67421 7.95429 4.20367 9.09025C3.83026 9.99176 3.60066 10.9446 3.52179 11.9141H8.05697C8.08936 10.8048 8.19265 9.71166 8.36431 8.67564C8.57478 7.40533 8.88575 6.23477 9.28607 5.23395C9.50463 4.68754 9.75157 4.18735 10.0262 3.74755ZM12.8539 1.79205C11.4249 1.79205 10.01 2.07351 8.68981 2.62033C7.36964 3.16717 6.17011 3.96867 5.15969 4.97909C4.14928 5.9895 3.34777 7.18904 2.80095 8.50921C2.25411 9.82938 1.97266 11.2443 1.97266 12.6733C1.97266 14.1022 2.25411 15.5172 2.80094 16.8373C3.34777 18.1575 4.14928 19.3571 5.15969 20.3675C6.17011 21.3779 7.36964 22.1794 8.68981 22.7262C10.01 23.273 11.4249 23.5545 12.8539 23.5545C14.2828 23.5545 15.6978 23.273 17.0179 22.7262C18.3381 22.1794 19.5377 21.3779 20.5481 20.3675C21.5585 19.3571 22.36 18.1575 22.9068 16.8373C23.4536 15.5172 23.7351 14.1022 23.7351 12.6733C23.7351 11.2443 23.4536 9.82938 22.9068 8.50921C22.36 7.18904 21.5585 5.9895 20.5481 4.97909C19.5377 3.96867 18.3381 3.16717 17.0179 2.62034C15.6978 2.07351 14.2828 1.79205 12.8539 1.79205ZM12.8539 3.31036C12.5894 3.31036 12.2478 3.43769 11.8506 3.84906C11.4504 4.26347 11.0497 4.91295 10.6958 5.79783C10.3442 6.67685 10.0587 7.738 9.86219 8.92382C9.70456 9.87523 9.6079 10.8848 9.57597 11.9141H16.1318C16.0998 10.8848 16.0032 9.87523 15.8456 8.92382C15.6491 7.738 15.3635 6.67686 15.012 5.79784C14.658 4.91295 14.2574 4.26347 13.8572 3.84906C13.46 3.43769 13.1184 3.31036 12.8539 3.31036ZM17.6508 11.9141C17.6184 10.8048 17.5151 9.71167 17.3434 8.67564C17.133 7.40533 16.822 6.23477 16.4217 5.23395C16.2032 4.68754 15.9562 4.18735 15.6815 3.74755C15.9368 3.8284 16.1888 3.92029 16.4369 4.02307C17.5729 4.4936 18.605 5.18327 19.4744 6.0527C20.3439 6.92213 21.0335 7.95429 21.5041 9.09025C21.8775 9.99176 22.1071 10.9446 22.1859 11.9141H17.6508ZM16.1318 13.4324H9.57597C9.6079 14.4617 9.70456 15.4713 9.86219 16.4227C10.0587 17.6086 10.3442 18.6697 10.6958 19.5487C11.0497 20.4336 11.4504 21.0831 11.8506 21.4975C12.2478 21.9089 12.5894 22.0362 12.8539 22.0362C13.1184 22.0362 13.46 21.9089 13.8572 21.4975C14.2574 21.0831 14.658 20.4336 15.012 19.5487C15.3635 18.6697 15.6491 17.6086 15.8456 16.4227C16.0032 15.4713 16.0998 14.4617 16.1318 13.4324ZM15.6815 21.599C15.9562 21.1592 16.2032 20.659 16.4217 20.1126C16.822 19.1118 17.133 17.9412 17.3434 16.6709C17.5151 15.6349 17.6184 14.5417 17.6508 13.4324H22.1859C22.1071 14.4019 21.8775 15.3548 21.5041 16.2563C21.0335 17.3923 20.3439 18.4244 19.4744 19.2938C18.605 20.1633 17.5729 20.8529 16.4369 21.3235C16.1888 21.4262 15.9368 21.5181 15.6815 21.599ZM10.0262 21.599C9.75157 21.1592 9.50463 20.659 9.28606 20.1126C8.88574 19.1118 8.57478 17.9412 8.36431 16.6709C8.19265 15.6349 8.08936 14.5417 8.05697 13.4324H3.52179C3.60066 14.4019 3.83026 15.3548 4.20367 16.2563C4.67421 17.3923 5.36387 18.4244 6.2333 19.2938C7.10272 20.1633 8.13489 20.8529 9.27085 21.3235C9.51899 21.4262 9.77103 21.5181 10.0262 21.599Z" fill="#FF4F4F"/>
</svg>
