<svg width="40" height="40" viewBox="0 0 40 40" fill="none" xmlns="http://www.w3.org/2000/svg">
<path d="M30.7778 16.8549L30.642 7.42681C30.6436 6.78608 30.3998 6.17085 29.9642 5.71613C29.5286 5.26141 28.9366 5.00433 28.3183 5.00131H21.0095C19.3833 5.00131 17.8794 5.73669 16.8369 7.02868C16.3292 6.39146 15.6914 5.87895 14.9694 5.52814C14.2474 5.17732 13.4593 4.99695 12.6618 5.00004H5.32247C4.70412 5.00339 4.11231 5.26079 3.6769 5.71576C3.2415 6.17072 2.99806 6.78608 3.00001 7.42681V27.603C3.00001 28.9406 4.04133 30.0285 5.32247 30.0285H12.8968C13.591 30.7253 14.4472 31.2245 15.3823 31.4777C16.3174 31.731 17.2998 31.7296 18.2343 31.4739C18.4142 31.4231 18.9856 28.8265 18.7849 28.9837C18.4873 29.2186 18.1534 29.3995 17.7974 29.5188V10.2137C17.7974 8.36632 19.6182 6.98684 21.2457 6.98684H27.9573C28.3733 6.98684 28.7233 7.35454 28.7233 7.78816L28.853 16.273L30.7778 16.8549ZM13.2639 27.9428H5.68345C5.48022 27.9388 5.28649 27.8529 5.14345 27.7032C5.0004 27.5536 4.91933 27.352 4.91745 27.1414V7.77294C4.91745 7.33805 5.26863 6.97036 5.68345 6.97036H12.3951C14.0225 6.97036 15.8433 8.35111 15.8433 10.1984V29.5264C15.2338 29.3243 14.6912 28.9491 14.277 28.4436C14.0323 28.1304 13.653 27.9428 13.2639 27.9428Z" fill="#FF4F4F"/>
<path d="M12.1598 17.6854H8.3887C8.1385 17.6854 7.89855 17.578 7.72163 17.3868C7.54471 17.1957 7.44531 16.9364 7.44531 16.6661C7.44531 16.3958 7.54471 16.1366 7.72163 15.9454C7.89855 15.7543 8.1385 15.6469 8.3887 15.6469H12.1598C12.4099 15.6469 12.6497 15.7542 12.8265 15.9452C13.0033 16.1363 13.1026 16.3953 13.1026 16.6655C13.1026 16.9356 13.0033 17.1947 12.8265 17.3857C12.6497 17.5767 12.4099 17.684 12.1598 17.684V17.6854ZM12.1598 12.5912H8.3887C8.14467 12.5817 7.91354 12.4703 7.74399 12.2805C7.57444 12.0906 7.47969 11.8371 7.47969 11.5733C7.47969 11.3094 7.57444 11.0559 7.74399 10.866C7.91354 10.6762 8.14467 10.5648 8.3887 10.5553H12.1598C12.2864 10.5504 12.4126 10.5731 12.5309 10.6221C12.6491 10.671 12.7571 10.7452 12.8482 10.8402C12.9394 10.9352 13.0119 11.0491 13.0614 11.1751C13.1109 11.301 13.1364 11.4364 13.1364 11.5733C13.1364 11.7101 13.1109 11.8455 13.0614 11.9715C13.0119 12.0974 12.9394 12.2113 12.8482 12.3063C12.7571 12.4013 12.6491 12.4755 12.5309 12.5244C12.4126 12.5734 12.2864 12.5961 12.1598 12.5912ZM8.3887 20.7398H12.1598C12.4099 20.7398 12.6497 20.8471 12.8265 21.0381C13.0033 21.2291 13.1026 21.4882 13.1026 21.7583C13.1026 22.0285 13.0033 22.2876 12.8265 22.4786C12.6497 22.6696 12.4099 22.7769 12.1598 22.7769H8.3887C8.13866 22.7769 7.89886 22.6696 7.72205 22.4786C7.54525 22.2876 7.44592 22.0285 7.44592 21.7583C7.44592 21.4882 7.54525 21.2291 7.72205 21.0381C7.89886 20.8471 8.13866 20.7398 8.3887 20.7398ZM25.3576 12.5912H20.6449C20.4009 12.5817 20.1698 12.4703 20.0002 12.2805C19.8307 12.0906 19.7359 11.8371 19.7359 11.5733C19.7359 11.3094 19.8307 11.0559 20.0002 10.866C20.1698 10.6762 20.4009 10.5648 20.6449 10.5553H25.3576C25.4842 10.5504 25.6104 10.5731 25.7287 10.6221C25.8469 10.671 25.9549 10.7452 26.046 10.8402C26.1372 10.9352 26.2097 11.0491 26.2592 11.1751C26.3087 11.301 26.3342 11.4364 26.3342 11.5733C26.3342 11.7101 26.3087 11.8455 26.2592 11.9715C26.2097 12.0974 26.1372 12.2113 26.046 12.3063C25.9549 12.4013 25.8469 12.4755 25.7287 12.5244C25.6104 12.5734 25.4842 12.5961 25.3576 12.5912Z" fill="#FF4F4F"/>
<path d="M30.6006 17.2227C30.7359 17.2227 30.8573 17.2442 31.0103 17.2899L31.1747 17.3431L31.0836 17.3292L31.3062 17.4217L31.2417 17.3736L33.4772 18.6352C34.1207 18.9865 34.4406 19.6662 34.2472 20.3052L34.1928 20.4523L34.1713 20.5069C34.1207 20.6463 34.0385 20.957 34.0385 21.1447C34.0385 22.1337 34.801 22.9503 35.7708 23.0378L35.944 23.0467H36.0414C36.585 23.0467 37.02 23.4461 37.1882 24.0155L37.2274 24.174L37.2451 24.278V24.2615L37.3159 24.685C37.3993 25.2112 37.4436 25.6272 37.4436 26.0393C37.4436 26.4793 37.3968 26.9167 37.3083 27.4506L37.2501 27.7828L37.2577 27.7511L37.24 27.8627C37.1186 28.5195 36.7279 28.9633 36.183 29.0267L36.0439 29.0356H35.9453C34.9578 29.0356 34.1435 29.7888 34.0499 30.7513L34.0373 30.9795L34.0348 31.1139C34.0411 31.2509 34.0727 31.398 34.1233 31.5451L34.1789 31.6896L34.1852 31.7289L34.2105 31.7606C34.4318 32.2907 34.3142 32.9234 33.9551 33.3127L33.8413 33.4217L33.6693 33.5447L31.3745 34.8102C31.1039 34.9434 30.9003 35.0004 30.6386 35.0004C30.2163 35.0004 29.8079 34.8331 29.5133 34.5376C28.8773 33.9023 28.2792 33.5447 27.9226 33.5447C27.7975 33.5495 27.6744 33.5779 27.5598 33.6284C27.3177 33.7346 27.09 33.8709 26.882 34.0342L26.6241 34.2383L26.3206 34.4932L26.2321 34.5845C26.0551 34.7443 25.8225 34.8559 25.5683 34.9104L25.3723 34.9408L25.2042 34.9484C25.0588 34.9484 24.9311 34.9231 24.7427 34.8635L24.5884 34.8102L22.3365 33.565C21.784 33.191 21.5184 32.4872 21.7005 31.8773L21.7397 31.7619L21.7688 31.6883L21.8295 31.4981C21.8591 31.3975 21.8819 31.295 21.8978 31.1913C21.9056 31.1392 21.9099 31.0867 21.9104 31.034C21.9104 30.045 21.148 29.2284 20.1782 29.1409L19.9544 29.1333C19.4107 29.1333 18.9757 28.7326 18.8076 28.1632L18.7684 28.0047L18.7507 27.8982L18.7545 27.9464L18.733 27.8056L18.6571 27.3377C18.6216 27.0961 18.5942 26.8534 18.5749 26.6099C18.5621 26.4534 18.5554 26.2965 18.5547 26.1394C18.5547 25.9936 18.561 25.8351 18.5749 25.6677C18.5926 25.4382 18.6204 25.196 18.6584 24.9399L18.7481 24.3769L18.7519 24.3845L18.7633 24.297L18.7987 24.1423C18.9378 23.6376 19.2501 23.2864 19.6712 23.1786L19.8166 23.152L19.9556 23.1431H20.0543C21.1037 23.1431 21.9585 22.2897 21.9585 21.241C21.9585 21.0534 21.9129 20.8568 21.8421 20.6628L21.7536 20.4447C21.4691 19.8056 21.6853 19.0093 22.1987 18.6961L22.2682 18.6416L24.6099 17.3812L24.5619 17.4167L24.6845 17.3406L24.7035 17.3342C24.8788 17.2663 25.0644 17.229 25.2522 17.2239C25.6733 17.2239 26.0817 17.3926 26.3775 17.688C26.8504 18.161 27.5383 18.5833 27.9252 18.5833C28.3057 18.5833 28.9936 18.161 29.4715 17.6893C29.7535 17.4065 30.1973 17.2239 30.5994 17.2239L30.6006 17.2227ZM25.2775 19.1209L23.6338 20.0326L23.6768 20.1658C23.7463 20.4054 23.7956 20.6527 23.8159 20.9012L23.826 21.1485C23.8218 22.0356 23.5118 22.894 22.9486 23.578C22.3853 24.2621 21.6036 24.7298 20.7358 24.9018L20.5765 24.9259L20.5107 25.5016L20.4981 25.6272C20.4726 25.8774 20.4684 26.1294 20.4854 26.3804L20.5234 26.8052L20.5752 27.2249L20.579 27.2477L20.7396 27.2731C21.4301 27.4054 22.0707 27.7267 22.5907 28.2013L22.7791 28.3851C23.4542 29.0952 23.8285 30.0348 23.8285 31.0315C23.8285 31.3587 23.7729 31.6909 23.6806 32.0155L23.6376 32.1486L25.1081 32.9868L25.2636 32.8384C25.342 32.7687 25.4229 32.7028 25.5076 32.6381L25.7706 32.4517L25.7327 32.4745C26.4787 31.947 27.1792 31.6731 27.8227 31.6731C28.4132 31.6731 29.0429 31.8874 29.7029 32.3071L29.9368 32.4631L30.1518 32.5912C30.2959 32.6837 30.435 32.7865 30.564 32.8955L30.679 32.9995L32.2444 32.1448L32.2064 32.0231C32.1357 31.7832 32.0891 31.5368 32.0673 31.2876L32.056 31.0353C32.056 30.0539 32.4277 29.1218 33.1016 28.413C33.6534 27.8269 34.3755 27.4302 35.1651 27.2794L35.3257 27.254L35.3421 27.1285C35.37 26.8927 35.3927 26.6137 35.4028 26.3512L35.4079 26.0951C35.4079 26.0076 35.4041 25.9099 35.3965 25.8021L35.3712 25.508L35.3017 24.9323L35.1424 24.9069C34.4521 24.7753 33.8115 24.4549 33.2913 23.9813L33.1029 23.7961C32.4251 23.0832 32.049 22.1347 32.0534 21.1497C32.0534 20.8581 32.104 20.5398 32.2026 20.1949L32.2519 20.0377L30.6866 19.164L30.5855 19.2528C30.4773 19.3452 30.365 19.4328 30.2491 19.5153L30.0961 19.6167L30.0494 19.656C29.3476 20.1404 28.6307 20.4105 28.0137 20.4105C27.4472 20.4105 26.8782 20.2253 26.2018 19.8272L25.9059 19.6433C25.735 19.5276 25.5728 19.3996 25.4204 19.2604L25.2775 19.1209Z" fill="#FF4F4F"/>
<path d="M27.4441 22.7785C28.3241 22.7785 29.1599 23.1268 29.7967 23.76C30.1072 24.067 30.3538 24.433 30.5223 24.8365C30.6907 25.24 30.7777 25.6731 30.778 26.1106C30.778 26.9987 30.4346 27.8341 29.8145 28.4565C29.5054 28.7717 29.1365 29.0215 28.7295 29.1911C28.3226 29.3607 27.8859 29.4467 27.4453 29.4439C26.5665 29.4439 25.7294 29.0945 25.0927 28.4625C24.782 28.1553 24.5353 27.7892 24.3668 27.3854C24.1984 26.9817 24.1115 26.5484 24.1113 26.1106C24.1113 25.2285 24.4607 24.3931 25.0927 23.7576C25.4009 23.4467 25.7673 23.2 26.1709 23.0318C26.5744 22.8636 27.0071 22.7771 27.4441 22.7773V22.7785ZM27.4453 24.593C26.6046 24.593 25.9202 25.2776 25.9202 26.1166C25.9202 26.9556 26.6046 27.6403 27.4465 27.6403C28.2859 27.6403 28.9715 26.9556 28.9715 26.1178C28.9728 25.9166 28.9341 25.7172 28.8578 25.5311C28.7815 25.3451 28.669 25.1761 28.5269 25.0342C28.3848 24.8923 28.216 24.7801 28.0303 24.7044C27.8446 24.6286 27.6457 24.5908 27.4453 24.593Z" fill="#FF4F4F"/>
</svg>
