<svg width="82" height="82" viewBox="0 0 82 82" fill="none" xmlns="http://www.w3.org/2000/svg">
<path d="M40.9992 78.9239C20.0872 78.9239 3.07422 61.911 3.07422 40.9989C3.07422 20.0869 20.0872 3.07394 40.9992 3.07394C61.9113 3.07394 78.9242 20.0869 78.9242 40.9989C78.9242 61.911 61.9113 78.9239 40.9992 78.9239Z" fill="white"/>
<path d="M40.9979 4.09712C61.3441 4.09712 77.8979 20.6509 77.8979 40.9971C77.8979 61.3434 61.3441 77.8971 40.9979 77.8971C20.6516 77.8971 4.09785 61.3434 4.09785 40.9971C4.09785 20.6509 20.6516 4.09712 40.9979 4.09712ZM40.9979 2.04712C19.4872 2.04712 2.04785 19.4865 2.04785 40.9971C2.04785 62.5078 19.4872 79.9471 40.9979 79.9471C62.5085 79.9471 79.9479 62.5078 79.9479 40.9971C79.9479 19.4865 62.5085 2.04712 40.9979 2.04712Z" fill="#9E9E9E"/>
<path d="M48.8987 50.2199H33.1013C32.1809 50.4392 15.375 54.6253 15.375 66.0295V68.8954C22.1277 75.1007 31.1067 78.9199 41 78.9199C50.8933 78.9199 59.8723 75.1007 66.625 68.8954V66.0295C66.625 54.6315 49.8191 50.4392 48.8987 50.2199Z" fill="#E0E0E0"/>
<path d="M40.9986 79.95C31.2529 79.95 21.9049 76.2948 14.6807 69.6569L14.3486 69.3515V66.0346C14.3486 53.7961 32.1057 49.4091 32.8622 49.2287L33.1 49.2L49.1351 49.2287C49.8915 49.4091 67.6486 53.7961 67.6486 66.0346V69.3515L67.3165 69.6549C60.0923 76.2948 50.7443 79.95 40.9986 79.95ZM16.3986 68.4474C23.1964 74.5462 31.9151 77.9 40.9986 77.9C50.0822 77.9 58.8008 74.5462 65.5986 68.4474V66.0346C65.5986 55.7395 50.3835 51.6518 48.7722 51.25H33.223C31.6137 51.6518 16.3986 55.7374 16.3986 66.0346V68.4474Z" fill="#9E9E9E"/>
<path d="M40.9998 42.0156C33.6526 42.0156 27.6748 36.0378 27.6748 28.6906C27.6748 21.3434 33.6526 15.3656 40.9998 15.3656C48.347 15.3656 54.3248 21.3434 54.3248 28.6906C54.3248 36.0378 48.347 42.0156 40.9998 42.0156Z" fill="white"/>
<path d="M40.9994 43.0412C33.0864 43.0412 26.6494 36.6022 26.6494 28.6912C26.6494 20.7803 33.0864 14.3412 40.9994 14.3412C48.9124 14.3412 55.3494 20.7803 55.3494 28.6912C55.3494 36.6022 48.9124 43.0412 40.9994 43.0412ZM40.9994 16.3912C34.216 16.3912 28.6994 21.9078 28.6994 28.6912C28.6994 35.4747 34.216 40.9912 40.9994 40.9912C47.7829 40.9912 53.2994 35.4747 53.2994 28.6912C53.2994 21.9078 47.7829 16.3912 40.9994 16.3912Z" fill="#9E9E9E"/>
</svg>
