<svg width="23" height="23" viewBox="0 0 23 23" fill="none" xmlns="http://www.w3.org/2000/svg">
<path fill-rule="evenodd" clip-rule="evenodd" d="M11.7943 1.76068C9.34443 1.76068 7.3584 3.74671 7.3584 6.1966C7.3584 8.64649 9.34443 10.6325 11.7943 10.6325C14.2443 10.6325 16.2302 8.64649 16.2302 6.1966C16.2302 3.74671 14.2443 1.76068 11.7943 1.76068ZM8.75922 6.1966C8.75922 4.52036 10.1181 3.1615 11.7943 3.1615C13.4705 3.1615 14.8294 4.52036 14.8294 6.1966C14.8294 7.87285 13.4705 9.23171 11.7943 9.23171C10.1181 9.23171 8.75922 7.87285 8.75922 6.1966Z" fill="#FF4F4F"/>
<path fill-rule="evenodd" clip-rule="evenodd" d="M11.7942 12.0333C9.88971 12.0333 8.13108 12.473 6.82424 13.2197C5.53721 13.9552 4.55664 15.0779 4.55664 16.4692C4.55664 17.8606 5.53721 18.9833 6.82424 19.7188C8.13108 20.4655 9.88971 20.9052 11.7942 20.9052C13.6987 20.9052 15.4573 20.4655 16.7642 19.7188C18.0512 18.9833 19.0318 17.8606 19.0318 16.4692C19.0318 15.0779 18.0512 13.9552 16.7642 13.2197C15.4573 12.473 13.6987 12.0333 11.7942 12.0333ZM5.95746 16.4692C5.95746 15.7975 6.44028 15.0526 7.51924 14.436C8.57838 13.8308 10.0883 13.4341 11.7942 13.4341C13.5001 13.4341 15.01 13.8308 16.0691 14.436C17.1481 15.0526 17.6309 15.7975 17.6309 16.4692C17.6309 17.141 17.1481 17.8859 16.0691 18.5025C15.01 19.1077 13.5001 19.5044 11.7942 19.5044C10.0883 19.5044 8.57838 19.1077 7.51924 18.5025C6.44028 17.8859 5.95746 17.141 5.95746 16.4692Z" fill="#FF4F4F"/>
</svg>
