<svg width="23" height="24" viewBox="0 0 23 24" fill="none" xmlns="http://www.w3.org/2000/svg">
<path fill-rule="evenodd" clip-rule="evenodd" d="M11.7943 2.10739C9.34443 2.10739 7.3584 4.09342 7.3584 6.54331C7.3584 8.9932 9.34443 10.9792 11.7943 10.9792C14.2443 10.9792 16.2302 8.9932 16.2302 6.54331C16.2302 4.09342 14.2443 2.10739 11.7943 2.10739ZM8.75922 6.54331C8.75922 4.86707 10.1181 3.50821 11.7943 3.50821C13.4705 3.50821 14.8294 4.86707 14.8294 6.54331C14.8294 8.21956 13.4705 9.57842 11.7943 9.57842C10.1181 9.57842 8.75922 8.21956 8.75922 6.54331Z" fill="#FF4F4F"/>
<path fill-rule="evenodd" clip-rule="evenodd" d="M11.7942 12.38C9.88971 12.38 8.13108 12.8197 6.82424 13.5664C5.53721 14.3019 4.55664 15.4246 4.55664 16.816C4.55664 18.2073 5.53721 19.3301 6.82424 20.0655C8.13108 20.8122 9.88971 21.2519 11.7942 21.2519C13.6987 21.2519 15.4573 20.8122 16.7642 20.0655C18.0512 19.3301 19.0318 18.2073 19.0318 16.816C19.0318 15.4246 18.0512 14.3019 16.7642 13.5664C15.4573 12.8197 13.6987 12.38 11.7942 12.38ZM5.95746 16.816C5.95746 16.1442 6.44028 15.3993 7.51924 14.7827C8.57838 14.1775 10.0883 13.7809 11.7942 13.7809C13.5001 13.7809 15.01 14.1775 16.0691 14.7827C17.1481 15.3993 17.6309 16.1442 17.6309 16.816C17.6309 17.4877 17.1481 18.2327 16.0691 18.8492C15.01 19.4544 13.5001 19.8511 11.7942 19.8511C10.0883 19.8511 8.57838 19.4544 7.51924 18.8492C6.44028 18.2327 5.95746 17.4877 5.95746 16.816Z" fill="#FF4F4F"/>
<path d="M18.8253 5C18.3933 5 18.0431 5.35024 18.0431 5.78229C18.0431 6.21434 18.3933 6.56458 18.8253 6.56458H20.0659L17.2291 9.40135C16.9236 9.70686 16.9236 10.2022 17.2291 10.5077C17.5346 10.8132 18.0299 10.8132 18.3354 10.5077L21.1722 7.67091V8.91146C21.1722 9.34351 21.5225 9.69375 21.9545 9.69375C22.3866 9.69375 22.7368 9.34351 22.7368 8.91146V5.78229C22.7368 5.35024 22.3866 5 21.9545 5H18.8253Z" fill="#FF4F4F"/>
</svg>
