<svg width="20" height="20" viewBox="0 0 20 20" fill="none" xmlns="http://www.w3.org/2000/svg">
<path fill-rule="evenodd" clip-rule="evenodd" d="M9.9506 1.04126H10.0548C11.7784 1.04124 13.1425 1.04124 14.2098 1.20067C15.3131 1.36549 16.1879 1.71193 16.8689 2.46854C17.5414 3.21573 17.8415 4.15978 17.9859 5.35255C18.1277 6.52471 18.1277 8.02874 18.1277 9.95609V10.0431C18.1277 11.9704 18.1277 13.4745 17.9859 14.6467C17.8415 15.8394 17.5414 16.7834 16.8689 17.5307C16.1879 18.2873 15.3131 18.6337 14.2098 18.7985C13.1425 18.9579 11.7784 18.9579 10.0548 18.9579H9.9506C8.22702 18.9579 6.86286 18.9579 5.79558 18.7985C4.69224 18.6337 3.81743 18.2873 3.13648 17.5307C2.46401 16.7834 2.16384 15.8394 2.0195 14.6467C1.87767 13.4745 1.87768 11.9704 1.87769 10.0431V9.95609C1.87768 8.02875 1.87767 6.52471 2.0195 5.35255C2.16384 4.15978 2.46401 3.21573 3.13648 2.46854C3.81743 1.71193 4.69224 1.36549 5.79558 1.20067C6.86286 1.04124 8.22704 1.04124 9.9506 1.04126ZM5.98026 2.43695C5.04124 2.57723 4.48299 2.84097 4.06559 3.30475C3.63971 3.77796 3.39071 4.4262 3.26045 5.50271C3.12877 6.59103 3.12769 8.01947 3.12769 9.99959C3.12769 11.9798 3.12877 13.4082 3.26045 14.4965C3.39071 15.573 3.63971 16.2213 4.06559 16.6944C4.48299 17.1582 5.04124 17.4219 5.98026 17.5623C6.94459 17.7063 8.21535 17.7079 10.0027 17.7079C11.79 17.7079 13.0608 17.7063 14.0251 17.5623C14.9641 17.4219 15.5224 17.1582 15.9398 16.6944C16.3657 16.2213 16.6147 15.573 16.7449 14.4965C16.8766 13.4082 16.8777 11.9798 16.8777 9.99959C16.8777 8.01947 16.8766 6.59103 16.7449 5.50271C16.6147 4.4262 16.3657 3.77796 15.9398 3.30475C15.5224 2.84097 14.9641 2.57723 14.0251 2.43695C13.0608 2.29289 11.79 2.29126 10.0027 2.29126C8.21535 2.29126 6.94459 2.29289 5.98026 2.43695ZM7.43279 4.37454C7.45585 4.37457 7.47915 4.37459 7.50269 4.37459H12.5027C12.5262 4.37459 12.5495 4.37457 12.5726 4.37454C12.8899 4.37421 13.1637 4.37392 13.4046 4.43849C14.0517 4.61186 14.5571 5.11726 14.7304 5.76431C14.795 6.00526 14.7948 6.27904 14.7944 6.59636C14.7944 6.61943 14.7944 6.64273 14.7944 6.66626C14.7944 6.68979 14.7944 6.71309 14.7944 6.73617C14.7948 7.05349 14.795 7.32726 14.7304 7.56821C14.5571 8.21526 14.0517 8.72068 13.4046 8.89401C13.1637 8.95859 12.8899 8.95834 12.5726 8.95801C12.5495 8.95793 12.5262 8.95793 12.5027 8.95793H7.50269C7.47915 8.95793 7.45585 8.95793 7.43279 8.95801C7.11546 8.95834 6.84169 8.95859 6.60074 8.89401C5.95369 8.72068 5.44829 8.21526 5.27491 7.56821C5.21034 7.32726 5.21064 7.05349 5.21097 6.73617C5.21099 6.71309 5.21102 6.68979 5.21102 6.66626C5.21102 6.64273 5.21099 6.61943 5.21097 6.59636C5.21064 6.27904 5.21034 6.00526 5.27491 5.76431C5.44829 5.11726 5.95369 4.61186 6.60074 4.43849C6.84169 4.37392 7.11546 4.37421 7.43279 4.37454ZM7.50269 5.62459C7.07496 5.62459 6.9837 5.62996 6.92426 5.64589C6.70858 5.70368 6.54011 5.87215 6.48232 6.08784C6.46639 6.14728 6.46102 6.23853 6.46102 6.66626C6.46102 7.09399 6.46639 7.18524 6.48232 7.24469C6.54011 7.46037 6.70858 7.62884 6.92426 7.68664C6.9837 7.70256 7.07496 7.70793 7.50269 7.70793H12.5027C12.9304 7.70793 13.0217 7.70256 13.0811 7.68664C13.2968 7.62884 13.4653 7.46037 13.523 7.24469C13.539 7.18524 13.5444 7.09399 13.5444 6.66626C13.5444 6.23853 13.539 6.14728 13.523 6.08784C13.4653 5.87215 13.2968 5.70368 13.0811 5.64589C13.0217 5.62996 12.9304 5.62459 12.5027 5.62459H7.50269Z" fill="#FF3A3A"/>
<path d="M7.50016 10.8321C7.50016 11.2924 7.12707 11.6654 6.66683 11.6654C6.2066 11.6654 5.8335 11.2924 5.8335 10.8321C5.8335 10.3719 6.2066 9.99878 6.66683 9.99878C7.12707 9.99878 7.50016 10.3719 7.50016 10.8321Z" fill="#FF3A3A"/>
<path d="M7.50016 14.1637C7.50016 14.6239 7.12707 14.997 6.66683 14.997C6.2066 14.997 5.8335 14.6239 5.8335 14.1637C5.8335 13.7034 6.2066 13.3303 6.66683 13.3303C7.12707 13.3303 7.50016 13.7034 7.50016 14.1637Z" fill="#FF3A3A"/>
<path d="M10.8339 10.8321C10.8339 11.2924 10.4608 11.6654 10.0006 11.6654C9.54032 11.6654 9.16724 11.2924 9.16724 10.8321C9.16724 10.3719 9.54032 9.99878 10.0006 9.99878C10.4608 9.99878 10.8339 10.3719 10.8339 10.8321Z" fill="#FF3A3A"/>
<path d="M10.8339 14.1637C10.8339 14.6239 10.4608 14.997 10.0006 14.997C9.54032 14.997 9.16724 14.6239 9.16724 14.1637C9.16724 13.7034 9.54032 13.3303 10.0006 13.3303C10.4608 13.3303 10.8339 13.7034 10.8339 14.1637Z" fill="#FF3A3A"/>
<path d="M14.1676 10.8321C14.1676 11.2924 13.7946 11.6654 13.3343 11.6654C12.8741 11.6654 12.501 11.2924 12.501 10.8321C12.501 10.3719 12.8741 9.99878 13.3343 9.99878C13.7946 9.99878 14.1676 10.3719 14.1676 10.8321Z" fill="#FF3A3A"/>
<path d="M14.1676 14.1683C14.1676 14.6285 13.7946 15.0016 13.3343 15.0016C12.8741 15.0016 12.501 14.6285 12.501 14.1683C12.501 13.708 12.8741 13.335 13.3343 13.335C13.7946 13.335 14.1676 13.708 14.1676 14.1683Z" fill="#FF3A3A"/>
</svg>
