<svg width="37" height="36" viewBox="0 0 37 36" fill="none" xmlns="http://www.w3.org/2000/svg">
<path fill-rule="evenodd" clip-rule="evenodd" d="M23.2116 1.875H26.3676C27.7153 1.87496 28.8391 1.87493 29.7313 1.99487C30.673 2.12148 31.5232 2.39999 32.2063 3.08319C32.8896 3.7664 33.1681 4.6166 33.2947 5.55828C33.4147 6.45047 33.4146 7.5743 33.4146 8.92202V31.875H33.7896C34.4109 31.875 34.9146 32.3787 34.9146 33C34.9146 33.6213 34.4109 34.125 33.7896 34.125H3.78955C3.16824 34.125 2.66455 33.6213 2.66455 33C2.66455 32.3787 3.16824 31.875 3.78955 31.875H4.16455V13.422C4.16451 12.0743 4.16446 10.9505 4.28442 10.0583C4.41103 9.1166 4.68954 8.2664 5.37274 7.58319C6.05595 6.89999 6.90615 6.62148 7.84783 6.49487C8.74 6.37493 9.86383 6.37496 11.2116 6.375H16.2066C16.2837 5.06375 16.5255 3.93048 17.3728 3.08319C18.0559 2.39999 18.9061 2.12148 19.8478 1.99487C20.74 1.87493 21.8638 1.87496 23.2116 1.875ZM17.2998 8.625H17.2941H17.2896H11.2896C9.84354 8.625 8.8722 8.6274 8.14764 8.72481C7.45545 8.81787 7.1592 8.9787 6.96373 9.17418C6.76825 9.36966 6.60742 9.6659 6.51436 10.3581C6.41694 11.0826 6.41455 12.054 6.41455 13.5V31.875H13.1646V28.5C13.1646 27.8787 13.6682 27.375 14.2896 27.375C14.9109 27.375 15.4146 27.8787 15.4146 28.5V31.875H22.1646V13.5C22.1646 12.054 22.1622 11.0826 22.0648 10.3581C21.9717 9.6659 21.8109 9.36966 21.6154 9.17418C21.42 8.9787 21.1237 8.81787 20.4315 8.72481C19.7086 8.62763 18.7402 8.62502 17.2998 8.625ZM24.4146 31.875V13.422C24.4146 12.0743 24.4147 10.9505 24.2947 10.0583C24.1681 9.1166 23.8896 8.2664 23.2063 7.58319C22.5232 6.89999 21.673 6.62148 20.7313 6.49487C20.0932 6.4091 19.3368 6.38468 18.4647 6.37775C18.5398 5.32829 18.705 4.93295 18.9637 4.67418C19.1592 4.4787 19.4554 4.31787 20.1477 4.22481C20.8722 4.1274 21.8436 4.125 23.2896 4.125H26.2896C27.7356 4.125 28.707 4.1274 29.4315 4.22481C30.1237 4.31787 30.42 4.4787 30.6154 4.67418C30.8109 4.86966 30.9717 5.1659 31.0648 5.85809C31.1622 6.58265 31.1646 7.55399 31.1646 9V31.875H24.4146ZM8.66455 12C8.66455 11.3787 9.16824 10.875 9.78955 10.875H18.7896C19.4109 10.875 19.9146 11.3787 19.9146 12C19.9146 12.6213 19.4109 13.125 18.7896 13.125H9.78955C9.16824 13.125 8.66455 12.6213 8.66455 12ZM8.66455 16.5C8.66455 15.8787 9.16824 15.375 9.78955 15.375H18.7896C19.4109 15.375 19.9146 15.8787 19.9146 16.5C19.9146 17.1213 19.4109 17.625 18.7896 17.625H9.78955C9.16824 17.625 8.66455 17.1213 8.66455 16.5ZM8.66455 21C8.66455 20.3787 9.16824 19.875 9.78955 19.875H18.7896C19.4109 19.875 19.9146 20.3787 19.9146 21C19.9146 21.6213 19.4109 22.125 18.7896 22.125H9.78955C9.16824 22.125 8.66455 21.6213 8.66455 21Z" fill="#FF4F4F"/>
</svg>
