<svg width="18" height="20" viewBox="0 0 18 20" fill="none" xmlns="http://www.w3.org/2000/svg">
<path fill-rule="evenodd" clip-rule="evenodd" d="M8.94742 4.21583e-07H9.05235C10.7619 -1.81831e-05 12.116 -2.75429e-05 13.1757 0.142456C14.2663 0.289079 15.1491 0.598028 15.8453 1.29418C16.5414 1.99034 16.8503 2.87308 16.997 3.9637C17.1394 5.02343 17.1394 6.37752 17.1394 8.08706V11.9129C17.1394 13.6225 17.1394 14.9766 16.997 16.0363C16.8503 17.1269 16.5414 18.0097 15.8453 18.7059C15.1491 19.402 14.2663 19.7109 13.1757 19.8576C12.116 20 10.7619 20 9.05235 20H8.94742C7.23784 20 5.88379 20 4.82405 19.8576C3.73343 19.7109 2.85069 19.402 2.15453 18.7059C1.45838 18.0097 1.14943 17.1269 1.00281 16.0363C0.860324 14.9766 0.860333 13.6225 0.860352 11.9129V8.08705C0.860333 6.37751 0.860324 5.02343 1.00281 3.9637C1.14943 2.87308 1.45838 1.99034 2.15453 1.29418C2.85069 0.598028 3.73343 0.289079 4.82405 0.142456C5.88379 -2.75429e-05 7.23784 -1.81831e-05 8.94742 4.21583e-07ZM5.00998 1.52536C4.07408 1.65118 3.53487 1.88715 3.14119 2.28084C2.74751 2.67452 2.51153 3.21373 2.38571 4.14963C2.25718 5.10559 2.2557 6.36575 2.2557 8.13953V11.8605C2.2557 13.6342 2.25718 14.8944 2.38571 15.8504C2.51153 16.7862 2.74751 17.3255 3.14119 17.7192C3.53487 18.1128 4.07408 18.3488 5.00998 18.4746C5.96594 18.6032 7.22612 18.6047 8.99989 18.6047C10.7737 18.6047 12.0338 18.6032 12.9898 18.4746C13.9257 18.3488 14.4649 18.1128 14.8586 17.7192C15.2523 17.3255 15.4883 16.7862 15.614 15.8504C15.7426 14.8944 15.7441 13.6342 15.7441 11.8605V8.13953C15.7441 6.36575 15.7426 5.10559 15.614 4.14963C15.4883 3.21373 15.2523 2.67452 14.8586 2.28084C14.4649 1.88715 13.9257 1.65118 12.9898 1.52536C12.0338 1.39683 10.7737 1.39535 8.99989 1.39535C7.22612 1.39535 5.96594 1.39683 5.00998 1.52536ZM5.51152 3.48837C5.51152 3.10306 5.82388 2.7907 6.20919 2.7907H11.7906C12.1759 2.7907 12.4883 3.10306 12.4883 3.48837C12.4883 3.87368 12.1759 4.18605 11.7906 4.18605H6.20919C5.82388 4.18605 5.51152 3.87368 5.51152 3.48837ZM8.99989 13.4884C8.35766 13.4884 7.8371 14.0089 7.8371 14.6512C7.8371 15.2934 8.35766 15.814 8.99989 15.814C9.64212 15.814 10.1627 15.2934 10.1627 14.6512C10.1627 14.0089 9.64212 13.4884 8.99989 13.4884ZM6.44175 14.6512C6.44175 13.2383 7.58705 12.093 8.99989 12.093C10.4127 12.093 11.558 13.2383 11.558 14.6512C11.558 16.064 10.4127 17.2093 8.99989 17.2093C7.58705 17.2093 6.44175 16.064 6.44175 14.6512Z" fill="#FF3A3A"/>
</svg>
