<svg width="44" height="44" viewBox="0 0 44 44" fill="none" xmlns="http://www.w3.org/2000/svg">
<path fill-rule="evenodd" clip-rule="evenodd" d="M29.1161 2.28906H32.9574C34.5977 2.28901 35.9655 2.28897 37.0515 2.43496C38.1976 2.58906 39.2324 2.92804 40.064 3.75958C40.8954 4.59112 41.2345 5.62592 41.3885 6.77207C41.5346 7.85796 41.5344 9.2258 41.5344 10.8661V32.9642C41.5344 34.6046 41.5346 35.9724 41.3885 37.0583C41.2345 38.2045 40.8954 39.2393 40.064 40.0707C39.2324 40.9023 38.1976 41.2413 37.0515 41.3954C35.9655 41.5414 34.5977 41.5413 32.9574 41.5413H29.1161C27.4757 41.5413 26.1079 41.5414 25.022 41.3954C23.8759 41.2413 22.8411 40.9023 22.0097 40.0707C21.1781 39.2393 20.839 38.2045 20.6849 37.0583C20.5389 35.9724 20.5391 34.6046 20.5391 32.9642V10.8661C20.5391 9.2258 20.5389 7.85796 20.6849 6.77207C20.839 5.62592 21.1781 4.59112 22.0097 3.75958C22.8411 2.92804 23.8759 2.58906 25.022 2.43496C26.1079 2.28897 27.4757 2.28901 29.1161 2.28906ZM23.2776 17.8074H27.3854C28.1416 17.8074 28.7546 17.1943 28.7546 16.4381C28.7546 15.6819 28.1416 15.0688 27.3854 15.0688H23.2776V12.3303H25.5597C26.3159 12.3303 26.929 11.7173 26.929 10.9611C26.929 10.2048 26.3159 9.5918 25.5597 9.5918H23.2809C23.2885 8.5522 23.3143 7.76776 23.399 7.13698C23.5124 6.29449 23.7081 5.93393 23.946 5.69601C24.1839 5.45809 24.5444 5.26234 25.387 5.14907C26.2688 5.03051 27.4511 5.02759 29.2111 5.02759H32.8624C34.6224 5.02759 35.8047 5.03051 36.6865 5.14907C37.5291 5.26234 37.8896 5.45809 38.1275 5.69601C38.3654 5.93393 38.5611 6.29449 38.6745 7.13697C38.793 8.01884 38.7959 9.20108 38.7959 10.9611V32.8693C38.7959 34.6292 38.793 35.8115 38.6745 36.6933C38.5611 37.5359 38.3654 37.8965 38.1275 38.1344C37.8896 38.3722 37.5291 38.568 36.6865 38.6813C35.8047 38.7998 34.6224 38.8027 32.8624 38.8027H29.2111C27.4511 38.8027 26.2688 38.7998 25.387 38.6813C24.5444 38.568 24.1839 38.3722 23.946 38.1344C23.7081 37.8965 23.5124 37.5359 23.399 36.6933C23.3143 36.0626 23.2885 35.2781 23.2809 34.2385H25.5597C26.3159 34.2385 26.929 33.6255 26.929 32.8693C26.929 32.1131 26.3159 31.5 25.5597 31.5H23.2776V28.7615H27.3854C28.1416 28.7615 28.7546 28.1484 28.7546 27.3922C28.7546 26.636 28.1416 26.0229 27.3854 26.0229H23.2776V23.2844H25.5597C26.3159 23.2844 26.929 22.6714 26.929 21.9152C26.929 21.159 26.3159 20.5459 25.5597 20.5459H23.2776V17.8074ZM2.28223 8.86153C2.28225 5.16632 5.41446 2.28906 9.12856 2.28906C12.8426 2.28906 15.9749 5.16632 15.9749 8.86153L15.9749 28.4597C15.9749 29.4514 15.975 30.0745 15.8945 30.6934C15.7996 31.4222 15.6216 32.1383 15.3639 32.8289C15.1452 33.4148 14.8529 33.9702 14.3856 34.858L11.6613 40.0342C11.1623 40.9822 10.17 41.5413 9.12854 41.5413C8.08712 41.5413 7.09481 40.9822 6.59579 40.0342L3.87154 34.858C3.40419 33.9702 3.11186 33.415 2.89321 32.8289C2.63552 32.1383 2.45746 31.4222 2.36263 30.6934C2.28212 30.0745 2.28216 29.4514 2.28223 28.4597V8.86153ZM9.12856 5.02759C6.79286 5.02759 5.02077 6.80944 5.02077 8.86153V9.87472C5.19672 9.97923 5.4172 10.0988 5.67919 10.2194C6.47814 10.5875 7.65199 10.9611 9.12856 10.9611C10.6051 10.9611 11.779 10.5875 12.5779 10.2194C12.8399 10.0988 13.0604 9.97923 13.2363 9.87472V8.86153C13.2363 6.80944 11.4643 5.02759 9.12856 5.02759ZM13.2363 12.9164C12.1906 13.3355 10.8005 13.6996 9.12856 13.6996C7.45666 13.6996 6.06649 13.3355 5.02077 12.9164V28.3668C5.02077 29.4806 5.02339 29.9182 5.07827 30.34C5.14611 30.8614 5.27361 31.3749 5.45894 31.8715C5.60921 32.2743 5.81405 32.669 6.33817 33.6647L8.10753 37.0265H10.1496L11.9189 33.6647C12.4431 32.669 12.6479 32.2743 12.7982 31.8715C12.9835 31.3749 13.111 30.8614 13.1788 30.34C13.2337 29.9182 13.2363 29.4806 13.2363 28.3668V12.9164ZM4.5272 9.54331L4.52965 9.54533C4.52658 9.54289 4.5272 9.54331 4.5272 9.54331ZM13.7263 9.54619L13.7298 9.54338L13.7263 9.54619Z" fill="#FF4F4F"/>
</svg>
