<svg width="45" height="45" viewBox="0 0 45 45" fill="none" xmlns="http://www.w3.org/2000/svg">
<g id="folder-with-files-svgrepo-com 1">
<path id="Vector" fill-rule="evenodd" clip-rule="evenodd" d="M13.1568 2.74623C13.2119 2.74623 13.2677 2.74625 13.3243 2.74625L13.3927 2.74623C14.0433 2.74619 14.4619 2.74617 14.8711 2.78444C16.5406 2.94056 18.1286 3.57052 19.4492 4.59735H31.0027C31.039 4.59735 31.0747 4.59733 31.1099 4.59733C31.8664 4.5972 32.3816 4.59713 32.8344 4.65673C35.9492 5.06682 38.4004 7.51796 38.8104 10.6329C38.826 10.7503 38.8375 10.8719 38.8458 11.0008C39.3595 11.235 39.8352 11.5377 40.2724 11.9311C40.4546 12.0949 40.6278 12.2682 40.7917 12.4502C41.7696 13.5375 42.1874 14.8609 42.3833 16.4184C42.5721 17.9213 42.5721 19.8209 42.5721 22.1772V26.4521C42.5721 29.8541 42.5721 32.5485 42.2887 34.6573C41.9969 36.8277 41.382 38.5842 39.9968 39.9696C38.6115 41.3548 36.8549 41.9697 34.6845 42.2614C32.5758 42.5448 29.8813 42.5448 26.4793 42.5448H18.8662C15.4643 42.5448 12.7698 42.5448 10.6609 42.2614C8.49068 41.9697 6.73408 41.3548 5.34879 39.9696C3.9635 38.5842 3.34872 36.8277 3.05693 34.6573C2.77342 32.5485 2.77343 29.8541 2.77347 26.4521V13.297C2.77347 13.2404 2.77345 13.1846 2.77345 13.1296C2.77325 11.6563 2.7731 10.7186 2.92591 9.90876C3.59699 6.35193 6.37915 3.56977 9.93598 2.89869C10.7458 2.74588 11.6835 2.74603 13.1568 2.74623ZM35.9033 10.2944C35.4259 8.76765 34.1 7.62397 32.4719 7.40963C32.224 7.37698 31.9066 7.374 31.0027 7.374H22.3234C23.5135 8.55696 24.0535 9.05102 24.666 9.39175C25.0695 9.61627 25.4975 9.79359 25.9418 9.92018C26.7068 10.1383 27.5456 10.1506 29.7595 10.1506H30.5455C32.697 10.1506 34.4676 10.1506 35.9033 10.2944ZM13.3243 5.5229C11.6275 5.5229 10.9715 5.52895 10.4508 5.62719C8.01717 6.08635 6.11357 7.98995 5.65441 10.4236C5.55617 10.9442 5.55012 11.6002 5.55012 13.297V26.3477C5.55012 29.8774 5.55306 32.3851 5.80883 34.2875C6.05921 36.1498 6.52878 37.2227 7.31218 38.0061C8.09558 38.7895 9.16857 39.2591 11.0309 39.5096C12.9332 39.7652 15.4409 39.7682 18.9706 39.7682H26.3749C29.9046 39.7682 32.4123 39.7652 34.3147 39.5096C36.1771 39.2591 37.25 38.7895 38.0334 38.0061C38.8167 37.2227 39.2864 36.1498 39.5368 34.2875C39.7924 32.3851 39.7954 29.8774 39.7954 26.3477V22.2714C39.7954 19.7987 39.7928 18.0742 39.6283 16.7648C39.468 15.4901 39.1736 14.8035 38.7271 14.307C38.6288 14.1978 38.525 14.0938 38.4156 13.9956C37.9193 13.5491 37.2328 13.2548 35.9579 13.0945C34.6484 12.9299 32.9241 12.9273 30.4513 12.9273H29.7595C29.6906 12.9273 29.6227 12.9273 29.5555 12.9273C27.6156 12.9277 26.3646 12.928 25.1806 12.5905C24.5314 12.4054 23.9058 12.1463 23.316 11.8181C22.2401 11.2196 21.3557 10.3348 19.9842 8.96281C19.9368 8.91528 19.8887 8.86717 19.84 8.81846L18.8214 7.79988C18.297 7.27552 18.0964 7.07688 17.8919 6.90735C16.9603 6.13507 15.8175 5.66169 14.6126 5.54902C14.3482 5.52429 14.0658 5.5229 13.3243 5.5229ZM23.1355 18.9433C23.1355 18.1766 23.7571 17.555 24.5238 17.555H33.7793C34.5461 17.555 35.1677 18.1766 35.1677 18.9433C35.1677 19.7101 34.5461 20.3317 33.7793 20.3317H24.5238C23.7571 20.3317 23.1355 19.7101 23.1355 18.9433Z" fill="#FF3A3A"/>
</g>
</svg>
