<svg width="48" height="48" viewBox="0 0 48 48" fill="none" xmlns="http://www.w3.org/2000/svg">
<path fill-rule="evenodd" clip-rule="evenodd" d="M31.5 11.5012V16.65C34.9234 17.3449 37.5 20.3716 37.5 24C37.5 27.6284 34.9234 30.655 31.5 31.35V36.4988C33.574 36.494 35.1478 36.4686 36.4204 36.3392C37.9586 36.1828 38.8898 35.8866 39.6112 35.4046C40.321 34.9304 40.9304 34.321 41.4046 33.6112C41.8866 32.8898 42.1828 31.9586 42.3392 30.4204C42.4982 28.8574 42.5 26.8402 42.5 24C42.5 21.1598 42.4982 19.1427 42.3392 17.5795C42.1828 16.0414 41.8866 15.1101 41.4046 14.3888C40.9304 13.6791 40.321 13.0697 39.6112 12.5954C38.8898 12.1135 37.9586 11.8173 36.4204 11.6608C35.1478 11.5314 33.574 11.5061 31.5 11.5012ZM28.5 36.5V11.5H19.5V36.5H28.5ZM16.5 36.4988V31.35C13.0766 30.655 10.5 27.6284 10.5 24C10.5 20.3716 13.0766 17.3449 16.5 16.65V11.5012C14.4261 11.5061 12.8523 11.5314 11.5795 11.6608C10.0414 11.8173 9.11014 12.1135 8.3888 12.5954C7.67906 13.0697 7.06968 13.6791 6.59544 14.3888C6.11346 15.1101 5.8173 16.0414 5.66082 17.5795C5.50182 19.1427 5.5 21.1598 5.5 24C5.5 26.8402 5.50182 28.8574 5.66084 30.4204C5.8173 31.9586 6.11346 32.8898 6.59544 33.6112C7.06968 34.321 7.67906 34.9304 8.3888 35.4046C9.11014 35.8866 10.0414 36.1828 11.5795 36.3392C12.8523 36.4686 14.4261 36.494 16.5 36.4988ZM16.5 19.7561C14.7522 20.3738 13.5 22.0406 13.5 24C13.5 25.9594 14.7522 27.6262 16.5 28.244V19.7561ZM31.5 28.244C33.2478 27.6262 34.5 25.9594 34.5 24C34.5 22.0406 33.2478 20.3738 31.5 19.7561V28.244ZM36.7242 8.67624C38.4994 8.85682 39.9814 9.23478 41.278 10.101C42.3152 10.7941 43.2058 11.6848 43.899 12.7221C44.7652 14.0185 45.1432 15.5006 45.3238 17.2759C45.5 19.0086 45.5 21.1784 45.5 23.9168V24.0832C45.5 26.8216 45.5 28.9914 45.3238 30.7242C45.1432 32.4994 44.7652 33.9814 43.899 35.278C43.2058 36.3152 42.3152 37.2058 41.278 37.899C39.9814 38.7652 38.4994 39.1432 36.7242 39.3238C34.9914 39.5 32.8216 39.5 30.0832 39.5H17.9168C15.1784 39.5 13.0086 39.5 11.2759 39.3238C9.5006 39.1432 8.01852 38.7652 6.72208 37.899C5.68478 37.2058 4.79414 36.3152 4.10104 35.278C3.23478 33.9814 2.85682 32.4994 2.67624 30.7242C2.49996 28.9914 2.49998 26.8216 2.5 24.0832V23.9168C2.49998 21.1784 2.49996 19.0086 2.67624 17.2759C2.85682 15.5006 3.23478 14.0185 4.10104 12.7221C4.79414 11.6848 5.68478 10.7941 6.72208 10.101C8.01852 9.23478 9.5006 8.85682 11.2759 8.67624C13.0086 8.49996 15.1784 8.49998 17.9168 8.5H30.0832C32.8216 8.49998 34.9914 8.49996 36.7242 8.67624Z" fill="#FF4F4F"/>
</svg>
