<svg width="42" height="42" viewBox="0 0 42 42" fill="none" xmlns="http://www.w3.org/2000/svg">
<g id="icons8-cheque 1">
<path id="Vector" d="M5.73115 2.00573C5.31744 2.05704 5.00957 2.40981 5.01278 2.82672V36.4874H4.19179C3.28421 36.4874 2.5498 37.2218 2.5498 38.1293C2.5498 39.0369 3.28421 39.7713 4.19179 39.7713H37.0314C37.939 39.7713 38.6734 39.0369 38.6734 38.1293C38.6734 37.2218 37.939 36.4874 37.0314 36.4874H36.2104V2.82672C36.2136 2.54129 36.0661 2.27832 35.8288 2.12759C35.5883 1.97366 35.2868 1.95762 35.0303 2.08269L33.7475 2.72409L32.4647 2.08269C32.237 1.97366 31.974 1.97366 31.7463 2.08269L30.4635 2.72409L29.1807 2.08269C28.953 1.97366 28.69 1.97366 28.4623 2.08269L27.1795 2.72409L25.8967 2.08269C25.669 1.97366 25.4061 1.97366 25.1784 2.08269L23.8956 2.72409L22.6128 2.08269C22.3851 1.97366 22.1221 1.97366 21.8944 2.08269L20.6116 2.72409L19.3288 2.08269C19.1011 1.97366 18.8381 1.97366 18.6104 2.08269L17.3276 2.72409L16.0448 2.08269C15.8172 1.97366 15.5542 1.97366 15.3265 2.08269L14.0437 2.72409L12.7609 2.08269C12.5332 1.97366 12.2702 1.97366 12.0425 2.08269L10.7597 2.72409L9.47692 2.08269C9.24922 1.97366 8.98625 1.97366 8.75855 2.08269L7.47575 2.72409L6.19295 2.08269C6.04864 2.01214 5.88829 1.98648 5.73115 2.00573ZM9.11773 3.75033L10.4005 4.39173C10.6282 4.50077 10.8912 4.50077 11.1189 4.39173L12.4017 3.75033L13.6845 4.39173C13.9122 4.50077 14.1752 4.50077 14.4029 4.39173L15.6857 3.75033L16.9685 4.39173C17.1962 4.50077 17.4591 4.50077 17.6868 4.39173L18.9696 3.75033L20.2524 4.39173C20.4801 4.50077 20.7431 4.50077 20.9708 4.39173L22.2536 3.75033L23.5364 4.39173C23.7641 4.50077 24.0271 4.50077 24.2548 4.39173L25.5376 3.75033L26.8204 4.39173C27.0481 4.50077 27.311 4.50077 27.5387 4.39173L28.8215 3.75033L30.1043 4.39173C30.332 4.50077 30.595 4.50077 30.8227 4.39173L32.1055 3.75033L33.3883 4.39173C33.616 4.50077 33.879 4.50077 34.1067 4.39173L34.5685 4.16083V38.1293H6.65476V4.16083L7.11657 4.39173C7.34426 4.50077 7.60724 4.50077 7.83494 4.39173L9.11773 3.75033ZM10.5288 9.39465C10.0766 9.45879 9.75913 9.8789 9.82327 10.3311C9.88741 10.7833 10.3075 11.1008 10.7597 11.0366H23.0746C23.3696 11.0398 23.6454 10.8859 23.7962 10.6293C23.9437 10.3728 23.9437 10.0585 23.7962 9.80194C23.6454 9.54538 23.3696 9.39144 23.0746 9.39465H10.7597C10.7341 9.39465 10.7084 9.39465 10.6827 9.39465C10.6571 9.39465 10.6314 9.39465 10.6058 9.39465C10.5801 9.39465 10.5545 9.39465 10.5288 9.39465ZM27.7696 9.39465C27.3174 9.45879 26.9999 9.8789 27.0641 10.3311C27.1282 10.7833 27.5483 11.1008 28.0005 11.0366H30.4635C30.7585 11.0398 31.0343 10.8859 31.1851 10.6293C31.3326 10.3728 31.3326 10.0585 31.1851 9.80194C31.0343 9.54538 30.7585 9.39144 30.4635 9.39465H28.0005C27.9749 9.39465 27.9492 9.39465 27.9236 9.39465C27.8979 9.39465 27.8723 9.39465 27.8466 9.39465C27.8209 9.39465 27.7953 9.39465 27.7696 9.39465ZM10.5288 14.3206C10.0766 14.3847 9.75913 14.8049 9.82327 15.257C9.88741 15.7092 10.3075 16.0267 10.7597 15.9626H19.7906C20.0857 15.9658 20.3615 15.8118 20.5122 15.5553C20.6597 15.2987 20.6597 14.9844 20.5122 14.7279C20.3615 14.4713 20.0857 14.3174 19.7906 14.3206H10.7597C10.7341 14.3206 10.7084 14.3206 10.6827 14.3206C10.6571 14.3206 10.6314 14.3206 10.6058 14.3206C10.5801 14.3206 10.5545 14.3206 10.5288 14.3206ZM27.7696 14.3206C27.3174 14.3847 26.9999 14.8049 27.0641 15.257C27.1282 15.7092 27.5483 16.0267 28.0005 15.9626H30.4635C30.7585 15.9658 31.0343 15.8118 31.1851 15.5553C31.3326 15.2987 31.3326 14.9844 31.1851 14.7279C31.0343 14.4713 30.7585 14.3174 30.4635 14.3206H28.0005C27.9749 14.3206 27.9492 14.3206 27.9236 14.3206C27.8979 14.3206 27.8723 14.3206 27.8466 14.3206C27.8209 14.3206 27.7953 14.3206 27.7696 14.3206ZM10.5288 19.2465C10.0766 19.3107 9.75913 19.7308 9.82327 20.183C9.88741 20.6352 10.3075 20.9527 10.7597 20.8885H23.0746C23.3696 20.8917 23.6454 20.7378 23.7962 20.4812C23.9437 20.2247 23.9437 19.9104 23.7962 19.6538C23.6454 19.3973 23.3696 19.2433 23.0746 19.2465H10.7597C10.7341 19.2465 10.7084 19.2465 10.6827 19.2465C10.6571 19.2465 10.6314 19.2465 10.6058 19.2465C10.5801 19.2465 10.5545 19.2465 10.5288 19.2465ZM27.7696 19.2465C27.3174 19.3107 26.9999 19.7308 27.0641 20.183C27.1282 20.6352 27.5483 20.9527 28.0005 20.8885H30.4635C30.7585 20.8917 31.0343 20.7378 31.1851 20.4812C31.3326 20.2247 31.3326 19.9104 31.1851 19.6538C31.0343 19.3973 30.7585 19.2433 30.4635 19.2465H28.0005C27.9749 19.2465 27.9492 19.2465 27.9236 19.2465C27.8979 19.2465 27.8723 19.2465 27.8466 19.2465C27.8209 19.2465 27.7953 19.2465 27.7696 19.2465ZM10.5288 24.1725C10.0766 24.2366 9.75913 24.6567 9.82327 25.1089C9.88741 25.5611 10.3075 25.8786 10.7597 25.8145H19.7906C20.0857 25.8177 20.3615 25.6637 20.5122 25.4072C20.6597 25.1506 20.6597 24.8363 20.5122 24.5798C20.3615 24.3232 20.0857 24.1693 19.7906 24.1725H10.7597C10.7341 24.1725 10.7084 24.1725 10.6827 24.1725C10.6571 24.1725 10.6314 24.1725 10.6058 24.1725C10.5801 24.1725 10.5545 24.1725 10.5288 24.1725ZM27.7696 24.1725C27.3174 24.2366 26.9999 24.6567 27.0641 25.1089C27.1282 25.5611 27.5483 25.8786 28.0005 25.8145H30.4635C30.7585 25.8177 31.0343 25.6637 31.1851 25.4072C31.3326 25.1506 31.3326 24.8363 31.1851 24.5798C31.0343 24.3232 30.7585 24.1693 30.4635 24.1725H28.0005C27.9749 24.1725 27.9492 24.1725 27.9236 24.1725C27.8979 24.1725 27.8723 24.1725 27.8466 24.1725C27.8209 24.1725 27.7953 24.1725 27.7696 24.1725ZM10.7597 29.0984C10.3075 29.0984 9.93872 29.4672 9.93872 29.9194C9.93872 30.3716 10.3075 30.7404 10.7597 30.7404C11.2119 30.7404 11.5807 30.3716 11.5807 29.9194C11.5807 29.4672 11.2119 29.0984 10.7597 29.0984ZM13.2227 29.0984C12.7705 29.0984 12.4017 29.4672 12.4017 29.9194C12.4017 30.3716 12.7705 30.7404 13.2227 30.7404C13.6749 30.7404 14.0437 30.3716 14.0437 29.9194C14.0437 29.4672 13.6749 29.0984 13.2227 29.0984ZM15.6857 29.0984C15.2335 29.0984 14.8647 29.4672 14.8647 29.9194C14.8647 30.3716 15.2335 30.7404 15.6857 30.7404C16.1378 30.7404 16.5067 30.3716 16.5067 29.9194C16.5067 29.4672 16.1378 29.0984 15.6857 29.0984ZM18.1486 29.0984C17.6965 29.0984 17.3276 29.4672 17.3276 29.9194C17.3276 30.3716 17.6965 30.7404 18.1486 30.7404C18.6008 30.7404 18.9696 30.3716 18.9696 29.9194C18.9696 29.4672 18.6008 29.0984 18.1486 29.0984ZM20.6116 29.0984C20.1594 29.0984 19.7906 29.4672 19.7906 29.9194C19.7906 30.3716 20.1594 30.7404 20.6116 30.7404C21.0638 30.7404 21.4326 30.3716 21.4326 29.9194C21.4326 29.4672 21.0638 29.0984 20.6116 29.0984ZM23.0746 29.0984C22.6224 29.0984 22.2536 29.4672 22.2536 29.9194C22.2536 30.3716 22.6224 30.7404 23.0746 30.7404C23.5268 30.7404 23.8956 30.3716 23.8956 29.9194C23.8956 29.4672 23.5268 29.0984 23.0746 29.0984ZM25.5376 29.0984C25.0854 29.0984 24.7166 29.4672 24.7166 29.9194C24.7166 30.3716 25.0854 30.7404 25.5376 30.7404C25.9897 30.7404 26.3585 30.3716 26.3585 29.9194C26.3585 29.4672 25.9897 29.0984 25.5376 29.0984ZM28.0005 29.0984C27.5483 29.0984 27.1795 29.4672 27.1795 29.9194C27.1795 30.3716 27.5483 30.7404 28.0005 30.7404C28.4527 30.7404 28.8215 30.3716 28.8215 29.9194C28.8215 29.4672 28.4527 29.0984 28.0005 29.0984ZM30.4635 29.0984C30.0113 29.0984 29.6425 29.4672 29.6425 29.9194C29.6425 30.3716 30.0113 30.7404 30.4635 30.7404C30.9157 30.7404 31.2845 30.3716 31.2845 29.9194C31.2845 29.4672 30.9157 29.0984 30.4635 29.0984ZM25.3067 33.2034C24.8545 33.2675 24.537 33.6876 24.6011 34.1398C24.6653 34.592 25.0854 34.9095 25.5376 34.8454H30.4635C30.7585 34.8486 31.0343 34.6946 31.1851 34.4381C31.3326 34.1815 31.3326 33.8672 31.1851 33.6107C31.0343 33.3541 30.7585 33.2002 30.4635 33.2034H25.5376C25.5119 33.2034 25.4862 33.2034 25.4606 33.2034C25.4349 33.2034 25.4093 33.2034 25.3836 33.2034C25.358 33.2034 25.3323 33.2034 25.3067 33.2034Z" fill="#FF3A3A"/>
</g>
</svg>
