<svg width="43" height="43" viewBox="0 0 43 43" fill="none" xmlns="http://www.w3.org/2000/svg">
<g id="organization-svgrepo-com 1" clip-path="url(#clip0_12_1519)">
<path id="Vector" d="M33.4539 24.5102H39.3936C40.8274 24.5102 42.0153 25.6981 42.0153 27.1318V40.2403C42.0153 41.674 40.8274 42.862 39.3936 42.862H26.2852C24.8515 42.862 23.6635 41.674 23.6635 40.2403V27.1318C23.6635 25.6981 24.8515 24.5102 26.2852 24.5102H30.9141V22.9535H11.1286V24.5102H15.7985C17.2322 24.5102 18.4202 25.6981 18.4202 27.1318V40.2403C18.4202 41.674 17.2322 42.862 15.7985 42.862H2.69004C1.25631 42.862 0.0683594 41.674 0.0683594 40.2403V27.1318C0.0683594 25.6981 1.25631 24.5102 2.69004 24.5102H8.58884V22.0523C8.58884 21.1511 9.73582 20.7005 10.7599 20.7005H19.772V19.2258H14.119C12.6852 19.2258 11.4973 18.0379 11.4973 16.6041V3.49571C11.4973 2.06197 12.6852 0.874023 14.119 0.874023H27.2274C28.6611 0.874023 29.8491 2.06197 29.8491 3.49571V16.6041C29.8491 18.0379 28.6611 19.2258 27.2274 19.2258H22.3937V20.7415C25.7936 20.7415 27.8828 20.7005 31.2828 20.7005C32.3069 20.7005 33.4539 21.1102 33.4539 22.0523V24.5102ZM39.3936 27.1318H26.2852V40.2403H39.3936V27.1318ZM27.2274 3.49571H14.119V16.6041H27.2274V3.49571ZM15.7985 27.1318H2.69004V40.2403H15.7985V27.1318Z" fill="#FF3A3A"/>
</g>
<defs>
<clipPath id="clip0_12_1519">
<rect width="41.947" height="41.947" fill="white" transform="translate(0.0683594 0.914917)"/>
</clipPath>
</defs>
</svg>
