<svg width="46" height="47" viewBox="0 0 46 47" fill="none" xmlns="http://www.w3.org/2000/svg">
<g id="card-transfer-svgrepo-com 3">
<path id="Vector" fill-rule="evenodd" clip-rule="evenodd" d="M19.3763 6.79407H27.1637C30.6434 6.79403 33.3995 6.79401 35.5565 7.08403C37.7764 7.38247 39.5733 8.01132 40.9903 9.4283C42.2741 10.7122 42.9125 12.3099 43.2428 14.2563C43.484 15.6773 43.5718 17.3586 43.6046 19.3369C43.6177 19.4143 43.6245 19.4937 43.6245 19.5748C43.6245 19.6416 43.6199 19.7073 43.6108 19.7717C43.6177 20.314 43.6211 20.8779 43.6228 21.4641C43.625 22.2483 42.9911 22.886 42.2069 22.8883C41.4226 22.8906 40.7849 22.2567 40.7826 21.4724C40.782 21.3107 40.7815 21.1516 40.7807 20.9949H5.75946C5.75586 21.7303 5.75569 22.5174 5.75569 23.3617C5.75569 26.9721 5.7587 29.5371 6.02032 31.483C6.27642 33.3878 6.75673 34.4854 7.55805 35.2867C8.35938 36.088 9.45691 36.5684 11.3619 36.8244C13.3077 37.0861 15.8727 37.0891 19.4831 37.0891H22.3233C23.1075 37.0891 23.7434 37.7249 23.7434 38.5092C23.7434 39.2934 23.1075 39.9293 22.3233 39.9293H19.3763C15.8966 39.9293 13.1405 39.9293 10.9834 39.6394C8.76353 39.3408 6.96675 38.712 5.54976 37.2951C4.13278 35.8781 3.50393 34.0812 3.20549 31.8613C2.91547 29.7043 2.91549 26.9482 2.91553 23.4685V23.2549C2.91551 22.0018 2.91551 20.8426 2.92905 19.7715C2.92013 19.7071 2.91553 19.6414 2.91553 19.5748C2.91553 19.4937 2.92233 19.4142 2.93539 19.3368C2.96408 17.6191 3.03419 16.136 3.20549 14.862C3.50393 12.6421 4.13278 10.8453 5.54976 9.4283C6.96675 8.01132 8.76353 7.38247 10.9834 7.08403C13.1405 6.79401 15.8966 6.79403 19.3763 6.79407ZM5.80505 18.1547H40.7347C40.6895 16.8013 40.6039 15.6815 40.4427 14.7315C40.1722 13.1374 39.7109 12.1656 38.982 11.4366C38.1806 10.6353 37.083 10.155 35.1782 9.89886C33.2323 9.63724 30.6673 9.63423 27.0569 9.63423H19.4831C15.8727 9.63423 13.3077 9.63724 11.3619 9.89886C9.45691 10.155 8.35938 10.6353 7.55805 11.4366C6.75673 12.2379 6.27642 13.3354 6.02032 15.2404C5.90692 16.0839 5.8421 17.0438 5.80505 18.1547ZM29.897 25.7285C30.6813 25.7285 31.3171 26.3643 31.3171 27.1485V35.0807L32.6798 33.7182C33.2344 33.1636 34.1334 33.1636 34.688 33.7182C35.2426 34.2728 35.2426 35.1718 34.688 35.7264L30.9011 39.5133C30.3465 40.0679 29.4475 40.0679 28.893 39.5133L25.1061 35.7264C24.5515 35.1718 24.5515 34.2728 25.1061 33.7182C25.6607 33.1636 26.5597 33.1636 27.1143 33.7182L28.477 35.0807V27.1485C28.477 26.3643 29.1128 25.7285 29.897 25.7285ZM37.4134 26.1445C37.968 25.5899 38.867 25.5899 39.4216 26.1445L43.2085 29.9313C43.7631 30.4859 43.7631 31.3849 43.2085 31.9395C42.6539 32.4941 41.7549 32.4941 41.2003 31.9395L39.8376 30.577V38.5092C39.8376 39.2934 39.2018 39.9293 38.4175 39.9293C37.6333 39.9293 36.9974 39.2934 36.9974 38.5092V30.577L35.6347 31.9395C35.0801 32.4941 34.1811 32.4941 33.6265 31.9395C33.072 31.3849 33.072 30.4859 33.6265 29.9313L37.4134 26.1445ZM10.4893 30.9354C10.4893 30.1512 11.1251 29.5153 11.9094 29.5153H19.4831C20.2674 29.5153 20.9032 30.1512 20.9032 30.9354C20.9032 31.7197 20.2674 32.3555 19.4831 32.3555H11.9094C11.1251 32.3555 10.4893 31.7197 10.4893 30.9354Z" fill="#FF3A3A"/>
</g>
</svg>
