<svg width="35" height="40" viewBox="0 0 35 40" fill="none" xmlns="http://www.w3.org/2000/svg">
<path d="M34.2928 19.7767C34.2374 21.0514 34.0434 22.3329 33.7109 23.6214C33.3784 24.896 32.8796 26.0667 32.2146 27.1335C31.5496 28.2003 30.6837 29.0593 29.6169 29.7104C28.5639 30.3477 27.2893 30.6664 25.793 30.6664C24.8371 30.6664 23.9989 30.5001 23.2784 30.1676C22.5718 29.8213 21.99 29.3294 21.5328 28.6921C21.0894 28.0548 20.7777 27.2859 20.5976 26.3853C20.4313 25.4848 20.4036 24.4804 20.5145 23.372L21.5743 11.8589H24.6292L23.5694 23.372C23.4862 24.3834 23.507 25.2077 23.6317 25.845C23.7703 26.4823 23.9781 26.9742 24.2552 27.3205C24.5323 27.653 24.844 27.8816 25.1904 28.0063C25.5506 28.131 25.8969 28.1934 26.2294 28.1934C27.0607 28.1934 27.8019 27.9786 28.4531 27.5491C29.1043 27.1058 29.6515 26.5031 30.0949 25.7411C30.5521 24.9653 30.9053 24.0716 31.1547 23.0603C31.4041 22.035 31.5565 20.9405 31.6119 19.7767C31.7089 17.7124 31.6119 15.8143 31.321 14.0825C31.0439 12.3507 30.5659 10.8129 29.887 9.46897C29.222 8.12508 28.3492 6.98901 27.2685 6.06075C26.1879 5.1325 24.8994 4.42592 23.4031 3.94101C21.9068 3.4561 20.1958 3.21365 18.27 3.21365C16.5243 3.21365 14.9103 3.48381 13.4279 4.02414C11.9593 4.55061 10.6362 5.31261 9.45854 6.31013C8.29476 7.30766 7.2903 8.50608 6.44518 9.90539C5.6139 11.3047 4.95581 12.8841 4.47091 14.6436C3.99985 16.3893 3.72276 18.2735 3.63963 20.2963C3.54265 22.3745 3.65349 24.2864 3.97214 26.0321C4.2908 27.7639 4.80341 29.3087 5.51 30.6664C6.23043 32.038 7.1379 33.1948 8.23241 34.137C9.32692 35.0929 10.5946 35.8134 12.0355 36.2983C13.4764 36.797 15.0835 37.0464 16.8569 37.0464C18.0761 37.0464 19.3091 36.9009 20.556 36.61C21.8168 36.319 22.8697 35.9242 23.7148 35.4254L24.5046 37.7946C23.5347 38.418 22.3225 38.8821 20.8677 39.1869C19.4269 39.4917 18.0622 39.6441 16.7737 39.6441C14.6678 39.6441 12.7421 39.3532 10.9964 38.7713C9.26457 38.2033 7.72672 37.3651 6.38283 36.2567C5.0528 35.1622 3.94443 33.8252 3.05774 32.2458C2.17105 30.6803 1.51989 28.893 1.10426 26.8841C0.688619 24.8752 0.529292 22.6793 0.626274 20.2963C0.723256 18.0241 1.06269 15.8836 1.64458 13.8747C2.24033 11.8658 3.05082 10.0439 4.07605 8.4091C5.10129 6.77426 6.32049 5.36803 7.73365 4.19039C9.16066 2.9989 10.7609 2.0845 12.5342 1.44719C14.3215 0.809887 16.2611 0.491232 18.3531 0.491232C20.4867 0.491232 22.4194 0.782178 24.1513 1.36407C25.8831 1.94596 27.4002 2.78416 28.7025 3.87866C30.0187 4.97317 31.1062 6.31013 31.9652 7.88955C32.8242 9.46897 33.4477 11.2562 33.8356 13.2513C34.2374 15.2463 34.3898 17.4215 34.2928 19.7767ZM12.9499 21.5432C12.8529 22.513 12.8529 23.3789 12.9499 24.1409C13.0469 24.9029 13.2339 25.5471 13.511 26.0736C13.7881 26.6001 14.1483 27.0019 14.5916 27.279C15.0488 27.5422 15.5822 27.6738 16.1918 27.6738C16.5936 27.6738 17.0162 27.5768 17.4595 27.3829C17.9029 27.1751 18.3393 26.8564 18.7688 26.4269C19.1983 25.9974 19.6001 25.4363 19.9741 24.7436C20.3482 24.0509 20.6599 23.2196 20.9093 22.2498L22.2809 23.7461C21.9622 24.8821 21.5466 25.8797 21.034 26.7386C20.5352 27.5976 19.9741 28.3181 19.3507 28.8999C18.7272 29.4818 18.0622 29.9252 17.3556 30.23C16.6629 30.5209 15.9563 30.6664 15.2359 30.6664C14.2245 30.6664 13.3378 30.4517 12.5758 30.0222C11.8138 29.5788 11.1973 28.9554 10.7262 28.1518C10.2552 27.3482 9.92266 26.3923 9.7287 25.2839C9.54859 24.1617 9.52088 22.9148 9.64557 21.5432C9.77026 20.0885 10.0266 18.7446 10.4145 17.5115C10.8024 16.2785 11.2804 15.177 11.8484 14.2072C12.4303 13.2374 13.0815 12.4131 13.8019 11.7342C14.5362 11.0553 15.3121 10.5427 16.1295 10.1963C16.9469 9.83611 17.7851 9.656 18.6441 9.656C20.1404 9.656 21.318 9.87768 22.177 10.321C23.036 10.7505 23.8534 11.2631 24.6292 11.8589L22.8628 13.9163C22.461 13.5283 21.9345 13.1681 21.2834 12.8356C20.6322 12.5031 19.8633 12.3369 18.9766 12.3369C18.2146 12.3369 17.5011 12.5308 16.8361 12.9187C16.1711 13.3067 15.5684 13.8886 15.0281 14.6644C14.5016 15.4403 14.0582 16.4032 13.698 17.5531C13.3378 18.6892 13.0884 20.0192 12.9499 21.5432Z" fill="#FF3A3A"/>
</svg>
