<svg width="37" height="37" viewBox="0 0 37 37" fill="none" xmlns="http://www.w3.org/2000/svg">
<path d="M29.2927 8.00855L30.0072 7.29408C31.1909 6.11031 33.1103 6.11031 34.294 7.29408C35.4778 8.47785 35.4778 10.3971 34.294 11.5808L33.5796 12.2954M29.2927 8.00855C29.2927 8.00855 29.3821 9.5268 30.7216 10.8664C32.0613 12.206 33.5796 12.2954 33.5796 12.2954M29.2927 8.00855L22.7242 14.5769C22.2793 15.0219 22.0568 15.2443 21.8655 15.4896C21.64 15.779 21.4465 16.0921 21.2886 16.4232C21.1548 16.7041 21.0552 17.0024 20.8564 17.5994L20.2193 19.5104L20.0132 20.1286M33.5796 12.2954L27.0111 18.8638C26.5662 19.3088 26.3438 19.5312 26.0985 19.7225C25.8091 19.9481 25.496 20.1416 25.1648 20.2994C24.884 20.4333 24.5856 20.5328 23.9887 20.7317L22.0777 21.3687L21.4595 21.5749M20.0132 20.1286L19.8071 20.747C19.7092 21.0407 19.7857 21.3646 20.0046 21.5835C20.2235 21.8024 20.5474 21.8789 20.8411 21.781L21.4595 21.5749M20.0132 20.1286L21.4595 21.5749" stroke="#FF4F4F" stroke-width="2"/>
<path d="M11.2131 13.0469C10.7214 13.0469 10.2959 13.2864 9.9086 13.6176C9.52133 13.9488 9.16464 14.3947 8.84871 14.9628C8.21685 16.1017 7.74805 17.6992 7.74805 19.6916C7.74805 20.7133 7.98499 21.7655 8.46144 22.6063C8.5659 22.7898 8.7366 22.9121 8.86909 23.0751C8.51494 23.5083 7.93149 24.3185 7.93149 24.3185L8.86909 25.2561C8.86909 25.2561 9.51624 24.3643 9.92899 23.87C10.1914 23.9821 10.4386 24.135 10.7443 24.135C11.8628 24.135 13.0297 23.6458 14.1074 23.0344C14.4539 23.2993 14.8437 23.4828 15.2488 23.4828C16.589 23.4828 17.6081 22.6955 18.3266 21.9948C18.5355 21.791 18.6757 21.6407 18.8362 21.4649C18.8336 21.6432 18.8285 21.8063 18.877 22.0152C18.9152 22.1732 18.9585 22.3694 19.1215 22.5452C19.2846 22.721 19.5776 22.8305 19.8146 22.8305C20.291 22.8305 20.5662 22.6114 20.8541 22.4025C21.142 22.1936 21.4146 21.9439 21.7101 21.7095C22.3038 21.2407 22.9356 20.8738 23.4019 20.8738H24.1134C23.079 20.8738 21.9119 20.7107 21.2673 21.2203C20.9615 21.4623 20.3343 21.1439 20.1203 21.3018C20.1203 21.2662 20.1203 21.2585 20.1203 21.2203C20.1279 20.9834 20.1636 20.7184 20.1203 20.4254C20.0999 20.2802 20.0515 20.1273 19.9165 19.9362C19.7814 19.7451 19.4782 19.5693 19.2235 19.5693C18.8566 19.5693 18.7215 19.7273 18.5916 19.8343C18.4617 19.9413 18.3648 20.0508 18.2451 20.1808C18.0056 20.4407 17.7202 20.754 17.4094 21.0572C16.8616 21.5923 16.217 21.9974 15.5138 22.0968C15.9801 21.7222 16.4489 21.3502 16.7775 20.9349C17.2107 20.3897 17.5317 19.8343 17.5317 19.182C17.5317 18.8152 17.4858 18.3132 17.2056 17.8368C16.9253 17.3603 16.3215 16.9603 15.575 16.9603C14.7724 16.9603 14.0412 17.3553 13.5979 17.9795C13.1545 18.6037 12.966 19.4037 12.966 20.3439C12.966 20.9834 13.1112 21.5133 13.3125 21.9745C12.4055 22.4509 11.4653 22.8305 10.7443 22.8305C11.8475 21.177 12.966 18.9247 12.966 16.1858C12.966 15.6176 12.9711 14.9476 12.7826 14.331C12.6883 14.0227 12.538 13.7093 12.273 13.4545C12.008 13.1997 11.6156 13.0469 11.2131 13.0469ZM11.2131 14.3514C11.3303 14.3514 11.3354 14.3743 11.3762 14.4125C11.4169 14.4507 11.4653 14.545 11.5188 14.7182C11.6233 15.0622 11.6615 15.6431 11.6615 16.1858C11.6615 18.4967 10.673 20.5196 9.6844 22.0356C9.66146 21.9974 9.6258 21.9948 9.60286 21.9541C9.264 21.3604 9.05253 20.4967 9.05253 19.6916C9.05253 17.9005 9.48057 16.5119 9.99013 15.5947C10.2449 15.1361 10.5073 14.7998 10.7443 14.596C10.9812 14.3921 11.1825 14.3514 11.2131 14.3514ZM15.575 18.2648C15.9368 18.2648 15.9903 18.3515 16.0845 18.5094C16.1788 18.6674 16.2272 18.9604 16.2272 19.182C16.2272 19.3451 16.0896 19.7247 15.7584 20.14C15.4705 20.5018 15.0323 20.8763 14.5558 21.2407C14.4412 20.9783 14.2705 20.7872 14.2705 20.3439C14.2705 19.5871 14.431 19.0343 14.6578 18.7132C14.8845 18.3922 15.1393 18.2648 15.575 18.2648ZM7.74805 26.3962V27.7007H15.575H23.4019V26.3962H15.575H7.74805Z" fill="#FF4F4F"/>
<path d="M27.9994 4.89211C26.1934 3.08594 23.2863 3.08594 17.4723 3.08594H14.389C8.575 3.08594 5.66802 3.08594 3.86183 4.89211C2.05566 6.69829 2.05566 9.60528 2.05566 15.4193V21.5859C2.05566 27.3999 2.05566 30.307 3.86183 32.1131C5.66802 33.9193 8.575 33.9193 14.389 33.9193H17.4723C23.2863 33.9193 26.1934 33.9193 27.9994 32.1131C29.4534 30.6591 29.3946 24.4636 29.4499 20.6409" stroke="#FF4F4F" stroke-width="2" stroke-linecap="round"/>
</svg>
