<svg width="38" height="38" viewBox="0 0 38 38" fill="none" xmlns="http://www.w3.org/2000/svg">
<g clip-path="url(#clip0_29120_140907)">
<path d="M24.8842 0.359375H5.09477C4.61941 0.359375 4.23438 0.745563 4.23438 1.21977V36.499C4.23438 36.9743 4.61941 37.3594 5.09477 37.3594H32.1131C32.5874 37.3594 32.9735 36.9743 32.9735 36.499V8.44864L24.8842 0.359375ZM24.6268 3.02193L30.4825 8.87769H24.6268V3.02193ZM30.9083 35.2942H6.29951V2.42458H22.9059V8.92401C22.9059 9.38354 23.0956 9.80811 23.3971 10.1085C23.6964 10.41 24.1209 10.5985 24.5816 10.5985H30.9083V35.2942Z" fill="#FF4F4F"/>
<path d="M18.6885 25.8281H10.6016V27.5501H18.6885V25.8281Z" fill="#FF4F4F"/>
<path d="M22.5791 24.947C21.9581 25.5658 21.5719 26.433 21.5719 27.3792C21.5719 28.3253 21.9581 29.1926 22.5791 29.8125L22.5882 29.8215L21.1406 32.1995L22.7417 32.2209L23.4983 33.6347L25.0125 31.1438L26.5267 33.6347L27.2854 32.2209L28.8855 32.1995L27.4368 29.8215L27.447 29.8125C28.0669 29.1926 28.4542 28.3254 28.4542 27.3792C28.4542 26.4329 28.0669 25.5657 27.447 24.947C26.8271 24.3248 25.9599 23.9375 25.0125 23.9375C24.0651 23.9375 23.198 24.3248 22.5791 24.947ZM26.3889 27.3792C26.3889 27.6445 26.3167 27.8884 26.1868 28.0973C26.1314 28.1899 26.0637 28.2746 25.9869 28.3537C25.7565 28.5806 25.4562 28.7286 25.1129 28.7523C25.0802 28.7545 25.0474 28.7568 25.0124 28.7568C24.9774 28.7568 24.9458 28.7546 24.9142 28.7523C24.5709 28.7286 24.2683 28.5806 24.038 28.3537C23.9612 28.2746 23.8934 28.1899 23.8392 28.0973C23.7082 27.8884 23.636 27.6445 23.636 27.3792C23.636 26.9952 23.7873 26.6587 24.038 26.4058C24.2909 26.1551 24.6297 26.0038 25.0124 26.0038C25.3963 26.0038 25.7339 26.1551 25.9868 26.4058C26.2365 26.6587 26.3889 26.9953 26.3889 27.3792Z" fill="#FF4F4F"/>
<path d="M10.6016 21.4516V14.3009H15.0847V15.2296H11.6805V17.4084H14.8508V18.3336H11.6805V20.5228H15.1266V21.4516H10.6016Z" fill="#FF4F4F"/>
<path d="M20.4259 16.1793C20.3887 15.8488 20.2351 15.5928 19.965 15.4112C19.695 15.2273 19.3552 15.1354 18.9455 15.1354C18.6522 15.1354 18.3985 15.1819 18.1844 15.275C17.9702 15.3658 17.8038 15.4915 17.6851 15.6521C17.5687 15.8104 17.5105 15.9908 17.5105 16.1933C17.5105 16.3632 17.5501 16.5099 17.6292 16.6332C17.7107 16.7566 17.8166 16.8602 17.9469 16.944C18.0796 17.0255 18.2216 17.0941 18.3729 17.15C18.5242 17.2035 18.6697 17.2478 18.8093 17.2827L19.5077 17.4642C19.7358 17.5201 19.9697 17.5958 20.2095 17.6912C20.4492 17.7866 20.6715 17.9123 20.8763 18.0683C21.0812 18.2242 21.2464 18.4174 21.3721 18.6479C21.5002 18.8783 21.5642 19.1542 21.5642 19.4754C21.5642 19.8804 21.4594 20.24 21.2499 20.5543C21.0428 20.8685 20.7413 21.1164 20.3456 21.298C19.9522 21.4795 19.4762 21.5703 18.9176 21.5703C18.3822 21.5703 17.919 21.4854 17.5279 21.3154C17.1369 21.1455 16.8308 20.9046 16.6097 20.5927C16.3885 20.2784 16.2663 19.906 16.243 19.4754H17.3254C17.3464 19.7338 17.4302 19.9491 17.5768 20.1213C17.7258 20.2912 17.9155 20.4181 18.1459 20.5019C18.3787 20.5834 18.6336 20.6241 18.9106 20.6241C19.2155 20.6241 19.4867 20.5764 19.7241 20.4809C19.9639 20.3832 20.1524 20.2482 20.2898 20.0759C20.4271 19.9013 20.4958 19.6977 20.4958 19.4649C20.4958 19.2531 20.4352 19.0797 20.3142 18.9447C20.1955 18.8097 20.0337 18.6979 19.8289 18.6095C19.6264 18.521 19.3971 18.443 19.141 18.3755L18.2961 18.1451C17.7235 17.9891 17.2696 17.7599 16.9344 17.4573C16.6015 17.1547 16.4351 16.7543 16.4351 16.2562C16.4351 15.8442 16.5468 15.4845 16.7703 15.1773C16.9937 14.87 17.2963 14.6314 17.6781 14.4615C18.0598 14.2893 18.4904 14.2031 18.97 14.2031C19.4541 14.2031 19.8812 14.2881 20.2514 14.458C20.6238 14.6279 20.9171 14.8619 21.1312 15.1598C21.3454 15.4554 21.4571 15.7953 21.4664 16.1793H20.4259Z" fill="#FF4F4F"/>
<path d="M22.8534 21.4516V14.3009H25.4023C25.9563 14.3009 26.416 14.3963 26.7814 14.5872C27.1492 14.7781 27.4239 15.0423 27.6054 15.3798C27.787 15.715 27.8778 16.1025 27.8778 16.5425C27.8778 16.9801 27.7858 17.3653 27.602 17.6982C27.4204 18.0287 27.1457 18.2859 26.7779 18.4698C26.4125 18.6537 25.9528 18.7456 25.3988 18.7456H23.468V17.8169H25.301C25.6502 17.8169 25.9342 17.7668 26.153 17.6668C26.3741 17.5667 26.5359 17.4212 26.6383 17.2303C26.7407 17.0394 26.7919 16.8102 26.7919 16.5425C26.7919 16.2725 26.7395 16.0385 26.6348 15.8407C26.5324 15.6428 26.3706 15.4915 26.1495 15.3868C25.9307 15.2797 25.6432 15.2262 25.2871 15.2262H23.9323V21.4516H22.8534ZM26.3834 18.2254L28.1501 21.4516H26.9211L25.1893 18.2254H26.3834Z" fill="#FF4F4F"/>
</g>
<defs>
<clipPath id="clip0_29120_140907">
<rect width="37" height="37" fill="white" transform="translate(0.101562 0.359375)"/>
</clipPath>
</defs>
</svg>
