<svg width="49" height="48" viewBox="0 0 49 48" fill="none" xmlns="http://www.w3.org/2000/svg">
<path d="M32.4174 7.76914C35.2862 4.88936 39.4822 4.82888 41.8052 7.16084C44.1324 9.49718 44.0698 13.7197 41.1992 16.6014L36.3516 21.4678C35.767 22.0548 35.7688 23.0046 36.3556 23.5892C36.9426 24.1738 37.8924 24.172 38.477 23.585L43.3246 18.7186C47.1472 14.8812 47.6272 8.75452 43.9306 5.04362C40.2296 1.32832 34.1166 1.81255 30.292 5.65194L20.5968 15.3849C16.7742 19.2223 16.2943 25.349 19.9908 29.0598C20.5755 29.6468 21.5252 29.6486 22.112 29.064C22.699 28.4794 22.7008 27.5296 22.1162 26.9426C19.7889 24.6064 19.8516 20.3838 22.7222 17.5021L32.4174 7.76914Z" fill="#FF4F4F"/>
<path d="M29.9306 18.9414C29.346 18.3545 28.3962 18.3526 27.8092 18.9373C27.2225 19.5219 27.2206 20.4717 27.8053 21.0585C30.1325 23.3949 30.0698 27.6173 27.1992 30.4991L17.504 40.2321C14.6353 43.1119 10.4392 43.1725 8.11627 40.8405C5.78893 38.5041 5.85163 34.2815 8.72223 31.3997L13.5699 26.5333C14.1546 25.9463 14.1527 24.9967 13.5658 24.4119C12.9789 23.8273 12.0291 23.8291 11.4445 24.4161L6.59681 29.2825C2.7742 33.1201 2.29428 39.2467 5.99083 42.9577C9.69179 46.6729 15.8049 46.1887 19.6294 42.3493L29.3246 32.6163C33.1472 28.7789 33.6272 22.6523 29.9306 18.9414Z" fill="#FF4F4F"/>
</svg>
