<svg width="20" height="20" viewBox="0 0 20 20" fill="none" xmlns="http://www.w3.org/2000/svg">
<path fill-rule="evenodd" clip-rule="evenodd" d="M10 0C9.43749 0 8.91944 0.139805 8.35237 0.374344C7.80473 0.600819 7.16868 0.934614 6.37665 1.35026L4.45339 2.35954C3.48132 2.86965 2.7034 3.27787 2.10276 3.67899C1.4805 4.09455 1.00123 4.5321 0.652205 5.12482C0.304354 5.71554 0.14787 6.3552 0.0728281 7.11695C-9.10704e-06 7.85635 -9.09558e-06 8.76567 2.06746e-07 9.9094V10.0906C-9.09558e-06 11.2342 -9.10704e-06 12.1436 0.0728281 12.8831C0.14787 13.6448 0.304354 14.2845 0.652205 14.8752C1.00123 15.4679 1.4805 15.9055 2.10276 16.321C2.7034 16.7221 3.48131 17.1303 4.45337 17.6405L6.37657 18.6497C7.16863 19.0654 7.80471 19.3992 8.35237 19.6257C8.91944 19.8602 9.43749 20 10 20C10.5625 20 11.0806 19.8602 11.6476 19.6257C12.1953 19.3992 12.8313 19.0654 13.6233 18.6498L15.5466 17.6405C16.5187 17.1303 17.2966 16.7221 17.8972 16.321C18.5195 15.9055 18.9988 15.4679 19.3478 14.8752C19.6956 14.2845 19.8521 13.6448 19.9272 12.8831C20 12.1436 20 11.2343 20 10.0907V9.9093C20 8.76567 20 7.85634 19.9272 7.11695C19.8521 6.3552 19.6956 5.71554 19.3478 5.12482C18.9988 4.5321 18.5195 4.09455 17.8972 3.67899C17.2966 3.27787 16.5187 2.86965 15.5466 2.35953L13.6233 1.35027C12.8313 0.934623 12.1953 0.600828 11.6476 0.374344C11.0806 0.139805 10.5625 0 10 0ZM6.99609 2.601C7.82374 2.16667 8.40372 1.86307 8.88558 1.66378C9.3546 1.4698 9.68419 1.39535 10 1.39535C10.3158 1.39535 10.6454 1.4698 11.1144 1.66378C11.5963 1.86307 12.1763 2.16667 13.0039 2.601L14.8644 3.57733C15.878 4.10928 16.5902 4.48402 17.1223 4.83937C17.3848 5.01468 17.5911 5.17747 17.7577 5.34115L14.6593 6.89031L6.75251 2.72883L6.99609 2.601ZM5.29736 3.49246L5.13563 3.57733C4.12196 4.10927 3.4098 4.48402 2.87769 4.83937C2.61517 5.01468 2.40889 5.17747 2.24236 5.34115L10 9.22L13.123 7.6585L5.48901 3.64064C5.41485 3.60161 5.35061 3.5511 5.29736 3.49246ZM1.56994 6.565C1.52296 6.76395 1.48745 6.98989 1.46145 7.25375C1.39613 7.91684 1.39535 8.75758 1.39535 9.94558V10.0544C1.39535 11.2424 1.39613 12.0832 1.46145 12.7462C1.52534 13.3948 1.64672 13.8141 1.85458 14.1672C2.06127 14.5181 2.36025 14.8151 2.87769 15.1607C3.4098 15.516 4.12196 15.8907 5.13563 16.4227L6.99609 17.399C7.82374 17.8333 8.40372 18.1369 8.88558 18.3362C9.03777 18.3992 9.17526 18.4495 9.30233 18.4888V10.4312L1.56994 6.565ZM10.6977 18.4888C10.8247 18.4495 10.9622 18.3992 11.1144 18.3362C11.5963 18.1369 12.1763 17.8333 13.0039 17.399L14.8644 16.4227C15.878 15.8907 16.5902 15.516 17.1223 15.1607C17.6397 14.8151 17.9387 14.5181 18.1454 14.1672C18.3533 13.8141 18.4747 13.3948 18.5385 12.7462C18.6039 12.0832 18.6047 11.2424 18.6047 10.0544V9.94558C18.6047 8.75758 18.6039 7.91684 18.5385 7.25375C18.5126 6.98988 18.477 6.76395 18.43 6.56499L15.3488 8.1056V10.9302C15.3488 11.3155 15.0365 11.6279 14.6512 11.6279C14.2659 11.6279 13.9535 11.3155 13.9535 10.9302V8.80326L10.6977 10.4312V18.4888Z" fill="#FF3A3A"/>
</svg>
