<svg width="20" height="20" viewBox="0 0 20 20" fill="none" xmlns="http://www.w3.org/2000/svg">
<path d="M10.8339 6.71175C10.8339 6.25152 10.4608 5.87842 10.0006 5.87842C9.54032 5.87842 9.16724 6.25152 9.16724 6.71175C9.16724 7.17198 9.54032 7.54508 10.0006 7.54508C10.4608 7.54508 10.8339 7.17198 10.8339 6.71175Z" fill="#FF4F4F"/>
<path d="M10.001 14.8475C10.3461 14.8475 10.626 14.5677 10.626 14.2225V9.22253C10.626 8.87737 10.3461 8.59753 10.001 8.59753C9.65581 8.59753 9.37598 8.87737 9.37598 9.22253V14.2225C9.37598 14.5677 9.65581 14.8475 10.001 14.8475Z" fill="#FF4F4F"/>
<path fill-rule="evenodd" clip-rule="evenodd" d="M10.0523 1.10083H9.95664C8.03301 1.10082 6.52547 1.10081 5.34923 1.25896C4.14528 1.42082 3.19527 1.75861 2.44959 2.50428C1.70392 3.24996 1.36613 4.19997 1.20427 5.40392C1.04613 6.58015 1.04613 8.08768 1.04614 10.0113V10.107C1.04613 12.0307 1.04613 13.5382 1.20427 14.7144C1.36613 15.9183 1.70392 16.8684 2.44959 17.6141C3.19527 18.3597 4.14528 18.6975 5.34923 18.8594C6.52547 19.0175 8.033 19.0175 9.95664 19.0175H10.0523C11.976 19.0175 13.4835 19.0175 14.6597 18.8594C15.8636 18.6975 16.8137 18.3597 17.5594 17.6141C18.3051 16.8684 18.6428 15.9183 18.8047 14.7144C18.9628 13.5382 18.9628 12.0307 18.9628 10.107V10.0113C18.9628 8.08769 18.9628 6.58015 18.8047 5.40392C18.6428 4.19997 18.3051 3.24996 17.5594 2.50428C16.8137 1.75861 15.8636 1.42082 14.6597 1.25896C13.4835 1.10081 11.976 1.10082 10.0523 1.10083ZM3.33348 3.38816C3.80818 2.91345 4.45045 2.64104 5.51579 2.49781C6.59911 2.35216 8.02262 2.35083 10.0045 2.35083C11.9863 2.35083 13.4098 2.35216 14.4931 2.49781C15.5585 2.64104 16.2007 2.91345 16.6755 3.38816C17.1502 3.86287 17.4226 4.50514 17.5658 5.57048C17.7115 6.6538 17.7128 8.0773 17.7128 10.0592C17.7128 12.041 17.7115 13.4645 17.5658 14.5478C17.4226 15.6132 17.1502 16.2554 16.6755 16.7302C16.2007 17.2049 15.5585 17.4773 14.4931 17.6205C13.4098 17.7662 11.9863 17.7675 10.0045 17.7675C8.02262 17.7675 6.59911 17.7662 5.51579 17.6205C4.45045 17.4773 3.80818 17.2049 3.33348 16.7302C2.85876 16.2554 2.58635 15.6132 2.44312 14.5478C2.29747 13.4645 2.29614 12.041 2.29614 10.0592C2.29614 8.0773 2.29747 6.6538 2.44312 5.57048C2.58635 4.50514 2.85876 3.86287 3.33348 3.38816Z" fill="#FF4F4F"/>
</svg>
