<svg width="45" height="45" viewBox="0 0 45 45" fill="none" xmlns="http://www.w3.org/2000/svg">
<path id="Vector" fill-rule="evenodd" clip-rule="evenodd" d="M22.5071 0.103272H22.6755C24.7106 0.103251 26.3578 0.10323 27.6867 0.24037C29.0639 0.382501 30.2598 0.684045 31.333 1.39187C31.9529 1.80083 32.5113 2.29625 32.9914 2.86316C33.822 3.84434 34.2638 4.99574 34.5691 6.34625C34.8636 7.64941 35.0599 9.28475 35.3022 11.3054L35.5151 13.0794C35.7639 15.1523 35.9702 16.8704 35.9432 18.2403C35.9147 19.6798 35.6291 21.004 34.6597 22.0967C33.6902 23.1896 32.4094 23.6308 30.9836 23.8306C29.6267 24.0207 27.8962 24.0205 25.8085 24.0205H24.1511V26.1003H32.9901C33.6577 26.1003 34.2831 26.28 34.8211 26.5936L35.4012 24.853C35.5441 24.4242 35.6449 24.1216 35.8296 23.7233C36.0083 23.3379 36.0991 23.1855 36.2416 22.9513C36.8341 21.9769 37.6061 21.1305 38.8569 20.5789C40.0349 20.0594 41.5065 19.861 43.3889 19.861C44.2503 19.861 44.9487 20.5594 44.9487 21.4208C44.9487 22.2822 44.2503 22.9806 43.3889 22.9806C41.6681 22.9806 40.7071 23.1724 40.1158 23.4332C39.5975 23.662 39.2637 23.986 38.907 24.5723C38.8438 24.6763 38.8176 24.7199 38.7895 24.7713C38.7625 24.8212 38.7259 24.893 38.66 25.0352C38.5545 25.2625 38.5038 25.4106 38.349 25.875L36.5496 31.2731C36.4822 31.4754 36.3772 31.6547 36.2451 31.8059C35.4168 33.9435 33.3405 35.4592 30.9103 35.4592H24.1511V37.8842C26.5566 38.5601 28.4774 40.3857 29.2705 42.765C29.5429 43.5823 29.1012 44.4656 28.284 44.738C27.4667 45.0105 26.5834 44.5687 26.311 43.7516C25.9428 42.6471 25.1606 41.7461 24.1511 41.2214V43.2583C24.1511 44.1197 23.4527 44.8181 22.5913 44.8181C21.7299 44.8181 21.0315 44.1197 21.0315 43.2583V41.2214C20.022 41.7461 19.2398 42.6471 18.8717 43.7516C18.5992 44.5687 17.7159 45.0105 16.8987 44.738C16.0814 44.4656 15.6397 43.5823 15.9121 42.765C16.7053 40.3857 18.626 38.5601 21.0315 37.8842V35.4592H14.2723C11.8421 35.4592 9.76593 33.9435 8.9375 31.8059C8.80537 31.6547 8.70044 31.4754 8.63298 31.2731L6.83365 25.875C6.67883 25.4106 6.62805 25.2625 6.52267 25.0352C6.4567 24.893 6.42009 24.8212 6.39303 24.7713C6.36498 24.7199 6.33879 24.6763 6.27557 24.5723C5.91897 23.986 5.58521 23.662 5.06679 23.4332C4.47549 23.1724 3.51446 22.9806 1.79371 22.9806C0.932249 22.9806 0.233887 22.2822 0.233887 21.4208C0.233887 20.5594 0.932249 19.861 1.79371 19.861C3.67616 19.861 5.14782 20.0594 6.32573 20.5789C7.57652 21.1305 8.34845 21.9769 8.94099 22.9513C9.08341 23.1855 9.17438 23.3379 9.35297 23.7233C9.53763 24.1216 9.63848 24.4242 9.78142 24.8532L10.3616 26.5936C10.8994 26.28 11.525 26.1003 12.1925 26.1003H21.0315V24.0205H19.3741C17.2864 24.0205 15.5559 24.0207 14.1991 23.8306C12.7732 23.6308 11.4924 23.1896 10.5229 22.0967C9.55346 21.004 9.26797 19.6798 9.23952 18.2403C9.21244 16.8704 9.41867 15.1523 9.66749 13.0794L9.88037 11.3054C10.1228 9.28477 10.319 7.64943 10.6136 6.34625C10.9188 4.99574 11.3606 3.84434 12.1913 2.86316C12.6712 2.29625 13.2296 1.80083 13.8497 1.39187C14.9228 0.684045 16.1187 0.382501 17.4959 0.24037C18.8249 0.10323 20.472 0.103251 22.5071 0.103272ZM30.9103 32.3396C32.3462 32.3396 33.51 31.1757 33.51 29.7399C33.51 29.4526 33.2773 29.2199 32.9901 29.2199H12.1925C11.9054 29.2199 11.6726 29.4526 11.6726 29.7399C11.6726 31.1757 12.8365 32.3396 14.2723 32.3396H30.9103ZM17.8162 3.34354C16.6961 3.45913 16.0571 3.67301 15.5673 3.99608C15.1953 4.24145 14.8602 4.53871 14.5723 4.87884C14.1932 5.32665 13.9047 5.93556 13.6565 7.03393C13.4016 8.1617 13.2227 9.63664 12.9678 11.7607L12.7787 13.3363C12.5126 15.5534 12.3363 17.0532 12.3586 18.1786C12.3799 19.2595 12.5848 19.7202 12.8566 20.0265C13.1283 20.3327 13.5612 20.591 14.6319 20.7411C15.7467 20.8973 17.2567 20.9009 19.4898 20.9009H25.6929C27.9259 20.9009 29.436 20.8973 30.5508 20.7411C31.6214 20.591 32.0542 20.3327 32.326 20.0265C32.5979 19.7202 32.8027 19.2595 32.8241 18.1786C32.8464 17.0532 32.67 15.5534 32.404 13.3363L32.2148 11.7607C31.96 9.63664 31.7809 8.1617 31.5262 7.03393C31.2778 5.93556 30.9894 5.32665 30.6102 4.87884C30.3224 4.53871 29.9874 4.24145 29.6153 3.99608C29.1255 3.67301 28.4866 3.45913 27.3664 3.34354C26.2163 3.22485 24.7305 3.22291 22.5913 3.22291C20.4521 3.22291 18.9663 3.22485 17.8162 3.34354Z" fill="#FF3A3A"/>
</svg>
