<svg width="42" height="42" viewBox="0 0 42 42" fill="none" xmlns="http://www.w3.org/2000/svg">
<path fill-rule="evenodd" clip-rule="evenodd" d="M20.8996 2.1875H21.1004C25.1402 2.18748 28.3059 2.18747 30.776 2.51956C33.3043 2.85948 35.2994 3.56883 36.8653 5.13475C38.4312 6.70066 39.1405 8.6957 39.4805 11.224C39.8125 13.6941 39.8125 16.8599 39.8125 20.8996V21.1004C39.8125 25.1402 39.8125 28.3059 39.4805 30.776C39.1405 33.3043 38.4312 35.2994 36.8653 36.8653C35.2994 38.4312 33.3043 39.1405 30.776 39.4805C28.3059 39.8125 25.1402 39.8125 21.1004 39.8125H20.8996C16.8599 39.8125 13.6941 39.8125 11.224 39.4805C8.6957 39.1405 6.70066 38.4312 5.13475 36.8653C3.56883 35.2994 2.85948 33.3043 2.51956 30.776C2.18747 28.3059 2.18748 25.1402 2.1875 21.1004V20.8996C2.18748 16.8599 2.18747 13.6941 2.51956 11.224C2.85948 8.6957 3.56883 6.70066 5.13475 5.13475C6.70066 3.56883 8.6957 2.85948 11.224 2.51956C13.6941 2.18747 16.8599 2.18748 20.8996 2.1875ZM11.5738 5.12115C9.33655 5.42194 7.98779 5.994 6.9909 6.9909C5.994 7.98779 5.42194 9.33655 5.12115 11.5738C4.81528 13.8487 4.8125 16.8381 4.8125 21C4.8125 25.1618 4.81528 28.1512 5.12115 30.4262C5.42194 32.6634 5.994 34.0121 6.9909 35.0091C7.98779 36.0061 9.33655 36.5782 11.5738 36.8788C13.8487 37.1847 16.8381 37.1875 21 37.1875C25.1618 37.1875 28.1512 37.1847 30.4262 36.8788C32.6634 36.5782 34.0121 36.0061 35.0091 35.0091C36.0061 34.0121 36.5782 32.6634 36.8788 30.4262C37.1847 28.1512 37.1875 25.1618 37.1875 21C37.1875 16.8381 37.1847 13.8487 36.8788 11.5738C36.5782 9.33655 36.0061 7.98779 35.0091 6.9909C34.0121 5.994 32.6634 5.42194 30.4262 5.12115C28.1512 4.81528 25.1618 4.8125 21 4.8125C16.8381 4.8125 13.8487 4.81528 11.5738 5.12115ZM19.159 9.1875H22.841C24.4134 9.18745 25.7245 9.18741 26.7654 9.32734C27.864 9.47506 28.8559 9.79998 29.6529 10.5971C30.45 11.3941 30.775 12.386 30.9227 13.4847C31.0627 14.5255 31.0625 15.8367 31.0625 17.409V17.9375H33.25C33.9748 17.9375 34.5625 18.5252 34.5625 19.25C34.5625 19.9748 33.9748 20.5625 33.25 20.5625H8.75C8.02513 20.5625 7.4375 19.9748 7.4375 19.25C7.4375 18.5252 8.02513 17.9375 8.75 17.9375H10.9375V17.409C10.9374 15.8367 10.9374 14.5255 11.0773 13.4847C11.2251 12.386 11.55 11.3941 12.3471 10.5971C13.1441 9.79998 14.136 9.47506 15.2347 9.32734C16.2755 9.18741 17.5866 9.18745 19.159 9.1875ZM13.5625 17.9375H28.4375V17.5C28.4375 15.813 28.4347 14.6798 28.3211 13.8344C28.2125 13.0269 28.0248 12.6813 27.7968 12.4532C27.5688 12.2252 27.2232 12.0375 26.4156 11.9289C25.5703 11.8153 24.437 11.8125 22.75 11.8125H19.25C17.563 11.8125 16.4298 11.8153 15.5844 11.9289C14.7769 12.0375 14.4313 12.2252 14.2032 12.4532C13.9752 12.6813 13.7875 13.0269 13.6789 13.8344C13.5653 14.6798 13.5625 15.813 13.5625 17.5V17.9375ZM12.6875 28C12.6875 27.2752 13.2751 26.6875 14 26.6875H28C28.7248 26.6875 29.3125 27.2752 29.3125 28C29.3125 28.7248 28.7248 29.3125 28 29.3125H14C13.2751 29.3125 12.6875 28.7248 12.6875 28Z" fill="#FF4F4F"/>
</svg>
