<svg width="38" height="39" viewBox="0 0 38 39" fill="none" xmlns="http://www.w3.org/2000/svg">
<g id="money-bag-svgrepo-com 3">
<path id="Vector" fill-rule="evenodd" clip-rule="evenodd" d="M18.7053 2.85559H18.8669C20.2628 2.85555 21.4267 2.85551 22.3508 2.97974C23.3261 3.11088 24.2067 3.39933 24.9142 4.10695C25.6219 4.81456 25.9104 5.69514 26.0415 6.67047C26.1333 7.35343 26.1572 8.16746 26.1635 9.10931C27.171 9.14164 28.0691 9.20055 28.8673 9.30787C30.6888 9.55275 32.1631 10.0687 33.3258 11.2314C34.4884 12.394 35.0043 13.8683 35.2493 15.6898C35.4872 17.4597 35.4872 19.7211 35.4872 22.5763V22.7515C35.4872 25.6067 35.4872 27.8681 35.2493 29.638C35.0043 31.4594 34.4884 32.9337 33.3258 34.0965C32.1631 35.259 30.6888 35.775 28.8673 36.02C27.0975 36.2578 24.8361 36.2578 21.9809 36.2578H15.5912C12.7361 36.2578 10.4747 36.2578 8.70478 36.02C6.88332 35.775 5.40904 35.259 4.24638 34.0965C3.08373 32.9337 2.56776 31.4594 2.32288 29.638C2.08491 27.8681 2.08493 25.6067 2.08496 22.7515V22.5763C2.08493 19.7211 2.08491 17.4597 2.32288 15.6898C2.56776 13.8683 3.08373 12.394 4.24638 11.2314C5.40904 10.0687 6.88332 9.55275 8.70478 9.30787C9.50297 9.20055 10.4012 9.14164 11.4087 9.10931C11.4149 8.16746 11.4388 7.35343 11.5307 6.67047C11.6618 5.69514 11.9503 4.81456 12.6579 4.10695C13.3655 3.39933 14.2461 3.11088 15.2214 2.97974C16.1454 2.85551 17.3094 2.85555 18.7053 2.85559ZM13.7397 9.07272C14.3272 9.06994 14.9439 9.06996 15.5912 9.06996H21.9809C22.6283 9.06996 23.245 9.06994 23.8324 9.07272C23.8259 8.18668 23.8042 7.51831 23.7319 6.98098C23.6355 6.26406 23.4689 5.95724 23.2665 5.75478C23.064 5.55232 22.7572 5.38574 22.0402 5.28936C21.2898 5.18847 20.2837 5.18598 18.7861 5.18598C17.2884 5.18598 16.2823 5.18847 15.5319 5.28936C14.815 5.38574 14.5081 5.55232 14.3057 5.75478C14.1032 5.95724 13.9367 6.26406 13.8403 6.98098C13.768 7.51831 13.7462 8.18668 13.7397 9.07272ZM9.0153 11.6175C7.45225 11.8276 6.55171 12.2217 5.89421 12.8792C5.23672 13.5367 4.84262 14.4372 4.63248 16.0003C4.41782 17.5968 4.41535 19.7015 4.41535 22.6639C4.41535 25.6263 4.41782 27.7309 4.63248 29.3275C4.84262 30.8905 5.23672 31.7911 5.89421 32.4486C6.55171 33.106 7.45225 33.5002 9.0153 33.7102C10.6119 33.9249 12.7165 33.9274 15.6789 33.9274H21.8933C24.8556 33.9274 26.9603 33.9249 28.5569 33.7102C30.1198 33.5002 31.0204 33.106 31.6779 32.4486C32.3354 31.7911 32.7296 30.8905 32.9396 29.3275C33.1543 27.7309 33.1568 25.6263 33.1568 22.6639C33.1568 19.7015 33.1543 17.5968 32.9396 16.0003C32.7296 14.4372 32.3354 13.5367 31.6779 12.8792C31.0204 12.2217 30.1198 11.8276 28.5569 11.6175C26.9603 11.4028 24.8556 11.4003 21.8933 11.4003H15.6789C12.7165 11.4003 10.6119 11.4028 9.0153 11.6175ZM18.7861 15.2843C19.4296 15.2843 19.9513 15.806 19.9513 16.4495V16.4654C21.6428 16.8915 23.0584 18.2253 23.0584 20.0745C23.0584 20.718 22.5368 21.2397 21.8933 21.2397C21.2498 21.2397 20.7281 20.718 20.7281 20.0745C20.7281 19.4779 20.0665 18.6505 18.7861 18.6505C17.5056 18.6505 16.8441 19.4779 16.8441 20.0745C16.8441 20.6712 17.5056 21.4987 18.7861 21.4987C20.9376 21.4987 23.0584 22.9898 23.0584 25.2533C23.0584 27.1025 21.6428 28.4363 19.9513 28.8624V28.8783C19.9513 29.5217 19.4296 30.0434 18.7861 30.0434C18.1426 30.0434 17.6209 29.5217 17.6209 28.8783V28.8624C15.9293 28.4363 14.5137 27.1025 14.5137 25.2533C14.5137 24.6098 15.0354 24.0881 15.6789 24.0881C16.3224 24.0881 16.8441 24.6098 16.8441 25.2533C16.8441 25.8498 17.5056 26.6773 18.7861 26.6773C20.0665 26.6773 20.7281 25.8498 20.7281 25.2533C20.7281 24.6565 20.0665 23.8291 18.7861 23.8291C16.6345 23.8291 14.5137 22.3381 14.5137 20.0745C14.5137 18.2253 15.9293 16.8915 17.6209 16.4654V16.4495C17.6209 15.806 18.1426 15.2843 18.7861 15.2843Z" fill="#FF3A3A"/>
</g>
</svg>
