<svg width="36" height="37" viewBox="0 0 36 37" fill="none" xmlns="http://www.w3.org/2000/svg">
<path fill-rule="evenodd" clip-rule="evenodd" d="M18 23.3594C18.6213 23.3594 19.125 23.8631 19.125 24.4844V30.7683L20.2045 29.6889C20.6439 29.2496 21.3561 29.2496 21.7954 29.6889C22.2348 30.1283 22.2348 30.8405 21.7954 31.2798L18.7954 34.2798C18.3561 34.7192 17.6439 34.7192 17.2045 34.2798L14.2045 31.2798C13.7652 30.8405 13.7652 30.1283 14.2045 29.6889C14.6438 29.2496 15.3561 29.2496 15.7954 29.6889L16.875 30.7683V24.4844C16.875 23.8631 17.3787 23.3594 18 23.3594Z" fill="#FF4F4F"/>
<path d="M18.3393 5.73438C14.2141 5.73438 10.8928 9.03562 10.8928 13.08C10.8928 13.7732 10.9899 14.4426 11.1709 15.0766C11.9167 15.2918 12.6149 15.6177 13.2457 16.035C13.7639 16.3778 13.9061 17.0757 13.5633 17.594C13.2205 18.1122 12.5225 18.2544 12.0043 17.9115C11.4331 17.5337 10.7838 17.2626 10.0849 17.127C9.7522 17.0625 9.40747 17.0285 9.05356 17.0285C6.1119 17.0285 3.75 19.3817 3.75 22.2564C3.75 25.1312 6.1119 27.4844 9.05356 27.4844C9.67489 27.4844 10.1786 27.9881 10.1786 28.6094C10.1786 29.2307 9.67489 29.7344 9.05356 29.7344C4.89444 29.7344 1.5 26.399 1.5 22.2564C1.5 18.2001 4.7548 14.9175 8.79526 14.7828C8.69509 14.2297 8.64285 13.6606 8.64285 13.08C8.64285 7.76796 12.9967 3.48438 18.3393 3.48438C23.0764 3.48438 27.0336 6.84991 27.8721 11.3163C31.3219 12.7806 33.75 16.1733 33.75 20.1387C33.75 24.7497 30.4684 28.5858 26.1102 29.5179C25.5027 29.6478 24.9048 29.2605 24.7749 28.653C24.645 28.0454 25.0321 27.4475 25.6398 27.3176C28.9993 26.5991 31.5 23.6489 31.5 20.1387C31.5 16.9337 29.416 14.1957 26.4936 13.1963C25.7307 12.9355 24.9102 12.7932 24.0535 12.7932C23.1796 12.7932 22.3432 12.9412 21.5674 13.2123C20.9808 13.4172 20.3392 13.1077 20.1343 12.5212C19.9294 11.9346 20.2389 11.293 20.8254 11.0881C21.8368 10.7348 22.9239 10.5432 24.0535 10.5432C24.4968 10.5432 24.9334 10.5727 25.3615 10.6299C24.3405 7.78384 21.5883 5.73438 18.3393 5.73438Z" fill="#FF4F4F"/>
</svg>
