<svg width="38" height="39" viewBox="0 0 38 39" fill="none" xmlns="http://www.w3.org/2000/svg">
<g id="icons8-gift-6 2">
<path id="Vector" d="M36.5155 12.3218C36.5155 11.3769 36.1401 10.4708 35.472 9.80271C34.8039 9.13461 33.8978 8.75928 32.953 8.75928H25.9705C26.5726 7.8313 26.7987 6.70886 26.6029 5.62013C26.4071 4.5314 25.8041 3.55807 24.9164 2.89799C24.0288 2.2379 22.9231 1.9406 21.824 2.06651C20.725 2.19243 19.7152 2.7321 18.9998 3.57584C18.2963 2.68806 17.2743 2.10956 16.1511 1.96323C15.0278 1.81691 13.8917 2.1143 12.9842 2.79223C12.0767 3.47015 11.4693 4.47519 11.291 5.59382C11.1126 6.71246 11.3775 7.85654 12.0292 8.78303H5.02296C4.19612 8.81285 3.40544 9.12955 2.78662 9.67875C2.16781 10.228 1.75945 10.9754 1.63164 11.7929C1.50382 12.6103 1.66452 13.4468 2.08616 14.1587C2.50779 14.8706 3.16406 15.4135 3.94234 15.6943V33.6137C3.94391 34.4793 4.28847 35.309 4.90055 35.9211C5.51263 36.5331 6.34235 36.8777 7.20796 36.8793H30.7917C31.6573 36.8777 32.487 36.5331 33.0991 35.9211C33.7112 35.309 34.0558 34.4793 34.0573 33.6137V15.6943C34.7697 15.462 35.3906 15.0111 35.8319 14.4056C36.2732 13.8002 36.5124 13.071 36.5155 12.3218ZM16.9217 35.098V15.8605H21.078V35.098H16.9217ZM16.9217 14.0793V10.5643H21.078V14.0793H16.9217ZM22.4673 3.62928C23.1508 3.62928 23.8062 3.90077 24.2895 4.38403C24.7727 4.86729 25.0442 5.52273 25.0442 6.20616C25.0442 6.88959 24.7727 7.54502 24.2895 8.02828C23.8062 8.51154 23.1508 8.78303 22.4673 8.78303H19.8905V6.20616C19.892 5.52321 20.164 4.86868 20.6469 4.38576C21.1299 3.90284 21.7844 3.63085 22.4673 3.62928ZM12.9673 6.20616C12.9673 5.52273 13.2388 4.86729 13.7221 4.38403C14.2053 3.90077 14.8608 3.62928 15.5442 3.62928C16.2276 3.62928 16.8831 3.90077 17.3663 4.38403C17.8496 4.86729 18.1211 5.52273 18.1211 6.20616V8.78303H15.5323C14.8494 8.78146 14.1949 8.50947 13.7119 8.02655C13.229 7.54363 12.957 6.8891 12.9555 6.20616H12.9673ZM3.26546 12.3218C3.26546 11.8494 3.45313 11.3963 3.78718 11.0622C4.12123 10.7282 4.5743 10.5405 5.04671 10.5405H15.1464V14.0793H5.05265C4.58329 14.0809 4.13227 13.8972 3.79761 13.5681C3.46296 13.239 3.27172 12.7911 3.26546 12.3218ZM5.72359 33.6137V15.8605H15.1464V35.098H7.20796C6.81428 35.098 6.43673 34.9416 6.15835 34.6633C5.87998 34.3849 5.72359 34.0073 5.72359 33.6137ZM32.2761 33.6137C32.2761 34.0073 32.1197 34.3849 31.8413 34.6633C31.5629 34.9416 31.1854 35.098 30.7917 35.098H22.8533V15.8605H32.2761V33.6137ZM32.9767 14.0793H22.883V10.5643H32.9767C33.3932 10.633 33.7718 10.8474 34.045 11.1693C34.3181 11.4912 34.4681 11.8996 34.4681 12.3218C34.4681 12.7439 34.3181 13.1524 34.045 13.4743C33.7718 13.7962 33.3932 14.0106 32.9767 14.0793Z" fill="#FF3A3A"/>
</g>
</svg>
