<svg width="20" height="20" viewBox="0 0 20 20" fill="none" xmlns="http://www.w3.org/2000/svg">
<path d="M6.46216 7.50159C6.46216 7.15641 6.18233 6.87659 5.83716 6.87659C5.49198 6.87659 5.21216 7.15641 5.21216 7.50159V15.0016C5.21216 15.3468 5.49198 15.6266 5.83716 15.6266C6.18233 15.6266 6.46216 15.3468 6.46216 15.0016V7.50159Z" fill="#FF4F4F"/>
<path d="M10.001 4.38489C10.3461 4.38489 10.626 4.66471 10.626 5.00989V15.0099C10.626 15.3551 10.3461 15.6349 10.001 15.6349C9.65581 15.6349 9.37598 15.3551 9.37598 15.0099V5.00989C9.37598 4.66471 9.65581 4.38489 10.001 4.38489Z" fill="#FF4F4F"/>
<path d="M14.7869 10.8383C14.7869 10.4931 14.507 10.2133 14.1619 10.2133C13.8167 10.2133 13.5369 10.4931 13.5369 10.8383V15.0049C13.5369 15.3501 13.8167 15.6299 14.1619 15.6299C14.507 15.6299 14.7869 15.3501 14.7869 15.0049V10.8383Z" fill="#FF4F4F"/>
<path fill-rule="evenodd" clip-rule="evenodd" d="M9.95664 1.06982C8.033 1.06982 6.52547 1.06981 5.34923 1.22795C4.14528 1.38982 3.19527 1.7276 2.44959 2.47327C1.70392 3.21895 1.36613 4.16897 1.20427 5.37292C1.04613 6.54915 1.04613 8.05668 1.04614 9.98032V10.076C1.04613 11.9997 1.04613 13.5072 1.20427 14.6834C1.36613 15.8873 1.70392 16.8374 2.44959 17.5831C3.19527 18.3287 4.14528 18.6665 5.34923 18.8284C6.52547 18.9865 8.033 18.9865 9.95664 18.9865H10.0523C11.976 18.9865 13.4835 18.9865 14.6597 18.8284C15.8636 18.6665 16.8137 18.3287 17.5594 17.5831C18.3051 16.8374 18.6428 15.8873 18.8047 14.6834C18.9628 13.5072 18.9628 11.9997 18.9628 10.076V9.98032C18.9628 8.05668 18.9628 6.54915 18.8047 5.37292C18.6428 4.16897 18.3051 3.21895 17.5594 2.47327C16.8137 1.7276 15.8636 1.38982 14.6597 1.22795C13.4835 1.06981 11.976 1.06982 10.0523 1.06982H9.95664ZM3.33348 3.35716C3.80818 2.88244 4.45045 2.61003 5.51579 2.4668C6.59911 2.32115 8.02263 2.31982 10.0045 2.31982C11.9863 2.31982 13.4098 2.32115 14.4931 2.4668C15.5585 2.61003 16.2007 2.88244 16.6755 3.35716C17.1502 3.83187 17.4226 4.47413 17.5658 5.53947C17.7115 6.62279 17.7128 8.04631 17.7128 10.0282C17.7128 12.01 17.7115 13.4335 17.5658 14.5168C17.4226 15.5822 17.1502 16.2244 16.6755 16.6992C16.2007 17.1739 15.5585 17.4463 14.4931 17.5895C13.4098 17.7352 11.9863 17.7365 10.0045 17.7365C8.02263 17.7365 6.59911 17.7352 5.51579 17.5895C4.45045 17.4463 3.80818 17.1739 3.33348 16.6992C2.85876 16.2244 2.58635 15.5822 2.44312 14.5168C2.29747 13.4335 2.29614 12.01 2.29614 10.0282C2.29614 8.04631 2.29747 6.62279 2.44312 5.53947C2.58635 4.47413 2.85876 3.83187 3.33348 3.35716Z" fill="#FF4F4F"/>
</svg>
