<svg width="36" height="37" viewBox="0 0 36 37" fill="none" xmlns="http://www.w3.org/2000/svg">
<path fill-rule="evenodd" clip-rule="evenodd" d="M17.9951 12.7031C14.8885 12.7031 12.3701 15.2215 12.3701 18.3281C12.3701 21.4348 14.8885 23.9531 17.9951 23.9531C21.1018 23.9531 23.6201 21.4348 23.6201 18.3281C23.6201 15.2215 21.1018 12.7031 17.9951 12.7031ZM14.6201 18.3281C14.6201 16.4642 16.1312 14.9531 17.9951 14.9531C19.859 14.9531 21.3701 16.4642 21.3701 18.3281C21.3701 20.192 19.859 21.7031 17.9951 21.7031C16.1312 21.7031 14.6201 20.192 14.6201 18.3281Z" fill="#FF4F4F"/>
<path fill-rule="evenodd" clip-rule="evenodd" d="M17.9594 2.20899C17.2928 2.20897 16.7361 2.20897 16.2792 2.24014C15.8036 2.2726 15.3543 2.34256 14.9187 2.52298C13.908 2.94164 13.105 3.74467 12.6863 4.75541C12.4683 5.28161 12.4093 5.83616 12.3868 6.43892C12.3687 6.92347 12.1241 7.32775 11.7632 7.5361C11.4024 7.74445 10.93 7.75408 10.5013 7.5275C9.96803 7.24564 9.45825 7.01947 8.89356 6.94513C7.80891 6.80233 6.71195 7.09627 5.844 7.76227C5.46996 8.04928 5.18472 8.40338 4.9188 8.79908C4.66334 9.1792 4.38507 9.66121 4.05173 10.2386L4.01385 10.3042C3.68049 10.8816 3.40221 11.3635 3.20075 11.7748C2.99103 12.203 2.82698 12.6271 2.76543 13.0945C2.62263 14.1792 2.91657 15.2761 3.58256 16.1441C3.92924 16.5958 4.37991 16.9243 4.89057 17.2451C5.30124 17.5031 5.52914 17.9171 5.52911 18.334C5.52909 18.7507 5.3012 19.1647 4.89057 19.4227C4.37985 19.7435 3.92913 20.072 3.58242 20.5238C2.91642 21.3917 2.6225 22.4887 2.76528 23.5733C2.82683 24.0407 2.99088 24.4649 3.2006 24.893C3.40206 25.3043 3.68034 25.7863 4.01369 26.3636L4.05158 26.4293C4.38492 27.0067 4.66319 27.4886 4.91865 27.8687C5.18457 28.2644 5.46981 28.6186 5.84385 28.9055C6.7118 29.5715 7.80876 29.8655 8.89341 29.7227C9.45807 29.6483 9.96782 29.4223 10.5011 29.1404C10.9298 28.9138 11.4023 28.9234 11.7632 29.1319C12.1241 29.3402 12.3687 29.7445 12.3868 30.2291C12.4093 30.8318 12.4684 31.3864 12.6863 31.9126C13.105 32.9233 13.908 33.7264 14.9187 34.145C15.3543 34.3255 15.8036 34.3954 16.2792 34.4278C16.7361 34.459 17.2928 34.459 17.9594 34.459H18.0351C18.7019 34.459 19.2584 34.459 19.7154 34.4278C20.1911 34.3954 20.6403 34.3255 21.0759 34.145C22.0866 33.7264 22.8897 32.9233 23.3084 31.9126C23.5263 31.3864 23.5853 30.8318 23.6078 30.229C23.6259 29.7445 23.8704 29.3402 24.2313 29.1317C24.5922 28.9234 25.0647 28.9138 25.4934 29.1403C26.0267 29.4221 26.5364 29.6483 27.1011 29.7226C28.1858 29.8654 29.2827 29.5715 30.1506 28.9055C30.5247 28.6184 30.8099 28.2644 31.0758 27.8687C31.3313 27.4886 31.6095 27.0067 31.9428 26.4293L31.9808 26.3636C32.3141 25.7863 32.5925 25.3042 32.7939 24.8929C33.0036 24.4648 33.1676 24.0407 33.2292 23.5733C33.372 22.4885 33.078 21.3916 32.412 20.5237C32.0654 20.0719 31.6146 19.7435 31.104 19.4227C30.6933 19.1647 30.4655 18.7507 30.4655 18.3338C30.4655 17.9171 30.6933 17.5033 31.1039 17.2453C31.6148 16.9244 32.0655 16.5961 32.4122 16.1441C33.0782 15.2762 33.3722 14.1793 33.2294 13.0946C33.1677 12.6272 33.0038 12.2031 32.7941 11.7749C32.5926 11.3637 32.3144 10.8817 31.9809 10.3044L31.9431 10.2388C31.6097 9.66136 31.3314 9.1793 31.076 8.79919C30.81 8.40349 30.5249 8.04938 30.1508 7.76236C29.2829 7.09637 28.1859 6.80243 27.1011 6.94523C26.5365 7.01957 26.0268 7.24571 25.4936 7.52756C25.0649 7.75417 24.5924 7.74452 24.2315 7.53614C23.8706 7.32778 23.6259 6.92344 23.6078 6.43885C23.5853 5.8361 23.5263 5.28158 23.3084 4.75541C22.8897 3.74467 22.0866 2.94164 21.0759 2.52298C20.6403 2.34256 20.1911 2.2726 19.7154 2.24014C19.2584 2.20897 18.7019 2.20897 18.0351 2.20899H17.9594ZM15.7797 4.60171C15.8955 4.55377 16.0713 4.50957 16.4324 4.48492C16.8036 4.4596 17.283 4.45898 17.9973 4.45898C18.7116 4.45898 19.191 4.4596 19.5621 4.48492C19.9233 4.50957 20.0991 4.55377 20.2148 4.60171C20.6742 4.79201 21.0393 5.15702 21.2295 5.61646C21.2897 5.76137 21.3393 5.98729 21.3594 6.52294C21.4038 7.71151 22.0173 8.85592 23.1065 9.4847C24.1955 10.1135 25.4934 10.0726 26.5449 9.5168C27.0188 9.26633 27.2394 9.19646 27.3948 9.17599C27.8879 9.11108 28.3865 9.24469 28.781 9.5474C28.8804 9.62366 29.0066 9.75382 29.2085 10.0542C29.4161 10.363 29.6562 10.7779 30.0134 11.3965C30.3705 12.0151 30.6098 12.4306 30.7734 12.7647C30.9326 13.0897 30.9822 13.2641 30.9986 13.3883C31.0635 13.8813 30.9299 14.3799 30.6272 14.7745C30.5316 14.8989 30.3609 15.055 29.9069 15.3401C28.8999 15.973 28.2156 17.0764 28.2155 18.3338C28.2155 19.5914 28.8998 20.695 29.9069 21.3278C30.3608 21.613 30.5315 21.769 30.627 21.8935C30.9297 22.288 31.0634 22.7866 30.9984 23.2796C30.9821 23.4038 30.9324 23.5781 30.7733 23.9032C30.6096 24.2372 30.3704 24.6527 30.0132 25.2713C29.6561 25.8899 29.4159 26.3048 29.2083 26.6137C29.0064 26.914 28.8803 27.0442 28.7808 27.1204C28.3863 27.4232 27.8877 27.5567 27.3947 27.4919C27.2393 27.4714 27.0186 27.4015 26.5448 27.1511C25.4933 26.5952 24.1953 26.5544 23.1062 27.1832C22.0173 27.812 21.4038 28.9564 21.3594 30.145C21.3393 30.6806 21.2897 30.9065 21.2295 31.0516C21.0393 31.5109 20.6742 31.876 20.2148 32.0663C20.0991 32.1142 19.9233 32.1584 19.5621 32.183C19.191 32.2084 18.7116 32.209 17.9973 32.209C17.283 32.209 16.8036 32.2084 16.4324 32.183C16.0713 32.1584 15.8955 32.1142 15.7797 32.0663C15.3204 31.876 14.9553 31.5109 14.765 31.0516C14.705 30.9065 14.6552 30.6806 14.6352 30.145C14.5908 28.9565 13.9773 27.812 12.8882 27.1832C11.7991 26.5544 10.5012 26.5954 9.44969 27.1511C8.97579 27.4016 8.75526 27.4715 8.59974 27.4919C8.10671 27.5569 7.60809 27.4232 7.21358 27.1205C7.11419 27.0443 6.98799 26.9141 6.78611 26.6137C6.57858 26.305 6.33836 25.8901 5.98121 25.2715C5.62404 24.6529 5.38488 24.2374 5.22122 23.9033C5.06201 23.5783 5.01239 23.4038 4.99604 23.2796C4.93113 22.7866 5.06474 22.288 5.36747 21.8935C5.46296 21.7691 5.63373 21.613 6.08762 21.3278C7.09469 20.6951 7.77905 19.5916 7.77911 18.3341C7.77918 17.0764 7.09479 15.9728 6.08763 15.34C5.63385 15.0548 5.46309 14.8988 5.3676 14.7743C5.06489 14.3798 4.93128 13.8812 4.99619 13.3882C5.01254 13.264 5.06216 13.0896 5.22137 12.7646C5.38503 12.4304 5.62419 12.015 5.98134 11.3964C6.33851 10.7778 6.57872 10.3629 6.78626 10.0541C6.98814 9.75373 7.11434 9.62356 7.21371 9.54731C7.60824 9.24458 8.10686 9.11098 8.59988 9.17588C8.75541 9.19636 8.97596 9.26623 9.44991 9.51674C10.5014 10.0725 11.7992 10.1134 12.8882 9.48466C13.9773 8.8559 14.5908 7.71154 14.6352 6.52301C14.6552 5.98732 14.705 5.76139 14.765 5.61646C14.9553 5.15702 15.3204 4.79201 15.7797 4.60171Z" fill="#FF4F4F"/>
</svg>
