<svg width="20" height="20" viewBox="0 0 20 20" fill="none" xmlns="http://www.w3.org/2000/svg">
<path d="M11.4579 7.49756C11.4579 7.15238 11.1781 6.87256 10.8329 6.87256C10.4878 6.87256 10.2079 7.15238 10.2079 7.49756V8.53923H9.16626C8.82109 8.53923 8.54126 8.81907 8.54126 9.16423C8.54126 9.5094 8.82109 9.78923 9.16626 9.78923H10.2079V10.8309C10.2079 11.1761 10.4878 11.4559 10.8329 11.4559C11.1781 11.4559 11.4579 11.1761 11.4579 10.8309V9.78923H12.4996C12.8448 9.78923 13.1246 9.5094 13.1246 9.16423C13.1246 8.81907 12.8448 8.53923 12.4996 8.53923H11.4579V7.49756Z" fill="#FF3A3A"/>
<path fill-rule="evenodd" clip-rule="evenodd" d="M1.08121 2.29189C1.1957 1.96626 1.55249 1.79508 1.87812 1.90957L2.12929 1.99787C2.64306 2.17848 3.07942 2.33188 3.42283 2.50038C3.79002 2.68055 4.1049 2.9025 4.34171 3.24905C4.5767 3.59292 4.67371 3.97018 4.71849 4.38383C4.72169 4.41344 4.72466 4.44357 4.7274 4.47419H14.2709C14.9531 4.47418 15.6486 4.47417 16.2212 4.53817C16.5126 4.57076 16.8014 4.62267 17.0568 4.71242C17.3072 4.8004 17.5825 4.94449 17.7783 5.19901C18.0965 5.61267 18.1521 6.09434 18.122 6.58284C18.0932 7.04793 17.9778 7.62617 17.8406 8.31358L17.8319 8.35712L17.8311 8.36095L17.407 10.4187C17.2822 11.024 17.1772 11.5334 17.0419 11.9352C16.8982 12.3614 16.6991 12.736 16.3437 13.0257C15.9882 13.3153 15.5811 13.4348 15.1347 13.4894C14.7138 13.5409 14.1938 13.5409 13.5758 13.5409H9.07099C7.94952 13.5409 7.04131 13.5409 6.32612 13.4394C5.57926 13.3335 4.95192 13.1063 4.45704 12.5844C4.00184 12.1042 3.7584 11.5945 3.63646 10.8826C3.52225 10.2158 3.51089 9.34295 3.51089 8.13252V5.86449C3.51089 5.24787 3.51004 4.83519 3.47575 4.51835C3.44297 4.21556 3.38489 4.06437 3.30967 3.9543C3.23629 3.84692 3.1249 3.74656 2.87221 3.62257C2.60317 3.49057 2.23754 3.36094 1.68121 3.16534L1.46353 3.08882C1.13789 2.97432 0.966714 2.61753 1.08121 2.29189ZM4.76089 5.72419V8.13252C4.76089 9.37337 4.77589 10.1307 4.86852 10.6716C4.95343 11.1674 5.09734 11.4429 5.36415 11.7243C5.59126 11.9639 5.90595 12.1174 6.50162 12.2019C7.11885 12.2894 7.93807 12.2909 9.11874 12.2909H13.5378C14.2039 12.2909 14.6468 12.2898 14.9828 12.2486C15.3017 12.2096 15.4497 12.1417 15.554 12.0567C15.6584 11.9716 15.7547 11.8404 15.8573 11.5359C15.9654 11.2153 16.0559 10.7816 16.1904 10.1293L16.6061 8.11248L16.6064 8.11063C16.7544 7.36902 16.8515 6.87547 16.8743 6.50583C16.896 6.15462 16.8409 6.03195 16.7897 5.96412C16.7846 5.95972 16.7482 5.92893 16.6424 5.89173C16.5129 5.84622 16.3286 5.80797 16.0822 5.78043C15.5866 5.72502 14.9585 5.72419 14.2448 5.72419H4.76089Z" fill="#FF3A3A"/>
<path fill-rule="evenodd" clip-rule="evenodd" d="M4.37524 16.2595C4.37524 17.295 5.21471 18.1345 6.25024 18.1345C7.28579 18.1345 8.12525 17.295 8.12525 16.2595C8.12525 15.2239 7.28579 14.3845 6.25024 14.3845C5.21471 14.3845 4.37524 15.2239 4.37524 16.2595ZM6.25024 16.8845C5.90507 16.8845 5.62524 16.6047 5.62524 16.2595C5.62524 15.9144 5.90507 15.6345 6.25024 15.6345C6.59543 15.6345 6.87524 15.9144 6.87524 16.2595C6.87524 16.6047 6.59543 16.8845 6.25024 16.8845Z" fill="#FF3A3A"/>
<path fill-rule="evenodd" clip-rule="evenodd" d="M11.875 16.2595C11.875 17.295 12.7145 18.1345 13.75 18.1345C14.7855 18.1345 15.625 17.295 15.625 16.2595C15.625 15.2239 14.7855 14.3845 13.75 14.3845C12.7145 14.3845 11.875 15.2239 11.875 16.2595ZM13.75 16.8845C13.4048 16.8845 13.125 16.6047 13.125 16.2595C13.125 15.9144 13.4048 15.6345 13.75 15.6345C14.0952 15.6345 14.375 15.9144 14.375 16.2595C14.375 16.6047 14.0952 16.8845 13.75 16.8845Z" fill="#FF3A3A"/>
</svg>
