<svg width="20" height="20" viewBox="0 0 20 20" fill="none" xmlns="http://www.w3.org/2000/svg">
<path d="M1.66699 11.6652C1.66699 8.52254 1.66699 6.95116 2.6433 5.97484C3.61962 4.99854 5.19096 4.99854 8.33366 4.99854H11.667C14.8097 4.99854 16.3811 4.99854 17.3573 5.97484C18.3337 6.95116 18.3337 8.52254 18.3337 11.6652C18.3337 14.8079 18.3337 16.3793 17.3573 17.3555C16.3811 18.3319 14.8097 18.3319 11.667 18.3319H8.33366C5.19096 18.3319 3.61962 18.3319 2.6433 17.3555C1.66699 16.3793 1.66699 14.8079 1.66699 11.6652Z" stroke="#FF3A3A" stroke-width="1.0677"/>
<path d="M13.3344 4.99788C13.3344 3.42653 13.3344 2.64086 12.8462 2.15271C12.3581 1.66455 11.5724 1.66455 10.0011 1.66455C8.42972 1.66455 7.64403 1.66455 7.15588 2.15271C6.66772 2.64086 6.66772 3.42653 6.66772 4.99788" stroke="#FF3A3A" stroke-width="1.0677"/>
<path d="M8.33293 12.4985H4.99959C4.60676 12.4985 4.41033 12.4985 4.2883 12.6205C4.16626 12.7426 4.16626 12.939 4.16626 13.3319V14.1652C4.16626 14.558 4.16626 14.7545 4.2883 14.8765C4.41033 14.9985 4.60676 14.9985 4.99959 14.9985H8.33293C8.72576 14.9985 8.92218 14.9985 9.04426 14.8765C9.16626 14.7545 9.16626 14.558 9.16626 14.1652V13.3319C9.16626 12.939 9.16626 12.7426 9.04426 12.6205C8.92218 12.4985 8.72576 12.4985 8.33293 12.4985Z" stroke="#FF3A3A" stroke-width="1.0677" stroke-linejoin="round"/>
<path d="M4.99854 5.41455V12.4979M4.99854 17.9145V15.4145" stroke="#FF3A3A" stroke-width="1.0677" stroke-linecap="round"/>
<path d="M15 5.41455V17.9145" stroke="#FF3A3A" stroke-width="1.0677" stroke-linecap="round"/>
</svg>
