<svg width="45" height="46" viewBox="0 0 45 46" fill="none" xmlns="http://www.w3.org/2000/svg">
<g id="icons8-whatsapp-2 1">
<path id="Vector" d="M22.1561 4.53162C11.9981 4.53162 3.72887 12.7937 3.72518 22.9517C3.72334 26.1987 4.5738 29.3686 6.18624 32.1617L3.68555 41.4294L13.3388 39.1485C16.0305 40.6171 19.0606 41.3879 22.1453 41.3898H22.1525C32.3086 41.3898 40.5742 33.1258 40.5797 22.9697C40.5834 18.0457 38.6687 13.4161 35.1892 9.93296C31.7097 6.45166 27.0856 4.53346 22.1561 4.53162ZM22.1525 8.2214C26.0931 8.22324 29.7965 9.75966 32.5804 12.5418C35.3644 15.3275 36.8937 19.0291 36.89 22.9661C36.8863 31.091 30.2774 37.7 22.1489 37.7C19.6896 37.6982 17.2536 37.0807 15.108 35.9092L13.8649 35.2317L12.492 35.556L8.85989 36.4136L9.7463 33.1202L10.1463 31.6428L9.38236 30.3168C8.09463 28.0882 7.41312 25.5401 7.41496 22.9517C7.41865 14.8305 14.0294 8.2214 22.1525 8.2214ZM15.6341 14.4479C15.326 14.4479 14.8278 14.5632 14.4054 15.0244C13.9829 15.4838 12.7911 16.5964 12.7911 18.8619C12.7911 21.1275 14.4414 23.3174 14.672 23.6255C14.9008 23.9318 17.8575 28.7278 22.538 30.5727C26.427 32.1058 27.2169 31.8032 28.0619 31.7257C28.9068 31.6501 30.7878 30.6141 31.1715 29.5385C31.5553 28.463 31.5562 27.5377 31.4418 27.3477C31.3274 27.1558 31.0202 27.0414 30.559 26.8108C30.0996 26.5802 27.8358 25.4686 27.4133 25.3155C26.9908 25.1623 26.6818 25.0848 26.3755 25.5461C26.0693 26.0073 25.1891 27.0415 24.9198 27.3477C24.6504 27.6558 24.3829 27.6972 23.9217 27.4666C23.4605 27.2342 21.9775 26.7467 20.2175 25.1785C18.8486 23.9591 17.9249 22.4544 17.6555 21.9932C17.388 21.5338 17.6303 21.2815 17.8609 21.0527C18.0676 20.8461 18.3185 20.515 18.5492 20.2456C18.7779 19.9763 18.8573 19.7844 19.0104 19.4781C19.1635 19.1719 19.0851 18.9016 18.9707 18.671C18.8564 18.4404 17.9606 16.1664 17.551 15.255C17.2061 14.4894 16.8417 14.4716 16.5133 14.4587C16.2458 14.4476 15.9403 14.4479 15.6341 14.4479Z" fill="#FF3A3A"/>
</g>
</svg>
