<svg width="38" height="38" viewBox="0 0 38 38" fill="none" xmlns="http://www.w3.org/2000/svg">
<g clip-path="url(#clip0_12874_39616)">
<path d="M30.3188 20.8676H35.5726C36.8408 20.8676 37.8915 21.9184 37.8915 23.1865V34.7812C37.8915 36.0494 36.8408 37.1001 35.5726 37.1001H23.9779C22.7098 37.1001 21.659 36.0494 21.659 34.7812V23.1865C21.659 21.9184 22.7098 20.8676 23.9779 20.8676H28.0723V19.4907H10.5716V20.8676H14.7022C15.9704 20.8676 17.0211 21.9184 17.0211 23.1865V34.7812C17.0211 36.0494 15.9704 37.1001 14.7022 37.1001H3.10751C1.83934 37.1001 0.788574 36.0494 0.788574 34.7812V23.1865C0.788574 21.9184 1.83934 20.8676 3.10751 20.8676H8.32512V18.6936C8.32512 17.8965 9.33965 17.4979 10.2455 17.4979H18.2168V16.1935H13.2166C11.9485 16.1935 10.8977 15.1427 10.8977 13.8746V2.27987C10.8977 1.01171 11.9485 -0.0390625 13.2166 -0.0390625H24.8113C26.0795 -0.0390625 27.1302 1.01171 27.1302 2.27987V13.8746C27.1302 15.1427 26.0795 16.1935 24.8113 16.1935H20.5358V17.5341C23.5431 17.5341 25.391 17.4979 28.3984 17.4979C29.3042 17.4979 30.3188 17.8602 30.3188 18.6936V20.8676ZM35.5726 23.1865H23.9779V34.7812H35.5726V23.1865ZM24.8113 2.27987H13.2166V13.8746H24.8113V2.27987ZM14.7022 23.1865H3.10751V34.7812H14.7022V23.1865Z" fill="#FF4F4F"/>
</g>
<defs>
<clipPath id="clip0_12874_39616">
<rect width="37.103" height="37.103" fill="white" transform="translate(0.789062)"/>
</clipPath>
</defs>
</svg>
