<svg width="22" height="22" viewBox="0 0 22 22" fill="none" xmlns="http://www.w3.org/2000/svg">
<path d="M1 12.9998C1 9.22859 1 7.34292 2.17158 6.17133C3.34317 4.99976 5.22879 4.99976 9.00006 4.99976H13.0001C16.7713 4.99976 18.657 4.99976 19.8285 6.17133C21.0001 7.34292 21.0001 9.22859 21.0001 12.9998C21.0001 16.771 21.0001 18.6567 19.8285 19.8283C18.657 20.9999 16.7713 20.9999 13.0001 20.9999H9.00006C5.22879 20.9999 3.34317 20.9999 2.17158 19.8283C1 18.6567 1 16.771 1 12.9998Z" stroke="#FF3A3A" stroke-width="1.5"/>
<path d="M15.0001 5.00003C15.0001 3.11439 15.0001 2.17158 14.4143 1.58579C13.8284 1 12.8856 1 11 1C9.11441 1 8.17158 1 7.58579 1.58579C7 2.17158 7 3.11439 7 5.00003" stroke="#FF3A3A" stroke-width="1.5"/>
<path d="M16.0003 8.00001C16.0003 8.55229 15.5526 9.00001 15.0003 9.00001C14.4479 9.00001 14.0002 8.55229 14.0002 8.00001C14.0002 7.44772 14.4479 7 15.0003 7C15.5526 7 16.0003 7.44772 16.0003 8.00001Z" fill="#7B7B7B"/>
<path d="M8.00026 8.00001C8.00026 8.55229 7.55253 9.00001 7.00025 9.00001C6.44797 9.00001 6.00024 8.55229 6.00024 8.00001C6.00024 7.44772 6.44797 7 7.00025 7C7.55253 7 8.00026 7.44772 8.00026 8.00001Z" fill="#7B7B7B"/>
</svg>
