<svg width="54" height="55" viewBox="0 0 54 55" fill="none" xmlns="http://www.w3.org/2000/svg">
<path d="M9.28379 11.5703H49.5868C49.8075 11.5698 50.026 11.6129 50.23 11.6972C50.434 11.7814 50.6193 11.9051 50.7753 12.0611C50.9313 12.2171 51.055 12.4024 51.1392 12.6064C51.2235 12.8104 51.2666 13.0289 51.2661 13.2496V36.7597C51.2666 36.9804 51.2235 37.1989 51.1392 37.4029C51.055 37.6069 50.9313 37.7922 50.7753 37.9482C50.6193 38.1042 50.434 38.2279 50.23 38.3121C50.026 38.3964 49.8075 38.4395 49.5868 38.439H9.28379C9.06313 38.4395 8.84454 38.3964 8.64058 38.3121C8.43662 38.2279 8.25131 38.1042 8.09528 37.9482C7.93924 37.7922 7.81557 37.6069 7.73134 37.4029C7.64712 37.1989 7.60401 36.9804 7.6045 36.7597V13.2496C7.60401 13.0289 7.64712 12.8104 7.73134 12.6064C7.81556 12.4024 7.93924 12.2171 8.09527 12.0611C8.25131 11.9051 8.43662 11.7814 8.64058 11.6972C8.84454 11.6129 9.06312 11.5698 9.28379 11.5703Z" fill="black"/>
<path d="M44.5506 14.0938H7.6045V36.7658C7.60401 36.9864 7.64712 37.205 7.73134 37.409C7.81556 37.613 7.93923 37.7983 8.09527 37.9543C8.2513 38.1104 8.43661 38.234 8.64057 38.3183C8.84453 38.4025 9.06312 38.4456 9.28379 38.4451H48.7463V18.2957C48.7458 17.1825 48.3038 16.1149 47.5173 15.3272C46.7307 14.5394 45.6638 14.0959 44.5506 14.0938Z" fill="#418FFB"/>
<path d="M4.24595 16.6094H44.549C44.7696 16.6089 44.9882 16.652 45.1922 16.7362C45.3961 16.8204 45.5814 16.9441 45.7375 17.1002C45.8935 17.2562 46.0172 17.4415 46.1014 17.6455C46.1856 17.8494 46.2287 18.068 46.2282 18.2887V41.7988C46.2287 42.0194 46.1856 42.238 46.1014 42.442C46.0172 42.6459 45.8935 42.8312 45.7375 42.9873C45.5814 43.1433 45.3961 43.267 45.1922 43.3512C44.9882 43.4354 44.7696 43.4785 44.549 43.478H4.24595C4.02528 43.4785 3.8067 43.4354 3.60274 43.3512C3.39878 43.267 3.21346 43.1433 3.05743 42.9873C2.9014 42.8312 2.77772 42.6459 2.6935 42.442C2.60928 42.238 2.56617 42.0194 2.56665 41.7988V18.2887C2.56617 18.068 2.60928 17.8494 2.6935 17.6455C2.77772 17.4415 2.9014 17.2562 3.05743 17.1002C3.21346 16.9441 3.39878 16.8204 3.60274 16.7362C3.8067 16.652 4.02528 16.6089 4.24595 16.6094Z" fill="#B6B6B6"/>
<path d="M8.44419 20.8125H15.1614C15.382 20.812 15.6006 20.8551 15.8046 20.9393C16.0085 21.0236 16.1938 21.1472 16.3499 21.3033C16.5059 21.4593 16.6296 21.6446 16.7138 21.8486C16.798 22.0525 16.8411 22.2711 16.8406 22.4918V27.5297C16.8411 27.7503 16.798 27.9689 16.7138 28.1729C16.6296 28.3768 16.5059 28.5622 16.3499 28.7182C16.1938 28.8742 16.0085 28.9979 15.8046 29.0821C15.6006 29.1663 15.382 29.2094 15.1614 29.209H8.44419C8.22352 29.2094 8.00494 29.1663 7.80098 29.0821C7.59702 28.9979 7.4117 28.8742 7.25567 28.7182C7.09964 28.5622 6.97596 28.3768 6.89174 28.1729C6.80752 27.9689 6.76441 27.7503 6.7649 27.5297V22.4918C6.76441 22.2711 6.80752 22.0525 6.89174 21.8486C6.97596 21.6446 7.09964 21.4593 7.25567 21.3033C7.4117 21.1472 7.59702 21.0236 7.80098 20.9393C8.00494 20.8551 8.22352 20.812 8.44419 20.8125Z" fill="#FCB860"/>
<path d="M49.5869 10.7344H9.28386C8.61602 10.7351 7.97575 11.0007 7.50351 11.473C7.03128 11.9452 6.76566 12.5855 6.76493 13.2533V15.7723H4.24599C3.57815 15.773 2.93787 16.0386 2.46564 16.5108C1.9934 16.9831 1.72778 17.6233 1.72705 18.2912V41.8013C1.72778 42.4691 1.9934 43.1094 2.46564 43.5816C2.93787 44.0539 3.57815 44.3195 4.24599 44.3202H44.549C45.2168 44.3195 45.8571 44.0539 46.3293 43.5816C46.8016 43.1094 47.0672 42.4691 47.0679 41.8013V39.2823H49.5869C50.2547 39.2816 50.895 39.016 51.3672 38.5438C51.8395 38.0715 52.1051 37.4312 52.1058 36.7634V13.2533C52.1051 12.5855 51.8395 11.9452 51.3672 11.473C50.895 11.0007 50.2547 10.7351 49.5869 10.7344ZM45.3886 41.8013C45.3884 42.0239 45.2998 42.2373 45.1424 42.3947C44.985 42.5521 44.7716 42.6406 44.549 42.6409H4.24599C4.02339 42.6406 3.80999 42.5521 3.65259 42.3947C3.49519 42.2373 3.40663 42.0239 3.40634 41.8013V18.2912C3.40663 18.0686 3.49519 17.8552 3.65259 17.6978C3.80999 17.5404 4.02339 17.4518 4.24599 17.4515H44.549C44.7716 17.4518 44.985 17.5404 45.1424 17.6978C45.2998 17.8552 45.3884 18.0686 45.3886 18.2912V41.8013ZM50.4265 36.7634C50.4262 36.986 50.3377 37.1994 50.1803 37.3568C50.0229 37.5142 49.8095 37.6028 49.5869 37.603H47.0679V18.2912C47.0672 17.6233 46.8016 16.9831 46.3293 16.5108C45.8571 16.0386 45.2168 15.773 44.549 15.7723H8.44422V13.2533C8.44451 13.0307 8.53306 12.8173 8.69046 12.6599C8.84787 12.5025 9.06127 12.414 9.28386 12.4137H49.5869C49.8095 12.414 50.0229 12.5025 50.1803 12.6599C50.3377 12.8173 50.4262 13.0307 50.4265 13.2533V36.7634ZM8.44422 30.0462H15.1614C15.8292 30.0455 16.4695 29.7799 16.9417 29.3076C17.414 28.8354 17.6796 28.1951 17.6803 27.5273V22.4894C17.6796 21.8216 17.414 21.1813 16.9417 20.7091C16.4695 20.2368 15.8292 19.9712 15.1614 19.9705H8.44422C7.77638 19.9712 7.1361 20.2368 6.66387 20.7091C6.19163 21.1813 5.92601 21.8216 5.92528 22.4894V27.5273C5.92601 28.1951 6.19163 28.8354 6.66387 29.3076C7.1361 29.7799 7.77638 30.0455 8.44422 30.0462ZM15.1614 28.3669H14.3217V25.848H16.001V27.5273C16.0007 27.7499 15.9122 27.9633 15.7548 28.1207C15.5974 28.2781 15.384 28.3667 15.1614 28.3669ZM16.001 22.4894V24.1687H13.4821C13.2594 24.1687 13.0458 24.2572 12.8884 24.4146C12.7309 24.5721 12.6424 24.7857 12.6424 25.0084V28.3669H8.44422C8.22162 28.3667 8.00822 28.2781 7.85082 28.1207C7.69342 27.9633 7.60486 27.7499 7.60457 27.5273V25.848H10.1235C10.3462 25.848 10.5598 25.7595 10.7172 25.6021C10.8747 25.4446 10.9632 25.231 10.9632 25.0084V21.6498H15.1614C15.384 21.6501 15.5974 21.7386 15.7548 21.896C15.9122 22.0534 16.0007 22.2668 16.001 22.4894ZM8.44422 21.6498H9.28386V24.1687H7.60457V22.4894C7.60486 22.2668 7.69342 22.0534 7.85082 21.896C8.00822 21.7386 8.22162 21.6501 8.44422 21.6498ZM5.92528 35.0841C5.92528 34.8614 6.01374 34.6479 6.17121 34.4904C6.32867 34.3329 6.54224 34.2445 6.76493 34.2445H11.8028C12.0255 34.2445 12.2391 34.3329 12.3965 34.4904C12.554 34.6479 12.6424 34.8614 12.6424 35.0841C12.6424 35.3068 12.554 35.5204 12.3965 35.6778C12.2391 35.8353 12.0255 35.9238 11.8028 35.9238H6.76493C6.54224 35.9238 6.32867 35.8353 6.17121 35.6778C6.01374 35.5204 5.92528 35.3068 5.92528 35.0841ZM24.3975 39.2823C24.3975 39.505 24.309 39.7186 24.1516 39.8761C23.9941 40.0335 23.7805 40.122 23.5578 40.122H6.76493C6.54224 40.122 6.32867 40.0335 6.17121 39.8761C6.01374 39.7186 5.92528 39.505 5.92528 39.2823C5.92528 39.0597 6.01374 38.8461 6.17121 38.6886C6.32867 38.5312 6.54224 38.4427 6.76493 38.4427H23.5578C23.7805 38.4427 23.9941 38.5312 24.1516 38.6886C24.309 38.8461 24.3975 39.0597 24.3975 39.2823ZM42.8697 20.8101C42.8697 21.0328 42.7812 21.2464 42.6238 21.4038C42.4663 21.5613 42.2527 21.6498 42.0301 21.6498H32.794C32.5713 21.6498 32.3577 21.5613 32.2002 21.4038C32.0428 21.2464 31.9543 21.0328 31.9543 20.8101C31.9543 20.5874 32.0428 20.3739 32.2002 20.2164C32.3577 20.0589 32.5713 19.9705 32.794 19.9705H42.0301C42.2527 19.9705 42.4663 20.0589 42.6238 20.2164C42.7812 20.3739 42.8697 20.5874 42.8697 20.8101ZM42.8697 35.0841C42.8697 35.3068 42.7812 35.5204 42.6238 35.6778C42.4663 35.8353 42.2527 35.9238 42.0301 35.9238H36.9922C36.7695 35.9238 36.5559 35.8353 36.3985 35.6778C36.241 35.5204 36.1525 35.3068 36.1525 35.0841C36.1525 34.8614 36.241 34.6479 36.3985 34.4904C36.5559 34.3329 36.7695 34.2445 36.9922 34.2445H42.0301C42.2527 34.2445 42.4663 34.3329 42.6238 34.4904C42.7812 34.6479 42.8697 34.8614 42.8697 35.0841ZM32.794 35.0841C32.794 35.3068 32.7055 35.5204 32.548 35.6778C32.3906 35.8353 32.177 35.9238 31.9543 35.9238H26.9164C26.6937 35.9238 26.4802 35.8353 26.3227 35.6778C26.1652 35.5204 26.0768 35.3068 26.0768 35.0841C26.0768 34.8614 26.1652 34.6479 26.3227 34.4904C26.4802 34.3329 26.6937 34.2445 26.9164 34.2445H31.9543C32.177 34.2445 32.3906 34.3329 32.548 34.4904C32.7055 34.6479 32.794 34.8614 32.794 35.0841ZM16.8407 34.2445H21.8786C22.1012 34.2445 22.3148 34.3329 22.4723 34.4904C22.6297 34.6479 22.7182 34.8614 22.7182 35.0841C22.7182 35.3068 22.6297 35.5204 22.4723 35.6778C22.3148 35.8353 22.1012 35.9238 21.8786 35.9238H16.8407C16.618 35.9238 16.4044 35.8353 16.247 35.6778C16.0895 35.5204 16.001 35.3068 16.001 35.0841C16.001 34.8614 16.0895 34.6479 16.247 34.4904C16.4044 34.3329 16.618 34.2445 16.8407 34.2445Z" fill="black"/>
</svg>
