<svg width="36" height="35" viewBox="0 0 36 35" fill="none" xmlns="http://www.w3.org/2000/svg">
<g id="Duotone/Truck">
<path id="Vector" opacity="0.2" d="M24.2514 19.5234H2.58447V24.9402C2.58447 25.2275 2.69861 25.503 2.90178 25.7062C3.10494 25.9094 3.3805 26.0235 3.66782 26.0235H6.37618C6.37618 25.1615 6.7186 24.3349 7.3281 23.7254C7.9376 23.1159 8.76426 22.7735 9.62622 22.7735C10.4882 22.7735 11.3148 23.1159 11.9243 23.7254C12.5338 24.3349 12.8763 25.1615 12.8763 26.0235H22.6264C22.626 25.4527 22.776 24.8918 23.0613 24.3973C23.3465 23.9028 23.757 23.4922 24.2514 23.2068V19.5234Z" fill="#52C41A"/>
<path id="Vector_2" opacity="0.2" d="M29.1265 26.0235C29.1269 25.4529 28.977 24.8922 28.6919 24.3978C28.4068 23.9034 27.9965 23.4929 27.5024 23.2074C27.0083 22.9219 26.4477 22.7715 25.877 22.7714C25.3063 22.7713 24.7457 22.9215 24.2515 23.2068V16.2734H32.9182V24.9402C32.9182 25.2275 32.8041 25.5031 32.6009 25.7062C32.3978 25.9094 32.1222 26.0235 31.8349 26.0235H29.1265Z" fill="#52C41A"/>
<path id="Vector_3" d="M24.2515 10.8594H30.0203C30.2361 10.858 30.4473 10.9219 30.6262 11.0428C30.805 11.1636 30.9431 11.3357 31.0224 11.5365L32.9182 16.2761" stroke="#52C41A" stroke-width="2.16669" stroke-linecap="round" stroke-linejoin="round"/>
<path id="Vector_4" d="M2.58447 19.5234H24.2514" stroke="#52C41A" stroke-width="2.16669" stroke-linecap="round" stroke-linejoin="round"/>
<path id="Vector_5" d="M25.8765 29.2735C27.6714 29.2735 29.1265 27.8184 29.1265 26.0235C29.1265 24.2285 27.6714 22.7734 25.8765 22.7734C24.0816 22.7734 22.6265 24.2285 22.6265 26.0235C22.6265 27.8184 24.0816 29.2735 25.8765 29.2735Z" stroke="#52C41A" stroke-width="2.16669" stroke-miterlimit="10"/>
<path id="Vector_6" d="M9.6265 29.2735C11.4214 29.2735 12.8765 27.8184 12.8765 26.0235C12.8765 24.2285 11.4214 22.7734 9.6265 22.7734C7.83156 22.7734 6.37646 24.2285 6.37646 26.0235C6.37646 27.8184 7.83156 29.2735 9.6265 29.2735Z" stroke="#52C41A" stroke-width="2.16669" stroke-miterlimit="10"/>
<path id="Vector_7" d="M22.6266 26.0234H12.8765" stroke="#52C41A" stroke-width="2.16669" stroke-linecap="round" stroke-linejoin="round"/>
<path id="Vector_8" d="M6.37618 26.021H3.66782C3.3805 26.021 3.10494 25.9069 2.90178 25.7037C2.69861 25.5006 2.58447 25.225 2.58447 24.9377V9.77085C2.58447 9.48352 2.69861 9.20797 2.90178 9.0048C3.10494 8.80164 3.3805 8.6875 3.66782 8.6875H24.2514V23.2043" stroke="#52C41A" stroke-width="2.16669" stroke-linecap="round" stroke-linejoin="round"/>
<path id="Vector_9" d="M24.2515 16.2734H32.9182V24.9402C32.9182 25.2275 32.8041 25.5031 32.6009 25.7062C32.3978 25.9094 32.1222 26.0235 31.8349 26.0235H29.1265" stroke="#52C41A" stroke-width="2.16669" stroke-linecap="round" stroke-linejoin="round"/>
</g>
</svg>
