<svg width="39" height="38" viewBox="0 0 39 38" fill="none" xmlns="http://www.w3.org/2000/svg">
<g id="community-group-leader-svgrepo-com 1" clip-path="url(#clip0_6_1271)">
<g id="Group">
<path id="Vector" d="M19.4721 12.645C15.627 12.645 12.481 15.791 12.481 19.6362C12.481 23.4813 15.627 26.6273 19.4721 26.6273C23.3173 26.6273 26.4633 23.4813 26.4633 19.6362C26.4633 15.791 23.3173 12.645 19.4721 12.645ZM19.4721 24.297C16.9087 24.297 14.8113 22.1996 14.8113 19.6362C14.8113 17.0728 16.9087 14.9754 19.4721 14.9754C22.0355 14.9754 24.1329 17.0728 24.1329 19.6362C24.1329 22.1996 22.0355 24.297 19.4721 24.297Z" fill="#FF3A3A"/>
<path id="Vector_2" d="M19.4722 29.7734C15.1318 29.7734 10.9662 31.5795 7.995 34.7546L7.2085 35.5994L8.89803 37.2015L9.68453 36.3568C12.248 33.6186 15.7144 32.1038 19.4722 32.1038C23.2299 32.1038 26.6964 33.6186 29.2598 36.3568L30.0463 37.2015L31.7358 35.5994L30.9493 34.7546C27.9781 31.6086 23.8125 29.7734 19.4722 29.7734Z" fill="#FF3A3A"/>
<path id="Vector_3" d="M29.085 14.3639V16.6943C31.8232 16.6943 34.3575 17.8012 36.2509 19.8112L37.9404 18.209C35.6683 15.7621 32.4349 14.3639 29.085 14.3639Z" fill="#FF3A3A"/>
<path id="Vector_4" d="M34.6491 6.23653C34.6491 3.1779 32.1439 0.672729 29.0853 0.672729C26.0266 0.672729 23.5215 3.1779 23.5215 6.23653C23.5215 9.29516 26.0266 11.8003 29.0853 11.8003C32.1439 11.8003 34.6491 9.29516 34.6491 6.23653ZM25.8519 6.23653C25.8519 4.45961 27.3084 3.00312 29.0853 3.00312C30.8622 3.00312 32.3187 4.45961 32.3187 6.23653C32.3187 8.01345 30.8622 9.46994 29.0853 9.46994C27.3084 9.46994 25.8519 8.01345 25.8519 6.23653Z" fill="#FF3A3A"/>
<path id="Vector_5" d="M9.85938 14.3639C6.50945 14.3639 3.27603 15.7621 1.00391 18.209L2.69344 19.8112C4.55775 17.8012 7.12117 16.6943 9.85938 16.6943V14.3639Z" fill="#FF3A3A"/>
<path id="Vector_6" d="M15.4235 6.23653C15.4235 3.1779 12.9183 0.672729 9.8597 0.672729C6.80106 0.672729 4.2959 3.1779 4.2959 6.23653C4.2959 9.29516 6.80106 11.8003 9.8597 11.8003C12.9183 11.8003 15.4235 9.29516 15.4235 6.23653ZM9.8597 9.46994C8.08278 9.46994 6.62629 8.01345 6.62629 6.23653C6.62629 4.45961 8.08278 3.00312 9.8597 3.00312C11.6366 3.00312 13.0931 4.45961 13.0931 6.23653C13.0931 8.01345 11.6366 9.46994 9.8597 9.46994Z" fill="#FF3A3A"/>
</g>
</g>
<defs>
<clipPath id="clip0_6_1271">
<rect width="37.2862" height="37.2862" fill="white" transform="translate(0.829102 0.410522)"/>
</clipPath>
</defs>
</svg>
