<svg width="46" height="46" viewBox="0 0 46 46" fill="none" xmlns="http://www.w3.org/2000/svg">
<path fill-rule="evenodd" clip-rule="evenodd" d="M29.9211 3.03053C33.0965 2.57691 35.9373 5.04082 35.9373 8.24838V10.8867C38.2172 12.0918 39.7707 14.4871 39.7707 17.2452V36.4118C39.7707 40.3814 36.5528 43.5993 32.5832 43.5993H13.4165C9.44695 43.5993 6.229 40.3814 6.229 36.4118V9.57851C6.229 9.56069 6.22933 9.54294 6.22996 9.52529C6.22933 9.49771 6.229 9.47003 6.229 9.44229C6.229 7.70532 7.50623 6.23264 9.22577 5.987L29.9211 3.03053ZM9.104 12.9327V36.4118C9.104 38.7936 11.0348 40.7243 13.4165 40.7243H32.5832C34.9648 40.7243 36.8957 38.7936 36.8957 36.4118V17.2452C36.8957 14.8635 34.9648 12.9327 32.5832 12.9327H9.104ZM9.71939 10.0577H33.0623V8.24838C33.0623 6.79039 31.7711 5.67043 30.3276 5.87662L9.63235 8.8331C9.32919 8.87642 9.104 9.13605 9.104 9.44229C9.104 9.78216 9.37952 10.0577 9.71939 10.0577ZM13.8957 22.9951C13.8957 22.2012 14.5393 21.5576 15.3332 21.5576H30.6665C31.4604 21.5576 32.104 22.2012 32.104 22.9951C32.104 23.7892 31.4604 24.4326 30.6665 24.4326H15.3332C14.5393 24.4326 13.8957 23.7892 13.8957 22.9951ZM13.8957 29.7034C13.8957 28.9096 14.5393 28.2659 15.3332 28.2659H25.8748C26.6687 28.2659 27.3123 28.9096 27.3123 29.7034C27.3123 30.4975 26.6687 31.1409 25.8748 31.1409H15.3332C14.5393 31.1409 13.8957 30.4975 13.8957 29.7034Z" fill="#FF4F4F"/>
</svg>
