<svg width="22" height="20" viewBox="0 0 22 20" fill="none" xmlns="http://www.w3.org/2000/svg">
<path fill-rule="evenodd" clip-rule="evenodd" d="M14.842 3.84068C14.842 1.71953 13.1225 0 11.0013 0C8.88017 0 7.16064 1.71953 7.16064 3.84068C7.16064 5.96183 8.88017 7.68135 11.0013 7.68135C13.1225 7.68135 14.842 5.96183 14.842 3.84068ZM11.0013 1.53627C12.274 1.53627 13.3057 2.56799 13.3057 3.84068C13.3057 5.11336 12.274 6.14508 11.0013 6.14508C9.72867 6.14508 8.69691 5.11336 8.69691 3.84068C8.69691 2.56799 9.72867 1.53627 11.0013 1.53627Z" fill="#FF3A3A"/>
<path fill-rule="evenodd" clip-rule="evenodd" d="M8.18282 16.1529C8.18282 14.0318 6.46329 12.3123 4.34214 12.3123C2.22099 12.3123 0.501465 14.0318 0.501465 16.1529C0.501465 18.2741 2.22099 19.9936 4.34214 19.9936C6.46329 19.9936 8.18282 18.2741 8.18282 16.1529ZM4.34214 13.8485C5.61483 13.8485 6.64655 14.8803 6.64655 16.1529C6.64655 17.4256 5.61483 18.4573 4.34214 18.4573C3.06945 18.4573 2.03774 17.4256 2.03774 16.1529C2.03774 14.8803 3.06945 13.8485 4.34214 13.8485Z" fill="#FF3A3A"/>
<path fill-rule="evenodd" clip-rule="evenodd" d="M17.6578 12.3123C19.779 12.3123 21.4985 14.0318 21.4985 16.1529C21.4985 18.2741 19.779 19.9936 17.6578 19.9936C15.5366 19.9936 13.8171 18.2741 13.8171 16.1529C13.8171 14.0318 15.5366 12.3123 17.6578 12.3123ZM19.9622 16.1529C19.9622 14.8803 18.9305 13.8485 17.6578 13.8485C16.3852 13.8485 15.3534 14.8803 15.3534 16.1529C15.3534 17.4256 16.3852 18.4573 17.6578 18.4573C18.9305 18.4573 19.9622 17.4256 19.9622 16.1529Z" fill="#FF3A3A"/>
<path d="M6.09132 5.47442C6.40938 5.19369 6.43965 4.70828 6.15893 4.39021C5.8782 4.07215 5.39279 4.04189 5.07472 4.32261C3.2155 5.96357 2.04102 8.3669 2.04102 11.0436C2.04102 11.4678 2.38493 11.8117 2.80915 11.8117C3.23338 11.8117 3.57729 11.4678 3.57729 11.0436C3.57729 8.82594 4.5485 6.83613 6.09132 5.47442Z" fill="#FF3A3A"/>
<path d="M16.9317 4.32261C16.6137 4.04189 16.1282 4.07215 15.8475 4.39021C15.5668 4.70828 15.5971 5.19369 15.9151 5.47442C17.4579 6.83613 18.4292 8.82594 18.4292 11.0436C18.4292 11.4678 18.7731 11.8117 19.1973 11.8117C19.6215 11.8117 19.9654 11.4678 19.9654 11.0436C19.9654 8.3669 18.7909 5.96357 16.9317 4.32261Z" fill="#FF3A3A"/>
<path d="M9.14333 18.23C8.73253 18.1242 8.31377 18.3716 8.20802 18.7824C8.10229 19.1933 8.34961 19.612 8.76045 19.7177C9.47722 19.9022 10.2278 20.0001 11.0003 20.0001C11.7727 20.0001 12.5233 19.9022 13.2401 19.7177C13.651 19.612 13.8983 19.1933 13.7925 18.7824C13.6868 18.3716 13.268 18.1242 12.8572 18.23C12.2645 18.3825 11.6424 18.4638 11.0003 18.4638C10.3581 18.4638 9.73603 18.3825 9.14333 18.23Z" fill="#FF3A3A"/>
</svg>
