<svg width="44" height="44" viewBox="0 0 44 44" fill="none" xmlns="http://www.w3.org/2000/svg">
<g id="document-add-svgrepo-com 3">
<path id="Vector" fill-rule="evenodd" clip-rule="evenodd" d="M20.2563 2.50024H24.0516C27.3529 2.50021 29.9677 2.50019 32.0141 2.77534C34.1201 3.05848 35.8248 3.65508 37.1692 4.99938C37.6952 5.52553 37.6952 6.37856 37.1692 6.90469C36.6431 7.43084 35.79 7.43084 35.2638 6.90469C34.5036 6.14446 33.4623 5.68878 31.6552 5.44581C29.8091 5.19761 27.3756 5.19476 23.9503 5.19476H20.3576C16.9323 5.19476 14.4989 5.19761 12.6529 5.44581C10.8456 5.68878 9.80432 6.14446 9.0441 6.90469C8.28387 7.66492 7.82819 8.70617 7.58522 10.5134C7.33702 12.3595 7.33416 14.7929 7.33416 18.2182V25.4036C7.33416 28.8288 7.33702 31.2623 7.58522 33.1084C7.82819 34.9156 8.28387 35.9569 9.0441 36.7171C9.80432 37.4773 10.8456 37.9331 12.6529 38.1759C14.4989 38.4242 16.9323 38.427 20.3576 38.427H23.9503C27.3756 38.427 29.8091 38.4242 31.6552 38.1759C33.4623 37.9331 34.5036 37.4773 35.2638 36.7171C36.5139 35.467 36.8926 33.5245 36.9583 28.9769C36.9691 28.2328 37.5809 27.6384 38.325 27.6492C39.0688 27.66 39.6632 28.2718 39.6525 29.0157C39.5894 33.3763 39.3072 36.4843 37.1692 38.6225C35.8248 39.9667 34.1201 40.5633 32.0141 40.8465C29.9677 41.1216 27.3529 41.1216 24.0516 41.1216H20.2563C16.955 41.1216 14.3402 41.1216 12.2938 40.8465C10.1878 40.5633 8.48312 39.9667 7.13879 38.6225C5.79448 37.2781 5.19788 35.5734 4.91474 33.4674C4.6396 31.421 4.63961 28.8062 4.63965 25.5049V18.1169C4.63961 14.8156 4.6396 12.2008 4.91474 10.1544C5.19788 8.04835 5.79448 6.34371 7.13879 4.99938C8.48312 3.65508 10.1878 3.05848 12.2938 2.77534C14.3402 2.50019 16.955 2.50021 20.2563 2.50024ZM33.1352 12.911C35.0407 11.0056 38.1301 11.0056 40.0354 12.911C41.941 14.8165 41.941 17.9059 40.0354 19.8114L31.4933 28.3535C31.0286 28.8184 30.7142 29.1328 30.362 29.4074C29.9477 29.7306 29.4996 30.0076 29.0253 30.2338C28.622 30.4258 28.2003 30.5664 27.5766 30.7741L23.8337 32.0218C23.0074 32.2972 22.0963 32.0822 21.4803 31.4662C20.8644 30.8503 20.6493 29.9392 20.9247 29.1128L22.1473 25.4453C22.1558 25.4199 22.164 25.3948 22.1723 25.37C22.3801 24.7465 22.5208 24.3245 22.7128 23.9212C22.939 23.447 23.216 22.9988 23.5391 22.5846C23.8138 22.2323 24.1281 21.918 24.593 21.4532C24.6115 21.4347 24.6302 21.4161 24.6493 21.397L33.1352 12.911ZM38.1303 14.8163C37.277 13.9632 35.8938 13.9632 35.0405 14.8163L34.714 15.1429C34.7318 15.203 34.7521 15.267 34.7754 15.3342C34.9443 15.8213 35.2651 16.4655 35.873 17.0735C36.481 17.6816 37.1252 18.0022 37.6124 18.1712C37.6796 18.1945 37.7435 18.2148 37.8037 18.2326L38.1303 17.906C38.9833 17.0528 38.9833 15.6695 38.1303 14.8163ZM35.7458 20.2905C35.1747 19.9905 34.5582 19.5692 33.9678 18.9788C33.3773 18.3883 32.9561 17.7718 32.6561 17.2007L26.5545 23.3024C26.0138 23.8433 25.8239 24.0362 25.6637 24.2417C25.461 24.5016 25.2871 24.7829 25.1452 25.0806C25.0331 25.3157 24.9453 25.5717 24.7035 26.2974L23.9844 28.4547L24.4919 28.9621L26.6491 28.2431C27.3748 28.0013 27.6308 27.9134 27.866 27.8013C28.1636 27.6594 28.4449 27.4855 28.7049 27.2829C28.9104 27.1227 29.1033 26.9328 29.6442 26.3921L35.7458 20.2905ZM13.6213 16.4219C13.6213 15.6778 14.2245 15.0746 14.9686 15.0746H26.6448C27.3889 15.0746 27.9921 15.6778 27.9921 16.4219C27.9921 17.1659 27.3889 17.7691 26.6448 17.7691H14.9686C14.2245 17.7691 13.6213 17.1659 13.6213 16.4219ZM13.6213 23.6072C13.6213 22.8632 14.2245 22.26 14.9686 22.26H19.4595C20.2035 22.26 20.8067 22.8632 20.8067 23.6072C20.8067 24.3513 20.2035 24.9545 19.4595 24.9545H14.9686C14.2245 24.9545 13.6213 24.3513 13.6213 23.6072ZM13.6213 30.7926C13.6213 30.0486 14.2245 29.4453 14.9686 29.4453H17.6631C18.4072 29.4453 19.0104 30.0486 19.0104 30.7926C19.0104 31.5366 18.4072 32.1399 17.6631 32.1399H14.9686C14.2245 32.1399 13.6213 31.5366 13.6213 30.7926Z" fill="#FF3A3A"/>
</g>
</svg>
