<svg width="20" height="20" viewBox="0 0 20 20" fill="none" xmlns="http://www.w3.org/2000/svg">
<path fill-rule="evenodd" clip-rule="evenodd" d="M9.9466 1.35056e-07C7.79929 -9.16727e-06 6.11646 -1.85111e-05 4.80345 0.176512C3.45951 0.3572 2.39902 0.73426 1.56664 1.56664C0.73426 2.39902 0.3572 3.45951 0.176512 4.80345C-1.85111e-05 6.11646 -9.16727e-06 7.79927 1.35056e-07 9.9466V10.0534C-9.16727e-06 12.2007 -1.85111e-05 13.8835 0.176512 15.1966C0.3572 16.5405 0.73426 17.601 1.56664 18.4334C2.39902 19.2658 3.45951 19.6428 4.80345 19.8235C6.11646 20 7.79928 20 9.9466 20H10.0534C12.2007 20 13.8835 20 15.1966 19.8235C16.5405 19.6428 17.601 19.2658 18.4334 18.4334C19.2658 17.601 19.6428 16.5405 19.8235 15.1966C20 13.8835 20 12.2007 20 10.0534V9.9466C20 7.79928 20 6.11646 19.8235 4.80345C19.6428 3.45951 19.2658 2.39902 18.4334 1.56664C17.601 0.73426 16.5405 0.3572 15.1966 0.176512C13.8835 -1.85111e-05 12.2007 -9.16727e-06 10.0534 1.35056e-07H9.9466ZM9.30233 1.39561C7.44771 1.39756 6.06759 1.41446 4.98938 1.55941C3.80016 1.7193 3.08321 2.02339 2.5533 2.5533C2.02339 3.08321 1.7193 3.80016 1.55941 4.98938C1.41446 6.06759 1.39756 7.44771 1.39561 9.30233H5.26861C4.94213 8.89451 4.69819 8.41349 4.56517 7.88142C4.06447 5.87861 5.87861 4.06447 7.88142 4.56517C8.41349 4.69819 8.89451 4.94213 9.30233 5.26861V1.39561ZM1.39561 10.6977C1.39756 12.5523 1.41446 13.9324 1.55941 15.0106C1.7193 16.1998 2.02339 16.9167 2.5533 17.4467C3.08321 17.9767 3.80016 18.2807 4.98938 18.4406C6.06759 18.5856 7.44771 18.6024 9.30233 18.6044V11.9754C8.57712 13.4241 7.0791 14.4186 5.34884 14.4186C4.96353 14.4186 4.65116 14.1062 4.65116 13.7209C4.65116 13.3356 4.96353 13.0233 5.34884 13.0233C6.77841 13.0233 7.97623 12.0311 8.29116 10.6977H8.17219H8.16363H1.39561ZM10.6977 18.6044C12.5523 18.6024 13.9324 18.5856 15.0106 18.4406C16.1998 18.2807 16.9167 17.9767 17.4467 17.4467C17.9767 16.9167 18.2807 16.1998 18.4406 15.0106C18.5856 13.9324 18.6024 12.5523 18.6044 10.6977H11.8364H11.8278H11.7088C12.0238 12.0311 13.2216 13.0233 14.6512 13.0233C15.0365 13.0233 15.3488 13.3356 15.3488 13.7209C15.3488 14.1062 15.0365 14.4186 14.6512 14.4186C12.9209 14.4186 11.4229 13.4241 10.6977 11.9754V18.6044ZM18.6044 9.30233H14.7314C15.0579 8.89451 15.3019 8.41349 15.4349 7.88142C15.9355 5.87861 14.1214 4.06447 12.1186 4.56517C11.5865 4.69819 11.1055 4.94213 10.6977 5.26861V1.39561C12.5523 1.39756 13.9324 1.41446 15.0106 1.55941C16.1998 1.7193 16.9167 2.02339 17.4467 2.5533C17.9767 3.08321 18.2807 3.80016 18.4406 4.98938C18.5856 6.06759 18.6024 7.44771 18.6044 9.30233ZM10.6977 9.30233V8.1666C10.7002 7.10315 11.4248 6.1769 12.457 5.91886C13.4379 5.67364 14.3264 6.56212 14.0811 7.54299C13.8232 8.57479 12.8976 9.29926 11.8346 9.30233H10.6977ZM9.30233 8.16512C9.29916 7.10227 8.5747 6.17678 7.54299 5.91886C6.56212 5.67364 5.67364 6.56212 5.91886 7.54299C6.1768 8.57479 7.10245 9.29926 8.16539 9.30233H9.30233V8.16512Z" fill="#FF3A3A"/>
</svg>
