<svg width="37" height="38" viewBox="0 0 37 38" fill="none" xmlns="http://www.w3.org/2000/svg">
<g clip-path="url(#clip0_12874_39513)">
<path d="M21.8628 18.5938C22.4668 18.5938 22.9565 18.104 22.9565 17.5C22.9565 16.896 22.4668 16.4062 21.8628 16.4062H13.1128C12.5087 16.4062 12.019 16.896 12.019 17.5C12.019 18.104 12.5087 18.5938 13.1128 18.5938H21.8628Z" fill="#FF4F4F"/>
<path fill-rule="evenodd" clip-rule="evenodd" d="M17.4937 1.8125C16.1265 1.8125 14.821 2.2596 12.7153 2.9808L11.6544 3.34395C9.49414 4.08342 7.82694 4.65409 6.63349 5.13894C6.03229 5.38317 5.51544 5.61973 5.09925 5.86143C4.69873 6.09402 4.29693 6.38414 4.02395 6.77308C3.75411 7.15752 3.61459 7.63014 3.52692 8.08511C3.43577 8.55811 3.38081 9.12552 3.34534 9.77698C3.2749 11.0705 3.2749 12.8426 3.2749 15.1411V17.477C3.2749 26.3743 9.99495 30.6401 13.9912 32.3859L14.0307 32.4031C14.5263 32.6196 14.992 32.8231 15.5272 32.9602C16.0923 33.1048 16.6926 33.1667 17.4937 33.1667C18.2947 33.1667 18.895 33.1048 19.4601 32.9602C19.9953 32.8231 20.4611 32.6196 20.9565 32.4031L20.9961 32.3859C24.9924 30.6401 31.7124 26.3743 31.7124 17.477V15.1414C31.7124 12.8428 31.7124 11.0706 31.642 9.77698C31.6065 9.12552 31.5516 8.55811 31.4604 8.08511C31.3728 7.63014 31.2332 7.15752 30.9634 6.77308C30.6904 6.38414 30.2886 6.09402 29.888 5.86143C29.4718 5.61973 28.955 5.38317 28.3539 5.13894C27.1604 4.65409 25.4932 4.08342 23.3328 3.34394L22.272 2.9808C20.1663 2.2596 18.8608 1.8125 17.4937 1.8125ZM13.2362 5.1146C15.5907 4.30864 16.5345 4 17.4937 4C18.4528 4 19.3966 4.30864 21.7511 5.1146L22.5864 5.40054C24.7923 6.15562 26.401 6.70674 27.5305 7.16559C28.0943 7.39462 28.5028 7.58655 28.7895 7.75306C28.9311 7.83527 29.0286 7.90311 29.0937 7.95606C29.1489 8.00092 29.1699 8.02634 29.173 8.03007C29.1758 8.03462 29.194 8.06491 29.2195 8.13662C29.2487 8.21845 29.2809 8.33576 29.3124 8.49905C29.3762 8.82955 29.4244 9.28356 29.4577 9.89592C29.5245 11.1227 29.5249 12.8351 29.5249 15.1806V17.477C29.5249 25.0241 23.8813 28.7384 20.1204 30.3812C19.5786 30.6179 19.2658 30.7518 18.9176 30.8409C18.5849 30.9261 18.1791 30.9792 17.4937 30.9792C16.8082 30.9792 16.4024 30.9261 16.0697 30.8409C15.7215 30.7518 15.4087 30.6179 14.8669 30.3812C11.106 28.7384 5.4624 25.0241 5.4624 17.477V15.1806C5.4624 12.8351 5.46281 11.1227 5.5296 9.89592C5.56294 9.28356 5.61121 8.82955 5.6749 8.49905C5.70637 8.33576 5.73867 8.21845 5.76782 8.13662C5.79334 8.06496 5.81147 8.03467 5.81428 8.03009C5.8173 8.02639 5.83836 8.00095 5.89359 7.95606C5.95873 7.90311 6.05627 7.83527 6.19783 7.75306C6.48455 7.58655 6.89303 7.39462 7.45681 7.16559C8.5863 6.70674 10.195 6.15562 12.4009 5.40054L13.2362 5.1146Z" fill="#FF4F4F"/>
</g>
<defs>
<clipPath id="clip0_12874_39513">
<rect width="36.421" height="36.421" fill="white" transform="translate(0.179688 0.601562)"/>
</clipPath>
</defs>
</svg>
