<svg width="20" height="20" viewBox="0 0 20 20" fill="none" xmlns="http://www.w3.org/2000/svg">
<path fill-rule="evenodd" clip-rule="evenodd" d="M9.01725 4.21583e-07H10.9826C12.6922 -1.81831e-05 14.0463 -2.75429e-05 15.106 0.142456C16.1966 0.289079 17.0794 0.598028 17.7756 1.29418C18.4717 1.99034 18.7806 2.87308 18.9273 3.9637C19.0697 5.02343 19.0697 6.37752 19.0697 8.08706V11.9129C19.0697 13.6225 19.0697 14.9766 18.9273 16.0363C18.7806 17.1269 18.4717 18.0097 17.7756 18.7059C17.0794 19.402 16.1966 19.7109 15.106 19.8576C14.0463 20 12.6922 20 10.9826 20H9.01725C7.30769 20 5.95361 20 4.89388 19.8576C3.80326 19.7109 2.92051 19.402 2.22435 18.7059C1.5282 18.0097 1.21926 17.1269 1.07263 16.0363C0.930148 14.9766 0.930158 13.6225 0.930176 11.9129V8.08705C0.930158 6.37751 0.930148 5.02343 1.07263 3.9637C1.21926 2.87308 1.5282 1.99034 2.22435 1.29418C2.92051 0.598028 3.80326 0.289079 4.89388 0.142456C5.95361 -2.75429e-05 7.30768 -1.81831e-05 9.01725 4.21583e-07ZM5.0798 1.52536C4.14391 1.65118 3.6047 1.88715 3.21101 2.28084C2.81733 2.67452 2.58136 3.21373 2.45553 4.14963C2.327 5.10559 2.32553 6.36575 2.32553 8.13953V11.8605C2.32553 13.6342 2.327 14.8944 2.45553 15.8504C2.58136 16.7862 2.81733 17.3255 3.21101 17.7192C3.6047 18.1128 4.14391 18.3488 5.0798 18.4746C6.03577 18.6032 7.29593 18.6047 9.06971 18.6047H10.9302C12.7039 18.6047 13.9641 18.6032 14.9201 18.4746C15.8559 18.3488 16.3952 18.1128 16.7889 17.7192C17.1826 17.3255 17.4186 16.7862 17.5443 15.8504C17.6729 14.8944 17.6744 13.6342 17.6744 11.8605V8.13953C17.6744 6.36575 17.6729 5.10559 17.5443 4.14963C17.4186 3.21373 17.1826 2.67452 16.7889 2.28084C16.3952 1.88715 15.8559 1.65118 14.9201 1.52536C13.9641 1.39683 12.7039 1.39535 10.9302 1.39535H9.06971C7.29593 1.39535 6.03577 1.39683 5.0798 1.52536ZM5.58134 8.13953C5.58134 7.75422 5.8937 7.44186 6.27902 7.44186H13.7209C14.1062 7.44186 14.4186 7.75422 14.4186 8.13953C14.4186 8.52484 14.1062 8.83721 13.7209 8.83721H6.27902C5.8937 8.83721 5.58134 8.52484 5.58134 8.13953ZM5.58134 11.8605C5.58134 11.4752 5.8937 11.1628 6.27902 11.1628H10.9302C11.3155 11.1628 11.6279 11.4752 11.6279 11.8605C11.6279 12.2458 11.3155 12.5581 10.9302 12.5581H6.27902C5.8937 12.5581 5.58134 12.2458 5.58134 11.8605Z" fill="#FF3A3A"/>
</svg>
