<svg width="45" height="45" viewBox="0 0 45 45" fill="none" xmlns="http://www.w3.org/2000/svg">
<g id="file-check-svgrepo-com 1">
<path id="Vector" fill-rule="evenodd" clip-rule="evenodd" d="M22.8244 6.07241C21.9931 5.93115 20.86 5.92044 18.8159 5.92044C15.3554 5.92044 12.8957 5.92329 11.0309 6.17288C9.20394 6.41739 8.15419 6.87603 7.39115 7.63906C6.62707 8.40314 6.16908 9.44968 5.92487 11.2661C5.67541 13.1215 5.67254 15.5673 5.67254 19.0101V26.2319C5.67254 29.6746 5.67541 32.1202 5.92487 33.9757C6.16908 35.7922 6.62707 36.8386 7.39115 37.6027C8.15524 38.3669 9.20177 38.8248 11.0182 39.0691C12.8736 39.3186 15.3194 39.3215 18.7621 39.3215H25.9839C29.4266 39.3215 31.8724 39.3186 33.7279 39.0691C35.5442 38.8248 36.5908 38.3669 37.3549 37.6027C38.1189 36.8386 38.577 35.7922 38.8211 33.9757C39.0706 32.1202 39.0735 29.6746 39.0735 26.2319V25.4426C39.0735 22.6694 39.054 21.3548 38.7597 20.3642H33.1088C31.0636 20.3642 29.3921 20.3642 28.0727 20.1867C26.6933 20.0013 25.4975 19.5999 24.543 18.6455C23.5884 17.6909 23.1871 16.4951 23.0017 15.1158C22.8244 13.7963 22.8244 12.1249 22.8244 10.0797V6.07241ZM25.5326 7.47214V9.98272C25.5326 12.1487 25.5354 13.6371 25.6857 14.755C25.8308 15.834 26.0904 16.363 26.458 16.7305C26.8254 17.098 27.3544 17.3577 28.4336 17.5027C29.5515 17.653 31.0397 17.6559 33.2057 17.6559H36.8519C36.3166 17.1367 35.6308 16.5147 34.7404 15.7133L27.5929 9.28061C26.7166 8.49192 26.0644 7.90973 25.5326 7.47214ZM19.079 3.2122C21.5788 3.21154 23.1938 3.21112 24.6802 3.78152C26.1666 4.35193 27.3618 5.42809 29.2108 7.09309C29.2745 7.15057 29.3392 7.20874 29.4047 7.26764L36.552 13.7003C36.6282 13.7688 36.7033 13.8364 36.7775 13.9032C38.9146 15.8253 40.2965 17.0683 41.0398 18.7373C41.7831 20.4063 41.7826 22.265 41.7817 25.1393C41.7817 25.2391 41.7817 25.3402 41.7817 25.4426V26.3337C41.7817 29.6516 41.7817 32.2798 41.5053 34.3366C41.2205 36.4533 40.6209 38.1665 39.2699 39.5177C37.9187 40.8689 36.2053 41.4685 34.0886 41.7531C32.0318 42.0297 29.4038 42.0297 26.0858 42.0297H18.6603C15.3423 42.0297 12.7142 42.0297 10.6574 41.7531C8.54062 41.4685 6.82733 40.8689 5.47618 39.5177C4.12505 38.1665 3.52542 36.4533 3.24084 34.3366C2.9643 32.2798 2.96432 29.6516 2.96436 26.3337V18.9081C2.96432 15.5901 2.9643 12.9621 3.24084 10.9053C3.52542 8.78852 4.12505 7.07523 5.47618 5.72408C6.82838 4.3719 8.5474 3.77292 10.6716 3.48864C12.737 3.2122 15.3781 3.21222 18.7143 3.21226H18.8159C18.9046 3.21226 18.9923 3.21224 19.079 3.2122Z" fill="#FF3A3A"/>
<path id="Vector_2" fill-rule="evenodd" clip-rule="evenodd" d="M19.6519 26.9744C20.2108 27.4712 20.261 28.327 19.7643 28.886L14.9497 34.3024C14.6928 34.5914 14.3244 34.757 13.9376 34.757C13.5509 34.757 13.1825 34.5914 12.9256 34.3024L10.5183 31.5942C10.0215 31.0352 10.0718 30.1794 10.6308 29.6826C11.1897 29.1857 12.0456 29.2361 12.5424 29.795L13.9376 31.3647L17.7401 27.0869C18.237 26.5279 19.0929 26.4775 19.6519 26.9744Z" fill="#FF3A3A"/>
</g>
</svg>
