<svg width="20" height="20" viewBox="0 0 20 20" fill="none" xmlns="http://www.w3.org/2000/svg">
<path fill-rule="evenodd" clip-rule="evenodd" d="M9.95163 1.0706e-06H10.0484C10.8842 -2.68364e-05 11.5811 -4.54104e-05 12.1344 0.074336C12.7184 0.152857 13.2457 0.325573 13.6693 0.749266C14.093 1.17296 14.2658 1.70021 14.3443 2.28421C14.3993 2.69314 14.4136 3.18055 14.4173 3.74449C15.0206 3.76385 15.5583 3.79913 16.0363 3.86339C17.1269 4.01001 18.0097 4.31896 18.7059 5.01511C19.402 5.71127 19.7109 6.59401 19.8576 7.68463C20 8.74437 20 10.0984 20 11.808V11.9129C20 13.6225 20 14.9766 19.8576 16.0363C19.7109 17.1269 19.402 18.0097 18.7059 18.7059C18.0097 19.402 17.1269 19.7109 16.0363 19.8576C14.9766 20 13.6225 20 11.9129 20H8.08706C6.37752 20 5.02343 20 3.9637 19.8576C2.87308 19.7109 1.99033 19.402 1.29418 18.7059C0.598028 18.0097 0.289079 17.1269 0.142456 16.0363C-2.75429e-05 14.9766 -1.81831e-05 13.6225 4.21583e-07 11.9129V11.808C-1.81831e-05 10.0984 -2.75429e-05 8.74437 0.142456 7.68463C0.289079 6.59401 0.598028 5.71127 1.29418 5.01511C1.99033 4.31896 2.87308 4.01001 3.9637 3.86339C4.44163 3.79913 4.97942 3.76385 5.5827 3.74449C5.58642 3.18055 5.60075 2.69314 5.65573 2.28421C5.73425 1.70021 5.90697 1.17296 6.33066 0.749266C6.75435 0.325573 7.28161 0.152857 7.8656 0.074336C8.41888 -4.54104e-05 9.11581 -2.68364e-05 9.95163 1.0706e-06ZM6.97842 3.72259C7.33017 3.72092 7.69948 3.72093 8.08705 3.72093H11.9129C12.3006 3.72093 12.6699 3.72092 13.0216 3.72259C13.0177 3.19206 13.0046 2.79186 12.9614 2.47013C12.9036 2.04087 12.8039 1.85715 12.6827 1.73593C12.5615 1.6147 12.3778 1.51496 11.9485 1.45725C11.4992 1.39684 10.8967 1.39535 10 1.39535C9.10325 1.39535 8.50084 1.39684 8.05152 1.45725C7.62226 1.51496 7.43854 1.6147 7.31732 1.73593C7.19609 1.85715 7.09635 2.04087 7.03864 2.47013C6.99539 2.79186 6.98233 3.19206 6.97842 3.72259ZM4.14963 5.24629C3.21373 5.37212 2.67452 5.60809 2.28084 6.00178C1.88715 6.39545 1.65118 6.93466 1.52536 7.87056C1.39683 8.82651 1.39535 10.0867 1.39535 11.8605C1.39535 13.6342 1.39683 14.8944 1.52536 15.8504C1.65118 16.7862 1.88715 17.3255 2.28084 17.7192C2.67452 18.1128 3.21373 18.3488 4.14963 18.4746C5.10559 18.6032 6.36575 18.6047 8.13953 18.6047H11.8605C13.6342 18.6047 14.8944 18.6032 15.8504 18.4746C16.7862 18.3488 17.3255 18.1128 17.7192 17.7192C18.1128 17.3255 18.3488 16.7862 18.4746 15.8504C18.6032 14.8944 18.6046 13.6342 18.6046 11.8605C18.6046 10.0867 18.6032 8.82651 18.4746 7.87056C18.3488 6.93466 18.1128 6.39545 17.7192 6.00178C17.3255 5.60809 16.7862 5.37212 15.8504 5.24629C14.8944 5.11777 13.6342 5.11628 11.8605 5.11628H8.13953C6.36575 5.11628 5.10559 5.11777 4.14963 5.24629ZM10 7.44186C10.3853 7.44186 10.6977 7.75422 10.6977 8.13953V8.14902C11.7105 8.40419 12.5581 9.20279 12.5581 10.31C12.5581 10.6953 12.2458 11.0077 11.8605 11.0077C11.4752 11.0077 11.1628 10.6953 11.1628 10.31C11.1628 9.95284 10.7667 9.4574 10 9.4574C9.2333 9.4574 8.83721 9.95284 8.83721 10.31C8.83721 10.6673 9.2333 11.1628 10 11.1628C11.2883 11.1628 12.5581 12.0556 12.5581 13.4109C12.5581 14.5181 11.7105 15.3167 10.6977 15.5719V15.5814C10.6977 15.9667 10.3853 16.2791 10 16.2791C9.6147 16.2791 9.30232 15.9667 9.30232 15.5814V15.5719C8.28949 15.3167 7.44186 14.5181 7.44186 13.4109C7.44186 13.0256 7.75422 12.7132 8.13953 12.7132C8.52484 12.7132 8.83721 13.0256 8.83721 13.4109C8.83721 13.7681 9.2333 14.2635 10 14.2635C10.7667 14.2635 11.1628 13.7681 11.1628 13.4109C11.1628 13.0536 10.7667 12.5581 10 12.5581C8.71172 12.5581 7.44186 11.6654 7.44186 10.31C7.44186 9.20279 8.28949 8.40419 9.30232 8.14902V8.13953C9.30232 7.75422 9.6147 7.44186 10 7.44186Z" fill="#FF3A3A"/>
</svg>
