<svg width="20" height="20" viewBox="0 0 20 20" fill="none" xmlns="http://www.w3.org/2000/svg">
<path fill-rule="evenodd" clip-rule="evenodd" d="M4.37549 12.0923C4.37549 11.747 4.65531 11.4673 5.00049 11.4673H11.6672C12.0123 11.4673 12.2922 11.747 12.2922 12.0923C12.2922 12.4375 12.0123 12.7173 11.6672 12.7173H5.00049C4.65531 12.7173 4.37549 12.4375 4.37549 12.0923Z" fill="#FF3A3A"/>
<path fill-rule="evenodd" clip-rule="evenodd" d="M4.37549 14.9995C4.37549 14.6543 4.65531 14.3745 5.00049 14.3745H9.58382C9.92899 14.3745 10.2088 14.6543 10.2088 14.9995C10.2088 15.3448 9.92899 15.6245 9.58382 15.6245H5.00049C4.65531 15.6245 4.37549 15.3448 4.37549 14.9995Z" fill="#FF3A3A"/>
<path fill-rule="evenodd" clip-rule="evenodd" d="M10.2091 2.3529C9.82548 2.2877 9.30248 2.28276 8.35898 2.28276C6.76174 2.28276 5.62644 2.28408 4.76569 2.39928C3.92245 2.51214 3.43792 2.72383 3.08573 3.07601C2.73306 3.42869 2.52166 3.91173 2.40895 4.75014C2.29381 5.60652 2.29248 6.73541 2.29248 8.32447V11.6578C2.29248 13.2468 2.29381 14.3756 2.40895 15.2321C2.52166 16.0705 2.73306 16.5535 3.08573 16.9061C3.43841 17.2589 3.92145 17.4702 4.75986 17.583C5.61624 17.6981 6.74513 17.6995 8.33415 17.6995H11.6675C13.2565 17.6995 14.3854 17.6981 15.2418 17.583C16.0801 17.4702 16.5632 17.2589 16.9159 16.9061C17.2686 16.5535 17.48 16.0705 17.5926 15.2321C17.7078 14.3756 17.7091 13.2468 17.7091 11.6578V11.2935C17.7091 10.0135 17.7001 9.40672 17.5643 8.94947H14.9561C14.0121 8.94947 13.2406 8.94947 12.6316 8.86755C11.9949 8.78197 11.443 8.59672 11.0024 8.15618C10.5618 7.71559 10.3766 7.16365 10.291 6.52703C10.2091 5.91797 10.2091 5.14653 10.2091 4.2025V2.3529ZM11.4591 2.99897V4.15776C11.4591 5.15752 11.4605 5.84447 11.5298 6.36046C11.5968 6.85848 11.7166 7.10268 11.8863 7.27229C12.0559 7.44191 12.3001 7.56177 12.7981 7.62873C13.3141 7.6981 14.0011 7.69943 15.0008 7.69943H16.6837C16.4366 7.4598 16.1201 7.17269 15.7091 6.80278L12.4101 3.83369C12.0056 3.46966 11.7046 3.20094 11.4591 2.99897ZM8.4804 1.03274C9.63423 1.03243 10.3796 1.03224 11.0657 1.29551C11.7518 1.55879 12.3035 2.05551 13.1569 2.82401C13.1863 2.85054 13.2161 2.87739 13.2464 2.90458L16.5453 5.87365C16.5805 5.90526 16.6151 5.93647 16.6494 5.96729C17.6358 6.8545 18.2736 7.4282 18.6167 8.19857C18.9598 8.96889 18.9596 9.8268 18.9591 11.1535C18.9591 11.1996 18.9591 11.2462 18.9591 11.2935V11.7048C18.9591 13.2362 18.9591 14.4493 18.8316 15.3986C18.7001 16.3756 18.4234 17.1664 17.7998 17.7901C17.1761 18.4137 16.3853 18.6905 15.4083 18.8218C14.459 18.9495 13.246 18.9495 11.7145 18.9495H8.28714C6.75567 18.9495 5.54264 18.9495 4.5933 18.8218C3.61628 18.6905 2.82549 18.4137 2.20185 17.7901C1.57821 17.1664 1.30145 16.3756 1.1701 15.3986C1.04246 14.4493 1.04246 13.2362 1.04248 11.7048V8.27741C1.04246 6.74594 1.04246 5.53292 1.1701 4.58358C1.30145 3.60656 1.57821 2.81577 2.20185 2.19213C2.82597 1.56801 3.61941 1.29154 4.59987 1.16033C5.55317 1.03274 6.77223 1.03274 8.31208 1.03276H8.35898C8.3999 1.03276 8.4404 1.03275 8.4804 1.03274Z" fill="#FF3A3A"/>
</svg>
