<svg width="38" height="37" viewBox="0 0 38 37" fill="none" xmlns="http://www.w3.org/2000/svg">
<g clip-path="url(#clip0_12874_39621)">
<path d="M15.0397 17.4167C14.1652 17.4167 13.4564 16.7078 13.4564 15.8333C13.4564 14.9589 14.1652 14.25 15.0397 14.25C15.9142 14.25 16.623 14.9589 16.623 15.8333C16.623 16.7078 15.9142 17.4167 15.0397 17.4167Z" fill="#FF4F4F"/>
<path d="M22.9564 15.8333C22.9564 16.7078 23.6653 17.4167 24.5397 17.4167C25.4142 17.4167 26.123 16.7078 26.123 15.8333C26.123 14.9589 25.4142 14.25 24.5397 14.25C23.6653 14.25 22.9564 14.9589 22.9564 15.8333Z" fill="#FF4F4F"/>
<path fill-rule="evenodd" clip-rule="evenodd" d="M25.727 8.35054V7.91406C25.727 4.63487 23.0687 1.97656 19.7895 1.97656C16.5103 1.97656 13.852 4.63487 13.852 7.91406V8.35054C12.8095 8.38281 11.8812 8.44069 11.0576 8.54451C9.15553 8.78428 7.6159 9.28871 6.42665 10.4502C6.02987 10.8378 5.6771 11.268 5.375 11.7331C4.46918 13.1271 4.27649 14.7357 4.4144 16.6477C4.5493 18.5191 5.01923 20.8686 5.61551 23.85L5.64591 24.0014C6.05964 26.0706 6.38897 27.7174 6.79652 29.0129C7.21626 30.3472 7.75222 31.4261 8.64902 32.3001C8.95729 32.6006 9.29106 32.8742 9.6462 33.1176C10.679 33.8255 11.8421 34.1394 13.2328 34.2894C14.583 34.4349 16.2625 34.4349 18.3727 34.4349H21.2061C23.3164 34.4349 24.9958 34.4349 26.346 34.2894C27.7368 34.1394 28.8998 33.8255 29.9326 33.1176C30.2878 32.8742 30.6215 32.6006 30.9299 32.3001C31.8265 31.4261 32.3625 30.3472 32.7823 29.0129C33.1898 27.7174 33.5191 26.0706 33.933 24.0014L33.9632 23.8503C34.5595 20.8687 35.0294 18.5192 35.1644 16.6477C35.3023 14.7357 35.1096 13.1271 34.2039 11.7331C33.9017 11.268 33.549 10.8378 33.1521 10.4502C31.9629 9.28871 30.4233 8.78428 28.5213 8.54451C27.6977 8.44069 26.7694 8.38281 25.727 8.35054ZM23.352 7.91406C23.352 5.94655 21.757 4.35156 19.7895 4.35156C17.8221 4.35156 16.227 5.94655 16.227 7.91406V8.31338C16.8987 8.30988 17.6077 8.3099 18.3558 8.3099H21.2231C21.9712 8.3099 22.6802 8.30988 23.352 8.31338V7.91406ZM31.4927 12.1493C30.8365 11.5085 29.8968 11.1117 28.2243 10.9009C26.5287 10.6871 24.2825 10.6849 21.1376 10.6849H18.4413C15.2963 10.6849 13.0502 10.6871 11.3546 10.9009C9.68199 11.1117 8.74228 11.5085 8.08615 12.1493C7.8146 12.4145 7.5733 12.7089 7.36652 13.0271C6.86682 13.7963 6.66194 14.7956 6.78322 16.4769C6.90624 18.1815 7.34451 20.3846 7.96122 23.4684C8.39157 25.62 8.69747 27.1411 9.06211 28.3003C9.41899 29.4346 9.7982 30.1037 10.3066 30.5993C10.5177 30.8048 10.7458 30.9919 10.989 31.1587C11.5745 31.56 12.3049 31.8007 13.4874 31.928C14.6955 32.0583 16.247 32.0599 18.4413 32.0599H21.1376C23.3319 32.0599 24.8833 32.0583 26.0915 31.928C27.2738 31.8007 28.0042 31.56 28.5899 31.1587C28.8329 30.9919 29.0612 30.8048 29.2722 30.5993C29.7807 30.1037 30.1599 29.4346 30.5167 28.3003C30.8813 27.1411 31.1872 25.6202 31.6175 23.4684C32.2343 20.3846 32.6726 18.1815 32.7956 16.4769C32.9168 14.7956 32.7121 13.7963 32.2123 13.0271C32.0056 12.7089 31.7642 12.4145 31.4927 12.1493Z" fill="#FF4F4F"/>
</g>
<defs>
<clipPath id="clip0_12874_39621">
<rect width="36.421" height="36.421" fill="white" transform="translate(0.888184 0.242188)"/>
</clipPath>
</defs>
</svg>
