<svg width="20" height="21" viewBox="0 0 20 21" fill="none" xmlns="http://www.w3.org/2000/svg">
<path fill-rule="evenodd" clip-rule="evenodd" d="M9.9466 0.5H10.0534C12.2007 0.499991 13.8835 0.499981 15.1966 0.676512C16.5405 0.8572 17.601 1.23426 18.4334 2.06664C19.2658 2.89902 19.6428 3.95951 19.8235 5.30345C20 6.61646 20 8.29928 20 10.4466V10.5534C20 12.7007 20 14.3835 19.8235 15.6966C19.6428 17.0405 19.2658 18.101 18.4334 18.9334C17.601 19.7658 16.5405 20.1428 15.1966 20.3235C13.8835 20.5 12.2007 20.5 10.0534 20.5H9.9466C7.79928 20.5 6.11646 20.5 4.80344 20.3235C3.45951 20.1428 2.39902 19.7658 1.56664 18.9334C0.734261 18.101 0.3572 17.0405 0.176512 15.6966C-1.85052e-05 14.3835 -9.16727e-06 12.7007 1.35057e-07 10.5534V10.4466C-9.16727e-06 8.29929 -1.85052e-05 6.61646 0.176512 5.30345C0.3572 3.95951 0.734261 2.89902 1.56664 2.06664C2.39902 1.23426 3.45951 0.8572 4.80344 0.676512C6.11646 0.499981 7.79929 0.499991 9.9466 0.5ZM4.98938 2.05941C3.80016 2.2193 3.08321 2.52339 2.5533 3.0533C2.02339 3.58321 1.7193 4.30016 1.55941 5.48938C1.39683 6.69866 1.39535 8.2877 1.39535 10.5C1.39535 12.7123 1.39683 14.3013 1.55941 15.5106C1.7193 16.6998 2.02339 17.4167 2.5533 17.9467C3.08321 18.4767 3.80016 18.7807 4.98938 18.9406C6.19866 19.1032 7.78769 19.1047 10 19.1047C12.2123 19.1047 13.8013 19.1032 15.0106 18.9406C16.1998 18.7807 16.9167 18.4767 17.4467 17.9467C17.9767 17.4167 18.2807 16.6998 18.4406 15.5106C18.6032 14.3013 18.6047 12.7123 18.6047 10.5C18.6047 8.2877 18.6032 6.69866 18.4406 5.48938C18.2807 4.30016 17.9767 3.58321 17.4467 3.0533C16.9167 2.52339 16.1998 2.2193 15.0106 2.05941C13.8013 1.89683 12.2123 1.89535 10 1.89535C7.78769 1.89535 6.19866 1.89683 4.98938 2.05941Z" fill="#FF3A3A"/>
<path d="M4.66284 7.24422C4.66284 6.85891 5.04188 6.54655 5.50944 6.54655H11.0727L9.48272 5.45461C9.12353 5.20793 9.07499 4.76801 9.37424 4.472C9.6736 4.17599 10.2074 4.136 10.5666 4.38267L13.953 6.70825C14.146 6.84081 14.2577 7.03716 14.2577 7.24422C14.2577 7.45127 14.146 7.64764 13.953 7.7802L10.5666 10.1058C10.2074 10.3524 9.6736 10.3124 9.37424 10.0164C9.07499 9.72041 9.12353 9.2805 9.48272 9.0338L11.0727 7.9419H5.50944C5.04188 7.9419 4.66284 7.62953 4.66284 7.24422Z" fill="#FF3A3A"/>
<path d="M4.66284 13.7571C4.66284 13.3718 5.04188 13.0595 5.50944 13.0595H11.0727L9.48272 11.9676C9.12353 11.7209 9.07499 11.2809 9.37424 10.9849C9.6736 10.6889 10.2074 10.6489 10.5666 10.8956L13.953 13.2211C14.146 13.3537 14.2577 13.5501 14.2577 13.7571C14.2577 13.9642 14.146 14.1606 13.953 14.2931L10.5666 16.6187C10.2074 16.8653 9.6736 16.8253 9.37424 16.5293C9.07499 16.2333 9.12353 15.7934 9.48272 15.5467L11.0727 14.4548H5.50944C5.04188 14.4548 4.66284 14.1424 4.66284 13.7571Z" fill="#FF3A3A"/>
<path d="M13.9834 16.0814C13.9834 16.4667 14.3625 16.7791 14.83 16.7791C15.2976 16.7791 15.6766 16.4667 15.6766 16.0814V4.91862C15.6766 4.53331 15.2976 4.22095 14.83 4.22095C14.3625 4.22095 13.9834 4.53331 13.9834 4.91862V16.0814Z" fill="#FF3A3A"/>
</svg>
