<svg width="28" height="20" viewBox="0 0 28 20" fill="none" xmlns="http://www.w3.org/2000/svg">
<path d="M22.8981 15.2402C22.77 15.1126 22.5981 15.0424 22.4119 15.0424H20.787C20.8923 14.9189 21.1034 14.73 21.5372 14.4589L21.6438 14.3833C22.1061 14.0891 22.399 13.8638 22.5616 13.6749C22.8483 13.3495 22.9927 12.93 22.9927 12.43C22.9927 11.9562 22.8313 11.5473 22.5136 11.2166C21.8078 10.4873 20.4473 10.4926 19.7598 11.2206C19.4473 11.5487 19.2882 11.9562 19.2882 12.4304V12.5931C19.2882 12.8406 19.39 13.0046 19.4913 13.1166C19.7545 13.3771 20.2309 13.3602 20.4575 13.1335C20.6033 13.0006 20.6842 12.8157 20.6842 12.6126V12.4304C20.6842 12.273 20.7375 12.1975 20.7882 12.1437C20.8416 12.0864 20.93 12.0202 21.1371 12.0202C21.3482 12.0202 21.442 12.0891 21.498 12.1477C21.5447 12.197 21.5985 12.2726 21.5985 12.4304C21.5985 12.6139 21.5492 12.7544 21.4474 12.869C21.3834 12.9392 21.2025 13.1019 20.7105 13.4068C20.2105 13.7077 19.8328 14.0473 19.5856 14.4183C19.3056 14.8415 19.1651 15.3388 19.17 15.8975L19.1741 16.3934H22.4123C22.6074 16.3934 22.7874 16.3139 22.8981 16.1903C23.0243 16.0628 23.0932 15.8961 23.0932 15.7179C23.0932 15.5357 23.0243 15.3664 22.8981 15.2402Z" fill="#FF3A3A"/>
<path d="M22.8868 7.07557C21.6094 2.89068 17.7329 0 13.3334 0C9.12232 0 5.37784 2.63557 3.94144 6.58224C1.88675 7.95068 0.666748 10.2071 0.666748 12.6667C0.666748 16.7098 3.95696 20 8.00008 20C8.81519 20 9.63566 19.8556 10.4387 19.5676C12.741 20.2693 15.2081 20.1093 17.3943 19.1302C18.3996 19.7005 19.5236 20 20.6667 20C24.3427 20 27.3334 17.0093 27.3334 13.3333C27.3334 10.4871 25.5614 8.01557 22.8868 7.07557ZM20.6667 18.6667C19.6565 18.6667 18.6627 18.3724 17.7943 17.8138L17.4778 17.6107L17.1392 17.776C15.1081 18.776 12.7823 18.9386 10.629 18.2302L10.401 18.1546L10.1783 18.2418C9.45831 18.5231 8.72498 18.6662 8.00008 18.6662C4.69164 18.6667 2.00008 15.9751 2.00008 12.6667C2.00008 10.5924 3.06409 8.69286 4.84628 7.58443L5.04941 7.45823L5.12628 7.23156C6.31784 3.70312 9.61607 1.33333 13.3334 1.33333C17.2525 1.33333 20.6929 3.98047 21.6992 7.77068L21.7957 8.1338L22.1565 8.23911C24.4557 8.91292 26.0001 10.9595 26.0001 13.3333C26.0001 16.2747 23.6081 18.6667 20.6667 18.6667Z" fill="#FF3A3A"/>
<path d="M11.6775 11.2973C11.5773 11.1453 11.4272 11.0435 11.2473 11.0044L11.0855 10.9862C10.9706 10.9862 10.861 11.0146 10.7515 11.0746C10.5831 11.1724 10.4682 11.3391 10.433 11.5329C10.3275 12.0173 10.1341 12.3688 9.86154 12.576C9.62012 12.7569 9.28605 12.848 8.87222 12.848C8.32659 12.848 7.90654 12.6657 7.58803 12.2933C7.229 11.8715 7.04636 11.2439 7.04636 10.4261C7.04636 9.62926 7.23031 9.00437 7.58667 8.57593C7.91808 8.19062 8.33854 8.00306 8.87217 8.00306C9.28464 8.00306 9.62404 8.09416 9.88106 8.27504C10.1564 8.46525 10.3274 8.7515 10.4031 9.13593C10.4476 9.40525 10.5924 9.5528 10.6966 9.62036C10.8035 9.69593 10.9278 9.73635 11.0556 9.73635L11.2058 9.71812C11.3808 9.67765 11.5229 9.58254 11.6223 9.43676C11.7243 9.28431 11.763 9.11145 11.7345 8.91989C11.6142 8.28301 11.3314 7.76478 10.8877 7.37812C10.3799 6.94437 9.70286 6.72437 8.87305 6.72437C7.93233 6.72437 7.16083 7.07457 6.58268 7.76483C6.00583 8.44437 5.71362 9.33905 5.71362 10.4262C5.71362 11.5369 6.00583 12.4378 6.58132 13.1022C7.15817 13.7831 7.9292 14.1284 8.87305 14.1284C9.70155 14.1284 10.3804 13.8901 10.8877 13.4239C11.3131 13.0399 11.608 12.515 11.7661 11.8613C11.8263 11.5968 11.7493 11.4071 11.6775 11.2973Z" fill="#FF3A3A"/>
<path d="M18.1826 7.89369C17.5906 7.1177 16.7487 6.72437 15.6815 6.72437C14.6089 6.72437 13.7644 7.1177 13.1693 7.8977C12.6708 8.56437 12.4187 9.41593 12.4187 10.4261C12.4187 11.4363 12.6704 12.2857 13.1706 12.9484C13.7643 13.731 14.6089 14.1279 15.6814 14.1279C16.7487 14.1279 17.5905 13.7306 18.1816 12.951C18.693 12.2884 18.9527 11.4395 18.9527 10.4261C18.9527 9.41281 18.6943 8.56036 18.1826 7.89369ZM17.1442 12.171C16.8102 12.6319 16.3314 12.8559 15.6815 12.8559C15.0276 12.8559 14.5488 12.6319 14.22 12.1736C13.9109 11.7412 13.7528 11.1541 13.7528 10.4261C13.7528 9.69322 13.9096 9.10562 14.22 8.67718C14.5488 8.21895 15.0276 7.99494 15.6815 7.99494C16.3314 7.99494 16.8102 8.21895 17.1456 8.67984C17.4601 9.11093 17.6191 9.69806 17.6191 10.426C17.6191 11.1479 17.4587 11.735 17.1442 12.171Z" fill="#FF3A3A"/>
</svg>
