<svg width="48" height="48" viewBox="0 0 48 48" fill="none" xmlns="http://www.w3.org/2000/svg">
<g id="icons8-koala 1">
<path id="Vector" d="M11.2415 7.34888C6.57462 7.34888 2.68066 10.7975 2.68066 15.1552C2.68066 19.362 5.08034 23.5909 7.9548 26.7708C7.61988 27.5879 7.39169 28.324 7.39169 29.0196C7.39169 32.7884 9.44172 35.9242 12.4928 38.0257C15.544 40.1273 19.6035 41.2682 23.8803 41.2682C28.157 41.2682 32.2166 40.1273 35.2677 38.0257C38.3188 35.9242 40.3688 32.7884 40.3688 29.0196C40.3688 28.324 40.1407 27.5879 39.8057 26.7708C42.6802 23.5945 45.0799 19.362 45.0799 15.1552C45.0799 10.7975 41.1859 7.34888 36.5191 7.34888C33.1809 7.34888 30.2659 9.09711 28.8563 11.7066C27.4319 11.3348 25.7316 11.1177 23.8803 11.1177C22.0327 11.1177 20.3323 11.3312 18.9042 11.7029C17.4946 9.09711 14.5797 7.34888 11.2415 7.34888ZM11.2415 9.23329C13.7957 9.23329 15.9047 10.5435 17.0235 12.358C16.3058 12.6966 15.7059 13.1125 15.3084 13.7051L15.2974 13.7235L15.2937 13.7272H15.29C15.29 13.7308 15.2863 13.7345 15.2826 13.7382L15.2716 13.7529V13.7566L15.2679 13.764C15.2532 13.786 15.2348 13.8155 15.209 13.856C15.1502 13.948 15.0655 14.0805 14.9588 14.2498C14.7453 14.5847 14.4398 15.0669 14.0754 15.6521C13.343 16.8298 12.3714 18.4235 11.3961 20.1128C10.4759 21.7028 9.56685 23.359 8.8418 24.8496C6.44948 21.9898 4.56507 18.383 4.56507 15.1552C4.56507 11.9274 7.49474 9.23329 11.2415 9.23329ZM36.5191 9.23329C40.2658 9.23329 43.1955 11.9274 43.1955 15.1552C43.1955 18.383 41.311 21.9935 38.9187 24.8533C38.1937 23.3627 37.2846 21.7101 36.3645 20.1165C36.0369 19.546 35.7167 19.016 35.3928 18.4787C35.3523 18.4051 35.3119 18.3278 35.2714 18.2578C35.2088 18.1548 35.172 18.0996 35.1131 17.9965C34.5905 17.1279 34.0973 16.3182 33.6851 15.6557C33.5231 15.3981 33.4311 15.2509 33.2986 15.0337C33.2361 14.9344 33.2029 14.8902 33.1477 14.7982C33.0373 14.6252 32.8864 14.3786 32.8018 14.2498C32.7539 14.1725 32.7282 14.132 32.6877 14.0731C32.6729 14.0437 32.6619 14.0326 32.6472 14.0069C32.6177 13.9627 32.5736 13.8928 32.5515 13.8597C32.5404 13.8376 32.5331 13.8265 32.522 13.8118C32.5073 13.786 32.4963 13.7713 32.4889 13.7566V13.7529L32.4779 13.7419C32.4742 13.7382 32.4705 13.7308 32.4668 13.7272V13.7235L32.4632 13.7198L32.4521 13.7051C32.0546 13.1125 31.4547 12.6966 30.737 12.358C31.8522 10.5435 33.9648 9.23329 36.5191 9.23329ZM36.9129 12.0599C36.6147 12.0599 36.324 12.1004 36.048 12.1703H36.0443C35.7425 12.2476 35.4517 12.3691 35.1867 12.5236C34.734 12.785 34.5831 13.3628 34.8444 13.8118C35.1021 14.2608 35.6799 14.4154 36.1289 14.1541C36.2504 14.0842 36.3792 14.029 36.5154 13.9922C36.6442 13.9627 36.7767 13.9443 36.9129 13.9443C37.5017 13.9443 38.0023 14.2608 38.2746 14.7283V14.7319C38.4071 14.9638 38.4844 15.2251 38.4844 15.5159C38.4844 15.8066 38.4071 16.0679 38.2746 16.2998C38.0943 16.5906 38.0906 16.9586 38.2562 17.2567C38.4255 17.5549 38.7421 17.7352 39.0844 17.7352C39.4266 17.7315 39.7395 17.5438 39.9051 17.242C40.1995 16.7341 40.3688 16.1416 40.3688 15.5159C40.3688 14.8902 40.1995 14.294 39.9051 13.786C39.3089 12.7518 38.1826 12.0599 36.9129 12.0599ZM10.8477 12.0599C9.5779 12.0599 8.45167 12.7555 7.85543 13.786C7.56099 14.294 7.39169 14.8902 7.39169 15.5159C7.39169 16.1416 7.56099 16.7341 7.85543 17.242C8.02105 17.5438 8.33389 17.7315 8.67618 17.7352C9.01846 17.7352 9.33498 17.5549 9.50429 17.2567C9.66991 16.9586 9.66623 16.5906 9.48588 16.2998C9.35339 16.0679 9.2761 15.8066 9.2761 15.5159C9.2761 15.2251 9.35339 14.9638 9.48588 14.7319V14.7283C9.75824 14.2608 10.2588 13.9443 10.8477 13.9443C10.9838 13.9443 11.1127 13.9627 11.2415 13.9958C11.3813 14.0326 11.5102 14.0842 11.6316 14.1541C12.0843 14.4154 12.6585 14.2608 12.9198 13.8081C13.1774 13.3591 13.0228 12.7813 12.5738 12.52C12.3088 12.3691 12.0181 12.2476 11.7163 12.1703H11.7126C11.4365 12.1004 11.1458 12.0599 10.8477 12.0599ZM23.8803 13.0021C25.6947 13.0021 27.3583 13.2266 28.6244 13.5873C28.9262 13.672 29.2022 13.7676 29.4525 13.8707C29.4709 13.8781 29.4893 13.8854 29.504 13.8928C30.012 14.1026 30.4021 14.3308 30.6413 14.5185C30.7628 14.6105 30.8474 14.6951 30.8879 14.7577C30.8916 14.7614 30.8953 14.7614 30.8953 14.7651L30.91 14.7835C30.9174 14.7982 30.9247 14.8092 30.9358 14.8276C30.9468 14.846 30.9542 14.8571 30.9652 14.8755C31.0204 14.9638 31.1051 15.0926 31.2118 15.2582C31.359 15.4901 31.5946 15.8729 31.8191 16.2299C32.2681 16.9476 32.8459 17.8861 33.4753 18.9314C33.8801 19.6086 34.3071 20.3189 34.734 21.0587C34.7414 21.0734 34.7451 21.0844 34.7524 21.0955C35.1794 21.8353 35.6026 22.5861 36.0075 23.3259C36.1694 23.6277 36.3129 23.9111 36.4675 24.2018C36.7104 24.6619 36.946 25.1183 37.1595 25.5489C37.3251 25.8801 37.4686 26.193 37.6085 26.5021C38.1569 27.7424 38.4844 28.8024 38.4844 29.0196C38.4844 32.1185 36.865 34.636 34.2003 36.4726C31.532 38.3091 27.8184 39.3838 23.8803 39.3838C19.9421 39.3838 16.2285 38.3091 13.5602 36.4726C10.8955 34.636 9.2761 32.1185 9.2761 29.0196C9.2761 28.7951 9.59998 27.7424 10.1447 26.5021C10.2882 26.1893 10.4391 25.8654 10.6121 25.5231C10.7998 25.1403 11.0096 24.7392 11.2194 24.3343C12.7615 21.412 14.8079 18.0444 15.993 16.1452C16.1917 15.825 16.4162 15.4717 16.5487 15.2582C16.6555 15.0926 16.7364 14.9638 16.7953 14.8755C16.8211 14.8313 16.8432 14.7982 16.8579 14.7724C16.8616 14.7651 16.8689 14.7614 16.8726 14.7577C16.9131 14.6951 16.9978 14.6142 17.1119 14.5221C17.1229 14.5148 17.1413 14.5037 17.1523 14.4964C17.3916 14.316 17.7633 14.0989 18.2528 13.8965C18.2712 13.8854 18.2933 13.8781 18.3154 13.8707C18.562 13.7676 18.8343 13.672 19.1361 13.5873C20.4022 13.2266 22.0658 13.0021 23.8803 13.0021ZM23.8803 23.3664C21.5542 23.3664 19.6403 25.2802 19.6403 27.6063V32.3173C19.6403 34.6434 21.5542 36.5572 23.8803 36.5572C26.2063 36.5572 28.1202 34.6434 28.1202 32.3173V27.6063C28.1202 25.2802 26.2063 23.3664 23.8803 23.3664ZM17.2848 24.3086C16.5046 24.3086 15.8715 24.9416 15.8715 25.7219C15.8715 26.5021 16.5046 27.1352 17.2848 27.1352C18.0651 27.1352 18.6981 26.5021 18.6981 25.7219C18.6981 24.9416 18.0651 24.3086 17.2848 24.3086ZM30.4757 24.3086C29.6954 24.3086 29.0624 24.9416 29.0624 25.7219C29.0624 26.5021 29.6954 27.1352 30.4757 27.1352C31.256 27.1352 31.889 26.5021 31.889 25.7219C31.889 24.9416 31.256 24.3086 30.4757 24.3086ZM23.8803 25.2508C25.1795 25.2508 26.2358 26.3071 26.2358 27.6063V32.3173C26.2358 33.6165 25.1795 34.6728 23.8803 34.6728C22.5811 34.6728 21.5248 33.6165 21.5248 32.3173V27.6063C21.5248 26.3071 22.5811 25.2508 23.8803 25.2508Z" fill="#343434"/>
</g>
</svg>
