<svg width="45" height="45" viewBox="0 0 45 45" fill="none" xmlns="http://www.w3.org/2000/svg">
<g id="icons8-heat-wave 1">
<path id="Vector" d="M41.8063 41.3877H39.0254V29.9099C39.3661 30.0767 39.7485 30.1671 40.1308 30.1671C40.8191 30.1671 41.4726 29.889 41.9244 29.4093C42.3485 28.9505 42.5501 28.3735 42.4876 27.7756C42.425 27.1777 42.1052 26.6494 41.5838 26.267L39.7137 24.9461V19.1342C39.7137 18.7519 39.4009 18.439 39.0185 18.439H34.8473C34.4649 18.439 34.1521 18.7519 34.1521 19.1342V21.0182L29.6889 17.8689C29.4455 17.7021 29.1258 17.7021 28.8894 17.8689L16.9736 26.2809C16.4661 26.6424 16.1533 27.1777 16.0907 27.7756C16.0281 28.3665 16.2297 28.9505 16.6538 29.4093C17.1057 29.889 17.7592 30.1671 18.4474 30.1671C18.8368 30.1671 19.2261 30.0767 19.5528 29.9168V41.3877H2.87489C2.49253 41.3877 2.17969 41.7005 2.17969 42.0829C2.17969 42.4652 2.49253 42.7781 2.87489 42.7781H41.8063C42.1886 42.7781 42.5015 42.4652 42.5015 42.0829C42.5015 41.7005 42.1886 41.3877 41.8063 41.3877ZM35.5494 19.8364H38.3302V23.9728L35.5494 22.0124V19.8433V19.8364ZM17.6758 28.4638C17.5715 28.3526 17.4533 28.1649 17.4742 27.9285C17.495 27.7269 17.6062 27.5531 17.78 27.421L29.2857 19.3011L40.7704 27.4002C40.972 27.5462 41.0832 27.72 41.1041 27.9285C41.1319 28.1719 41.0068 28.3526 40.9025 28.4638C40.5688 28.8184 39.9153 28.8949 39.4495 28.5612L29.675 21.9706C29.5568 21.8942 29.4247 21.8525 29.2857 21.8525C29.1466 21.8525 29.0145 21.8942 28.8963 21.9706L27.5059 22.9092C27.3113 23.0413 27.2 23.2568 27.2 23.4862V26.1001C27.2 26.4825 26.8872 26.7954 26.5048 26.7954C26.1225 26.7954 25.8096 26.4825 25.8096 26.1001V25.3563C25.8096 25.0991 25.6706 24.8627 25.4412 24.7445C25.2118 24.6263 24.9406 24.6402 24.7251 24.7793L19.0662 28.5959C18.6977 28.874 17.9886 28.8184 17.6688 28.4708L17.6758 28.4638ZM26.5118 41.3877V31.6548H32.0734V41.3877H26.5118ZM33.4638 41.3877V30.9596C33.4638 30.5773 33.151 30.2644 32.7686 30.2644H25.8166C25.4342 30.2644 25.1214 30.5773 25.1214 30.9596V41.3877H20.9502V28.9991L24.4888 26.6146C24.7182 27.5114 25.5385 28.1788 26.5118 28.1788C27.6589 28.1788 28.5974 27.2403 28.5974 26.0932V23.8477L29.2926 23.375L37.635 28.9991V41.3807H33.4638V41.3877ZM8.51299 32.9479C7.75521 31.4532 7.75521 29.3607 8.51299 27.866C8.68679 27.5253 9.10391 27.3863 9.44456 27.5601C9.78521 27.7339 9.92425 28.151 9.75045 28.4916C9.18733 29.604 9.18733 31.2099 9.75045 32.3222C10.5082 33.8169 10.5082 35.9095 9.75045 37.4042C9.62531 37.6475 9.38199 37.7865 9.13172 37.7865C9.02744 37.7865 8.9162 37.7657 8.81888 37.71C8.47823 37.5362 8.33919 37.1191 8.51299 36.7785C9.0761 35.6661 9.0761 34.0602 8.51299 32.9479ZM12.6842 28.7767C11.9264 27.282 11.9264 25.1894 12.6842 23.6947C12.858 23.3541 13.2751 23.2151 13.6158 23.3889C13.9564 23.5627 14.0955 23.9798 13.9217 24.3204C13.3586 25.4328 13.3586 27.0387 13.9217 28.151C14.6794 29.6457 14.6794 31.7382 13.9217 33.2329C13.7965 33.4763 13.5532 33.6153 13.3029 33.6153C13.1987 33.6153 13.0874 33.5944 12.9901 33.5388C12.6494 33.365 12.5104 32.9479 12.6842 32.6073C13.2473 31.4949 13.2473 29.889 12.6842 28.7767ZM4.34177 28.7767C3.584 27.282 3.584 25.1894 4.34177 23.6947C4.51557 23.3541 4.93269 23.2151 5.27334 23.3889C5.61399 23.5627 5.75303 23.9798 5.57923 24.3204C5.01612 25.4328 5.01612 27.0387 5.57923 28.151C6.337 29.6457 6.337 31.7382 5.57923 33.2329C5.45409 33.4763 5.21077 33.6153 4.9605 33.6153C4.85622 33.6153 4.74499 33.5944 4.64766 33.5388C4.30701 33.365 4.16797 32.9479 4.34177 32.6073C4.90488 31.4949 4.90488 29.889 4.34177 28.7767ZM22.3406 14.2747C24.6417 14.2747 26.5118 12.4047 26.5118 10.1035C26.5118 7.80241 24.6417 5.93231 22.3406 5.93231C20.0395 5.93231 18.1694 7.80241 18.1694 10.1035C18.1694 12.4047 20.0395 14.2747 22.3406 14.2747ZM22.3406 7.32272C23.877 7.32272 25.1214 8.56713 25.1214 10.1035C25.1214 11.6399 23.877 12.8843 22.3406 12.8843C20.8042 12.8843 19.5598 11.6399 19.5598 10.1035C19.5598 8.56713 20.8042 7.32272 22.3406 7.32272ZM21.6454 4.54191V3.1515C21.6454 2.76914 21.9582 2.4563 22.3406 2.4563C22.7229 2.4563 23.0358 2.76914 23.0358 3.1515V4.54191C23.0358 4.92427 22.7229 5.23711 22.3406 5.23711C21.9582 5.23711 21.6454 4.92427 21.6454 4.54191ZM25.7818 6.66228C25.5107 6.39115 25.5107 5.95317 25.7818 5.68204L26.7621 4.7018C27.0332 4.43068 27.4712 4.43068 27.7423 4.7018C28.0134 4.97293 28.0134 5.41091 27.7423 5.68204L26.7621 6.66228C26.623 6.80132 26.4492 6.86389 26.2685 6.86389C26.0877 6.86389 25.9139 6.79437 25.7749 6.66228H25.7818ZM27.9022 9.40833H29.2926C29.675 9.40833 29.9878 9.72117 29.9878 10.1035C29.9878 10.4859 29.675 10.7987 29.2926 10.7987H27.9022C27.5198 10.7987 27.207 10.4859 27.207 10.1035C27.207 9.72117 27.5198 9.40833 27.9022 9.40833ZM27.7493 14.525C28.0204 14.7962 28.0204 15.2341 27.7493 15.5053C27.6102 15.6443 27.4364 15.7069 27.2557 15.7069C27.0749 15.7069 26.9011 15.6373 26.7621 15.5053L25.7818 14.525C25.5107 14.2539 25.5107 13.8159 25.7818 13.5448C26.053 13.2737 26.4909 13.2737 26.7621 13.5448L27.7423 14.525H27.7493ZM22.3406 14.97C22.7229 14.97 23.0358 15.2828 23.0358 15.6652V17.0556C23.0358 17.4379 22.7229 17.7508 22.3406 17.7508C21.9582 17.7508 21.6454 17.4379 21.6454 17.0556V15.6652C21.6454 15.2828 21.9582 14.97 22.3406 14.97ZM18.8993 13.5448C19.1704 13.8159 19.1704 14.2539 18.8993 14.525L17.9191 15.5053C17.78 15.6443 17.6062 15.7069 17.4255 15.7069C17.2447 15.7069 17.0709 15.6373 16.9319 15.5053C16.6608 15.2341 16.6608 14.7962 16.9319 14.525L17.9121 13.5448C18.1833 13.2737 18.6212 13.2737 18.8924 13.5448H18.8993ZM14.6933 10.1035C14.6933 9.72117 15.0062 9.40833 15.3885 9.40833H16.7789C17.1613 9.40833 17.4742 9.72117 17.4742 10.1035C17.4742 10.4859 17.1613 10.7987 16.7789 10.7987H15.3885C15.0062 10.7987 14.6933 10.4859 14.6933 10.1035ZM16.9319 5.68204C16.6608 5.41091 16.6608 4.97293 16.9319 4.7018C17.203 4.43068 17.641 4.43068 17.9121 4.7018L18.8924 5.68204C19.1635 5.95317 19.1635 6.39115 18.8924 6.66228C18.7533 6.80132 18.5795 6.86389 18.3988 6.86389C18.218 6.86389 18.0442 6.79437 17.9052 6.66228L16.9249 5.68204H16.9319Z" fill="#343434"/>
</g>
</svg>
