<svg width="40" height="40" viewBox="0 0 40 40" fill="none" xmlns="http://www.w3.org/2000/svg">
<g id="icons8-crops 1" clip-path="url(#clip0_2183_15735)">
<path id="Vector" d="M9.47473 0.678854C9.25697 0.706458 9.06374 0.81994 8.93492 0.99783L7.09468 3.35334H3.97854C3.54608 3.35334 3.19337 3.70605 3.19337 4.13851V7.25466L0.837855 9.0949C0.650764 9.24518 0.543416 9.46908 0.543416 9.70831C0.543416 9.94755 0.650764 10.1714 0.837855 10.3217L3.19337 12.162V14.4929C3.1903 14.7751 3.33752 15.0389 3.58288 15.183C3.82825 15.3241 4.12882 15.3241 4.37419 15.183C4.61955 15.0389 4.76677 14.7751 4.76371 14.4929V11.7448C4.75757 11.5026 4.64102 11.2756 4.44473 11.1314L2.57995 9.70831L4.44473 8.28519C4.64102 8.14104 4.75757 7.91408 4.76371 7.67178V4.92368H7.5118C7.7541 4.91755 7.98106 4.801 8.12522 4.60471L9.54834 2.73993L10.9715 4.60471C11.1156 4.801 11.3426 4.91755 11.5849 4.92368H14.333V7.67178C14.3391 7.91408 14.4557 8.14104 14.6519 8.28519L16.5167 9.70831L14.6519 11.1314C14.3054 11.3952 14.241 11.889 14.5047 12.2356C14.7685 12.5822 15.2623 12.6466 15.6089 12.3828L18.2588 10.3217C18.4459 10.1714 18.5533 9.94755 18.5533 9.70831C18.5533 9.46908 18.4459 9.24518 18.2588 9.0949L15.9033 7.25466V4.13851C15.9033 3.70605 15.5506 3.35334 15.1181 3.35334H12.002L10.1618 0.99783C10.0023 0.780067 9.74463 0.660452 9.47473 0.678854ZM9.54834 5.38988C7.17136 5.38988 5.2299 7.33133 5.2299 9.70831C5.2299 12.0853 7.17136 14.0267 9.54834 14.0267C11.9253 14.0267 13.8668 12.0853 13.8668 9.70831C13.8668 7.33133 11.9253 5.38988 9.54834 5.38988ZM9.54834 6.96022C11.0757 6.96022 12.2964 8.18091 12.2964 9.70831C12.2964 11.2357 11.0757 12.4564 9.54834 12.4564C8.02094 12.4564 6.80024 11.2357 6.80024 9.70831C6.80024 8.18091 8.02094 6.96022 9.54834 6.96022ZM25.6689 13.217C25.6351 13.2232 25.6014 13.2324 25.5707 13.2416C25.5615 13.2416 25.5554 13.2416 25.5462 13.2416C25.5124 13.2385 25.4818 13.2385 25.448 13.2416C9.75383 13.2907 0.862392 19.1794 0.862392 19.1794C0.644629 19.3297 0.515813 19.5781 0.51888 19.8419V31.4723C0.472873 31.6225 0.472873 31.7882 0.51888 31.9384V39.1522C0.51888 39.5847 0.871593 39.9374 1.30405 39.9374H38.9922C39.4247 39.9374 39.7774 39.5847 39.7774 39.1522V14.9837C39.8234 14.772 39.7774 14.5482 39.6547 14.3703C39.6486 14.3549 39.6394 14.3365 39.6302 14.3212C39.5566 14.2292 39.4646 14.1525 39.3603 14.1004C39.3511 14.0912 39.3449 14.085 39.3357 14.0758C39.3204 14.0758 39.302 14.0758 39.2867 14.0758C39.2775 14.0666 39.2713 14.0605 39.2621 14.0513C39.2468 14.0513 39.2284 14.0513 39.2131 14.0513C39.2039 14.0421 39.1977 14.036 39.1885 14.0267C39.1732 14.0267 39.1548 14.0267 39.1394 14.0267C39.1302 14.0267 39.1241 14.0267 39.1149 14.0267C39.0505 14.0114 38.9861 14.0022 38.9186 14.0022C38.6088 13.9593 36.0816 13.6311 32.122 13.4133C31.987 13.3673 31.8429 13.3581 31.7049 13.3888C31.6957 13.3888 31.6895 13.3888 31.6803 13.3888C29.9536 13.2999 28.009 13.2477 25.8897 13.2416C25.8161 13.2232 25.7425 13.214 25.6689 13.217ZM25.8161 14.8119C26.7791 14.8119 27.6931 14.8395 28.5642 14.861C27.0797 15.686 25.1659 16.8975 23.0435 18.6396C18.4398 22.4183 12.9006 28.626 9.00853 38.367H2.08922V31.9384C10.0575 19.9002 25.4051 14.9438 25.8161 14.8119ZM31.8766 14.9837C32.5514 15.0205 33.2599 15.0634 33.8395 15.1064C32.8519 15.9835 31.4779 17.3392 29.9137 19.2776C26.8466 23.0807 23.0036 29.175 19.7556 38.367H10.7261C14.4955 29.2364 19.7157 23.4243 24.0495 19.8665C28.2912 16.3884 31.5024 15.1248 31.8766 14.9837ZM21.0069 15.0082C16.0076 17.241 7.80317 21.7466 2.08922 29.2394V20.2836C2.86519 19.7898 9.35818 15.8823 21.0069 15.0082ZM36.0969 15.2781C36.8422 15.3517 37.3789 15.4284 37.7409 15.4744C36.4251 18.0262 32.898 25.5865 29.8892 38.367H21.424C24.5739 29.6228 28.2391 23.8536 31.1405 20.259C33.8058 16.9527 35.6798 15.5695 36.0969 15.2781ZM38.2071 18.1244V38.367H31.5086C33.9009 28.304 36.5907 21.6208 38.2071 18.1244Z" fill="#343434"/>
</g>
<defs>
<clipPath id="clip0_2183_15735">
<rect width="39.2585" height="39.2585" fill="white" transform="translate(0.519531 0.679199)"/>
</clipPath>
</defs>
</svg>
