<svg width="53" height="54" viewBox="0 0 53 54" fill="none" xmlns="http://www.w3.org/2000/svg">
<g id="icons8-fire 1" clip-path="url(#clip0_2183_15697)">
<path id="Vector" d="M22.9163 0.73306C22.4502 0.818938 22.1026 1.21152 22.0657 1.68181C21.4155 8.9569 17.2116 13.7579 12.9381 18.7265C8.66469 23.6952 4.33398 28.8888 4.33398 36.6873C4.33398 42.0322 6.7263 46.1748 9.86289 48.9229C12.9995 51.671 16.8395 53.0778 20.0374 53.0778C20.4136 53.0818 20.7653 52.8856 20.9575 52.5584C21.1456 52.2312 21.1456 51.8305 20.9575 51.5033C20.7653 51.1762 20.4136 50.9799 20.0374 50.984C17.4774 50.984 13.9891 49.7653 11.2369 47.3526C8.48475 44.9398 6.42777 41.4147 6.42777 36.6873C6.42777 29.6576 10.2841 25.0202 14.5412 20.0679C18.4711 15.4959 22.6056 10.5845 23.7997 3.5793C39.6544 14.6985 46.2097 26.0016 46.2097 34.4954C46.2097 42.5679 41.282 49.066 36.3951 51.0494C35.8512 51.2661 35.5895 51.8796 35.8062 52.4234C36.023 52.9673 36.6364 53.2291 37.1803 53.0123C43.0568 50.6282 48.3035 43.4063 48.3035 34.4954C48.3035 24.6889 40.8771 12.572 23.7015 0.929353C23.5011 0.786223 23.2599 0.716703 23.0145 0.73306C22.9818 0.73306 22.9491 0.73306 22.9163 0.73306ZM26.9403 16.8618C26.6541 16.8945 26.3965 17.0417 26.2206 17.2707C26.0489 17.4997 25.9793 17.7901 26.0243 18.0722C26.6623 21.7609 26.8177 24.7953 26.6132 27.069C26.4087 29.3427 25.8403 30.8558 25.2391 31.551C24.638 32.2462 24.18 32.3321 23.2762 31.9436C22.3725 31.5551 21.0966 30.4305 19.8084 28.443C19.6244 28.1609 19.3136 27.985 18.9741 27.9727C18.6388 27.9605 18.3157 28.1118 18.1072 28.3776C14.2018 33.6448 14.3776 37.8569 15.7517 40.5805C17.1257 43.304 19.5467 44.5717 19.5467 44.5717C19.8779 44.8048 20.3114 44.8253 20.6672 44.629C21.0189 44.4286 21.2233 44.0442 21.1947 43.6394C21.1661 43.2345 20.9043 42.8869 20.5281 42.7397C20.5281 42.7397 18.6633 41.7378 17.6164 39.6644C16.6677 37.7792 16.4182 34.9534 19.0559 30.8313C20.1601 32.2585 21.2724 33.3626 22.4583 33.8738C23.9919 34.5322 25.734 34.1723 26.8095 32.925C27.885 31.6778 28.478 29.7557 28.707 27.2326C28.8665 25.47 28.7397 23.2863 28.478 20.8858C31.3119 23.687 33.6102 26.705 34.5303 29.9807C35.6835 34.0864 35.1069 38.4376 31.7495 43.0341C31.406 43.5044 31.5082 44.1628 31.9785 44.5063C32.4488 44.8498 33.1072 44.7476 33.4507 44.2773C37.1189 39.2555 37.8755 34.0987 36.5587 29.4245C35.2419 24.7503 31.9376 20.5627 27.7255 17.0908C27.5047 16.9108 27.2225 16.8291 26.9403 16.8618Z" fill="#343434"/>
</g>
<defs>
<clipPath id="clip0_2183_15697">
<rect width="52.3447" height="52.3447" fill="white" transform="translate(0.146484 0.733398)"/>
</clipPath>
</defs>
</svg>
