<svg width="37" height="37" viewBox="0 0 37 37" fill="none" xmlns="http://www.w3.org/2000/svg">
<g id="icons8-water 1" clip-path="url(#clip0_2183_15739)">
<path id="Vector" d="M18.3054 0.411108C18.2739 0.416834 18.2424 0.425421 18.2138 0.434009C18.0506 0.46836 17.9075 0.557101 17.8015 0.685918C17.8015 0.685918 14.7328 4.41589 11.6641 9.15921C8.59542 13.9025 5.45801 19.5963 5.45801 24.0218C5.45801 31.144 11.2519 36.9379 18.3741 36.9379C25.4962 36.9379 31.2901 31.144 31.2901 24.0218C31.2901 19.5963 28.1527 13.9025 25.084 9.15921C22.0153 4.41589 18.9466 0.685918 18.9466 0.685918C18.792 0.491261 18.5515 0.388207 18.3054 0.411108ZM18.3741 2.35768C19.0926 3.24795 21.2882 5.98173 23.8474 9.93784C26.8645 14.601 29.8245 20.3291 29.8245 24.0218C29.8245 30.351 24.7033 35.4722 18.3741 35.4722C12.0449 35.4722 6.92366 30.351 6.92366 24.0218C6.92366 20.3291 9.88359 14.601 12.9008 9.93784C15.4599 5.98173 17.6555 3.24795 18.3741 2.35768ZM17.8244 8.44929C17.6384 8.4865 17.4752 8.59242 17.3664 8.747C17.3664 8.747 15.5687 11.06 13.771 14.0829C11.9733 17.1058 10.1298 20.7928 10.1298 23.8844C10.1298 27.7661 11.9561 30.1163 13.771 31.373C15.5859 32.6297 17.4122 32.8844 17.4122 32.8844C17.6813 32.9503 17.9618 32.8587 18.1422 32.6497C18.3225 32.4407 18.3683 32.1459 18.2624 31.8911C18.1565 31.6363 17.916 31.4617 17.6412 31.4417C17.6412 31.4417 16.1355 31.2327 14.6183 30.1821C13.1012 29.1316 11.5954 27.3224 11.5954 23.8844C11.5954 21.414 13.2844 17.7527 15.0305 14.8157C16.7767 11.8787 18.5115 9.64013 18.5115 9.64013C18.7061 9.4054 18.7347 9.07047 18.583 8.80425C18.4284 8.54089 18.1279 8.39776 17.8244 8.44929Z" fill="#343434"/>
</g>
<defs>
<clipPath id="clip0_2183_15739">
<rect width="36.6413" height="36.6413" fill="white" transform="translate(0.0517578 0.296387)"/>
</clipPath>
</defs>
</svg>
