<svg width="49" height="50" viewBox="0 0 49 50" fill="none" xmlns="http://www.w3.org/2000/svg">
<g id="icons8-sea 1" clip-path="url(#clip0_2183_15699)">
<path id="Vector" d="M29.1901 3.6377C27.6568 3.6377 26.3836 4.24754 25.5606 5.17348C24.7375 6.09942 24.3482 7.29601 24.3482 8.47958C24.3482 9.66315 24.7375 10.8597 25.5606 11.7857C26.3836 12.7116 27.6568 13.3215 29.1901 13.3215C30.7234 13.3215 31.9966 12.7116 32.8196 11.7857C33.6427 10.8597 34.032 9.66315 34.032 8.47958C34.032 7.29601 33.6427 6.09942 32.8196 5.17348C31.9966 4.24754 30.7234 3.6377 29.1901 3.6377ZM29.1901 5.57445C30.2392 5.57445 30.9027 5.93298 31.3708 6.45961C31.8389 6.98623 32.0952 7.7264 32.0952 8.47958C32.0952 9.23276 31.8389 9.97293 31.3708 10.4996C30.9027 11.0262 30.2392 11.3847 29.1901 11.3847C28.141 11.3847 27.4775 11.0262 27.0094 10.4996C26.5413 9.97293 26.285 9.23276 26.285 8.47958C26.285 7.7264 26.5413 6.98623 27.0094 6.45961C27.4775 5.93298 28.141 5.57445 29.1901 5.57445ZM18.5512 18.1633C18.1774 18.1633 17.8324 18.3833 17.6736 18.7232C17.6736 18.7232 15.9908 22.052 12.7409 22.052C9.49106 22.052 7.80826 18.7213 7.80826 18.7213C7.63008 18.3543 7.24467 18.1359 6.83988 18.1766C6.80986 18.1776 6.77912 18.1785 6.7491 18.1785C6.44309 18.2395 6.18575 18.4395 6.05308 18.7232C6.05308 18.7232 4.32089 22.052 1.12041 22.052C0.772761 22.0481 0.447477 22.2303 0.269296 22.5324C0.0949882 22.8355 0.0949882 23.2052 0.269296 23.5083C0.447477 23.8114 0.772761 23.9926 1.12041 23.9887C4.42257 23.9887 6.07172 22.0145 6.93067 20.7507C7.78575 22.0183 9.4194 23.9887 12.7409 23.9887C16.0625 23.9887 17.6961 22.0183 18.5512 20.7507C19.4024 22.0183 21.0399 23.9887 24.3615 23.9887C27.683 23.9887 29.3205 22.0183 30.1717 20.7507C31.0229 22.0183 32.6566 23.9887 35.982 23.9887C39.3074 23.9887 40.941 22.0183 41.7922 20.7507C42.6473 22.0145 44.2965 23.9887 47.6025 23.9887C47.9501 23.9926 48.2754 23.8105 48.4536 23.5083C48.6279 23.2052 48.6279 22.8355 48.4536 22.5324C48.2754 22.2293 47.9501 22.0481 47.6025 22.052C44.3943 22.052 42.6698 18.7232 42.6698 18.7232C42.511 18.3823 42.166 18.1633 41.7922 18.1633C41.4184 18.1633 41.0735 18.3833 40.9146 18.7232C40.9146 18.7232 39.2357 22.052 35.982 22.052C32.7282 22.052 31.0493 18.7232 31.0493 18.7232C30.8905 18.3823 30.5455 18.1633 30.1717 18.1633C29.7979 18.1633 29.4529 18.3833 29.2941 18.7232C29.2941 18.7232 27.6152 22.052 24.3615 22.052C21.1077 22.052 19.4288 18.7232 19.4288 18.7232C19.27 18.3823 18.925 18.1633 18.5512 18.1633ZM13.6961 25.9104C12.2274 25.9104 11.0022 26.5303 10.0684 27.3686C9.13472 28.2069 8.44046 29.2516 7.82717 30.2435C7.21389 31.2353 6.6755 32.1839 6.17413 32.8119C5.67275 33.4399 5.3173 33.6574 4.98068 33.6574H1.10717C0.978848 33.6556 0.851445 33.6793 0.732365 33.7271C0.613286 33.775 0.504904 33.846 0.413519 33.9361C0.322133 34.0262 0.249567 34.1336 0.200037 34.252C0.150506 34.3704 0.125 34.4974 0.125 34.6258C0.125 34.7541 0.150506 34.8811 0.200037 34.9995C0.249567 35.1179 0.322133 35.2253 0.413519 35.3154C0.504904 35.4055 0.613286 35.4765 0.732365 35.5244C0.851445 35.5722 0.978848 35.5959 1.10717 35.5941H4.98068C6.14843 35.5941 7.02893 34.8432 7.68721 34.0186C8.3455 33.1941 8.89032 32.2059 9.47455 31.261C10.0588 30.3161 10.6779 29.4241 11.3621 28.8098C12.0464 28.1955 12.7438 27.8471 13.6961 27.8471C14.0253 27.8471 14.6448 27.9576 15.0484 28.18C15.4519 28.4024 15.6328 28.5773 15.6328 29.0576C15.6328 29.4691 15.5396 29.6515 15.3926 29.7593C15.2456 29.8671 14.8397 30.0141 13.906 29.8066C13.7386 29.7693 13.5644 29.7771 13.401 29.8292C13.2377 29.8814 13.0911 29.9759 12.9763 30.1033C12.8614 30.2306 12.7825 30.3862 12.7474 30.554C12.7124 30.7219 12.7226 30.896 12.7769 31.0586C13.3121 32.6643 14.1848 33.8633 15.3624 34.5993C16.5399 35.3352 17.9462 35.5941 19.5063 35.5941C21.3893 35.5941 22.7308 34.362 23.5501 33.2696C23.7608 32.9887 23.7082 32.9715 23.864 32.7098C24.0198 32.9715 23.9673 32.9887 24.178 33.2696C24.9972 34.362 26.3388 35.5941 28.2217 35.5941C29.3784 35.5941 30.2364 34.8381 30.8866 34.0167C31.5369 33.1954 32.0841 32.2086 32.674 31.2648C33.2638 30.321 33.8914 29.4295 34.5843 28.8136C35.2771 28.1977 35.9849 27.8471 36.9371 27.8471C37.2663 27.8471 37.8859 27.9576 38.2894 28.18C38.693 28.4024 38.8739 28.5773 38.8739 29.0576C38.8739 29.4691 38.7806 29.6515 38.6337 29.7593C38.4867 29.8671 38.0808 30.0141 37.1471 29.8066C36.9797 29.7693 36.8054 29.7771 36.6421 29.8292C36.4787 29.8814 36.3321 29.9759 36.2173 30.1033C36.1025 30.2306 36.0235 30.3862 35.9885 30.554C35.9534 30.7219 35.9636 30.896 36.0179 31.0586C36.552 32.661 37.4136 33.8618 38.5883 34.5993C39.763 35.3368 41.1711 35.5941 42.7474 35.5941H47.5893C47.7176 35.5959 47.845 35.5722 47.9641 35.5244C48.0831 35.4765 48.1915 35.4055 48.2829 35.3154C48.3743 35.2253 48.4469 35.1179 48.4964 34.9995C48.5459 34.8811 48.5714 34.7541 48.5714 34.6258C48.5714 34.4974 48.5459 34.3704 48.4964 34.252C48.4469 34.1336 48.3743 34.0262 48.2829 33.9361C48.1915 33.846 48.0831 33.775 47.9641 33.7271C47.845 33.6793 47.7176 33.6556 47.5893 33.6574H42.7474C41.3837 33.6574 40.3705 33.4305 39.6172 32.9576C39.1878 32.688 38.831 32.2912 38.5107 31.7944C38.9878 31.7277 39.4208 31.5848 39.7798 31.3215C40.5407 30.7636 40.8106 29.8565 40.8106 29.0576C40.8106 27.8432 40.0283 26.9287 39.2238 26.4853C38.4193 26.042 37.5859 25.9104 36.9371 25.9104C35.4684 25.9104 34.2394 26.5281 33.2981 27.3648C32.3568 28.2015 31.6529 29.2467 31.0323 30.2397C30.4117 31.2327 29.8695 32.1826 29.3698 32.8138C28.8701 33.445 28.5176 33.6574 28.2217 33.6574C27.1995 33.6574 26.3622 32.9528 25.7289 32.1084C25.0956 31.2639 24.77 30.4118 24.77 30.4118C24.7004 30.2278 24.5765 30.0693 24.4147 29.9574C24.2528 29.8456 24.0608 29.7856 23.864 29.7856C23.6673 29.7856 23.4752 29.8456 23.3134 29.9574C23.1515 30.0693 23.0276 30.2278 22.9581 30.4118C22.9581 30.4118 22.6325 31.2639 21.9991 32.1084C21.3658 32.9528 20.5285 33.6574 19.5063 33.6574C18.1614 33.6574 17.1467 33.4321 16.3875 32.9576C15.9548 32.6871 15.596 32.289 15.2735 31.7925C15.7487 31.7254 16.1809 31.584 16.5388 31.3215C17.2997 30.7636 17.5696 29.8565 17.5696 29.0576C17.5696 27.8432 16.7872 26.9287 15.9827 26.4853C15.1782 26.042 14.3449 25.9104 13.6961 25.9104ZM18.5512 39.4657C18.1774 39.4657 17.8324 39.6857 17.6736 40.0256C17.6736 40.0256 15.9908 43.3563 12.7409 43.3563C9.49106 43.3563 7.80826 40.0256 7.80826 40.0256C7.63008 39.6586 7.24467 39.4402 6.83988 39.4809C6.80986 39.4818 6.77912 39.4809 6.7491 39.4809C6.44309 39.5419 6.18575 39.7419 6.05308 40.0256C6.05308 40.0256 4.32089 43.3563 1.12041 43.3563C0.772761 43.3524 0.447477 43.5345 0.269296 43.8367C0.0949882 44.1398 0.0949882 44.5095 0.269296 44.8126C0.447477 45.1157 0.772761 45.2969 1.12041 45.293C4.42257 45.293 6.07172 43.3187 6.93067 42.055C7.78575 43.3226 9.4194 45.293 12.7409 45.293C16.0625 45.293 17.6961 43.3226 18.5512 42.055C19.4024 43.3226 21.0399 45.293 24.3615 45.293C27.683 45.293 29.3205 43.3226 30.1717 42.055C31.0229 43.3226 32.6566 45.293 35.982 45.293C39.3074 45.293 40.941 43.3226 41.7922 42.055C42.6473 43.3187 44.2965 45.293 47.6025 45.293C47.9501 45.2969 48.2754 45.1148 48.4536 44.8126C48.6279 44.5095 48.6279 44.1398 48.4536 43.8367C48.2754 43.5336 47.9501 43.3524 47.6025 43.3563C44.3943 43.3563 42.6698 40.0256 42.6698 40.0256C42.511 39.6847 42.166 39.4657 41.7922 39.4657C41.4184 39.4657 41.0735 39.6857 40.9146 40.0256C40.9146 40.0256 39.2357 43.3563 35.982 43.3563C32.7282 43.3563 31.0493 40.0256 31.0493 40.0256C30.8905 39.6847 30.5455 39.4657 30.1717 39.4657C29.7979 39.4657 29.4529 39.6857 29.2941 40.0256C29.2941 40.0256 27.6152 43.3563 24.3615 43.3563C21.1077 43.3563 19.4288 40.0256 19.4288 40.0256C19.27 39.6847 18.925 39.4657 18.5512 39.4657Z" fill="#343434"/>
</g>
<defs>
<clipPath id="clip0_2183_15699">
<rect width="48.4188" height="48.4188" fill="white" transform="translate(0.136719 0.733398)"/>
</clipPath>
</defs>
</svg>
