<svg width="21" height="18" viewBox="0 0 21 18" fill="none" xmlns="http://www.w3.org/2000/svg">
<path d="M10.2014 18C9.97603 18 9.78735 17.924 9.63532 17.7719C9.48329 17.6199 9.40728 17.4312 9.40728 17.2059C9.40728 16.9805 9.48329 16.7919 9.63532 16.6398C9.78735 16.4878 9.97603 16.4118 10.2014 16.4118H17.1448C17.233 16.4118 17.3094 16.3846 17.3739 16.3303C17.4384 16.276 17.4706 16.2048 17.4706 16.1165V8.71083C17.4706 6.68685 16.7464 4.98289 15.298 3.59895C13.8496 2.21503 12.1032 1.52307 10.0588 1.52307C8.01448 1.52307 6.26809 2.21503 4.81967 3.59895C3.37125 4.98289 2.64704 6.68685 2.64704 8.71083V14.1516C2.64704 14.3769 2.57102 14.5656 2.41899 14.7176C2.26697 14.8697 2.07828 14.9457 1.85295 14.9457C1.34526 14.9457 0.909514 14.7689 0.545719 14.4153C0.181906 14.0617 0 13.631 0 13.1233V11.0668C0 10.7233 0.0977386 10.4087 0.293216 10.123C0.488693 9.83722 0.743896 9.60748 1.05883 9.43372L1.10772 8.08168C1.19458 6.9292 1.49389 5.86156 2.00566 4.87876C2.51742 3.89594 3.17375 3.04039 3.97465 2.31211C4.77556 1.58383 5.7 1.01641 6.74795 0.609858C7.79593 0.203286 8.89955 0 10.0588 0C11.2181 0 12.319 0.203286 13.3615 0.609858C14.4041 1.01641 15.3285 1.58112 16.1348 2.30398C16.9412 3.02682 17.5975 3.87965 18.1038 4.86245C18.6102 5.84525 18.9122 6.9129 19.0099 8.0654L19.0588 9.39097C19.367 9.53621 19.6205 9.7439 19.8193 10.014C20.0182 10.2842 20.1177 10.5855 20.1177 10.9181V13.2821C20.1177 13.6147 20.0182 13.9161 19.8193 14.1862C19.6205 14.4563 19.367 14.664 19.0588 14.8093V16.1165C19.0588 16.6378 18.8718 17.082 18.4978 17.4492C18.1239 17.8164 17.6728 18 17.1448 18H10.2014ZM7.08598 10.8733C6.82671 10.8733 6.60579 10.7854 6.42321 10.6096C6.24063 10.4338 6.14935 10.2163 6.14935 9.95702C6.14935 9.69773 6.24063 9.4785 6.42321 9.29933C6.60579 9.12014 6.82671 9.03055 7.08598 9.03055C7.34526 9.03055 7.56618 9.12014 7.74876 9.29933C7.93133 9.4785 8.02262 9.69773 8.02262 9.95702C8.02262 10.2163 7.93133 10.4338 7.74876 10.6096C7.56618 10.7854 7.34526 10.8733 7.08598 10.8733ZM13.0317 10.8733C12.7724 10.8733 12.5515 10.7854 12.3689 10.6096C12.1863 10.4338 12.095 10.2163 12.095 9.95702C12.095 9.69773 12.1863 9.4785 12.3689 9.29933C12.5515 9.12014 12.7724 9.03055 13.0317 9.03055C13.2909 9.03055 13.5119 9.12014 13.6944 9.29933C13.877 9.4785 13.9683 9.69773 13.9683 9.95702C13.9683 10.2163 13.877 10.4338 13.6944 10.6096C13.5119 10.7854 13.2909 10.8733 13.0317 10.8733ZM4.09888 9.21174C3.98892 7.4837 4.52647 6.00508 5.71155 4.77589C6.89662 3.54672 8.36336 2.93213 10.1118 2.93213C11.5805 2.93213 12.8766 3.38654 13.9999 4.29537C15.1232 5.20418 15.805 6.38075 16.0452 7.8251C14.5412 7.80745 13.1515 7.41243 11.8761 6.64003C10.6008 5.86764 9.62173 4.80882 8.93893 3.46358C8.67015 4.78032 8.1068 5.94434 7.24888 6.95564C6.39095 7.96695 5.34095 8.71898 4.09888 9.21174Z" fill="white"/>
</svg>
