<svg xmlns="http://www.w3.org/2000/svg" width="40" height="40" viewBox="0 0 40 40" fill="none">
  <path d="M10.1533 0L9.25176 1.86563L7.2002 2.11094L8.75957 3.48906L8.34863 5.6L10.1533 4.54531L11.9596 5.6L11.5486 3.48906L13.108 2.11094L11.0564 1.86563L10.1533 0ZM11.9596 5.6H8.34863H7.44082C5.0986 5.6 3.2002 7.4984 3.2002 9.84062V36C3.20022 36.2122 3.28451 36.4156 3.43453 36.5657C3.58456 36.7157 3.78803 36.8 4.0002 36.8H36.0002C36.2124 36.8 36.4158 36.7157 36.5659 36.5657C36.7159 36.4156 36.8002 36.2122 36.8002 36V9.84062C36.8002 7.4984 34.9018 5.6 32.5596 5.6H31.6518H28.0408H25.0877H21.4768H18.5236H14.9127H11.9596ZM14.9127 5.6L16.7174 4.54531L18.5236 5.6L18.1127 3.48906L19.6721 2.11094L17.6205 1.86563L16.7174 0L15.8158 1.86563L13.7643 2.11094L15.3236 3.48906L14.9127 5.6ZM21.4768 5.6L23.283 4.54531L25.0877 5.6L24.6768 3.48906L26.2361 2.11094L24.1846 1.86563L23.283 0L22.3799 1.86563L20.3283 2.11094L21.8877 3.48906L21.4768 5.6ZM28.0408 5.6L29.8471 4.54531L31.6518 5.6L31.2408 3.48906L32.8002 2.11094L30.7486 1.86563L29.8471 0L28.9439 1.86563L26.8924 2.11094L28.4518 3.48906L28.0408 5.6ZM7.44082 7.2H32.5596C34.0573 7.2 35.2002 8.34285 35.2002 9.84062V35.2H23.2002V28.8C23.2002 28.5878 23.1159 28.3844 22.9659 28.2343C22.8158 28.0843 22.6124 28 22.4002 28H17.6002C17.388 28 17.1846 28.0843 17.0345 28.2343C16.8845 28.3844 16.8002 28.5878 16.8002 28.8V35.2H4.8002V9.84062C4.8002 8.34285 5.94304 7.2 7.44082 7.2ZM8.0002 8.8C7.78803 8.80002 7.58456 8.88431 7.43453 9.03434C7.28451 9.18436 7.20022 9.38783 7.2002 9.6V12.8C7.20022 13.0122 7.28451 13.2156 7.43453 13.3657C7.58456 13.5157 7.78803 13.6 8.0002 13.6H12.8002C13.0124 13.6 13.2158 13.5157 13.3659 13.3657C13.5159 13.2156 13.6002 13.0122 13.6002 12.8V9.6C13.6002 9.38783 13.5159 9.18436 13.3659 9.03434C13.2158 8.88431 13.0124 8.80002 12.8002 8.8H8.0002ZM17.6002 8.8C17.388 8.80002 17.1846 8.88431 17.0345 9.03434C16.8845 9.18436 16.8002 9.38783 16.8002 9.6V12.8C16.8002 13.0122 16.8845 13.2156 17.0345 13.3657C17.1846 13.5157 17.388 13.6 17.6002 13.6H22.4002C22.6124 13.6 22.8158 13.5157 22.9659 13.3657C23.1159 13.2156 23.2002 13.0122 23.2002 12.8V9.6C23.2002 9.38783 23.1159 9.18436 22.9659 9.03434C22.8158 8.88431 22.6124 8.80002 22.4002 8.8H17.6002ZM27.2002 8.8C26.988 8.80002 26.7846 8.88431 26.6345 9.03434C26.4845 9.18436 26.4002 9.38783 26.4002 9.6V12.8C26.4002 13.0122 26.4845 13.2156 26.6345 13.3657C26.7846 13.5157 26.988 13.6 27.2002 13.6H32.0002C32.2124 13.6 32.4158 13.5157 32.5659 13.3657C32.7159 13.2156 32.8002 13.0122 32.8002 12.8V9.6C32.8002 9.38783 32.7159 9.18436 32.5659 9.03434C32.4158 8.88431 32.2124 8.80002 32.0002 8.8H27.2002ZM8.80019 10.4H12.0002V12H8.80019V10.4ZM18.4002 10.4H21.6002V12H18.4002V10.4ZM28.0002 10.4H31.2002V12H28.0002V10.4ZM8.0002 15.2C7.78803 15.2 7.58456 15.2843 7.43453 15.4343C7.28451 15.5844 7.20022 15.7878 7.2002 16V19.2C7.20022 19.4122 7.28451 19.6156 7.43453 19.7657C7.58456 19.9157 7.78803 20 8.0002 20H12.8002C13.0124 20 13.2158 19.9157 13.3659 19.7657C13.5159 19.6156 13.6002 19.4122 13.6002 19.2V16C13.6002 15.7878 13.5159 15.5844 13.3659 15.4343C13.2158 15.2843 13.0124 15.2 12.8002 15.2H8.0002ZM17.6002 15.2C17.388 15.2 17.1846 15.2843 17.0345 15.4343C16.8845 15.5844 16.8002 15.7878 16.8002 16V19.2C16.8002 19.4122 16.8845 19.6156 17.0345 19.7657C17.1846 19.9157 17.388 20 17.6002 20H22.4002C22.6124 20 22.8158 19.9157 22.9659 19.7657C23.1159 19.6156 23.2002 19.4122 23.2002 19.2V16C23.2002 15.7878 23.1159 15.5844 22.9659 15.4343C22.8158 15.2843 22.6124 15.2 22.4002 15.2H17.6002ZM27.2002 15.2C26.988 15.2 26.7846 15.2843 26.6345 15.4343C26.4845 15.5844 26.4002 15.7878 26.4002 16V19.2C26.4002 19.4122 26.4845 19.6156 26.6345 19.7657C26.7846 19.9157 26.988 20 27.2002 20H32.0002C32.2124 20 32.4158 19.9157 32.5659 19.7657C32.7159 19.6156 32.8002 19.4122 32.8002 19.2V16C32.8002 15.7878 32.7159 15.5844 32.5659 15.4343C32.4158 15.2843 32.2124 15.2 32.0002 15.2H27.2002ZM8.80019 16.8H12.0002V18.4H8.80019V16.8ZM18.4002 16.8H21.6002V18.4H18.4002V16.8ZM28.0002 16.8H31.2002V18.4H28.0002V16.8ZM8.0002 21.6C7.78803 21.6 7.58456 21.6843 7.43453 21.8343C7.28451 21.9844 7.20022 22.1878 7.2002 22.4V25.6C7.20022 25.8122 7.28451 26.0156 7.43453 26.1657C7.58456 26.3157 7.78803 26.4 8.0002 26.4H12.8002C13.0124 26.4 13.2158 26.3157 13.3659 26.1657C13.5159 26.0156 13.6002 25.8122 13.6002 25.6V22.4C13.6002 22.1878 13.5159 21.9844 13.3659 21.8343C13.2158 21.6843 13.0124 21.6 12.8002 21.6H8.0002ZM17.6002 21.6C17.388 21.6 17.1846 21.6843 17.0345 21.8343C16.8845 21.9844 16.8002 22.1878 16.8002 22.4V25.6C16.8002 25.8122 16.8845 26.0156 17.0345 26.1657C17.1846 26.3157 17.388 26.4 17.6002 26.4H22.4002C22.6124 26.4 22.8158 26.3157 22.9659 26.1657C23.1159 26.0156 23.2002 25.8122 23.2002 25.6V22.4C23.2002 22.1878 23.1159 21.9844 22.9659 21.8343C22.8158 21.6843 22.6124 21.6 22.4002 21.6H17.6002ZM27.2002 21.6C26.988 21.6 26.7846 21.6843 26.6345 21.8343C26.4845 21.9844 26.4002 22.1878 26.4002 22.4V25.6C26.4002 25.8122 26.4845 26.0156 26.6345 26.1657C26.7846 26.3157 26.988 26.4 27.2002 26.4H32.0002C32.2124 26.4 32.4158 26.3157 32.5659 26.1657C32.7159 26.0156 32.8002 25.8122 32.8002 25.6V22.4C32.8002 22.1878 32.7159 21.9844 32.5659 21.8343C32.4158 21.6843 32.2124 21.6 32.0002 21.6H27.2002ZM8.80019 23.2H12.0002V24.8H8.80019V23.2ZM18.4002 23.2H21.6002V24.8H18.4002V23.2ZM28.0002 23.2H31.2002V24.8H28.0002V23.2ZM8.0002 28C7.78803 28 7.58456 28.0843 7.43453 28.2343C7.28451 28.3844 7.20022 28.5878 7.2002 28.8V32C7.20022 32.2122 7.28451 32.4156 7.43453 32.5657C7.58456 32.7157 7.78803 32.8 8.0002 32.8H12.8002C13.0124 32.8 13.2158 32.7157 13.3659 32.5657C13.5159 32.4156 13.6002 32.2122 13.6002 32V28.8C13.6002 28.5878 13.5159 28.3844 13.3659 28.2343C13.2158 28.0843 13.0124 28 12.8002 28H8.0002ZM27.2002 28C26.988 28 26.7846 28.0843 26.6345 28.2343C26.4845 28.3844 26.4002 28.5878 26.4002 28.8V32C26.4002 32.2122 26.4845 32.4156 26.6345 32.5657C26.7846 32.7157 26.988 32.8 27.2002 32.8H32.0002C32.2124 32.8 32.4158 32.7157 32.5659 32.5657C32.7159 32.4156 32.8002 32.2122 32.8002 32V28.8C32.8002 28.5878 32.7159 28.3844 32.5659 28.2343C32.4158 28.0843 32.2124 28 32.0002 28H27.2002ZM8.80019 29.6H12.0002V31.2H8.80019V29.6ZM18.4002 29.6H21.6002V35.2H18.4002V29.6ZM28.0002 29.6H31.2002V31.2H28.0002V29.6Z" fill="#FF3A3A"/>
</svg>