<svg width="22" height="20" viewBox="0 0 22 20" fill="none" xmlns="http://www.w3.org/2000/svg">
<path d="M6.1875 0.6875C4.25769 0.6875 2.6875 2.25769 2.6875 4.1875V7.0697C1.40554 7.58927 0.5 8.84424 0.5 10.3125V15.5625C0.5 16.2874 1.08756 16.875 1.8125 16.875V18.1875C1.8125 18.6705 2.2045 19.0625 2.6875 19.0625C3.1705 19.0625 3.5625 18.6705 3.5625 18.1875V16.875H18.4375V18.1875C18.4375 18.6705 18.8295 19.0625 19.3125 19.0625C19.7955 19.0625 20.1875 18.6705 20.1875 18.1875V16.875C20.9124 16.875 21.5 16.2874 21.5 15.5625V10.3125C21.5 8.84424 20.5945 7.58927 19.3125 7.0697V4.1875C19.3125 2.25769 17.7423 0.6875 15.8125 0.6875H6.1875ZM6.1875 2.4375H15.8125C16.7776 2.4375 17.5625 3.22237 17.5625 4.1875V6.8125H15.8125C15.8125 6.32906 15.4209 5.9375 14.9375 5.9375H12.75C12.2666 5.9375 11.875 6.32906 11.875 6.8125H10.125C10.125 6.32906 9.73344 5.9375 9.25 5.9375H7.0625C6.57906 5.9375 6.1875 6.32906 6.1875 6.8125H4.4375V4.1875C4.4375 3.22237 5.22237 2.4375 6.1875 2.4375ZM4 8.5625H18C18.9664 8.5625 19.75 9.34606 19.75 10.3125V14.6875C19.75 14.929 19.554 15.125 19.3125 15.125H2.6875C2.446 15.125 2.25 14.929 2.25 14.6875V10.3125C2.25 9.34606 3.03356 8.5625 4 8.5625Z" fill="#888888"/>
</svg>
