<svg width="22" height="21" viewBox="0 0 22 21" fill="none" xmlns="http://www.w3.org/2000/svg">
<path d="M19.3656 0.950269C18.9124 0.937494 18.4577 1.04136 18.0506 1.25874L14.7206 2.99251L9.81496 1.79109C9.15827 1.62965 8.47296 1.72644 7.89064 2.06025L6.20473 3.01216C5.94879 3.15697 5.78267 3.41972 5.7621 3.71284C5.74154 4.00597 5.869 4.29013 6.10219 4.46907L8.44179 6.26179L6.51833 7.26326L4.66921 6.4344C3.56496 5.94002 2.26918 5.98524 1.20168 6.55574L0.516375 6.92231C0.2775 7.05007 0.111975 7.28049 0.0669124 7.5478C0.0218498 7.81468 0.102767 8.08788 0.286517 8.28694L3.63784 11.9177C4.72152 13.0911 6.46016 13.3829 7.86672 12.6261L10.1807 11.3802L9.26381 16.4063C9.20562 16.7261 9.32916 17.0519 9.5851 17.2523C9.74173 17.3748 9.93222 17.4386 10.1243 17.4386C10.2459 17.4386 10.3681 17.4133 10.4832 17.3616L12.4451 16.479C13.0808 16.2064 13.575 15.7044 13.8379 15.0665L16.8303 7.81013L20.4679 5.9311C21.6859 5.27704 22.2356 3.79899 21.7189 2.56611C21.4315 1.88143 20.8666 1.34655 20.1697 1.0998C19.9088 1.00744 19.6375 0.957934 19.3656 0.950269ZM19.2238 2.69941C19.3444 2.69023 19.4667 2.70676 19.5852 2.74897C19.8219 2.83254 20.0063 3.00795 20.1048 3.24202C20.2771 3.65239 20.0723 4.15572 19.6519 4.38191L15.7417 6.40278C15.5575 6.49816 15.4129 6.65464 15.3341 6.84626L12.2195 14.4C12.132 14.6126 11.9667 14.7797 11.741 14.8768L11.2838 15.0827L12.2289 9.90364C12.2893 9.57245 12.1541 9.23664 11.882 9.03889C11.7293 8.9282 11.5487 8.87227 11.3676 8.87227C11.2254 8.87227 11.0822 8.90649 10.9523 8.97737L7.03701 11.0854C6.33482 11.463 5.46418 11.3179 4.92299 10.7308L2.36122 7.95454C2.39229 7.94448 2.42372 7.93509 2.45522 7.92634C2.94653 7.78634 3.48237 7.82013 3.954 8.03145L6.18935 9.03291C6.43304 9.14229 6.71358 9.13407 6.9507 9.01069L18.864 2.80879C18.8667 2.80704 18.8695 2.80541 18.8726 2.80366C18.9839 2.74394 19.1032 2.7086 19.2238 2.69941ZM9.23305 3.46589C9.28836 3.46867 9.34392 3.47722 9.39882 3.49067L12.3673 4.21785L10.155 5.3697L8.21791 3.88545L8.75539 3.58125C8.90206 3.49692 9.06712 3.45757 9.23305 3.46589ZM1.37429 18.3136C0.891285 18.3136 0.499285 18.7056 0.499285 19.1886C0.499285 19.6716 0.891285 20.0636 1.37429 20.0636H20.6243C21.1073 20.0636 21.4993 19.6716 21.4993 19.1886C21.4993 18.7056 21.1073 18.3136 20.6243 18.3136H1.37429Z" fill="#888888"/>
</svg>
