<svg width="24" height="24" viewBox="0 0 24 24" fill="none" xmlns="http://www.w3.org/2000/svg">
<path d="M12.0013 0.0117188C11.42 0.0117188 10.8386 0.261516 10.4358 0.759766L9.56085 1.84277C9.18785 2.30427 8.57818 2.50166 8.00518 2.34766L6.66046 1.98633C5.42296 1.65333 4.19423 2.54667 4.12823 3.82617L4.05596 5.2168C4.02546 5.8093 3.64903 6.32804 3.09503 6.54004L1.79425 7.03809C0.597246 7.49659 0.127472 8.94162 0.826472 10.0156L1.58624 11.1826C1.90974 11.6801 1.90974 12.3218 1.58624 12.8193L0.826472 13.9863C0.127972 15.0608 0.597746 16.5059 1.79425 16.9639L3.09503 17.4619C3.64903 17.6739 4.02546 18.1927 4.05596 18.7852L4.12823 20.1758C4.19423 21.4553 5.42296 22.3481 6.66046 22.0156L8.00518 21.6543C8.57818 21.5003 9.18785 21.6977 9.56085 22.1592L10.4358 23.2422C11.2413 24.2387 12.7612 24.2387 13.5667 23.2422L14.4427 22.1592C14.8157 21.6977 15.4253 21.5003 15.9983 21.6543L17.3431 22.0156C18.5806 22.3486 19.8093 21.4553 19.8753 20.1758L19.9466 18.7852C19.9771 18.1927 20.3545 17.6739 20.9085 17.4619L22.2083 16.9639C23.4053 16.5054 23.8751 15.0603 23.1761 13.9863L22.4163 12.8193C22.0928 12.3218 22.0928 11.6801 22.4163 11.1826L23.1761 10.0156C23.8746 8.94112 23.4048 7.49609 22.2083 7.03809L20.9085 6.54004C20.3545 6.32804 19.9771 5.8093 19.9466 5.2168L19.8753 3.82617C19.8093 2.54667 18.5806 1.65383 17.3431 1.98633L15.9983 2.34766C15.4253 2.50166 14.8157 2.30427 14.4427 1.84277L13.5667 0.759766C13.164 0.261516 12.5825 0.0117188 12.0013 0.0117188ZM12.0013 2.00391C12.1696 2.00391 12.3377 2.07645 12.4544 2.2207L13.1712 3.10742C13.9172 4.03042 15.1375 4.42616 16.2835 4.11816L17.3841 3.82227C17.7426 3.72627 18.0985 3.98399 18.1175 4.35449L18.1761 5.49316C18.2376 6.67816 18.9904 7.71515 20.0989 8.13965L21.1634 8.54785C21.5099 8.68035 21.6462 9.09818 21.4437 9.40918L20.8226 10.3652C20.1756 11.3597 20.1756 12.6422 20.8226 13.6367L21.4437 14.5928C21.6462 14.9038 21.5099 15.3216 21.1634 15.4541L20.0989 15.8623C18.9904 16.2863 18.2371 17.3238 18.1761 18.5088L18.1175 19.6475C18.0985 20.018 17.7426 20.2762 17.3841 20.1797L16.2835 19.8838C15.1375 19.5753 13.9172 19.9715 13.1712 20.8945L12.4544 21.7812C12.2214 22.0697 11.7817 22.0697 11.5482 21.7812L10.8314 20.8945C10.0854 19.972 8.86603 19.5758 7.72003 19.8838L6.61944 20.1797C6.26094 20.2757 5.90504 20.018 5.88604 19.6475L5.82745 18.5088C5.76595 17.3238 5.01212 16.2868 3.90362 15.8623L2.83917 15.4541C2.49267 15.3216 2.35639 14.9038 2.55889 14.5928L3.18096 13.6367C3.82796 12.6422 3.82796 11.3597 3.18096 10.3652L2.55889 9.40918C2.35639 9.09818 2.49267 8.68035 2.83917 8.54785L3.90362 8.13965C5.01212 7.71565 5.76645 6.67816 5.82745 5.49316L5.88604 4.35449C5.90504 3.98399 6.26094 3.72577 6.61944 3.82227L7.72003 4.11816C8.86603 4.42666 10.0854 4.03042 10.8314 3.10742L11.5482 2.2207C11.6647 2.07645 11.833 2.00391 12.0013 2.00391ZM14.3177 7.00391C14.0268 6.97862 13.7343 7.12552 13.5892 7.40039L9.08917 15.9004C8.89517 16.2664 9.03519 16.7191 9.40069 16.9131C9.51219 16.9726 9.6318 17.001 9.7503 17.001C10.0188 17.001 10.2794 16.8561 10.4134 16.6016L14.9134 8.10156C15.1074 7.73556 14.9674 7.28189 14.6019 7.08789C14.5109 7.03964 14.4146 7.01234 14.3177 7.00391ZM8.25128 7.50098C7.01078 7.50098 6.00128 8.62248 6.00128 10.001C6.00128 11.3795 7.01078 12.501 8.25128 12.501C9.49178 12.501 10.5013 11.3795 10.5013 10.001C10.5013 8.62248 9.49178 7.50098 8.25128 7.50098ZM8.25128 9.00098C8.65778 9.00098 9.00128 9.45898 9.00128 10.001C9.00128 10.543 8.65778 11.001 8.25128 11.001C7.84478 11.001 7.50128 10.543 7.50128 10.001C7.50128 9.45898 7.84478 9.00098 8.25128 9.00098ZM15.7513 11.501C14.5108 11.501 13.5013 12.6225 13.5013 14.001C13.5013 15.3795 14.5108 16.501 15.7513 16.501C16.9918 16.501 18.0013 15.3795 18.0013 14.001C18.0013 12.6225 16.9918 11.501 15.7513 11.501ZM15.7513 13.001C16.1578 13.001 16.5013 13.459 16.5013 14.001C16.5013 14.543 16.1578 15.001 15.7513 15.001C15.3448 15.001 15.0013 14.543 15.0013 14.001C15.0013 13.459 15.3448 13.001 15.7513 13.001Z" fill="#888888"/>
</svg>
