<svg width="23" height="23" viewBox="0 0 23 23" fill="none" xmlns="http://www.w3.org/2000/svg">
<path d="M11.5 0C8.68122 0 6.38889 2.29233 6.38889 5.11111C6.38889 7.92989 8.68122 10.2222 11.5 10.2222C14.3188 10.2222 16.6111 7.92989 16.6111 5.11111C16.6111 2.29233 14.3188 0 11.5 0ZM11.5 2.55556C12.9094 2.55556 14.0556 3.70172 14.0556 5.11111C14.0556 6.5205 12.9094 7.66667 11.5 7.66667C10.0906 7.66667 8.94444 6.5205 8.94444 5.11111C8.94444 3.70172 10.0906 2.55556 11.5 2.55556ZM8.2232 14.3925C4.4167 15.0965 0 16.9024 0 19.8056V23H23V19.8056C23 16.9024 18.5833 15.0952 14.7768 14.3925L11.5 17.6693L8.2232 14.3925ZM7.40213 17.1851L9.69314 19.4761L10.6615 20.4444H2.55556V19.8056C2.55556 19.2574 4.21535 17.9837 7.40213 17.1851ZM15.5979 17.1851C18.7847 17.9837 20.4444 19.2574 20.4444 19.8056V20.4444H12.3385L13.3069 19.4761L15.5979 17.1851Z" fill="#888888"/>
</svg>
