<svg width="48" height="47" viewBox="0 0 48 47" fill="none" xmlns="http://www.w3.org/2000/svg">
<g id="cart-plus-svgrepo-com (1) 1">
<path id="Vector" d="M27.3748 17.9407C27.3748 17.1494 26.7141 16.5078 25.8991 16.5078C25.0841 16.5078 24.4234 17.1494 24.4234 17.9407V20.3289H21.964C21.149 20.3289 20.4883 20.9705 20.4883 21.7618C20.4883 22.5532 21.149 23.1947 21.964 23.1947H24.4234V25.5829C24.4234 26.3743 25.0841 27.0158 25.8991 27.0158C26.7141 27.0158 27.3748 26.3743 27.3748 25.5829V23.1947H29.8343C30.6492 23.1947 31.3099 22.5532 31.3099 21.7618C31.3099 20.9705 30.6492 20.3289 29.8343 20.3289H27.3748V17.9407Z" fill="#FF3A3A"/>
<path id="Vector_2" fill-rule="evenodd" clip-rule="evenodd" d="M2.86519 5.99709C3.13551 5.25052 3.97793 4.85808 4.74678 5.12057L5.33981 5.32301C6.55288 5.73708 7.58316 6.08878 8.39397 6.47509C9.26095 6.88815 10.0044 7.397 10.5635 8.19152C11.1184 8.97988 11.3474 9.84482 11.4531 10.7932C11.4607 10.8611 11.4677 10.9301 11.4742 11.0003H34.0072C35.6179 11.0003 37.26 11.0003 38.6119 11.147C39.3 11.2217 39.982 11.3408 40.585 11.5465C41.1763 11.7482 41.8262 12.0786 42.2886 12.6621C43.0398 13.6105 43.171 14.7148 43.1 15.8347C43.0321 16.901 42.7596 18.2267 42.4355 19.8027L42.4151 19.9025L42.4131 19.9113L41.4118 24.629C41.1173 26.0168 40.8693 27.1846 40.5498 28.1058C40.2106 29.0829 39.7403 29.9419 38.9012 30.606C38.062 31.2699 37.1007 31.5438 36.0466 31.669C35.053 31.7871 33.8252 31.7871 32.3661 31.7871H21.7298C19.0819 31.7871 16.9375 31.7871 15.2489 31.5545C13.4855 31.3117 12.0043 30.7907 10.8358 29.5941C9.76106 28.4933 9.18628 27.3248 8.89838 25.6926C8.62871 24.1638 8.60189 22.1627 8.60189 19.3876V14.1878C8.60189 12.7741 8.59988 11.828 8.51891 11.1016C8.44153 10.4074 8.30439 10.0608 8.1268 9.80841C7.95353 9.56222 7.69053 9.33213 7.0939 9.04788C6.45869 8.74523 5.59539 8.44805 4.28184 7.9996L3.76789 7.82416C2.99902 7.56167 2.59486 6.74367 2.86519 5.99709ZM11.5532 13.8662V19.3876C11.5532 22.2324 11.5887 23.9687 11.8074 25.2089C12.0079 26.3455 12.3476 26.9773 12.9776 27.6223C13.5138 28.1715 14.2568 28.5235 15.6633 28.7172C17.1206 28.9178 19.0549 28.9212 21.8425 28.9212H32.2764C33.849 28.9212 34.8948 28.9188 35.6881 28.8244C36.4411 28.735 36.7904 28.5793 37.0367 28.3844C37.2832 28.1893 37.5107 27.8886 37.7529 27.1905C38.0081 26.4553 38.2218 25.4611 38.5393 23.9655L39.5208 19.3417L39.5216 19.3374C39.871 17.6372 40.1002 16.5056 40.1541 15.6582C40.2053 14.853 40.0752 14.5717 39.9544 14.4162C39.9422 14.4061 39.8564 14.3356 39.6066 14.2503C39.3008 14.1459 38.8656 14.0582 38.284 13.9951C37.1136 13.8681 35.6307 13.8662 33.9457 13.8662H11.5532Z" fill="#FF3A3A"/>
<path id="Vector_3" fill-rule="evenodd" clip-rule="evenodd" d="M10.6504 38.0018C10.6504 40.3759 12.6324 42.3006 15.0774 42.3006C17.5224 42.3006 19.5045 40.3759 19.5045 38.0018C19.5045 35.6276 17.5224 33.7031 15.0774 33.7031C12.6324 33.7031 10.6504 35.6276 10.6504 38.0018ZM15.0774 39.4348C14.2624 39.4348 13.6018 38.7932 13.6018 38.0018C13.6018 37.2105 14.2624 36.5689 15.0774 36.5689C15.8924 36.5689 16.5531 37.2105 16.5531 38.0018C16.5531 38.7932 15.8924 39.4348 15.0774 39.4348Z" fill="#FF3A3A"/>
<path id="Vector_4" fill-rule="evenodd" clip-rule="evenodd" d="M28.3574 38.0018C28.3574 40.3759 30.3396 42.3006 32.7845 42.3006C35.2294 42.3006 37.2115 40.3759 37.2115 38.0018C37.2115 35.6276 35.2294 33.7031 32.7845 33.7031C30.3396 33.7031 28.3574 35.6276 28.3574 38.0018ZM32.7845 39.4348C31.9695 39.4348 31.3088 38.7932 31.3088 38.0018C31.3088 37.2105 31.9695 36.5689 32.7845 36.5689C33.5994 36.5689 34.2601 37.2105 34.2601 38.0018C34.2601 38.7932 33.5994 39.4348 32.7845 39.4348Z" fill="#FF3A3A"/>
</g>
</svg>
