<svg width="22" height="22" viewBox="0 0 22 22" fill="none" xmlns="http://www.w3.org/2000/svg">
<g id="box-svgrepo-com (1) 1">
<path id="Vector" fill-rule="evenodd" clip-rule="evenodd" d="M11.0007 1.14844C10.4463 1.14844 9.93585 1.2862 9.37705 1.51732C8.83739 1.74049 8.21062 2.06942 7.43014 2.47901L5.53493 3.47357C4.57704 3.97624 3.81046 4.3785 3.21858 4.77377C2.6054 5.18327 2.13311 5.61445 1.78918 6.19852C1.4464 6.78063 1.2922 7.41096 1.21825 8.1616C1.14648 8.89022 1.14648 9.78628 1.14648 10.9133V11.0919C1.14648 12.2188 1.14648 13.115 1.21825 13.8436C1.2922 14.5943 1.4464 15.2246 1.78918 15.8067C2.13311 16.3908 2.6054 16.822 3.21858 17.2314C3.81046 17.6267 4.57703 18.0289 5.53491 18.5316L7.43006 19.5261C8.21057 19.9358 8.83737 20.2647 9.37705 20.4879C9.93585 20.719 10.4463 20.8568 11.0007 20.8568C11.555 20.8568 12.0655 20.719 12.6243 20.4879C13.1639 20.2647 13.7907 19.9358 14.5712 19.5262L16.4664 18.5316C17.4243 18.0289 18.1908 17.6267 18.7827 17.2314C19.3959 16.822 19.8682 16.3908 20.2121 15.8067C20.5549 15.2246 20.7091 14.5943 20.783 13.8436C20.8548 13.115 20.8548 12.2189 20.8548 11.092V10.9132C20.8548 9.78628 20.8548 8.89021 20.783 8.1616C20.7091 7.41096 20.5549 6.78063 20.2121 6.19852C19.8682 5.61445 19.3959 5.18327 18.7827 4.77377C18.1908 4.3785 17.4243 3.97624 16.4664 3.47356L14.5712 2.47902C13.7907 2.06943 13.1639 1.7405 12.6243 1.51732C12.0655 1.2862 11.555 1.14844 11.0007 1.14844ZM8.04055 3.71151C8.85613 3.28351 9.42765 2.98434 9.90248 2.78795C10.3647 2.59681 10.6894 2.52344 11.0007 2.52344C11.3119 2.52344 11.6366 2.59681 12.0988 2.78795C12.5737 2.98434 13.1452 3.28351 13.9608 3.71151L15.7941 4.6736C16.793 5.19779 17.4948 5.56706 18.0191 5.91723C18.2778 6.08999 18.481 6.2504 18.6452 6.4117L15.5921 7.93826L7.80052 3.83747L8.04055 3.71151ZM6.36659 4.58996L6.20722 4.6736C5.20834 5.19779 4.50655 5.56706 3.98221 5.91723C3.72352 6.08999 3.52025 6.2504 3.35615 6.4117L11.0007 10.234L14.0781 8.69525L6.55545 4.73599C6.48236 4.69752 6.41907 4.64775 6.36659 4.58996ZM2.69352 7.61769C2.64723 7.81375 2.61224 8.03639 2.58662 8.2964C2.52225 8.94982 2.52148 9.7783 2.52148 10.949V11.0562C2.52148 12.2269 2.52225 13.0554 2.58662 13.7088C2.64958 14.3479 2.76919 14.7611 2.97402 15.109C3.1777 15.4549 3.47232 15.7475 3.98221 16.088C4.50655 16.4382 5.20834 16.8074 6.20722 17.3316L8.04055 18.2937C8.85613 18.7217 9.42765 19.0209 9.90248 19.2172C10.0525 19.2793 10.1879 19.3289 10.3132 19.3676V11.4275L2.69352 7.61769ZM11.6882 19.3676C11.8134 19.3289 11.9489 19.2793 12.0988 19.2172C12.5737 19.0209 13.1452 18.7217 13.9608 18.2937L15.7941 17.3316C16.793 16.8074 17.4948 16.4382 18.0191 16.088C18.529 15.7475 18.8236 15.4549 19.0273 15.109C19.2321 14.7611 19.3518 14.3479 19.4146 13.7088C19.4791 13.0554 19.4798 12.2269 19.4798 11.0562V10.949C19.4798 9.7783 19.4791 8.94982 19.4146 8.2964C19.3891 8.03638 19.3541 7.81375 19.3078 7.61768L16.2715 9.13583V11.9193C16.2715 12.299 15.9637 12.6068 15.584 12.6068C15.2043 12.6068 14.8965 12.299 14.8965 11.9193V9.82331L11.6882 11.4275V19.3676Z" fill="black"/>
</g>
</svg>
