<svg width="36" height="36" viewBox="0 0 36 36" fill="none" xmlns="http://www.w3.org/2000/svg">
<g id="icons8-appliances 1">
<path id="Vector" d="M4.96973 2.87891C3.80621 2.87891 2.86035 3.84803 2.86035 5.03891V10.0803H23.0639V5.04031C23.0639 3.84943 22.1188 2.88031 20.9546 2.88031L4.96973 2.87891ZM6.48004 5.04031C6.8782 5.04031 7.20004 5.36287 7.20004 5.76031V7.92031C7.20004 8.31775 6.8782 8.64031 6.48004 8.64031C6.08188 8.64031 5.76004 8.31775 5.76004 7.92031V5.76031C5.76004 5.36287 6.08188 5.04031 6.48004 5.04031ZM2.86035 11.5203V28.8017C2.86035 29.9926 3.80689 30.9617 4.97113 30.9617H5.76004V32.4003C5.76004 32.7978 6.08188 33.1203 6.48004 33.1203H9.36004C9.7582 33.1203 10.08 32.7978 10.08 32.4003V30.9617L15.84 30.9603V16.5603C15.84 14.9698 17.1296 13.6803 18.72 13.6803H23.0639V11.5203H2.86035ZM6.48004 13.6803C6.8782 13.6803 7.20004 14.0029 7.20004 14.4003V17.2803C7.20004 17.6778 6.8782 18.0003 6.48004 18.0003C6.08188 18.0003 5.76004 17.6778 5.76004 17.2803V14.4003C5.76004 14.0029 6.08188 13.6803 6.48004 13.6803ZM19.44 15.1203C18.2492 15.1203 17.28 16.0894 17.28 17.2803V30.9603C17.28 32.1512 18.2492 33.1203 19.44 33.1203H30.96C32.1509 33.1203 33.12 32.1512 33.12 30.9603V17.2803C33.12 16.0894 32.1509 15.1203 30.96 15.1203H19.44ZM27.36 17.2803C27.7575 17.2803 28.08 17.6029 28.08 18.0003C28.08 18.3978 27.7575 18.7203 27.36 18.7203C26.9626 18.7203 26.64 18.3978 26.64 18.0003C26.64 17.6029 26.9626 17.2803 27.36 17.2803ZM30.24 17.2803C30.6375 17.2803 30.96 17.6029 30.96 18.0003C30.96 18.3978 30.6375 18.7203 30.24 18.7203C29.8426 18.7203 29.52 18.3978 29.52 18.0003C29.52 17.6029 29.8426 17.2803 30.24 17.2803ZM25.2 20.8803C27.5825 20.8803 29.52 22.8178 29.52 25.2003C29.52 27.5828 27.5825 29.5203 25.2 29.5203C22.8176 29.5203 20.88 27.5828 20.88 25.2003C20.88 22.8178 22.8176 20.8803 25.2 20.8803ZM25.2 22.3203C24.4362 22.3203 23.7037 22.6237 23.1636 23.1638C22.6235 23.7039 22.32 24.4365 22.32 25.2003C22.32 25.9641 22.6235 26.6967 23.1636 27.2368C23.7037 27.7769 24.4362 28.0803 25.2 28.0803C25.9639 28.0803 26.6964 27.7769 27.2365 27.2368C27.7766 26.6967 28.08 25.9641 28.08 25.2003C28.08 24.4365 27.7766 23.7039 27.2365 23.1638C26.6964 22.6237 25.9639 22.3203 25.2 22.3203Z" fill="#FF9B9B"/>
</g>
</svg>
