<svg width="57" height="57" viewBox="0 0 57 57" fill="none" xmlns="http://www.w3.org/2000/svg">
<g id="icons8-certificate-3 1" clip-path="url(#clip0_712_14479)">
<path id="Vector" d="M40.6368 13.0498H16.2783V17.4786H40.6368V13.0498Z" fill="#00EA77"/>
<path id="Vector_2" d="M31.7791 20.8003H16.2783V25.2291H31.7791V20.8003Z" fill="#00EA77"/>
<path id="Vector_3" d="M48.3866 52.9092H8.52734V4.19238H48.3866V52.9092ZM12.9561 48.4804H43.9578V8.62119H12.9561V48.4804Z" fill="#00EA77"/>
<path id="Vector_4" d="M20.7071 13.0498H16.2783V17.4786H20.7071V13.0498Z" fill="#446C62"/>
<path id="Vector_5" d="M20.7071 20.8003H16.2783V25.2291H20.7071V20.8003Z" fill="#446C62"/>
<path id="Vector_6" d="M28.4572 56.2308L24.0284 54.0164L19.5996 56.2308V40.73H28.4572V56.2308Z" fill="#FFD217"/>
<path id="Vector_7" d="M24.0285 46.3141L26.9106 43.6468L30.7935 43.0567L30.5057 39.1394L32.4643 35.7359L29.2224 33.5192L27.7831 29.8655L24.0285 31.0181L20.274 29.8655L18.8347 33.5192L15.5928 35.7359L17.5514 39.1394L17.2635 43.0567L21.1465 43.6468L24.0285 46.3141Z" fill="#FFB864"/>
</g>
<defs>
<clipPath id="clip0_712_14479">
<rect width="55.3601" height="55.3601" fill="white" transform="translate(0.777344 0.872803)"/>
</clipPath>
</defs>
</svg>
