<svg width="38" height="38" viewBox="0 0 38 38" fill="none" xmlns="http://www.w3.org/2000/svg">
<g id="icons8-fire-extinguisher-2 1">
<path id="Vector" d="M10.6404 0C8.96899 0 7.60039 1.36859 7.60039 3.04C7.60039 3.96328 8.03383 4.78562 8.69289 5.34375C8.07243 5.605 7.5143 5.91672 7.03039 6.29375C5.64102 7.38328 4.87211 8.88844 4.58414 10.4975C4.48024 10.7795 4.55149 11.0972 4.76821 11.308C4.98493 11.5188 5.30555 11.5781 5.58461 11.4653C5.86368 11.3525 6.04774 11.0823 6.05664 10.7825C6.29118 9.47625 6.90571 8.32438 7.98039 7.48125C8.93633 6.73312 10.2901 6.21062 12.1841 6.10375V8.47875C12.5107 8.4075 12.8432 8.36 13.1816 8.36H18.7391C19.0924 8.36 19.4457 8.42531 19.7841 8.5025V2.945C19.7841 1.7575 18.7629 0.78375 17.5041 0.78375H14.4641C13.9357 0.78375 13.4488 0.95 13.0629 1.235C12.5077 0.495781 11.629 0 10.6404 0ZM32.5141 0.78375L23.2041 2.82625C22.7707 2.95687 22.4293 3.31906 22.2304 3.8H21.3041V7.6H22.2304C22.4323 8.08094 22.7826 8.45797 23.2516 8.5975L32.5141 10.6163C32.5676 10.6281 32.627 10.64 32.6804 10.64C32.8526 10.64 33.0188 10.5836 33.1554 10.4738C33.3335 10.3283 33.4404 10.1116 33.4404 9.88V1.52C33.4404 1.28844 33.3335 1.07172 33.1554 0.92625C32.9743 0.780781 32.7398 0.73625 32.5141 0.78375ZM10.6404 1.52C11.4895 1.52 12.1604 2.19094 12.1604 3.04C12.1604 3.88906 11.4895 4.56 10.6404 4.56C9.79133 4.56 9.12039 3.88906 9.12039 3.04C9.12039 2.19094 9.79133 1.52 10.6404 1.52ZM13.1816 9.88C9.7468 9.88 6.84039 14.6537 6.84039 17.6462V34.4375C6.84039 36.3998 8.42274 38 10.3791 38H21.5416C23.4981 38 25.0804 36.3998 25.0804 34.4375V17.6462C25.0804 14.6537 22.174 9.88 18.7391 9.88H13.1816Z" fill="#FF9B9B"/>
</g>
</svg>
