<svg width="40" height="40" viewBox="0 0 40 40" fill="none" xmlns="http://www.w3.org/2000/svg">
<g id="icons8-car-3 1">
<path id="Vector" d="M19.9998 6.40039C14.7217 6.40039 12.7936 7.09102 12.4248 7.25039C11.1842 7.67227 9.34668 8.30352 8.5498 9.85039C8.00918 10.9035 4.45293 20.3754 4.0498 21.4504L3.9998 21.6004V31.2004C3.9998 32.5223 5.07793 33.6004 6.3998 33.6004H9.5998C10.9217 33.6004 11.9998 32.5223 11.9998 31.2004V30.4004H27.9998V31.2004C27.9998 32.5223 29.0779 33.6004 30.3998 33.6004H33.5998C34.9217 33.6004 35.9998 32.5223 35.9998 31.2004V21.6004L35.9498 21.4504C35.8654 21.2254 34.7279 18.2535 33.5998 15.3504C33.5873 15.3254 33.5842 15.3004 33.5748 15.2754C32.6373 12.8629 31.7186 10.5223 31.4248 9.85039C30.7529 8.32852 28.9029 7.63789 27.5498 7.25039C27.1342 7.07852 25.1842 6.40039 19.9998 6.40039ZM19.9998 8.00039C25.2404 8.00039 26.9186 8.72227 26.9248 8.72539L27.0498 8.77539C27.6529 8.94727 29.4967 9.46914 29.9498 10.5004C30.2186 11.1098 31.0467 13.2379 31.9248 15.5004L31.9998 15.6504C32.0123 15.6816 32.0092 15.7129 32.0248 15.7504C32.0467 15.8066 32.0779 15.8691 32.0998 15.9254C32.2967 16.441 32.5123 17.2098 32.1998 17.6754C31.8779 18.1504 30.9623 18.4004 29.5998 18.4004H10.3998C9.0373 18.4004 8.06856 18.0785 7.7498 17.6004C7.3748 17.0441 7.78105 16.0504 7.9748 15.5754L8.0498 15.4254C8.97793 13.0035 9.77481 10.9879 9.9748 10.6004C10.4842 9.61289 11.9779 9.08789 12.9748 8.75039L13.0498 8.72539C13.0654 8.71914 14.7592 8.00039 19.9998 8.00039ZM4.0748 15.2004C1.65606 15.2004 0.799805 16.6879 0.799805 18.0754C0.799805 18.7504 1.10293 19.8379 2.8998 19.9754C3.40293 18.641 4.0498 16.9035 4.6998 15.2004H4.0748ZM35.2498 15.2004C35.9748 17.0723 36.6904 18.9129 37.0998 19.9754C38.9029 19.841 39.1998 18.7535 39.1998 18.0754C39.1998 16.6879 38.3436 15.2004 35.9248 15.2004H35.2498ZM8.7998 21.6004H11.9998C13.3248 21.6004 14.3998 22.6754 14.3998 24.0004C14.3998 25.3254 13.3248 26.4004 11.9998 26.4004C10.6592 26.4004 10.2623 26.0598 8.8748 25.2754C7.94668 24.7504 7.1998 24.2473 7.1998 23.2004C7.1998 22.316 7.91543 21.6004 8.7998 21.6004ZM27.9998 21.6004H31.1998C32.0842 21.6004 32.7998 22.316 32.7998 23.2004C32.7998 24.2473 32.0529 24.7504 31.1248 25.2754C29.7404 26.0598 29.3404 26.4004 27.9998 26.4004C26.6748 26.4004 25.5998 25.3254 25.5998 24.0004C25.5998 22.6754 26.6748 21.6004 27.9998 21.6004Z" fill="#FF9B9B"/>
</g>
</svg>
