<svg width="40" height="40" viewBox="0 0 40 40" fill="none" xmlns="http://www.w3.org/2000/svg">
<g id="icons8-trip-2 1">
<path id="Vector" d="M28.7996 1.59961C26.5903 1.59961 24.7997 3.39023 24.7997 5.59961C24.7997 7.80898 26.5903 9.59961 28.7996 9.59961C31.009 9.59961 32.7996 7.80898 32.7996 5.59961C32.7996 3.39023 31.009 1.59961 28.7996 1.59961ZM24.6246 10.3996C23.7434 10.3996 22.9059 10.8371 22.4247 11.5746L16.2246 21.0496C15.9621 21.4684 15.9778 21.9527 16.1747 22.3746L14.0496 25.4496L11.4246 23.6246C10.3871 22.9059 8.94965 23.1621 8.22465 24.1996L3.69965 30.6746C3.27153 31.2934 3.1184 32.059 3.24965 32.7996C3.37465 33.4902 3.74965 34.0715 4.29965 34.4996C4.8934 33.0309 6.32152 31.9996 7.99965 31.9996C9.05277 31.9996 10.009 32.4059 10.7246 33.0746L17.5497 23.1996C17.9746 23.1652 18.3747 22.9371 18.6247 22.5496L23.4496 15.5746L22.5246 20.5496C22.2653 21.9465 22.509 23.3715 23.2246 24.5996L30.6246 37.5996C30.9121 38.0934 31.4278 38.3996 31.9996 38.3996C33.159 38.3996 33.9403 37.2121 33.4746 36.1496L27.9496 23.3746L29.5246 14.9746C29.9746 12.5965 28.1465 10.3996 25.7246 10.3996H24.6246ZM30.1996 15.7246L29.3746 20.0496L33.8496 23.6996C34.4059 24.1527 35.2371 24.0746 35.6996 23.5246C36.1684 22.9684 36.0809 22.1402 35.5246 21.6746L30.9496 17.8246L30.1996 15.7246ZM22.0246 24.6246L20.6496 29.3746L16.2497 36.0996C15.8309 36.7371 15.9559 37.5996 16.5497 38.0746C17.2028 38.5965 18.1496 38.4684 18.6496 37.7996L23.3246 31.5746L24.4996 28.9496L22.0246 24.6246ZM7.99965 33.5996C6.67777 33.5996 5.59965 34.6777 5.59965 35.9996C5.59965 37.3215 6.67777 38.3996 7.99965 38.3996C9.32152 38.3996 10.3996 37.3215 10.3996 35.9996C10.3996 34.6777 9.32152 33.5996 7.99965 33.5996Z" fill="#FF9B9B"/>
</g>
</svg>
