<svg width="25" height="25" viewBox="0 0 25 25" fill="none" xmlns="http://www.w3.org/2000/svg">
<g id="icons8-sim-2 1">
<path id="Vector" d="M1.66064 17.7853C1.66064 19.1385 2.76826 20.2461 4.12148 20.2461L20.363 20.2461C21.7162 20.2461 22.8238 19.1385 22.8238 17.7853L22.8238 6.95759C22.8238 5.60437 21.7162 4.49675 20.363 4.49675L6.00555 4.49675C5.61408 4.49675 5.23837 4.65258 4.96162 4.92932L2.09321 7.79773C1.81647 8.07448 1.66064 8.45019 1.66064 8.84167L1.66064 17.7853ZM2.64498 17.7853L2.64498 8.84167C2.64498 8.71144 2.69679 8.58607 2.78917 8.49369L5.65758 5.62528C5.74995 5.5329 5.87533 5.48109 6.00555 5.48109L20.363 5.48109C21.1842 5.48109 21.8395 6.13642 21.8395 6.95759L21.8395 17.7853C21.8395 18.6064 21.1842 19.2618 20.363 19.2618L4.12148 19.2618C3.30031 19.2618 2.64498 18.6064 2.64498 17.7853ZM9.52859 13.8556C9.5291 13.8795 9.53135 13.9032 9.53531 13.9267L9.53531 15.3244C9.53531 16.4059 10.4225 17.2931 11.504 17.2931L16.343 17.2931C16.3961 17.3019 16.4504 17.3019 16.5035 17.2931L18.3943 17.2931C19.4758 17.2931 20.363 16.4059 20.363 15.3244L20.363 13.9306C20.3718 13.8774 20.3718 13.8232 20.363 13.7701L20.363 10.9776C20.3718 10.9244 20.3718 10.8702 20.363 10.8171L20.363 9.41842C20.363 8.33697 19.4758 7.44976 18.3943 7.44976L16.5083 7.44976C16.4552 7.44097 16.4009 7.44097 16.3478 7.44976L13.5553 7.44976C13.5022 7.44097 13.4479 7.44097 13.3948 7.44976L11.504 7.44976C10.4225 7.44976 9.53531 8.33697 9.53531 9.41842L9.53531 10.8123C9.52653 10.8654 9.52653 10.9196 9.53531 10.9728L9.53531 13.772C9.53069 13.7996 9.52844 13.8276 9.52859 13.8556ZM10.5196 15.3244L10.5196 14.3401L13.4726 14.3401C13.6032 14.3401 13.7284 14.2882 13.8206 14.1959C13.9129 14.1036 13.9648 13.9785 13.9648 13.8479L13.9648 10.9776C13.9736 10.9244 13.9736 10.8702 13.9648 10.8171L13.9648 8.43409L15.9335 8.43409L15.9335 10.8123C15.9247 10.8654 15.9247 10.9196 15.9335 10.9728L15.9335 13.7653C15.9285 13.7951 15.9262 13.8254 15.9268 13.8556C15.9273 13.8791 15.9296 13.9026 15.9335 13.9258L15.9335 16.3088L11.504 16.3088C10.9544 16.3088 10.5196 15.874 10.5196 15.3244ZM10.5196 13.3558L10.5196 11.3871L12.9805 11.3871L12.9805 13.3558L10.5196 13.3558ZM10.5196 10.4028L10.5196 9.41842C10.5196 8.86884 10.9544 8.43409 11.504 8.43409L12.9805 8.43409L12.9805 10.4028L10.5196 10.4028ZM16.9178 16.3088L16.9178 14.3401L19.3787 14.3401L19.3787 15.3244C19.3787 15.874 18.9439 16.3088 18.3943 16.3088L16.9178 16.3088ZM16.9178 13.3558L16.9178 11.3871L19.3787 11.3871L19.3787 13.3558L16.9178 13.3558ZM16.9178 10.4028L16.9178 8.43409L18.3943 8.43409C18.9439 8.43409 19.3787 8.86884 19.3787 9.41842L19.3787 10.4028L16.9178 10.4028Z" fill="#9C9C9C"/>
</g>
</svg>
