<svg width="39" height="39" viewBox="0 0 39 39" fill="none" xmlns="http://www.w3.org/2000/svg">
<path d="M4.09155 32.1875H35.0516V35.7598H4.09155V32.1875Z" fill="#4E5460"/>
<path d="M2.30542 34.5625H36.8378V36.944H2.30542V34.5625Z" fill="#565D69"/>
<path d="M5.87769 29.8047H13.0223V32.1862H5.87769V29.8047Z" fill="#E7EAEF"/>
<path d="M19.5716 2.41406L2.30542 8.9633V11.9402H36.8378V8.9633L19.5716 2.41406Z" fill="#565D69"/>
<path d="M5.87769 11.9453H13.0223V14.3269H5.87769V11.9453Z" fill="#E7EAEF"/>
<path d="M7.0686 14.3203H11.8317V29.8003H7.0686V14.3203Z" fill="#D8DBE0"/>
<path d="M26.1208 29.8047H33.2655V32.1862H26.1208V29.8047Z" fill="#E7EAEF"/>
<path d="M26.1208 11.9453H33.2655V14.3269H26.1208V11.9453Z" fill="#E7EAEF"/>
<path d="M27.3115 14.3203H32.0746V29.8003H27.3115V14.3203Z" fill="#D8DBE0"/>
<path d="M21.3577 7.77053C21.3577 8.24425 21.1695 8.69857 20.8346 9.03353C20.4996 9.3685 20.0453 9.55669 19.5716 9.55669C19.0978 9.55669 18.6435 9.3685 18.3086 9.03353C17.9736 8.69857 17.7854 8.24425 17.7854 7.77053C17.7854 7.29681 17.9736 6.8425 18.3086 6.50753C18.6435 6.17256 19.0978 5.98438 19.5716 5.98438C20.0453 5.98438 20.4996 6.17256 20.8346 6.50753C21.1695 6.8425 21.3577 7.29681 21.3577 7.77053Z" fill="#E7EAEF"/>
<path d="M7.0686 14.3203V16.1065H10.0455V29.8003H11.8317V14.3203H7.0686Z" fill="#CCCFD4"/>
<path d="M27.3115 14.3203V16.1065H30.2885V29.8003H32.0746V14.3203H27.3115Z" fill="#CCCFD4"/>
<path d="M13.0222 29.8047H11.2361V32.1862H13.0222V29.8047Z" fill="#D8DBE0"/>
<path d="M33.2654 29.8047H31.4792V32.1862H33.2654V29.8047Z" fill="#D8DBE0"/>
<path d="M13.0222 11.9453H11.2361V14.3269H13.0222V11.9453Z" fill="#D8DBE0"/>
<path d="M33.2654 11.9453H31.4792V14.3269H33.2654V11.9453Z" fill="#D8DBE0"/>
<path d="M35.0515 32.1875H33.2654V34.569H35.0515V32.1875Z" fill="#484E58"/>
<path d="M36.8377 8.96661L35.0515 8.28906V11.9435H36.8377V8.96661Z" fill="#4E5460"/>
<path d="M19.5711 7.7723C19.5727 7.15331 19.8185 6.55997 20.2553 6.1213C19.9839 6.00844 19.6888 5.9643 19.3963 5.99278C19.1038 6.02126 18.8228 6.12149 18.5783 6.28458C18.3338 6.44766 18.1333 6.66857 17.9946 6.9277C17.8559 7.18683 17.7833 7.47618 17.7832 7.7701C17.7831 8.06401 17.8556 8.3534 17.9941 8.61261C18.1327 8.87181 18.3331 9.09282 18.5775 9.25603C18.8219 9.41925 19.1029 9.51962 19.3954 9.54826C19.6879 9.5769 19.9829 9.53291 20.2544 9.42019C19.8181 8.9826 19.5725 8.39025 19.5711 7.7723Z" fill="#D8DBE0"/>
<path d="M36.8377 34.5625H35.0515V36.944H36.8377V34.5625Z" fill="#4E5460"/>
<path d="M33.2654 14.9189C33.4233 14.9189 33.5747 14.8562 33.6864 14.7446C33.798 14.6329 33.8608 14.4815 33.8608 14.3236V12.5374H36.8377C36.9956 12.5374 37.147 12.4747 37.2587 12.363C37.3704 12.2514 37.4331 12.0999 37.4331 11.942V8.96508C37.4331 8.84425 37.3963 8.72628 37.3277 8.62684C37.259 8.5274 37.1617 8.4512 37.0488 8.40836L19.7826 1.85912C19.6466 1.80738 19.4964 1.80738 19.3605 1.85912L2.09428 8.40836C1.98129 8.4512 1.88401 8.5274 1.81537 8.62684C1.74672 8.72628 1.70996 8.84425 1.70996 8.96508V11.942C1.70996 12.0999 1.77269 12.2514 1.88435 12.363C1.996 12.4747 2.14744 12.5374 2.30535 12.5374H5.28227V14.3236C5.28227 14.4815 5.345 14.6329 5.45666 14.7446C5.56831 14.8562 5.71975 14.9189 5.87766 14.9189H6.47304V29.2082H5.87766C5.71975 29.2082 5.56831 29.2709 5.45666 29.3826C5.345 29.4942 5.28227 29.6457 5.28227 29.8036V31.5897H4.0915C3.9336 31.5897 3.78216 31.6525 3.6705 31.7641C3.55884 31.8758 3.49612 32.0272 3.49612 32.1851V33.9713H2.30535C2.14744 33.9713 1.996 34.034 1.88435 34.1457C1.77269 34.2573 1.70996 34.4087 1.70996 34.5667V36.9482C1.70996 37.1061 1.77269 37.2575 1.88435 37.3692C1.996 37.4809 2.14744 37.5436 2.30535 37.5436H36.8377C36.9956 37.5436 37.147 37.4809 37.2587 37.3692C37.3704 37.2575 37.4331 37.1061 37.4331 36.9482V34.5667C37.4331 34.4087 37.3704 34.2573 37.2587 34.1457C37.147 34.034 36.9956 33.9713 36.8377 33.9713H35.6469V32.1851C35.6469 32.0272 35.5842 31.8758 35.4725 31.7641C35.3609 31.6525 35.2094 31.5897 35.0515 31.5897H33.8608V29.8036C33.8608 29.6457 33.798 29.4942 33.6864 29.3826C33.5747 29.2709 33.4233 29.2082 33.2654 29.2082H32.67V14.9189H33.2654ZM32.67 13.7282H26.7161V12.5374H32.67V13.7282ZM26.1208 29.2082C25.9629 29.2082 25.8114 29.2709 25.6998 29.3826C25.5881 29.4942 25.5254 29.6457 25.5254 29.8036V31.5897H13.6177V29.8036C13.6177 29.6457 13.5549 29.4942 13.4433 29.3826C13.3316 29.2709 13.1802 29.2082 13.0223 29.2082H12.4269V14.9189H13.0223C13.1802 14.9189 13.3316 14.8562 13.4433 14.7446C13.5549 14.6329 13.6177 14.4815 13.6177 14.3236V12.5374H25.5254V14.3236C25.5254 14.4815 25.5881 14.6329 25.6998 14.7446C25.8114 14.8562 25.9629 14.9189 26.1208 14.9189H26.7161V29.2082H26.1208ZM2.90073 9.37615L19.5715 3.05251L36.2423 9.37615V11.3466H2.90073V9.37615ZM12.4269 12.5374V13.7282H6.47304V12.5374H12.4269ZM7.66381 14.9189H11.2361V29.2082H7.66381V14.9189ZM6.47304 30.399H12.4269V31.5897H6.47304V30.399ZM36.2423 36.3528H2.90073V35.162H36.2423V36.3528ZM34.4562 33.9713H4.68689V32.7805H34.4562V33.9713ZM26.7161 31.5897V30.399H32.67V31.5897H26.7161ZM31.4792 29.2082H27.9069V14.9189H31.4792V29.2082ZM17.7854 19.682C17.7859 20.1556 17.9742 20.6096 18.3091 20.9445C18.6439 21.2793 19.098 21.4677 19.5715 21.4682C20.3092 21.4682 21.0206 21.7422 21.5678 22.2369C22.1151 22.7316 22.4591 23.4119 22.5332 24.1459C22.6074 24.8799 22.4064 25.6152 21.9692 26.2094C21.5319 26.8036 20.8897 27.2143 20.1669 27.3619V28.6128C20.1669 28.7707 20.1042 28.9221 19.9925 29.0338C19.8809 29.1455 19.7294 29.2082 19.5715 29.2082C19.4136 29.2082 19.2622 29.1455 19.1505 29.0338C19.0389 28.9221 18.9761 28.7707 18.9761 28.6128V27.3619C18.3043 27.2238 17.7005 26.8582 17.2667 26.3269C16.8329 25.7956 16.5955 25.131 16.5946 24.4451C16.5946 24.2872 16.6573 24.1358 16.769 24.0241C16.8806 23.9124 17.0321 23.8497 17.19 23.8497C17.3479 23.8497 17.4993 23.9124 17.611 24.0241C17.7226 24.1358 17.7854 24.2872 17.7854 24.4451C17.7854 24.7984 17.8901 25.1437 18.0864 25.4374C18.2826 25.7312 18.5616 25.9601 18.888 26.0953C19.2144 26.2305 19.5735 26.2659 19.92 26.1969C20.2665 26.128 20.5847 25.9579 20.8345 25.7081C21.0843 25.4583 21.2544 25.14 21.3234 24.7936C21.3923 24.4471 21.3569 24.0879 21.2217 23.7616C21.0865 23.4352 20.8576 23.1562 20.5639 22.96C20.2701 22.7637 19.9248 22.6589 19.5715 22.6589C18.8338 22.6589 18.1224 22.385 17.5752 21.8902C17.028 21.3955 16.684 20.7152 16.6098 19.9812C16.5357 19.2473 16.7367 18.5119 17.1739 17.9177C17.6111 17.3235 18.2533 16.9128 18.9761 16.7653V15.5143C18.9761 15.3564 19.0389 15.205 19.1505 15.0933C19.2622 14.9817 19.4136 14.9189 19.5715 14.9189C19.7294 14.9189 19.8809 14.9817 19.9925 15.0933C20.1042 15.205 20.1669 15.3564 20.1669 15.5143V16.7653C20.8388 16.9034 21.4425 17.2689 21.8763 17.8002C22.3101 18.3315 22.5475 18.9961 22.5484 19.682C22.5484 19.8399 22.4857 19.9914 22.3741 20.103C22.2624 20.2147 22.111 20.2774 21.9531 20.2774C21.7952 20.2774 21.6437 20.2147 21.5321 20.103C21.4204 19.9914 21.3577 19.8399 21.3577 19.682C21.3577 19.2083 21.1695 18.754 20.8345 18.419C20.4996 18.084 20.0452 17.8959 19.5715 17.8959C19.0978 17.8959 18.6435 18.084 18.3085 18.419C17.9735 18.754 17.7854 19.2083 17.7854 19.682ZM19.5715 5.39277C19.1005 5.39277 18.64 5.53245 18.2484 5.79413C17.8568 6.05582 17.5515 6.42777 17.3713 6.86294C17.191 7.29811 17.1438 7.77695 17.2357 8.23893C17.3276 8.7009 17.5545 9.12525 17.8875 9.45832C18.2206 9.79138 18.6449 10.0182 19.1069 10.1101C19.5689 10.202 20.0477 10.1548 20.4829 9.97457C20.9181 9.79432 21.29 9.48907 21.5517 9.09743C21.8134 8.70578 21.9531 8.24534 21.9531 7.77431C21.9523 7.14291 21.7012 6.53757 21.2547 6.09111C20.8083 5.64464 20.2029 5.39349 19.5715 5.39277ZM19.5715 8.96508C19.336 8.96508 19.1058 8.89525 18.91 8.7644C18.7141 8.63356 18.5615 8.44759 18.4714 8.23C18.3813 8.01242 18.3577 7.77299 18.4036 7.54201C18.4496 7.31102 18.563 7.09884 18.7295 6.93231C18.8961 6.76578 19.1082 6.65237 19.3392 6.60642C19.5702 6.56048 19.8096 6.58406 20.0272 6.67418C20.2448 6.76431 20.4308 6.91693 20.5616 7.11276C20.6925 7.30858 20.7623 7.5388 20.7623 7.77431C20.762 8.09003 20.6364 8.39272 20.4132 8.61597C20.1899 8.83921 19.8872 8.96477 19.5715 8.96508Z" fill="black"/>
</svg>
