<svg width="43" height="43" viewBox="0 0 43 43" fill="none" xmlns="http://www.w3.org/2000/svg">
<g clip-path="url(#clip0_13571_11454)">
<path d="M41.1051 25.1954C39.5136 33.7255 31.923 40.5009 22.6013 40.3959C9.95914 40.3959 0.595774 27.068 5.64463 14.8261C8.43533 8.04673 15.1295 3.24219 22.8402 3.24219C34.7195 3.24219 43.4173 14.5155 41.1051 25.1954Z" fill="#FFE773"/>
<path d="M31.8911 5.62879C33.8956 6.76513 32.8577 9.84242 30.5742 9.53422C19.4635 8.03457 9.72787 16.7053 9.50517 27.5407C9.45748 29.8622 6.25638 30.4155 5.4376 28.2427C0.864857 16.1085 10.0987 3.24219 22.8403 3.24219C26.1633 3.24219 29.2373 4.12424 31.8911 5.62879Z" fill="#FFF0A6"/>
<path d="M22.8699 9.25781C15.1392 9.25781 9.17535 16.3095 10.4818 23.9271C10.4821 23.9272 10.4825 23.9273 10.4828 23.9273C11.1747 27.9611 13.8173 31.3641 17.3913 33.1168C17.3913 33.1171 17.3912 33.1174 17.3912 33.1178C20.8217 34.7977 24.8565 34.8288 28.3477 33.1178C28.3477 33.1175 28.3476 33.1171 28.3476 33.1168C31.9215 31.3641 34.564 27.9611 35.256 23.9273C35.2563 23.9272 35.2567 23.9271 35.257 23.9271C36.5613 16.3098 30.6051 9.25781 22.8699 9.25781Z" fill="#FFF0A6"/>
<path d="M25.5327 9.54295C18.4547 10.5353 12.4738 15.6117 10.3235 22.5313C9.85359 14.4277 17.3418 7.75242 25.5327 9.54295Z" fill="#FFF4BF"/>
<path d="M17.391 33.1168C16.8989 37.2253 13.361 40.4506 9.13315 40.4506C4.56977 40.4506 0.814941 36.6957 0.814941 32.1323C0.814941 27.0544 5.43555 23.0818 10.4816 23.9261C14.7852 24.6399 17.9328 28.6737 17.391 33.1168Z" fill="#BEFA91"/>
<path d="M13.2823 24.9335C14.4005 25.5805 13.9552 27.3057 12.6633 27.3036C8.26884 27.2964 4.29175 30.8959 4.31564 35.6728C4.32211 36.9685 2.61638 37.4581 1.96071 36.3406C-0.152799 32.7383 0.644283 27.7908 4.5736 25.191C7.31618 23.3736 10.6693 23.4215 13.2823 24.9335Z" fill="#DAFFBF"/>
<path d="M22.1666 28.9875V27.9513C20.5852 27.6372 19.3894 26.2394 19.3894 24.5673C19.3894 24.1807 19.7028 23.8673 20.0894 23.8673C20.476 23.8673 20.7895 24.1807 20.7895 24.5673C20.7895 25.6979 21.7093 26.6176 22.8399 26.6176C23.9704 26.6176 24.8902 25.6979 24.8902 24.5673C24.8902 23.4368 23.9704 22.517 22.8399 22.517C20.9372 22.517 19.3894 20.9691 19.3894 19.0666C19.3894 17.3944 20.5853 15.9967 22.1666 15.6826V14.6367C22.1666 14.2501 22.48 13.9367 22.8666 13.9367C23.2532 13.9367 23.5667 14.2501 23.5667 14.6367V15.6939C25.1213 16.0287 26.2902 17.4134 26.2902 19.0666C26.2902 19.4532 25.9767 19.7666 25.5901 19.7666C25.2035 19.7666 24.8901 19.4532 24.8901 19.0666C24.8901 17.936 23.9703 17.0163 22.8398 17.0163C21.7092 17.0163 20.7894 17.936 20.7894 19.0666C20.7894 20.1971 21.7092 21.1169 22.8398 21.1169C24.7423 21.1169 26.2902 22.6648 26.2902 24.5673C26.2902 26.2205 25.1213 27.6052 23.5667 27.94V28.9875C23.5667 29.3741 23.2532 29.6876 22.8666 29.6876C22.48 29.6876 22.1666 29.3742 22.1666 28.9875ZM36.4456 8.21126C29.0043 0.769847 17.3535 0.723645 9.82912 7.64064C6.27319 10.9095 4.07568 15.3242 3.64148 20.0713C3.6063 20.4563 3.88982 20.797 4.27484 20.8323C4.66021 20.8667 5.00052 20.5839 5.03578 20.1989C5.86988 11.0812 13.6904 3.93919 22.84 3.93919C32.6978 3.93919 40.7178 11.9592 40.7178 21.817C40.7178 34.7065 27.4256 43.3228 15.7661 38.2183C20.5543 33.0094 17.7087 24.8154 11.1011 23.3323C10.1863 16.2487 15.7336 9.95672 22.8699 9.95672C29.4128 9.95672 34.7359 15.2798 34.7359 21.8227C34.7359 28.3656 29.4129 33.6887 22.8699 33.6887C22.4833 33.6887 22.1698 34.0022 22.1698 34.3888C22.1698 34.7754 22.4833 35.0888 22.8699 35.0888C30.1579 35.0888 36.136 29.109 36.136 21.8227C36.136 14.5347 30.1562 8.55664 22.8699 8.55664C15.114 8.55664 8.89046 15.3148 9.66951 23.1314C7.08558 22.9784 4.60981 23.9263 2.76835 25.7678C-3.006 31.5422 1.29066 41.1508 9.13346 41.1508C9.52005 41.1508 9.8335 40.8374 9.8335 40.4508C9.8335 40.0642 9.52005 39.7507 9.13346 39.7507C4.93296 39.7507 1.51563 36.3334 1.51563 32.1329C1.51563 27.4637 5.69697 23.8822 10.3191 24.6075C10.3484 24.6145 10.3783 24.6192 10.4086 24.6224C14.0042 25.2309 16.7513 28.3669 16.7513 32.1329C16.7512 35.7035 14.3806 37.559 14.0281 37.9598C13.7288 38.3007 13.827 38.8298 14.2277 39.0407C26.6532 45.5333 42.1178 36.1873 42.1178 21.817C42.1177 16.7009 40.1033 11.869 36.4456 8.21126ZM9.92109 29.2501H8.48155L9.02793 28.6749C9.2942 28.3945 9.28292 27.9515 9.00255 27.6852C8.72218 27.4189 8.27915 27.4302 8.01287 27.7106L6.34932 29.4617C6.09258 29.7319 6.09258 30.1558 6.34932 30.426L8.01287 32.1772C8.27923 32.4576 8.72245 32.4687 9.00255 32.2026C9.28292 31.9363 9.2942 31.4932 9.02801 31.2129L8.49345 30.6501H9.92118C11.0309 30.6501 11.9338 31.553 11.9338 32.6627C11.9338 33.7725 11.0309 34.6754 9.92118 34.6754H6.50324C6.11664 34.6754 5.8032 34.9888 5.8032 35.3754C5.8032 35.762 6.11664 36.0754 6.50324 36.0754H9.92109C11.8029 36.0754 13.3338 34.5445 13.3338 32.6627C13.3338 30.7809 11.8029 29.2501 9.92109 29.2501Z" fill="black"/>
</g>
<defs>
<clipPath id="clip0_13571_11454">
<rect width="42.0128" height="42.0128" fill="white" transform="translate(0.104736 0.835938)"/>
</clipPath>
</defs>
</svg>
