<svg width="42" height="42" viewBox="0 0 42 42" fill="none" xmlns="http://www.w3.org/2000/svg">
<path d="M7.41084 2.42193C6.90532 2.42081 6.40455 2.51955 5.9373 2.71248C5.47004 2.90542 5.0455 3.18875 4.68804 3.5462C4.33058 3.90366 4.04725 4.3282 3.85431 4.79545C3.66137 5.2627 3.56262 5.76346 3.56373 6.26898V36.4047L6.76965 39.6106L9.33439 37.0459L11.8991 39.6106L14.4639 37.0459L17.0286 39.6106L19.5933 37.0459L22.1581 39.6106L24.7228 37.0459L27.2875 39.6106L30.4935 36.4047V6.26898C30.4928 5.76236 30.5923 5.26061 30.7862 4.7926C30.9802 4.32459 31.2649 3.89957 31.6238 3.54201C31.9827 3.18445 32.4088 2.90141 32.8775 2.70918C33.3462 2.51694 33.8483 2.41932 34.355 2.42193H7.41084Z" fill="#E7EAEF"/>
<path d="M30.4934 6.26898C30.4934 5.76377 30.5929 5.26351 30.7863 4.79676C30.9796 4.33 31.263 3.9059 31.6202 3.54867C31.9774 3.19143 32.4015 2.90805 32.8683 2.71472C33.335 2.52138 33.8353 2.42188 34.3405 2.42188C34.8457 2.42188 35.346 2.52138 35.8127 2.71472C36.2795 2.90805 36.7036 3.19143 37.0608 3.54867C37.4181 3.9059 37.7014 4.33 37.8948 4.79676C38.0881 5.26351 38.1876 5.76377 38.1876 6.26898V19.0927H30.4934V6.26898Z" fill="#D8DBE0"/>
<path d="M33.6993 6.90859C33.7005 6.04875 33.9898 5.21409 34.5209 4.5379C35.0521 3.86172 35.7944 3.38298 36.6295 3.17815C36.0571 2.75385 35.3781 2.49691 34.6683 2.43597C33.9584 2.37503 33.2455 2.51249 32.6092 2.83302C31.9728 3.15355 31.4381 3.64455 31.0645 4.25125C30.6909 4.85796 30.4932 5.55651 30.4934 6.26901V19.0927H33.6993V6.90859Z" fill="#CCCFD4"/>
<path d="M23.4405 24.2227C23.4409 24.5627 23.5761 24.8886 23.8165 25.129C24.0569 25.3694 24.3829 25.5047 24.7229 25.5051C25.3466 25.5037 25.9494 25.7302 26.4179 26.142C26.8864 26.5538 27.1885 27.1225 27.2672 27.7413C27.3459 28.3601 27.196 28.9863 26.8456 29.5023C26.4951 30.0183 25.9683 30.3886 25.3641 30.5435V31.9169C25.3641 32.087 25.2965 32.25 25.1763 32.3703C25.056 32.4905 24.8929 32.5581 24.7229 32.5581C24.5528 32.5581 24.3897 32.4905 24.2695 32.3703C24.1492 32.25 24.0817 32.087 24.0817 31.9169V30.5435C23.5325 30.4022 23.0457 30.0827 22.6976 29.635C22.3495 29.1874 22.1598 28.6369 22.1581 28.0698C22.1581 27.8997 22.2257 27.7367 22.3459 27.6164C22.4662 27.4962 22.6293 27.4286 22.7993 27.4286C22.9694 27.4286 23.1325 27.4962 23.2527 27.6164C23.3729 27.7367 23.4405 27.8997 23.4405 28.0698C23.4405 28.3234 23.5157 28.5714 23.6566 28.7822C23.7975 28.9931 23.9978 29.1575 24.2321 29.2546C24.4665 29.3516 24.7243 29.377 24.973 29.3275C25.2218 29.278 25.4503 29.1559 25.6296 28.9766C25.809 28.7972 25.9311 28.5687 25.9806 28.32C26.0301 28.0712 26.0047 27.8134 25.9076 27.5791C25.8106 27.3447 25.6462 27.1445 25.4353 27.0036C25.2244 26.8626 24.9765 26.7874 24.7229 26.7874C24.0991 26.7888 23.4963 26.5623 23.0278 26.1505C22.5593 25.7387 22.2573 25.17 22.1785 24.5512C22.0998 23.9324 22.2497 23.3062 22.6002 22.7902C22.9506 22.2742 23.4775 21.9039 24.0817 21.749V20.3756C24.0817 20.2055 24.1492 20.0425 24.2695 19.9222C24.3897 19.802 24.5528 19.7344 24.7229 19.7344C24.8929 19.7344 25.056 19.802 25.1763 19.9222C25.2965 20.0425 25.3641 20.2055 25.3641 20.3756V21.749C25.9132 21.8903 26.4 22.2098 26.7481 22.6575C27.0962 23.1051 27.2859 23.6556 27.2876 24.2227C27.2876 24.3927 27.2201 24.5558 27.0998 24.6761C26.9796 24.7963 26.8165 24.8639 26.6464 24.8639C26.4764 24.8639 26.3133 24.7963 26.193 24.6761C26.0728 24.5558 26.0052 24.3927 26.0052 24.2227C26.0052 23.8826 25.8701 23.5564 25.6296 23.3159C25.3892 23.0754 25.063 22.9403 24.7229 22.9403C24.3828 22.9403 24.0566 23.0754 23.8161 23.3159C23.5756 23.5564 23.4405 23.8826 23.4405 24.2227ZM18.9522 23.5815H12.5404C12.3703 23.5815 12.2072 23.6491 12.087 23.7693C11.9667 23.8896 11.8992 24.0526 11.8992 24.2227C11.8992 24.3927 11.9667 24.5558 12.087 24.6761C12.2072 24.7963 12.3703 24.8639 12.5404 24.8639H18.9522C19.1223 24.8639 19.2854 24.7963 19.4056 24.6761C19.5258 24.5558 19.5934 24.3927 19.5934 24.2227C19.5934 24.0526 19.5258 23.8896 19.4056 23.7693C19.2854 23.6491 19.1223 23.5815 18.9522 23.5815ZM38.8289 6.26954V19.0932C38.8289 19.1774 38.8124 19.2608 38.7802 19.3386C38.7479 19.4164 38.7007 19.4871 38.6412 19.5467C38.5816 19.6062 38.5109 19.6534 38.4331 19.6856C38.3553 19.7179 38.2719 19.7344 38.1877 19.7344H31.1347V36.4052C31.1347 36.4894 31.1181 36.5728 31.0859 36.6506C31.0537 36.7283 31.0064 36.799 30.9468 36.8585L27.7409 40.0644C27.6814 40.124 27.6107 40.1712 27.5329 40.2035C27.4552 40.2357 27.3718 40.2523 27.2876 40.2523C27.2034 40.2523 27.12 40.2357 27.0422 40.2035C26.9644 40.1712 26.8938 40.124 26.8343 40.0644L24.7229 37.9531L22.6115 40.0645C22.5519 40.124 22.4813 40.1713 22.4035 40.2035C22.3257 40.2357 22.2423 40.2523 22.1581 40.2523C22.0739 40.2523 21.9905 40.2357 21.9128 40.2035C21.835 40.1713 21.7643 40.124 21.7048 40.0645L19.5934 37.9531L17.482 40.0645C17.4225 40.124 17.3518 40.1713 17.274 40.2035C17.1962 40.2357 17.1128 40.2523 17.0286 40.2523C16.9444 40.2523 16.8611 40.2357 16.7833 40.2035C16.7055 40.1713 16.6348 40.124 16.5753 40.0645L14.4639 37.9531L12.3525 40.0645C12.293 40.124 12.2223 40.1713 12.1445 40.2035C12.0667 40.2357 11.9834 40.2523 11.8992 40.2523C11.815 40.2523 11.7316 40.2357 11.6538 40.2035C11.576 40.1713 11.5054 40.124 11.4458 40.0645L9.33445 37.9531L7.22303 40.0645C7.16351 40.124 7.09284 40.1713 7.01505 40.2035C6.93727 40.2357 6.85389 40.2523 6.76969 40.2523C6.68549 40.2523 6.60212 40.2357 6.52434 40.2035C6.44655 40.1713 6.37588 40.124 6.31636 40.0645L3.11044 36.8586C3.05087 36.799 3.00363 36.7284 2.9714 36.6506C2.93917 36.5728 2.92259 36.4894 2.92261 36.4052V6.26954C2.924 5.0796 3.39731 3.93879 4.23873 3.09737C5.08015 2.25596 6.22095 1.78264 7.4109 1.78125H34.4668C34.4818 1.78125 34.4944 1.78876 34.5091 1.78978C35.6684 1.83384 36.7656 2.32487 37.5709 3.15997C38.3762 3.99506 38.827 5.10943 38.8289 6.26954ZM29.8523 6.26954C29.8521 5.67173 29.9719 5.07997 30.2046 4.52929C30.4372 3.97861 30.778 3.48021 31.2067 3.06362H7.4109C6.56094 3.06462 5.74608 3.4027 5.14507 4.00371C4.54406 4.60472 4.20597 5.41958 4.20498 6.26954V36.1397L6.76971 38.7044L8.88113 36.593C8.94065 36.5335 9.01133 36.4862 9.08911 36.454C9.1669 36.4218 9.25027 36.4052 9.33447 36.4052C9.41867 36.4052 9.50204 36.4218 9.57983 36.454C9.65761 36.4862 9.72828 36.5335 9.78781 36.593L11.8992 38.7044L14.0106 36.593C14.0701 36.5335 14.1408 36.4862 14.2186 36.454C14.2964 36.4218 14.3797 36.4052 14.4639 36.4052C14.5481 36.4052 14.6315 36.4218 14.7093 36.454C14.7871 36.4862 14.8578 36.5335 14.9173 36.593L17.0287 38.7044L19.1401 36.593C19.1996 36.5335 19.2703 36.4862 19.3481 36.454C19.4258 36.4218 19.5092 36.4052 19.5934 36.4052C19.6776 36.4052 19.761 36.4218 19.8388 36.454C19.9166 36.4862 19.9872 36.5335 20.0468 36.593L22.1581 38.7044L24.2696 36.593C24.3291 36.5335 24.3997 36.4862 24.4775 36.454C24.5553 36.4218 24.6387 36.4052 24.7229 36.4052C24.8071 36.4052 24.8905 36.4218 24.9682 36.454C25.046 36.4862 25.1167 36.5335 25.1762 36.593L27.2876 38.7044L29.8523 36.1397V6.26954ZM37.5466 6.26954C37.5466 5.41928 37.2088 4.60384 36.6076 4.00261C36.0063 3.40138 35.1909 3.06362 34.3406 3.06362C33.4904 3.06362 32.6749 3.40138 32.0737 4.00261C31.4725 4.60384 31.1347 5.41928 31.1347 6.26954V18.452H37.5466V6.26954ZM9.97563 23.5721H7.4109C7.24084 23.5721 7.07776 23.6397 6.95751 23.7599C6.83727 23.8802 6.76971 24.0433 6.76971 24.2133C6.76971 24.3834 6.83727 24.5464 6.95751 24.6667C7.07776 24.7869 7.24084 24.8545 7.4109 24.8545H9.97563C10.1457 24.8545 10.3088 24.7869 10.429 24.6667C10.5493 24.5464 10.6168 24.3834 10.6168 24.2133C10.6168 24.0433 10.5493 23.8802 10.429 23.7599C10.3088 23.6397 10.1457 23.5721 9.97563 23.5721ZM18.9522 27.4286H12.5404C12.3703 27.4286 12.2072 27.4962 12.087 27.6164C11.9667 27.7367 11.8992 27.8997 11.8992 28.0698C11.8992 28.2399 11.9667 28.4029 12.087 28.5232C12.2072 28.6434 12.3703 28.711 12.5404 28.711H18.9522C19.1223 28.711 19.2854 28.6434 19.4056 28.5232C19.5258 28.4029 19.5934 28.2399 19.5934 28.0698C19.5934 27.8997 19.5258 27.7367 19.4056 27.6164C19.2854 27.4962 19.1223 27.4286 18.9522 27.4286ZM9.97563 27.4192H7.4109C7.24084 27.4192 7.07776 27.4868 6.95751 27.607C6.83727 27.7273 6.76971 27.8904 6.76971 28.0604C6.76971 28.2305 6.83727 28.3935 6.95751 28.5138C7.07776 28.634 7.24084 28.7016 7.4109 28.7016H9.97563C10.1457 28.7016 10.3088 28.634 10.429 28.5138C10.5493 28.3935 10.6168 28.2305 10.6168 28.0604C10.6168 27.8904 10.5493 27.7273 10.429 27.607C10.3088 27.4868 10.1457 27.4192 9.97563 27.4192ZM18.9522 31.2757H12.5404C12.3703 31.2757 12.2072 31.3433 12.087 31.4635C11.9667 31.5838 11.8992 31.7469 11.8992 31.9169C11.8992 32.087 11.9667 32.25 12.087 32.3703C12.2072 32.4905 12.3703 32.5581 12.5404 32.5581H18.9522C19.1223 32.5581 19.2854 32.4905 19.4056 32.3703C19.5258 32.25 19.5934 32.087 19.5934 31.9169C19.5934 31.7469 19.5258 31.5838 19.4056 31.4635C19.2854 31.3433 19.1223 31.2757 18.9522 31.2757ZM9.97563 31.2663H7.4109C7.24084 31.2663 7.07776 31.3339 6.95751 31.4541C6.83727 31.5744 6.76971 31.7375 6.76971 31.9075C6.76971 32.0776 6.83727 32.2407 6.95751 32.3609C7.07776 32.4811 7.24084 32.5487 7.4109 32.5487H9.97563C10.1457 32.5487 10.3088 32.4811 10.429 32.3609C10.5493 32.2407 10.6168 32.0776 10.6168 31.9075C10.6168 31.7375 10.5493 31.5744 10.429 31.4541C10.3088 31.3339 10.1457 31.2663 9.97563 31.2663ZM18.9522 19.7344H12.5404C12.3703 19.7344 12.2072 19.802 12.087 19.9222C11.9667 20.0425 11.8992 20.2055 11.8992 20.3756C11.8992 20.5456 11.9667 20.7087 12.087 20.829C12.2072 20.9492 12.3703 21.0168 12.5404 21.0168H18.9522C19.1223 21.0168 19.2854 20.9492 19.4056 20.829C19.5258 20.7087 19.5934 20.5456 19.5934 20.3756C19.5934 20.2055 19.5258 20.0425 19.4056 19.9222C19.2854 19.802 19.1223 19.7344 18.9522 19.7344ZM9.97563 19.725H7.4109C7.24084 19.725 7.07776 19.7926 6.95751 19.9128C6.83727 20.0331 6.76971 20.1961 6.76971 20.3662C6.76971 20.5363 6.83727 20.6993 6.95751 20.8196C7.07776 20.9398 7.24084 21.0074 7.4109 21.0074H9.97563C10.1457 21.0074 10.3088 20.9398 10.429 20.8196C10.5493 20.6993 10.6168 20.5363 10.6168 20.3662C10.6168 20.1961 10.5493 20.0331 10.429 19.9128C10.3088 19.7926 10.1457 19.725 9.97563 19.725ZM26.6464 15.8873H12.5404C12.3703 15.8873 12.2072 15.9549 12.087 16.0751C11.9667 16.1953 11.8992 16.3584 11.8992 16.5285C11.8992 16.6985 11.9667 16.8616 12.087 16.9819C12.2072 17.1021 12.3703 17.1697 12.5404 17.1697H26.6464C26.8165 17.1697 26.9796 17.1021 27.0998 16.9819C27.2201 16.8616 27.2876 16.6985 27.2876 16.5285C27.2876 16.3584 27.2201 16.1953 27.0998 16.0751C26.9796 15.9549 26.8165 15.8873 26.6464 15.8873ZM9.97563 15.8779H7.4109C7.24084 15.8779 7.07776 15.9455 6.95751 16.0657C6.83727 16.186 6.76971 16.349 6.76971 16.5191C6.76971 16.6891 6.83727 16.8522 6.95751 16.9725C7.07776 17.0927 7.24084 17.1603 7.4109 17.1603H9.97563C10.1457 17.1603 10.3088 17.0927 10.429 16.9725C10.5493 16.8522 10.6168 16.6891 10.6168 16.5191C10.6168 16.349 10.5493 16.186 10.429 16.0657C10.3088 15.9455 10.1457 15.8779 9.97563 15.8779ZM26.6464 12.0402H12.5404C12.3703 12.0402 12.2072 12.1077 12.087 12.228C11.9667 12.3482 11.8992 12.5113 11.8992 12.6814C11.8992 12.8514 11.9667 13.0145 12.087 13.1348C12.2072 13.255 12.3703 13.3226 12.5404 13.3226H26.6464C26.8165 13.3226 26.9796 13.255 27.0998 13.1348C27.2201 13.0145 27.2876 12.8514 27.2876 12.6814C27.2876 12.5113 27.2201 12.3482 27.0998 12.228C26.9796 12.1077 26.8165 12.0402 26.6464 12.0402ZM9.97563 12.0308H7.4109C7.24084 12.0308 7.07776 12.0984 6.95751 12.2186C6.83727 12.3388 6.76971 12.5019 6.76971 12.672C6.76971 12.842 6.83727 13.0051 6.95751 13.1254C7.07776 13.2456 7.24084 13.3132 7.4109 13.3132H9.97563C10.1457 13.3132 10.3088 13.2456 10.429 13.1254C10.5493 13.0051 10.6168 12.842 10.6168 12.672C10.6168 12.5019 10.5493 12.3388 10.429 12.2186C10.3088 12.0984 10.1457 12.0308 9.97563 12.0308ZM24.7229 7.55191C24.7229 7.4677 24.7063 7.38431 24.6741 7.30651C24.6419 7.22871 24.5947 7.15802 24.5351 7.09847C24.4756 7.03893 24.4049 6.9917 24.3271 6.95949C24.2493 6.92727 24.1659 6.9107 24.0817 6.91072H9.97563C9.80558 6.91072 9.64249 6.97828 9.52225 7.09852C9.402 7.21877 9.33445 7.38186 9.33445 7.55191C9.33445 7.72196 9.402 7.88505 9.52225 8.00529C9.64249 8.12554 9.80558 8.19309 9.97563 8.19309H24.0817C24.1659 8.19311 24.2493 8.17654 24.3271 8.14433C24.4049 8.11211 24.4756 8.06489 24.5351 8.00534C24.5947 7.9458 24.6419 7.87511 24.6741 7.7973C24.7063 7.7195 24.7229 7.63612 24.7229 7.55191Z" fill="black"/>
</svg>
