<svg width="46" height="46" viewBox="0 0 46 46" fill="none" xmlns="http://www.w3.org/2000/svg">
<path d="M9.53292 28.1776C10.9374 26.7731 12.3419 25.3686 15.1509 25.3686H29.8981C30.5379 25.3641 31.1593 25.5825 31.6554 25.9865C32.1515 26.3904 32.4914 26.9546 32.6166 27.582L38.8258 21.3567C39.0691 21.1124 39.3581 20.9186 39.6765 20.7863C39.9948 20.654 40.3361 20.5859 40.6808 20.5859C41.0256 20.5859 41.3669 20.654 41.6852 20.7863C42.0035 20.9186 42.2926 21.1124 42.5358 21.3567C43.5635 22.3843 43.3734 23.879 42.5358 25.0666C41.1993 26.9617 38.1909 31.3144 36.5821 33.6443C36.0285 34.5478 35.2525 35.2943 34.3282 35.8125C33.4039 36.3308 32.3623 36.6035 31.3026 36.6046H19.3644C18.8212 36.6148 18.287 36.7461 17.8011 36.9891C17.3151 37.2321 16.8895 37.5806 16.5554 38.0091L8.12842 29.582L9.53292 28.1776Z" fill="#FDD5A6"/>
<path d="M2.51025 32.3932L6.72369 28.1797L17.9597 39.4157L13.7462 43.6292L2.51025 32.3932Z" fill="#FC6067"/>
<path d="M32.0048 12.0277C32.0048 14.4489 31.043 16.771 29.3309 18.483C27.6189 20.1951 25.2968 21.1569 22.8756 21.1569C20.4544 21.1569 18.1323 20.1951 16.4202 18.483C14.7082 16.771 13.7463 14.4489 13.7463 12.0277C13.7463 9.60645 14.7082 7.2844 16.4202 5.57233C18.1323 3.86027 20.4544 2.89844 22.8756 2.89844C25.2968 2.89844 27.6189 3.86027 29.3309 5.57233C31.043 7.2844 32.0048 9.60645 32.0048 12.0277Z" fill="#FCB860"/>
<path d="M23.785 21.1125C26.0384 20.8872 28.1277 19.8322 29.6468 18.1526C31.1659 16.473 32.0064 14.2886 32.005 12.0239C32.0037 9.75922 31.1605 7.5759 29.6393 5.89812C28.1182 4.22034 26.0277 3.16792 23.7739 2.94531C25.5825 3.67743 27.1314 4.93261 28.2223 6.55018C29.3133 8.16775 29.8968 10.0741 29.8979 12.0252C29.8991 13.9763 29.318 15.8834 28.229 17.5023C27.14 19.1212 25.5926 20.3782 23.785 21.1125Z" fill="#FCAA52"/>
<path d="M33.4089 28.1841C33.4122 28.6462 33.3237 29.1044 33.1485 29.532C32.9734 29.9596 32.715 30.3482 32.3885 30.6752C32.062 31.0022 31.6738 31.2612 31.2465 31.437C30.8191 31.6128 30.3611 31.702 29.899 31.6995H22.1743C22.0772 31.6908 21.9793 31.7024 21.8869 31.7336C21.7945 31.7647 21.7096 31.8148 21.6376 31.8806C21.5656 31.9464 21.5081 32.0265 21.4688 32.1158C21.4295 32.205 21.4092 32.3015 21.4092 32.399C21.4092 32.4965 21.4295 32.593 21.4688 32.6822C21.5081 32.7714 21.5656 32.8515 21.6376 32.9173C21.7096 32.9831 21.7945 33.0332 21.8869 33.0644C21.9793 33.0956 22.0772 33.1072 22.1743 33.0985H29.899C31.2021 33.0975 32.4515 32.5794 33.3729 31.658C34.2943 30.7366 34.8124 29.4872 34.8134 28.1842C34.8134 27.4018 34.6243 26.631 34.2622 25.9375L33.1952 27.0072C33.3344 27.3841 33.4067 27.7824 33.4089 28.1841Z" fill="#FDCA99"/>
<path d="M36.5822 33.6522C38.191 31.3223 41.1994 26.9696 42.5358 25.0746C43.3734 23.8869 43.5635 22.3923 42.5358 21.3646C42.2114 21.0404 41.8072 20.8075 41.3641 20.6894C40.9209 20.5714 40.4544 20.5723 40.0117 20.6921C40.0839 20.7533 40.1608 20.8057 40.2283 20.8749C40.5297 21.1784 40.7652 21.541 40.9198 21.9398C41.0745 22.3385 41.1451 22.765 41.1272 23.1924C41.0814 24.0191 40.7959 24.8146 40.3056 25.4817C38.9713 27.3708 35.9586 31.7247 34.3505 34.0562C33.6338 35.1313 32.6558 36.0066 31.5081 36.6001C32.5313 36.565 33.5299 36.2775 34.4152 35.7632C35.3005 35.2489 36.0449 34.5237 36.5822 33.6522Z" fill="#FDCA99"/>
<path d="M13.7463 43.632L17.9598 39.4185L16.471 37.9297L12.2603 42.1404L12.2568 42.1425L13.7463 43.632Z" fill="#FB4B5B"/>
<path d="M43.0324 20.8612C42.4081 20.2386 41.5624 19.8891 40.6808 19.8891C39.7992 19.8891 38.9535 20.2386 38.3292 20.8612L32.8668 26.3235C32.5533 25.8181 32.1162 25.4009 31.5968 25.1112C31.0775 24.8214 30.4928 24.6686 29.8981 24.6673H15.1509C12.0511 24.6673 10.4491 26.2686 9.03638 27.6821L8.12837 28.59L7.22037 27.6821C7.15517 27.6168 7.07777 27.5651 6.99258 27.5298C6.90739 27.4945 6.81607 27.4763 6.72385 27.4763C6.63164 27.4763 6.54032 27.4945 6.45513 27.5298C6.36994 27.5651 6.29253 27.6168 6.22734 27.6821L2.01385 31.8955C1.94862 31.9607 1.89688 32.0381 1.86158 32.1233C1.82628 32.2085 1.80811 32.2998 1.80811 32.3921C1.80811 32.4843 1.82628 32.5756 1.86158 32.6608C1.89688 32.746 1.94862 32.8234 2.01385 32.8886L13.2498 44.1246C13.315 44.1898 13.3924 44.2415 13.4776 44.2768C13.5628 44.3121 13.6541 44.3303 13.7463 44.3303C13.8386 44.3303 13.9299 44.3121 14.0151 44.2768C14.1003 44.2415 14.1777 44.1898 14.2429 44.1246L18.4564 39.9111C18.5216 39.8459 18.5733 39.7685 18.6086 39.6833C18.6439 39.5981 18.6621 39.5068 18.6621 39.4146C18.6621 39.3223 18.6439 39.231 18.6086 39.1458C18.5733 39.0606 18.5216 38.9832 18.4564 38.918L17.5587 38.0204C17.7971 37.7874 18.0796 37.6044 18.3897 37.482C18.6997 37.3597 19.0311 37.3004 19.3644 37.3078H31.3026C32.4764 37.3096 33.6311 37.0105 34.6565 36.4391C35.6819 35.8678 36.5438 35.0432 37.1599 34.0441C40.1418 29.7257 42.1436 26.8419 43.1099 25.4724C44.249 23.8567 44.2181 22.0469 43.0324 20.8612ZM13.7464 42.635L3.5034 32.392L6.72387 29.1716L16.9668 39.4145L13.7464 42.635ZM41.9618 24.6632C40.9935 26.0361 38.9889 28.924 36.0037 33.2458C35.5171 34.0578 34.8281 34.7295 34.004 35.1953C33.18 35.6611 32.2492 35.9051 31.3026 35.9033H19.3644C18.3194 35.8922 17.3127 36.2965 16.5658 37.0274L9.1214 29.583L10.0294 28.675C11.4263 27.2781 12.6326 26.0718 15.1509 26.0718H29.8981C30.4568 26.0718 30.9927 26.2938 31.3878 26.6888C31.7829 27.0839 32.0049 27.6198 32.0049 28.1785C32.0049 28.7373 31.7829 29.2731 31.3878 29.6682C30.9927 30.0633 30.4568 30.2853 29.8981 30.2853H22.1734C21.9871 30.2853 21.8085 30.3593 21.6768 30.491C21.5451 30.6227 21.4711 30.8013 21.4711 30.9875C21.4711 31.1738 21.5451 31.3524 21.6768 31.4841C21.8085 31.6158 21.9871 31.6898 22.1734 31.6898H29.8981C30.829 31.6887 31.7215 31.3184 32.3797 30.6602C33.038 30.0019 33.4083 29.1094 33.4093 28.1785C33.4036 28.0534 33.391 27.9286 33.3716 27.8048L39.3222 21.8542C39.6829 21.4945 40.1714 21.2925 40.6808 21.2925C41.1901 21.2925 41.6787 21.4945 42.0393 21.8542C42.8623 22.6771 42.5386 23.845 41.9618 24.6632ZM22.8756 21.8583C24.8201 21.8583 26.7209 21.2817 28.3377 20.2014C29.9545 19.1211 31.2146 17.5856 31.9587 15.7892C32.7028 13.9927 32.8975 12.0159 32.5182 10.1088C32.1388 8.20166 31.2025 6.44985 29.8275 5.07489C28.4526 3.69994 26.7008 2.76358 24.7936 2.38423C22.8865 2.00488 20.9097 2.19957 19.1133 2.94369C17.3168 3.68782 15.7813 4.94794 14.701 6.56472C13.6207 8.1815 13.0441 10.0823 13.0441 12.0268C13.047 14.6334 14.0838 17.1324 15.9269 18.9755C17.7701 20.8186 20.269 21.8554 22.8756 21.8583ZM22.8756 3.59982C24.5423 3.59982 26.1716 4.09405 27.5574 5.02002C28.9432 5.94599 30.0233 7.26211 30.6611 8.80194C31.299 10.3418 31.4658 12.0362 31.1407 13.6708C30.8155 15.3055 30.0129 16.8071 28.8344 17.9856C27.6559 19.1641 26.1543 19.9667 24.5196 20.2919C22.885 20.617 21.1906 20.4502 19.6507 19.8123C18.1109 19.1745 16.7948 18.0944 15.8688 16.7086C14.9429 15.3228 14.4486 13.6935 14.4486 12.0268C14.4511 9.79258 15.3397 7.65056 16.9195 6.07072C18.4994 4.49088 20.6414 3.60225 22.8756 3.59982ZM24.2801 14.1336C24.2796 13.7612 24.1315 13.4042 23.8682 13.141C23.6049 12.8777 23.248 12.7295 22.8756 12.7291C22.1925 12.7305 21.5323 12.4824 21.0192 12.0314C20.5061 11.5804 20.1754 10.9575 20.0891 10.2798C20.0029 9.60216 20.1671 8.91632 20.5509 8.35118C20.9347 7.78604 21.5116 7.3805 22.1734 7.21078V5.70656C22.1734 5.52032 22.2473 5.3417 22.379 5.21C22.5107 5.0783 22.6894 5.00431 22.8756 5.00431C23.0619 5.00431 23.2405 5.0783 23.3722 5.21C23.5039 5.3417 23.5779 5.52032 23.5779 5.70656V7.21078C24.1794 7.36553 24.7125 7.71547 25.0938 8.20576C25.475 8.69605 25.6828 9.29898 25.6846 9.92006C25.6846 10.1063 25.6106 10.2849 25.4789 10.4166C25.3472 10.5483 25.1686 10.6223 24.9824 10.6223C24.7961 10.6223 24.6175 10.5483 24.4858 10.4166C24.3541 10.2849 24.2801 10.1063 24.2801 9.92006C24.2801 9.64228 24.1977 9.37073 24.0434 9.13976C23.8891 8.90879 23.6697 8.72878 23.4131 8.62247C23.1564 8.51617 22.8741 8.48836 22.6016 8.54255C22.3292 8.59674 22.0789 8.73051 21.8825 8.92693C21.6861 9.12335 21.5523 9.37361 21.4981 9.64606C21.4439 9.9185 21.4717 10.2009 21.578 10.4575C21.6843 10.7142 21.8643 10.9335 22.0953 11.0879C22.3263 11.2422 22.5978 11.3246 22.8756 11.3246C23.5588 11.3231 24.2189 11.5712 24.732 12.0222C25.2451 12.4732 25.5759 13.0961 25.6621 13.7738C25.7483 14.4515 25.5841 15.1373 25.2003 15.7024C24.8165 16.2676 24.2396 16.6731 23.5779 16.8428V18.3471C23.5779 18.5333 23.5039 18.7119 23.3722 18.8436C23.2405 18.9753 23.0619 19.0493 22.8756 19.0493C22.6894 19.0493 22.5107 18.9753 22.379 18.8436C22.2473 18.7119 22.1734 18.5333 22.1734 18.3471V16.8428C21.5719 16.6881 21.0387 16.3381 20.6575 15.8479C20.2762 15.3576 20.0684 14.7546 20.0666 14.1336C20.0666 13.9473 20.1406 13.7687 20.2723 13.637C20.404 13.5053 20.5826 13.4313 20.7689 13.4313C20.9551 13.4313 21.1337 13.5053 21.2654 13.637C21.3971 13.7687 21.4711 13.9473 21.4711 14.1336C21.4711 14.5061 21.6191 14.8633 21.8825 15.1267C22.1459 15.3901 22.5031 15.5381 22.8756 15.5381C23.2481 15.5381 23.6053 15.3901 23.8687 15.1267C24.1321 14.8633 24.2801 14.5061 24.2801 14.1336Z" fill="black"/>
</svg>
