<svg width="45" height="45" viewBox="0 0 45 45" fill="none" xmlns="http://www.w3.org/2000/svg">
<path d="M19.3403 2.625L18.1837 7.25007C16.7263 7.62394 15.3297 8.20408 14.0363 8.9729L9.94397 6.51749L6.05822 10.4032L8.51364 14.497C7.74786 15.7899 7.17045 17.1856 6.79885 18.6416L2.16577 19.7996V25.2955L6.79081 26.4521C7.16469 27.9095 7.74483 29.3061 8.51364 30.5995L6.05822 34.6918L9.94397 38.5776L14.0377 36.1222C15.3307 36.888 16.7263 37.4654 18.1824 37.8369L19.3403 42.4701H24.8362L25.9928 37.845C27.4502 37.4711 28.8468 36.891 30.1402 36.1222L34.2325 38.5776L38.1183 34.6918L35.6629 30.5981C36.4287 29.3051 37.0061 27.9095 37.3776 26.4534L42.0107 25.2955V19.7996L37.3857 18.643C37.0118 17.1856 36.4317 15.789 35.6629 14.4956L38.1183 10.4033L34.2326 6.51749L30.1388 8.97292C28.8459 8.20714 27.4502 7.62973 25.9941 7.25814L24.8362 2.625H19.3403Z" fill="#F7F065"/>
<path d="M33.0799 22.5464C33.0799 25.4616 31.9218 28.2574 29.8605 30.3187C27.7991 32.3801 25.0034 33.5382 22.0882 33.5382C19.9142 33.5382 17.7891 32.8935 15.9815 31.6857C14.1739 30.4779 12.7651 28.7612 11.9331 26.7528C11.1012 24.7443 10.8835 22.5342 11.3076 20.402C11.7318 18.2699 12.7786 16.3113 14.3158 14.7741C15.8531 13.2369 17.8116 12.19 19.9438 11.7659C22.076 11.3418 24.286 11.5595 26.2945 12.3914C28.303 13.2233 30.0197 14.6322 31.2275 16.4397C32.4352 18.2473 33.0799 20.3725 33.0799 22.5464Z" fill="#FCB860"/>
<path d="M33.1196 7.18317L35.8554 9.91894C35.9652 10.0261 36.0353 10.1676 36.0541 10.3199C36.0728 10.4723 36.0391 10.6264 35.9584 10.7571L33.7051 14.508C34.3354 15.6321 34.8311 16.8265 35.1821 18.0666L37.3788 18.6175C37.0049 17.1686 36.4272 15.7801 35.6629 14.4937L38.1183 10.4014L34.2326 6.51562L33.1196 7.18317Z" fill="#FCDF54"/>
<path d="M33.1199 37.9096L34.2327 38.5773L38.1184 34.6915L35.663 30.5978C36.4243 29.3117 36.9993 27.9242 37.3708 26.4766L35.1754 27.0264C34.8267 28.2662 34.3333 29.4606 33.7052 30.5849L35.9585 34.3359C36.0392 34.4665 36.0729 34.6207 36.0542 34.773C36.0354 34.9254 35.9654 35.0668 35.8555 35.174L33.1199 37.9096Z" fill="#FCDF54"/>
<path d="M39.9498 19.7977V25.2935C39.949 25.4248 39.9101 25.5531 39.8377 25.6626C39.7653 25.7722 39.6625 25.8583 39.542 25.9105L42.0108 25.2935V19.7976L39.5398 19.1797C39.6609 19.2316 39.7642 19.3177 39.837 19.4275C39.9098 19.5373 39.949 19.6659 39.9498 19.7977Z" fill="#FCDF54"/>
<path d="M22.7959 2.625L23.8638 6.8903C24.5814 6.96444 25.2932 7.08733 25.9941 7.25811L24.8362 2.625H22.7959Z" fill="#FCDF54"/>
<path d="M22.7959 42.4688H24.8362L25.9928 37.8438C25.2911 38.0148 24.5786 38.1379 23.8601 38.2122L22.7959 42.4688Z" fill="#FCDF54"/>
<path d="M23.5213 33.4406C26.1642 33.0942 28.5911 31.7988 30.3497 29.7957C32.1083 27.7925 33.0786 25.2183 33.0798 22.5528C33.0786 19.8862 32.1076 17.311 30.3478 15.3076C28.588 13.3041 26.1596 12.0091 23.5154 11.6641C25.7214 12.5052 27.6199 13.9964 28.9596 15.9404C30.2992 17.8844 31.0169 20.1894 31.0176 22.5503C31.0182 24.9112 30.3018 27.2166 28.9631 29.1613C27.6245 31.106 25.7268 32.5983 23.5213 33.4406Z" fill="#FCAA52"/>
<path d="M42.1771 19.1329L37.9439 18.0742C37.5916 16.8291 37.0935 15.63 36.4599 14.5018L38.7073 10.7562C38.7862 10.6249 38.8188 10.4709 38.8001 10.3188C38.7814 10.1668 38.7124 10.0253 38.604 9.91697L34.7183 6.03123C34.61 5.92275 34.4686 5.85364 34.3164 5.83491C34.1643 5.81619 34.0103 5.84893 33.879 5.92792L30.1314 8.17536C29.0037 7.54502 27.8058 7.04942 26.5624 6.69875L25.5023 2.4581C25.4654 2.3094 25.3797 2.17736 25.259 2.08301C25.1382 1.98866 24.9894 1.93743 24.8362 1.9375H19.3403C19.1871 1.93753 19.0383 1.98879 18.9176 2.08312C18.7969 2.17746 18.7112 2.30945 18.6741 2.4581L17.6148 6.69137C16.3702 7.0443 15.1713 7.54239 14.043 8.17536L10.2975 5.9279C10.1661 5.84924 10.0121 5.81668 9.86012 5.83539C9.70809 5.85411 9.56665 5.92302 9.45823 6.03122L5.57249 9.91697C5.46415 10.0253 5.39514 10.1668 5.37642 10.3188C5.3577 10.4709 5.39035 10.6249 5.46918 10.7562L7.71662 14.5038C7.08647 15.6316 6.59087 16.8295 6.24001 18.0729L1.99936 19.1329C1.85066 19.1699 1.71862 19.2555 1.62427 19.3763C1.52992 19.497 1.47869 19.6458 1.47876 19.7991V25.2949C1.47879 25.4481 1.53005 25.5969 1.62438 25.7176C1.71872 25.8383 1.85071 25.9241 1.99936 25.9611L6.23263 27.0204C6.58556 28.2651 7.08365 29.4639 7.71662 30.5922L5.46916 34.3377C5.39034 34.4691 5.35769 34.6231 5.37641 34.7752C5.39514 34.9272 5.46415 35.0687 5.57249 35.177L9.45823 39.0628C9.5668 39.1707 9.70821 39.2394 9.86017 39.2581C10.0121 39.2768 10.166 39.2445 10.2975 39.1661L14.0451 36.9186C15.1729 37.5488 16.3708 38.0444 17.6141 38.3952L18.6742 42.6359C18.7111 42.7846 18.7968 42.9166 18.9175 43.011C19.0383 43.1053 19.1871 43.1565 19.3403 43.1565H24.8362C24.9894 43.1565 25.1382 43.1052 25.2589 43.0109C25.3796 42.9165 25.4653 42.7845 25.5024 42.6359L26.5617 38.4026C27.8063 38.0497 29.0052 37.5516 30.1335 36.9186L33.879 39.1661C34.0104 39.2447 34.1644 39.2773 34.3164 39.2586C34.4684 39.2399 34.6099 39.171 34.7183 39.0628L38.604 35.177C38.7123 35.0687 38.7814 34.9272 38.8001 34.7752C38.8188 34.6231 38.7862 34.4691 38.7073 34.3377L36.4599 30.5902C37.09 29.4624 37.5856 28.2645 37.9365 27.0211L42.1771 25.9611C42.3258 25.9241 42.4579 25.8384 42.5522 25.7177C42.6466 25.597 42.6978 25.4481 42.6977 25.2949V19.7991C42.6977 19.6459 42.6465 19.4971 42.5521 19.3764C42.4578 19.2556 42.3258 19.1699 42.1771 19.1329ZM41.3238 24.7582L37.2113 25.7867C37.091 25.8167 36.9811 25.8786 36.8932 25.966C36.8053 26.0535 36.7428 26.163 36.7121 26.2831C36.3567 27.6758 35.8044 29.0107 35.0718 30.2474C35.0086 30.3539 34.9754 30.4756 34.9757 30.5995C34.9761 30.7234 35.01 30.8449 35.0738 30.9511L37.2535 34.5846L34.1259 37.7123L30.4937 35.5326C30.3874 35.4688 30.2657 35.435 30.1417 35.4348C30.0177 35.4345 29.8959 35.4679 29.7893 35.5312C28.5522 36.2666 27.2164 36.8214 25.8224 37.1789C25.7024 37.2095 25.5929 37.2721 25.5056 37.36C25.4183 37.4479 25.3564 37.5578 25.3266 37.678L24.3002 41.7825H19.877L18.8486 37.67C18.8186 37.5497 18.7566 37.4398 18.6692 37.3519C18.5818 37.2641 18.4722 37.2015 18.3521 37.1709C16.9594 36.8155 15.6245 36.2631 14.3879 35.5306C14.2812 35.4676 14.1596 35.4346 14.0357 35.435C13.9119 35.4353 13.7904 35.469 13.6841 35.5326L10.0506 37.7123L6.92296 34.5846L9.10266 30.9525C9.16658 30.8462 9.20047 30.7245 9.20071 30.6004C9.20095 30.4764 9.16754 30.3546 9.10404 30.248C8.36869 29.011 7.81386 27.6752 7.45635 26.2811C7.42571 26.1611 7.36312 26.0516 7.27523 25.9643C7.18735 25.877 7.07745 25.8152 6.95722 25.7853L2.85273 24.7589V20.3358L6.96523 19.3073C7.0855 19.2773 7.19542 19.2154 7.2833 19.1279C7.37118 19.0405 7.43375 18.931 7.46437 18.8108C7.81978 17.4181 8.37212 16.0833 9.10468 14.8466C9.16792 14.7401 9.20113 14.6184 9.20078 14.4945C9.20043 14.3705 9.16652 14.249 9.10266 14.1429L6.92296 10.5094L10.0506 7.3817L13.6828 9.5614C13.7891 9.62517 13.9108 9.65896 14.0348 9.6592C14.1588 9.65944 14.2806 9.62612 14.3872 9.56278C15.6243 8.82743 16.9601 8.2726 18.3541 7.91509C18.4741 7.88445 18.5836 7.82186 18.6709 7.73397C18.7582 7.64609 18.8201 7.53619 18.8499 7.41596L19.8764 3.31147H24.2995L25.3279 7.42397C25.3579 7.54424 25.4199 7.65416 25.5073 7.74204C25.5947 7.82992 25.7043 7.89249 25.8244 7.92311C27.2171 8.2785 28.552 8.83084 29.7886 9.56342C29.8953 9.62635 30.0169 9.65937 30.1408 9.65901C30.2646 9.65866 30.3861 9.62494 30.4924 9.5614L34.1259 7.3817L37.2535 10.5094L35.0738 14.1415C35.0099 14.2478 34.976 14.3695 34.9758 14.4935C34.9755 14.6176 35.009 14.7394 35.0725 14.8459C35.808 16.0829 36.3628 17.4188 36.7201 18.8129C36.7509 18.9328 36.8135 19.0423 36.9014 19.1295C36.9893 19.2168 37.0991 19.2787 37.2193 19.3086L41.3238 20.3351V24.7582ZM22.0883 10.8683C19.7784 10.8683 17.5205 11.5532 15.5999 12.8365C13.6794 14.1198 12.1825 15.9437 11.2985 18.0777C10.4146 20.2117 10.1833 22.5599 10.6339 24.8254C11.0846 27.0908 12.1969 29.1718 13.8302 30.8051C15.4635 32.4384 17.5444 33.5507 19.8098 34.0013C22.0753 34.4519 24.4235 34.2206 26.5575 33.3367C28.6915 32.4528 30.5155 30.9559 31.7987 29.0353C33.082 27.1148 33.767 24.8568 33.767 22.547C33.7635 19.4507 32.532 16.4821 30.3425 14.2927C28.1531 12.1033 25.1846 10.8717 22.0883 10.8683ZM22.0883 32.8517C20.0502 32.8517 18.0578 32.2474 16.3632 31.1151C14.6686 29.9828 13.3478 28.3734 12.5679 26.4904C11.788 24.6075 11.5839 22.5356 11.9815 20.5366C12.3791 18.5377 13.3606 16.7016 14.8017 15.2604C16.2428 13.8193 18.079 12.8379 20.0779 12.4402C22.0768 12.0426 24.1488 12.2467 26.0317 13.0266C27.9147 13.8066 29.524 15.1274 30.6563 16.822C31.7886 18.5166 32.393 20.5089 32.393 22.547C32.39 25.2791 31.3034 27.8984 29.3715 29.8302C27.4396 31.7621 24.8203 32.8488 22.0883 32.8517ZM20.0273 19.7991C20.0279 20.3455 20.2452 20.8693 20.6316 21.2557C21.018 21.6421 21.5418 21.8594 22.0883 21.86C22.9394 21.8601 23.7603 22.1761 24.3917 22.747C25.0231 23.3178 25.4201 24.1028 25.5056 24.9497C25.5912 25.7966 25.3592 26.6451 24.8548 27.3307C24.3503 28.0163 23.6092 28.4901 22.7752 28.6604V30.1038C22.7752 30.286 22.7029 30.4607 22.574 30.5896C22.4452 30.7184 22.2705 30.7908 22.0883 30.7908C21.9061 30.7908 21.7313 30.7184 21.6025 30.5896C21.4736 30.4607 21.4013 30.286 21.4013 30.1038V28.6604C20.626 28.5011 19.9294 28.0793 19.4289 27.4663C18.9283 26.8532 18.6544 26.0864 18.6533 25.2949C18.6533 25.1127 18.7257 24.938 18.8545 24.8092C18.9834 24.6803 19.1581 24.6079 19.3403 24.6079C19.5225 24.6079 19.6973 24.6803 19.8261 24.8092C19.9549 24.938 20.0273 25.1127 20.0273 25.2949C20.0273 25.7025 20.1482 26.101 20.3746 26.4399C20.6011 26.7788 20.923 27.043 21.2996 27.199C21.6761 27.355 22.0905 27.3958 22.4903 27.3163C22.8901 27.2367 23.2573 27.0405 23.5456 26.7522C23.8338 26.464 24.0301 26.0968 24.1096 25.697C24.1891 25.2972 24.1483 24.8828 23.9923 24.5062C23.8363 24.1296 23.5722 23.8078 23.2333 23.5813C22.8943 23.3548 22.4959 23.234 22.0883 23.234C21.2371 23.2339 20.4162 22.9178 19.7848 22.347C19.1534 21.7761 18.7565 20.9912 18.6709 20.1443C18.5853 19.2974 18.8173 18.4489 19.3218 17.7633C19.8262 17.0777 20.5673 16.6039 21.4013 16.4336V14.9902C21.4013 14.808 21.4736 14.6332 21.6025 14.5044C21.7313 14.3756 21.9061 14.3032 22.0883 14.3032C22.2705 14.3032 22.4452 14.3756 22.574 14.5044C22.7029 14.6332 22.7752 14.808 22.7752 14.9902V16.4336C23.5505 16.5929 24.2471 17.0147 24.7476 17.6277C25.2482 18.2407 25.5221 19.0076 25.5232 19.7991C25.5232 19.9813 25.4508 20.156 25.322 20.2848C25.1931 20.4137 25.0184 20.486 24.8362 20.486C24.654 20.486 24.4792 20.4137 24.3504 20.2848C24.2216 20.156 24.1492 19.9813 24.1492 19.7991C24.1492 19.2525 23.9321 18.7283 23.5456 18.3417C23.1591 17.9552 22.6348 17.7381 22.0883 17.7381C21.5417 17.7381 21.0174 17.9552 20.6309 18.3417C20.2444 18.7283 20.0273 19.2525 20.0273 19.7991Z" fill="black"/>
</svg>
