<svg width="40" height="40" viewBox="0 0 40 40" fill="none" xmlns="http://www.w3.org/2000/svg">
<path d="M29.854 26.6916V33.4088H36.5711L34.0367 30.8743L34.0437 30.872C36.4784 27.749 37.7965 23.9003 37.7875 19.9403C37.7786 15.9804 36.4431 12.1376 33.9943 9.02565C31.5455 5.91366 28.1246 3.7119 24.2778 2.77193C20.431 1.83196 16.3802 2.20799 12.7722 3.83998L13.8659 6.02734C16.9544 4.65161 20.4122 4.33981 23.697 5.14082C26.9818 5.94184 29.9079 7.81037 32.0164 10.4534C34.125 13.0965 35.2967 16.3646 35.3479 19.7452C35.3991 23.1259 34.3269 26.428 32.2994 29.1337L29.854 26.6916Z" fill="#68B1FC"/>
<path d="M10.313 13.2562V6.53906H3.59581L6.13025 9.0735L6.12333 9.07581C3.68861 12.1988 2.37049 16.0476 2.37944 20.0075C2.38839 23.9675 3.72389 27.8102 6.17271 30.9222C8.62152 34.0342 12.0424 36.236 15.8892 37.1759C19.736 38.1159 23.7868 37.7399 27.3948 36.1079L26.3011 33.9206C23.2126 35.2963 19.7548 35.6081 16.47 34.8071C13.1852 34.006 10.2591 32.1375 8.15059 29.4945C6.04206 26.8514 4.87032 23.5833 4.81911 20.2027C4.76789 16.822 5.8401 13.5199 7.86761 10.8142L10.313 13.2562Z" fill="#68B1FC"/>
<path d="M29.2429 19.9723C29.2429 22.4016 28.2778 24.7314 26.5601 26.4492C24.8423 28.167 22.5124 29.132 20.0831 29.132C17.6538 29.132 15.324 28.167 13.6062 26.4492C11.8884 24.7314 10.9233 22.4016 10.9233 19.9723C10.9233 17.543 11.8884 15.2131 13.6062 13.4953C15.324 11.7775 17.6538 10.8125 20.0831 10.8125C22.5124 10.8125 24.8423 11.7775 26.5601 13.4953C28.2778 15.2131 29.2429 17.543 29.2429 19.9723Z" fill="#FCB860"/>
<path d="M21.1812 29.0648C23.4029 28.7981 25.45 27.7266 26.9354 26.053C28.4209 24.3795 29.2418 22.2197 29.2429 19.9819C29.2441 17.7442 28.4255 15.5836 26.9418 13.9084C25.4581 12.2333 23.4122 11.1597 21.1907 10.8906C23.0237 11.6014 24.5988 12.8499 25.7092 14.4723C26.8196 16.0947 27.4133 18.015 27.4122 19.981C27.4112 21.947 26.8155 23.8667 25.7035 25.4879C24.5914 27.1091 23.0149 28.356 21.1812 29.0648Z" fill="#FCAA52"/>
<path d="M7.87029 10.8136C5.54582 13.9135 4.48662 17.7811 4.90728 21.6329C5.32794 25.4846 7.19701 29.0324 10.1358 31.5575C8.38936 30.3984 6.91237 28.8776 5.80483 27.098C4.69729 25.3184 3.98507 23.3216 3.71639 21.2429C3.44772 19.1641 3.62885 17.0518 4.24754 15.0491C4.86623 13.0465 5.90802 11.2001 7.30238 9.63507L9.09159 11.4243V6.53906H10.3129V13.2562L7.87029 10.8136Z" fill="#539FFB"/>
<path d="M34.0367 30.874L36.571 33.4082H35.4535C35.4542 33.3273 35.4383 33.247 35.4068 33.1724C35.3753 33.0979 35.3288 33.0305 35.2703 32.9747L32.6933 30.416H32.6872C34.3158 28.0725 35.3738 25.3806 35.7769 22.5554C36.1799 19.7302 35.9167 16.8498 35.0084 14.1444C34.1 11.439 32.5717 8.98341 30.5454 6.9738C28.5191 4.9642 26.051 3.45623 23.3381 2.57031C26.3264 3.12902 29.1205 4.44761 31.4515 6.39913C33.7824 8.35066 35.5718 10.8694 36.6472 13.7129C37.7226 16.5563 38.0479 19.6288 37.5918 22.6344C37.1357 25.64 35.9135 28.4776 34.0429 30.874H34.0367Z" fill="#539FFB"/>
<path d="M34.8481 30.8235C37.1703 27.6848 38.417 23.8802 38.4029 19.9758C38.4013 16.9126 37.632 13.8987 36.1653 11.2094C34.6987 8.52017 32.5814 6.24138 30.0071 4.58131C27.4327 2.92123 24.4834 1.93282 21.4286 1.7064C18.3738 1.47997 15.3109 2.02276 12.52 3.28516C12.4452 3.31912 12.378 3.3678 12.3225 3.4283C12.267 3.48881 12.2242 3.55988 12.1968 3.63729C12.1693 3.71469 12.1578 3.79683 12.1628 3.8788C12.1678 3.96077 12.1893 4.04089 12.226 4.11437L13.3196 6.30172C13.39 6.44242 13.5119 6.55053 13.66 6.60353C13.8081 6.65652 13.9709 6.65031 14.1146 6.58618C17.0244 5.29041 20.2772 4.97761 23.3806 5.69509C26.4841 6.41257 29.2695 8.1213 31.3153 10.5628C33.3612 13.0042 34.5563 16.0456 34.7197 19.2267C34.8832 22.4078 34.0061 25.5557 32.2213 28.194L30.2855 26.2609C30.2001 26.1756 30.0912 26.1175 29.9728 26.094C29.8543 26.0705 29.7316 26.0826 29.62 26.1288C29.5085 26.1751 29.4131 26.2533 29.346 26.3538C29.2789 26.4542 29.2431 26.5722 29.2431 26.693V33.4101C29.2431 33.4903 29.2589 33.5698 29.2896 33.6438C29.3202 33.7179 29.3652 33.7853 29.4219 33.842C29.4786 33.8987 29.546 33.9437 29.6201 33.9743C29.6941 34.005 29.7736 34.0208 29.8538 34.0208H36.5709C36.6917 34.0208 36.8098 33.985 36.9102 33.9179C37.0106 33.8508 37.0888 33.7554 37.1351 33.6438C37.1813 33.5323 37.1934 33.4095 37.1698 33.291C37.1462 33.1726 37.0881 33.0638 37.0027 32.9784L34.8481 30.8235ZM30.4644 32.7995V28.1656L31.8676 29.567C31.9295 29.6289 32.0039 29.6767 32.0859 29.7072C32.1678 29.7378 32.2554 29.7504 32.3426 29.7442C32.4299 29.7379 32.5148 29.7131 32.5916 29.6712C32.6684 29.6293 32.7353 29.5714 32.7878 29.5014C34.8647 26.7273 35.9774 23.35 35.9561 19.8846C35.9349 16.4191 34.7808 13.0557 32.6699 10.3073C30.559 7.55892 27.6071 5.5763 24.2644 4.66184C20.9218 3.74737 17.3718 3.95124 14.1557 5.24235L13.6071 4.14568C16.2043 3.08588 19.0223 2.68091 21.8129 2.96642C24.6035 3.25193 27.281 4.21916 29.6099 5.78294C31.9387 7.34673 33.8473 9.4591 35.1676 11.9341C36.488 14.409 37.1796 17.1707 37.1816 19.9758C37.1953 23.7687 35.9346 27.4563 33.6018 30.4469C33.4883 30.5616 33.425 30.7165 33.4255 30.8778C33.4261 31.0391 33.4905 31.1936 33.6047 31.3074L35.0968 32.7995H30.4644ZM26.847 33.6499C26.7768 33.509 26.6547 33.4007 26.5065 33.3476C26.3582 33.2946 26.1952 33.301 26.0515 33.3654C23.1417 34.661 19.889 34.9737 16.7856 34.2562C13.6822 33.5387 10.897 31.8299 8.85119 29.3885C6.8054 26.9471 5.61041 23.9058 5.44698 20.7247C5.28356 17.5436 6.1606 14.3959 7.94542 11.7577L9.88118 13.6907C9.96662 13.776 10.0754 13.8341 10.1939 13.8576C10.3123 13.8811 10.4351 13.869 10.5467 13.8228C10.6582 13.7765 10.7536 13.6983 10.8206 13.5978C10.8877 13.4974 10.9235 13.3794 10.9236 13.2586V6.54147C10.9236 6.46127 10.9078 6.38186 10.8771 6.30776C10.8464 6.23366 10.8015 6.16634 10.7448 6.10963C10.688 6.05292 10.6207 6.00794 10.5466 5.97726C10.4725 5.94658 10.3931 5.9308 10.3129 5.93082H3.59575C3.47498 5.93082 3.35692 5.96663 3.25651 6.03373C3.15609 6.10082 3.07783 6.19619 3.03162 6.30777C2.98541 6.41934 2.97332 6.54212 2.99689 6.66057C3.02045 6.77901 3.07861 6.88781 3.16402 6.9732L5.31859 9.12807C2.9964 12.2668 1.74963 16.0714 1.76379 19.9758C1.76539 23.039 2.53468 26.0529 4.00133 28.7422C5.46798 31.4314 7.58523 33.7102 10.1596 35.3703C12.7339 37.0304 15.6833 38.0188 18.7381 38.2452C21.7929 38.4716 24.8557 37.9288 27.6467 36.6665C27.7215 36.6325 27.7886 36.5838 27.8442 36.5233C27.8997 36.4628 27.9425 36.3917 27.9699 36.3143C27.9974 36.2369 28.0089 36.1548 28.0039 36.0728C27.9989 35.9908 27.9774 35.9107 27.9407 35.8372L26.847 33.6499ZM20.0833 37.074C15.5502 37.069 11.2041 35.2659 7.99867 32.0605C4.79323 28.855 2.99018 24.509 2.98509 19.9758C2.97139 16.1829 4.23208 12.4953 6.56492 9.50468C6.67833 9.39001 6.74168 9.23508 6.74113 9.07381C6.74057 8.91253 6.67614 8.75804 6.56194 8.64416L5.0699 7.15212H9.70226V11.786L8.29908 10.3846C8.23654 10.3236 8.16196 10.2764 8.08012 10.2459C7.99828 10.2154 7.91098 10.2023 7.82379 10.2075C7.73657 10.2137 7.65171 10.2386 7.57495 10.2804C7.49819 10.3223 7.43134 10.3802 7.37892 10.4502C5.30195 13.2243 4.18926 16.6016 4.21055 20.0671C4.23184 23.5325 5.38593 26.8959 7.49683 29.6443C9.60773 32.3927 12.5596 34.3753 15.9022 35.2898C19.2449 36.2042 22.7949 36.0004 26.0109 34.7093L26.5596 35.8059C24.5046 36.6483 22.3043 37.0791 20.0833 37.074ZM20.0833 29.7462C22.0157 29.7462 23.9048 29.1732 25.5115 28.0996C27.1182 27.026 28.3705 25.5001 29.11 23.7148C29.8495 21.9295 30.043 19.965 29.666 18.0697C29.289 16.1744 28.3585 14.4335 26.9921 13.0671C25.6257 11.7007 23.8847 10.7701 21.9895 10.3931C20.0942 10.0161 18.1297 10.2096 16.3444 10.9491C14.559 11.6886 13.0331 12.9409 11.9595 14.5476C10.8859 16.1544 10.3129 18.0434 10.3129 19.9758C10.3159 22.5662 11.3462 25.0496 13.1779 26.8813C15.0095 28.7129 17.493 29.7433 20.0833 29.7462ZM20.0833 11.4267C21.7742 11.4267 23.4271 11.9281 24.833 12.8675C26.2389 13.8069 27.3346 15.142 27.9817 16.7042C28.6288 18.2663 28.7981 19.9853 28.4682 21.6437C28.1383 23.302 27.3241 24.8253 26.1285 26.0209C24.9329 27.2166 23.4096 28.0308 21.7512 28.3607C20.0928 28.6905 18.3739 28.5212 16.8117 27.8742C15.2496 27.2271 13.9144 26.1313 12.975 24.7254C12.0356 23.3195 11.5342 21.6667 11.5342 19.9758C11.5368 17.7092 12.4383 15.5362 14.041 13.9335C15.6437 12.3307 17.8167 11.4292 20.0833 11.4267ZM21.9153 22.4184C21.9148 21.9327 21.7216 21.4671 21.3781 21.1236C21.0347 20.7802 20.569 20.587 20.0833 20.5865C19.3267 20.5864 18.5971 20.3055 18.0358 19.798C17.4746 19.2906 17.1217 18.5929 17.0457 17.8401C16.9696 17.0873 17.1758 16.3331 17.6242 15.7237C18.0726 15.1142 18.7314 14.693 19.4727 14.5417V13.2586C19.4727 13.0967 19.537 12.9414 19.6515 12.8268C19.7661 12.7123 19.9214 12.648 20.0833 12.648C20.2453 12.648 20.4006 12.7123 20.5151 12.8268C20.6297 12.9414 20.694 13.0967 20.694 13.2586V14.5417C21.3831 14.6833 22.0023 15.0582 22.4472 15.6031C22.8922 16.148 23.1356 16.8297 23.1366 17.5332C23.1366 17.6952 23.0723 17.8505 22.9577 17.965C22.8432 18.0795 22.6879 18.1438 22.5259 18.1438C22.364 18.1438 22.2087 18.0795 22.0941 17.965C21.9796 17.8505 21.9153 17.6952 21.9153 17.5332C21.9153 17.1709 21.8078 16.8167 21.6066 16.5154C21.4053 16.2142 21.1191 15.9793 20.7844 15.8407C20.4496 15.702 20.0813 15.6658 19.7259 15.7364C19.3706 15.8071 19.0442 15.9816 18.7879 16.2378C18.5317 16.494 18.3573 16.8204 18.2866 17.1758C18.2159 17.5312 18.2522 17.8995 18.3908 18.2343C18.5295 18.569 18.7643 18.8551 19.0656 19.0564C19.3668 19.2577 19.721 19.3652 20.0833 19.3652C20.84 19.3652 21.5696 19.6462 22.1309 20.1536C22.6921 20.661 23.0449 21.3587 23.121 22.1115C23.197 22.8643 22.9909 23.6185 22.5424 24.2279C22.094 24.8374 21.4353 25.2586 20.694 25.4099V26.693C20.694 26.8549 20.6297 27.0102 20.5151 27.1248C20.4006 27.2393 20.2453 27.3036 20.0833 27.3036C19.9214 27.3036 19.7661 27.2393 19.6515 27.1248C19.537 27.0102 19.4727 26.8549 19.4727 26.693V25.4099C18.7836 25.2683 18.1644 24.8934 17.7195 24.3485C17.2745 23.8036 17.031 23.1219 17.0301 22.4184C17.0301 22.2565 17.0944 22.1011 17.2089 21.9866C17.3235 21.8721 17.4788 21.8078 17.6407 21.8078C17.8027 21.8078 17.958 21.8721 18.0725 21.9866C18.187 22.1011 18.2514 22.2565 18.2514 22.4184C18.2514 22.9043 18.4444 23.3702 18.7879 23.7138C19.1315 24.0574 19.5975 24.2504 20.0833 24.2504C20.5692 24.2504 21.0352 24.0574 21.3787 23.7138C21.7223 23.3702 21.9153 22.9043 21.9153 22.4184Z" fill="black"/>
</svg>
