<svg width="64" height="64" viewBox="0 0 64 64" fill="none" xmlns="http://www.w3.org/2000/svg">
<g clip-path="url(#clip0_24217_20267)">
<path d="M8.49644 11.5234C4.97644 11.5234 2.09644 14.4034 2.09644 17.9234V46.0834C2.09644 49.6034 4.97644 52.4834 8.49644 52.4834H54.5764C58.0964 52.4834 60.9764 49.6034 60.9764 46.0834V17.9234C60.9764 14.4034 58.0964 11.5234 54.5764 11.5234H8.49644ZM8.49644 14.0834H54.5764C56.7114 14.0834 58.4164 15.7884 58.4164 17.9234V46.0834C58.4164 48.2184 56.7114 49.9234 54.5764 49.9234H8.49644C6.36144 49.9234 4.65644 48.2184 4.65644 46.0834V17.9234C4.65644 15.7884 6.36144 14.0834 8.49644 14.0834ZM18.5764 21.7634C18.4364 21.7834 18.3014 21.8234 18.1764 21.8834L10.4964 25.7234C9.85644 26.0334 9.58644 26.8034 9.89644 27.4434C10.2064 28.0834 10.9764 28.3534 11.6164 28.0434L18.7364 24.4834L25.8564 28.0434C26.4964 28.3534 27.2664 28.0834 27.5764 27.4434C27.8864 26.8034 27.6164 26.0334 26.9764 25.7234L19.2964 21.8834C19.0714 21.7734 18.8214 21.7334 18.5764 21.7634ZM33.7364 23.0434C33.0314 23.1434 32.5364 23.7984 32.6364 24.5034C32.7364 25.2084 33.3914 25.7034 34.0964 25.6034H52.0164C52.4764 25.6084 52.9064 25.3684 53.1414 24.9684C53.3714 24.5684 53.3714 24.0784 53.1414 23.6784C52.9064 23.2784 52.4764 23.0384 52.0164 23.0434H34.0964C34.0564 23.0434 34.0164 23.0434 33.9764 23.0434C33.9364 23.0434 33.8964 23.0434 33.8564 23.0434C33.8164 23.0434 33.7764 23.0434 33.7364 23.0434ZM33.7364 28.1634C33.0314 28.2634 32.5364 28.9184 32.6364 29.6234C32.7364 30.3284 33.3914 30.8234 34.0964 30.7234H48.1764C48.6364 30.7284 49.0664 30.4884 49.3014 30.0884C49.5314 29.6884 49.5314 29.1984 49.3014 28.7984C49.0664 28.3984 48.6364 28.1584 48.1764 28.1634H34.0964C34.0564 28.1634 34.0164 28.1634 33.9764 28.1634C33.9364 28.1634 33.8964 28.1634 33.8564 28.1634C33.8164 28.1634 33.7764 28.1634 33.7364 28.1634ZM33.7364 33.2834C33.0314 33.3834 32.5364 34.0384 32.6364 34.7434C32.7364 35.4484 33.3914 35.9434 34.0964 35.8434H52.0164C52.4764 35.8484 52.9064 35.6084 53.1414 35.2084C53.3714 34.8084 53.3714 34.3184 53.1414 33.9184C52.9064 33.5184 52.4764 33.2784 52.0164 33.2834H34.0964C34.0564 33.2834 34.0164 33.2834 33.9764 33.2834C33.9364 33.2834 33.8964 33.2834 33.8564 33.2834C33.8164 33.2834 33.7764 33.2834 33.7364 33.2834ZM33.7364 38.4034C33.0314 38.5034 32.5364 39.1584 32.6364 39.8634C32.7364 40.5684 33.3914 41.0634 34.0964 40.9634H48.1764C48.6364 40.9684 49.0664 40.7284 49.3014 40.3284C49.5314 39.9284 49.5314 39.4384 49.3014 39.0384C49.0664 38.6384 48.6364 38.3984 48.1764 38.4034H34.0964C34.0564 38.4034 34.0164 38.4034 33.9764 38.4034C33.9364 38.4034 33.8964 38.4034 33.8564 38.4034C33.8164 38.4034 33.7764 38.4034 33.7364 38.4034Z" fill="black"/>
<path d="M18.065 28.2969C17.9767 28.2957 17.889 28.312 17.807 28.345C17.725 28.3779 17.6504 28.4268 17.5875 28.4888C17.5246 28.5509 17.4746 28.6248 17.4405 28.7063C17.4064 28.7878 17.3889 28.8753 17.3889 28.9636C17.3889 29.052 17.4064 29.1394 17.4405 29.2209C17.4746 29.3024 17.5246 29.3764 17.5875 29.4384C17.6504 29.5004 17.725 29.5493 17.807 29.5823C17.889 29.6152 17.9767 29.6315 18.065 29.6303H19.6601L20.3541 30.9636H19.2903L17.2903 31.6303H15.5064L13.5064 30.9636H10.7317C10.6434 30.9624 10.5557 30.9787 10.4737 31.0116C10.3917 31.0446 10.3171 31.0935 10.2542 31.1555C10.1913 31.2175 10.1413 31.2914 10.1072 31.373C10.0731 31.4545 10.0555 31.5419 10.0555 31.6303C10.0555 31.7186 10.0731 31.8061 10.1072 31.8876C10.1413 31.9691 10.1913 32.043 10.2542 32.105C10.3171 32.1671 10.3917 32.216 10.4737 32.2489C10.5557 32.2819 10.6434 32.2982 10.7317 32.2969H13.2903L14.6848 32.7618L15.8124 33.6068L14.6549 34.7644C14.1924 34.4722 13.6491 34.2969 13.065 34.2969C11.4161 34.2969 10.065 35.648 10.065 37.2969C10.065 38.9459 11.4161 40.2969 13.065 40.2969C14.6441 40.2969 15.9363 39.0544 16.0442 37.5014L19.5025 36.9558C19.6594 36.931 19.8023 36.851 19.9054 36.7302C20.0085 36.6094 20.0651 36.4558 20.065 36.2969V34.2969L20.1002 34.2618C20.8402 34.1278 21.3931 33.6021 21.3971 32.9701L22.4661 35.0248C21.8191 35.5764 21.3984 36.3861 21.3984 37.2969C21.3984 38.9459 22.7494 40.2969 24.3984 40.2969C26.0473 40.2969 27.3984 38.9459 27.3984 37.2969C27.3984 35.648 26.0473 34.2969 24.3984 34.2969C24.1373 34.2969 23.8878 34.3414 23.6458 34.405L22.7187 32.6238C22.771 32.5807 22.7701 32.5726 22.8515 32.5183C23.0446 32.3896 23.2873 32.2969 23.3984 32.2969H25.3984C25.4867 32.2982 25.5744 32.2819 25.6564 32.2489C25.7384 32.216 25.813 32.1671 25.8759 32.105C25.9388 32.043 25.9888 31.9691 26.0229 31.8876C26.057 31.8061 26.0745 31.7186 26.0745 31.6303C26.0745 31.5419 26.057 31.4545 26.0229 31.373C25.9888 31.2914 25.9388 31.2175 25.8759 31.1555C25.813 31.0935 25.7384 31.0446 25.6564 31.0116C25.5744 30.9787 25.4867 30.9624 25.3984 30.9636H23.3984C22.8452 30.9636 22.4237 31.2023 22.1171 31.4063L22.0533 31.3425L20.8437 29.0157C20.615 28.5756 20.1566 28.2969 19.6601 28.2969H18.065ZM17.0077 34.2969H18.7317V35.7266L15.8437 36.1824C15.7762 36.0157 15.6926 35.8575 15.5976 35.7071L17.0077 34.2969ZM13.065 35.6303C13.6609 35.6303 14.1757 35.9365 14.47 36.3998L12.9609 36.6381C12.8743 36.6518 12.7914 36.6824 12.7167 36.7281C12.642 36.7739 12.577 36.8339 12.5255 36.9047C12.474 36.9756 12.4369 37.0559 12.4165 37.141C12.396 37.2262 12.3925 37.3146 12.4062 37.4011C12.4199 37.4876 12.4504 37.5706 12.4962 37.6453C12.5419 37.72 12.602 37.785 12.6728 37.8365C12.7437 37.888 12.824 37.925 12.9091 37.9455C12.9943 37.966 13.0827 37.9695 13.1692 37.9558L14.6718 37.7188C14.4867 38.4381 13.8465 38.9636 13.065 38.9636C12.1367 38.9636 11.3984 38.2253 11.3984 37.2969C11.3984 36.3686 12.1367 35.6303 13.065 35.6303ZM24.3984 35.6303C25.3267 35.6303 26.065 36.3686 26.065 37.2969C26.065 38.2253 25.3267 38.9636 24.3984 38.9636C23.47 38.9636 22.7317 38.2253 22.7317 37.2969C22.7317 36.8973 22.8742 36.5381 23.1041 36.2527L23.8072 37.6042C23.8455 37.6854 23.8998 37.7579 23.9668 37.8176C24.0338 37.8772 24.1121 37.9227 24.1971 37.9514C24.2822 37.98 24.3721 37.9912 24.4615 37.9843C24.5509 37.9774 24.6381 37.9525 24.7177 37.9112C24.7973 37.8698 24.8677 37.8128 24.9247 37.7435C24.9818 37.6743 25.0242 37.5943 25.0496 37.5082C25.075 37.4222 25.0828 37.3319 25.0724 37.2428C25.0621 37.1537 25.0339 37.0676 24.9895 36.9896L24.289 35.6407C24.3258 35.6383 24.3609 35.6303 24.3984 35.6303Z" fill="black"/>
</g>
<defs>
<clipPath id="clip0_24217_20267">
<rect width="64" height="64" fill="white"/>
</clipPath>
</defs>
</svg>
