<svg width="70" height="70" viewBox="0 0 70 70" fill="none" xmlns="http://www.w3.org/2000/svg">
<path d="M35.163 6.79688C32.6423 6.79688 30.5369 8.19278 27.4286 9.79172C24.3203 11.3907 20.1645 13.316 13.6571 14.745L12.7891 14.9372V15.8268C12.7891 31.3649 18.2241 41.7476 23.6845 48.1914C29.1449 54.6352 34.6987 57.2105 34.6987 57.2105L35.1867 57.435L35.6639 57.1932C35.6639 57.1932 57.5369 45.9079 57.5369 15.8268V14.9372L56.6689 14.745C50.1615 13.3161 46.0056 11.3907 42.8973 9.79172C39.789 8.19278 37.6836 6.79688 35.163 6.79688ZM35.163 9.00792C36.7925 9.00792 38.7058 10.1202 41.8868 11.7566C44.8914 13.3022 49.1439 15.1776 55.2546 16.6278C54.8652 43.9169 36.5652 54.1594 35.1457 54.9109C34.4625 54.5773 30.1543 52.4069 25.3709 46.762C20.2971 40.7745 15.2652 31.163 15.0692 16.6278C21.1811 15.1775 25.4342 13.3024 28.4391 11.7566C31.6202 10.1203 33.5335 9.00792 35.163 9.00792ZM35.163 20.0632C29.0704 20.0632 24.1077 25.0259 24.1077 31.1184C24.1077 37.2109 29.0704 42.1736 35.163 42.1736C41.2555 42.1736 46.2182 37.2109 46.2182 31.1184C46.2182 25.0259 41.2555 20.0632 35.163 20.0632ZM35.163 22.2742C40.0606 22.2742 44.0071 26.2208 44.0071 31.1184C44.0071 36.016 40.0606 39.9626 35.163 39.9626C30.2653 39.9626 26.3188 36.016 26.3188 31.1184C26.3188 26.2208 30.2653 22.2742 35.163 22.2742ZM34.0574 25.5908V30.0129H29.6353V32.2239H34.0574V36.646H36.2685V32.2239H40.6906V30.0129H36.2685V25.5908H34.0574Z" fill="black"/>
</svg>
