<svg width="260" height="180" viewBox="0 0 247 171" fill="none" xmlns="http://www.w3.org/2000/svg">
<g clip-path="url(#clip0_18579_16007)">
<path d="M191.886 141.206C195.44 139.776 196.249 110.876 185.481 97.2242C181.331 91.9619 176.163 86.2926 170.073 80.1561C148.311 58.8518 133.257 54.9893 125.238 58.046C124.815 58.2072 124.389 58.2312 124.005 58.4302C117.136 61.9948 126.616 95.2205 134.693 111.414C145.021 132.532 166.113 148.687 191.886 141.206Z" fill="white"/>
<path d="M179.195 143.377C177.285 143.378 175.377 143.248 173.485 142.988C167.881 142.218 162.447 140.305 157.335 137.305C147.988 131.819 139.844 122.671 134.404 111.548C130.227 103.173 125.919 90.8875 123.431 80.252C121.726 72.9606 119.513 60.3919 123.857 58.1373C124.112 58.0052 124.371 57.9423 124.623 57.8816C124.797 57.8392 124.962 57.7995 125.124 57.738C128.296 56.5285 133.909 55.8808 142.63 59.6631C150.942 63.2677 160.251 70.0827 170.298 79.9187C176.69 86.3587 181.738 91.9507 185.734 97.0175C188.55 100.587 192.25 107.342 193.892 119.252C194.898 126.553 194.806 134.343 193.663 138.634C193.228 140.266 192.671 141.23 192.007 141.497C191.997 141.501 191.986 141.505 191.976 141.507C187.688 142.752 183.408 143.377 179.195 143.377ZM130.666 57.4386C128.419 57.4386 126.667 57.8379 125.353 58.3389C125.154 58.415 124.96 58.4616 124.774 58.5067C124.55 58.5608 124.339 58.6122 124.153 58.7081C121.262 60.2085 121.227 68.0075 124.058 80.1056C126.497 90.5335 130.887 103.055 134.981 111.263C140.367 122.277 148.421 131.327 157.661 136.75C162.7 139.708 168.053 141.592 173.573 142.351C179.506 143.167 185.632 142.677 191.779 140.895C191.999 140.799 192.535 140.37 193.041 138.469C193.976 134.96 194.404 127.684 193.254 119.339C191.989 110.159 189.139 102.373 185.229 97.4156C181.247 92.3682 176.215 86.7941 169.845 80.3749C159.857 70.5974 150.613 63.8262 142.374 60.2529C137.511 58.1439 133.652 57.4386 130.666 57.4386Z" fill="#232323"/>
<path d="M181.144 91.7462C180.798 91.3492 170.959 74.23 158.892 65.578C140.968 52.7269 131.429 54.6664 125.331 57.38L119.288 57.3579C119.288 57.3579 115.739 58.0407 113.533 57.4303C106.172 55.3975 99.7664 57.9385 97.331 59.0646C97.1393 58.9612 96.0506 56.3005 96.0506 56.3005L79.9983 55.8669L79.9906 55.8753C74.2592 52.6172 65.6663 51.6848 56.8273 55.0166C39.4206 61.5782 17.804 78.5771 5.53411 98.0424C2.93722 102.161 1.18545 107.312 0.574512 111.846C0.295547 113.922 0.245236 115.956 0.432713 117.935L0.431941 117.935C0.432585 117.938 0.433228 117.943 0.433871 117.947L54.207 107.094C54.0773 107.066 53.9473 107.039 53.8171 107.014C53.8171 107.014 54.3784 106.965 55.3567 106.835C55.22 132.293 56.6627 162.609 56.12 164.604C107.396 177.282 154.667 164.517 154.667 164.517C154.631 159.364 153.998 146.809 152.916 134.157C153.474 134.645 154.036 135.088 154.599 135.474C164.515 142.276 176.67 145.353 190.168 141.954C190.75 141.821 187.473 81.8443 181.144 91.7462Z" fill="white"/>
<path d="M104.26 170.537C100.523 170.537 96.8107 170.445 93.1339 170.26C80.2378 169.61 67.7586 167.812 56.0429 164.916C56.0013 164.905 55.9621 164.887 55.9278 164.861C55.8934 164.836 55.8646 164.803 55.8428 164.767C55.8211 164.73 55.807 164.689 55.8013 164.646C55.7956 164.604 55.7985 164.561 55.8097 164.519C56.0503 163.635 55.8623 156.172 55.6244 146.723C55.3475 135.726 54.9691 120.702 55.0333 107.2C54.821 107.227 54.6352 107.249 54.4774 107.267C54.4541 107.304 54.4238 107.335 54.3883 107.359C54.3528 107.383 54.3128 107.4 54.2706 107.408L0.497549 118.261C0.452387 118.27 0.405802 118.27 0.36094 118.259C0.316078 118.249 0.273984 118.229 0.237501 118.201C0.201019 118.173 0.170998 118.137 0.149465 118.096C0.127933 118.056 0.115391 118.011 0.112686 117.965H0.112429C-0.0754344 115.981 -0.0271818 113.908 0.2559 111.803C0.899268 107.03 2.77057 101.822 5.26208 97.8705C11.1296 88.5622 19.3553 79.4234 29.05 71.4421C38.1504 63.9499 47.975 58.0097 56.7139 54.7153C60.9233 53.1286 65.3766 52.4151 69.5925 52.6532C73.4635 52.8714 77.0818 53.8716 80.0633 55.5464L96.0592 55.9786C96.1216 55.9803 96.1821 56 96.2334 56.0354C96.2848 56.0709 96.3247 56.1205 96.3483 56.1782C96.7477 57.1546 97.2182 58.2314 97.4446 58.6589C100.651 57.2177 106.8 55.2369 113.619 57.1199C115.725 57.7028 119.193 57.0481 119.227 57.0415C119.248 57.0376 119.27 57.035 119.289 57.0357L125.263 57.0575C131.698 54.2114 141.36 52.6114 159.079 65.3161C164.011 68.8522 171.814 76.1592 180.979 90.8891C181.041 90.9895 181.101 91.0857 181.155 91.172C181.717 90.4569 182.303 90.1894 182.901 90.3768C184.602 90.9096 185.711 95.2947 186.398 98.5468C187.253 102.6 188.049 108.092 188.765 114.868C190.022 126.785 190.642 139.092 190.547 141.552C190.533 141.915 190.521 142.202 190.24 142.267C177.654 145.436 165.265 143.179 154.417 135.739C154.035 135.475 153.662 135.196 153.302 134.902C154.314 146.931 154.953 159.324 154.989 164.515C154.99 164.586 154.967 164.655 154.924 164.711C154.881 164.768 154.82 164.809 154.751 164.827C154.633 164.859 142.697 168.044 124.651 169.635C117.831 170.236 111.006 170.537 104.26 170.537ZM56.4849 164.362C68.0745 167.207 80.41 168.975 93.1563 169.617C103.44 170.135 114.012 169.926 124.578 168.995C141.169 167.534 152.573 164.724 154.344 164.269C154.288 158.834 153.627 146.247 152.595 134.184C152.59 134.12 152.603 134.056 152.634 134C152.666 133.944 152.713 133.899 152.77 133.87C152.827 133.841 152.892 133.83 152.956 133.838C153.019 133.845 153.079 133.872 153.127 133.914C153.693 134.408 154.249 134.844 154.781 135.208C165.417 142.504 177.555 144.744 189.898 141.69C190.022 140.117 189.479 128.361 188.289 116.536C186.743 101.157 184.733 91.8553 182.775 91.0151C182.367 90.8402 181.91 91.1442 181.415 91.9186C181.388 91.9607 181.351 91.9959 181.308 92.0215C181.266 92.0471 181.217 92.0624 181.167 92.0661C181.117 92.0698 181.067 92.0618 181.021 92.0428C180.975 92.0238 180.934 91.9943 180.901 91.9567C180.849 91.8966 180.761 91.7561 180.432 91.2286C171.323 76.5884 163.588 69.3405 158.704 65.8384C141.192 53.2823 131.74 54.8792 125.462 57.6731C125.421 57.6913 125.376 57.7007 125.331 57.7007L119.318 57.6789C118.936 57.7499 115.614 58.3392 113.447 57.7393C106.646 55.861 100.515 57.9457 97.466 59.3557C97.4206 59.3767 97.371 59.3868 97.321 59.3852C97.271 59.3837 97.2221 59.3705 97.1781 59.3467C97.0711 59.2891 96.8938 59.1934 95.8322 56.6154L80.0389 56.1889C79.9686 56.2004 79.8951 56.1902 79.8317 56.1539C76.9194 54.4985 73.3662 53.5098 69.5562 53.2951C65.4296 53.0625 61.0672 53.7615 56.9407 55.3169C48.2662 58.5869 38.5063 64.4898 29.4589 71.9382C19.8165 79.8765 11.6376 88.9623 5.80611 98.2132C3.36144 102.091 1.52488 107.203 0.893349 111.888C0.6333 113.823 0.576169 115.729 0.722857 117.56L53.5143 106.905C53.5351 106.847 53.5719 106.797 53.6206 106.759C53.6692 106.722 53.7275 106.699 53.7886 106.693C53.7942 106.693 54.3557 106.643 55.3143 106.515C55.3599 106.509 55.4062 106.513 55.4503 106.526C55.4943 106.54 55.5349 106.562 55.5694 106.593C55.6039 106.623 55.6315 106.661 55.6503 106.702C55.6691 106.744 55.6787 106.79 55.6785 106.836C55.6054 120.423 55.988 135.614 56.2674 146.706C56.5262 156.972 56.6611 162.765 56.4849 164.362ZM85.6104 20.9058C87.3228 22.5486 90.405 25.9927 91.2679 29.7225C91.338 30.0222 91.3928 30.3252 91.4322 30.6304C95.1675 30.7804 104.194 36.1131 104.194 36.1131C104.194 36.1131 104.271 35.9505 104.414 35.6526C104.834 34.7768 105.828 32.7341 107.125 30.2329C107.564 29.3859 108.039 28.486 108.538 27.5604C108.906 26.8772 109.289 26.1791 109.681 25.4775C111.149 22.8525 112.746 20.1913 114.25 18.0838C115.319 16.5854 116.339 15.3664 117.233 14.6386L117.234 14.6383C117.243 14.6305 117.251 14.6229 117.261 14.6157C117.269 14.6089 117.285 14.5955 117.285 14.5955C117.285 14.5955 120.35 10.762 119.977 6.7183C119.719 3.92559 116.104 -0.951697 110.872 0.151936C109.045 0.537391 108.218 1.75973 106.993 3.19365C101.954 -2.9654 93.1146 2.05696 94.0211 7.9382C85.5522 5.63216 80.5632 16.0859 85.6104 20.9058Z" fill="#232323"/>
<path d="M128.656 39.0086C125.66 45.2217 117.493 46.0263 116.653 46.0944C116.646 46.0957 116.642 46.0957 116.642 46.0957C117.067 48.2833 117.541 50.4612 118.062 52.628C118.34 53.7819 119.551 57.2226 119.62 57.361C119.716 58.2914 119.594 60.521 117.719 62.3742C116.369 63.7079 114.272 64.3976 112.375 64.3267C98.2024 63.7972 96.4389 57.0209 96.3104 56.6065C96.3044 56.5895 96.2989 56.5723 96.2939 56.555C96.3128 56.2964 96.8566 47.7578 96.9952 43.8171C97.0028 43.5749 97.0116 43.3314 97.0191 43.0907V43.0894L97.0228 42.9658C82.6899 44.6834 81.88 29.0486 91.2891 29.823C93.2239 29.9807 95.5912 30.8357 98.3636 32.6768C103.362 35.5054 100.486 27.3084 105.418 20.8909C105.985 20.1508 106.658 19.4344 107.458 18.7611C109.351 17.1683 111.962 15.8178 115.607 14.9692C116.169 14.838 116.734 14.7232 117.302 14.625C117.396 14.8947 117.491 15.1637 117.587 15.4321C117.665 15.6501 117.744 15.8674 117.824 16.0841C117.855 16.1698 117.888 16.2556 117.919 16.3401C118.005 16.5727 118.093 16.8048 118.183 17.0362C118.26 17.2398 118.339 17.4428 118.42 17.6452C118.444 17.7083 118.468 17.7701 118.493 17.8333C119.267 19.7836 120.123 21.7004 121.059 23.5786C123.877 29.2243 129.197 29.9395 129.67 34.353C129.895 36.4409 129.102 38.0867 128.656 39.0085V39.0086Z" fill="white"/>
<path d="M112.649 64.6545C112.554 64.6545 112.458 64.6527 112.363 64.6492C106.47 64.4289 101.974 63.1258 99.0003 60.7759C96.9723 59.1731 96.2568 57.5523 96.0109 56.7285L96.0048 56.7078C95.9977 56.6875 95.9913 56.6671 95.9853 56.6465C95.9745 56.6096 95.9703 56.571 95.9731 56.5326C95.9973 56.2029 96.5377 47.6712 96.6737 43.8068L96.6896 43.3271C91.8653 43.8109 87.9758 42.343 85.9807 39.2711C84.5048 36.9985 84.3525 34.1898 85.5925 32.1155C86.7087 30.248 88.7947 29.2963 91.3156 29.5037C93.4684 29.6791 95.8963 30.6548 98.532 32.4037C99.4 32.8933 100.021 33.0399 100.432 32.8522C101.137 32.5291 101.415 31.1347 101.766 29.3692C102.249 26.9465 102.909 23.6288 105.163 20.6963C105.77 19.9046 106.472 19.1712 107.251 18.5163C109.356 16.745 112.143 15.4466 115.534 14.6571C116.081 14.5295 116.631 14.4174 117.184 14.3208L117.246 14.3096C117.322 14.2963 117.399 14.3103 117.465 14.3491C117.531 14.3878 117.581 14.4488 117.607 14.5211C117.699 14.7895 117.793 15.0568 117.89 15.3241C117.967 15.5428 118.046 15.7581 118.126 15.9734C118.15 16.0407 118.173 16.1027 118.196 16.1643L118.221 16.2291C118.306 16.4606 118.394 16.6912 118.483 16.922C118.561 17.1253 118.638 17.3271 118.718 17.5272C118.744 17.5937 118.767 17.6538 118.792 17.715C119.563 19.6571 120.416 21.566 121.347 23.4365C122.659 26.0641 124.539 27.6108 126.199 28.9752C128.093 30.5328 129.728 31.8781 129.99 34.3202C130.225 36.5018 129.393 38.2242 128.946 39.1496C126.125 44.9984 118.871 46.1751 117.025 46.3823C117.433 48.4488 117.882 50.5065 118.375 52.5544C118.653 53.7119 119.834 57.0515 119.911 57.2256C119.928 57.2603 119.936 57.2909 119.94 57.3294C119.991 57.8297 120.139 60.4359 117.945 62.6044C116.652 63.8824 114.644 64.6545 112.649 64.6545ZM96.6191 56.5171L96.6274 56.5447C96.9741 57.7053 99.3625 63.5198 112.387 64.0066C114.302 64.077 116.259 63.3656 117.493 62.1467C119.422 60.2403 119.352 57.9767 119.304 57.4379C119.102 56.9183 118.013 53.802 117.75 52.7043C117.227 50.5329 116.753 48.3503 116.326 46.1581C116.318 46.114 116.318 46.0686 116.329 46.0249C116.339 45.9811 116.358 45.9399 116.385 45.9039C116.412 45.868 116.446 45.8381 116.485 45.8161C116.524 45.7942 116.568 45.7807 116.612 45.7766C116.617 45.7759 116.622 45.7754 116.627 45.775C117.523 45.7023 125.463 44.8907 128.367 38.87C128.816 37.9415 129.566 36.3878 129.351 34.3885C129.117 32.2074 127.649 31.0001 125.79 29.4716C124.081 28.0662 122.144 26.4733 120.772 23.7232C119.832 21.8367 118.972 19.9115 118.194 17.9528C118.169 17.8889 118.144 17.8253 118.119 17.7604C118.039 17.5583 117.96 17.3556 117.882 17.1523C117.792 16.9197 117.704 16.6865 117.617 16.4527L117.594 16.3899C117.57 16.3243 117.545 16.2582 117.521 16.1918C117.44 15.9752 117.361 15.758 117.284 15.54C117.218 15.3573 117.153 15.1742 117.089 14.9908C116.603 15.0796 116.132 15.1774 115.681 15.283C112.389 16.0496 109.692 17.3027 107.666 19.0079C106.928 19.627 106.26 20.3243 105.673 21.0876C103.511 23.9013 102.867 27.1341 102.397 29.4946C101.995 31.5161 101.704 32.9768 100.699 33.4366C100.078 33.7211 99.2853 33.5691 98.205 32.9575C98.1983 32.9538 98.1918 32.9498 98.1855 32.9455C95.6378 31.2536 93.3088 30.311 91.2629 30.1443C88.9619 29.955 87.1446 30.772 86.1445 32.445C85.0294 34.3105 85.1769 36.8523 86.5202 38.9209C88.4273 41.8576 92.2412 43.2161 96.9845 42.6475C97.0304 42.642 97.077 42.6464 97.121 42.6605C97.1651 42.6746 97.2056 42.6981 97.2397 42.7292C97.2739 42.7604 97.3009 42.7986 97.319 42.8411C97.3371 42.8837 97.3457 42.9296 97.3444 42.9759L97.3169 43.8282C97.1851 47.569 96.6755 55.6693 96.6191 56.5172V56.5171Z" fill="#232323"/>
<path d="M105.095 24.7153L104.996 24.3952C104.972 24.2987 104.949 24.202 104.927 24.1052C104.892 23.9147 104.864 23.7122 104.859 23.5216C104.835 23.1252 104.862 22.7315 104.932 22.3435C105.078 21.5275 105.415 20.7574 105.915 20.0959C106.179 19.7429 106.489 19.4347 106.832 19.1658C107.183 18.8951 107.574 18.6798 107.99 18.5274C108.395 18.3791 108.824 18.3031 109.257 18.2968C109.678 18.2844 110.109 18.3599 110.497 18.5204C110.738 18.624 110.928 18.8185 111.026 19.0615C111.125 19.3045 111.123 19.5764 111.022 19.8181C110.983 19.9123 110.923 20.0033 110.857 20.0766L110.734 20.2199C110.494 20.4941 110.277 20.6896 110.091 20.8847C109.901 21.0707 109.742 21.2567 109.592 21.4091C109.289 21.7352 109.03 22.0156 108.748 22.3446C108.463 22.6646 108.175 23.0362 107.863 23.4561L107.362 24.123C107.278 24.2472 107.187 24.3661 107.089 24.4792C106.885 24.7713 106.608 24.9973 106.285 25.1481C106.119 25.225 105.929 25.2599 105.744 25.2522C105.492 25.2268 105.273 25.0891 105.148 24.8692C105.138 24.8118 105.11 24.7606 105.095 24.7153H105.095ZM107.576 26.8217C108.389 26.3311 110.374 25.2082 112 23.5402C112.225 23.3115 112.598 23.3056 112.836 23.528L112.839 23.537C113.437 24.1318 114.244 25.2518 112.986 26.248C111.45 27.4704 108.434 27.8836 107.558 27.3333C107.415 27.2404 107.38 27.0501 107.476 26.9162C107.503 26.8766 107.533 26.846 107.575 26.8215L107.576 26.8217ZM118.997 20.9477C118.14 21.3719 117.463 21.5224 115.767 21.8895C115.447 21.9584 115.237 22.2627 115.306 22.5831C115.476 23.405 116.141 24.0781 117.456 23.7805C118.931 23.4486 119.451 22.0975 119.436 21.2228C119.428 21.0533 119.291 20.9183 119.131 20.9225C119.079 20.92 119.043 20.9323 118.997 20.9477ZM114.25 18.0898C114.297 18.1104 114.345 18.127 114.395 18.1397C114.487 18.1608 114.582 18.1693 114.676 18.1649L114.844 18.1487C115.17 18.128 115.424 18.0718 115.669 18.0488C115.908 18.0074 116.126 17.9939 116.323 17.9768C116.725 17.9404 117.067 17.9047 117.451 17.8743C117.77 17.8498 118.116 17.8426 118.494 17.8359C118.072 16.7758 117.675 15.7061 117.303 14.6278L117.234 14.6444C117.243 14.6365 117.251 14.629 117.261 14.6218C117.269 14.6149 117.278 14.6081 117.285 14.6016C116.914 14.6093 116.543 14.6638 116.184 14.7572C115.849 14.8538 115.529 14.9922 115.229 15.1691L115.229 15.1694C115.185 15.1955 115.141 15.2221 115.097 15.2496C114.765 15.4639 114.483 15.733 114.243 16.0373C114.005 16.3379 113.834 16.6861 113.741 17.0583C113.634 17.4847 113.861 17.9172 114.25 18.0898ZM96.8614 42.6771C97.7771 42.6013 98.6749 42.3804 99.5211 42.0225C99.6942 41.9479 99.9006 42.0336 99.9744 42.2068C100.048 42.3799 99.9625 42.5862 99.7893 42.6602C98.8079 43.0792 97.7615 43.3256 96.6962 43.3886L96.8614 42.6771ZM117.769 51.5857C117.657 51.1246 117.549 50.6624 117.445 50.1994C117.14 48.8402 116.872 47.4729 116.642 46.099L116.679 45.7848C116.679 45.7848 111.702 45.6264 108.452 44.6683C107.716 45.5361 109.701 51.9082 117.769 51.5857ZM120.436 31.6737C120.106 32.1 119.672 32.4302 119.159 32.6156C118.662 32.8157 118.126 32.8985 117.592 32.8575C117.065 32.795 116.564 32.6021 116.125 32.2965C115.684 31.982 115.335 31.5549 115.126 31.06L115.123 31.051C115.058 30.891 114.873 30.8228 114.713 30.8876C114.58 30.9431 114.505 31.0799 114.525 31.225C114.651 31.9203 115.019 32.5533 115.567 33.0032C115.836 33.233 116.139 33.4196 116.465 33.5564C117.449 33.9789 118.575 33.9279 119.519 33.4336C119.83 33.2776 120.116 33.0777 120.369 32.8399C120.631 32.5987 120.831 32.2975 120.971 31.9666C121.037 31.8025 120.957 31.6277 120.793 31.5622C120.662 31.5056 120.508 31.5584 120.424 31.6681L120.436 31.6737ZM97.166 37.7613C97.3598 37.7355 97.4946 37.5681 97.469 37.3745C97.4595 37.3172 97.4378 37.2536 97.4011 37.2055C93.8008 32.2957 89.1303 34.265 89.0852 34.2805C88.9102 34.3606 88.8267 34.561 88.9068 34.7359C88.9869 34.9109 89.1841 34.9849 89.3623 34.9142C89.5314 34.8462 93.5799 33.1599 96.8438 37.6184C96.8798 37.6688 96.9287 37.7087 96.9854 37.7338C97.042 37.759 97.1044 37.7684 97.166 37.7611V37.7613Z" fill="#232323"/>
<path d="M118.624 28.205C118.702 28.1985 118.769 28.1555 118.82 28.0976C119.492 27.1905 119.738 26.55 119.613 26.006C119.46 25.3201 118.736 24.9501 117.909 24.5143C116.049 23.5415 115.99 22.4795 115.986 22.4704C115.985 22.319 115.854 22.202 115.703 22.2031C115.551 22.2043 115.431 22.3262 115.432 22.4776C115.433 22.538 115.464 23.8728 117.653 25.0067C118.476 25.4334 118.981 25.7261 119.078 26.1282C119.159 26.4845 118.936 27.0161 118.381 27.7619C118.291 27.8836 118.32 28.056 118.442 28.146C118.481 28.2031 118.557 28.2176 118.624 28.205Z" fill="#232323"/>
<mask id="mask0_18579_16007" style="mask-type:luminance" maskUnits="userSpaceOnUse" x="92" y="0" width="16" height="13">
<path d="M107.422 12.2743C107.422 12.2743 108.218 1.75744 106.993 3.19132C101.954 -2.96764 93.1147 2.0546 94.0213 7.93579C85.5523 5.62993 107.422 12.2743 107.422 12.2743Z" fill="white"/>
</mask>
<g mask="url(#mask0_18579_16007)">
<path d="M105.376 8.31509C105.295 8.31504 105.217 8.28467 105.158 8.23C105.099 8.17533 105.062 8.10035 105.055 8.01995C104.676 3.41647 108.325 0.851067 108.481 0.744159C108.516 0.720223 108.555 0.703372 108.596 0.694568C108.637 0.685764 108.68 0.685179 108.722 0.692848C108.763 0.700516 108.803 0.716287 108.838 0.739262C108.874 0.762236 108.904 0.791966 108.928 0.826748C108.952 0.86153 108.969 0.900686 108.978 0.941981C108.986 0.983276 108.987 1.0259 108.979 1.06742C108.972 1.10894 108.956 1.14854 108.933 1.18397C108.91 1.21939 108.88 1.24995 108.845 1.27388C108.811 1.29782 105.349 3.74251 105.697 7.96713C105.7 8.01147 105.695 8.05608 105.68 8.09815C105.666 8.14022 105.643 8.17883 105.613 8.21154C105.582 8.24424 105.546 8.27033 105.505 8.28816C105.464 8.30598 105.42 8.31515 105.376 8.31509Z" fill="white"/>
</g>
<mask id="mask1_18579_16007" style="mask-type:luminance" maskUnits="userSpaceOnUse" x="5" y="52" width="92" height="71">
<path d="M96.3124 56.3024L79.9982 55.8683C79.9982 55.8683 71.0058 49.5472 56.8272 55.0182C39.4721 61.7149 17.8041 78.5787 5.53403 98.0439C2.9374 102.163 88.0913 122.984 88.0913 122.984L96.3124 56.3024Z" fill="white"/>
</mask>
<g mask="url(#mask1_18579_16007)">
<path d="M48.4615 106.597C48.3806 106.596 48.3029 106.565 48.2439 106.51C48.1848 106.455 48.1488 106.379 48.1429 106.298C48.1371 106.218 48.1618 106.138 48.2123 106.075C48.2627 106.011 48.3351 105.969 48.4151 105.957C48.4648 105.95 53.4502 105.201 59.7017 103.009C65.4574 100.99 73.4956 97.2991 79.1037 91.1793C81.7196 88.3248 85.099 82.3997 86.0145 75.095C86.6909 69.7002 86.1567 62.0276 79.7719 56.112C79.7094 56.0541 79.6724 55.9736 79.6692 55.8884C79.6659 55.8032 79.6967 55.7202 79.7547 55.6576C79.8127 55.5951 79.8932 55.5582 79.9784 55.5549C80.0637 55.5517 80.1467 55.5824 80.2093 55.6404C86.7942 61.7415 87.348 69.6309 86.653 75.175C85.8839 81.3105 83.1069 87.7631 79.5782 91.6136C73.8768 97.8352 65.7311 101.577 59.9018 103.62C53.5946 105.831 48.559 106.586 48.5088 106.593C48.4931 106.596 48.4773 106.597 48.4615 106.597Z" fill="#232323"/>
</g>
<path d="M90.2039 165.013L40.6632 147.832C40.5834 147.805 40.5098 147.761 40.4467 147.705C40.3835 147.649 40.332 147.581 40.2952 147.505C40.2583 147.429 40.2368 147.347 40.2318 147.262C40.2269 147.178 40.2386 147.094 40.2663 147.014L62.9689 81.612C62.9966 81.5322 63.0398 81.4587 63.0959 81.3955C63.152 81.3324 63.2201 81.281 63.2961 81.2441C63.3721 81.2073 63.4547 81.1858 63.539 81.1808C63.6234 81.1758 63.7079 81.1875 63.7877 81.2152L113.328 98.3959C113.408 98.4236 113.482 98.4667 113.545 98.5229C113.608 98.579 113.66 98.647 113.696 98.7229C113.733 98.7989 113.755 98.8814 113.76 98.9658C113.765 99.0501 113.753 99.1345 113.725 99.2143L91.0226 164.616C90.9667 164.777 90.849 164.91 90.6954 164.984C90.5419 165.059 90.3651 165.069 90.2039 165.013Z" fill="#2E2E2E"/>
<path d="M94.1461 99.7111L77.8168 94.0481C77.737 94.0204 77.6634 93.9773 77.6002 93.9212C77.5371 93.8651 77.4856 93.7971 77.4487 93.7211C77.4119 93.6451 77.3903 93.5626 77.3854 93.4783C77.3804 93.394 77.3921 93.3095 77.4198 93.2297L81.5747 81.2604C81.6024 81.1806 81.6455 81.1071 81.7017 81.044C81.7578 80.9808 81.8258 80.9294 81.9019 80.8925C81.9779 80.8557 82.0604 80.8342 82.1448 80.8292C82.2291 80.8243 82.3136 80.836 82.3935 80.8637L98.7228 86.5266C98.8026 86.5543 98.8762 86.5975 98.9394 86.6536C99.0025 86.7097 99.054 86.7777 99.0908 86.8536C99.1277 86.9296 99.1492 87.0122 99.1542 87.0965C99.1591 87.1808 99.1474 87.2652 99.1197 87.345L94.9649 99.3143C94.9372 99.3941 94.894 99.4676 94.8379 99.5308C94.7818 99.5939 94.7137 99.6453 94.6377 99.6822C94.5617 99.719 94.4791 99.7406 94.3948 99.7455C94.3104 99.7505 94.2259 99.7388 94.1461 99.7111Z" fill="#232323"/>
<path d="M108.707 118.578C108.707 118.578 112.289 114.926 109.769 111.348C107.353 113.673 100.285 114.185 99.8968 112.755C99.5825 111.597 101.464 107.402 102.013 105.408C102.895 102.194 102.732 99.5612 98.0161 103.165C82.4753 117.246 59.6744 108.51 53.3294 107.299C49.2843 106.528 46.2351 105.967 45.5454 105.893C29.3203 104.147 1.573 116.912 1.573 116.913C1.71608 117.613 2.64614 132.932 18.2972 140.792C32.0562 147.702 66.0933 143.343 79.3395 141.303C81.6331 140.95 90.1349 139.35 92.5584 138.794C100.522 136.966 104.349 134.161 104.112 130.402C104.112 130.402 108.058 127.675 106.949 124.587C106.95 124.587 109.938 121.596 108.707 118.578Z" fill="white"/>
<path d="M42.3477 144.857C32.7551 144.858 23.7766 143.9 18.1529 141.076C4.72456 134.332 1.88705 122.148 1.29039 117.222C1.27675 117.109 1.26376 117.003 1.25797 116.974C1.24675 116.919 1.25009 116.862 1.26768 116.809C1.28526 116.756 1.31647 116.708 1.3582 116.67C1.43579 116.601 8.42225 113.407 17.3754 110.438C25.5844 107.716 37.1413 104.661 45.58 105.57C46.2096 105.637 48.7643 106.098 53.3898 106.98C54.2531 107.144 55.435 107.451 56.8033 107.807C65.7857 110.14 84.4769 114.995 97.8002 102.923C97.8069 102.917 97.8137 102.912 97.8209 102.906C99.9546 101.276 101.323 100.768 102.127 101.31C102.89 101.824 102.954 103.191 102.323 105.489C102.14 106.156 101.814 107.052 101.47 108.002C100.859 109.684 100.023 111.987 100.207 112.667C100.236 112.773 100.42 112.928 100.85 113.047C102.807 113.589 107.681 112.908 109.546 111.113C109.58 111.081 109.62 111.056 109.663 111.041C109.707 111.026 109.754 111.02 109.8 111.024C109.893 111.033 109.978 111.083 110.032 111.159C111.13 112.718 111.285 114.54 110.479 116.428C110.014 117.516 109.363 118.323 109.078 118.646C109.529 119.925 109.357 121.377 108.575 122.861C108.113 123.737 107.566 124.388 107.315 124.665C107.71 125.986 107.327 127.428 106.199 128.849C105.516 129.708 104.755 130.32 104.441 130.556C104.501 132.473 103.546 134.162 101.6 135.579C99.648 136.999 96.6302 138.186 92.6305 139.104C90.2354 139.654 81.6696 141.266 79.3887 141.617C71.2218 142.875 56.1497 144.857 42.3477 144.857ZM1.92398 117.103L1.929 117.145C2.51318 121.967 5.29163 133.897 18.4417 140.501C23.971 143.278 32.8297 144.222 42.3114 144.222C56.0646 144.222 71.1329 142.238 79.2905 140.981C81.5639 140.631 90.1 139.025 92.4863 138.477C100.213 136.703 104.016 133.992 103.791 130.419C103.787 130.363 103.798 130.308 103.822 130.258C103.846 130.208 103.883 130.166 103.928 130.134C103.966 130.108 107.658 127.509 106.647 124.692C106.626 124.635 106.622 124.573 106.635 124.513C106.649 124.454 106.679 124.4 106.722 124.356C106.75 124.328 109.543 121.478 108.409 118.696C108.385 118.638 108.379 118.574 108.391 118.513C108.403 118.451 108.433 118.395 108.477 118.35C108.485 118.341 109.346 117.451 109.894 116.158C110.558 114.59 110.493 113.136 109.703 111.83C107.5 113.603 102.723 114.232 100.679 113.667C100.057 113.495 99.6892 113.215 99.5861 112.836C99.3654 112.022 99.9767 110.228 100.865 107.782C101.205 106.845 101.526 105.96 101.703 105.319C102.439 102.638 101.993 101.995 101.767 101.843C101.471 101.644 100.616 101.582 98.2222 103.409C91.4072 109.578 83.2488 111.414 75.6637 111.415C68.134 111.415 61.1694 109.606 56.6413 108.429C55.2838 108.077 54.1116 107.772 53.269 107.611C48.7249 106.746 46.1147 106.274 45.511 106.209C30.2214 104.563 4.5349 115.924 1.92398 117.103Z" fill="#232323"/>
<mask id="mask2_18579_16007" style="mask-type:luminance" maskUnits="userSpaceOnUse" x="78" y="102" width="33" height="39">
<path d="M108.707 118.573C109.938 121.591 106.949 124.582 106.949 124.582C108.058 127.669 104.112 130.397 104.112 130.397C104.462 135.941 95.9696 140.49 78.4033 140.787C77.7175 140.798 78.1806 112.303 79.258 112.175C84.7702 111.519 91.335 108.862 96.8527 104.647C101.569 101.043 102.256 103.832 101.373 107.046C100.824 109.04 99.5826 111.591 99.8968 112.749C100.285 114.179 107.353 113.667 109.769 111.342C112.289 114.921 108.707 118.573 108.707 118.573Z" fill="white"/>
</mask>
<g mask="url(#mask2_18579_16007)">
<path d="M104.109 120.476C103.094 120.476 102.455 120.242 102.399 120.221C102.359 120.206 102.323 120.183 102.292 120.155C102.261 120.126 102.236 120.091 102.218 120.052C102.2 120.013 102.191 119.972 102.189 119.929C102.188 119.887 102.195 119.845 102.21 119.805C102.225 119.765 102.248 119.729 102.277 119.698C102.307 119.667 102.342 119.643 102.38 119.625C102.419 119.608 102.461 119.599 102.504 119.598C102.546 119.597 102.588 119.604 102.628 119.62C102.634 119.622 103.317 119.872 104.392 119.821C105.384 119.774 106.924 119.454 108.631 118.196C108.699 118.145 108.785 118.124 108.87 118.136C108.954 118.149 109.03 118.195 109.081 118.263C109.131 118.332 109.153 118.418 109.14 118.502C109.127 118.587 109.081 118.663 109.013 118.713C107.075 120.142 105.323 120.476 104.109 120.476ZM102.709 126.263C102.024 126.263 101.397 126.136 100.856 125.877C100.78 125.84 100.72 125.774 100.692 125.694C100.664 125.614 100.669 125.525 100.705 125.448C100.742 125.371 100.808 125.312 100.889 125.284C100.969 125.256 101.058 125.261 101.134 125.297C102.528 125.965 104.64 125.597 106.784 124.313C106.82 124.291 106.86 124.277 106.902 124.271C106.944 124.265 106.987 124.267 107.028 124.277C107.069 124.287 107.107 124.305 107.141 124.331C107.175 124.356 107.204 124.387 107.225 124.424C107.247 124.46 107.261 124.5 107.268 124.542C107.274 124.584 107.272 124.626 107.261 124.667C107.251 124.708 107.233 124.747 107.208 124.781C107.182 124.814 107.151 124.843 107.115 124.865C105.577 125.785 104.036 126.263 102.709 126.263ZM100.472 131.61C99.8698 131.61 99.3601 131.524 99.0237 131.356C98.9481 131.317 98.8908 131.25 98.8643 131.17C98.8377 131.089 98.8441 131.001 98.8821 130.925C98.9201 130.85 98.9865 130.792 99.0669 130.765C99.1473 130.737 99.2352 130.743 99.3114 130.781C100.045 131.147 102.395 131.014 104.263 129.977C104.338 129.937 104.425 129.928 104.506 129.952C104.587 129.975 104.656 130.03 104.697 130.104C104.738 130.178 104.748 130.265 104.725 130.347C104.703 130.428 104.649 130.497 104.575 130.539C103.273 131.262 101.685 131.61 100.472 131.61Z" fill="#232323"/>
</g>
<path d="M79.3461 141.31C65.4566 143.786 33.5162 147.647 19.6148 142.181C0.328167 134.598 0.590663 117.01 0.655514 114.998C0.617813 115.01 26.6273 104.179 42.8727 102.633C44.3418 102.493 50.7789 104.332 54.824 105.102C57.8641 105.682 77.1495 111.015 77.1495 111.015C77.1495 111.015 75.2619 118.698 75.6179 125.273C76.0634 133.5 79.3548 141.309 79.3461 141.31Z" fill="white"/>
<mask id="mask3_18579_16007" style="mask-type:luminance" maskUnits="userSpaceOnUse" x="15" y="93" width="65" height="52">
<path d="M77.1431 111.018C66.969 108.346 58.5648 105.821 54.8176 105.106L55.765 102.377C55.765 102.377 19.0866 83.1217 15.9005 102.119C13.7963 114.666 56.7836 144.225 56.7836 144.225C56.7836 144.225 62.6471 143.672 64.6787 143.432C68.3655 142.995 79.3398 141.314 79.3398 141.314C79.3398 141.314 79.3827 141.446 79.0096 140.466C77.4885 136.469 75.7406 125.136 75.7672 120.995C75.7858 118.101 77.1431 111.018 77.1431 111.018Z" fill="white"/>
</mask>
<g mask="url(#mask3_18579_16007)">
<path d="M54.935 105.082C54.9085 105.082 54.8816 105.079 54.8547 105.072C47.6531 103.222 40.3101 101.739 29.697 103.882C29.614 103.897 29.5284 103.879 29.4586 103.832C29.3887 103.785 29.3402 103.712 29.3235 103.629C29.3068 103.547 29.3232 103.461 29.3692 103.39C29.4152 103.319 29.4871 103.27 29.5694 103.251C40.3161 101.081 47.7379 102.58 55.0148 104.449C55.0908 104.469 55.1572 104.515 55.2014 104.58C55.2456 104.645 55.2645 104.723 55.2547 104.801C55.2449 104.879 55.207 104.95 55.1481 105.002C55.0893 105.054 55.0135 105.083 54.935 105.082Z" fill="#232323"/>
</g>
<mask id="mask4_18579_16007" style="mask-type:luminance" maskUnits="userSpaceOnUse" x="15" y="93" width="65" height="52">
<path d="M77.1431 111.018C66.969 108.346 58.5648 105.821 54.8176 105.106L55.765 102.377C55.765 102.377 19.0866 83.1217 15.9005 102.119C13.7963 114.666 56.7836 144.225 56.7836 144.225C56.7836 144.225 62.6471 143.672 64.6787 143.432C68.3655 142.995 79.3398 141.314 79.3398 141.314C79.3398 141.314 79.3827 141.446 79.0096 140.466C77.4885 136.469 75.7406 125.136 75.7672 120.995C75.7858 118.101 77.1431 111.018 77.1431 111.018Z" fill="white"/>
</mask>
<g mask="url(#mask4_18579_16007)">
<path d="M69.9193 138.485C70.8779 138.485 71.6549 137.709 71.6549 136.75C71.6549 135.792 70.8779 135.016 69.9193 135.016C68.9607 135.016 68.1836 135.792 68.1836 136.75C68.1836 137.709 68.9607 138.485 69.9193 138.485Z" fill="#232323"/>
</g>
<mask id="mask5_18579_16007" style="mask-type:luminance" maskUnits="userSpaceOnUse" x="15" y="93" width="65" height="52">
<path d="M77.1431 111.018C66.969 108.346 58.5648 105.821 54.8176 105.106L55.765 102.377C55.765 102.377 19.0866 83.1217 15.9005 102.119C13.7963 114.666 56.7836 144.225 56.7836 144.225C56.7836 144.225 62.6471 143.672 64.6787 143.432C68.3655 142.995 79.3398 141.314 79.3398 141.314C79.3398 141.314 79.3827 141.446 79.0096 140.466C77.4885 136.469 75.7406 125.136 75.7672 120.995C75.7858 118.101 77.1431 111.018 77.1431 111.018Z" fill="white"/>
</mask>
<g mask="url(#mask5_18579_16007)">
<path d="M64.9461 144.875C64.8817 144.875 64.8187 144.855 64.7654 144.819C64.712 144.783 64.6708 144.731 64.6471 144.672C64.6287 144.625 62.7974 139.961 61.828 133.084C60.9329 126.735 60.6074 117.137 64.1385 107.469C64.1678 107.389 64.2277 107.324 64.3051 107.288C64.3824 107.252 64.4709 107.248 64.5511 107.277C64.6312 107.307 64.6965 107.366 64.7324 107.444C64.7684 107.521 64.7722 107.61 64.7429 107.69C61.2599 117.226 61.5803 126.704 62.4624 132.975C63.4198 139.782 65.227 144.389 65.2451 144.434C65.2645 144.483 65.2716 144.536 65.2659 144.588C65.2601 144.64 65.2417 144.69 65.2122 144.734C65.1828 144.777 65.1431 144.813 65.0967 144.837C65.0503 144.862 64.9986 144.875 64.9461 144.875Z" fill="#232323"/>
</g>
<path d="M46.5821 103.284C46.533 103.284 46.4847 103.273 46.4406 103.252C46.3966 103.23 46.358 103.199 46.3279 103.16C43.5234 99.5561 36.3297 97.8782 36.2574 97.8616C36.1742 97.8426 36.102 97.7914 36.0566 97.7192C36.0112 97.647 35.9964 97.5597 36.0154 97.4766C36.0344 97.3934 36.0856 97.3212 36.1579 97.2758C36.2301 97.2305 36.3175 97.2156 36.4006 97.2346C36.4767 97.252 38.2867 97.6695 40.4847 98.5551C43.4571 99.7528 45.5939 101.169 46.8358 102.765C46.8728 102.813 46.8957 102.87 46.9019 102.93C46.9081 102.989 46.8974 103.05 46.8709 103.104C46.8445 103.158 46.8034 103.204 46.7523 103.235C46.7013 103.267 46.6423 103.284 46.5821 103.284Z" fill="#232323"/>
<path d="M40.7138 145.288C31.3558 145.288 24.2384 144.349 19.4906 142.482C11.8325 139.471 6.29594 134.707 3.03432 128.324C1.33673 125.001 0.344526 121.394 0.0853772 117.604C0.0762414 117.472 0.0669769 117.335 0.0609292 117.301C0.0301762 117.128 0.143795 116.959 0.316732 116.926C0.489798 116.893 0.656302 117.001 0.691559 117.174C0.704941 117.239 0.711632 117.334 0.727201 117.56C0.980431 121.264 1.94947 124.786 3.6073 128.031C6.79532 134.271 12.2185 138.932 19.7261 141.883C25.691 144.229 35.9735 145.101 49.4618 144.404C62.9526 143.708 74.9678 141.753 78.8957 141.064C78.0078 138.794 75.6656 132.226 75.2901 125.292C74.9752 119.478 76.4195 112.732 76.7601 111.241C74.3277 110.543 57.6215 105.751 54.8585 105.079L54.1033 104.894C50.8267 104.092 47.4384 103.263 42.8447 102.955C42.8025 102.952 42.7613 102.941 42.7235 102.922C42.6856 102.903 42.6518 102.877 42.624 102.846C42.5962 102.814 42.5749 102.777 42.5614 102.737C42.5479 102.697 42.5424 102.655 42.5452 102.613C42.5481 102.57 42.5592 102.529 42.5779 102.491C42.5967 102.454 42.6227 102.42 42.6545 102.392C42.6863 102.364 42.7233 102.343 42.7633 102.329C42.8033 102.316 42.8456 102.31 42.8878 102.313C47.5373 102.625 50.953 103.461 54.2565 104.269L55.0109 104.454C57.9899 105.179 77.0399 110.652 77.232 110.707C77.3119 110.73 77.3798 110.783 77.4215 110.855C77.4632 110.927 77.4754 111.012 77.4555 111.093C77.4368 111.169 75.5835 118.807 75.9327 125.258C76.3312 132.615 79.0674 139.766 79.612 141.125C79.6528 141.227 79.6949 141.332 79.6225 141.465C79.5995 141.508 79.5672 141.544 79.528 141.572C79.4889 141.601 79.4439 141.62 79.3963 141.628C75.9232 142.247 63.5024 144.323 49.4953 145.046C46.3788 145.207 43.4502 145.287 40.7138 145.288Z" fill="#232323"/>
<path d="M199.207 33.9139C203.675 44.9066 202.353 50.5387 199.497 59.0176C194.878 72.7289 177.503 94.9742 174.764 102.432C166.575 124.738 169.38 139.236 177.886 141.378C211.767 149.912 223.103 94.4311 224.663 87.4903C227.83 73.4022 229.605 54.8663 229.641 43.8848C229.682 31.5319 229.084 31.8521 229.084 31.8521C229.084 31.8521 211.733 26.1694 210.164 29.8134C208.877 32.801 208.286 40.4846 208.286 40.4846C208.286 40.4846 207.579 38.6917 205.906 36.2603C202.873 31.8521 198.761 32.8169 199.207 33.9139Z" fill="white"/>
<path d="M184.758 142.592C182.497 142.592 180.179 142.294 177.808 141.697C175.258 141.055 173.163 139.302 171.749 136.628C168.044 129.619 169.033 117.117 174.462 102.328C175.603 99.222 179.223 93.6269 183.416 87.1485C189.24 78.1479 196.489 66.9463 199.192 58.9217C201.954 50.7234 203.418 45.1355 198.909 34.0417C198.778 33.7199 198.844 33.2652 199.422 32.9542C200.472 32.3886 203.63 32.3916 206.171 36.0848C207.065 37.3846 207.685 38.4981 208.072 39.2649C208.295 36.9687 208.872 32.0075 209.868 29.6931C210.598 27.9975 214.004 27.8227 220.279 29.1585C224.562 30.0701 228.721 31.4034 229.148 31.5417C229.189 31.5491 229.229 31.5641 229.266 31.5864C229.486 31.7188 230.002 32.0289 229.963 43.8927C229.927 54.734 228.203 73.2172 224.977 87.5676C224.937 87.7449 224.891 87.9539 224.838 88.1927C224.032 91.8364 221.89 101.515 217.649 111.873C212.28 124.983 205.665 134.033 197.987 138.772C193.865 141.315 189.435 142.592 184.758 142.592ZM200.732 33.3257C200.282 33.3257 199.931 33.4107 199.727 33.5204C199.644 33.5649 199.457 33.6813 199.505 33.7996C201.66 39.1003 202.559 43.3029 202.42 47.426C202.285 51.4613 201.154 55.1126 199.802 59.1268C197.073 67.2277 189.8 78.4669 183.956 87.4976C179.785 93.9437 176.182 99.5109 175.066 102.55C172.289 110.113 170.681 117.003 170.286 123.027C169.925 128.53 170.628 133.129 172.318 136.328C173.663 138.871 175.563 140.468 177.965 141.073C180.28 141.656 182.545 141.947 184.752 141.947C189.314 141.948 193.631 140.704 197.649 138.224C205.209 133.558 211.738 124.611 217.053 111.629C221.274 101.322 223.407 91.6825 224.21 88.0537C224.263 87.8141 224.309 87.6043 224.349 87.4265C227.565 73.1212 229.284 54.6969 229.32 43.8904C229.351 34.3984 229.006 32.504 228.883 32.1318C228.207 31.9145 224.229 30.6564 220.141 29.7864C212.479 28.1561 210.786 29.1873 210.459 29.9471C209.208 32.8519 208.612 40.4395 208.606 40.5158C208.601 40.5883 208.571 40.6568 208.521 40.7101C208.472 40.7633 208.405 40.7982 208.334 40.8091C208.262 40.8199 208.188 40.806 208.125 40.7697C208.062 40.7334 208.013 40.6768 207.986 40.6092C207.979 40.5916 207.27 38.8171 205.641 36.4491C203.927 33.9585 201.961 33.3257 200.732 33.3257Z" fill="#232323"/>
<path d="M213.067 53.6791C212.982 53.6791 212.9 53.6452 212.84 53.585C212.779 53.5247 212.745 53.4429 212.745 53.3577C212.745 53.2729 212.688 44.8285 208.072 40.7308C208.01 40.6738 207.972 40.5945 207.968 40.5102C207.964 40.4258 207.993 40.3431 208.049 40.2799C208.105 40.2167 208.184 40.1782 208.268 40.1726C208.352 40.167 208.435 40.1948 208.499 40.25C211.034 42.4997 212.228 45.9489 212.783 48.4461C213.382 51.1359 213.389 53.2683 213.389 53.3577C213.389 53.4429 213.355 53.5247 213.294 53.5849C213.234 53.6452 213.152 53.6791 213.067 53.6791Z" fill="#232323"/>
<path d="M209.732 29.6235C210.194 26.8532 214.438 25.6112 215.212 29.4549C215.257 27.0347 219.481 26.3772 220.237 29.0916C220.936 27.5874 224.221 26.8497 225.069 29.7389C225.402 28.6592 228.712 28.254 229.07 31.0707C229.388 33.5709 227.056 34.8998 225.798 33.8923C225.291 33.45 224.814 31.9492 224.793 31.8204C223.56 33.7493 221.502 35.4598 219.826 31.6709C218.956 33.3649 217.647 36.2651 214.954 32.4575C214.356 33.9763 213.563 34.856 212.644 34.963C211.087 35.1441 209.962 32.322 209.814 31.2064C209.814 31.2065 209.604 30.3759 209.732 29.6235Z" fill="white"/>
<path d="M212.498 35.2947C211.753 35.2947 211.04 34.7607 210.425 33.7382C209.902 32.8677 209.579 31.8526 209.497 31.2678C209.465 31.1319 209.287 30.326 209.414 29.5714C209.678 27.9937 211.115 26.7376 212.686 26.7116C213.805 26.6884 214.696 27.2966 215.198 28.3688C215.568 27.7234 216.279 27.1745 217.366 27.0363C218.459 26.8977 219.708 27.2865 220.312 28.4158C220.899 27.7762 221.889 27.384 222.857 27.4561C223.89 27.5335 224.706 28.1187 225.165 29.0873C225.59 28.7451 226.272 28.5523 226.983 28.6139C228.312 28.729 229.212 29.6329 229.39 31.0318C229.599 32.6787 228.773 33.77 227.931 34.2422C227.128 34.6922 226.234 34.6549 225.597 34.1452C225.593 34.1423 225.59 34.1394 225.586 34.1364C225.213 33.8101 224.889 33.0836 224.69 32.5401C224.007 33.4584 223.068 34.3281 221.998 34.2464C221.176 34.1836 220.444 33.5608 219.819 32.3922C219.287 33.4072 218.571 34.5721 217.486 34.6502C216.705 34.7063 215.898 34.1979 215.029 33.0981C214.406 34.4248 213.6 35.1773 212.681 35.2843C212.62 35.2912 212.559 35.2947 212.498 35.2947ZM212.735 27.3543L212.697 27.3545C211.583 27.373 210.288 28.2471 210.049 29.6779L210.049 29.6786C209.934 30.3565 210.124 31.1217 210.126 31.1293C210.129 31.1413 210.131 31.1534 210.133 31.1656C210.279 32.2673 211.315 34.651 212.504 34.6513C212.538 34.6513 212.572 34.6493 212.606 34.6454C213.389 34.5543 214.097 33.7577 214.654 32.3416C214.675 32.2876 214.711 32.2404 214.757 32.2049C214.803 32.1694 214.857 32.1469 214.915 32.14C214.973 32.133 215.031 32.1418 215.084 32.1653C215.137 32.1889 215.183 32.2263 215.216 32.2737C216.063 33.4705 216.812 34.0552 217.439 34.0089C218.305 33.9465 218.964 32.6547 219.445 31.7114L219.54 31.526C219.568 31.472 219.61 31.427 219.663 31.3962C219.715 31.3653 219.775 31.3499 219.836 31.3517C219.896 31.3534 219.955 31.3723 220.006 31.4061C220.056 31.44 220.096 31.4873 220.12 31.5428C220.702 32.8583 221.35 33.5521 222.046 33.6053C222.788 33.6624 223.691 32.9489 224.522 31.6492C224.557 31.5942 224.608 31.5512 224.668 31.5259C224.728 31.5006 224.795 31.4942 224.859 31.5075C224.923 31.5208 224.981 31.5532 225.026 31.6004C225.071 31.6477 225.101 31.7075 225.111 31.7719C225.156 31.9843 225.605 33.2922 226.004 33.6477C226.432 33.9861 227.049 33.9991 227.616 33.6814C228.276 33.3118 228.92 32.443 228.751 31.1131C228.554 29.5613 227.41 29.2965 226.927 29.2547C226.163 29.1893 225.477 29.5067 225.376 29.8356C225.334 29.9712 225.206 30.0581 225.066 30.0623C224.997 30.0619 224.93 30.0391 224.875 29.9975C224.82 29.9559 224.779 29.8976 224.76 29.8314C224.345 28.419 223.359 28.1389 222.809 28.0978C221.874 28.0274 220.851 28.5352 220.528 29.2291C220.5 29.2886 220.455 29.3381 220.398 29.3712C220.341 29.4042 220.276 29.4192 220.21 29.414C220.145 29.4086 220.082 29.3833 220.032 29.3414C219.981 29.2995 219.944 29.243 219.927 29.1797C219.566 27.8822 218.365 27.5579 217.447 27.6746C216.539 27.79 215.553 28.3987 215.533 29.4627C215.532 29.542 215.501 29.6179 215.447 29.6759C215.393 29.7339 215.32 29.7699 215.241 29.777C215.162 29.7841 215.083 29.7619 215.019 29.7145C214.956 29.6671 214.912 29.5978 214.896 29.5201C214.619 28.1414 213.832 27.3543 212.735 27.3543Z" fill="#232323"/>
<mask id="mask6_18579_16007" style="mask-type:luminance" maskUnits="userSpaceOnUse" x="209" y="26" width="21" height="12">
<path d="M209.738 30.7929C209.217 26.3853 213.881 24.4909 215.212 29.4557C215.257 27.0355 219.481 26.378 220.237 29.0924C220.936 27.5883 224.172 26.902 225.149 29.7513C225.482 28.6716 228.734 28.1208 229.092 30.9375C229.41 33.4377 227.212 34.9725 225.785 34.0575C221.217 37.9975 215.366 37.7696 212.24 35.9228C210.048 34.628 209.777 32.4228 209.738 30.7929Z" fill="white"/>
</mask>
<g mask="url(#mask6_18579_16007)">
<path d="M226.764 34.3065C226.596 34.3065 226.433 34.2784 226.275 34.2222C224.555 33.61 224.468 29.8754 224.472 29.8393C224.482 29.7556 224.524 29.6791 224.589 29.6262C224.655 29.5732 224.739 29.5481 224.822 29.5562C224.906 29.5643 224.984 29.6049 225.038 29.6694C225.092 29.7339 225.119 29.817 225.112 29.901C225.093 30.3885 225.403 33.2702 226.516 33.6248C226.998 33.7786 228.122 33.5507 230.23 30.3015C230.277 30.23 230.35 30.1798 230.433 30.162C230.475 30.1532 230.517 30.1526 230.559 30.1603C230.6 30.168 230.64 30.1837 230.675 30.2067C230.711 30.2297 230.741 30.2594 230.765 30.2942C230.789 30.329 230.806 30.3682 230.815 30.4095C230.824 30.4508 230.824 30.4934 230.817 30.5349C230.809 30.5764 230.793 30.616 230.77 30.6515C229.179 33.1026 227.862 34.3064 226.764 34.3065Z" fill="#232323"/>
<path d="M222.421 34.4977C221.3 34.4977 220.288 33.4225 219.919 32.2917C219.337 30.5105 219.624 27.9417 219.637 27.8331C219.642 27.791 219.655 27.7502 219.675 27.7131C219.696 27.6761 219.723 27.6434 219.756 27.617C219.789 27.5906 219.827 27.571 219.868 27.5593C219.909 27.5476 219.952 27.5441 219.994 27.549C220.036 27.5538 220.076 27.567 220.113 27.5876C220.15 27.6082 220.183 27.636 220.209 27.6692C220.236 27.7025 220.255 27.7406 220.266 27.7813C220.278 27.8221 220.281 27.8647 220.276 27.9068C220.273 27.932 219.993 30.4456 220.53 32.0921C220.882 33.1703 221.801 33.9552 222.579 33.8432C223.7 33.6808 224.42 31.7502 224.505 28.6789C224.51 28.5014 224.66 28.3627 224.835 28.3663C224.921 28.3687 225.001 28.4048 225.06 28.4667C225.119 28.5287 225.15 28.6114 225.148 28.6966C225.017 33.435 223.54 34.3538 222.671 34.4796C222.587 34.4919 222.504 34.4977 222.421 34.4977Z" fill="#232323"/>
<path d="M217.306 34.8672C216.627 34.8672 215.95 34.4036 215.435 33.5652C214.272 31.67 214.539 27.9756 214.551 27.8192C214.558 27.7343 214.598 27.6555 214.663 27.6C214.728 27.5445 214.812 27.5169 214.897 27.5231C214.982 27.5296 215.061 27.5697 215.116 27.6344C215.172 27.6991 215.199 27.7832 215.193 27.8682C215.19 27.9045 214.929 31.5116 215.984 33.2287C216.447 33.9833 217.01 34.3349 217.53 34.1937C218.512 33.926 219.595 31.878 219.686 26.9328C219.688 26.8486 219.722 26.7683 219.783 26.7093C219.843 26.6503 219.924 26.6172 220.008 26.6172H220.014C220.099 26.6188 220.18 26.6542 220.24 26.7156C220.299 26.777 220.331 26.8594 220.33 26.9446C220.245 31.5132 219.286 34.3816 217.699 34.814C217.571 34.8494 217.438 34.8673 217.306 34.8672Z" fill="#232323"/>
<path d="M212.538 35.4293C212.513 35.4293 212.487 35.4289 212.462 35.4282C211.55 35.3999 210.765 34.6421 210.127 33.1761C209.678 32.1459 209.469 31.1395 209.46 31.0972C209.443 31.0137 209.46 30.9268 209.507 30.8556C209.554 30.7844 209.627 30.7347 209.711 30.7176C209.794 30.7004 209.881 30.7171 209.953 30.7641C210.024 30.811 210.074 30.8843 210.091 30.9678C210.306 32.0157 211.157 34.7442 212.482 34.7854C212.896 34.7998 213.231 34.6681 213.512 34.3874C214.699 33.1992 214.589 29.7464 214.523 27.6834C214.507 27.1932 214.494 26.7698 214.5 26.4562C214.503 26.2787 214.652 26.1342 214.827 26.1408C214.913 26.1425 214.994 26.1779 215.053 26.2393C215.112 26.3008 215.144 26.3832 215.143 26.4684C215.137 26.7657 215.151 27.1815 215.166 27.663C215.24 29.9703 215.351 33.457 213.967 34.8422C213.577 35.232 213.096 35.4293 212.538 35.4293Z" fill="#232323"/>
</g>
<path d="M214.769 38.632L214.758 38.6318C214.716 38.6305 214.675 38.6209 214.636 38.6035C214.598 38.5862 214.563 38.5614 214.534 38.5306C214.505 38.4998 214.483 38.4636 214.468 38.4241C214.453 38.3846 214.446 38.3425 214.447 38.3003L214.632 32.4408C214.633 32.3985 214.643 32.3568 214.66 32.3181C214.677 32.2795 214.702 32.2447 214.733 32.2157C214.764 32.1867 214.8 32.1642 214.84 32.1494C214.88 32.1347 214.922 32.1279 214.964 32.1297C215.006 32.131 215.048 32.1406 215.086 32.158C215.125 32.1754 215.16 32.2002 215.188 32.2309C215.217 32.2617 215.24 32.2979 215.255 32.3374C215.27 32.377 215.277 32.419 215.275 32.4612L215.09 38.3207C215.087 38.4041 215.052 38.4833 214.993 38.5413C214.933 38.5994 214.852 38.6319 214.769 38.632ZM219.964 38.705C219.88 38.705 219.799 38.672 219.739 38.6131C219.679 38.5543 219.644 38.4742 219.643 38.3901L219.505 31.6709C219.505 31.5871 219.539 31.5069 219.598 31.4473C219.656 31.3877 219.736 31.3534 219.82 31.3516C219.904 31.3499 219.985 31.3809 220.046 31.4381C220.107 31.4952 220.144 31.574 220.148 31.6576L220.286 38.3768C220.288 38.4621 220.256 38.5445 220.196 38.606C220.137 38.6675 220.056 38.7031 219.971 38.7049L219.964 38.705ZM225.11 38.1375C225.028 38.1374 224.948 38.1058 224.889 38.0491C224.829 37.9925 224.793 37.9151 224.789 37.8329L224.472 31.8309C224.47 31.7887 224.476 31.7465 224.49 31.7067C224.504 31.6669 224.526 31.6303 224.554 31.5989C224.583 31.5675 224.617 31.542 224.655 31.5238C224.693 31.5056 224.734 31.4951 224.777 31.4929C224.819 31.4904 224.861 31.4963 224.901 31.5103C224.941 31.5242 224.978 31.546 225.009 31.5743C225.041 31.6026 225.066 31.6369 225.084 31.6751C225.102 31.7133 225.113 31.7548 225.115 31.7971L225.431 37.7991C225.434 37.8427 225.427 37.8863 225.412 37.9273C225.397 37.9682 225.373 38.0057 225.343 38.0374C225.313 38.069 225.277 38.0942 225.237 38.1114C225.197 38.1286 225.154 38.1375 225.11 38.1375Z" fill="#232323"/>
<path d="M181.47 143.001C184.205 142.836 187.303 142.677 190.168 141.955C190.75 141.823 191.956 141.456 191.956 141.456C215.072 134.335 223.341 93.4501 224.663 87.5702C226.062 81.3501 227.382 72.684 228.292 64.3181C228.292 64.3181 219.974 66.2721 214.022 65.2222C205.467 63.7133 199.769 58.2031 199.769 58.2031C196.608 67.5864 187.147 81.8657 180.817 91.7679C180.817 91.7679 158.978 101.926 160.758 121.872C162.332 139.494 181.47 143.001 181.47 143.001Z" fill="white"/>
<path d="M181.106 143.305C215.561 143.305 223.341 93.4501 224.663 87.5702C226.062 81.3501 227.382 72.684 228.292 64.3181C228.292 64.3181 219.974 66.2721 214.022 65.2222C205.467 63.7133 199.769 58.2031 199.769 58.2031C196.608 67.5864 187.146 81.8657 180.817 91.7679" fill="white"/>
<path d="M181.106 143.628C181.021 143.628 180.939 143.594 180.879 143.534C180.818 143.473 180.784 143.392 180.784 143.306C180.784 143.221 180.818 143.139 180.879 143.079C180.939 143.019 181.021 142.985 181.106 142.985C188.49 142.985 195.194 140.641 201.032 136.019C205.864 132.192 210.165 126.761 213.815 119.877C220.301 107.642 223.012 94.1254 224.032 89.0369C224.164 88.3795 224.268 87.8603 224.349 87.501C225.677 81.5956 226.975 73.3186 227.923 64.7309C226.106 65.1215 219.2 66.4636 213.966 65.5402C206.637 64.2475 201.322 59.9946 199.915 58.7685C196.91 67.3016 189.16 79.368 182.911 89.0982C182.282 90.0786 181.671 91.029 181.087 91.9423C181.065 91.9779 181.035 92.0087 181.001 92.0329C180.966 92.057 180.927 92.0742 180.886 92.0832C180.844 92.0923 180.802 92.0932 180.76 92.0858C180.718 92.0784 180.679 92.0629 180.643 92.0402C180.608 92.0175 180.577 91.9879 180.553 91.9533C180.528 91.9187 180.511 91.8797 180.502 91.8384C180.493 91.7972 180.492 91.7546 180.5 91.713C180.507 91.6714 180.522 91.6317 180.545 91.5961C181.129 90.6826 181.74 89.7317 182.37 88.7509C188.713 78.874 196.607 66.5819 199.464 58.1018C199.481 58.0504 199.511 58.0041 199.551 57.9674C199.591 57.9308 199.64 57.9048 199.693 57.8919C199.745 57.8791 199.801 57.8798 199.853 57.894C199.905 57.9082 199.953 57.9355 199.992 57.9732C200.049 58.0276 205.725 63.4336 214.077 64.9069C219.895 65.9328 228.136 64.0256 228.218 64.0063C228.268 63.9946 228.32 63.995 228.37 64.0075C228.42 64.0201 228.466 64.0444 228.505 64.0785C228.543 64.1125 228.573 64.1554 228.592 64.2033C228.61 64.2513 228.617 64.303 228.612 64.3541C227.657 73.1236 226.332 81.6117 224.977 87.6419C224.898 87.9939 224.794 88.5099 224.663 89.1633C223.638 94.2768 220.914 107.86 214.383 120.178C210.692 127.141 206.334 132.64 201.431 136.523C195.477 141.237 188.639 143.628 181.106 143.628Z" fill="#232323"/>
<path d="M111.981 75.7134C112.822 77.468 113.662 79.2212 114.503 80.9758C115.875 81.0898 117.435 80.9986 119.079 80.4921C119.747 80.2857 120.396 80.021 121.018 79.7013C121.191 77.7031 121.364 75.7034 121.537 73.7053C120.94 73.1541 120.367 72.5791 119.817 71.9816C117.397 69.0103 115.541 66.3904 114.42 64C114.098 65.8372 113.91 67.9457 113.458 69.9308C113.016 71.8708 112.524 73.7989 111.981 75.7134ZM114.213 134.295C118.51 137.621 122.809 140.946 127.107 144.272L136.215 132.165C135.315 122.492 133.52 112.923 130.855 103.581C128.32 94.6993 124.114 86.9348 121.114 80.4713C120.526 80.7571 119.917 80.9973 119.292 81.1897C118.657 81.3861 118.007 81.5313 117.348 81.6239C116.499 81.7435 115.641 81.7783 114.785 81.7277C115.866 87.8825 116.41 94.7473 116.321 101.704C116.183 112.596 115.479 123.475 114.213 134.295Z" fill="#FF4F4F"/>
<mask id="mask7_18579_16007" style="mask-type:luminance" maskUnits="userSpaceOnUse" x="5" y="52" width="224" height="111">
<path d="M214.022 65.2227C205.467 63.7138 199.769 58.2036 199.769 58.2036C196.635 67.507 187.308 81.6226 180.98 91.5136C179.598 89.4668 169.546 72.1039 157.688 64.7303C133.783 49.8652 125.331 57.3814 125.331 57.3814L119.289 57.3592L96.3128 56.3024L79.9986 55.8683C79.9986 55.8683 71.0061 49.5472 56.8276 55.0182C39.4725 61.7149 17.8045 78.5787 5.53442 98.0439C2.93766 102.163 154.668 162.59 154.668 162.59C154.961 157.669 154.193 147.153 153.109 134.327C153.571 134.716 154.135 135.157 154.6 135.476C164.515 142.277 190.203 141.875 190.214 141.736C190.777 141.606 191.335 141.455 191.887 141.285C215.003 134.164 223.341 93.4505 224.663 87.5707C226.062 81.3506 227.195 72.7063 228.105 64.3404C228.105 64.3402 219.974 66.2725 214.022 65.2227Z" fill="white"/>
</mask>
<g mask="url(#mask7_18579_16007)">
<path d="M178.923 106.052C178.846 106.052 178.772 106.024 178.714 105.974C178.656 105.924 178.617 105.855 178.606 105.779C177.567 99.051 180.651 91.4713 180.682 91.3955C180.698 91.3563 180.722 91.3206 180.751 91.2905C180.781 91.2605 180.817 91.2366 180.856 91.2202C180.895 91.2039 180.937 91.1954 180.979 91.1953C181.022 91.1952 181.064 91.2035 181.103 91.2196C181.142 91.2358 181.177 91.2595 181.207 91.2894C181.237 91.3193 181.261 91.3549 181.277 91.394C181.293 91.4332 181.302 91.4751 181.302 91.5174C181.302 91.5598 181.293 91.6017 181.277 91.6408C181.246 91.715 178.23 99.1329 179.241 105.681C179.248 105.727 179.245 105.774 179.233 105.818C179.22 105.863 179.198 105.904 179.168 105.94C179.137 105.975 179.1 106.003 179.058 106.022C179.015 106.042 178.97 106.052 178.923 106.052Z" fill="#232323"/>
</g>
<mask id="mask8_18579_16007" style="mask-type:luminance" maskUnits="userSpaceOnUse" x="5" y="52" width="224" height="111">
<path d="M214.022 65.2227C205.467 63.7138 199.769 58.2036 199.769 58.2036C196.635 67.507 187.308 81.6226 180.98 91.5136C179.598 89.4668 169.546 72.1039 157.688 64.7303C133.783 49.8652 125.331 57.3814 125.331 57.3814L119.289 57.3592L96.3128 56.3024L79.9986 55.8683C79.9986 55.8683 71.0061 49.5472 56.8276 55.0182C39.4725 61.7149 17.8045 78.5787 5.53442 98.0439C2.93766 102.163 154.668 162.59 154.668 162.59C154.961 157.669 154.193 147.153 153.109 134.327C153.571 134.716 154.135 135.157 154.6 135.476C164.515 142.277 190.203 141.875 190.214 141.736C190.777 141.606 191.335 141.455 191.887 141.285C215.003 134.164 223.341 93.4505 224.663 87.5707C226.062 81.3506 227.195 72.7063 228.105 64.3404C228.105 64.3402 219.974 66.2725 214.022 65.2227Z" fill="white"/>
</mask>
<g mask="url(#mask8_18579_16007)">
<path d="M176.75 102.396C176.706 102.396 176.662 102.387 176.621 102.369C176.58 102.351 176.544 102.325 176.514 102.292C176.483 102.26 176.46 102.221 176.446 102.179C176.431 102.137 176.426 102.092 176.43 102.048C176.864 96.8306 179.328 93.3201 180.381 91.8211C180.524 91.6175 180.637 91.4567 180.706 91.3447C180.752 91.2731 180.824 91.2223 180.906 91.2034C180.989 91.1845 181.076 91.199 181.148 91.2438C181.22 91.2886 181.271 91.36 181.291 91.4425C181.311 91.5249 181.297 91.6119 181.253 91.6843C181.174 91.8116 181.056 91.9789 180.908 92.1906C179.885 93.647 177.491 97.0576 177.071 102.101C177.064 102.181 177.027 102.256 176.968 102.311C176.909 102.366 176.831 102.396 176.75 102.396Z" fill="#232323"/>
</g>
<mask id="mask9_18579_16007" style="mask-type:luminance" maskUnits="userSpaceOnUse" x="5" y="52" width="224" height="111">
<path d="M214.022 65.2227C205.467 63.7138 199.769 58.2036 199.769 58.2036C196.635 67.507 187.308 81.6226 180.98 91.5136C179.598 89.4668 169.546 72.1039 157.688 64.7303C133.783 49.8652 125.331 57.3814 125.331 57.3814L119.289 57.3592L96.3128 56.3024L79.9986 55.8683C79.9986 55.8683 71.0061 49.5472 56.8276 55.0182C39.4725 61.7149 17.8045 78.5787 5.53442 98.0439C2.93766 102.163 154.668 162.59 154.668 162.59C154.961 157.669 154.193 147.153 153.109 134.327C153.571 134.716 154.135 135.157 154.6 135.476C164.515 142.277 190.203 141.875 190.214 141.736C190.777 141.606 191.335 141.455 191.887 141.285C215.003 134.164 223.341 93.4505 224.663 87.5707C226.062 81.3506 227.195 72.7063 228.105 64.3404C228.105 64.3402 219.974 66.2725 214.022 65.2227Z" fill="white"/>
</mask>
<g mask="url(#mask9_18579_16007)">
<path d="M222.017 74.0401C222.976 74.0401 223.753 73.2633 223.753 72.3052C223.753 71.347 222.976 70.5703 222.017 70.5703C221.059 70.5703 220.281 71.347 220.281 72.3052C220.281 73.2633 221.059 74.0401 222.017 74.0401Z" fill="#232323"/>
<path d="M218.517 79.3054C215.073 79.3054 211.472 78.6429 207.917 77.325C202.28 75.2354 197.39 71.7445 194.834 67.9866C194.786 67.9161 194.769 67.8294 194.785 67.7456C194.801 67.6619 194.849 67.5879 194.92 67.54C194.99 67.492 195.077 67.4741 195.161 67.4901C195.245 67.5061 195.319 67.5547 195.367 67.6252C197.812 71.222 202.707 74.7078 208.14 76.7221C214.451 79.0613 220.898 79.2937 226.296 77.3763C226.336 77.3619 226.378 77.3555 226.42 77.3575C226.463 77.3594 226.504 77.3698 226.543 77.3879C226.581 77.4059 226.615 77.4314 226.644 77.4628C226.672 77.4943 226.694 77.531 226.708 77.5709C226.723 77.6109 226.729 77.6532 226.727 77.6955C226.724 77.7379 226.714 77.7793 226.695 77.8175C226.677 77.8558 226.651 77.89 226.62 77.9183C226.588 77.9465 226.551 77.9683 226.511 77.9822C224.025 78.8655 221.323 79.3054 218.517 79.3054Z" fill="#232323"/>
</g>
<mask id="mask10_18579_16007" style="mask-type:luminance" maskUnits="userSpaceOnUse" x="5" y="52" width="224" height="111">
<path d="M214.022 65.2227C205.467 63.7138 199.769 58.2036 199.769 58.2036C196.635 67.507 187.308 81.6226 180.98 91.5136C179.598 89.4668 169.546 72.1039 157.688 64.7303C133.783 49.8652 125.331 57.3814 125.331 57.3814L119.289 57.3592L96.3128 56.3024L79.9986 55.8683C79.9986 55.8683 71.0061 49.5472 56.8276 55.0182C39.4725 61.7149 17.8045 78.5787 5.53442 98.0439C2.93766 102.163 154.668 162.59 154.668 162.59C154.961 157.669 154.193 147.153 153.109 134.327C153.571 134.716 154.135 135.157 154.6 135.476C164.515 142.277 190.203 141.875 190.214 141.736C190.777 141.606 191.335 141.455 191.887 141.285C215.003 134.164 223.341 93.4505 224.663 87.5707C226.062 81.3506 227.195 72.7063 228.105 64.3404C228.105 64.3402 219.974 66.2725 214.022 65.2227Z" fill="white"/>
</mask>
<g mask="url(#mask10_18579_16007)">
<path d="M121.862 73.5787C121.152 73.5787 119.885 72.8769 117.23 69.2213C115.572 66.9371 114.142 64.5416 114.128 64.5176C114.106 64.4813 114.092 64.4412 114.086 64.3994C114.08 64.3576 114.082 64.315 114.092 64.2741C114.103 64.2332 114.121 64.1947 114.146 64.1608C114.171 64.127 114.203 64.0985 114.239 64.0769C114.276 64.0553 114.316 64.041 114.358 64.035C114.4 64.0289 114.442 64.0312 114.483 64.0415C114.524 64.0519 114.563 64.0703 114.596 64.0955C114.63 64.1208 114.659 64.1525 114.68 64.1888C114.695 64.2126 116.112 66.586 117.753 68.8466C120.722 72.934 121.745 72.994 121.988 72.9155C122.095 72.8805 122.184 72.791 122.259 72.6418C123.31 70.559 120.424 60.7782 119.224 57.1852C119.21 57.145 119.204 57.1024 119.206 57.0599C119.209 57.0174 119.22 56.9759 119.239 56.9376C119.257 56.8994 119.284 56.8653 119.316 56.8373C119.348 56.8093 119.385 56.7879 119.425 56.7744C119.466 56.7609 119.509 56.7556 119.551 56.7587C119.594 56.7618 119.635 56.7734 119.673 56.7926C119.711 56.8119 119.745 56.8385 119.772 56.8709C119.8 56.9034 119.821 56.941 119.834 56.9815C120.014 57.5194 124.22 70.1843 122.834 72.9314C122.68 73.2372 122.462 73.4378 122.186 73.527C122.082 73.5613 121.973 73.5788 121.862 73.5787Z" fill="#232323"/>
<path d="M109.72 77.5689C109.705 77.5689 109.69 77.5687 109.675 77.5682C106.559 77.484 101.944 70.4122 95.1523 55.3128C95.1173 55.235 95.1147 55.1465 95.145 55.0668C95.1752 54.9871 95.2359 54.9227 95.3138 54.8877C95.3916 54.8527 95.4801 54.85 95.5599 54.8803C95.6396 54.9106 95.7041 54.9712 95.7391 55.049C102.235 69.4904 106.93 76.8507 109.693 76.9253C111.903 76.9852 113.558 69.2215 114.084 64.314C114.088 64.2715 114.1 64.2303 114.121 64.1927C114.141 64.1551 114.168 64.1218 114.201 64.0948C114.234 64.0678 114.272 64.0477 114.313 64.0355C114.354 64.0234 114.396 64.0194 114.439 64.024C114.481 64.0285 114.522 64.0414 114.56 64.062C114.597 64.0825 114.63 64.1103 114.656 64.1436C114.683 64.177 114.703 64.2153 114.714 64.2563C114.726 64.2973 114.729 64.3402 114.724 64.3825C114.72 64.4152 114.364 67.6868 113.605 70.905C112.546 75.388 111.275 77.5689 109.72 77.5689Z" fill="#232323"/>
</g>
<mask id="mask11_18579_16007" style="mask-type:luminance" maskUnits="userSpaceOnUse" x="5" y="52" width="224" height="111">
<path d="M214.022 65.2227C205.467 63.7138 199.769 58.2036 199.769 58.2036C196.635 67.507 187.308 81.6226 180.98 91.5136C179.598 89.4668 169.546 72.1039 157.688 64.7303C133.783 49.8652 125.331 57.3814 125.331 57.3814L119.289 57.3592L96.3128 56.3024L79.9986 55.8683C79.9986 55.8683 71.0061 49.5472 56.8276 55.0182C39.4725 61.7149 17.8045 78.5787 5.53442 98.0439C2.93766 102.163 154.668 162.59 154.668 162.59C154.961 157.669 154.193 147.153 153.109 134.327C153.571 134.716 154.135 135.157 154.6 135.476C164.515 142.277 190.203 141.875 190.214 141.736C190.777 141.606 191.335 141.455 191.887 141.285C215.003 134.164 223.341 93.4505 224.663 87.5707C226.062 81.3506 227.195 72.7063 228.105 64.3404C228.105 64.3402 219.974 66.2725 214.022 65.2227Z" fill="white"/>
</mask>
<g mask="url(#mask11_18579_16007)">
<path d="M124.35 56.8594C147.681 76.8135 152.916 134.158 152.916 134.158L124.35 56.8594Z" fill="white"/>
<path d="M152.915 134.481C152.835 134.481 152.758 134.451 152.699 134.397C152.639 134.342 152.603 134.268 152.595 134.188C152.582 134.045 151.239 119.677 147.068 103.062C144.619 93.3114 141.69 84.7067 138.362 77.4869C134.211 68.4828 129.426 61.6253 124.141 57.1049C124.109 57.0775 124.082 57.0439 124.063 57.0063C124.044 56.9687 124.033 56.9276 124.029 56.8855C124.023 56.8005 124.05 56.7163 124.106 56.6515C124.161 56.5868 124.24 56.5466 124.325 56.54C124.41 56.5334 124.494 56.5609 124.559 56.6163C129.916 61.1982 134.757 68.131 138.948 77.2221C142.293 84.4792 145.236 93.1233 147.694 102.914C151.877 119.576 153.223 133.986 153.236 134.13C153.24 134.174 153.235 134.219 153.221 134.262C153.206 134.304 153.183 134.343 153.153 134.376C153.123 134.409 153.086 134.435 153.045 134.454C153.004 134.472 152.96 134.481 152.915 134.481Z" fill="#232323"/>
</g>
</g>
<g clip-path="url(#clip1_18579_16007)">
<path d="M245.157 113.053H189.089C188.365 113.053 187.789 112.141 187.789 111.416L187.789 32.3901C187.789 31.6655 188.376 31.0781 189.101 31.0781H245.115C245.839 31.0781 246.427 31.6655 246.427 32.3901V111.391C246.427 112.116 245.881 113.053 245.157 113.053Z" fill="white"/>
<path d="M245.157 113.368H189.089C188.176 113.368 187.467 112.315 187.467 111.41L187.467 32.3837C187.467 31.4829 188.2 30.75 189.101 30.75H245.115C246.015 30.75 246.748 31.4829 246.748 32.3837V111.384C246.748 112.302 246.053 113.368 245.157 113.368ZM189.101 31.3933C188.554 31.3933 188.11 31.8376 188.11 32.3837L188.11 111.41C188.11 111.989 188.571 112.725 189.089 112.725H245.157C245.659 112.725 246.105 111.975 246.105 111.385V32.3838C246.105 31.8377 245.661 31.3935 245.115 31.3935L189.101 31.3933Z" fill="#232323"/>
<path d="M237.58 82.0288H218.598C218.512 82.0288 218.43 81.9949 218.37 81.9346C218.31 81.8742 218.276 81.7924 218.276 81.7071C218.276 81.6218 218.31 81.54 218.37 81.4796C218.43 81.4193 218.512 81.3854 218.598 81.3854H237.58C237.666 81.3854 237.748 81.4193 237.808 81.4796C237.868 81.54 237.902 81.6218 237.902 81.7071C237.902 81.7924 237.868 81.8742 237.808 81.9346C237.748 81.9949 237.666 82.0288 237.58 82.0288ZM215.906 82.0288H195.095C195.01 82.0288 194.928 81.9949 194.868 81.9346C194.807 81.8742 194.773 81.7924 194.773 81.7071C194.773 81.6218 194.807 81.54 194.868 81.4796C194.928 81.4193 195.01 81.3854 195.095 81.3854H215.906C215.991 81.3854 216.073 81.4193 216.133 81.4796C216.193 81.54 216.227 81.6218 216.227 81.7071C216.227 81.7924 216.193 81.8742 216.133 81.9346C216.073 81.9949 215.991 82.0288 215.906 82.0288ZM237.58 75.9142H225.238C225.153 75.9142 225.071 75.8803 225.011 75.82C224.951 75.7596 224.917 75.6778 224.917 75.5925C224.917 75.5072 224.951 75.4254 225.011 75.3651C225.071 75.3047 225.153 75.2708 225.238 75.2708H237.58C237.666 75.2708 237.748 75.3047 237.808 75.3651C237.868 75.4254 237.902 75.5072 237.902 75.5925C237.902 75.6778 237.868 75.7596 237.808 75.82C237.748 75.8803 237.666 75.9142 237.58 75.9142ZM222.611 75.9142H208.987C208.902 75.9142 208.82 75.8803 208.76 75.82C208.699 75.7596 208.666 75.6778 208.666 75.5925C208.666 75.5072 208.699 75.4254 208.76 75.3651C208.82 75.3047 208.902 75.2708 208.987 75.2708H222.611C222.697 75.2708 222.779 75.3047 222.839 75.3651C222.899 75.4254 222.933 75.5072 222.933 75.5925C222.933 75.6778 222.899 75.7596 222.839 75.82C222.779 75.8803 222.697 75.9142 222.611 75.9142ZM206.27 75.9142H195.095C195.01 75.9142 194.928 75.8803 194.868 75.82C194.807 75.7596 194.773 75.6778 194.773 75.5925C194.773 75.5072 194.807 75.4254 194.868 75.3651C194.928 75.3047 195.01 75.2708 195.095 75.2708H206.27C206.355 75.2708 206.437 75.3047 206.497 75.3651C206.557 75.4254 206.591 75.5072 206.591 75.5925C206.591 75.6778 206.557 75.7596 206.497 75.82C206.437 75.8803 206.355 75.9142 206.27 75.9142ZM237.58 69.7996H215.619C215.533 69.7996 215.451 69.7657 215.391 69.7054C215.331 69.645 215.297 69.5632 215.297 69.4779C215.297 69.3926 215.331 69.3108 215.391 69.2505C215.451 69.1901 215.533 69.1563 215.619 69.1563H237.58C237.666 69.1563 237.748 69.1901 237.808 69.2505C237.868 69.3108 237.902 69.3926 237.902 69.4779C237.902 69.5632 237.868 69.645 237.808 69.7054C237.748 69.7657 237.666 69.7996 237.58 69.7996ZM212.923 69.7996H195.095C195.01 69.7996 194.928 69.7657 194.868 69.7054C194.807 69.645 194.773 69.5632 194.773 69.4779C194.773 69.3926 194.807 69.3108 194.868 69.2505C194.928 69.1901 195.01 69.1563 195.095 69.1563H212.923C213.009 69.1562 213.09 69.1901 213.151 69.2504C213.211 69.3107 213.245 69.3925 213.245 69.4779C213.245 69.5632 213.211 69.645 213.151 69.7053C213.091 69.7657 213.009 69.7996 212.923 69.7996Z" fill="#232323"/>
<path d="M201.131 92.9727H194.975C194.89 92.9727 194.808 92.9389 194.748 92.8785C194.687 92.8182 194.653 92.7364 194.653 92.6511V86.8607C194.653 86.7754 194.687 86.6936 194.748 86.6333C194.808 86.5729 194.89 86.5391 194.975 86.5391H201.131C201.216 86.5391 201.298 86.5729 201.358 86.6333C201.419 86.6936 201.453 86.7754 201.453 86.8607V92.6511C201.453 92.7364 201.419 92.8182 201.358 92.8785C201.298 92.9389 201.216 92.9727 201.131 92.9727ZM195.297 92.3294H200.809V87.1824H195.297V92.3294Z" fill="#2E2E2E"/>
<path d="M197.999 91.3439C197.953 91.3439 197.906 91.3337 197.864 91.3141C197.822 91.2944 197.784 91.2657 197.754 91.23L195.82 88.9454C195.767 88.8801 195.741 88.7964 195.748 88.7122C195.756 88.628 195.796 88.5503 195.861 88.4957C195.925 88.4411 196.009 88.414 196.093 88.4204C196.177 88.4268 196.256 88.4661 196.311 88.5298L197.992 90.5155L201.574 86.0228C201.6 85.9891 201.633 85.961 201.67 85.9401C201.707 85.9191 201.748 85.9057 201.79 85.9007C201.832 85.8957 201.875 85.8991 201.916 85.9107C201.957 85.9224 201.995 85.9421 202.029 85.9686C202.062 85.9952 202.09 86.0281 202.11 86.0654C202.131 86.1027 202.144 86.1438 202.148 86.1861C202.153 86.2284 202.149 86.2713 202.136 86.3121C202.124 86.3529 202.104 86.3909 202.077 86.4238L198.251 91.2227C198.221 91.2598 198.184 91.29 198.141 91.3109C198.098 91.3318 198.052 91.3431 198.004 91.3438L197.999 91.3439Z" fill="#232323"/>
<path d="M201.131 103.277H194.975C194.89 103.277 194.808 103.244 194.748 103.183C194.687 103.123 194.653 103.041 194.653 102.956V97.1654C194.653 97.0801 194.687 96.9983 194.748 96.938C194.808 96.8776 194.89 96.8438 194.975 96.8438H201.131C201.216 96.8438 201.298 96.8776 201.358 96.938C201.419 96.9983 201.453 97.0801 201.453 97.1654V102.956C201.453 103.041 201.419 103.123 201.358 103.183C201.298 103.244 201.216 103.277 201.131 103.277ZM195.297 102.634H200.809V97.4871H195.297V102.634Z" fill="#2E2E2E"/>
<path d="M197.999 101.653C197.953 101.653 197.906 101.643 197.864 101.623C197.822 101.604 197.784 101.575 197.754 101.539L195.82 99.2547C195.767 99.1895 195.741 99.1057 195.748 99.0215C195.756 98.9374 195.796 98.8596 195.861 98.805C195.925 98.7504 196.009 98.7234 196.093 98.7298C196.177 98.7362 196.256 98.7755 196.311 98.8392L197.992 100.825L201.574 96.3322C201.6 96.2986 201.633 96.2705 201.67 96.2495C201.707 96.2286 201.748 96.2152 201.79 96.2102C201.832 96.2051 201.875 96.2085 201.916 96.2202C201.957 96.2318 201.995 96.2515 202.029 96.2781C202.062 96.3046 202.09 96.3375 202.11 96.3748C202.131 96.4122 202.144 96.4532 202.148 96.4956C202.153 96.5379 202.149 96.5807 202.136 96.6215C202.124 96.6623 202.104 96.7003 202.077 96.7333L198.251 101.532C198.221 101.569 198.184 101.599 198.141 101.62C198.098 101.641 198.052 101.653 198.004 101.653H197.999ZM222.028 90.073H209.781C209.696 90.073 209.614 90.0391 209.553 89.9788C209.493 89.9185 209.459 89.8367 209.459 89.7513C209.459 89.666 209.493 89.5842 209.553 89.5239C209.614 89.4636 209.696 89.4297 209.781 89.4297H222.028C222.114 89.4297 222.195 89.4636 222.256 89.5239C222.316 89.5842 222.35 89.666 222.35 89.7513C222.35 89.8367 222.316 89.9185 222.256 89.9788C222.195 90.0391 222.114 90.073 222.028 90.073ZM234.83 90.073H224.584C224.498 90.073 224.416 90.0391 224.356 89.9788C224.296 89.9185 224.262 89.8367 224.262 89.7513C224.262 89.666 224.296 89.5842 224.356 89.5239C224.416 89.4636 224.498 89.4297 224.584 89.4297H234.83C234.916 89.4297 234.997 89.4636 235.058 89.5239C235.118 89.5842 235.152 89.666 235.152 89.7513C235.152 89.8367 235.118 89.9185 235.058 89.9788C234.997 90.0391 234.916 90.073 234.83 90.073ZM207.227 90.073H203.767C203.681 90.073 203.6 90.0391 203.539 89.9788C203.479 89.9185 203.445 89.8367 203.445 89.7513C203.445 89.666 203.479 89.5842 203.539 89.5239C203.6 89.4636 203.681 89.4297 203.767 89.4297H207.227C207.313 89.4297 207.394 89.4636 207.455 89.5239C207.515 89.5842 207.549 89.666 207.549 89.7513C207.549 89.8367 207.515 89.9185 207.455 89.9788C207.394 90.0391 207.313 90.073 207.227 90.073ZM227.516 100.261H211.21C211.125 100.261 211.043 100.227 210.983 100.167C210.922 100.106 210.889 100.024 210.889 99.9391C210.889 99.8538 210.922 99.772 210.983 99.7117C211.043 99.6513 211.125 99.6175 211.21 99.6175H227.516C227.601 99.6175 227.683 99.6513 227.743 99.7117C227.803 99.772 227.837 99.8538 227.837 99.9391C227.837 100.024 227.803 100.106 227.743 100.167C227.683 100.227 227.601 100.261 227.516 100.261ZM208.717 100.224L203.774 100.222C203.689 100.222 203.607 100.189 203.547 100.128C203.486 100.068 203.452 99.9861 203.452 99.9008C203.452 99.8155 203.486 99.7336 203.547 99.6733C203.607 99.613 203.689 99.5791 203.774 99.5791L208.717 99.5803C208.802 99.5802 208.884 99.6141 208.944 99.6744C209.005 99.7347 209.039 99.8166 209.039 99.9019C209.039 99.9872 209.005 100.069 208.944 100.129C208.884 100.19 208.802 100.224 208.717 100.224Z" fill="#232323"/>
<path d="M210.567 41.9855L201.151 45.8952C201.006 45.9557 200.913 46.0905 200.913 46.2394V52.086C200.913 60.0351 207.965 63.7467 210.73 64.2684C213.494 63.7466 220.598 60.0351 220.598 52.086V46.2394C220.598 46.0905 220.505 45.9557 220.36 45.8952L210.892 41.9855C210.841 41.9641 210.785 41.9531 210.73 41.9531C210.674 41.9531 210.619 41.9641 210.567 41.9855Z" fill="white"/>
<path d="M210.729 64.5913C210.71 64.5913 210.689 64.5893 210.67 64.5857C207.512 63.9897 200.591 60.015 200.591 52.0871V46.2405C200.591 45.9618 200.762 45.7103 201.027 45.5996L210.444 41.6896C210.627 41.6138 210.833 41.6139 211.016 41.6899L220.483 45.599C220.749 45.7102 220.92 45.9617 220.92 46.2404V52.0869C220.92 60.0074 213.963 63.9864 210.789 64.5855C210.769 64.5893 210.749 64.5913 210.729 64.5913ZM210.729 42.2759C210.716 42.2759 210.703 42.2785 210.691 42.2835L210.69 42.2838L201.274 46.1934C201.251 46.2031 201.235 46.2223 201.235 46.2405V52.087C201.235 56.2936 203.285 59.1087 205.005 60.7293C206.934 62.5466 209.255 63.6459 210.729 63.9417C212.209 63.645 214.541 62.5451 216.48 60.7286C218.212 59.107 220.276 56.2914 220.276 52.0869V46.2405C220.276 46.2223 220.26 46.2032 220.236 46.1931L210.769 42.2839C210.757 42.2787 210.743 42.276 210.729 42.2759Z" fill="#232323"/>
<path d="M210.6 44.4477L203.099 47.6888C202.984 47.7368 202.91 47.844 202.91 47.9622V52.6068C202.91 58.9218 208.534 61.8501 210.729 62.2646C212.925 61.8501 218.566 58.9299 218.566 52.6149V47.9704C218.566 47.8521 218.492 47.7449 218.377 47.6969L210.859 44.4477C210.818 44.4307 210.774 44.4219 210.729 44.4219C210.685 44.4219 210.641 44.4307 210.6 44.4477Z" fill="#FF4F4F"/>
</g>
<g clip-path="url(#clip2_18579_16007)">
<path d="M209.426 29.5785C209.705 26.4398 214.418 25.5033 214.95 29.4087C214.995 26.9712 219.254 26.309 220.015 29.0427C220.74 26.9677 224.199 26.613 225.054 29.5228C225.39 28.4354 228.558 28.1992 228.919 31.036C229.162 32.9392 227.879 34.2091 226.689 34.2172C225.137 34.2279 224.632 32.8476 224.62 32.1615C223.98 34.5011 220.635 35.8539 219.716 31.9985C219.486 34.1509 216.228 36.0072 214.689 32.4328C214.088 33.9625 213.288 34.8486 212.361 34.9562C210.792 35.1386 209.541 32.9499 209.391 31.8264C209.391 31.8264 209.297 30.3362 209.426 29.5785Z" fill="white"/>
<path d="M212.18 35.2785C211.448 35.2785 210.714 34.8561 210.09 34.0701C209.569 33.4132 209.159 32.5239 209.07 31.8569C209.069 31.8495 209.068 31.842 209.068 31.8345C209.064 31.7726 208.974 30.3138 209.104 29.5252C209.282 27.6051 210.892 26.534 212.32 26.5009C213.31 26.4761 214.422 26.9451 214.974 28.237C215.357 27.6152 216.062 27.0939 217.122 26.9595C218.199 26.8231 219.426 27.1942 220.049 28.2734C220.589 27.5225 221.522 27.0503 222.523 27.0784C223.691 27.1078 224.64 27.7584 225.151 28.8498C225.536 28.547 226.128 28.3866 226.774 28.4425C227.822 28.5331 229.021 29.2483 229.242 30.9832C229.371 32.0035 229.108 32.9474 228.501 33.6412C228.01 34.201 227.351 34.5246 226.692 34.5291H226.671C225.695 34.5291 225.125 34.0425 224.818 33.6326C224.706 33.4824 224.611 33.3205 224.534 33.1496C223.947 34.1016 222.943 34.755 221.948 34.7356C220.762 34.7162 220.094 33.8405 219.731 33.0358C219.284 33.9082 218.425 34.5853 217.475 34.7286C216.073 34.9403 215.19 33.9718 214.712 33.1754C214.092 34.4423 213.299 35.1611 212.399 35.2659C212.326 35.2743 212.253 35.2785 212.18 35.2785ZM209.714 31.7827C209.848 32.7363 210.962 34.7815 212.324 34.6225C213.113 34.5308 213.827 33.7286 214.388 32.3024C214.412 32.2427 214.452 32.1913 214.505 32.1547C214.558 32.1182 214.62 32.0981 214.685 32.0971C214.749 32.0961 214.812 32.1142 214.866 32.149C214.92 32.1839 214.962 32.234 214.988 32.2929C215.55 33.5983 216.398 34.236 217.378 34.0882C218.38 33.937 219.285 32.9789 219.394 31.9522C219.403 31.8763 219.437 31.8056 219.493 31.7528C219.548 31.6999 219.62 31.6682 219.696 31.6634C219.773 31.6589 219.848 31.6813 219.909 31.7267C219.971 31.7721 220.014 31.8376 220.032 31.9117C220.363 33.3003 221.047 34.0732 221.958 34.0881C222.945 34.1018 223.998 33.1964 224.308 32.0643C224.328 31.9891 224.375 31.9239 224.44 31.8806C224.505 31.8373 224.583 31.8187 224.661 31.8284C224.738 31.8381 224.809 31.8753 224.861 31.9333C224.914 31.9912 224.943 32.066 224.945 32.1439C224.952 32.5961 225.287 33.8816 226.672 33.8816H226.687C227.154 33.8785 227.649 33.6292 228.012 33.2148C228.496 32.6625 228.704 31.899 228.598 31.065C228.543 30.6345 228.246 29.2199 226.718 29.0877C226.022 29.0278 225.456 29.3072 225.364 29.6064C225.322 29.743 225.198 29.8312 225.052 29.8348C224.982 29.8343 224.915 29.8114 224.859 29.7695C224.803 29.7276 224.763 29.6689 224.743 29.6022C224.406 28.4541 223.57 27.7527 222.506 27.7259C221.522 27.7018 220.621 28.2816 220.322 29.1377C220.299 29.203 220.256 29.2595 220.199 29.2986C220.142 29.3376 220.074 29.3573 220.005 29.3546C219.936 29.3524 219.87 29.3282 219.815 29.2856C219.761 29.243 219.722 29.1842 219.703 29.1177C219.339 27.8108 218.129 27.4847 217.203 27.6018C216.288 27.718 215.294 28.3311 215.274 29.4027C215.273 29.4842 215.241 29.5622 215.184 29.621C215.127 29.6798 215.051 29.7152 214.969 29.7199C214.887 29.7248 214.807 29.6987 214.744 29.6468C214.681 29.595 214.64 29.5212 214.629 29.4403C214.429 27.9764 213.573 27.1214 212.335 27.1483C211.185 27.175 209.887 28.0417 209.749 29.5952C209.748 29.6036 209.747 29.6121 209.746 29.6204C209.631 30.2987 209.706 31.6447 209.714 31.7827Z" fill="#232323"/>
<mask id="mask12_18579_16007" style="mask-type:luminance" maskUnits="userSpaceOnUse" x="209" y="26" width="20" height="9">
<path d="M209.432 30.7424C208.908 26.3033 214.094 24.4024 214.95 29.3956C214.995 26.9581 219.254 26.2959 220.015 29.0297C220.821 26.9546 224.224 26.6086 225.054 29.5097C225.39 28.4223 228.581 28.0512 228.942 30.8879C229.262 33.406 227.059 34.7861 225.621 33.8647C224.768 33.6645 224.62 32.1484 224.62 32.1484C224.62 32.1484 223.889 34.3345 222.236 34.3082C220.502 34.2807 219.62 31.9475 219.62 31.9475C219.62 31.9475 219.348 34.2609 217.198 34.4121C215.352 34.5419 214.69 32.4196 214.69 32.4196C214.69 32.4196 213.775 35.0111 212.117 34.9516C209.553 34.8595 209.472 32.384 209.432 30.7424Z" fill="white"/>
</mask>
<g mask="url(#mask12_18579_16007)">
<path d="M214.677 33.6138C214.633 33.6139 214.588 33.6048 214.548 33.5871C214.507 33.5694 214.47 33.5434 214.44 33.5109C214.409 33.4783 214.386 33.4399 214.371 33.398C214.356 33.356 214.35 33.3115 214.353 33.2671L214.756 27.6133C214.759 27.5709 214.77 27.5295 214.789 27.4915C214.808 27.4534 214.835 27.4195 214.867 27.3917C214.899 27.3638 214.936 27.3425 214.977 27.3291C215.017 27.3157 215.06 27.3103 215.102 27.3133C215.145 27.3163 215.186 27.3277 215.224 27.3467C215.262 27.3657 215.296 27.392 215.324 27.4242C215.352 27.4563 215.373 27.4936 215.387 27.5339C215.4 27.5743 215.406 27.6169 215.403 27.6593L215 33.3131C214.994 33.3947 214.958 33.4711 214.898 33.5269C214.838 33.5827 214.759 33.6138 214.677 33.6138ZM219.649 33.212C219.604 33.212 219.56 33.2029 219.519 33.185C219.478 33.1672 219.441 33.1412 219.411 33.1085C219.381 33.0758 219.357 33.0373 219.343 32.9952C219.328 32.9531 219.322 32.9084 219.325 32.864L219.709 27.7555C219.715 27.67 219.756 27.5905 219.821 27.5346C219.886 27.4786 219.971 27.4507 220.056 27.4568C220.142 27.4633 220.222 27.5035 220.278 27.5686C220.334 27.6337 220.362 27.7183 220.355 27.804L219.972 32.9124C219.966 32.9938 219.929 33.0699 219.869 33.1255C219.809 33.181 219.731 33.2119 219.649 33.212ZM224.42 33.6426C224.372 33.6426 224.325 33.6323 224.282 33.6124C224.239 33.5924 224.201 33.5633 224.171 33.527C224.14 33.4908 224.118 33.4483 224.106 33.4026C224.094 33.3569 224.092 33.309 224.1 33.2624L224.962 28.3835C224.978 28.3003 225.027 28.2267 225.097 28.1788C225.167 28.1308 225.253 28.1122 225.336 28.1269C225.42 28.1417 225.495 28.1886 225.544 28.2576C225.593 28.3266 225.614 28.4123 225.6 28.4961L224.738 33.375C224.725 33.4499 224.686 33.5177 224.628 33.5667C224.569 33.6156 224.496 33.6425 224.42 33.6426Z" fill="#232323"/>
</g>
</g>
<defs>
<clipPath id="clip0_18579_16007">
<rect width="230.822" height="170.545" fill="white"/>
</clipPath>
<clipPath id="clip1_18579_16007">
<rect width="59.2816" height="82.6182" fill="white" transform="translate(187.467 30.75)"/>
</clipPath>
<clipPath id="clip2_18579_16007">
<rect width="20.2398" height="8.848" fill="white" transform="translate(209.034 26.4375)"/>
</clipPath>
</defs>
</svg>
