<svg width="25" height="26" viewBox="0 0 25 26" fill="none" xmlns="http://www.w3.org/2000/svg">
<path d="M18.4974 0.546875C18.0728 0.546875 17.5722 0.634038 16.8883 0.815068C15.1674 1.26876 5.07663 4.0602 4.92689 4.1049C3.42948 4.6681 2.48186 5.22237 1.88737 5.87497C2.58467 5.4034 3.41607 5.10615 4.35474 5.10615H20.3748V3.19304C20.3748 2.26778 20.3681 0.546875 18.4974 0.546875ZM4.35474 6.25044C2.22708 6.25044 0.921875 8.25071 0.921875 9.68331V21.9129C0.921875 23.6852 2.36788 25.1312 4.14019 25.1312H21.7336C23.5059 25.1312 24.9519 23.6852 24.9519 21.9129V9.59391C24.9519 7.84395 23.316 6.25044 21.5191 6.25044H4.35474ZM20.6609 14.2605C21.4498 14.2605 22.0912 14.8997 22.0912 15.6908C22.0912 16.482 21.4498 17.1212 20.6609 17.1212C19.8697 17.1212 19.2305 16.482 19.2305 15.6908C19.2305 14.8997 19.8697 14.2605 20.6609 14.2605Z" fill="white"/>
</svg>
