<svg width="14" height="16" viewBox="0 0 15 16" fill="none" xmlns="http://www.w3.org/2000/svg">
<g clip-path="url(#clip0_11221_29278)">
<path d="M3.43305 0.78125C3.1201 0.78125 2.86079 1.04055 2.86079 1.3535V1.92576H1.14403C0.994262 1.92576 0.842257 1.98052 0.734959 2.08894C0.626544 2.19624 0.571777 2.34824 0.571777 2.49801V13.9431C0.571777 14.0929 0.626544 14.2449 0.734959 14.3533C0.842257 14.4606 0.994262 14.5154 1.14403 14.5154H13.1614C13.3111 14.5154 13.4631 14.4606 13.5716 14.3533C13.6789 14.2449 13.7336 14.0929 13.7336 13.9431V2.49801C13.7336 2.34824 13.6789 2.19624 13.5716 2.08894C13.4631 1.98052 13.3111 1.92576 13.1614 1.92576H11.4446V1.3535C11.4446 1.04055 11.1853 0.78125 10.8724 0.78125H10.3001C9.98715 0.78125 9.72785 1.04055 9.72785 1.3535V1.92576H4.57756V1.3535C4.57756 1.04055 4.31825 0.78125 4.0053 0.78125H3.43305ZM3.43305 1.3535H4.0053V3.07027H3.43305V1.3535ZM10.3001 1.3535H10.8724V3.07027H10.3001V1.3535ZM1.14403 2.49801H2.86079V3.07027C2.86079 3.38322 3.1201 3.64252 3.43305 3.64252H4.0053C4.31825 3.64252 4.57756 3.38322 4.57756 3.07027V2.49801H9.72785V3.07027C9.72785 3.38322 9.98715 3.64252 10.3001 3.64252H10.8724C11.1853 3.64252 11.4446 3.38322 11.4446 3.07027V2.49801H13.1614V4.5009H1.14403V2.49801ZM1.14403 5.07316H13.1614V13.9431H1.14403V5.07316ZM2.86079 6.21767V12.7986H11.4446V6.21767H2.86079ZM3.43305 6.78992H4.86368V8.22056H3.43305V6.78992ZM5.43594 6.78992H6.86657V8.22056H5.43594V6.78992ZM7.43883 6.78992H8.86946V8.22056H7.43883V6.78992ZM9.44172 6.78992H10.8724V8.22056H9.44172V6.78992ZM3.43305 8.79281H4.86368V10.2234H3.43305V8.79281ZM5.43594 8.79281H6.86657V10.2234H5.43594V8.79281ZM7.43883 8.79281H8.86946V10.2234H7.43883V8.79281ZM9.44172 8.79281H10.8724V10.2234H9.44172V8.79281ZM3.43305 10.7957H4.86368V12.2263H3.43305V10.7957ZM5.43594 10.7957H6.86657V12.2263H5.43594V10.7957ZM7.43883 10.7957H8.86946V12.2263H7.43883V10.7957ZM9.44172 10.7957H10.8724V12.2263H9.44172V10.7957Z" fill="#ACACAC"/>
</g>
<defs>
<clipPath id="clip0_11221_29278">
<rect width="14.3064" height="14.3064" fill="white" transform="translate(0 0.78125)"/>
</clipPath>
</defs>
</svg>
