<svg width="13" height="14" viewBox="0 0 14 14" fill="none" xmlns="http://www.w3.org/2000/svg">
<path d="M10.0181 0.0546875C9.12996 0.0546875 8.3528 0.572404 7.93909 1.33086C7.65394 1.28529 7.36528 1.25724 7.08597 1.25373V1.2514H7.02637C3.55545 1.2514 0.743652 4.06319 0.743652 7.53411C0.743652 11.005 3.55545 13.8168 7.02637 13.8168C10.4973 13.8168 13.3091 11.005 13.3091 7.53411C13.3091 6.19132 12.8533 4.87658 12.0645 3.8131C12.2725 3.33628 12.4116 2.89687 12.4116 2.56848C12.4116 1.19179 11.334 0.0546875 10.0181 0.0546875ZM10.0181 0.653041C11.0057 0.653041 11.8132 1.52019 11.8132 2.56848C11.8132 3.28603 10.8561 4.96072 10.0181 6.18781C9.18021 4.96072 8.22307 3.28603 8.22307 2.56848C8.22307 1.52019 9.03062 0.653041 10.0181 0.653041ZM10.0181 1.2514C9.36018 1.2514 8.82143 1.79015 8.82143 2.4481C8.82143 3.10606 9.36018 3.64481 10.0181 3.64481C10.6761 3.64481 11.2148 3.10606 11.2148 2.4481C11.2148 1.79015 10.6761 1.2514 10.0181 1.2514ZM10.0181 1.84975C10.3524 1.84975 10.6165 2.11387 10.6165 2.4481C10.6165 2.78234 10.3524 3.04646 10.0181 3.04646C9.6839 3.04646 9.41978 2.78234 9.41978 2.4481C9.41978 2.11387 9.6839 1.84975 10.0181 1.84975ZM7.32554 1.86377C7.45293 1.86962 7.58382 1.8813 7.71471 1.8965C7.65861 2.11153 7.62472 2.33591 7.62472 2.56848C7.62472 2.99387 7.85495 3.60391 8.17165 4.24316H7.32554V1.86377ZM6.72719 1.88948V4.24316H4.84799C5.28506 2.97049 5.96055 2.07647 6.72719 1.88948ZM5.35051 2.10101C4.87954 2.62106 4.48921 3.35615 4.2099 4.24316H2.39614C3.11253 3.23812 4.14328 2.47264 5.35051 2.10101ZM11.77 4.42664C12.3321 5.25289 12.6465 6.22755 12.699 7.23493H10.315C10.3138 7.0982 10.308 6.96614 10.2998 6.83058C10.6457 6.33156 11.2628 5.40715 11.77 4.42664ZM2.01983 4.84152H4.04395C3.86865 5.56959 3.76347 6.37597 3.7436 7.23493H1.3572C1.40161 6.37246 1.63183 5.56024 2.01983 4.84152ZM4.66567 4.84152H6.72719V7.23493H4.34196C4.36416 6.37831 4.47635 5.56375 4.66567 4.84152ZM7.32554 4.84152H8.49187C8.9231 5.61634 9.38239 6.31637 9.68974 6.7628C9.69909 6.91706 9.70494 7.076 9.70961 7.23493H7.32554V4.84152ZM1.3572 7.83329H3.7436C3.76347 8.69225 3.86865 9.49863 4.04395 10.2267H2.01983C1.63183 9.50798 1.40161 8.69576 1.3572 7.83329ZM4.34196 7.83329H6.72719V10.2267H4.66567C4.47635 9.50447 4.36416 8.68992 4.34196 7.83329ZM7.32554 7.83329H9.71078C9.68857 8.68992 9.57638 9.50447 9.38706 10.2267H7.32554V7.83329ZM10.3091 7.83329H12.6955C12.6511 8.69576 12.4209 9.50798 12.0329 10.2267H10.0088C10.1841 9.49863 10.2893 8.69225 10.3091 7.83329ZM2.39614 10.8251H4.2099C4.48921 11.7121 4.87954 12.4472 5.35051 12.9672C4.14328 12.5956 3.11253 11.8301 2.39614 10.8251ZM4.84799 10.8251H6.72719V13.1799C5.96172 12.9918 5.28506 12.0977 4.84799 10.8251ZM7.32554 10.8251H9.20475C8.76767 12.0977 8.09102 12.9918 7.32554 13.1799V10.8251ZM9.84284 10.8251H11.6566C10.9402 11.8301 9.90945 12.5956 8.70223 12.9672C9.17319 12.4472 9.56353 11.7121 9.84284 10.8251Z" fill="#ACACAC"/>
</svg>
