<svg width="15" height="15" viewBox="0 0 15 15" fill="none" xmlns="http://www.w3.org/2000/svg">
<g clip-path="url(#clip0_11221_29267)">
<path d="M2.17319 3.14844C1.39986 3.14844 0.765137 3.78316 0.765137 4.55649V11.3151C0.765137 12.0884 1.39986 12.7232 2.17319 12.7232H3.32602C3.36453 13.062 3.36013 13.3755 3.27322 13.6384C3.16652 13.9618 2.96741 14.2335 2.5956 14.4568C2.4911 14.5228 2.44269 14.6493 2.4746 14.7681C2.5065 14.8869 2.6132 14.9716 2.7364 14.976C3.93105 14.976 5.30059 14.3523 5.99252 12.7232H12.3111C13.0845 12.7232 13.7192 12.0884 13.7192 11.3151V4.55649C13.7192 3.78316 13.0845 3.14844 12.3111 3.14844H2.17319ZM2.17319 3.71166H12.3111C12.7775 3.71166 13.156 4.09007 13.156 4.55649V11.3151C13.156 11.7815 12.7775 12.1599 12.3111 12.1599H5.83411C5.71641 12.1599 5.6108 12.2337 5.5701 12.3448C5.13229 13.5394 4.35016 14.1081 3.53723 14.316C3.64724 14.1587 3.75174 13.9926 3.81004 13.8144C3.95635 13.37 3.94425 12.8838 3.85404 12.3888C3.82874 12.2579 3.71544 12.1621 3.58123 12.1599H2.17319C1.70677 12.1599 1.32836 11.7815 1.32836 11.3151V4.55649C1.32836 4.09007 1.70677 3.71166 2.17319 3.71166ZM4.42606 7.09097C3.96295 7.09097 3.58123 7.47269 3.58123 7.9358C3.58123 8.39892 3.96295 8.78063 4.42606 8.78063C4.88918 8.78063 5.27089 8.39892 5.27089 7.9358C5.27089 7.47269 4.88918 7.09097 4.42606 7.09097ZM7.24216 7.09097C6.77904 7.09097 6.39733 7.47269 6.39733 7.9358C6.39733 8.39892 6.77904 8.78063 7.24216 8.78063C7.70528 8.78063 8.08699 8.39892 8.08699 7.9358C8.08699 7.47269 7.70528 7.09097 7.24216 7.09097ZM10.0583 7.09097C9.59514 7.09097 9.21343 7.47269 9.21343 7.9358C9.21343 8.39892 9.59514 8.78063 10.0583 8.78063C10.5214 8.78063 10.9031 8.39892 10.9031 7.9358C10.9031 7.47269 10.5214 7.09097 10.0583 7.09097ZM4.42606 7.65419C4.58447 7.65419 4.70767 7.7774 4.70767 7.9358C4.70767 8.09421 4.58447 8.21741 4.42606 8.21741C4.26766 8.21741 4.14445 8.09421 4.14445 7.9358C4.14445 7.7774 4.26766 7.65419 4.42606 7.65419ZM7.24216 7.65419C7.40056 7.65419 7.52377 7.7774 7.52377 7.9358C7.52377 8.09421 7.40056 8.21741 7.24216 8.21741C7.08375 8.21741 6.96055 8.09421 6.96055 7.9358C6.96055 7.7774 7.08375 7.65419 7.24216 7.65419ZM10.0583 7.65419C10.2167 7.65419 10.3399 7.7774 10.3399 7.9358C10.3399 8.09421 10.2167 8.21741 10.0583 8.21741C9.89985 8.21741 9.77665 8.09421 9.77665 7.9358C9.77665 7.7774 9.89985 7.65419 10.0583 7.65419Z" fill="#ACACAC"/>
</g>
<defs>
<clipPath id="clip0_11221_29267">
<rect width="14.0805" height="14.0805" fill="white" transform="translate(0.202148 0.898438)"/>
</clipPath>
</defs>
</svg>
