<svg width="280" height="246" viewBox="0 0 280 246" fill="none" xmlns="http://www.w3.org/2000/svg">
<g clip-path="url(#clip0_13503_12688)">
<path d="M155.397 224.113H129.783V182.636H155.397V224.113Z" fill="#FF4F4F"/>
<path d="M108.99 228.35H176.19C176.962 228.35 177.587 227.724 177.587 226.952V224.836C177.587 224.064 176.962 223.438 176.19 223.438H108.99C108.219 223.438 107.593 224.064 107.593 224.836V226.952C107.593 227.724 108.219 228.35 108.99 228.35Z" fill="#FF4F4F"/>
<path d="M155.397 193.03V182.636H129.783V186.352L155.397 193.03Z" fill="#3C191E"/>
<path d="M225.167 182.637H60.0127C57.1871 182.637 54.8965 180.346 54.8965 177.52V84.0337C54.8965 81.2078 57.1871 78.917 60.0127 78.917H225.167C227.993 78.917 230.283 81.2078 230.283 84.0337V177.52C230.283 180.346 227.993 182.637 225.167 182.637Z" fill="white"/>
<path d="M225.167 183.843H60.0127C56.5263 183.843 53.6899 181.006 53.6899 177.519V84.0333C53.6899 80.5466 56.5264 77.71 60.0127 77.71H225.167C228.654 77.71 231.49 80.5466 231.49 84.0333V177.519C231.49 181.006 228.654 183.843 225.167 183.843ZM60.0127 80.1235C57.8571 80.1235 56.1033 81.8775 56.1033 84.0333V177.519C56.1033 179.675 57.8571 181.429 60.0128 181.429H225.167C227.323 181.429 229.077 179.675 229.077 177.519V84.0333C229.077 81.8774 227.323 80.1234 225.167 80.1234L60.0127 80.1235Z" fill="#FF4F4F"/>
</g>
<g clip-path="url(#clip1_13503_12688)">
<path d="M191.694 167.871L86.6981 167.912C85.185 167.913 83.958 166.687 83.958 165.174V99.0266C83.9581 97.5142 85.1845 96.2881 86.6973 96.2881H191.693C193.206 96.2881 194.432 97.5142 194.432 99.0266V165.133C194.432 166.645 193.206 167.871 191.694 167.871Z" fill="white"/>
<path d="M86.6973 168.5C85.8088 168.5 84.9734 168.154 84.3451 167.526C83.7164 166.898 83.3701 166.062 83.3701 165.174V99.0266C83.3701 97.1924 84.8627 95.7002 86.6973 95.7002H191.693C193.528 95.7002 195.02 97.1924 195.02 99.0266V165.133C195.02 166.966 193.528 168.458 191.694 168.459L86.6985 168.5H86.6973ZM86.6973 96.876C85.5111 96.876 84.5462 97.8408 84.5462 99.0266V165.174C84.5462 165.748 84.77 166.289 85.1764 166.695C85.3757 166.895 85.6127 167.054 85.8738 167.162C86.1349 167.27 86.4148 167.325 86.6973 167.324H86.698L191.694 167.283C192.879 167.283 193.844 166.318 193.844 165.133V99.0266C193.844 97.8408 192.879 96.876 191.693 96.876H86.6973Z" fill="#FAE2CE"/>
<path d="M83.9583 112.862H194.432V98.9924C194.432 97.4988 193.221 96.2881 191.727 96.2881H86.6632C85.1692 96.2881 83.9583 97.4989 83.9583 98.9924V112.862Z" fill="#FAE2CE"/>
<path d="M90.9431 107.111C92.5316 107.111 93.8193 105.824 93.8193 104.236C93.8193 102.648 92.5316 101.36 90.9431 101.36C89.3546 101.36 88.0669 102.648 88.0669 104.236C88.0669 105.824 89.3546 107.111 90.9431 107.111Z" fill="white"/>
<path d="M100.53 107.111C102.119 107.111 103.406 105.824 103.406 104.236C103.406 102.648 102.119 101.36 100.53 101.36C98.9418 101.36 97.6541 102.648 97.6541 104.236C97.6541 105.824 98.9418 107.111 100.53 107.111Z" fill="white"/>
<path d="M110.117 107.111C111.706 107.111 112.994 105.824 112.994 104.236C112.994 102.648 111.706 101.36 110.117 101.36C108.529 101.36 107.241 102.648 107.241 104.236C107.241 105.824 108.529 107.111 110.117 107.111Z" fill="white"/>
</g>
<g clip-path="url(#clip2_13503_12688)">
<path d="M252.35 153.03H147.42V22.6201H252.35V153.03Z" fill="#FF4F4F"/>
<path d="M149.976 27.8271H249.793V147.823H149.976V27.8271Z" fill="white"/>
<path d="M236.413 53.2036H196.406C196.236 53.2036 196.074 53.1363 195.954 53.0164C195.834 52.8964 195.766 52.7338 195.766 52.5642C195.766 52.3946 195.834 52.232 195.954 52.1121C196.074 51.9922 196.236 51.9248 196.406 51.9248H236.413C236.582 51.9248 236.745 51.9922 236.865 52.1121C236.985 52.232 237.052 52.3946 237.052 52.5642C237.052 52.7338 236.985 52.8964 236.865 53.0164C236.745 53.1363 236.582 53.2036 236.413 53.2036ZM236.413 63.4473H196.406C196.236 63.4473 196.074 63.3799 195.954 63.26C195.834 63.1401 195.766 62.9774 195.766 62.8079C195.766 62.6383 195.834 62.4756 195.954 62.3557C196.074 62.2358 196.236 62.1684 196.406 62.1684H236.413C236.582 62.1684 236.745 62.2358 236.865 62.3557C236.985 62.4756 237.052 62.6383 237.052 62.8079C237.052 62.9774 236.985 63.1401 236.865 63.26C236.745 63.3799 236.582 63.4473 236.413 63.4473ZM232.023 73.6906H196.406C196.236 73.6906 196.074 73.6233 195.954 73.5034C195.834 73.3834 195.766 73.2208 195.766 73.0512C195.766 72.8816 195.834 72.719 195.954 72.5991C196.074 72.4792 196.236 72.4118 196.406 72.4118H232.023C232.193 72.4118 232.356 72.4792 232.475 72.5991C232.595 72.719 232.663 72.8816 232.663 73.0512C232.663 73.2208 232.595 73.3834 232.475 73.5034C232.356 73.6233 232.193 73.6906 232.023 73.6906ZM236.413 83.9341H196.406C196.236 83.9341 196.074 83.8668 195.954 83.7469C195.834 83.627 195.766 83.4643 195.766 83.2947C195.766 83.1251 195.834 82.9625 195.954 82.8426C196.074 82.7227 196.236 82.6553 196.406 82.6553H236.413C236.582 82.6553 236.745 82.7227 236.865 82.8426C236.985 82.9625 237.052 83.1251 237.052 83.2947C237.052 83.4643 236.985 83.627 236.865 83.7469C236.745 83.8668 236.582 83.9341 236.413 83.9341ZM228.64 94.1776H163.357C163.188 94.1776 163.025 94.1103 162.905 93.9904C162.785 93.8705 162.718 93.7078 162.718 93.5382C162.718 93.3686 162.785 93.206 162.905 93.0861C163.025 92.9662 163.188 92.8988 163.357 92.8988H228.64C228.809 92.8988 228.972 92.9662 229.092 93.0861C229.211 93.206 229.279 93.3686 229.279 93.5382C229.279 93.7078 229.211 93.8705 229.092 93.9904C228.972 94.1103 228.809 94.1776 228.64 94.1776ZM236.413 104.421H163.357C163.188 104.421 163.025 104.354 162.905 104.234C162.785 104.114 162.718 103.951 162.718 103.782C162.718 103.612 162.785 103.45 162.905 103.33C163.025 103.21 163.188 103.142 163.357 103.142H236.413C236.582 103.142 236.745 103.21 236.865 103.33C236.985 103.449 237.052 103.612 237.052 103.782C237.052 103.951 236.985 104.114 236.865 104.234C236.745 104.354 236.582 104.421 236.413 104.421ZM197.682 114.665H163.357C163.188 114.665 163.025 114.597 162.905 114.477C162.785 114.357 162.718 114.195 162.718 114.025C162.718 113.856 162.785 113.693 162.905 113.573C163.025 113.453 163.188 113.386 163.357 113.386H197.682C197.851 113.386 198.014 113.453 198.134 113.573C198.254 113.693 198.321 113.856 198.321 114.025C198.321 114.195 198.254 114.357 198.134 114.477C198.014 114.597 197.851 114.665 197.682 114.665ZM183.895 124.908H163.357C163.188 124.908 163.025 124.841 162.905 124.721C162.785 124.601 162.718 124.438 162.718 124.269C162.718 124.099 162.785 123.937 162.905 123.817C163.025 123.697 163.188 123.629 163.357 123.629H183.895C184.065 123.629 184.227 123.697 184.347 123.817C184.467 123.937 184.534 124.099 184.534 124.269C184.534 124.438 184.467 124.601 184.347 124.721C184.227 124.841 184.065 124.908 183.895 124.908Z" fill="black"/>
<path d="M163.358 79.973C163.358 70.0064 187.432 70.0064 187.432 79.973V81.2363C187.432 82.3733 186.511 83.2952 185.374 83.2952H165.415C164.279 83.2952 163.357 82.3733 163.357 81.2363V79.973H163.358Z" fill="#FAE2CE"/>
<path d="M185.374 83.9345H165.415C163.928 83.9345 162.718 82.7241 162.718 81.2361V79.3333H162.749C162.967 77.0606 164.36 75.1593 166.811 73.8067C169.087 72.5504 172.135 71.8584 175.395 71.8584C178.654 71.8584 181.703 72.5504 183.979 73.8067C186.656 75.2844 188.071 77.4166 188.071 79.9728V81.2361C188.071 82.7241 186.861 83.9345 185.374 83.9345ZM163.996 80.6122V81.2361C163.996 82.0188 164.633 82.6556 165.415 82.6556H185.374C186.156 82.6556 186.793 82.0189 186.793 81.2361V79.9728C186.793 77.3674 184.927 75.7904 183.362 74.9265C181.271 73.7727 178.442 73.1372 175.395 73.1372C172.348 73.1372 169.518 73.7727 167.428 74.9265C165.863 75.7904 163.997 77.3674 163.997 79.9728L163.996 80.6122Z" fill="#FAE2CE"/>
<path d="M175.394 66.6839C179.291 66.6839 182.45 63.5231 182.45 59.6242C182.45 55.7252 179.291 52.5645 175.394 52.5645C171.497 52.5645 168.338 55.7252 168.338 59.6242C168.338 63.5231 171.497 66.6839 175.394 66.6839Z" fill="#FAE2CE"/>
<path d="M175.394 67.3231C171.151 67.3231 167.699 63.8692 167.699 59.6239C167.699 55.3787 171.151 51.9248 175.394 51.9248C179.637 51.9248 183.09 55.3787 183.09 59.6239C183.09 63.8692 179.637 67.3231 175.394 67.3231ZM175.394 53.2036C171.856 53.2036 168.977 56.0837 168.977 59.6239C168.977 63.1641 171.856 66.0442 175.394 66.0442C178.933 66.0442 181.811 63.1641 181.811 59.6239C181.811 56.0837 178.933 53.2036 175.394 53.2036Z" fill="#FAE2CE"/>
<path d="M217.48 27.8268H182.29C180.853 27.8268 179.688 26.6612 179.688 25.2234C179.688 23.7857 180.853 22.6201 182.29 22.6201H217.48C218.917 22.6201 220.082 23.7857 220.082 25.2234C220.082 26.6612 218.917 27.8268 217.48 27.8268Z" fill="#E51B26"/>
<path d="M212.969 34.5272H186.8C185.743 34.5272 184.883 33.6666 184.883 32.6089V25.9148C184.883 25.7452 184.95 25.5826 185.07 25.4627C185.19 25.3428 185.353 25.2754 185.522 25.2754C185.692 25.2754 185.854 25.3428 185.974 25.4627C186.094 25.5826 186.161 25.7452 186.161 25.9148V32.6089C186.161 32.9615 186.448 33.2483 186.8 33.2483H212.969C213.322 33.2483 213.608 32.9615 213.608 32.6089V25.9148C213.608 25.7452 213.676 25.5826 213.796 25.4627C213.915 25.3428 214.078 25.2754 214.247 25.2754C214.417 25.2754 214.58 25.3428 214.699 25.4627C214.819 25.5826 214.887 25.7452 214.887 25.9148V32.6089C214.887 33.6667 214.026 34.5272 212.969 34.5272Z" fill="black"/>
<path d="M221.433 140.903C229.747 140.903 236.487 134.16 236.487 125.842C236.487 117.523 229.747 110.78 221.433 110.78C213.119 110.78 206.379 117.523 206.379 125.842C206.379 134.16 213.119 140.903 221.433 140.903Z" fill="#DFDFDF"/>
<path d="M220.263 133.125C219.974 133.125 219.691 133.027 219.463 132.844L213.272 127.876C212.721 127.435 212.632 126.63 213.074 126.079C213.516 125.528 214.32 125.439 214.871 125.881L220.002 129.997L227.595 119.218C228.001 118.641 228.799 118.502 229.376 118.91C229.953 119.316 230.091 120.114 229.684 120.692L221.308 132.583C221.19 132.75 221.033 132.887 220.851 132.981C220.67 133.076 220.468 133.125 220.263 133.125Z" fill="white"/>
</g>
<g clip-path="url(#clip3_13503_12688)">
<path d="M178.969 165.012C178.172 164.922 177.405 164.54 176.844 163.881C175.674 162.509 175.839 160.454 177.212 159.292L199.684 140.276C201.057 139.114 203.119 139.284 204.289 140.657C205.459 142.03 205.294 144.084 203.921 145.247L181.449 164.262C180.735 164.866 179.834 165.111 178.969 165.012Z" fill="#3C191E"/>
<path d="M218.26 151.223C211.918 150.503 206.176 147.452 202.02 142.577C197.693 137.502 195.604 131.056 196.136 124.428C196.668 117.8 199.759 111.783 204.838 107.485C215.323 98.6118 231.121 99.9173 240.052 110.394C248.984 120.872 247.72 136.614 237.234 145.487C232.155 149.785 225.695 151.85 219.043 151.3C218.782 151.278 218.52 151.253 218.26 151.223ZM223.438 104.993C217.688 104.34 211.698 105.958 206.957 109.97C197.842 117.682 196.744 131.365 204.507 140.472C208.119 144.71 213.111 147.362 218.623 147.988C218.849 148.013 219.077 148.036 219.304 148.054C225.085 148.532 230.701 146.738 235.116 143.002C244.23 135.29 245.329 121.606 237.565 112.499C233.84 108.129 228.741 105.595 223.438 104.993Z" fill="#3C191E"/>
</g>
<g clip-path="url(#clip4_13503_12688)">
<path d="M57.1135 225.625L50.4543 227.348L31.5 153.979L32.024 144.963C32.0641 144.273 32.965 144.04 33.3345 144.624L38.1592 152.256L57.1135 225.625Z" fill="#FF4F4F"/>
<path d="M31.7393 149.863L35.9565 148.772L33.3236 144.607C32.9608 144.033 32.076 144.261 32.0353 144.939L31.7393 149.863ZM52.2553 226.681C52.1561 226.681 52.0597 226.648 51.9813 226.587C51.9029 226.526 51.8469 226.441 51.8221 226.345L33.0251 153.584C32.9953 153.469 33.0125 153.347 33.0728 153.245C33.1331 153.142 33.2315 153.068 33.3465 153.038C33.4615 153.009 33.5835 153.026 33.6858 153.086C33.7881 153.146 33.8623 153.245 33.8922 153.36L52.6892 226.12C52.7063 226.187 52.7081 226.256 52.6943 226.323C52.6805 226.39 52.6515 226.453 52.6096 226.507C52.5678 226.561 52.514 226.605 52.4526 226.635C52.3912 226.665 52.3237 226.681 52.2553 226.681ZM54.8014 226.022C54.7022 226.022 54.6058 225.989 54.5274 225.928C54.449 225.867 54.393 225.782 54.3682 225.686L39.4402 167.902C39.4104 167.786 39.4276 167.664 39.4879 167.562C39.5482 167.459 39.6466 167.385 39.7616 167.355C39.8766 167.326 39.9987 167.343 40.101 167.403C40.2034 167.464 40.2775 167.562 40.3073 167.677L55.2354 225.462C55.2525 225.528 55.2542 225.597 55.2404 225.664C55.2266 225.731 55.1977 225.794 55.1558 225.848C55.1139 225.902 55.0601 225.946 54.9987 225.976C54.9373 226.006 54.8698 226.022 54.8014 226.022Z" fill="#3C191E"/>
<path d="M62.4193 150.397L67.4008 151.557C67.8752 151.667 68.1855 152.076 68.0939 152.47L67.3865 155.513L66.3852 157.217L66.5368 159.167L54.0528 212.862C54.0353 212.936 54.0041 213.007 53.9608 213.07L51.0299 217.372C50.2915 218.456 48.2609 217.983 48.0763 216.684L47.344 211.529C47.3331 211.453 47.3363 211.376 47.3535 211.302L59.8376 157.607L60.7337 155.946L60.6873 153.952L61.3948 150.91C61.4863 150.516 61.945 150.286 62.4193 150.397Z" fill="#E51B26"/>
<path d="M59.8367 157.606L60.6863 153.951L67.3856 155.511L66.5361 159.166L59.8367 157.606ZM33.8123 226.474V182.76C33.8123 182.01 34.42 181.402 35.1697 181.402H64.6962C65.446 181.402 66.0537 182.01 66.0537 182.76V226.474C66.0537 227.224 65.446 227.832 64.6962 227.832H35.1697C34.42 227.832 33.8123 227.224 33.8123 226.474Z" fill="#FAE2CE"/>
<path d="M57.1136 228.28C56.9948 228.28 56.8809 228.233 56.7969 228.149C56.7129 228.065 56.6658 227.951 56.6658 227.832V181.199C56.6658 181.08 56.7129 180.966 56.7969 180.882C56.8809 180.798 56.9948 180.751 57.1136 180.751C57.2323 180.751 57.3462 180.798 57.4302 180.882C57.5142 180.966 57.5614 181.08 57.5614 181.199V227.832C57.5614 227.951 57.5142 228.065 57.4302 228.149C57.3462 228.233 57.2323 228.28 57.1136 228.28Z" fill="#3C191E"/>
</g>
<g clip-path="url(#clip5_13503_12688)">
<path d="M171.689 210.92H199.85C199.85 210.92 193.641 210.92 193.641 196.15C193.641 184.934 196.302 181.38 196.302 181.38H168.141C168.141 181.38 165.48 185.6 165.48 196.15C165.48 210.92 171.689 210.92 171.689 210.92Z" fill="#FAE2CE"/>
<path d="M172.533 187.982H189.076C189.206 187.982 189.331 187.931 189.423 187.838C189.515 187.746 189.566 187.621 189.566 187.491C189.566 187.36 189.515 187.235 189.423 187.143C189.331 187.051 189.206 186.999 189.076 186.999H172.533C172.402 186.999 172.278 187.051 172.186 187.143C172.094 187.235 172.042 187.36 172.042 187.491C172.042 187.621 172.094 187.746 172.186 187.838C172.278 187.931 172.402 187.982 172.533 187.982ZM172.533 192.424H189.076C189.206 192.424 189.331 192.373 189.423 192.28C189.515 192.188 189.566 192.063 189.566 191.933C189.566 191.802 189.515 191.677 189.423 191.585C189.331 191.493 189.206 191.441 189.076 191.441H172.533C172.402 191.441 172.278 191.493 172.186 191.585C172.094 191.677 172.042 191.802 172.042 191.933C172.042 192.063 172.094 192.188 172.186 192.28C172.278 192.373 172.402 192.424 172.533 192.424ZM172.533 196.867H189.076C189.206 196.867 189.331 196.815 189.423 196.723C189.515 196.63 189.566 196.505 189.566 196.375C189.566 196.245 189.515 196.119 189.423 196.027C189.331 195.935 189.206 195.883 189.076 195.883H172.533C172.402 195.883 172.278 195.935 172.186 196.027C172.094 196.119 172.042 196.245 172.042 196.375C172.042 196.505 172.094 196.63 172.186 196.723C172.278 196.815 172.402 196.867 172.533 196.867Z" fill="#3C191E"/>
</g>
<g clip-path="url(#clip6_13503_12688)">
<path d="M195.073 210.71H224.42C224.42 210.71 220.307 199.05 220.307 181.38H190.96C190.96 199.05 195.073 210.71 195.073 210.71Z" fill="#E51B26"/>
<path d="M196.347 189.38H215.423C215.549 189.38 215.669 189.331 215.758 189.242C215.847 189.153 215.897 189.032 215.897 188.907C215.897 188.781 215.847 188.66 215.758 188.571C215.669 188.483 215.549 188.433 215.423 188.433H196.347C196.221 188.433 196.1 188.483 196.011 188.571C195.922 188.66 195.872 188.781 195.872 188.907C195.872 189.032 195.922 189.153 196.011 189.242C196.1 189.331 196.221 189.38 196.347 189.38ZM197.118 197.127H216.194C216.256 197.127 216.318 197.115 216.375 197.091C216.433 197.068 216.485 197.033 216.529 196.989C216.573 196.945 216.608 196.892 216.632 196.835C216.656 196.777 216.668 196.716 216.668 196.653C216.668 196.591 216.656 196.53 216.632 196.472C216.608 196.415 216.573 196.362 216.529 196.318C216.485 196.274 216.433 196.239 216.375 196.216C216.318 196.192 216.256 196.18 216.194 196.18H197.118C197.055 196.18 196.994 196.192 196.936 196.216C196.879 196.239 196.826 196.274 196.782 196.318C196.738 196.362 196.703 196.415 196.68 196.472C196.656 196.53 196.643 196.591 196.643 196.653C196.643 196.716 196.656 196.777 196.68 196.835C196.703 196.892 196.738 196.945 196.782 196.989C196.826 197.033 196.879 197.068 196.936 197.091C196.994 197.115 197.055 197.127 197.118 197.127Z" fill="#3C191E"/>
</g>
<defs>
<clipPath id="clip0_13503_12688">
<rect width="177.8" height="150.64" fill="white" transform="translate(53.6899 77.71)"/>
</clipPath>
<clipPath id="clip1_13503_12688">
<rect width="111.65" height="72.8" fill="white" transform="translate(83.3701 95.7002)"/>
</clipPath>
<clipPath id="clip2_13503_12688">
<rect width="104.93" height="130.41" fill="white" transform="translate(147.42 22.6201)"/>
</clipPath>
<clipPath id="clip3_13503_12688">
<rect width="56.98" height="74.62" fill="white" transform="matrix(0.950692 0.310137 -0.309734 0.950823 198.327 92.9072)"/>
</clipPath>
<clipPath id="clip4_13503_12688">
<rect width="36.61" height="84" fill="white" transform="translate(31.5 144.28)"/>
</clipPath>
<clipPath id="clip5_13503_12688">
<rect width="34.37" height="29.54" fill="white" transform="matrix(-1 0 0 1 199.85 181.38)"/>
</clipPath>
<clipPath id="clip6_13503_12688">
<rect width="33.46" height="29.33" fill="white" transform="matrix(-1 0 0 1 224.42 181.38)"/>
</clipPath>
</defs>
</svg>
