<svg width="18" height="18" viewBox="0 0 18 18" fill="none" xmlns="http://www.w3.org/2000/svg">
<g id="letter-opened-svgrepo-com 1">
<path id="Vector" fill-rule="evenodd" clip-rule="evenodd" d="M8.32949 1.74805H9.82082C10.6225 1.74803 11.2776 1.74802 11.7948 1.81755C12.3354 1.89024 12.8041 2.04754 13.1783 2.42167C13.5524 2.79581 13.7097 3.26453 13.7824 3.80515C13.8181 4.07101 13.8355 4.37333 13.844 4.71326C14.5928 4.83407 15.2065 5.07188 15.698 5.56337C16.2276 6.09296 16.4626 6.76449 16.5742 7.59417C16.6825 8.40036 16.6825 9.43044 16.6825 10.731V10.8108C16.6825 12.1113 16.6825 13.1414 16.5742 13.9476C16.4626 14.7773 16.2276 15.4488 15.698 15.9784C15.1684 16.508 14.4968 16.743 13.6672 16.8546C12.861 16.9629 11.8309 16.9629 10.5304 16.9629H7.61991C6.31939 16.9629 5.28929 16.9629 4.48311 16.8546C3.65343 16.743 2.9819 16.508 2.4523 15.9784C1.92272 15.4488 1.68769 14.7773 1.57615 13.9476C1.46775 13.1414 1.46776 12.1113 1.46777 10.8108V10.731C1.46776 9.43044 1.46775 8.40036 1.57615 7.59417C1.68769 6.76449 1.92272 6.09296 2.4523 5.56337C2.94379 5.07188 3.55752 4.83407 4.30638 4.71326C4.31482 4.37333 4.33219 4.07101 4.36793 3.80515C4.44062 3.26453 4.59792 2.79581 4.97205 2.42167C5.34619 2.04754 5.8149 1.89024 6.35552 1.81755C6.87273 1.74802 7.52783 1.74803 8.32949 1.74805ZM4.29843 5.79314C3.78113 5.89699 3.4533 6.06355 3.20289 6.31396C2.9034 6.61345 2.72389 7.02364 2.62817 7.73561C2.53039 8.46285 2.52927 9.42152 2.52927 10.7709C2.52927 12.1203 2.53039 13.0789 2.62817 13.8061C2.72389 14.5181 2.9034 14.9283 3.20289 15.2278C3.50238 15.5273 3.91258 15.7068 4.62455 15.8025C5.35179 15.9003 6.31044 15.9015 7.65982 15.9015H10.4905C11.8398 15.9015 12.7985 15.9003 13.5258 15.8025C14.2377 15.7068 14.6479 15.5273 14.9474 15.2278C15.2469 14.9283 15.4264 14.5181 15.5221 13.8061C15.6199 13.0789 15.621 12.1203 15.621 10.7709C15.621 9.42152 15.6199 8.46285 15.5221 7.73561C15.4264 7.02364 15.2469 6.61345 14.9474 6.31396C14.697 6.06355 14.3692 5.89699 13.8519 5.79314V6.61429C13.8519 6.64694 13.8519 6.6792 13.8519 6.71108C13.8525 7.26734 13.853 7.70794 13.6682 8.10265C13.4833 8.49731 13.1445 8.77903 12.7168 9.13471C12.6923 9.15509 12.6675 9.17568 12.6424 9.19663L12.1066 9.64316C11.4793 10.1658 10.9709 10.5895 10.5222 10.8781C10.0548 11.1787 9.5996 11.3687 9.07515 11.3687C8.5507 11.3687 8.09553 11.1787 7.62811 10.8781C7.17941 10.5895 6.67102 10.1658 6.04378 9.64316L5.50791 9.19663C5.48283 9.17568 5.45803 9.15509 5.43352 9.13471C5.00581 8.77903 4.66702 8.49731 4.48216 8.10265C4.29729 7.70794 4.29776 7.26734 4.29835 6.71107C4.29839 6.6792 4.29843 6.64694 4.29843 6.61429V5.79314ZM6.49696 2.86958C6.07405 2.92644 5.86668 3.02822 5.72264 3.17226C5.5786 3.3163 5.47682 3.52367 5.41996 3.94659C5.36105 4.38476 5.35992 4.96812 5.35992 5.81711V6.61429C5.35992 7.31581 5.37165 7.49913 5.44343 7.6524C5.51522 7.80566 5.64855 7.93203 6.18746 8.38112L6.69672 8.8055C7.35694 9.35571 7.8153 9.73643 8.20232 9.98532C8.57688 10.2263 8.83094 10.3072 9.07515 10.3072C9.31937 10.3072 9.57342 10.2263 9.94798 9.98532C10.335 9.73643 10.7934 9.35571 11.4536 8.8055L11.9628 8.38112C12.5017 7.93203 12.635 7.80566 12.7069 7.6524C12.7786 7.49913 12.7904 7.31581 12.7904 6.61429V5.81711C12.7904 4.96812 12.7892 4.38476 12.7304 3.94659C12.6735 3.52367 12.5717 3.3163 12.4276 3.17226C12.2836 3.02822 12.0763 2.92644 11.6533 2.86958C11.2152 2.81067 10.6318 2.80954 9.78281 2.80954H8.36749C7.5185 2.80954 6.93514 2.81067 6.49696 2.86958ZM7.12908 5.10945C7.12908 4.81633 7.3667 4.5787 7.65982 4.5787H10.4905C10.7836 4.5787 11.0212 4.81633 11.0212 5.10945C11.0212 5.40258 10.7836 5.64019 10.4905 5.64019H7.65982C7.3667 5.64019 7.12908 5.40258 7.12908 5.10945ZM7.83674 7.23244C7.83674 6.93931 8.07437 6.70169 8.36749 6.70169H9.78281C10.0759 6.70169 10.3136 6.93931 10.3136 7.23244C10.3136 7.52556 10.0759 7.76318 9.78281 7.76318H8.36749C8.07437 7.76318 7.83674 7.52556 7.83674 7.23244Z" fill="#EA4C36"/>
</g>
</svg>
