<svg width="65" height="65" viewBox="0 0 65 65" fill="none" xmlns="http://www.w3.org/2000/svg">
<g id="chat-round-money-svgrepo-com 1">
<path id="Vector" fill-rule="evenodd" clip-rule="evenodd" d="M32.2368 7.99491C18.5579 7.99491 7.46903 19.0838 7.46903 32.7626C7.46903 36.7284 8.39957 40.4709 10.0524 43.7892C10.7157 45.1211 10.9712 46.7137 10.5526 48.278L8.95782 54.2383C8.66492 55.3329 9.66642 56.3346 10.7611 56.0416L16.7215 54.4469C18.2858 54.0284 19.8784 54.2838 21.2102 54.947C24.5285 56.5999 28.271 57.5304 32.2368 57.5304C45.9155 57.5304 57.0045 46.4414 57.0045 32.7626C57.0045 19.0838 45.9155 7.99491 32.2368 7.99491ZM3.45264 32.7626C3.45264 16.8656 16.3397 3.97852 32.2368 3.97852C48.1339 3.97852 61.0209 16.8656 61.0209 32.7626C61.0209 48.6598 48.1339 61.5468 32.2368 61.5468C27.6359 61.5468 23.2816 60.4658 19.4195 58.5422C18.8432 58.2552 18.2547 58.1942 17.7597 58.3267L11.7992 59.9215C7.71903 61.0131 3.9862 57.2803 5.07794 53.2002L6.67271 47.2399C6.8052 46.7448 6.74428 46.1562 6.45724 45.58C4.53361 41.7179 3.45264 37.3636 3.45264 32.7626ZM32.2368 20.0441C33.3458 20.0441 34.245 20.9432 34.245 22.0523V22.0797C37.1603 22.8142 39.6001 25.1128 39.6001 28.2999C39.6001 29.409 38.701 30.3081 37.5919 30.3081C36.4829 30.3081 35.5838 29.409 35.5838 28.2999C35.5838 27.2717 34.4436 25.8455 32.2368 25.8455C30.0299 25.8455 28.8898 27.2717 28.8898 28.2999C28.8898 29.3284 30.0299 30.7544 32.2368 30.7544C35.945 30.7544 39.6001 33.3244 39.6001 37.2254C39.6001 40.4125 37.1603 42.7112 34.245 43.4457V43.473C34.245 44.5821 33.3458 45.4812 32.2368 45.4812C31.1277 45.4812 30.2286 44.5821 30.2286 43.473V43.4457C27.3132 42.7112 24.8734 40.4125 24.8734 37.2254C24.8734 36.1163 25.7725 35.2172 26.8816 35.2172C27.9906 35.2172 28.8898 36.1163 28.8898 37.2254C28.8898 38.2536 30.0299 39.6797 32.2368 39.6797C34.4436 39.6797 35.5838 38.2536 35.5838 37.2254C35.5838 36.1969 34.4436 34.7708 32.2368 34.7708C28.5286 34.7708 24.8734 32.2012 24.8734 28.2999C24.8734 25.1128 27.3132 22.8142 30.2286 22.0797V22.0523C30.2286 20.9432 31.1277 20.0441 32.2368 20.0441Z" fill="#FF5E5E"/>
</g>
</svg>
