<svg width="65" height="65" viewBox="0 0 65 65" fill="none" xmlns="http://www.w3.org/2000/svg">
<g id="document-add-svgrepo-com 5">
<path id="Vector" fill-rule="evenodd" clip-rule="evenodd" d="M29.9139 4H35.5711C40.492 3.99995 44.3895 3.99992 47.4398 4.41005C50.579 4.83209 53.1201 5.72137 55.124 7.72518C55.908 8.50944 55.908 9.78095 55.124 10.5652C54.3397 11.3495 53.0681 11.3495 52.2839 10.5652C51.1507 9.43201 49.5985 8.75278 46.9048 8.39061C44.1531 8.02065 40.5257 8.01639 35.4201 8.01639H30.0649C24.9592 8.01639 21.332 8.02065 18.5803 8.39061C15.8864 8.75278 14.3344 9.43201 13.2012 10.5652C12.068 11.6984 11.3888 13.2504 11.0266 15.9443C10.6566 18.696 10.6524 22.3232 10.6524 27.4289V38.1393C10.6524 43.2449 10.6566 46.8723 11.0266 49.624C11.3888 52.3177 12.068 53.8699 13.2012 55.0031C14.3344 56.1362 15.8864 56.8155 18.5803 57.1775C21.332 57.5476 24.9592 57.5519 30.0649 57.5519H35.4201C40.5257 57.5519 44.1531 57.5476 46.9048 57.1775C49.5985 56.8155 51.1507 56.1362 52.2839 55.0031C54.1472 53.1397 54.7116 50.2442 54.8096 43.4656C54.8257 42.3565 55.7377 41.4705 56.8467 41.4866C57.9555 41.5026 58.8416 42.4146 58.8255 43.5234C58.7315 50.0233 58.3109 54.656 55.124 57.8432C53.1201 59.8468 50.579 60.7361 47.4398 61.1583C44.3895 61.5683 40.492 61.5682 35.5711 61.5682H29.9139C24.9931 61.5682 21.0955 61.5683 18.0452 61.1583C14.9059 60.7361 12.365 59.8468 10.3612 57.8432C8.35736 55.8393 7.46808 53.2982 7.04603 50.159C6.63591 47.1087 6.63593 43.2112 6.63599 38.2903V27.2779C6.63593 22.3571 6.63591 18.4595 7.04603 15.4092C7.46808 12.2699 8.35736 9.72901 10.3612 7.72518C12.365 5.72137 14.9059 4.83209 18.0452 4.41005C21.0955 3.99992 24.9931 3.99995 29.9139 4ZM49.1109 19.5182C51.9513 16.6779 56.5562 16.6779 59.3963 19.5182C62.2367 22.3584 62.2367 26.9633 59.3963 29.8037L46.6636 42.5365C45.9709 43.2294 45.5023 43.698 44.9772 44.1074C44.3598 44.5891 43.6917 45.002 42.9848 45.3391C42.3837 45.6253 41.755 45.835 40.8254 46.1445L35.2463 48.0044C34.0146 48.4148 32.6566 48.0943 31.7384 47.1762C30.8203 46.258 30.4998 44.9 30.9102 43.6683L32.7326 38.2014C32.7452 38.1637 32.7575 38.1262 32.7698 38.0892C33.0796 37.1598 33.2893 36.5309 33.5755 35.9298C33.9126 35.2229 34.3255 34.5548 34.8072 33.9374C35.2166 33.4123 35.6852 32.9437 36.3782 32.251C36.4057 32.2234 36.4336 32.1956 36.462 32.1672L49.1109 19.5182ZM56.5565 22.3582C55.2846 21.0864 53.2229 21.0864 51.951 22.3582L51.4642 22.8449C51.4908 22.9346 51.521 23.0299 51.5558 23.1301C51.8075 23.8561 52.2857 24.8163 53.1918 25.7227C54.0982 26.629 55.0584 27.107 55.7845 27.3588C55.8847 27.3936 55.98 27.4239 56.0697 27.4504L56.5565 26.9636C57.8281 25.6918 57.8281 23.6299 56.5565 22.3582ZM53.0023 30.5178C52.1511 30.0707 51.2321 29.4428 50.352 28.5626C49.4718 27.6825 48.844 26.7634 48.3968 25.9123L39.3018 35.0073C38.4959 35.8136 38.2128 36.1011 37.974 36.4074C37.672 36.7949 37.4128 37.2142 37.2012 37.6579C37.0342 38.0084 36.9032 38.3899 36.5428 39.4717L35.471 42.6872L36.2274 43.4436L39.4429 42.3718C40.5247 42.0114 40.9062 41.8804 41.2567 41.7134C41.7004 41.5018 42.1197 41.2426 42.5072 40.9406C42.8135 40.7018 43.1011 40.4187 43.9073 39.6128L53.0023 30.5178ZM20.024 24.7513C20.024 23.6423 20.9231 22.7432 22.0321 22.7432H39.4365C40.5456 22.7432 41.4447 23.6423 41.4447 24.7513C41.4447 25.8604 40.5456 26.7595 39.4365 26.7595H22.0321C20.9231 26.7595 20.024 25.8604 20.024 24.7513ZM20.024 35.4617C20.024 34.3527 20.9231 33.4535 22.0321 33.4535H28.7261C29.8352 33.4535 30.7343 34.3527 30.7343 35.4617C30.7343 36.5708 29.8352 37.4699 28.7261 37.4699H22.0321C20.9231 37.4699 20.024 36.5708 20.024 35.4617ZM20.024 46.1721C20.024 45.063 20.9231 44.1639 22.0321 44.1639H26.0485C27.1576 44.1639 28.0567 45.063 28.0567 46.1721C28.0567 47.2811 27.1576 48.1803 26.0485 48.1803H22.0321C20.9231 48.1803 20.024 47.2811 20.024 46.1721Z" fill="#FF5E5E"/>
</g>
</svg>
