<svg width="62" height="61" viewBox="0 0 62 61" fill="none" xmlns="http://www.w3.org/2000/svg">
<g id="gift-svgrepo-com 3">
<path id="Vector" fill-rule="evenodd" clip-rule="evenodd" d="M30.8281 3.69727C25.0219 3.69724 20.4715 3.69722 16.9212 4.17455C13.2872 4.66312 10.4197 5.68268 8.169 7.93341C5.91827 10.1841 4.89872 13.0516 4.41014 16.6856C3.93281 20.2359 3.93284 24.7862 3.93286 30.5925V30.8813C3.93284 36.6876 3.93281 41.2378 4.41014 44.7882C4.89872 48.4221 5.91827 51.2898 8.169 53.5405C10.4197 55.7912 13.2872 56.8106 16.9212 57.2994C20.4715 57.7765 25.0218 57.7765 30.8281 57.7765H31.1169C36.9232 57.7765 41.4734 57.7765 45.0238 57.2994C48.6577 56.8106 51.5254 55.7912 53.7761 53.5405C56.0268 51.2898 57.0462 48.4221 57.535 44.7882C58.0121 41.2378 58.0121 36.6876 58.0121 30.8813V30.5925C58.0121 24.7862 58.0121 20.2359 57.535 16.6856C57.0462 13.0516 56.0268 10.1841 53.7761 7.93341C51.5254 5.68268 48.6577 4.66312 45.0238 4.17455C41.4734 3.69722 36.9232 3.69724 31.1169 3.69727H30.8281ZM29.086 7.47094C24.0712 7.47622 20.3394 7.5219 17.424 7.91386C14.2083 8.3462 12.2697 9.16843 10.8369 10.6013C9.40402 12.0342 8.58179 13.9728 8.14946 17.1884C7.7575 20.1038 7.71182 23.8356 7.70654 28.8504H18.179C17.2962 27.7477 16.6366 26.447 16.2769 25.0083C14.923 19.5928 19.8284 14.6874 25.2439 16.0413C26.6826 16.401 27.9833 17.0606 29.086 17.9434V7.47094ZM7.70654 32.6234C7.71182 37.6382 7.7575 41.3699 8.14946 44.2854C8.58179 47.501 9.40402 49.4395 10.8369 50.8725C12.2697 52.3055 14.2083 53.1277 17.424 53.5599C20.3394 53.952 24.0712 53.9975 29.086 54.0028V36.0784C27.1251 39.9955 23.0745 42.6846 18.3959 42.6846C17.3541 42.6846 16.5094 41.84 16.5094 40.7982C16.5094 39.7563 17.3541 38.9117 18.3959 38.9117C22.2614 38.9117 25.5003 36.2288 26.3519 32.6234H26.0302H26.007H7.70654ZM32.859 54.0028C37.8738 53.9975 41.6055 53.952 44.521 53.5599C47.7366 53.1277 49.6751 52.3055 51.1081 50.8725C52.5411 49.4395 53.3633 47.501 53.7955 44.2854C54.1876 41.3699 54.2331 37.6382 54.2384 32.6234H35.938H35.9148H35.5931C36.4448 36.2288 39.6835 38.9117 43.5491 38.9117C44.5909 38.9117 45.4356 39.7563 45.4356 40.7982C45.4356 41.84 44.5909 42.6846 43.5491 42.6846C38.8706 42.6846 34.8199 39.9955 32.859 36.0784V54.0028ZM54.2384 28.8504H43.7661C44.6488 27.7477 45.3085 26.447 45.6682 25.0083C47.022 19.5928 42.1166 14.6874 36.7011 16.0413C35.2624 16.401 33.9617 17.0606 32.859 17.9434V7.47094C37.8738 7.47622 41.6055 7.5219 44.521 7.91386C47.7366 8.3462 49.6751 9.16843 51.1081 10.6013C52.5411 12.0342 53.3633 13.9728 53.7955 17.1884C54.1876 20.1038 54.2331 23.8356 54.2384 28.8504ZM32.859 28.8504V25.7795C32.8658 22.9039 34.8252 20.3994 37.6162 19.7016C40.2683 19.0386 42.671 21.441 42.0077 24.0932C41.3102 26.8832 38.8074 28.8421 35.9332 28.8504H32.859ZM29.086 25.7754C29.0775 22.9015 27.1185 20.3991 24.3288 19.7016C21.6766 19.0386 19.2742 21.441 19.9372 24.0932C20.6347 26.8832 23.1376 28.8421 26.0118 28.8504H29.086V25.7754Z" fill="#FF5E5E"/>
</g>
</svg>
