<svg width="34" height="34" viewBox="0 0 34 34" fill="none" xmlns="http://www.w3.org/2000/svg">
<g id="login-svgrepo-com 1">
<path id="Vector" d="M17.1313 29.3516C16.5651 29.3516 16.106 28.8925 16.106 28.3262C16.106 27.7599 16.5651 27.3008 17.1313 27.3008C22.6057 27.3008 27.0435 22.863 27.0435 17.3887C27.0435 11.9143 22.6057 7.47656 17.1313 7.47656C16.5651 7.47656 16.106 7.01746 16.106 6.45117C16.106 5.88488 16.5651 5.42578 17.1313 5.42578C23.7383 5.42578 29.0942 10.7817 29.0942 17.3887C29.0942 23.9956 23.7383 29.3516 17.1313 29.3516Z" fill="black"/>
<path id="Vector_2" d="M15.0377 20.7632C14.6372 21.1637 14.6372 21.8129 15.0377 22.2133C15.4381 22.6138 16.0873 22.6138 16.4877 22.2133L20.5893 18.1117C20.9897 17.7113 20.9897 17.0622 20.5893 16.6617L16.4877 12.5601C16.0873 12.1597 15.4381 12.1597 15.0377 12.5601C14.6372 12.9606 14.6372 13.6097 15.0377 14.0102L17.3887 16.3613H6.19238C5.62608 16.3613 5.16699 16.8204 5.16699 17.3867C5.16699 17.953 5.62608 18.4121 6.19238 18.4121H17.3887L15.0377 20.7632Z" fill="black"/>
</g>
</svg>
