<svg width="22" height="22" viewBox="0 0 22 22" fill="none" xmlns="http://www.w3.org/2000/svg">
<path d="M11.0001 1.75977C8.58014 1.75977 6.60014 3.73977 6.60014 6.15977C6.60014 8.57977 8.58014 10.5598 11.0001 10.5598C13.4201 10.5598 15.4001 8.57977 15.4001 6.15977C15.4001 3.73977 13.4201 1.75977 11.0001 1.75977ZM3.49693 2.19633C3.4056 2.20004 3.31768 2.23212 3.2454 2.28808C3.17313 2.34405 3.12007 2.42114 3.09362 2.50864C3.06716 2.59615 3.06861 2.68972 3.09776 2.77636C3.12692 2.863 3.18233 2.93841 3.25631 2.99211L5.01631 4.31211C5.06258 4.34677 5.11522 4.37198 5.17124 4.3863C5.22725 4.40061 5.28554 4.40376 5.34276 4.39554C5.39999 4.38733 5.45504 4.36792 5.50477 4.33843C5.55449 4.30894 5.59792 4.26994 5.63257 4.22366C5.66723 4.17738 5.69242 4.12473 5.70672 4.06872C5.72102 4.0127 5.72415 3.95441 5.71592 3.89719C5.70769 3.83996 5.68827 3.78492 5.65877 3.7352C5.62926 3.68548 5.59025 3.64206 5.54397 3.60742L3.78397 2.28742C3.70198 2.22425 3.60035 2.19199 3.49693 2.19633ZM18.4904 2.19633C18.3914 2.19498 18.2948 2.22707 18.2163 2.28742L16.4563 3.60742C16.41 3.64206 16.371 3.68548 16.3415 3.7352C16.312 3.78492 16.2926 3.83996 16.2844 3.89719C16.2761 3.95441 16.2793 4.0127 16.2936 4.06872C16.3079 4.12473 16.333 4.17738 16.3677 4.22366C16.4024 4.26994 16.4458 4.30894 16.4955 4.33843C16.5452 4.36792 16.6003 4.38733 16.6575 4.39554C16.7147 4.40376 16.773 4.40061 16.829 4.3863C16.8851 4.37198 16.9377 4.34677 16.984 4.31211L18.744 2.99211C18.8187 2.93771 18.8744 2.86117 18.9032 2.77333C18.9319 2.6855 18.9323 2.59083 18.9043 2.50277C18.8762 2.4147 18.8211 2.3377 18.7469 2.2827C18.6726 2.22769 18.5829 2.19747 18.4904 2.19633ZM11.3525 4.39977H11.4401V7.91977H10.5601V5.32359L9.68014 5.54359V4.92742L11.3525 4.39977ZM2.64014 5.71977C2.58183 5.71894 2.52394 5.72971 2.46984 5.75145C2.41573 5.7732 2.36649 5.80548 2.32496 5.84642C2.28344 5.88735 2.25047 5.93614 2.22796 5.98993C2.20546 6.04373 2.19387 6.10145 2.19387 6.15977C2.19387 6.21808 2.20546 6.27581 2.22796 6.3296C2.25047 6.38339 2.28344 6.43218 2.32496 6.47312C2.36649 6.51406 2.41573 6.54633 2.46984 6.56808C2.52394 6.58982 2.58183 6.60059 2.64014 6.59977H4.84014C4.89844 6.60059 4.95633 6.58982 5.01044 6.56808C5.06454 6.54633 5.11379 6.51406 5.15531 6.47312C5.19683 6.43218 5.2298 6.38339 5.25231 6.3296C5.27481 6.27581 5.2864 6.21808 5.2864 6.15977C5.2864 6.10145 5.27481 6.04373 5.25231 5.98993C5.2298 5.93614 5.19683 5.88735 5.15531 5.84642C5.11379 5.80548 5.06454 5.7732 5.01044 5.75145C4.95633 5.72971 4.89844 5.71894 4.84014 5.71977H2.64014ZM17.1601 5.71977C17.1018 5.71894 17.0439 5.72971 16.9898 5.75145C16.9357 5.7732 16.8865 5.80548 16.845 5.84642C16.8034 5.88735 16.7705 5.93614 16.748 5.98993C16.7255 6.04373 16.7139 6.10145 16.7139 6.15977C16.7139 6.21808 16.7255 6.27581 16.748 6.3296C16.7705 6.38339 16.8034 6.43218 16.845 6.47312C16.8865 6.51406 16.9357 6.54633 16.9898 6.56808C17.0439 6.58982 17.1018 6.60059 17.1601 6.59977H19.3601C19.4184 6.60059 19.4763 6.58982 19.5304 6.56808C19.5845 6.54633 19.6338 6.51406 19.6753 6.47312C19.7168 6.43218 19.7498 6.38339 19.7723 6.3296C19.7948 6.27581 19.8064 6.21808 19.8064 6.15977C19.8064 6.10145 19.7948 6.04373 19.7723 5.98993C19.7498 5.93614 19.7168 5.88735 19.6753 5.84642C19.6338 5.80548 19.5845 5.7732 19.5304 5.75145C19.4763 5.72971 19.4184 5.71894 19.3601 5.71977H17.1601ZM5.29045 7.91633C5.19142 7.91498 5.09483 7.94707 5.01631 8.00742L3.25631 9.32742C3.16286 9.39739 3.10104 9.50162 3.08444 9.61718C3.06784 9.73273 3.09782 9.85015 3.16779 9.94359C3.23776 10.037 3.34199 10.0989 3.45755 10.1155C3.5731 10.1321 3.69052 10.1021 3.78397 10.0321L5.54397 8.71211C5.61869 8.65771 5.67439 8.58117 5.70317 8.49334C5.73195 8.4055 5.73233 8.31083 5.70428 8.22277C5.67622 8.1347 5.62115 8.0577 5.54686 8.0027C5.47259 7.94769 5.38287 7.91747 5.29045 7.91633ZM16.6969 7.91633C16.6056 7.92005 16.5177 7.95212 16.4454 8.00809C16.3731 8.06405 16.3201 8.14114 16.2936 8.22864C16.2672 8.31615 16.2686 8.40972 16.2978 8.49636C16.3269 8.583 16.3823 8.65841 16.4563 8.71211L18.2163 10.0321C18.3098 10.1021 18.4272 10.1321 18.5427 10.1155C18.6583 10.0989 18.7625 10.037 18.8325 9.94359C18.9025 9.85015 18.9324 9.73273 18.9158 9.61718C18.8992 9.50162 18.8374 9.39739 18.744 9.32742L16.984 8.00742C16.902 7.94425 16.8003 7.91199 16.6969 7.91633ZM19.5105 11.4406C19.1915 11.4301 18.8669 11.5115 18.5781 11.6933L14.4643 14.2293C14.7762 14.5474 14.9584 14.9788 14.9584 15.4333C14.9584 16.3881 14.1824 17.1649 13.2276 17.1649C13.093 17.1649 12.9587 17.1489 12.8297 17.1185C12.4914 17.0384 8.16971 15.7444 7.67779 15.5974C7.44503 15.5275 7.31265 15.2819 7.38217 15.0491C7.45213 14.8164 7.69813 14.6849 7.93045 14.7544C9.85149 15.3299 12.7963 16.2071 13.0334 16.2634C13.0963 16.2784 13.1616 16.2858 13.2276 16.2858C13.6971 16.2858 14.0784 15.9036 14.0784 15.4341C14.0784 15.131 13.9209 14.8585 13.6573 14.7054C13.5293 14.631 9.18627 12.7322 8.31287 12.349C6.94447 11.7479 5.3675 11.7331 3.98678 12.3077L1.14912 13.4894C0.924721 13.5818 0.878418 13.7858 0.878418 14.0643V19.3641C0.878418 19.6069 1.07554 19.8041 1.31842 19.8041C1.45262 19.8041 1.55993 19.7317 1.57709 19.719L3.11021 18.5941C3.89165 18.0207 4.93338 17.8947 5.8499 18.2718L10.9958 20.0963C11.2849 20.1988 11.5844 20.2492 11.8819 20.2492C12.4499 20.2492 13.0096 20.0663 13.4769 19.7121L20.4017 14.4648C21.1369 13.9579 21.3388 12.9695 20.8623 12.2141C20.5576 11.7306 20.0422 11.4582 19.5105 11.4406Z" fill="black"/>
</svg>
