<svg width="26" height="26" viewBox="0 0 26 26" fill="none" xmlns="http://www.w3.org/2000/svg">
<path fill-rule="evenodd" clip-rule="evenodd" d="M10.1912 2.02246C7.42639 2.02246 5.18506 4.2638 5.18506 7.02862C5.18506 9.79344 7.42639 12.0348 10.1912 12.0348C12.9561 12.0348 15.1974 9.79344 15.1974 7.02862C15.1974 4.2638 12.9561 2.02246 10.1912 2.02246ZM6.76595 7.02862C6.76595 5.13689 8.29949 3.60335 10.1912 3.60335C12.0829 3.60335 13.6165 5.13689 13.6165 7.02862C13.6165 8.92034 12.0829 10.4539 10.1912 10.4539C8.29949 10.4539 6.76595 8.92034 6.76595 7.02862Z" fill="#1C274C"/>
<path d="M16.5146 3.07617C16.078 3.07617 15.7241 3.43007 15.7241 3.86662C15.7241 4.30316 16.078 4.65706 16.5146 4.65706C17.8242 4.65706 18.8859 5.71875 18.8859 7.0284C18.8859 8.33805 17.8242 9.39974 16.5146 9.39974C16.078 9.39974 15.7241 9.75364 15.7241 10.1902C15.7241 10.6267 16.078 10.9806 16.5146 10.9806C18.6974 10.9806 20.4668 9.21116 20.4668 7.0284C20.4668 4.84564 18.6974 3.07617 16.5146 3.07617Z" fill="#1C274C"/>
<path fill-rule="evenodd" clip-rule="evenodd" d="M4.58204 14.9551C6.05688 14.1124 8.04158 13.6162 10.1909 13.6162C12.3402 13.6162 14.3249 14.1124 15.7998 14.9551C17.2522 15.7851 18.3588 17.0521 18.3588 18.6224C18.3588 20.1926 17.2522 21.4596 15.7998 22.2896C14.3249 23.1323 12.3402 23.6285 10.1909 23.6285C8.04158 23.6285 6.05688 23.1323 4.58204 22.2896C3.12957 21.4596 2.02295 20.1926 2.02295 18.6224C2.02295 17.0521 3.12957 15.7851 4.58204 14.9551ZM5.36639 16.3278C4.14873 17.0236 3.60384 17.8643 3.60384 18.6224C3.60384 19.3805 4.14873 20.2212 5.36639 20.917C6.56168 21.6 8.26572 22.0476 10.1909 22.0476C12.1161 22.0476 13.8201 21.6 15.0153 20.917C16.2331 20.2212 16.7779 19.3805 16.7779 18.6224C16.7779 17.8643 16.2331 17.0236 15.0153 16.3278C13.8201 15.6447 12.1161 15.1971 10.1909 15.1971C8.26572 15.1971 6.56168 15.6447 5.36639 16.3278Z" fill="#1C274C"/>
<path d="M19.8457 14.6884C19.4193 14.5949 18.9977 14.8648 18.9043 15.2912C18.8108 15.7176 19.0806 16.1392 19.507 16.2326C20.3421 16.4158 21.0095 16.7303 21.45 17.0908C21.8911 17.4516 22.0477 17.8042 22.0477 18.0954C22.0477 18.3596 21.9206 18.6697 21.5702 18.9953C21.2172 19.3232 20.675 19.6261 19.9755 19.8368C19.5574 19.9626 19.3206 20.4035 19.4464 20.8216C19.5723 21.2395 20.0132 21.4764 20.4312 21.3505C21.2981 21.0895 22.0733 20.6857 22.6461 20.1536C23.2215 19.619 23.6286 18.9159 23.6286 18.0954C23.6286 17.1839 23.1288 16.4217 22.4511 15.8672C21.7729 15.3122 20.8594 14.9107 19.8457 14.6884Z" fill="#1C274C"/>
</svg>
