<svg width="24" height="22" viewBox="0 0 24 22" fill="none" xmlns="http://www.w3.org/2000/svg">
<path fill-rule="evenodd" clip-rule="evenodd" d="M10.1086 1.57619H13.4093C13.6206 1.57606 13.8046 1.57595 13.9783 1.60172C14.6649 1.70351 15.2589 2.10113 15.5801 2.67371C15.6613 2.81863 15.7194 2.98077 15.7861 3.16689L15.8951 3.47045C15.9136 3.52184 15.9188 3.53639 15.9232 3.54784C16.0942 3.98665 16.5374 4.28329 17.0397 4.29512C17.053 4.29542 17.0691 4.29548 17.1278 4.29548H20.0562C20.4606 4.29548 20.7883 4.59984 20.7883 4.9753C20.7883 5.35075 20.4606 5.65512 20.0562 5.65512H3.4616C3.05727 5.65512 2.72949 5.35075 2.72949 4.9753C2.72949 4.59984 3.05727 4.29548 3.4616 4.29548H6.39013C6.44875 4.29548 6.46492 4.29542 6.47813 4.29512C6.9805 4.28329 7.4237 3.98668 7.59464 3.54786C7.59914 3.53632 7.6043 3.52209 7.62284 3.47045L7.73179 3.16691C7.79845 2.9808 7.85655 2.81863 7.93782 2.67371C8.25892 2.10113 8.853 1.70351 9.53953 1.60172C9.7133 1.57595 9.89735 1.57606 10.1086 1.57619ZM8.83838 4.29548C8.88866 4.20391 8.93322 4.10876 8.97155 4.01035C8.98319 3.98047 8.99461 3.94866 9.00927 3.9078L9.10669 3.6364C9.19569 3.38848 9.21619 3.33792 9.23651 3.30168C9.34354 3.11081 9.54158 2.97828 9.77042 2.94435C9.81389 2.9379 9.87197 2.93584 10.1534 2.93584H13.3644C13.6459 2.93584 13.704 2.9379 13.7475 2.94435C13.9763 2.97828 14.1743 3.11081 14.2814 3.30168C14.3017 3.33792 14.3222 3.38848 14.4112 3.6364L14.5086 3.90764L14.5464 4.01037C14.5847 4.10877 14.6292 4.20391 14.6795 4.29548H8.83838Z" fill="#E30000"/>
<path d="M5.81908 7.19517C5.79218 6.82054 5.44333 6.53711 5.03989 6.56208C4.63645 6.58705 4.3312 6.91099 4.35809 7.28561L4.81049 13.5869C4.89395 14.7495 4.96136 15.6887 5.11947 16.4257C5.28385 17.1919 5.56344 17.8319 6.14092 18.3336C6.71841 18.8352 7.42471 19.0518 8.25897 19.153C9.06138 19.2506 10.075 19.2506 11.3299 19.2505H12.1879C13.4428 19.2506 14.4564 19.2506 15.2589 19.153C16.0932 19.0518 16.7995 18.8352 17.377 18.3336C17.9545 17.8319 18.234 17.1919 18.3984 16.4257C18.5566 15.6888 18.6239 14.7495 18.7074 13.5869L19.1598 7.28561C19.1867 6.91099 18.8814 6.58705 18.478 6.56208C18.0745 6.53711 17.7257 6.82054 17.6988 7.19517L17.2498 13.4487C17.1621 14.6704 17.0997 15.5204 16.9624 16.1601C16.8293 16.7805 16.6435 17.1089 16.3766 17.3407C16.1097 17.5726 15.7445 17.7229 15.069 17.8049C14.3726 17.8895 13.455 17.8908 12.1364 17.8908H11.3815C10.0629 17.8908 9.14526 17.8895 8.44888 17.8049C7.77339 17.7229 7.40815 17.5726 7.14126 17.3407C6.87437 17.1089 6.68857 16.7805 6.55547 16.1601C6.41827 15.5204 6.35576 14.6704 6.26805 13.4487L5.81908 7.19517Z" fill="#E30000"/>
<path d="M9.24623 8.82961C9.64856 8.79217 10.0074 9.06483 10.0476 9.43836L10.5357 13.9705C10.5759 14.3441 10.2824 14.6772 9.87999 14.7146C9.47768 14.7519 9.11891 14.4793 9.07868 14.1058L8.5906 9.57369C8.55037 9.20006 8.84391 8.86695 9.24623 8.82961Z" fill="#E30000"/>
<path d="M14.2726 8.82961C14.6749 8.86695 14.9685 9.20006 14.9283 9.57369L14.4402 14.1058C14.4 14.4793 14.0411 14.7519 13.6389 14.7146C13.2365 14.6772 12.943 14.3441 12.9832 13.9705L13.4713 9.43836C13.5115 9.06483 13.8703 8.79217 14.2726 8.82961Z" fill="#E30000"/>
</svg>
