<svg width="22" height="22" viewBox="0 0 22 22" fill="none" xmlns="http://www.w3.org/2000/svg">
<path d="M17.5371 2.93092C17.4291 2.93512 17.3208 2.94928 17.2134 2.97532L7.33774 5.32428C6.90727 5.42621 6.54109 5.68927 6.30935 6.0662C6.07689 6.44314 6.00617 6.88756 6.10883 7.31803L7.3893 12.7063C7.57044 13.4653 8.25116 13.9782 9.00063 13.9782C9.12676 13.9782 9.25545 13.9653 9.38305 13.9338L13.3032 13.0014C13.3747 13.1829 13.4817 13.3484 13.618 13.4881C13.7542 13.6278 13.917 13.7389 14.0967 13.8149L14.4319 16.4947C14.614 17.9569 15.8686 19.0642 17.3423 19.0642H19.8001C19.8973 19.0656 19.9938 19.0477 20.0839 19.0114C20.1741 18.9752 20.2562 18.9214 20.3254 18.8532C20.3946 18.7849 20.4496 18.7036 20.4871 18.614C20.5246 18.5243 20.5439 18.4281 20.5439 18.3309C20.5439 18.2337 20.5246 18.1375 20.4871 18.0479C20.4496 17.9582 20.3946 17.8769 20.3254 17.8087C20.2562 17.7404 20.1741 17.6866 20.0839 17.6504C19.9938 17.6142 19.8973 17.5962 19.8001 17.5976H17.3423C16.5969 17.5976 15.9792 17.0521 15.8871 16.3128L15.5519 13.633C15.7325 13.4963 15.879 13.3197 15.9799 13.1169C16.0808 12.9141 16.1333 12.6907 16.1334 12.4642C16.1326 12.4193 16.1298 12.3743 16.1248 12.3296L19.2587 11.5848C20.1468 11.3751 20.6981 10.4799 20.4876 9.58964L19.2071 4.20422C19.1052 3.77376 18.8414 3.409 18.4638 3.17727C18.1811 3.00292 17.861 2.9183 17.5371 2.93092ZM2.18149 7.69615C1.995 7.70127 1.81582 7.77624 1.68162 7.911C1.50195 8.09139 1.42816 8.35136 1.48683 8.59849L2.7673 13.9853C2.82596 14.2325 3.00871 14.4325 3.24998 14.5124C3.32478 14.5374 3.40358 14.5497 3.48058 14.5497C3.65071 14.5497 3.8176 14.4907 3.9518 14.3778L5.53448 13.0529C5.74788 12.8747 5.84251 12.5916 5.77797 12.321L4.92433 8.73027C4.86053 8.4604 4.64849 8.24979 4.37862 8.18599L2.36912 7.71477C2.3066 7.70047 2.24365 7.69444 2.18149 7.69615Z" fill="#121212"/>
</svg>
