<svg  width="42" height="54"  viewBox="0 0 44 45" fill="none" xmlns="http://www.w3.org/2000/svg">
<g id="icons8-carbon 5">
<path id="Vector" d="M11.6289 3.17285C6.80701 3.17285 2.87988 7.09997 2.87988 11.9218V32.9194C2.87988 37.7412 6.80701 41.6683 11.6289 41.6683H32.6264C37.4482 41.6683 41.3754 37.7412 41.3754 32.9194V11.9218C41.3754 7.09997 37.4482 3.17285 32.6264 3.17285H11.6289ZM11.6289 4.92265H32.6264C36.5028 4.92265 39.6256 8.04545 39.6256 11.9218V32.9194C39.6256 36.7957 36.5028 39.9185 32.6264 39.9185H11.6289C7.75248 39.9185 4.62968 36.7957 4.62968 32.9194V11.9218C4.62968 11.6796 4.64174 11.4399 4.66556 11.2041C5.02284 7.66702 7.99475 4.92265 11.6289 4.92265ZM22.5326 14.5465C17.6813 14.5465 15.1284 18.1568 15.1284 22.4736C15.1284 29.7483 20.6829 30.2947 22.3583 30.2947C27.8754 30.2947 28.9212 26.1834 29.1268 24.2866H27.0455C27.0018 24.9051 26.6184 28.6303 22.5326 28.6303C17.4705 28.6303 17.2097 23.534 17.2097 22.3266C17.2097 21.5392 17.4027 16.2331 22.5121 16.2331C25.7466 16.2331 26.659 18.3688 26.8917 19.4371H28.973C28.8549 18.6365 27.9447 14.5465 22.5326 14.5465Z" fill="#FF4F4F"/>
</g>
</svg>
