<svg width="43" height="43" viewBox="0 0 43 43" fill="none" xmlns="http://www.w3.org/2000/svg">
<g id="graph-up-svgrepo-com 1">
<path id="Vector" d="M24.4065 18.1958C24.4065 18.9252 24.9979 19.5166 25.7273 19.5166H26.9412L23.3971 23.0609C23.225 23.2328 22.9464 23.2328 22.7744 23.0609L19.9817 20.2682C18.7781 19.0647 16.8268 19.0647 15.6233 20.2682L11.5853 24.3062C11.0695 24.822 11.0695 25.6582 11.5853 26.174C12.1011 26.6898 12.9374 26.6898 13.4532 26.174L17.4912 22.136C17.6631 21.9642 17.9418 21.9642 18.1139 22.136L20.9066 24.9287C22.1101 26.1323 24.0614 26.1323 25.2649 24.9287L28.8092 21.3846V22.5985C28.8092 23.3279 29.4006 23.9193 30.13 23.9193C30.8595 23.9193 31.4508 23.3279 31.4508 22.5985V18.1958C31.4508 17.4664 30.8595 16.875 30.13 16.875H25.7273C24.9979 16.875 24.4065 17.4664 24.4065 18.1958Z" fill="#FF4F4F"/>
<path id="Vector_2" fill-rule="evenodd" clip-rule="evenodd" d="M21.2235 2.78809C17.1583 2.78807 13.9725 2.78805 11.4867 3.12225C8.94245 3.46432 6.93479 4.17815 5.35896 5.75398C3.78314 7.32981 3.0693 9.33747 2.72723 11.8818C2.39303 14.3675 2.39305 17.5533 2.39307 21.6185V21.8207C2.39305 25.886 2.39303 29.0718 2.72723 31.5575C3.0693 34.1017 3.78314 36.1095 5.35896 37.6854C6.93479 39.2612 8.94245 39.9749 11.4867 40.3171C13.9725 40.6512 17.1583 40.6512 21.2235 40.6512H21.4257C25.491 40.6512 28.6767 40.6512 31.1625 40.3171C33.7067 39.9749 35.7145 39.2612 37.2903 37.6854C38.8661 36.1095 39.5799 34.1017 39.9221 31.5575C40.2562 29.0718 40.2562 25.886 40.2562 21.8207V21.6185C40.2562 17.5533 40.2562 14.3675 39.9221 11.8818C39.5799 9.33747 38.8661 7.32981 37.2903 5.75398C35.7145 4.17815 33.7067 3.46432 31.1625 3.12225C28.6767 2.78805 25.491 2.78807 21.4257 2.78809H21.2235ZM7.22686 7.62188C8.23006 6.61867 9.58735 6.04299 11.8387 5.7403C14.1281 5.4325 17.1364 5.4297 21.3246 5.4297C25.5128 5.4297 28.5211 5.4325 30.8105 5.7403C33.0618 6.04299 34.4191 6.61867 35.4224 7.62188C36.4256 8.62508 37.0013 9.98237 37.3039 12.2337C37.6117 14.5231 37.6145 17.5314 37.6145 21.7196C37.6145 25.9078 37.6117 28.9161 37.3039 31.2055C37.0013 33.4568 36.4256 34.8141 35.4224 35.8174C34.4191 36.8207 33.0618 37.3964 30.8105 37.6989C28.5211 38.0067 25.5128 38.0096 21.3246 38.0096C17.1364 38.0096 14.1281 38.0067 11.8387 37.6989C9.58735 37.3964 8.23006 36.8207 7.22686 35.8174C6.22365 34.8141 5.64797 33.4568 5.34528 31.2055C5.03748 28.9161 5.03468 25.9078 5.03468 21.7196C5.03468 17.5314 5.03748 14.5231 5.34528 12.2337C5.64797 9.98237 6.22365 8.62508 7.22686 7.62188Z" fill="#FF4F4F"/>
</g>
</svg>
