<svg width="40" height="40" viewBox="0 0 40 40" fill="none" xmlns="http://www.w3.org/2000/svg">
<g id="clipboard-check-svgrepo-com 1">
<path id="Vector" fill-rule="evenodd" clip-rule="evenodd" d="M12.7347 5.55527C12.9297 3.72579 14.4782 2.30078 16.3594 2.30078H24.4603C26.3415 2.30078 27.89 3.72579 28.085 5.55527C29.3216 5.58045 30.3906 5.6444 31.3034 5.81207C32.5315 6.03765 33.5767 6.46739 34.4273 7.31787C35.4024 8.2931 35.8219 9.52099 36.018 10.9793C36.2067 12.384 36.2067 14.17 36.2067 16.3857V26.2846C36.2067 28.5004 36.2067 30.2863 36.018 31.691C35.8219 33.1493 35.4024 34.3773 34.4273 35.3525C33.4519 36.3276 32.2241 36.7471 30.7658 36.9432C29.3611 37.1321 27.5752 37.1321 25.3594 37.1321H15.4604C13.2447 37.1321 11.4587 37.1321 10.054 36.9432C8.59569 36.7471 7.3678 36.3276 6.39257 35.3525C5.41735 34.3773 4.9979 33.1493 4.80182 31.691C4.61297 30.2863 4.61301 28.5004 4.61304 26.2846V16.3857C4.61301 14.17 4.61297 12.384 4.80182 10.9793C4.9979 9.52099 5.41735 8.2931 6.39257 7.31787C7.24306 6.46739 8.28819 6.03765 9.51629 5.81207C10.4291 5.6444 11.4982 5.58045 12.7347 5.55527ZM12.7379 7.98623C11.5745 8.01109 10.6779 8.06964 9.95537 8.20236C9.03703 8.37104 8.50548 8.64191 8.11104 9.03634C7.66264 9.48474 7.37027 10.1143 7.21044 11.3032C7.0459 12.527 7.04332 14.149 7.04332 16.4746V26.1958C7.04332 28.5214 7.0459 30.1434 7.21044 31.3671C7.37027 32.556 7.66264 33.1856 8.11104 33.6341C8.55944 34.0824 9.18902 34.3748 10.3779 34.5346C11.6017 34.6992 13.2237 34.7018 15.5493 34.7018H25.2704C27.5961 34.7018 29.218 34.6992 30.4419 34.5346C31.6308 34.3748 32.2603 34.0824 32.7087 33.6341C33.1572 33.1856 33.4495 32.556 33.6094 31.3671C33.7738 30.1434 33.7764 28.5214 33.7764 26.1958V16.4746C33.7764 14.149 33.7738 12.527 33.6094 11.3032C33.4495 10.1143 33.1572 9.48474 32.7087 9.03634C32.3142 8.64191 31.7828 8.37104 30.8645 8.20236C30.1419 8.06964 29.2452 8.01109 28.0818 7.98623C27.8736 9.8018 26.3317 11.2118 24.4603 11.2118H16.3594C14.4881 11.2118 12.9461 9.8018 12.7379 7.98623ZM16.3594 4.73106C15.6883 4.73106 15.1443 5.27511 15.1443 5.9462V7.56639C15.1443 8.23749 15.6883 8.78153 16.3594 8.78153H24.4603C25.1314 8.78153 25.6755 8.23749 25.6755 7.56639V5.9462C25.6755 5.27511 25.1314 4.73106 24.4603 4.73106H16.3594ZM26.1588 17.2686C26.6167 17.7592 26.5902 18.5281 26.0995 18.986L19.1558 25.4667C18.6891 25.9024 17.9645 25.9024 17.4976 25.4667L14.7202 22.8744C14.2296 22.4165 14.2031 21.6476 14.661 21.157C15.1189 20.6663 15.8878 20.6399 16.3784 21.0977L18.3268 22.9162L24.4414 17.2093C24.932 16.7514 25.7009 16.7778 26.1588 17.2686Z" fill="#FF4F4F"/>
</g>
</svg>
