<svg width="21" height="21" viewBox="0 0 21 21" fill="none" xmlns="http://www.w3.org/2000/svg">
<g id="icons8-co2-2 2">
<path id="Vector" d="M11.5969 5C9.59328 5 7.76396 6.15881 6.88516 7.93281C6.43156 7.63241 5.89939 7.47109 5.34219 7.47109C3.86099 7.47109 2.64451 8.62563 2.54531 10.082C1.03251 10.6324 0 12.0841 0 13.7133C0 15.8457 1.73517 17.5812 3.86797 17.5812H16.4391C18.4023 17.5812 20 15.9843 20 14.0211C20 12.1971 18.6216 10.6892 16.8516 10.4844C16.8556 10.4076 16.857 10.3326 16.857 10.2594C16.857 7.35897 14.4973 5 11.5969 5ZM7.625 10.3812C8.6478 10.3812 9.43087 11.04 9.49687 11.9508H8.61797C8.53117 11.4696 8.1394 11.1531 7.625 11.1531C6.9462 11.1531 6.52422 11.6985 6.52422 12.5805C6.52422 13.4621 6.94653 14.0102 7.62813 14.0102C8.14532 14.0102 8.53429 13.7147 8.62109 13.2539H9.5C9.4252 14.1583 8.6658 14.7812 7.625 14.7812C6.375 14.7812 5.6 13.9429 5.6 12.5797C5.6 11.2189 6.3722 10.3812 7.625 10.3812ZM12.0031 10.3812C13.2307 10.3812 14 11.2249 14 12.5797C14 13.9369 13.2335 14.7812 12.0031 14.7812C10.7695 14.7812 10 13.9369 10 12.5797C10 11.2217 10.7811 10.3812 12.0031 10.3812ZM12.0031 11.15C11.3287 11.15 10.8906 11.7033 10.8906 12.5797C10.8906 13.4525 11.3199 14.0125 12.0031 14.0125C12.6803 14.0125 13.1125 13.4529 13.1125 12.5797C13.1125 11.7037 12.6803 11.15 12.0031 11.15ZM15.4 13.0234C15.9844 13.0234 16.3594 13.3208 16.3594 13.782C16.3594 14.0984 16.188 14.356 15.7188 14.7016L15.4133 14.9617V15.0102H16.4V15.5812H14.4508V15.0742L15.1938 14.4336C15.5746 14.1144 15.6656 14.002 15.6656 13.8492C15.6656 13.6936 15.5424 13.5867 15.368 13.5867C15.1828 13.5867 15.057 13.7041 15.057 13.8781V13.8945H14.4V13.8812C14.4 13.364 14.7968 13.0234 15.4 13.0234Z" fill="black"/>
</g>
</svg>
