<svg width="45" height="45" viewBox="0 0 45 45" fill="none" xmlns="http://www.w3.org/2000/svg">
<g id="document-text-svgrepo-com 1">
<path id="Vector" fill-rule="evenodd" clip-rule="evenodd" d="M20.7916 2.74121H24.6612C28.0272 2.74118 30.6932 2.74116 32.7796 3.02169C34.9269 3.31037 36.665 3.91866 38.0357 5.28929C39.4062 6.65994 40.0145 8.39796 40.3033 10.5453C40.5837 12.6318 40.5837 15.2978 40.5837 18.6637V26.1964C40.5837 29.5623 40.5837 32.2283 40.3033 34.3147C40.0145 36.462 39.4062 38.2001 38.0357 39.5708C36.665 40.9413 34.9269 41.5496 32.7796 41.8384C30.6932 42.1188 28.0272 42.1188 24.6612 42.1188H20.7916C17.4257 42.1188 14.7597 42.1188 12.6732 41.8384C10.5259 41.5496 8.78787 40.9413 7.41722 39.5708C6.04659 38.2001 5.4383 36.462 5.14962 34.3147C4.86909 32.2283 4.8691 29.5623 4.86914 26.1964V18.6637C4.8691 15.2978 4.86909 12.6318 5.14962 10.5453C5.4383 8.39796 6.04659 6.65994 7.41722 5.28929C8.78787 3.91866 10.5259 3.31037 12.6732 3.02169C14.7597 2.74116 17.4257 2.74118 20.7916 2.74121ZM13.0393 5.74446C11.1966 5.99219 10.135 6.45679 9.35984 7.23191C8.58472 8.00702 8.12012 9.06866 7.87239 10.9113C7.61933 12.7935 7.61642 15.2746 7.61642 18.767V26.0931C7.61642 29.5854 7.61933 32.0665 7.87239 33.9488C8.12012 35.7913 8.58472 36.853 9.35984 37.6281C10.135 38.4032 11.1966 38.8679 13.0393 39.1155C14.9214 39.3686 17.4025 39.3716 20.8949 39.3716H24.5579C28.0503 39.3716 30.5314 39.3686 32.4137 39.1155C34.2562 38.8679 35.3179 38.4032 36.093 37.6281C36.8681 36.853 37.3328 35.7913 37.5804 33.9488C37.8335 32.0665 37.8364 29.5854 37.8364 26.0931V18.767C37.8364 15.2746 37.8335 12.7935 37.5804 10.9113C37.3328 9.06866 36.8681 8.00702 36.093 7.23191C35.3179 6.45679 34.2562 5.99219 32.4137 5.74446C30.5314 5.4914 28.0503 5.48849 24.5579 5.48849H20.8949C17.4025 5.48849 14.9214 5.4914 13.0393 5.74446ZM14.0267 15.104C14.0267 14.3453 14.6417 13.7303 15.4004 13.7303H30.0525C30.8111 13.7303 31.4261 14.3453 31.4261 15.104C31.4261 15.8626 30.8111 16.4776 30.0525 16.4776H15.4004C14.6417 16.4776 14.0267 15.8626 14.0267 15.104ZM14.0267 22.43C14.0267 21.6714 14.6417 21.0564 15.4004 21.0564H30.0525C30.8111 21.0564 31.4261 21.6714 31.4261 22.43C31.4261 23.1886 30.8111 23.8037 30.0525 23.8037H15.4004C14.6417 23.8037 14.0267 23.1886 14.0267 22.43ZM14.0267 29.7561C14.0267 28.9975 14.6417 28.3825 15.4004 28.3825H24.5579C25.3166 28.3825 25.9316 28.9975 25.9316 29.7561C25.9316 30.5147 25.3166 31.1297 24.5579 31.1297H15.4004C14.6417 31.1297 14.0267 30.5147 14.0267 29.7561Z" fill="#FF4F4F"/>
</g>
</svg>
