<svg width="40" height="39" viewBox="0 0 40 39" fill="none" xmlns="http://www.w3.org/2000/svg">
<g id="earth-svgrepo-com 1">
<path id="Vector" fill-rule="evenodd" clip-rule="evenodd" d="M9.78074 8.77925C6.95583 11.5049 5.19884 15.33 5.19884 19.5655C5.19884 27.8424 11.9086 34.5522 20.1856 34.5522C20.3921 34.5522 20.5978 34.548 20.8024 34.5397C20.4694 33.0628 20.4244 31.0771 21.4396 29.1639C22.4961 27.173 24.6835 26.309 26.2919 25.9137C27.1346 25.7066 27.9152 25.6044 28.4827 25.5535C28.768 25.5279 29.0031 25.515 29.1698 25.5083C29.2531 25.5051 29.3197 25.5033 29.3672 25.5025L29.4237 25.5017L29.4375 25.5015C32.1473 25.4733 33.3681 24.5921 34.016 23.7514C34.5694 23.0333 34.7784 22.3151 34.9904 21.5866C35.0173 21.494 35.0443 21.4011 35.072 21.3081C35.1383 20.7364 35.1723 20.1549 35.1723 19.5655C35.1723 15.476 33.5343 11.7691 30.8787 9.06499C30.8646 9.12017 30.8501 9.17454 30.8354 9.22801C30.5716 10.1887 30.1457 11.1747 29.6828 11.8773C29.2682 12.5065 28.4639 13.1413 27.7964 13.6209C27.357 13.9366 26.8996 14.2047 26.4847 14.4438C26.4346 14.4728 26.3852 14.5012 26.3363 14.5293C25.9669 14.7418 25.6344 14.933 25.3144 15.1443C24.6148 15.6066 24.0735 16.1041 23.7092 16.8554C23.5817 17.1185 23.5776 17.3751 23.6531 17.6499C23.774 18.0898 23.8563 18.5846 23.8576 19.0891C23.8603 20.1406 23.3247 20.994 22.6363 21.5487C21.9561 22.097 21.0671 22.4105 20.1723 22.4008C16.1943 22.3572 13.7484 19.129 13.4259 15.5384C13.2975 14.1102 12.6713 12.6654 11.8807 11.4027C11.1545 10.2431 10.3364 9.31121 9.78074 8.77925ZM11.6716 7.23035C12.344 7.90759 13.1877 8.91079 13.9405 10.1129C14.8438 11.5555 15.6713 13.3724 15.8464 15.321C16.091 18.0433 17.8118 19.9446 20.1989 19.9705C20.5271 19.9742 20.868 19.8526 21.1114 19.6565C21.3464 19.4671 21.4278 19.267 21.4273 19.0954C21.4266 18.8435 21.3842 18.565 21.3095 18.2933C21.1133 17.5785 21.0853 16.6964 21.5226 15.7948C22.1463 14.5087 23.0708 13.714 23.9749 13.1166C24.3623 12.8607 24.7642 12.6297 25.1268 12.4213C25.1758 12.3932 25.2239 12.3656 25.2712 12.3383C25.6847 12.0999 26.0477 11.8848 26.3783 11.6472C27.0767 11.1454 27.5185 10.7448 27.6533 10.5402C27.949 10.0915 28.2815 9.35071 28.4918 8.58463C28.6585 7.97766 28.7047 7.51184 28.6891 7.22313C26.2731 5.55539 23.3433 4.57872 20.1856 4.57872C17.0231 4.57872 14.0896 5.5582 11.6716 7.23035ZM37.4879 21.575C37.5637 20.9156 37.6026 20.2451 37.6026 19.5655C37.6026 9.94631 29.8048 2.14844 20.1856 2.14844C10.5664 2.14844 2.76855 9.94631 2.76855 19.5655C2.76855 29.1847 10.5664 36.9825 20.1856 36.9825C29.0324 36.9825 36.3387 30.3865 37.4548 21.8441C37.4845 21.7412 37.5101 21.6555 37.5331 21.5909L37.4879 21.575ZM32.9927 27.3531C32.0277 27.7067 30.8646 27.917 29.4629 27.9318H29.4501H29.4459L29.4125 27.9323C29.381 27.9329 29.3314 27.9341 29.2658 27.9366C29.1344 27.942 28.9401 27.9525 28.7 27.9741C28.217 28.0173 27.5634 28.1039 26.8719 28.2738C25.4118 28.6327 24.1307 29.2772 23.5863 30.3031C22.8484 31.6937 22.9537 33.2068 23.2289 34.2431C27.3588 33.3912 30.8676 30.8402 32.9927 27.3531Z" fill="#FF4F4F"/>
</g>
</svg>