<svg width="36" height="46" viewBox="0 0 36 46" fill="none" xmlns="http://www.w3.org/2000/svg">
<path fill-rule="evenodd" clip-rule="evenodd" d="M18 3.72852C10.2335 3.72852 3.9375 10.0245 3.9375 17.791C3.9375 21.9546 5.74496 25.6939 8.62306 28.271L8.63212 28.2791C9.79183 29.3177 10.6728 30.1064 11.3026 30.6839C11.8956 31.2275 12.3654 31.6719 12.6115 31.9756L12.6382 32.0085C13.0992 32.5773 13.5009 33.0729 13.7658 33.6658C14.0308 34.2585 14.1321 34.8883 14.2483 35.6112L14.255 35.6531C14.3146 36.0237 14.3385 36.4787 14.3479 37.0619H21.6521C21.6615 36.4787 21.6854 36.0237 21.745 35.6531L21.7517 35.6112C21.8679 34.8883 21.9692 34.2585 22.2342 33.6658C22.4992 33.0729 22.9008 32.5773 23.3617 32.0085L23.3885 31.9756C23.6346 31.6719 24.1044 31.2275 24.6973 30.6839C25.3273 30.1064 26.2083 29.3175 27.3679 28.2791L27.3769 28.271C30.255 25.6939 32.0625 21.9546 32.0625 17.791C32.0625 10.0245 25.7665 3.72852 18 3.72852ZM21.6325 40.1869H14.3675C14.3744 40.4039 14.3846 40.5937 14.4002 40.7646C14.4427 41.2335 14.5144 41.4037 14.5635 41.4889C14.7006 41.7264 14.8979 41.9237 15.1354 42.0608C15.2206 42.11 15.3908 42.1816 15.8598 42.2241C16.3504 42.2687 16.9977 42.2702 18 42.2702C19.0023 42.2702 19.6496 42.2687 20.1402 42.2241C20.6092 42.1816 20.7794 42.11 20.8646 42.0608C21.1021 41.9237 21.2994 41.7264 21.4365 41.4889C21.4856 41.4037 21.5573 41.2335 21.5998 40.7646C21.6154 40.5937 21.6256 40.4039 21.6325 40.1869ZM0.8125 17.791C0.8125 8.29862 8.5076 0.603516 18 0.603516C27.4923 0.603516 35.1875 8.29862 35.1875 17.791C35.1875 22.8802 32.9738 27.4543 29.4617 30.5991C28.291 31.6473 27.4237 32.4239 26.8092 32.9873C26.5019 33.2691 26.2669 33.4891 26.0935 33.6581C26.0071 33.7423 25.941 33.8089 25.8917 33.8606C25.8673 33.886 25.849 33.906 25.8356 33.9208C25.8221 33.936 25.8165 33.9429 25.8165 33.9429C25.2744 34.6119 25.1571 34.7844 25.0873 34.9408C25.0173 35.0971 24.9671 35.2996 24.8304 36.1496C24.7765 36.4852 24.7708 37.06 24.7708 38.6244V38.6914C24.7708 39.6077 24.7708 40.3981 24.7121 41.0466C24.65 41.7323 24.5123 42.4114 24.1429 43.0514C23.7315 43.7639 23.1396 44.3558 22.4271 44.7673C21.7871 45.1366 21.1079 45.2744 20.4223 45.3364C19.7737 45.3952 18.9833 45.3952 18.0671 45.3952H17.9329C17.0167 45.3952 16.2263 45.3952 15.5779 45.3364C14.8921 45.2744 14.2129 45.1366 13.5729 44.7673C12.8603 44.3558 12.2686 43.7639 11.8572 43.0514C11.4876 42.4114 11.35 41.7323 11.2879 41.0466C11.2291 40.3981 11.2291 39.6077 11.2292 38.6914V38.6244C11.2292 37.06 11.2236 36.4852 11.1697 36.1496C11.0329 35.2996 10.9826 35.0971 10.9127 34.9408C10.8429 34.7844 10.7256 34.6119 10.1836 33.9429C10.1836 33.9429 10.1774 33.9354 10.1643 33.9208C10.151 33.906 10.1327 33.886 10.1083 33.8606C10.0591 33.8089 9.99294 33.7423 9.90652 33.6581C9.7331 33.4891 9.49817 33.2691 9.19085 32.9873C8.57625 32.4239 7.70904 31.6473 6.53844 30.5991C3.02631 27.4543 0.8125 22.8802 0.8125 17.791Z" fill="#FF4F4F"/>
</svg>
