<svg width="42" height="42" viewBox="0 0 42 42" fill="none" xmlns="http://www.w3.org/2000/svg">
<path d="M29.75 24.5C30.7165 24.5 31.5 23.7165 31.5 22.75C31.5 21.7835 30.7165 21 29.75 21C28.7835 21 28 21.7835 28 22.75C28 23.7165 28.7835 24.5 29.75 24.5Z" fill="#FF4F4F"/>
<path d="M29.75 31.5C30.7165 31.5 31.5 30.7165 31.5 29.75C31.5 28.7835 30.7165 28 29.75 28C28.7835 28 28 28.7835 28 29.75C28 30.7165 28.7835 31.5 29.75 31.5Z" fill="#FF4F4F"/>
<path d="M22.75 22.75C22.75 23.7165 21.9665 24.5 21 24.5C20.0335 24.5 19.25 23.7165 19.25 22.75C19.25 21.7835 20.0335 21 21 21C21.9665 21 22.75 21.7835 22.75 22.75Z" fill="#FF4F4F"/>
<path d="M22.75 29.75C22.75 30.7165 21.9665 31.5 21 31.5C20.0335 31.5 19.25 30.7165 19.25 29.75C19.25 28.7835 20.0335 28 21 28C21.9665 28 22.75 28.7835 22.75 29.75Z" fill="#FF4F4F"/>
<path d="M12.25 24.5C13.2165 24.5 14 23.7165 14 22.75C14 21.7835 13.2165 21 12.25 21C11.2835 21 10.5 21.7835 10.5 22.75C10.5 23.7165 11.2835 24.5 12.25 24.5Z" fill="#FF4F4F"/>
<path d="M12.25 31.5C13.2165 31.5 14 30.7165 14 29.75C14 28.7835 13.2165 28 12.25 28C11.2835 28 10.5 28.7835 10.5 29.75C10.5 30.7165 11.2835 31.5 12.25 31.5Z" fill="#FF4F4F"/>
<path fill-rule="evenodd" clip-rule="evenodd" d="M12.25 3.0625C12.9749 3.0625 13.5625 3.65013 13.5625 4.375V5.70976C14.721 5.68748 15.9973 5.68748 17.4011 5.6875H24.5987C26.0026 5.68748 27.279 5.68748 28.4375 5.70976V4.375C28.4375 3.65013 29.0252 3.0625 29.75 3.0625C30.4748 3.0625 31.0625 3.65013 31.0625 4.375V5.82241C31.5173 5.85709 31.9482 5.90069 32.3558 5.95548C34.4075 6.23133 36.0682 6.81254 37.3779 8.12217C38.6874 9.43182 39.2686 11.0925 39.5446 13.1442C39.8125 15.1378 39.8125 17.6851 39.8125 20.9011V24.5987C39.8125 27.8147 39.8125 30.3622 39.5446 32.3558C39.2686 34.4074 38.6874 36.0682 37.3779 37.3779C36.0682 38.6874 34.4075 39.2686 32.3558 39.5446C30.3622 39.8125 27.8148 39.8125 24.5989 39.8125H17.4013C14.1852 39.8125 11.6378 39.8125 9.64422 39.5446C7.59248 39.2686 5.93182 38.6874 4.62217 37.3779C3.31254 36.0682 2.73133 34.4074 2.4555 32.3558C2.18745 30.3622 2.18747 27.8148 2.1875 24.5987V20.9013C2.18747 17.6851 2.18745 15.1378 2.4555 13.1442C2.73133 11.0925 3.31254 9.43182 4.62217 8.12217C5.93182 6.81254 7.59248 6.23133 9.64422 5.95548C10.0518 5.90069 10.4826 5.85709 10.9375 5.82241V4.375C10.9375 3.65013 11.5251 3.0625 12.25 3.0625ZM9.99399 8.55708C8.23333 8.79379 7.21894 9.23771 6.47833 9.97832C5.73771 10.7189 5.29379 11.7333 5.05708 13.494C5.01699 13.7922 4.98348 14.1061 4.95544 14.4375H37.0445C37.0165 14.1061 36.9829 13.7922 36.9429 13.494C36.7063 11.7333 36.2623 10.7189 35.5217 9.97832C34.7811 9.23771 33.7666 8.79379 32.0061 8.55708C30.2076 8.31528 27.8369 8.3125 24.5 8.3125H17.5C14.1631 8.3125 11.7924 8.31528 9.99399 8.55708ZM4.8125 21C4.8125 19.5055 4.81306 18.2047 4.83541 17.0625H37.1646C37.187 18.2047 37.1875 19.5055 37.1875 21V24.5C37.1875 27.8369 37.1847 30.2076 36.9429 32.0061C36.7063 33.7666 36.2623 34.7811 35.5217 35.5217C34.7811 36.2623 33.7666 36.7063 32.0061 36.9429C30.2076 37.1847 27.8369 37.1875 24.5 37.1875H17.5C14.1631 37.1875 11.7924 37.1847 9.99399 36.9429C8.23333 36.7063 7.21894 36.2623 6.47833 35.5217C5.73771 34.7811 5.29379 33.7666 5.05708 32.0061C4.81528 30.2076 4.8125 27.8369 4.8125 24.5V21Z" fill="#FF4F4F"/>
</svg>
