<svg width="46" height="46" viewBox="0 0 46 46" fill="none" xmlns="http://www.w3.org/2000/svg">
<path fill-rule="evenodd" clip-rule="evenodd" d="M9.04225 5.92606C11.3924 3.45176 15.2798 3.91534 17.2226 6.66304L19.6395 10.0814C21.1933 12.2792 21.062 15.3347 19.2077 17.2871L18.7383 17.7812C18.737 17.7846 18.7356 17.7883 18.7342 17.7923C18.7094 17.862 18.6467 18.0839 18.7084 18.5051C18.8363 19.3782 19.5103 21.1524 22.2467 24.0334C24.9916 26.9231 26.6566 27.6043 27.4281 27.7297C27.761 27.7837 27.935 27.7368 27.9906 27.7172L28.7738 26.8927C30.4485 25.1293 33.0596 24.782 35.1651 25.9939L38.8269 28.1015C41.9566 29.903 42.6851 34.3098 40.1839 36.9431L37.4612 39.8097C36.6114 40.7044 35.4526 41.468 34.0208 41.6092C30.525 41.9544 22.4269 41.505 13.9372 32.567C6.01533 24.2266 4.51041 16.9723 4.32018 13.4279C4.22618 11.6767 5.00678 10.1746 6.03385 9.09335L9.04225 5.92606ZM14.875 8.32279C13.893 6.9339 12.1289 6.85102 11.1268 7.90603L8.11838 11.0733C7.48321 11.742 7.14996 12.5085 7.19104 13.2738C7.34636 16.1676 8.59254 22.7653 16.0218 30.5869C23.8115 38.7881 30.9879 39.0196 33.7383 38.7482C34.2823 38.6945 34.8417 38.3927 35.3767 37.8298L38.0993 34.9632C39.2738 33.7265 38.966 31.4988 37.3926 30.5934L33.7308 28.4856C32.7482 27.92 31.597 28.0948 30.8583 28.8726L29.9853 29.7916L28.975 28.832C29.9853 29.7916 29.9839 29.793 29.9828 29.7945L29.9799 29.7972L29.9744 29.8031L29.9621 29.8156L29.9347 29.8426C29.9149 29.8618 29.8921 29.8827 29.8664 29.9053C29.8149 29.9505 29.7511 30.0021 29.6746 30.0563C29.5209 30.1652 29.3164 30.285 29.0578 30.3869C28.5288 30.5957 27.8302 30.7076 26.9673 30.5675C25.2852 30.2944 23.0809 29.0863 20.1622 26.0133C17.2347 22.9313 16.1143 20.6319 15.8638 18.9219C15.7362 18.0516 15.8383 17.3547 16.0255 16.8285C16.1176 16.5697 16.2264 16.3633 16.3267 16.2066C16.3767 16.1285 16.4243 16.063 16.4665 16.0098C16.4875 15.9832 16.5072 15.9596 16.5251 15.939L16.5507 15.9102L16.5624 15.8975L16.5679 15.8916L16.5706 15.8887C16.572 15.8873 16.5733 15.8859 17.5923 16.8538L16.5733 15.8859L17.123 15.3071C17.977 14.4081 18.101 12.8855 17.2919 11.7412L14.875 8.32279Z" fill="#FF4F4F"/>
<path d="M25.4139 3.60366C25.5408 2.81996 26.2816 2.28833 27.0653 2.4152C27.1138 2.42449 27.27 2.45366 27.3517 2.47187C27.5154 2.50831 27.7435 2.56437 28.0279 2.64723C28.5968 2.8129 29.3914 3.08586 30.3451 3.52311C32.2547 4.39856 34.7958 5.92998 37.4328 8.56693C40.0697 11.2039 41.6011 13.745 42.4765 15.6546C42.9139 16.6083 43.1868 17.403 43.3524 17.9718C43.4352 18.2563 43.4914 18.4844 43.5278 18.6479C43.546 18.7297 43.5594 18.7954 43.5686 18.8439L43.5797 18.9037C43.7064 19.6873 43.1797 20.459 42.396 20.5858C41.6146 20.7123 40.8784 20.1832 40.7484 19.4033C40.7444 19.3822 40.7333 19.326 40.7216 19.2729C40.6978 19.1667 40.657 18.9984 40.5922 18.7758C40.4625 18.3305 40.2372 17.6686 39.8631 16.8527C39.116 15.223 37.7724 12.9724 35.3998 10.5999C33.0273 8.2273 30.7768 6.88373 29.147 6.13656C28.3311 5.7625 27.6693 5.53724 27.2238 5.40752C27.0013 5.34267 26.7215 5.27845 26.6153 5.25481C25.8352 5.12481 25.2874 4.38513 25.4139 3.60366Z" fill="#FF4F4F"/>
<path fill-rule="evenodd" clip-rule="evenodd" d="M25.8484 10.2148C26.0665 9.45146 26.8621 9.00944 27.6255 9.22756L27.2305 10.6097C27.6255 9.22756 27.6248 9.22737 27.6255 9.22756L27.6282 9.22835L27.6311 9.22919L27.6376 9.23107L27.6524 9.23549L27.6903 9.2473C27.7192 9.25656 27.7553 9.2686 27.7984 9.28385C27.8845 9.3144 27.9981 9.35784 28.1377 9.41766C28.4169 9.53731 28.7985 9.72212 29.2671 9.99948C30.2054 10.5547 31.4861 11.477 32.9905 12.9815C34.495 14.486 35.4173 15.7667 35.9726 16.7049C36.2499 17.1735 36.4347 17.5551 36.5543 17.8343C36.6141 17.9738 36.6576 18.0876 36.6881 18.1737C36.7034 18.2167 36.7155 18.2528 36.7247 18.2817L36.7366 18.3196L36.741 18.3345L36.7429 18.3409L36.7437 18.3438C36.7439 18.3445 36.7444 18.3466 35.3623 18.7415L36.7444 18.3466C36.9626 19.1099 36.5206 19.9055 35.7572 20.1236C35.0003 20.34 34.2118 19.9072 33.9858 19.1558L33.9787 19.1351C33.9685 19.1063 33.9473 19.0496 33.9118 18.9668C33.8409 18.8013 33.7123 18.5306 33.4984 18.1692C33.071 17.4471 32.2991 16.356 30.9576 15.0144C29.616 13.6728 28.525 12.901 27.8028 12.4736C27.4413 12.2597 27.1707 12.1311 27.0053 12.0602C26.9225 12.0247 26.8658 12.0036 26.837 11.9933L26.8163 11.9863C26.0648 11.7603 25.6322 10.9717 25.8484 10.2148Z" fill="#FF4F4F"/>
</svg>
