<svg width="50" height="50" viewBox="0 0 50 50" fill="none" xmlns="http://www.w3.org/2000/svg">
<path d="M39.2043 17.2345C40.0413 17.0252 40.8897 17.5342 41.0991 18.3714C41.3084 19.2086 40.7993 20.0569 39.9622 20.2662L31.6288 22.3495C30.7918 22.5588 29.9434 22.0499 29.7341 21.2126C29.5247 20.3755 30.0338 19.5271 30.8709 19.3179L39.2043 17.2345Z" fill="#FF4F4F"/>
<path d="M39.2043 25.5685C40.0413 25.3593 40.8897 25.8683 41.0991 26.7053C41.3084 27.5426 40.7993 28.391 39.9622 28.6001L31.6288 30.6835C30.7918 30.8928 29.9434 30.3839 29.7341 29.5466C29.5247 28.7095 30.0338 27.8612 30.8709 27.6518L39.2043 25.5685Z" fill="#FF4F4F"/>
<path d="M8.90078 18.3714C9.11007 17.5342 9.95843 17.0252 10.7956 17.2345L19.1289 19.3179C19.9661 19.5271 20.4751 20.3755 20.2658 21.2126C20.0565 22.0499 19.2082 22.5588 18.371 22.3495L10.0377 20.2662C9.20049 20.0569 8.69149 19.2086 8.90078 18.3714Z" fill="#FF4F4F"/>
<path d="M8.90078 26.7053C9.11007 25.8683 9.95843 25.3593 10.7956 25.5685L19.1289 27.6518C19.9661 27.8612 20.4751 28.7095 20.2658 29.5466C20.0565 30.3839 19.2082 30.8928 18.371 30.6835L10.0377 28.6001C9.20049 28.391 8.69149 27.5426 8.90078 26.7053Z" fill="#FF4F4F"/>
<path fill-rule="evenodd" clip-rule="evenodd" d="M47.3959 10.2781C47.3959 7.22956 44.9682 4.61511 41.7832 4.72606C39.4115 4.80867 36.3117 5.05536 33.927 5.76929C31.854 6.38988 29.5222 7.60206 27.7047 8.65402C26.0003 9.6404 23.8786 9.68961 22.1517 8.77656C20.0779 7.67992 17.3494 6.38004 14.9821 5.75536C12.9804 5.22715 10.4484 4.97344 8.3926 4.84711C5.14627 4.64758 2.60425 7.28948 2.60425 10.4127V33.6331C2.60425 36.8335 5.19546 39.3322 8.26683 39.5243C10.2642 39.6493 12.5119 39.8895 14.1847 40.331C16.2526 40.8766 18.8097 42.0899 20.8742 43.1904C23.4436 44.5599 26.5565 44.5599 29.1259 43.1904C31.1905 42.0899 33.7476 40.8766 35.8155 40.331C37.4882 39.8895 39.7359 39.6493 41.7334 39.5243C44.8047 39.3322 47.3959 36.8335 47.3959 33.6331V10.2781ZM41.892 7.84917C43.1728 7.80454 44.2709 8.85815 44.2709 10.2781V33.6331C44.2709 35.0618 43.087 36.3085 41.5382 36.4054C39.4963 36.5331 36.9982 36.7868 35.018 37.3093C32.5799 37.9529 29.7557 39.3133 27.6559 40.4326C27.3053 40.6195 26.9386 40.7668 26.5626 40.8743V12.3799C27.5049 12.1913 28.4211 11.85 29.2699 11.3587C31.0417 10.3333 33.1145 9.27456 34.8232 8.763C36.8007 8.17102 39.5609 7.93036 41.892 7.84917ZM23.4376 12.4485C22.4897 12.3011 21.5605 11.9989 20.6911 11.5391C18.656 10.4631 16.1892 9.30586 14.1847 8.77694C12.4926 8.33042 10.2134 8.0899 8.20089 7.96621C6.88014 7.88504 5.72925 8.96025 5.72925 10.4127V33.6331C5.72925 35.0618 6.91323 36.3085 8.46191 36.4054C10.5037 36.5331 13.002 36.7868 14.9821 37.3093C17.4203 37.9529 20.2444 39.3133 22.3442 40.4326C22.6949 40.6195 23.0615 40.7668 23.4376 40.8743V12.4485Z" fill="#FF4F4F"/>
</svg>
