<svg width="50" height="50" viewBox="0 0 50 50" fill="none" xmlns="http://www.w3.org/2000/svg">
<path fill-rule="evenodd" clip-rule="evenodd" d="M15.1304 6.79195C15.3796 4.43777 17.3714 2.60352 19.7917 2.60352H30.2083C32.6285 2.60352 34.6204 4.43777 34.8696 6.79195C36.4594 6.82433 37.834 6.90656 39.0075 7.12216C40.5867 7.41222 41.9306 7.96481 43.0244 9.05841C44.2783 10.3124 44.8177 11.8913 45.0698 13.7665C45.3125 15.5727 45.3125 17.8692 45.3125 20.7184V33.4471C45.3125 36.2962 45.3125 38.5927 45.0698 40.3989C44.8177 42.2741 44.2783 43.8529 43.0244 45.1071C41.7702 46.361 40.1915 46.9004 38.3162 47.1525C36.51 47.3952 34.2135 47.3952 31.3644 47.3952H18.6357C15.7865 47.3952 13.49 47.3952 11.6839 47.1525C9.80863 46.9004 8.22973 46.361 6.97573 45.1071C5.72173 43.8529 5.18238 42.2741 4.93025 40.3989C4.68742 38.5927 4.68746 36.2962 4.6875 33.4471V20.7184C4.68746 17.8692 4.68742 15.5727 4.93025 13.7665C5.18238 11.8913 5.72173 10.3124 6.97573 9.05841C8.06933 7.96481 9.41323 7.41222 10.9924 7.12216C12.1661 6.90656 13.5407 6.82433 15.1304 6.79195ZM15.1353 9.91783C13.6391 9.94977 12.4862 10.0251 11.557 10.1957C10.3761 10.4126 9.69263 10.7609 9.18544 11.2681C8.60885 11.8447 8.23292 12.6542 8.0274 14.1829C7.81581 15.7566 7.8125 17.8422 7.8125 20.8327V33.3327C7.8125 36.3231 7.81581 38.4087 8.0274 39.9825C8.23292 41.5112 8.60885 42.3206 9.18544 42.8973C9.76202 43.4739 10.5716 43.8498 12.1003 44.0554C13.6739 44.2669 15.7595 44.2702 18.75 44.2702H31.25C34.2404 44.2702 36.326 44.2669 37.8998 44.0554C39.4285 43.8498 40.2379 43.4739 40.8146 42.8973C41.3912 42.3206 41.7671 41.5112 41.9727 39.9825C42.1842 38.4087 42.1875 36.3231 42.1875 33.3327V20.8327C42.1875 17.8422 42.1842 15.7566 41.9727 14.1829C41.7671 12.6542 41.3912 11.8447 40.8146 11.2681C40.3073 10.7609 39.624 10.4126 38.4431 10.1957C37.5137 10.0251 36.3608 9.94977 34.8646 9.91783C34.5954 12.2506 32.6133 14.0618 30.2083 14.0618H19.7917C17.3866 14.0618 15.4047 12.2506 15.1353 9.91783ZM19.7917 5.72852C18.9287 5.72852 18.2292 6.42808 18.2292 7.29102V9.37435C18.2292 10.2373 18.9287 10.9368 19.7917 10.9368H30.2083C31.0713 10.9368 31.7708 10.2373 31.7708 9.37435V7.29102C31.7708 6.42808 31.0713 5.72852 30.2083 5.72852H19.7917ZM13.0208 21.8743C13.0208 21.0114 13.7204 20.3118 14.5833 20.3118H15.625C16.4879 20.3118 17.1875 21.0114 17.1875 21.8743C17.1875 22.7373 16.4879 23.4369 15.625 23.4369H14.5833C13.7204 23.4369 13.0208 22.7373 13.0208 21.8743ZM20.3125 21.8743C20.3125 21.0114 21.0121 20.3118 21.875 20.3118H35.4167C36.2796 20.3118 36.9792 21.0114 36.9792 21.8743C36.9792 22.7373 36.2796 23.4369 35.4167 23.4369H21.875C21.0121 23.4369 20.3125 22.7373 20.3125 21.8743ZM13.0208 29.166C13.0208 28.3031 13.7204 27.6035 14.5833 27.6035H15.625C16.4879 27.6035 17.1875 28.3031 17.1875 29.166C17.1875 30.0289 16.4879 30.7285 15.625 30.7285H14.5833C13.7204 30.7285 13.0208 30.0289 13.0208 29.166ZM20.3125 29.166C20.3125 28.3031 21.0121 27.6035 21.875 27.6035H35.4167C36.2796 27.6035 36.9792 28.3031 36.9792 29.166C36.9792 30.0289 36.2796 30.7285 35.4167 30.7285H21.875C21.0121 30.7285 20.3125 30.0289 20.3125 29.166ZM13.0208 36.4577C13.0208 35.5948 13.7204 34.8952 14.5833 34.8952H15.625C16.4879 34.8952 17.1875 35.5948 17.1875 36.4577C17.1875 37.3206 16.4879 38.0202 15.625 38.0202H14.5833C13.7204 38.0202 13.0208 37.3206 13.0208 36.4577ZM20.3125 36.4577C20.3125 35.5948 21.0121 34.8952 21.875 34.8952H35.4167C36.2796 34.8952 36.9792 35.5948 36.9792 36.4577C36.9792 37.3206 36.2796 38.0202 35.4167 38.0202H21.875C21.0121 38.0202 20.3125 37.3206 20.3125 36.4577Z" fill="#FF4F4F"/>
</svg>
