<svg width="25" height="25" viewBox="0 0 25 25" fill="none" xmlns="http://www.w3.org/2000/svg">
<path fill-rule="evenodd" clip-rule="evenodd" d="M7.58691 2.43665C8.00112 2.43665 8.33691 2.77244 8.33691 3.18665V3.94937C8.99894 3.93664 9.72831 3.93664 10.5305 3.93665H14.6433C15.4455 3.93664 16.1749 3.93664 16.8369 3.94937V3.18665C16.8369 2.77244 17.1727 2.43665 17.5869 2.43665C18.0011 2.43665 18.3369 2.77244 18.3369 3.18665V4.01374C18.5968 4.03356 18.843 4.05847 19.0759 4.08978C20.2483 4.24741 21.1973 4.57953 21.9457 5.32789C22.694 6.07626 23.0261 7.0252 23.1838 8.19763C23.2341 8.57232 23.2679 8.98124 23.2906 9.42672C23.3206 9.50771 23.3369 9.59526 23.3369 9.68665C23.3369 9.75597 23.3275 9.82309 23.3099 9.88681C23.3369 10.6887 23.3369 11.5994 23.3369 12.6302V14.743C23.3369 16.5808 23.3369 18.0364 23.1838 19.1756C23.0261 20.348 22.694 21.297 21.9457 22.0454C21.1973 22.7937 20.2483 23.1258 19.0759 23.2835C17.9367 23.4366 16.4811 23.4366 14.6433 23.4366H10.5305C8.69274 23.4366 7.2371 23.4366 6.09789 23.2835C4.92547 23.1258 3.97652 22.7937 3.22815 22.0454C2.47979 21.297 2.14767 20.348 1.99005 19.1756C1.83688 18.0364 1.83689 16.5808 1.83691 14.743V12.6302C1.8369 11.5993 1.83689 10.6887 1.86392 9.88682C1.84632 9.82309 1.83691 9.75597 1.83691 9.68665C1.83691 9.59527 1.85325 9.5077 1.88318 9.42671C1.90586 8.98123 1.93967 8.57231 1.99005 8.19763C2.14767 7.02521 2.47979 6.07626 3.22815 5.32789C3.97652 4.57953 4.92547 4.24741 6.09789 4.08978C6.33081 4.05847 6.57697 4.03356 6.83691 4.01374V3.18665C6.83691 2.77244 7.1727 2.43665 7.58691 2.43665ZM3.35 10.4366C3.33723 11.0893 3.33691 11.8326 3.33691 12.6866V14.6866C3.33691 16.5934 3.3385 17.9481 3.47667 18.9758C3.61193 19.9818 3.8656 20.5615 4.28881 20.9847C4.71202 21.4079 5.29167 21.6616 6.29776 21.7968C7.32542 21.935 8.68009 21.9366 10.5869 21.9366H14.5869C16.4937 21.9366 17.8484 21.935 18.8761 21.7968C19.8821 21.6616 20.4618 21.4079 20.885 20.9847C21.3082 20.5615 21.5619 19.9818 21.6971 18.9758C21.8353 17.9481 21.8369 16.5934 21.8369 14.6866V12.6866C21.8369 11.8326 21.8366 11.0893 21.8238 10.4366H3.35ZM21.7552 8.93665H3.41859C3.43461 8.74726 3.45376 8.56788 3.47667 8.3975C3.61193 7.39141 3.8656 6.81176 4.28881 6.38855C4.71202 5.96534 5.29167 5.71167 6.29776 5.57641C7.32542 5.43824 8.68009 5.43665 10.5869 5.43665H14.5869C16.4937 5.43665 17.8484 5.43824 18.8761 5.57641C19.8821 5.71167 20.4618 5.96534 20.885 6.38855C21.3082 6.81176 21.5619 7.39141 21.6971 8.3975C21.72 8.56788 21.7392 8.74726 21.7552 8.93665ZM11.3739 12.9937C11.6542 13.1098 11.8369 13.3833 11.8369 13.6866V17.6866C11.8369 18.1008 11.5011 18.4366 11.0869 18.4366C10.6727 18.4366 10.3369 18.1008 10.3369 17.6866V15.4973L10.1172 15.7169C9.82435 16.0098 9.34947 16.0098 9.05658 15.7169C8.76369 15.424 8.76369 14.9492 9.05658 14.6563L10.5566 13.1563C10.7711 12.9418 11.0937 12.8776 11.3739 12.9937ZM14.5869 14.4366C14.4488 14.4366 14.3369 14.5485 14.3369 14.6866V16.6866C14.3369 16.8247 14.4488 16.9366 14.5869 16.9366C14.725 16.9366 14.8369 16.8247 14.8369 16.6866V14.6866C14.8369 14.5485 14.725 14.4366 14.5869 14.4366ZM12.8369 14.6866C12.8369 13.7201 13.6204 12.9366 14.5869 12.9366C15.5534 12.9366 16.3369 13.7201 16.3369 14.6866V16.6866C16.3369 17.6531 15.5534 18.4366 14.5869 18.4366C13.6204 18.4366 12.8369 17.6531 12.8369 16.6866V14.6866Z" fill="#FF4F4F"/>
</svg>
