<svg width="27" height="27" viewBox="0 0 27 27" fill="none" xmlns="http://www.w3.org/2000/svg">
<path fill-rule="evenodd" clip-rule="evenodd" d="M10.8403 3.36894C12.5983 2.54478 14.5761 2.54478 16.3341 3.36894L23.5829 6.76735C24.7229 7.3018 25.2331 8.4624 25.2331 9.52168C25.2331 10.581 24.7229 11.7415 23.5829 12.276L21.9831 13.026V18.3242C21.9831 19.6817 21.3024 20.9923 20.0634 21.6785C19.2491 22.1295 18.1788 22.6723 17.0526 23.1045C15.9397 23.5314 14.7073 23.8758 13.5872 23.8758C12.4672 23.8758 11.2348 23.5314 10.1218 23.1045C8.99562 22.6723 7.92542 22.1295 7.11105 21.6785C5.87202 20.9923 5.19141 19.6817 5.19141 18.3242V13.026L3.59157 12.2759L3.56641 12.264V15.48C3.56641 15.9287 3.20263 16.2925 2.75391 16.2925C2.30518 16.2925 1.94141 15.9287 1.94141 15.48V9.52166C1.94141 8.46237 2.4516 7.30174 3.59158 6.7673L10.8403 3.36894ZM6.81641 13.7878V18.3242C6.81641 19.1508 7.22672 19.8849 7.89831 20.257C8.67468 20.6868 9.67292 21.1918 10.7039 21.5873C11.7481 21.9879 12.7616 22.2508 13.5872 22.2508C14.4128 22.2508 15.4264 21.9879 16.4706 21.5873C17.5015 21.1918 18.4998 20.6868 19.2761 20.257C19.9478 19.8849 20.3581 19.1508 20.3581 18.3242V13.7879L16.3342 15.6743C14.5762 16.4985 12.5984 16.4985 10.8404 15.6743L6.81641 13.7878ZM4.28136 10.8046C3.8446 10.5999 3.56641 10.1114 3.56641 9.52164C3.56641 8.93186 3.8446 8.44341 4.28137 8.23863L11.5301 4.84027C12.851 4.221 14.3234 4.221 15.6443 4.84028L22.8931 8.23868C23.3299 8.44345 23.6081 8.93191 23.6081 9.52168C23.6081 10.1115 23.3299 10.5999 22.8931 10.8047L15.6444 14.2031C14.3235 14.8223 12.8511 14.8223 11.5302 14.2031L4.28136 10.8046Z" fill="#FF4F4F"/>
</svg>
