<svg width="26" height="26" viewBox="0 0 26 26" fill="none" xmlns="http://www.w3.org/2000/svg">
<path fill-rule="evenodd" clip-rule="evenodd" d="M11.7405 5.19714C10.5203 3.01077 7.56307 2.87755 5.81066 4.62996C4.87331 5.56731 4.04044 6.81368 3.98491 8.27833C3.90263 10.4489 4.46315 14.0529 8.03227 17.622C11.6013 21.1911 15.2054 21.7517 17.3759 21.6694C18.8406 21.6138 20.0869 20.7809 21.0243 19.8436C22.7767 18.0912 22.6435 15.134 20.4571 13.9138L19.2441 13.2368C17.8164 12.44 16.0149 12.7796 14.8342 13.946C14.8129 13.9616 14.693 14.0439 14.4833 14.0541C14.2158 14.0672 13.5975 13.9719 12.6399 13.0143C11.682 12.0564 11.5871 11.438 11.6001 11.1707C11.6103 10.9613 11.6927 10.8413 11.7083 10.82C12.8747 9.63934 13.2142 7.8379 12.4174 6.41015L11.7405 5.19714ZM6.91699 5.73629C8.07043 4.58285 9.74943 4.84005 10.3742 5.95962L11.0512 7.17262C11.4723 7.92718 11.3287 8.98707 10.5846 9.7311C10.512 9.80375 10.0778 10.2686 10.0374 11.0941C9.99601 11.9394 10.3756 12.9627 11.5337 14.1207C12.6912 15.2783 13.7142 15.658 14.5594 15.6169C15.3848 15.5768 15.8498 15.1429 15.9229 15.0699C16.667 14.3258 17.7271 14.1819 18.4817 14.6031L19.6946 15.28C20.8141 15.9048 21.0714 17.5838 19.9179 18.7372C19.1093 19.546 18.2166 20.0717 17.3167 20.1058C15.5065 20.1745 12.3506 19.7276 9.1386 16.5156C5.92664 13.3037 5.47975 10.1477 5.54838 8.33761C5.58249 7.43768 6.10826 6.54502 6.91699 5.73629Z" fill="#FF4F4F"/>
<path d="M17.2755 4.46631C16.8435 4.46631 16.4933 4.81655 16.4933 5.2486C16.4933 5.68065 16.8435 6.03089 17.2755 6.03089H18.5161L15.6793 8.86766C15.3738 9.17316 15.3738 9.66848 15.6793 9.97399C15.9848 10.2795 16.4801 10.2795 16.7856 9.97399L19.6224 7.13722V8.37777C19.6224 8.80981 19.9727 9.16006 20.4047 9.16006C20.8367 9.16006 21.187 8.80981 21.187 8.37777V5.2486C21.187 4.81655 20.8367 4.46631 20.4047 4.46631H17.2755Z" fill="#FF4F4F"/>
</svg>
