<svg width="23" height="23" viewBox="0 0 23 23" fill="none" xmlns="http://www.w3.org/2000/svg">
<path d="M18.5822 14.7686V17.4847C18.5822 18.1159 18.5822 18.4316 18.4653 18.6727C18.3624 18.8848 18.1982 19.0572 17.9963 19.1653C17.7668 19.2881 17.4663 19.2881 16.8653 19.2881H4.73927C4.13828 19.2881 3.83779 19.2881 3.60824 19.1653C3.40632 19.0572 3.24216 18.8848 3.13928 18.6727C3.02232 18.4316 3.02232 18.1159 3.02232 17.4847V14.7686M14.2898 6.32557V4.74752C14.2898 4.11624 14.2898 3.8006 14.1729 3.55948C14.07 3.34739 13.9058 3.17495 13.7039 3.06689C13.4744 2.94403 13.1739 2.94403 12.5729 2.94403H9.03167C8.43068 2.94403 8.13018 2.94403 7.90063 3.06689C7.69872 3.17495 7.53455 3.34739 7.43167 3.55948C7.31471 3.8006 7.31471 4.11624 7.31471 4.74752V6.32557M13.2168 13.0887V15.9066M8.38781 13.0887V15.9066M3.66618 14.7794H17.9384C18.5394 14.7794 18.8399 14.7794 19.0694 14.6566C19.2713 14.5485 19.4355 14.3761 19.5384 14.164C19.6553 13.9229 19.6553 13.6072 19.6553 12.9759V8.12906C19.6553 7.49778 19.6553 7.18214 19.5384 6.94102C19.4355 6.72893 19.2713 6.55649 19.0694 6.44843C18.8399 6.32557 18.5394 6.32557 17.9384 6.32557H3.66618C3.06518 6.32557 2.76469 6.32557 2.53514 6.44843C2.33322 6.55649 2.16906 6.72893 2.06618 6.94102C1.94922 7.18214 1.94922 7.49778 1.94922 8.12906V12.9759C1.94922 13.6072 1.94922 13.9229 2.06618 14.164C2.16906 14.3761 2.33322 14.5485 2.53514 14.6566C2.76469 14.7794 3.06518 14.7794 3.66618 14.7794Z" stroke="#FF4F4F" stroke-width="1.6445" stroke-linecap="round" stroke-linejoin="round"/>
</svg>
