<svg xmlns="http://www.w3.org/2000/svg" width="18" height="18" viewBox="0 0 18 18" fill="none">
  <g clip-path="url(#clip0_23983_50863)">
    <path d="M17.4375 5.20312H0.5625C0.323437 5.20312 0.140625 5.38594 0.140625 5.625V16.0312C0.140625 17.0438 0.95625 17.8594 1.96875 17.8594H16.0312C17.0438 17.8594 17.8594 17.0438 17.8594 16.0312V5.625C17.8594 5.38594 17.6766 5.20312 17.4375 5.20312ZM5.175 15.75L4.8375 15.975C4.64062 16.1016 4.3875 15.9609 4.40156 15.7219L4.42969 15.3141C4.47188 14.5125 4.71094 13.725 5.11875 13.0219L8.53594 7.0875C8.80313 6.62344 9.40781 6.45469 9.88594 6.72187C10.35 6.98906 10.5188 7.59375 10.2516 8.07188L6.80625 14.0062C6.4125 14.7094 5.85 15.3141 5.175 15.75ZM13.8516 15.5531C13.5422 15.8625 13.1062 16.0031 12.6703 15.9469C12.2344 15.8766 11.8688 15.6234 11.6578 15.2297L11.2359 14.4281C11.1938 14.3438 11.1094 14.3297 11.0672 14.3438C11.025 14.3438 10.9547 14.3719 10.9266 14.4563L10.6312 15.3984C10.5188 15.75 10.2234 15.9891 9.85781 16.0172C9.49219 16.0453 9.15469 15.8484 8.98594 15.525L8.85938 15.2859C8.84531 15.2578 8.83125 15.2578 8.83125 15.2578C8.80312 15.2578 8.775 15.2719 8.74687 15.3141C8.73281 15.3281 8.71875 15.3563 8.70469 15.3703L8.28281 15.8625C8.19844 15.9609 8.08594 16.0172 7.95937 16.0172C7.86094 16.0172 7.7625 15.9891 7.69219 15.9187C7.50938 15.7641 7.49531 15.4969 7.65 15.3281L8.05781 14.85C8.24062 14.5687 8.55 14.4 8.87344 14.4141C9.19687 14.4281 9.47812 14.6109 9.63281 14.9062L9.75938 15.1453C9.75938 15.1594 9.77344 15.1734 9.80156 15.1734C9.82969 15.1734 9.84375 15.1594 9.84375 15.1453L10.1391 14.2031C10.2656 13.8094 10.6031 13.5281 11.0109 13.5C11.4188 13.4578 11.8125 13.6688 11.9953 14.0344L12.4172 14.8359C12.5016 14.9906 12.6422 15.0891 12.8109 15.1172C12.9797 15.1453 13.1484 15.0891 13.275 14.9625C13.4438 14.7937 13.7109 14.7937 13.8656 14.9625C14.0062 15.1313 14.0063 15.3984 13.8516 15.5531ZM16.0312 0.140625H1.96875C0.95625 0.140625 0.140625 0.95625 0.140625 1.96875V3.375V3.9375C0.140625 4.17656 0.323437 4.35938 0.5625 4.35938H17.4375C17.6766 4.35938 17.8594 4.17656 17.8594 3.9375V1.96875C17.8594 0.95625 17.0438 0.140625 16.0312 0.140625ZM3.09375 2.67188H2.53125C2.29219 2.67188 2.10938 2.48906 2.10938 2.25C2.10938 2.01094 2.29219 1.82812 2.53125 1.82812H3.09375C3.33281 1.82812 3.51562 2.01094 3.51562 2.25C3.51562 2.48906 3.33281 2.67188 3.09375 2.67188ZM5.34375 2.67188H4.78125C4.54219 2.67188 4.35938 2.48906 4.35938 2.25C4.35938 2.01094 4.54219 1.82812 4.78125 1.82812H5.34375C5.58281 1.82812 5.76562 2.01094 5.76562 2.25C5.76562 2.48906 5.58281 2.67188 5.34375 2.67188ZM15.4688 2.67188H10.6875C10.4484 2.67188 10.2656 2.48906 10.2656 2.25C10.2656 2.01094 10.4484 1.82812 10.6875 1.82812H15.4688C15.7078 1.82812 15.8906 2.01094 15.8906 2.25C15.8906 2.48906 15.7078 2.67188 15.4688 2.67188Z" fill="black"/>
  </g>
  <defs>
    <clipPath id="clip0_23983_50863">
      <rect width="18" height="18" fill="white"/>
    </clipPath>
  </defs>
</svg>