<svg xmlns="http://www.w3.org/2000/svg" width="28" height="28" viewBox="0 0 28 28" fill="none">
  <path d="M14.7131 2.488C14.6431 2.49456 14.5753 2.5055 14.5053 2.51862C13.9453 2.63018 13.3284 3.07862 12.7684 3.63862L15.4547 5.31862C15.7916 4.19862 16.0169 3.07862 15.2884 2.63018C15.12 2.50331 14.9209 2.47268 14.7131 2.488ZM11.9853 4.47862C11.3116 5.31862 9.79999 7.27862 8.23155 9.74393C7.72843 10.5271 7.22312 11.4239 6.71999 12.2639C6.71999 12.7671 6.6653 13.2155 6.60843 13.6639C6.43999 14.7271 6.15999 15.6217 5.99155 15.9586C5.76843 16.5755 5.43155 17.0217 5.09687 17.3586L7.2253 18.7039C7.55999 18.2555 8.11999 17.4702 8.79155 16.5733L8.45468 16.3502C7.16843 15.6786 6.55155 14.1671 7.05468 12.7671C7.44843 11.6471 8.56843 10.9186 9.7453 10.9186C9.96843 10.9186 10.1916 10.9733 10.4716 11.0302L12.2084 11.4786C13.5516 9.23862 14.56 7.22175 15.0084 6.27018L11.9853 4.47862ZM9.4653 6.04706L5.59999 6.60706C5.20843 6.66393 4.92843 6.88706 4.75999 7.22393L1.62312 14.2786C1.51155 14.5586 1.39999 14.9502 1.45687 15.2871C1.51155 15.9039 1.79155 16.4617 2.23999 16.8533C2.85687 17.2471 3.58312 17.1355 3.91999 16.9671C4.70312 16.6302 4.98312 15.5671 5.03999 15.2871C5.20843 14.6702 5.76843 12.9902 5.54312 11.3671L6.04843 11.3102C6.43999 10.5817 6.88843 9.91018 7.27999 9.23862C8.06312 8.00706 8.79155 6.94393 9.4653 6.04706ZM15.96 7.05331C15.5684 7.89331 14.6169 9.79862 13.3284 11.9271L14.7853 12.3186L15.9053 12.6533L15.2884 13.5502L10.1916 12.2071C9.35155 11.9839 8.45687 12.4302 8.11999 13.2702C7.78312 14.1102 8.17687 15.0617 8.95999 15.4533L15.3453 19.0386C16.2969 19.5417 17.36 19.7102 18.4253 19.5439C18.5369 19.5439 22.9053 18.5333 22.9053 18.5333L21.7284 10.5839L16.1284 7.11018C16.0716 7.05331 16.0169 7.05331 15.96 7.05331ZM25.3684 9.74393L22.7916 10.1333L24.3053 19.9902L26.88 19.5986L25.3684 9.74393ZM3.86312 17.9733C3.24843 19.7102 3.24843 20.8302 3.24843 21.2786L2.85687 21.8386C2.74312 22.0071 2.79999 22.2302 2.96843 22.3439C3.07999 22.3986 3.13687 22.3986 3.24843 22.3986C3.35999 22.3417 3.41687 22.2871 3.52843 22.2302L3.86312 21.6702C4.25687 21.5017 5.26312 20.9986 6.55155 19.6533L3.86312 17.9733Z" fill="black"/>
</svg>