<svg width="28" height="28" viewBox="0 0 28 28" fill="none" xmlns="http://www.w3.org/2000/svg">
<g id="icons8-software-3 2" clip-path="url(#clip0_21620_159535)">
<path id="Vector" d="M20.72 0L20.3842 1.79156C20.2162 1.84756 19.9922 1.90378 19.8242 2.01578L18.3116 0.951562L16.6316 2.63156L17.64 4.03156C17.584 4.25556 17.4718 4.42444 17.4158 4.64844L15.68 4.92844V7.28L17.4158 7.56C17.4718 7.728 17.528 7.952 17.64 8.12L16.6316 9.63156L18.3116 11.3116L19.8242 10.3042C20.0482 10.4162 20.216 10.4724 20.44 10.5284L20.72 12.32H23.0158L23.3516 10.5842C23.5196 10.5282 23.6876 10.472 23.9116 10.36L25.4242 11.3684L27.1042 9.68844L26.04 8.23156C26.152 8.00756 26.2082 7.78378 26.2642 7.61578L28 7.28V4.92844L26.2084 4.64844C26.1524 4.48044 26.0962 4.25644 25.9842 4.08844L26.9916 2.57578L25.3684 0.951562L23.9116 2.01578C23.7436 1.90378 23.5196 1.84756 23.3516 1.79156L23.0716 0H20.72ZM4.48 4.48C3.24464 4.48 2.24 5.48464 2.24 6.72V19.04C2.24 19.45 2.35865 19.8291 2.55172 20.16H1.12C0.810878 20.16 0.559998 20.4109 0.559998 20.72C0.559998 22.2639 1.81608 23.52 3.36 23.52H24.64C26.1839 23.52 27.44 22.2639 27.44 20.72C27.44 20.4109 27.1891 20.16 26.88 20.16H25.4483C25.6413 19.8291 25.76 19.45 25.76 19.04V12.2883C25.4055 12.5156 25.0331 12.7165 24.64 12.88V19.04C24.64 19.6577 24.1377 20.16 23.52 20.16H4.48C3.86232 20.16 3.36 19.6577 3.36 19.04V6.72C3.36 6.10232 3.86232 5.6 4.48 5.6H14.5884C14.6176 5.21752 14.6767 4.844 14.7623 4.48H4.48ZM21.84 4.48C22.764 4.48 23.52 5.152 23.52 6.16C23.52 7.084 22.764 7.84 21.84 7.84C20.916 7.84 20.16 7.084 20.16 6.16C20.16 5.236 20.916 4.48 21.84 4.48Z" fill="#888888"/>
</g>
<defs>
<clipPath id="clip0_21620_159535">
<rect width="28" height="28" fill="white"/>
</clipPath>
</defs>
</svg>
