<svg width="26" height="26" viewBox="0 0 26 26" fill="none" xmlns="http://www.w3.org/2000/svg">
<g id="icons8-sign 1">
<path id="Vector" d="M6.06664 1.74219C5.11331 1.74219 4.33331 2.52219 4.33331 3.47552V8.2862C4.35064 8.2862 4.35999 8.27624 4.37732 8.26758C4.54199 7.50491 5.21663 6.94219 6.02263 6.94219H6.11065C6.91665 6.94219 7.5913 7.50491 7.75597 8.26758C8.8133 8.85691 9.53331 9.97552 9.53331 11.2755V20.8089V22.6201C9.53331 23.1314 9.37731 23.634 9.09998 24.0673L8.95271 24.2755H19.9333C20.8866 24.2755 21.6666 23.4955 21.6666 22.5422V8.24219C21.6666 8.00819 21.5808 7.7924 21.4161 7.62773L15.7828 1.9944C15.6181 1.82973 15.4006 1.74219 15.1666 1.74219H6.06664ZM14.7333 3.38919L20.0196 8.67552H15.6C15.1233 8.67552 14.7333 8.28552 14.7333 7.80885V3.38919ZM6.06664 8.67552C5.71131 8.67552 5.39938 8.89165 5.26938 9.20365V9.2138C5.22604 9.3178 5.19998 9.42952 5.19998 9.54219C5.19998 9.56819 5.19977 9.59405 5.20844 9.62005C4.83577 9.74138 4.54117 10.0362 4.41117 10.4089H4.33331C3.46664 10.4089 3.12905 10.5907 2.79972 10.9201C2.73038 10.9894 2.6689 11.0672 2.6169 11.1452C2.40024 11.4398 2.2699 11.7964 2.2699 12.1777V12.3842C2.2699 12.8436 2.37451 13.3996 2.46117 13.9889C2.51317 14.3356 2.56531 14.6818 2.59998 15.0198C2.62598 15.2625 2.64399 15.5058 2.64399 15.7138C2.63532 15.9998 2.86918 16.2419 3.15518 16.2419C3.44118 16.2506 3.68311 16.0254 3.69177 15.7307V15.7138C3.69177 15.0985 3.58716 14.4382 3.5005 13.8315C3.40516 13.2248 3.31938 12.6717 3.31938 12.3944V12.1777C3.31938 11.7617 3.64817 11.4315 4.06417 11.2755H4.33331V16.4755H7.79998V10.8422C7.79998 10.2702 7.43618 9.78472 6.92485 9.62005C6.93351 9.59405 6.93331 9.56819 6.93331 9.54219C6.93331 9.32552 6.85531 9.12605 6.71664 8.97005C6.56064 8.78805 6.32664 8.67552 6.06664 8.67552ZM4.33331 18.2089V22.5422C4.33331 22.9062 4.36798 22.8971 4.54998 23.2091L5.16612 24.2755L5.20844 24.3534C5.26044 24.4314 5.31346 24.5092 5.38279 24.5785C5.44345 24.6392 5.52146 24.6924 5.59946 24.7444V25.3148C5.59079 25.6008 5.82465 25.8447 6.11065 25.8447C6.39665 25.8533 6.63878 25.6281 6.63878 25.3335V25.3148V24.7444C6.72544 24.6924 6.79478 24.6392 6.85544 24.5785C6.94211 24.4918 7.01165 24.3967 7.06365 24.284L7.07211 24.2755L7.68656 23.2176C7.7559 23.0876 7.79131 23.0195 7.79998 22.9501C7.81731 22.8461 7.79998 22.7589 7.79998 22.5422V18.2089H4.33331Z" fill="#888888"/>
</g>
</svg>
