<svg width="28" height="28" viewBox="0 0 28 28" fill="none" xmlns="http://www.w3.org/2000/svg">
<g id="pen-new-round-svgrepo-com 2">
<path id="Vector" d="M19.4275 4.03351L20.1845 3.27655C21.4387 2.0224 23.4721 2.0224 24.7263 3.27655C25.9803 4.53072 25.9803 6.56412 24.7263 7.81827L23.9692 8.57522M19.4275 4.03351C19.4275 4.03351 19.5221 5.64203 20.9415 7.06131C22.3607 8.4806 23.9692 8.57522 23.9692 8.57522M19.4275 4.03351L12.4686 10.9925C11.9972 11.4639 11.7616 11.6995 11.5588 11.9594C11.3197 12.2659 11.1148 12.5976 10.9475 12.9485C10.8057 13.246 10.7003 13.5622 10.4895 14.1946L9.81466 16.2193M23.9692 8.57522L17.0103 15.5342C16.5389 16.0055 16.3033 16.2412 16.0433 16.444C15.7369 16.683 15.4052 16.888 15.0542 17.0553C14.7567 17.1971 14.4406 17.3024 13.8081 17.5132L11.7835 18.1881M9.81466 16.2193L9.37796 17.5293C9.27423 17.8406 9.35522 18.1836 9.58718 18.4156C9.81913 18.6476 10.1622 18.7285 10.4734 18.6248L11.7835 18.1881M9.81466 16.2193L11.7835 18.1881" stroke="#FF4F4F" stroke-width="2.5"/>
<path id="Vector_2" d="M25.6668 14.0026C25.6668 20.4459 20.4434 25.6693 14.0002 25.6693C7.55684 25.6693 2.3335 20.4459 2.3335 14.0026C2.3335 7.55928 7.55684 2.33594 14.0002 2.33594" stroke="#FF4F4F" stroke-width="2.5" stroke-linecap="round"/>
</g>
</svg>
