<svg width="28" height="28" viewBox="0 0 28 28" fill="none" xmlns="http://www.w3.org/2000/svg">
<g id="file-send-svgrepo-com 1">
<path id="Vector" d="M16.3335 24.7943H11.6668V26.5443H16.3335V24.7943ZM3.2085 16.336V11.6693H1.4585V16.336H3.2085ZM24.7918 15.826V16.336H26.5418V15.826H24.7918ZM17.3732 5.3823L21.9918 9.53902L23.1625 8.23824L18.544 4.08154L17.3732 5.3823ZM26.5418 15.826C26.5418 13.8562 26.5594 12.6091 26.0624 11.4931L24.4639 12.2051C24.7742 12.9019 24.7918 13.7017 24.7918 15.826H26.5418ZM21.9918 9.53902C23.5708 10.9601 24.1535 11.5083 24.4639 12.2051L26.0624 11.4931C25.5654 10.3771 24.6266 9.55595 23.1625 8.23824L21.9918 9.53902ZM11.7016 3.211C13.547 3.211 14.2434 3.22451 14.8641 3.46268L15.491 1.82885C14.4973 1.44749 13.4145 1.461 11.7016 1.461V3.211ZM18.544 4.08154C17.277 2.94124 16.4848 2.21016 15.491 1.82885L14.8641 3.46268C15.485 3.70091 16.0086 4.15408 17.3732 5.3823L18.544 4.08154ZM11.6668 24.7943C9.44221 24.7943 7.86176 24.7925 6.66282 24.6312C5.48905 24.4735 4.81279 24.1775 4.31905 23.6838L3.08161 24.9213C3.95471 25.7943 5.06181 26.1817 6.42964 26.3657C7.77229 26.5462 9.49167 26.5443 11.6668 26.5443V24.7943ZM1.4585 16.336C1.4585 18.5111 1.45664 20.2306 1.63715 21.5732C1.82105 22.941 2.20852 24.0481 3.08161 24.9213L4.31905 23.6838C3.8253 23.19 3.52935 22.5137 3.37155 21.3401C3.21035 20.1411 3.2085 18.5606 3.2085 16.336H1.4585ZM16.3335 26.5443C18.5086 26.5443 20.2281 26.5462 21.5707 26.3657C22.9385 26.1817 24.0456 25.7943 24.9188 24.9213L23.6813 23.6838C23.1875 24.1775 22.5112 24.4735 21.3376 24.6312C20.1386 24.7925 18.5581 24.7943 16.3335 24.7943V26.5443ZM24.7918 16.336C24.7918 18.5606 24.79 20.1411 24.6287 21.3401C24.471 22.5137 24.175 23.19 23.6813 23.6838L24.9188 24.9213C25.7918 24.0481 26.1792 22.941 26.3632 21.5732C26.5437 20.2306 26.5418 18.5111 26.5418 16.336H24.7918ZM3.2085 11.6693C3.2085 9.44471 3.21035 7.86426 3.37155 6.66532C3.52935 5.49155 3.8253 4.81529 4.31905 4.32155L3.08161 3.08411C2.20852 3.95721 1.82105 5.0643 1.63715 6.43214C1.45664 7.77479 1.4585 9.49417 1.4585 11.6693H3.2085ZM11.7016 1.461C9.51477 1.461 7.78699 1.45915 6.43884 1.63958C5.0662 1.82329 3.95538 2.21035 3.08161 3.08411L4.31905 4.32155C4.81212 3.82849 5.49045 3.53212 6.67099 3.37412C7.87604 3.21284 9.46546 3.211 11.7016 3.211V1.461Z" fill="#FF4F4F"/>
<path id="Vector_2" d="M15.1665 2.91406V5.83073C15.1665 8.58058 15.1665 9.95551 16.0207 10.8098C16.8751 11.6641 18.25 11.6641 20.9998 11.6641H25.6665" stroke="#FF4F4F" stroke-width="2"/>
<path id="Vector_3" d="M9.91683 21.5833V15.75M9.91683 15.75L7.5835 17.9375M9.91683 15.75L12.2502 17.9375" stroke="#FF4F4F" stroke-width="2" stroke-linecap="round" stroke-linejoin="round"/>
</g>
</svg>
