<svg width="28" height="28" viewBox="0 0 28 28" fill="none" xmlns="http://www.w3.org/2000/svg">
<g id="upload-svgrepo-com 1">
<path id="Vector" d="M19.8335 10.5C22.371 10.5141 23.7452 10.6267 24.6417 11.5231C25.6668 12.5483 25.6668 14.1982 25.6668 17.498V18.6646C25.6668 21.9644 25.6668 23.6144 24.6417 24.6395C23.6165 25.6646 21.9666 25.6646 18.6668 25.6646H9.3335C6.03366 25.6646 4.38375 25.6646 3.35862 24.6395C2.3335 23.6144 2.3335 21.9644 2.3335 18.6646V17.498C2.3335 14.1982 2.3335 12.5483 3.35862 11.5231C4.25507 10.6267 5.62929 10.5141 8.16683 10.5" stroke="#FF4F4F" stroke-width="2.5" stroke-linecap="round"/>
<path id="Vector_2" d="M14 17.5026V2.33594M14 2.33594L17.5 6.41927M14 2.33594L10.5 6.41927" stroke="#FF4F4F" stroke-width="2.5" stroke-linecap="round" stroke-linejoin="round"/>
</g>
</svg>
