<svg width="28" height="28" viewBox="0 0 28 28" fill="none" xmlns="http://www.w3.org/2000/svg">
<g id="Icon">
<path id="Vector" fill-rule="evenodd" clip-rule="evenodd" d="M12.8824 2H15.2841C17.3732 1.99998 19.0279 1.99997 20.3228 2.17408C21.6556 2.35326 22.7343 2.73079 23.5851 3.58148C24.4357 4.43219 24.8132 5.5109 24.9925 6.84365C25.1665 8.13864 25.1665 9.79333 25.1665 11.8824V16.5576C25.1665 18.6467 25.1665 20.3014 24.9925 21.5963C24.8132 22.9291 24.4357 24.0078 23.5851 24.8586C22.7343 25.7092 21.6556 26.0867 20.3228 26.266C19.0279 26.44 17.3732 26.44 15.2841 26.44H12.8824C10.7933 26.44 9.13864 26.44 7.84365 26.266C6.5109 26.0867 5.43219 25.7092 4.58148 24.8586C3.73079 24.0078 3.35326 22.9291 3.17408 21.5963C2.99997 20.3014 2.99998 18.6467 3 16.5576V11.8824C2.99998 9.79331 2.99997 8.13864 3.17408 6.84365C3.35326 5.5109 3.73079 4.43219 4.58148 3.58148C5.43219 2.73079 6.5109 2.35326 7.84365 2.17408C9.13864 1.99997 10.7933 1.99998 12.8824 2ZM8.07085 3.86399C6.92718 4.01774 6.26827 4.3061 5.78718 4.78718C5.3061 5.26827 5.01774 5.92718 4.86399 7.07085C4.70692 8.23903 4.70512 9.77895 4.70512 11.9465V16.4935C4.70512 18.661 4.70692 20.201 4.86399 21.3692C5.01774 22.5128 5.3061 23.1717 5.78718 23.6528C6.26827 24.1339 6.92718 24.4223 8.07085 24.576C9.23903 24.7331 10.7789 24.7349 12.9465 24.7349H15.22C17.3875 24.7349 18.9275 24.7331 20.0957 24.576C21.2393 24.4223 21.8983 24.1339 22.3793 23.6528C22.8604 23.1717 23.1488 22.5128 23.3025 21.3692C23.4596 20.201 23.4614 18.661 23.4614 16.4935V11.9465C23.4614 9.77895 23.4596 8.23903 23.3025 7.07085C23.1488 5.92718 22.8604 5.26827 22.3793 4.78718C21.8983 4.3061 21.2393 4.01774 20.0957 3.86399C18.9275 3.70692 17.3875 3.70512 15.22 3.70512H12.9465C10.7789 3.70512 9.23903 3.70692 8.07085 3.86399ZM8.68372 11.9465C8.68372 11.4757 9.06543 11.094 9.53628 11.094H18.6302C19.1011 11.094 19.4828 11.4757 19.4828 11.9465C19.4828 12.4174 19.1011 12.7991 18.6302 12.7991H9.53628C9.06543 12.7991 8.68372 12.4174 8.68372 11.9465ZM8.68372 16.4935C8.68372 16.0226 9.06543 15.6409 9.53628 15.6409H15.22C15.6908 15.6409 16.0726 16.0226 16.0726 16.4935C16.0726 16.9643 15.6908 17.346 15.22 17.346H9.53628C9.06543 17.346 8.68372 16.9643 8.68372 16.4935Z" fill="#FF4F4F"/>
</g>
</svg>
