<svg xmlns="http://www.w3.org/2000/svg" width="65" height="65" viewBox="0 0 65 65" fill="none">
  <path fill-rule="evenodd" clip-rule="evenodd" d="M29.6389 3.38281H35.3611C40.3385 3.38276 44.2807 3.38273 47.366 3.79757C50.5413 4.22446 53.1115 5.12395 55.1384 7.15076C55.9314 7.94403 55.9314 9.23013 55.1384 10.0234C54.3451 10.8166 53.059 10.8166 52.2657 10.0234C51.1195 8.87718 49.5495 8.19016 46.8249 7.82383C44.0416 7.44962 40.3726 7.44531 35.2083 7.44531H29.7917C24.6274 7.44531 20.9585 7.44962 18.1752 7.82383C15.4504 8.19016 13.8805 8.87718 12.7343 10.0234C11.5881 11.1696 10.9011 12.7395 10.5348 15.4643C10.1606 18.2475 10.1563 21.9164 10.1563 27.0807V37.9141C10.1563 43.0783 10.1606 46.7473 10.5348 49.5306C10.9011 52.2552 11.5881 53.8253 12.7343 54.9714C13.8805 56.1176 15.4504 56.8047 18.1752 57.1709C20.9585 57.5452 24.6274 57.5495 29.7917 57.5495H35.2083C40.3726 57.5495 44.0416 57.5452 46.8249 57.1709C49.5495 56.8047 51.1195 56.1176 52.2657 54.9714C54.1504 53.0867 54.7213 50.1579 54.8205 43.3015C54.8367 42.1797 55.7592 41.2835 56.881 41.2998C58.0025 41.316 58.8987 42.2385 58.8824 43.36C58.7873 49.9345 58.3619 54.6204 55.1384 57.8442C53.1115 59.8708 50.5413 60.7702 47.366 61.1973C44.2807 61.612 40.3385 61.612 35.3611 61.612H29.6389C24.6616 61.612 20.7193 61.612 17.6339 61.1973C14.4586 60.7702 11.8885 59.8708 9.86169 57.8442C7.83488 55.8172 6.93539 53.247 6.50851 50.0718C6.09367 46.9864 6.0937 43.0442 6.09375 38.0668V26.9279C6.0937 21.9507 6.09367 18.0083 6.50851 14.923C6.93539 11.7477 7.83488 9.17759 9.86169 7.15076C11.8885 5.12395 14.4586 4.22446 17.6339 3.79757C20.7193 3.38273 24.6616 3.38276 29.6389 3.38281ZM49.0563 19.0791C51.9293 16.2063 56.5871 16.2063 59.4598 19.0791C62.3328 21.952 62.3328 26.6098 59.4598 29.4828L46.5809 42.3617C45.8802 43.0626 45.4063 43.5366 44.8752 43.9507C44.2506 44.4379 43.5749 44.8555 42.8599 45.1965C42.2519 45.486 41.616 45.6981 40.6756 46.0112L35.0326 47.8924C33.7867 48.3076 32.4131 47.9834 31.4844 47.0547C30.5557 46.126 30.2315 44.7523 30.6467 43.5065L32.49 37.9769C32.5027 37.9387 32.5152 37.9008 32.5276 37.8634C32.841 36.9234 33.053 36.2872 33.3426 35.6791C33.6835 34.9641 34.1012 34.2884 34.5884 33.6639C35.0025 33.1328 35.4765 32.6588 36.1774 31.9582C36.2053 31.9303 36.2334 31.9021 36.2621 31.8734L49.0563 19.0791ZM56.5874 21.9517C55.3009 20.6654 53.2155 20.6654 51.929 21.9517L51.4367 22.4441C51.4635 22.5348 51.4941 22.6312 51.5293 22.7326C51.7839 23.4669 52.2676 24.4381 53.1841 25.3549C54.1008 26.2716 55.0721 26.7551 55.8066 27.0098C55.9078 27.045 56.0043 27.0756 56.095 27.1024L56.5874 26.61C57.8736 25.3237 57.8736 23.2381 56.5874 21.9517ZM52.9923 30.2051C52.1314 29.7528 51.2018 29.1177 50.3116 28.2274C49.4214 27.3372 48.7863 26.4076 48.334 25.5466L39.1346 34.7461C38.3194 35.5616 38.0331 35.8525 37.7915 36.1623C37.486 36.5542 37.2239 36.9783 37.0099 37.4271C36.8409 37.7816 36.7085 38.1676 36.3439 39.2617L35.2598 42.5142L36.0249 43.2793L39.2773 42.1951C40.3715 41.8306 40.7574 41.6981 41.112 41.5291C41.5607 41.3152 41.9849 41.053 42.3767 40.7475C42.6866 40.5059 42.9775 40.2197 43.7929 39.4045L52.9923 30.2051ZM19.6354 24.3724C19.6354 23.2506 20.5448 22.3411 21.6667 22.3411H39.2708C40.3926 22.3411 41.3021 23.2506 41.3021 24.3724C41.3021 25.4942 40.3926 26.4036 39.2708 26.4036H21.6667C20.5448 26.4036 19.6354 25.4942 19.6354 24.3724ZM19.6354 35.2057C19.6354 34.0839 20.5448 33.1745 21.6667 33.1745H28.4375C29.5593 33.1745 30.4687 34.0839 30.4687 35.2057C30.4687 36.3275 29.5593 37.237 28.4375 37.237H21.6667C20.5448 37.237 19.6354 36.3275 19.6354 35.2057ZM19.6354 46.0391C19.6354 44.9173 20.5448 44.0078 21.6667 44.0078H25.7292C26.851 44.0078 27.7604 44.9173 27.7604 46.0391C27.7604 47.1609 26.851 48.0703 25.7292 48.0703H21.6667C20.5448 48.0703 19.6354 47.1609 19.6354 46.0391Z" fill="#FF4F4F"/>
</svg>