<svg width="20" height="20" viewBox="0 0 20 20" fill="none" xmlns="http://www.w3.org/2000/svg">
<g id="confetti-svgrepo-com 1">
<path id="Vector" fill-rule="evenodd" clip-rule="evenodd" d="M12.7083 2.74778C12.5386 2.57812 12.3252 2.58558 12.2081 2.60111C12.0974 2.61579 11.9649 2.65352 11.8386 2.68946L11.7413 2.7171L11.6622 2.6672C11.5553 2.59963 11.4403 2.52704 11.3381 2.4826C11.2228 2.43249 11.0282 2.37547 10.8236 2.48294C10.6231 2.58837 10.557 2.7771 10.5297 2.8972C10.5049 3.00648 10.4942 3.14314 10.4842 3.2731L10.4765 3.37153L10.4759 3.37972L10.3897 3.45063C10.2868 3.5353 10.18 3.62316 10.1043 3.70596C10.024 3.79368 9.90034 3.95847 9.93176 4.18794C9.96426 4.42525 10.1361 4.54829 10.2435 4.60785C10.3408 4.66178 10.4687 4.709 10.588 4.753L10.672 4.78405L10.7031 4.86809C10.7471 4.98737 10.7943 5.11536 10.8483 5.2126C10.9078 5.31999 11.0309 5.49183 11.2682 5.52432C11.4976 5.55574 11.6624 5.43204 11.7501 5.35181C11.833 5.27608 11.9208 5.16929 12.0054 5.06638L12.0764 4.98025L12.0845 4.9796L12.183 4.97192C12.313 4.96182 12.4496 4.95121 12.5589 4.92636C12.679 4.89906 12.8677 4.83304 12.9731 4.63246C13.0807 4.42796 13.0236 4.23333 12.9735 4.11801C12.929 4.01579 12.8565 3.90087 12.7889 3.7939L12.739 3.71479L12.7666 3.61752C12.8026 3.49122 12.8403 3.35864 12.855 3.24798C12.8705 3.13089 12.878 2.91744 12.7083 2.74778ZM12.0139 3.4422L11.9537 3.4593L11.9378 3.46396C11.8796 3.48126 11.7583 3.51731 11.6319 3.5C11.5025 3.48228 11.3955 3.41278 11.3458 3.38059L11.3326 3.37205L11.2547 3.32287L11.2462 3.43161L11.245 3.44823C11.2409 3.50944 11.2326 3.63293 11.1737 3.74512C11.1155 3.85581 11.0195 3.93311 10.971 3.9722L10.9577 3.98299L10.8876 4.04069L10.9474 4.06279L10.9621 4.06807C11.0175 4.08766 11.1396 4.13091 11.2324 4.2237C11.3252 4.31649 11.3684 4.43862 11.3881 4.49392L11.3933 4.50866L11.4154 4.56848L11.4731 4.49839L11.4839 4.48508C11.523 4.43656 11.6003 4.34064 11.711 4.28245C11.8232 4.22349 11.9467 4.21522 12.0079 4.21112L12.0245 4.20994L12.1333 4.20145L12.084 4.12349L12.0755 4.11024C12.0433 4.06063 11.9738 3.95354 11.9561 3.82419C11.9388 3.69776 11.9748 3.57647 11.9921 3.51827L11.9968 3.50238L12.0139 3.4422Z" fill="#EA4C36"/>
<path id="Vector_2" d="M8.72002 3.33616C8.88685 3.06333 8.80085 2.70695 8.52803 2.54016C8.25522 2.37337 7.89884 2.45933 7.73205 2.73216C7.332 3.38655 7.43226 4.22981 7.97461 4.77215L8.05017 4.84772C8.20277 5.00031 8.25903 5.22448 8.19659 5.43106C8.10407 5.73715 8.2772 6.06029 8.5833 6.15282C8.8894 6.24535 9.21256 6.07221 9.30504 5.76612C9.49101 5.15093 9.32341 4.48334 8.86902 4.02889L8.79344 3.95333C8.62939 3.78925 8.59905 3.53414 8.72002 3.33616Z" fill="#EA4C36"/>
<path id="Vector_3" d="M6.59849 3.9416C6.43678 3.77988 6.17459 3.77988 6.01288 3.9416C5.85117 4.10331 5.85117 4.36548 6.01288 4.52719C6.17459 4.6889 6.43678 4.6889 6.59849 4.52719C6.76019 4.36548 6.76019 4.10331 6.59849 3.9416Z" fill="#EA4C36"/>
<path id="Vector_4" d="M14.7733 5.21805C14.836 4.90449 14.6326 4.59946 14.319 4.53675C14.0054 4.47404 13.7004 4.67739 13.6377 4.99095L13.5266 5.54674C13.4551 5.90416 13.1975 6.19587 12.8518 6.31114C12.1117 6.55782 11.5606 7.1821 11.4077 7.94701L11.2965 8.50279C11.2338 8.81632 11.4372 9.12141 11.7507 9.1841C12.0643 9.24679 12.3693 9.04344 12.432 8.72986L12.5432 8.1741C12.6146 7.81669 12.8721 7.52497 13.2179 7.40971C13.958 7.16303 14.5091 6.53875 14.6621 5.77384L14.7733 5.21805Z" fill="#EA4C36"/>
<path id="Vector_5" fill-rule="evenodd" clip-rule="evenodd" d="M18.0512 7.71519C18.2488 8.14281 18.1155 8.62828 17.7549 8.98888C17.5457 9.19801 17.2655 9.29274 17.0159 9.33713C16.7606 9.38252 16.4907 9.38345 16.2543 9.36824C16.0156 9.35303 15.7967 9.32037 15.6384 9.29196C15.5589 9.2776 15.4936 9.26425 15.4476 9.25421L15.4119 9.24626L15.3934 9.24202L15.3782 9.23839L15.3737 9.23731L15.3723 9.237C15.3723 9.237 15.3714 9.23677 15.4641 8.86212L15.3714 9.23677C15.2325 9.20233 15.1238 9.09364 15.0894 8.95468L15.0889 8.95252L15.0879 8.94804L15.0842 8.93283C15.0812 8.91994 15.0771 8.90164 15.072 8.87864C15.0621 8.83263 15.0486 8.76739 15.0344 8.68788C15.0059 8.52957 14.9733 8.31066 14.958 8.07192C14.9429 7.8355 14.9437 7.56563 14.9891 7.31033C15.0335 7.06077 15.1282 6.78053 15.3374 6.57141C15.698 6.21079 16.1835 6.07749 16.6111 6.27501C16.9354 6.42483 17.1464 6.72806 17.2259 7.10038C17.5982 7.17984 17.9014 7.39082 18.0512 7.71519ZM15.7912 8.53501C15.9287 8.55924 16.1104 8.58549 16.3037 8.59785C16.5069 8.61091 16.7092 8.60756 16.8807 8.57706C17.058 8.54553 17.1594 8.49262 17.2089 8.44301C17.3964 8.25561 17.382 8.10741 17.3504 8.03891C17.316 7.9645 17.1928 7.83602 16.8764 7.83686C16.7737 7.83714 16.6751 7.79645 16.6024 7.72381C16.5298 7.65116 16.4891 7.55256 16.4894 7.44983C16.4903 7.13346 16.3617 7.01022 16.2873 6.97585C16.2188 6.94422 16.0706 6.92989 15.8833 7.1173C15.8336 7.1669 15.7807 7.26823 15.7492 7.4455C15.7187 7.61704 15.7154 7.81927 15.7284 8.0226C15.7407 8.21587 15.767 8.39757 15.7912 8.53501Z" fill="#EA4C36"/>
<path id="Vector_6" d="M16.3594 11.5014C16.5874 11.2992 16.9121 11.2479 17.1914 11.37L17.4164 11.4684C17.7094 11.5965 18.0507 11.4628 18.1789 11.1699C18.307 10.8769 18.1733 10.5355 17.8804 10.4074L17.6553 10.309C16.9625 10.0061 16.1568 10.1333 15.5911 10.635C15.3393 10.8583 14.9729 10.8954 14.6814 10.7271L14.5171 10.6322C14.2401 10.4724 13.886 10.5672 13.7261 10.8442C13.5662 11.1211 13.6611 11.4752 13.9381 11.6351L14.1024 11.7299C14.8255 12.1474 15.7347 12.0554 16.3594 11.5014Z" fill="#EA4C36"/>
<path id="Vector_7" d="M15.3771 12.7091C15.5388 12.5475 15.801 12.5475 15.9627 12.7091C16.1245 12.8709 16.1245 13.133 15.9627 13.2948C15.801 13.4565 15.5388 13.4565 15.3771 13.2948C15.2154 13.133 15.2154 12.8709 15.3771 12.7091Z" fill="#EA4C36"/>
<path id="Vector_8" d="M10.6346 6.4123C10.4729 6.25059 10.2107 6.25059 10.049 6.4123C9.88732 6.57401 9.88732 6.83619 10.049 6.9979C10.2107 7.15961 10.4729 7.15961 10.6346 6.9979C10.7963 6.83619 10.7963 6.57401 10.6346 6.4123Z" fill="#EA4C36"/>
<path id="Vector_9" d="M13.9103 8.72871C14.072 8.56699 14.3342 8.56699 14.4959 8.72871C14.6576 8.89044 14.6576 9.15261 14.4959 9.31427C14.3342 9.476 14.072 9.476 13.9103 9.31427C13.7486 9.15261 13.7486 8.89044 13.9103 8.72871Z" fill="#EA4C36"/>
<path id="Vector_10" fill-rule="evenodd" clip-rule="evenodd" d="M8.10599 6.20342C8.55864 6.53902 9.07943 7.05983 9.71139 7.69185L12.3884 10.3689C13.0205 11.0009 13.5413 11.5217 13.8768 11.9743C14.2235 12.442 14.4679 12.9617 14.3266 13.5602C14.1853 14.1587 13.7343 14.5143 13.2151 14.7776C12.7125 15.0323 12.0138 15.2652 11.1659 15.5478L7.159 16.8834C6.13234 17.2256 5.29922 17.5034 4.6532 17.6184C4.00132 17.7343 3.33983 17.7226 2.84876 17.2315C2.35769 16.7404 2.346 16.0789 2.46196 15.427C2.57689 14.781 2.85462 13.9479 3.19688 12.9212L4.53247 8.91441C4.81509 8.06648 5.04796 7.36777 5.30274 6.86518C5.56596 6.34592 5.92155 5.89496 6.52008 5.75366C7.11861 5.61237 7.63834 5.8567 8.10599 6.20342ZM7.41631 7.13364C7.40282 7.12363 7.3896 7.11399 7.37666 7.10469C7.36777 7.15276 7.35832 7.20442 7.34841 7.25942C7.2828 7.62351 7.19683 8.13264 7.11554 8.71192C6.95139 9.8818 6.81257 11.296 6.88364 12.3797C6.92666 13.0359 7.06717 13.8846 7.2013 14.5849C7.26773 14.9317 7.3314 15.236 7.37844 15.4535C7.38849 15.4999 7.39777 15.5424 7.40615 15.5804L9.44011 14.9024C9.38669 14.7438 9.32261 14.5394 9.25861 14.3016C9.10498 13.7304 8.94611 12.9449 8.94611 12.125C8.94611 11.264 9.10429 10.4786 9.25938 9.91345C9.33728 9.62936 9.41548 9.39714 9.475 9.2341C9.48882 9.19612 9.50171 9.16184 9.51337 9.13142L8.92681 8.54491C8.25194 7.87004 7.79159 7.41187 7.41631 7.13364ZM5.61572 9.32658C5.77704 8.84262 5.91124 8.4414 6.03347 8.10915C6.01188 8.25084 5.99018 8.39855 5.96878 8.55103C5.8027 9.73466 5.64887 11.247 5.72812 12.4555C5.77608 13.1868 5.92821 14.0939 6.06399 14.8027C6.13251 15.1605 6.19811 15.474 6.24662 15.6983C6.26903 15.8019 6.28783 15.8866 6.30162 15.948C5.49811 16.2133 4.90617 16.3971 4.45038 16.4782C3.89395 16.5772 3.73998 16.4851 3.66758 16.4127C3.59519 16.3403 3.50306 16.1863 3.60205 15.6299C3.70029 15.0776 3.94939 14.3256 4.31144 13.2394L5.61572 9.32658ZM10.7537 14.4645L10.5387 14.5362C10.4916 14.3968 10.4343 14.2143 10.3768 14.0008C10.3352 13.8462 10.2942 13.6773 10.257 13.4982C10.1698 13.0783 10.1041 12.6025 10.1041 12.125C10.1041 11.3992 10.2385 10.7213 10.3761 10.2199C10.3929 10.1584 10.4098 10.0999 10.4263 10.0445L11.5354 11.1535C12.2103 11.8283 12.6684 12.2887 12.9467 12.664C13.2198 13.0324 13.2234 13.193 13.1996 13.2942C13.1757 13.3952 13.1006 13.5373 12.6915 13.7446C12.2748 13.9559 11.6591 14.1628 10.7537 14.4645Z" fill="#EA4C36"/>
</g>
</svg>
