<svg width="29" height="29" viewBox="0 0 29 29" fill="none" xmlns="http://www.w3.org/2000/svg">
<g id="document-copy-svgrepo-com 1">
<path id="Vector" d="M20.2175 15.9365V19.5043C20.2175 24.2614 18.3146 26.1642 13.5576 26.1642H9.03833C4.28125 26.1642 2.37842 24.2614 2.37842 19.5043V14.9851C2.37842 10.228 4.28125 8.3252 9.03833 8.3252H12.6061" stroke="#FF4F4F" stroke-width="1.7839" stroke-linecap="round" stroke-linejoin="round"/>
<path id="Vector_2" d="M20.2178 15.9365H16.4121C13.5579 15.9365 12.6064 14.9851 12.6064 12.1309V8.3252L20.2178 15.9365Z" stroke="#FF4F4F" stroke-width="1.7839" stroke-linecap="round" stroke-linejoin="round"/>
<path id="Vector_3" d="M13.7954 2.37891H18.5525" stroke="#FF4F4F" stroke-width="1.7839" stroke-linecap="round" stroke-linejoin="round"/>
<path id="Vector_4" d="M8.32471 5.94672C8.32471 3.97253 9.91833 2.37891 11.8925 2.37891H15.0084" stroke="#FF4F4F" stroke-width="1.7839" stroke-linecap="round" stroke-linejoin="round"/>
<path id="Vector_5" d="M26.1636 9.51465V16.8762C26.1636 18.7196 24.6651 20.2181 22.8218 20.2181" stroke="#FF4F4F" stroke-width="1.7839" stroke-linecap="round" stroke-linejoin="round"/>
<path id="Vector_6" d="M26.1639 9.51453H22.5961C19.9203 9.51453 19.0283 8.62257 19.0283 5.94672V2.37891L26.1639 9.51453Z" stroke="#FF4F4F" stroke-width="1.7839" stroke-linecap="round" stroke-linejoin="round"/>
</g>
</svg>
