<svg width="24" height="24" viewBox="0 0 24 24" fill="none" xmlns="http://www.w3.org/2000/svg">
<g clip-path="url(#clip0_12381_37011)">
<path d="M12.87 2.39941C10.8244 2.39941 9.19877 3.14754 8.31002 4.51441C8.14689 4.76379 8.02314 5.03191 7.92002 5.30941L7.81502 5.06941C7.73439 4.90254 7.56564 4.79754 7.38002 4.79941C5.70752 4.79941 4.46064 5.47254 3.81002 6.47941C3.21564 7.39629 3.18564 8.55504 3.55502 9.62941C3.39564 9.84879 3.28502 10.115 3.33002 10.4994C3.38064 10.9325 3.49502 11.2532 3.67502 11.4894C3.75189 11.5907 3.86252 11.5907 3.96002 11.6544C4.02377 12.0107 4.11564 12.365 4.26002 12.6594C4.34627 12.8357 4.44752 12.9875 4.54502 13.1244C4.57689 13.1694 4.63127 13.2032 4.66502 13.2444C4.66689 13.6232 4.66502 13.9475 4.63502 14.3394C4.54689 14.5625 4.34064 14.7669 3.94502 14.9694C3.54002 15.1775 2.98877 15.3669 2.43002 15.6144C1.87127 15.8619 1.29377 16.16 0.825018 16.6494C0.356268 17.1388 0.0206429 17.8175 -0.0299821 18.6894C-0.0374821 18.8225 0.0093929 18.9519 0.0993928 19.0475C0.191268 19.145 0.316893 19.1994 0.450018 19.1994H3.46502C3.38627 19.4825 3.33564 19.79 3.31502 20.1294C3.30752 20.2607 3.36002 20.3938 3.45002 20.4894C3.54002 20.585 3.66377 20.6394 3.79502 20.6394H20.205C20.3363 20.6394 20.46 20.585 20.55 20.4894C20.6419 20.3938 20.6925 20.2607 20.685 20.1294C20.6644 19.79 20.6138 19.4825 20.535 19.1994H23.52C23.6531 19.1994 23.7788 19.145 23.8706 19.0475C23.9606 18.9519 24.0075 18.8225 24 18.6894C23.9494 17.8213 23.61 17.15 23.145 16.6644C22.68 16.1788 22.11 15.875 21.555 15.6294C21 15.3838 20.4563 15.1907 20.055 14.9844C19.6725 14.7875 19.4719 14.585 19.38 14.3694C19.35 13.9738 19.3481 13.6438 19.35 13.2594C19.38 13.22 19.44 13.1957 19.47 13.1544C19.5656 13.0175 19.6575 12.8657 19.74 12.6894C19.875 12.4044 19.9613 12.0557 20.025 11.7144C20.1263 11.6507 20.2444 11.6394 20.325 11.5344C20.505 11.2982 20.6044 10.9757 20.655 10.5444C20.6869 10.2744 20.6681 10.0363 20.58 9.82441C20.5556 9.76816 20.4788 9.74191 20.445 9.68941C20.5444 9.45129 20.6569 9.23191 20.685 8.93941C20.7281 8.49504 20.7056 7.98691 20.58 7.49941C20.4544 7.01191 20.2275 6.53941 19.845 6.16441C19.5375 5.86254 19.1044 5.68254 18.615 5.60941L18.375 5.08441C18.2981 4.91191 18.1275 4.80129 17.94 4.79941C17.2781 4.79941 16.6069 4.87816 15.975 5.06941C15.9544 5.02066 15.9375 4.96816 15.915 4.91941C15.4388 3.94441 14.6231 3.37816 13.605 3.28441L13.29 2.66941C13.2075 2.50629 13.0519 2.39941 12.87 2.39941ZM17.655 5.80441L17.82 6.20941C17.8988 6.38566 18.0769 6.49816 18.27 6.49441C18.6919 6.49441 18.9506 6.62379 19.17 6.83941C19.3894 7.05504 19.5563 7.37566 19.65 7.73941C19.7438 8.10316 19.7719 8.50066 19.74 8.83441C19.7081 9.16816 19.5881 9.43816 19.545 9.49441C19.4569 9.60504 19.4231 9.75129 19.4513 9.89004C19.4813 10.0288 19.5694 10.1469 19.695 10.2144C19.7063 10.2463 19.725 10.3157 19.71 10.4394C19.6725 10.7544 19.5975 10.9007 19.56 10.9494C19.545 10.9682 19.5319 10.9625 19.53 10.9644C19.3219 11.0038 19.1625 11.1744 19.14 11.3844C19.1119 11.6544 18.9975 12.0013 18.87 12.2694C18.8063 12.4025 18.7444 12.5225 18.69 12.5994C18.6356 12.6763 18.57 12.7138 18.645 12.6744C18.4894 12.7569 18.3919 12.9182 18.39 13.0944C18.39 13.58 18.3694 13.9757 18.42 14.5494C18.4256 14.5907 18.435 14.63 18.45 14.6694C18.6544 15.2357 19.1288 15.5863 19.62 15.8394C20.1113 16.0925 20.6588 16.2744 21.165 16.4994C21.6713 16.7244 22.1269 16.9832 22.455 17.3244C22.6838 17.5625 22.8375 17.87 22.935 18.2394H20.16C20.145 18.2394 20.13 18.2394 20.115 18.2394C19.3425 16.9907 17.9306 16.4244 16.725 15.9444C15.7275 15.5469 14.8706 15.2019 14.61 14.6094C14.5688 14.12 14.5613 13.7432 14.565 13.3044V13.1094C14.955 12.7007 15.3469 11.8719 15.495 11.1144C15.8138 10.9438 16.1906 10.5425 16.305 9.58441C16.3594 9.12691 16.26 8.76316 16.095 8.51941C16.365 7.88379 16.4475 6.91816 16.26 5.98441C16.6894 5.86816 17.175 5.82504 17.655 5.80441ZM7.11002 5.81941L7.27502 6.16441C7.34814 6.31629 7.49627 6.41941 7.66502 6.43441C7.60314 7.11691 7.69502 7.81629 7.95002 8.50441C7.77189 8.75191 7.64064 9.12504 7.69502 9.58441C7.80939 10.5444 8.18627 10.9457 8.50502 11.1144C8.65689 11.8607 9.05439 12.6988 9.45002 13.1094V13.2894C9.45377 13.73 9.46127 14.1182 9.42002 14.6094C9.15939 15.2019 8.29127 15.5469 7.29002 15.9444C6.08064 16.4244 4.66127 16.9907 3.88502 18.2394C3.87002 18.2394 3.85502 18.2394 3.84002 18.2394H1.03502C1.13439 17.8682 1.28439 17.5494 1.51502 17.3094C1.84502 16.9663 2.30814 16.7094 2.82002 16.4844C3.33189 16.2594 3.88502 16.0775 4.38002 15.8244C4.87502 15.5713 5.35877 15.2225 5.56502 14.6544C5.57439 14.615 5.58002 14.5757 5.58002 14.5344C5.63064 13.9569 5.62502 13.5519 5.62502 13.0644C5.62689 12.8919 5.53502 12.7307 5.38502 12.6444C5.40189 12.6575 5.40564 12.6632 5.37002 12.6444C5.35127 12.6294 5.33439 12.605 5.31002 12.5694C5.25377 12.4925 5.19564 12.3744 5.13002 12.2394C4.99877 11.9694 4.88814 11.6225 4.86002 11.3544C4.84127 11.1275 4.66502 10.9475 4.44002 10.9194C4.43627 10.9175 4.43064 10.9213 4.42502 10.9194C4.42127 10.9157 4.43064 10.91 4.42502 10.9044C4.38564 10.8538 4.31252 10.7113 4.27502 10.3944C4.25814 10.2519 4.28627 10.1807 4.30502 10.1544C4.32377 10.1432 4.32189 10.1375 4.32002 10.1394C4.51314 10.0138 4.58814 9.76816 4.50002 9.55441C4.10814 8.65816 4.15877 7.71879 4.62002 7.00441C5.04564 6.34629 5.87627 5.89441 7.11002 5.81941Z" fill="black"/>
</g>
<defs>
<clipPath id="clip0_12381_37011">
<rect width="24" height="24" fill="white"/>
</clipPath>
</defs>
</svg>
