<svg width="20" height="20" viewBox="0 0 35 27" fill="none" xmlns="http://www.w3.org/2000/svg">
<g id="3 User">
<path id="Stroke 1" d="M26.7087 12.2599C28.8714 11.956 30.5364 10.1019 30.541 7.85555C30.541 5.64177 28.9272 3.80625 26.8111 3.45898" stroke="black" stroke-width="2.32541" stroke-linecap="round" stroke-linejoin="round"/>
<path id="Stroke 3" d="M29.5625 17.457C31.6569 17.7702 33.1188 18.5035 33.1188 20.015C33.1188 21.0552 32.4305 21.7311 31.3174 22.1559" stroke="black" stroke-width="2.32541" stroke-linecap="round" stroke-linejoin="round"/>
<path id="Stroke 5" fill-rule="evenodd" clip-rule="evenodd" d="M17.4055 18.0996C12.423 18.0996 8.16748 18.8546 8.16748 21.8699C8.16748 24.8836 12.3966 25.6603 17.4055 25.6603C22.3881 25.6603 26.6421 24.9131 26.6421 21.8962C26.6421 18.8794 22.4145 18.0996 17.4055 18.0996Z" stroke="black" stroke-width="2.32541" stroke-linecap="round" stroke-linejoin="round"/>
<path id="Stroke 7" fill-rule="evenodd" clip-rule="evenodd" d="M17.4059 13.7961C20.6754 13.7961 23.3264 11.1466 23.3264 7.87556C23.3264 4.60604 20.6754 1.95508 17.4059 1.95508C14.1364 1.95508 11.4854 4.60604 11.4854 7.87556C11.473 11.1342 14.1038 13.7852 17.3625 13.7961H17.4059Z" stroke="black" stroke-width="2.32541" stroke-linecap="round" stroke-linejoin="round"/>
<path id="Stroke 9" d="M8.10107 12.2599C5.93689 11.956 4.27345 10.1019 4.2688 7.85555C4.2688 5.64177 5.88263 3.80625 7.99875 3.45898" stroke="black" stroke-width="2.32541" stroke-linecap="round" stroke-linejoin="round"/>
<path id="Stroke 11" d="M5.24724 17.457C3.15282 17.7702 1.69092 18.5035 1.69092 20.015C1.69092 21.0552 2.37924 21.7311 3.49233 22.1559" stroke="black" stroke-width="2.32541" stroke-linecap="round" stroke-linejoin="round"/>
</g>
</svg>
