<svg width="19" height="20" viewBox="0 0 19 20" fill="none" xmlns="http://www.w3.org/2000/svg">
<g id="point-on-map-svgrepo-com 1">
<path id="Vector" fill-rule="evenodd" clip-rule="evenodd" d="M3.85993 6.64563C3.85993 3.86786 6.22129 1.66602 9.07091 1.66602C11.8563 1.66602 14.175 3.76961 14.2783 6.45847L14.6471 6.58142C15.0047 6.70057 15.3181 6.80501 15.5666 6.92066C15.8354 7.04569 16.0817 7.20674 16.27 7.46798C16.4583 7.72923 16.5332 8.01382 16.5668 8.30832C16.5979 8.58078 16.5979 8.91104 16.5979 9.28793V13.7255C16.5979 14.196 16.5979 14.5973 16.5614 14.9193C16.523 15.258 16.4371 15.5909 16.2045 15.8748C16.0709 16.0379 15.9087 16.1753 15.7259 16.2803C15.4075 16.4631 15.0651 16.493 14.7247 16.4752C14.4011 16.4583 14.0051 16.3923 13.5411 16.3149L13.509 16.3096C12.5109 16.1433 12.1088 16.0804 11.7168 16.1132C11.5735 16.1252 11.431 16.1467 11.2904 16.1773C10.9063 16.2612 10.5368 16.4413 9.62366 16.8979C9.59193 16.9138 9.56051 16.9295 9.52947 16.945C8.46211 17.4789 7.80445 17.8078 7.09484 17.9106C6.8814 17.9415 6.666 17.9568 6.45034 17.9564C5.73332 17.9551 5.04105 17.7241 3.91811 17.3497C3.88563 17.3388 3.85279 17.3279 3.81957 17.3168L3.52346 17.2181L3.49466 17.2085C3.13714 17.0893 2.82378 16.9849 2.57518 16.8692C2.30642 16.7443 2.06011 16.5832 1.87182 16.322C1.68352 16.0607 1.60863 15.7761 1.57501 15.4816C1.54391 15.2091 1.54392 14.8789 1.54395 14.502V10.6267C1.54392 10.0199 1.5439 9.50834 1.59589 9.10767C1.65017 8.68948 1.77286 8.28056 2.10953 7.97307C2.2085 7.88268 2.31759 7.80404 2.43464 7.73874C2.83282 7.51659 3.25952 7.52949 3.67343 7.61025C3.75739 7.62664 3.84534 7.64681 3.93728 7.67025C3.88627 7.32606 3.85993 6.98293 3.85993 6.64563ZM4.24492 8.96856C3.91453 8.86202 3.66094 8.78768 3.45165 8.74684C3.1466 8.68732 3.04661 8.72337 2.99884 8.75C2.95983 8.77178 2.92346 8.79795 2.89047 8.82813C2.85009 8.86495 2.78426 8.94849 2.74426 9.25667C2.70311 9.5738 2.70194 10.0094 2.70194 10.6659V14.4717C2.70194 14.8878 2.70282 15.1513 2.72553 15.3503C2.74655 15.5344 2.78095 15.6029 2.81123 15.6449C2.84152 15.6869 2.89558 15.7411 3.06361 15.8193C3.24515 15.9038 3.49485 15.9879 3.88965 16.1196L4.18576 16.2182C5.43915 16.636 5.94501 16.7974 6.45253 16.7984C6.61193 16.7987 6.77114 16.7874 6.9289 16.7646C7.43105 16.6918 7.91361 16.4582 9.1058 15.8622C9.12997 15.8501 9.15382 15.8382 9.17744 15.8264C9.9963 15.4168 10.5006 15.1645 11.0434 15.046C11.2336 15.0045 11.4263 14.9755 11.6203 14.9592C12.1738 14.9129 12.7258 15.005 13.6214 15.1544C13.6471 15.1587 13.6731 15.163 13.6993 15.1674C14.2044 15.2515 14.535 15.3057 14.7851 15.3188C15.0259 15.3314 15.1087 15.2993 15.1492 15.2761C15.2101 15.2411 15.2642 15.1952 15.3087 15.1409C15.3384 15.1048 15.3836 15.0284 15.4108 14.7889C15.439 14.54 15.4399 14.205 15.4399 13.6929V9.31827C15.4399 8.90209 15.439 8.63861 15.4163 8.43966C15.3953 8.25554 15.3609 8.1871 15.3306 8.14508C15.3003 8.10306 15.2463 8.04878 15.0782 7.97061C14.8967 7.88616 14.647 7.802 14.2522 7.6704L14.2068 7.65526C14.0599 8.65991 13.7026 9.67416 13.1758 10.5794C12.4714 11.79 11.4407 12.8444 10.1495 13.4077C9.46416 13.7067 8.67765 13.7067 7.99235 13.4077C6.70109 12.8444 5.67041 11.79 4.966 10.5794C4.66953 10.07 4.42673 9.52594 4.24492 8.96856ZM9.07091 2.82401C6.8042 2.82401 5.01793 4.56261 5.01793 6.64563C5.01793 7.73989 5.35563 8.94656 5.96688 9.99701C6.57829 11.0478 7.44009 11.9034 8.4554 12.3463C8.84548 12.5165 9.29633 12.5165 9.68642 12.3463C10.7017 11.9034 11.5635 11.0478 12.1749 9.99701C12.7862 8.94656 13.1239 7.73989 13.1239 6.64563C13.1239 4.56261 11.3376 2.82401 9.07091 2.82401ZM9.07091 5.91199C8.53792 5.91199 8.10591 6.34403 8.10591 6.87699C8.10591 7.40994 8.53792 7.84198 9.07091 7.84198C9.60389 7.84198 10.0359 7.40994 10.0359 6.87699C10.0359 6.34403 9.60389 5.91199 9.07091 5.91199ZM6.94792 6.87699C6.94792 5.7045 7.8984 4.754 9.07091 4.754C10.2434 4.754 11.1939 5.7045 11.1939 6.87699C11.1939 8.04948 10.2434 8.99998 9.07091 8.99998C7.8984 8.99998 6.94792 8.04948 6.94792 6.87699Z" fill="#EA4C36"/>
</g>
</svg>
