<svg width="72" height="73" viewBox="0 0 72 73" fill="none" xmlns="http://www.w3.org/2000/svg">
<g id="users-group-rounded-svgrepo-com 1">
<path id="Vector" fill-rule="evenodd" clip-rule="evenodd" d="M27 4.70703C19.13 4.70703 12.75 11.087 12.75 18.957C12.75 26.8271 19.13 33.207 27 33.207C34.8702 33.207 41.25 26.8271 41.25 18.957C41.25 11.087 34.8702 4.70703 27 4.70703ZM17.25 18.957C17.25 13.5722 21.6152 9.20703 27 9.20703C32.3847 9.20703 36.75 13.5722 36.75 18.957C36.75 24.3418 32.3847 28.707 27 28.707C21.6152 28.707 17.25 24.3418 17.25 18.957Z" fill="#FF5E5E"/>
<path id="Vector_2" d="M45 7.70703C43.7574 7.70703 42.75 8.7144 42.75 9.95703C42.75 11.1997 43.7574 12.207 45 12.207C48.7278 12.207 51.75 15.2291 51.75 18.957C51.75 22.6849 48.7278 25.707 45 25.707C43.7574 25.707 42.75 26.7144 42.75 27.957C42.75 29.1997 43.7574 30.207 45 30.207C51.2133 30.207 56.25 25.1702 56.25 18.957C56.25 12.7438 51.2133 7.70703 45 7.70703Z" fill="#FF5E5E"/>
<path id="Vector_3" fill-rule="evenodd" clip-rule="evenodd" d="M11.0344 41.5182C15.2326 39.1194 20.882 37.707 27 37.707C33.1179 37.707 38.7675 39.1194 42.9657 41.5182C47.1 43.8807 50.25 47.4873 50.25 51.957C50.25 56.4267 47.1 60.0333 42.9657 62.3958C38.7675 64.7946 33.1179 66.207 27 66.207C20.882 66.207 15.2326 64.7946 11.0344 62.3958C6.9 60.0333 3.75 56.4267 3.75 51.957C3.75 47.4873 6.9 43.8807 11.0344 41.5182ZM13.2671 45.4254C9.80103 47.406 8.25 49.7991 8.25 51.957C8.25 54.1149 9.80103 56.508 13.2671 58.4886C16.6695 60.4329 21.52 61.707 27 61.707C32.4801 61.707 37.3305 60.4329 40.7328 58.4886C44.199 56.508 45.75 54.1149 45.75 51.957C45.75 49.7991 44.199 47.406 40.7328 45.4254C37.3305 43.4811 32.4801 42.207 27 42.207C21.52 42.207 16.6695 43.4811 13.2671 45.4254Z" fill="#FF5E5E"/>
<path id="Vector_4" d="M54.4821 40.7597C53.2683 40.4936 52.0683 41.2616 51.8022 42.4754C51.5361 43.6892 52.3041 44.8892 53.5179 45.1553C55.8951 45.6767 57.7947 46.5719 59.0487 47.5979C60.3042 48.6251 60.75 49.6286 60.75 50.4575C60.75 51.2096 60.3882 52.0925 59.3907 53.0192C58.386 53.9525 56.8425 54.8147 54.8514 55.4144C53.6613 55.7726 52.9872 57.0275 53.3454 58.2176C53.7039 59.4074 54.9588 60.0815 56.1486 59.7233C58.6164 58.9802 60.8229 57.8309 62.4534 56.3162C64.0911 54.7946 65.25 52.7933 65.25 50.4575C65.25 47.8631 63.8274 45.6935 61.8984 44.1152C59.9679 42.5354 57.3675 41.3924 54.4821 40.7597Z" fill="#FF5E5E"/>
</g>
</svg>
