<svg width="65" height="65" viewBox="0 0 65 65" fill="none" xmlns="http://www.w3.org/2000/svg">
<g id="user-speak-rounded-svgrepo-com 1">
<path id="Vector" d="M49.8712 4.87764C50.4418 3.92659 51.6753 3.61821 52.6264 4.18883L51.5931 5.91084C52.6264 4.18883 52.6254 4.18829 52.6264 4.18883L52.6302 4.19108L52.6342 4.19362L52.6441 4.19965L52.6698 4.2155C52.6896 4.22773 52.7143 4.24337 52.7437 4.26244C52.8026 4.30054 52.8805 4.35243 52.9748 4.41838C53.163 4.55017 53.4174 4.73894 53.7154 4.98731C54.3101 5.48288 55.0879 6.22324 55.8626 7.23015C57.4231 9.25904 58.9565 12.3567 58.9565 16.6212C58.9565 20.8857 57.4231 23.9834 55.8626 26.0123C55.0879 27.0192 54.3101 27.7595 53.7154 28.2551C53.4174 28.5036 53.163 28.6924 52.9748 28.8241C52.8805 28.89 52.8026 28.9419 52.7437 28.9799C52.7143 28.9989 52.6896 29.0147 52.6698 29.0271L52.6441 29.0429L52.6342 29.0488L52.6302 29.0514C52.6291 29.052 52.6264 29.0536 51.5931 27.3316L52.6264 29.0536C51.6753 29.6242 50.4418 29.3157 49.8712 28.3649C49.303 27.4178 49.6064 26.1906 50.5481 25.6168L50.5628 25.6073C50.5824 25.5947 50.6193 25.5703 50.6715 25.5337C50.7762 25.4605 50.9403 25.3397 51.1444 25.1697C51.5538 24.8285 52.1147 24.297 52.6789 23.5635C53.796 22.1115 54.9401 19.854 54.9401 16.6212C54.9401 13.3884 53.796 11.1309 52.6789 9.67897C52.1147 8.94544 51.5538 8.41394 51.1444 8.07278C50.9403 7.90276 50.7762 7.78194 50.6715 7.70874C50.6193 7.67219 50.5824 7.64772 50.5628 7.63508L50.5481 7.62563C49.6064 7.05187 49.303 5.82468 49.8712 4.87764Z" fill="#FF5E5E"/>
<path id="Vector_2" fill-rule="evenodd" clip-rule="evenodd" d="M27.4969 3.90234C20.4726 3.90234 14.7783 9.59665 14.7783 16.6209C14.7783 23.6452 20.4726 29.3395 27.4969 29.3395C34.5213 29.3395 40.2155 23.6452 40.2155 16.6209C40.2155 9.59665 34.5213 3.90234 27.4969 3.90234ZM18.7947 16.6209C18.7947 11.8148 22.6908 7.91873 27.4969 7.91873C32.3029 7.91873 36.1991 11.8148 36.1991 16.6209C36.1991 21.427 32.3029 25.3231 27.4969 25.3231C22.6908 25.3231 18.7947 21.427 18.7947 16.6209Z" fill="#FF5E5E"/>
<path id="Vector_3" fill-rule="evenodd" clip-rule="evenodd" d="M27.4974 33.3574C22.0369 33.3574 16.9946 34.6178 13.2477 36.759C9.55757 38.8676 6.74609 42.0866 6.74609 46.076C6.74609 50.0653 9.55757 53.2843 13.2477 55.3929C16.9946 57.5339 22.0369 58.7946 27.4974 58.7946C32.9579 58.7946 38.0003 57.5339 41.7473 55.3929C45.4373 53.2843 48.2488 50.0653 48.2488 46.076C48.2488 42.0866 45.4373 38.8676 41.7473 36.759C38.0003 34.6178 32.9579 33.3574 27.4974 33.3574ZM10.7625 46.076C10.7625 44.15 12.1468 42.0138 15.2404 40.2461C18.2771 38.511 22.6064 37.3738 27.4974 37.3738C32.3886 37.3738 36.7177 38.511 39.7544 40.2461C42.8481 42.0138 44.2324 44.15 44.2324 46.076C44.2324 48.002 42.8481 50.1379 39.7544 51.9056C36.7177 53.641 32.3886 54.7782 27.4974 54.7782C22.6064 54.7782 18.2771 53.641 15.2404 51.9056C12.1468 50.1379 10.7625 48.002 10.7625 46.076Z" fill="#FF5E5E"/>
<path id="Vector_4" d="M47.2756 9.5443C46.3246 8.97368 45.091 9.28205 44.5204 10.2331L45.185 12.9736L45.2059 12.9878C45.2372 13.0098 45.2966 13.0532 45.3751 13.1186C45.5336 13.2506 45.7599 13.4642 45.9893 13.7626C46.437 14.3443 46.9118 15.263 46.9118 16.6215C46.9118 17.98 46.437 18.8987 45.9893 19.4804C45.7599 19.7788 45.5336 19.9924 45.3751 20.1244C45.2966 20.1898 45.2372 20.2332 45.2059 20.2552L45.185 20.2694C44.2529 20.8463 43.9546 22.0669 44.5204 23.0099C45.091 23.9609 46.3246 24.2693 47.2756 23.6987L46.2424 21.9767C47.2756 23.6987 47.2746 23.6992 47.2756 23.6987L47.2791 23.6965L47.2831 23.6942L47.2914 23.6891L47.3115 23.6768L47.3629 23.644C47.4023 23.6186 47.4513 23.5858 47.5091 23.5455C47.624 23.465 47.7739 23.3536 47.9464 23.2098C48.2899 22.9234 48.7331 22.501 49.173 21.9292C50.0641 20.7706 50.9281 19.0117 50.9281 16.6215C50.9281 14.2313 50.0641 12.4724 49.173 11.3138C48.7331 10.742 48.2899 10.3196 47.9464 10.0332C47.7739 9.88941 47.624 9.77802 47.5091 9.69748C47.4513 9.65716 47.4023 9.62438 47.3629 9.59895L47.3115 9.56625L47.2914 9.55394L47.2831 9.5488L47.2791 9.54647C47.2783 9.54593 47.2756 9.5443 46.2424 11.2663L47.2756 9.5443Z" fill="#FF5E5E"/>
</g>
</svg>
