<svg width="67" height="67" viewBox="0 0 67 67" fill="none" xmlns="http://www.w3.org/2000/svg">
<g id="clock-circle-svgrepo-com 2">
<path id="Vector" fill-rule="evenodd" clip-rule="evenodd" d="M33.5345 8.2963C19.4412 8.2963 8.01627 19.7212 8.01627 33.8146C8.01627 47.9078 19.4412 59.3328 33.5345 59.3328C47.6278 59.3328 59.0528 47.9078 59.0528 33.8146C59.0528 19.7212 47.6278 8.2963 33.5345 8.2963ZM3.87817 33.8146C3.87817 17.4358 17.1558 4.1582 33.5345 4.1582C49.9134 4.1582 63.1909 17.4358 63.1909 33.8146C63.1909 50.1934 49.9134 63.4709 33.5345 63.4709C17.1558 63.4709 3.87817 50.1934 3.87817 33.8146ZM33.5345 20.7106C34.6772 20.7106 35.6036 21.6369 35.6036 22.7796V32.9574L41.8943 39.2484C42.7024 40.0565 42.7024 41.3663 41.8943 42.1744C41.0863 42.9824 39.7765 42.9824 38.9684 42.1744L32.0716 35.2775C31.6834 34.8897 31.4655 34.3633 31.4655 33.8146V22.7796C31.4655 21.6369 32.3919 20.7106 33.5345 20.7106Z" fill="#FF5E5E"/>
</g>
</svg>
