<svg width="24" height="24" viewBox="0 0 24 24" fill="none" xmlns="http://www.w3.org/2000/svg">
<path d="M4.63678 2.86035C3.94457 2.86035 3.36834 3.42798 3.36834 4.12129V6.3666C2.99752 6.49371 2.66398 6.72212 2.41021 7.03223C2.00607 7.52549 1.8451 8.1762 1.97334 8.80129C2.41979 10.961 3.05561 14.0436 3.07865 14.1554C3.05543 14.268 2.42256 17.3354 1.97709 19.4954C1.84756 20.1238 2.0097 20.7774 2.41584 21.2738C2.82284 21.7699 3.43254 22.0585 4.07615 22.0585H19.873C20.5243 22.0585 21.1413 21.767 21.554 21.2644H21.5549C21.9673 20.7614 22.1301 20.0987 21.9993 19.4625C21.5538 17.3034 20.9272 14.2656 20.9043 14.1544C20.9275 14.0416 21.5623 10.9565 22.0077 8.7966C22.1362 8.17292 21.9767 7.52301 21.5718 7.02941C21.3237 6.72657 20.9993 6.50396 20.639 6.37598V4.12129C20.639 3.42798 20.0627 2.86035 19.3705 2.86035H4.63678ZM4.63678 3.82035H19.3705C19.549 3.82035 19.679 3.95252 19.679 4.12129V6.25129H4.32834V4.12129C4.32834 3.95252 4.45826 3.82035 4.63678 3.82035ZM9.59428 10.5141C11.8004 10.5141 11.8827 12.1888 11.8827 12.5157C11.8827 13.3734 11.1469 13.8637 10.8608 14.0269V14.0682C10.9429 14.083 11.0431 14.1141 11.1468 14.1544H9.14521V14.5575C9.30841 14.5167 9.47184 14.5163 9.67584 14.5163C9.87984 14.5163 11.2696 14.5578 11.2696 15.9469C11.2696 17.2948 9.83953 17.4169 9.63553 17.4169C8.91121 17.4169 8.0719 16.9773 8.04646 15.7932H7.14459C7.15275 16.3821 7.33153 18.1932 9.63553 18.1932C10.0848 18.1932 12.209 18.0709 12.209 15.9057C12.209 14.806 11.6128 14.3363 11.1487 14.1544H15.3458V12.6263H13.4662V11.9504C14.0719 11.9504 14.5528 11.8518 14.908 11.655C15.2632 11.4582 15.5005 11.0955 15.6205 10.5675H16.3283V14.1544H19.9246L19.9443 14.2519C19.9443 14.2519 20.6054 17.4573 21.059 19.6557C21.1317 20.0093 21.0422 20.3747 20.8124 20.655C20.5819 20.9358 20.2384 21.0985 19.873 21.0985H4.07615C3.71848 21.0985 3.38302 20.9392 3.15834 20.6654C2.93421 20.3909 2.84636 20.0341 2.9174 19.6894C3.37101 17.49 4.03865 14.2519 4.03865 14.2519L4.05834 14.1544H9.14521V13.7822H9.51271C10.8202 13.7822 10.9433 12.7605 10.9433 12.556C10.9433 12.1475 10.7789 11.3307 9.59428 11.3307C8.329 11.3307 8.1799 12.5906 8.16646 12.9141H7.2674C7.27844 12.4447 7.46836 10.5141 9.59428 10.5141ZM15.3552 14.1544V18.0432H16.3058V14.1544H15.3552Z" fill="black"/>
</svg>
