<svg width="19" height="20" viewBox="0 0 19 20" fill="none" xmlns="http://www.w3.org/2000/svg">
<g id="iphone-svgrepo-com 1">
<path id="Vector" fill-rule="evenodd" clip-rule="evenodd" d="M9.22021 1.83203H9.30729C10.7261 1.83202 11.8498 1.83201 12.7292 1.95026C13.6343 2.07194 14.367 2.32833 14.9447 2.90606C15.5224 3.4838 15.7788 4.21639 15.9005 5.12149C16.0187 6.00096 16.0187 7.1247 16.0187 8.54345V11.7185C16.0187 13.1373 16.0187 14.261 15.9005 15.1405C15.7788 16.0456 15.5224 16.7782 14.9447 17.3559C14.367 17.9336 13.6343 18.19 12.7292 18.3118C11.8498 18.4299 10.7261 18.4299 9.30729 18.4299H9.22021C7.80144 18.4299 6.67771 18.4299 5.79825 18.3118C4.89315 18.19 4.16056 17.9336 3.58282 17.3559C3.00509 16.7782 2.74869 16.0456 2.62701 15.1405C2.50877 14.261 2.50877 13.1373 2.50879 11.7185V8.54344C2.50877 7.1247 2.50877 6.00096 2.62701 5.12149C2.74869 4.21639 3.00509 3.4838 3.58282 2.90606C4.16056 2.32833 4.89315 2.07194 5.79825 1.95026C6.67771 1.83201 7.80144 1.83202 9.22021 1.83203ZM5.26017 3.23951C4.88264 3.35235 4.61612 3.51042 4.40165 3.72489C4.07493 4.0516 3.8791 4.49909 3.77468 5.27579C3.66801 6.06914 3.66678 7.11494 3.66678 8.587V11.675C3.66678 13.147 3.66801 14.1928 3.77468 14.9862C3.8791 15.7629 4.07493 16.2104 4.40165 16.5371C4.72836 16.8638 5.17585 17.0597 5.95255 17.164C6.7459 17.2707 7.79171 17.2719 9.26375 17.2719C10.7358 17.2719 11.7816 17.2707 12.575 17.164C13.3516 17.0597 13.7992 16.8638 14.1259 16.5371C14.4526 16.2104 14.6484 15.7629 14.7528 14.9862C14.8595 14.1928 14.8607 13.147 14.8607 11.675V8.587C14.8607 7.11494 14.8595 6.06914 14.7528 5.27579C14.6484 4.49909 14.4526 4.0516 14.1259 3.72489C13.9114 3.51042 13.6449 3.35235 13.2673 3.23951C12.7565 4.00663 12.3993 4.53992 11.8682 4.86994C11.7623 4.93578 11.6522 4.9947 11.5387 5.04634C10.9657 5.30688 10.3191 5.30655 9.38758 5.30606C9.3469 5.30604 9.3056 5.30601 9.26375 5.30601C9.22191 5.30601 9.18061 5.30604 9.13993 5.30606C8.20844 5.30655 7.56183 5.30688 6.98888 5.04634C6.87532 4.9947 6.76523 4.93578 6.65928 4.86994C6.12819 4.53992 5.77102 4.00664 5.26017 3.23951ZM6.52416 3.04105C6.86699 3.53786 7.0465 3.74721 7.27046 3.88637C7.33403 3.92588 7.40009 3.96124 7.46822 3.99222C7.78392 4.13576 8.15795 4.14802 9.26375 4.14802C10.3696 4.14802 10.7436 4.13576 11.0593 3.99222C11.1274 3.96123 11.1935 3.92588 11.257 3.88637C11.481 3.74721 11.6605 3.53786 12.0033 3.04105C11.2929 2.99077 10.4068 2.99003 9.26375 2.99003C8.12066 2.99003 7.23458 2.99077 6.52416 3.04105ZM6.36877 15.535C6.36877 15.2152 6.628 14.956 6.94777 14.956H11.5797C11.8995 14.956 12.1587 15.2152 12.1587 15.535C12.1587 15.8547 11.8995 16.114 11.5797 16.114H6.94777C6.628 16.114 6.36877 15.8547 6.36877 15.535Z" fill="#EA4C36"/>
</g>
</svg>
