<svg width="31" height="31" viewBox="0 0 31 31" fill="none" xmlns="http://www.w3.org/2000/svg">
<g id="settings-svgrepo-com 1">
<path id="Vector" fill-rule="evenodd" clip-rule="evenodd" d="M15.7666 10.6602C13.1814 10.6602 11.0857 12.7559 11.0857 15.3411C11.0857 17.9263 13.1814 20.022 15.7666 20.022C18.3519 20.022 20.4476 17.9263 20.4476 15.3411C20.4476 12.7559 18.3519 10.6602 15.7666 10.6602ZM12.9581 15.3411C12.9581 13.79 14.2156 12.5325 15.7666 12.5325C17.3177 12.5325 18.5752 13.79 18.5752 15.3411C18.5752 16.8922 17.3177 18.1497 15.7666 18.1497C14.2156 18.1497 12.9581 16.8922 12.9581 15.3411Z" fill="#1C274C"/>
<path id="Vector_2" fill-rule="evenodd" clip-rule="evenodd" d="M15.7352 1.92383C15.1804 1.92382 14.7172 1.92382 14.337 1.94975C13.9412 1.97677 13.5673 2.03499 13.2048 2.18512C12.3637 2.53352 11.6955 3.20178 11.3471 4.04288C11.1657 4.48077 11.1166 4.94225 11.0978 5.44385C11.0828 5.84707 10.8793 6.1835 10.579 6.35688C10.2786 6.53026 9.88555 6.53828 9.52881 6.34973C9.08503 6.11517 8.66081 5.92696 8.1909 5.86509C7.28829 5.74626 6.37543 5.99087 5.65315 6.54509C5.34189 6.78393 5.10452 7.07861 4.88323 7.40789C4.67064 7.72421 4.43908 8.12533 4.16168 8.6058L4.13016 8.6604C3.85275 9.14087 3.62118 9.54195 3.45352 9.88421C3.27901 10.2405 3.14248 10.5934 3.09127 10.9824C2.97244 11.885 3.21704 12.7979 3.77125 13.5202C4.05975 13.8961 4.43479 14.1694 4.85974 14.4364C5.20149 14.6511 5.39113 14.9956 5.39111 15.3425C5.3911 15.6893 5.20145 16.0338 4.85974 16.2485C4.43474 16.5155 4.05966 16.7889 3.77114 17.1648C3.21692 17.8871 2.97232 18.7999 3.09114 19.7025C3.14236 20.0915 3.27888 20.4445 3.4534 20.8008C3.62105 21.143 3.85263 21.5441 4.13003 22.0245L4.16156 22.0792C4.43896 22.5597 4.67052 22.9607 4.88311 23.277C5.1044 23.6063 5.34177 23.901 5.65303 24.1398C6.3753 24.694 7.28816 24.9387 8.19077 24.8199C8.66066 24.758 9.08486 24.5698 9.52861 24.3353C9.8854 24.1467 10.2785 24.1547 10.5789 24.3282C10.8792 24.5016 11.0828 24.838 11.0978 25.2413C11.1166 25.7428 11.1657 26.2043 11.3471 26.6422C11.6955 27.4833 12.3637 28.1516 13.2048 28.5C13.5673 28.6501 13.9412 28.7083 14.337 28.7353C14.7172 28.7612 15.1804 28.7612 15.7352 28.7612H15.7982C16.353 28.7612 16.8161 28.7612 17.1965 28.7353C17.5923 28.7083 17.9662 28.6501 18.3287 28.5C19.1697 28.1516 19.838 27.4833 20.1864 26.6422C20.3678 26.2043 20.4169 25.7428 20.4356 25.2412C20.4507 24.838 20.6541 24.5016 20.9545 24.3281C21.2548 24.1547 21.648 24.1467 22.0048 24.3352C22.4485 24.5697 22.8727 24.758 23.3426 24.8197C24.2452 24.9386 25.1581 24.694 25.8803 24.1398C26.1916 23.9009 26.4289 23.6063 26.6502 23.277C26.8628 22.9607 27.0944 22.5597 27.3717 22.0792L27.4033 22.0245C27.6807 21.5441 27.9124 21.1429 28.08 20.8006C28.2545 20.4444 28.3909 20.0915 28.4422 19.7025C28.5611 18.7998 28.3164 17.887 27.7622 17.1647C27.4737 16.7887 27.0986 16.5155 26.6737 16.2485C26.3319 16.0338 26.1423 15.6893 26.1423 15.3424C26.1423 14.9956 26.3319 14.6512 26.6736 14.4365C27.0987 14.1695 27.4738 13.8963 27.7623 13.5202C28.3165 12.798 28.5612 11.8851 28.4424 10.9825C28.3911 10.5935 28.2546 10.2406 28.0801 9.8843C27.9125 9.54207 27.6809 9.141 27.4034 8.66058L27.372 8.60594C27.0945 8.12545 26.8629 7.7243 26.6504 7.40798C26.4291 7.07869 26.1918 6.78402 25.8804 6.54517C25.1582 5.99095 24.2454 5.74635 23.3426 5.86518C22.8728 5.92704 22.4486 6.11523 22.0049 6.34978C21.6481 6.53835 21.2549 6.53032 20.9546 6.35692C20.6543 6.18352 20.4507 5.84704 20.4356 5.44378C20.4169 4.9422 20.3678 4.48075 20.1864 4.04288C19.838 3.20178 19.1697 2.53352 18.3287 2.18512C17.9662 2.03499 17.5923 1.97677 17.1965 1.94975C16.8161 1.92382 16.353 1.92382 15.7982 1.92383H15.7352ZM13.9213 3.91498C14.0177 3.87508 14.164 3.8383 14.4644 3.81779C14.7734 3.79672 15.1723 3.7962 15.7667 3.7962C16.3612 3.7962 16.7601 3.79672 17.0689 3.81779C17.3695 3.8383 17.5158 3.87508 17.612 3.91498C17.9944 4.07334 18.2982 4.37709 18.4565 4.75942C18.5065 4.88001 18.5478 5.06801 18.5646 5.51376C18.6015 6.50285 19.1121 7.45519 20.0184 7.97844C20.9246 8.50171 22.0048 8.46766 22.8798 8.00516C23.2741 7.79672 23.4577 7.73858 23.587 7.72154C23.9973 7.66753 24.4123 7.77871 24.7405 8.03062C24.8233 8.09408 24.9283 8.20239 25.0963 8.45238C25.2691 8.70936 25.4689 9.05459 25.7661 9.56937C26.0633 10.0842 26.2624 10.4299 26.3986 10.7079C26.531 10.9784 26.5724 11.1235 26.586 11.2269C26.64 11.6372 26.5288 12.0521 26.2769 12.3804C26.1974 12.484 26.0553 12.6138 25.6775 12.8511C24.8395 13.3778 24.2701 14.296 24.27 15.3424C24.27 16.3889 24.8394 17.3073 25.6775 17.8339C26.0552 18.0712 26.1973 18.201 26.2768 18.3046C26.5287 18.6329 26.6399 19.0478 26.5858 19.4581C26.5722 19.5615 26.5309 19.7065 26.3985 19.977C26.2623 20.255 26.0632 20.6008 25.766 21.1156C25.4688 21.6303 25.2689 21.9756 25.0962 22.2326C24.9282 22.4825 24.8232 22.5909 24.7404 22.6543C24.4121 22.9063 23.9972 23.0174 23.5869 22.9635C23.4576 22.9464 23.274 22.8882 22.8797 22.6799C22.0046 22.2173 20.9245 22.1833 20.0182 22.7066C19.1121 23.2298 18.6015 24.1821 18.5646 25.1713C18.5478 25.617 18.5065 25.805 18.4565 25.9257C18.2982 26.3079 17.9944 26.6117 17.612 26.7701C17.5158 26.81 17.3695 26.8468 17.0689 26.8673C16.7601 26.8883 16.3612 26.8888 15.7667 26.8888C15.1723 26.8888 14.7734 26.8883 14.4644 26.8673C14.164 26.8468 14.0177 26.81 13.9213 26.7701C13.5391 26.6117 13.2353 26.3079 13.0769 25.9257C13.027 25.805 12.9856 25.617 12.9689 25.1713C12.9319 24.1823 12.4214 23.2298 11.5151 22.7066C10.6088 22.1833 9.52876 22.2174 8.65369 22.6799C8.25933 22.8883 8.07581 22.9465 7.94639 22.9635C7.5361 23.0175 7.12117 22.9063 6.79287 22.6544C6.71016 22.591 6.60514 22.4826 6.43714 22.2326C6.26445 21.9757 6.06454 21.6305 5.76733 21.1157C5.47011 20.6009 5.27109 20.2551 5.13489 19.9772C5.0024 19.7067 4.96111 19.5615 4.9475 19.4581C4.89349 19.0478 5.00468 18.6329 5.2566 18.3046C5.33606 18.2011 5.47817 18.0712 5.85588 17.8339C6.69393 17.3074 7.26343 16.3891 7.26348 15.3426C7.26355 14.296 6.69402 13.3777 5.8559 12.851C5.47827 12.6137 5.33617 12.4839 5.25671 12.3803C5.0048 12.052 4.89362 11.6371 4.94763 11.2268C4.96124 11.1234 5.00253 10.9783 5.13502 10.7079C5.27121 10.4298 5.47024 10.0841 5.76744 9.56928C6.06466 9.0545 6.26456 8.70927 6.43727 8.45229C6.60527 8.20232 6.71028 8.094 6.79298 8.03055C7.1213 7.77862 7.53623 7.66744 7.9465 7.72145C8.07593 7.73849 8.25946 7.79664 8.65387 8.00511C9.5289 8.4676 10.6089 8.50164 11.5151 7.97841C12.4214 7.45518 12.9319 6.50287 12.9689 5.51382C12.9856 5.06804 13.027 4.88002 13.0769 4.75942C13.2353 4.37709 13.5391 4.07334 13.9213 3.91498Z" fill="#1C274C"/>
</g>
</svg>
