<svg width="35" height="35" viewBox="0 0 45 45" fill="none" xmlns="http://www.w3.org/2000/svg">
	<path d="M7.5 11.25V35.625C7.5 38.7317 10.0184 41.25 13.125 41.25H31.875C34.9817 41.25 37.5 38.7317 37.5 35.625V16.875C37.5 13.7684 34.9817 11.25 31.875 11.25H7.5ZM7.5 11.25V9.375" stroke="#FF4F4F" stroke-width="2.4" />
	<mask id="path-2-inside-1_23226_19840" fill="white">
		<path d="M33.75 11.2475V12.6537H35.1562V11.2475H33.75ZM9.50826 12.6537H33.75V9.84124H9.50826V12.6537ZM35.1562 11.2475V8.07128H32.3437V11.2475H35.1562ZM29.2708 2.96685L9.02537 5.85906L9.42311 8.64329L29.6685 5.75108L29.2708 2.96685ZM9.02537 5.85906C7.34321 6.09936 6.09375 7.54002 6.09375 9.23923H8.90625C8.90625 8.93965 9.12654 8.68566 9.42311 8.64329L9.02537 5.85906ZM35.1562 8.07128C35.1562 4.93345 32.3771 2.5231 29.2708 2.96685L29.6685 5.75108C31.0806 5.54939 32.3437 6.64498 32.3437 8.07128H35.1562ZM9.50826 9.84124C9.17578 9.84124 8.90625 9.57171 8.90625 9.23923H6.09375C6.09375 11.125 7.62248 12.6537 9.50826 12.6537V9.84124Z" />
	</mask>
	<path d="M29.2708 2.96685L30.2608 2.82539L28.2809 3.10825L29.2708 2.96685ZM9.02537 5.85906L10.0153 5.71764L8.03542 6.00047L9.02537 5.85906ZM30.4597 4.2175L30.2608 2.82539L28.2809 3.10832L28.4798 4.50043L30.4597 4.2175ZM10.2142 7.10976L10.0153 5.71765L8.03542 6.00047L8.23428 7.39259L10.2142 7.10976ZM8.50826 9.84124V12.6537H10.5083V9.84124H8.50826ZM35.1562 7.07128H32.3437V9.07128H35.1562V7.07128ZM8.03542 6.00048L8.43316 8.78471L10.4131 8.50186L10.0153 5.71764L8.03542 6.00048ZM30.6585 5.60968L30.2608 2.82545L28.2809 3.10825L28.6785 5.89248L30.6585 5.60968ZM6.09375 10.2392H8.90625V8.23923H6.09375V10.2392ZM33.75 11.2475V9.24749H31.75V11.2475H33.75ZM35.1562 12.6537V14.6537H37.1562V12.6537H35.1562ZM29.2708 2.96685L28.988 0.986955L28.988 0.986955L29.2708 2.96685ZM9.02537 5.85906L9.3082 7.83896L9.30821 7.83896L9.02537 5.85906ZM33.75 9.84124H35.75V7.84124H33.75V9.84124ZM32.3437 11.2475H30.3437V13.2475H32.3437V11.2475ZM9.42311 8.64329L9.14027 6.66339L9.14022 6.66339L9.42311 8.64329ZM29.6685 5.75108L29.3857 3.77117L29.3857 3.77118L29.6685 5.75108ZM31.75 11.2475V12.6537H35.75V11.2475H31.75ZM33.75 14.6537H35.1562V10.6537H33.75V14.6537ZM37.1562 12.6537V11.2475H33.1562V12.6537H37.1562ZM35.1562 9.24749H33.75V13.2475H35.1562V9.24749ZM9.50826 14.6537H33.75V10.6537H9.50826V14.6537ZM35.75 12.6537V9.84124H31.75V12.6537H35.75ZM33.75 7.84124H9.50826V11.8412H33.75V7.84124ZM37.1562 11.2475V8.07128H33.1562V11.2475H37.1562ZM30.3437 8.07128V11.2475H34.3437V8.07128H30.3437ZM32.3437 13.2475H35.1562V9.24749H32.3437V13.2475ZM28.988 0.986955L8.74253 3.87916L9.30821 7.83896L29.5537 4.94675L28.988 0.986955ZM9.70596 10.6232L29.9513 7.73098L29.3857 3.77118L9.14027 6.66339L9.70596 10.6232ZM8.74254 3.87916C6.07507 4.26021 4.09375 6.54472 4.09375 9.23923H8.09375C8.09375 8.53531 8.61136 7.93851 9.3082 7.83896L8.74254 3.87916ZM10.9062 9.23923C10.9062 9.935 10.3946 10.5248 9.70601 10.6232L9.14022 6.66339C7.85845 6.84654 6.90625 7.94429 6.90625 9.23923H10.9062ZM37.1562 8.07128C37.1562 3.71636 33.2992 0.371075 28.988 0.986955L29.5537 4.94675C31.4551 4.67512 33.1562 6.15054 33.1562 8.07128H37.1562ZM29.9513 7.73098C30.1585 7.70138 30.3437 7.8621 30.3437 8.07128H34.3437C34.3437 5.42787 32.0026 3.39739 29.3857 3.77117L29.9513 7.73098ZM9.50826 7.84124C10.2804 7.84124 10.9062 8.46714 10.9062 9.23923H6.90625C6.90625 10.6763 8.07121 11.8412 9.50826 11.8412V7.84124ZM4.09375 9.23923C4.09375 12.2296 6.51791 14.6537 9.50826 14.6537V10.6537C8.72705 10.6537 8.09375 10.0204 8.09375 9.23923H4.09375Z" fill="#FF4F4F" mask="url(#path-2-inside-1_23226_19840)" />
	<path d="M15 22.5H30" stroke="#FF4F4F" stroke-width="2.4" stroke-linecap="round" />
	<path d="M15 29.0625H25.3125" stroke="#FF4F4F" stroke-width="2.4" stroke-linecap="round" />
</svg>
