<svg width="466" height="30" viewBox="0 0 466 30" fill="none" xmlns="http://www.w3.org/2000/svg">
<path fill-rule="evenodd" clip-rule="evenodd" d="M14.6515 26.4152C14.6515 26.4152 24.0307 23.5753 24.0307 15.7462C24.0307 7.91596 24.3706 7.3047 23.6187 6.55162C22.8656 5.79855 15.8813 3.36328 14.6515 3.36328C13.4216 3.36328 6.43735 5.79855 5.6855 6.55162C4.93243 7.3047 5.27229 7.91596 5.27229 15.7462C5.27229 23.5753 14.6515 26.4152 14.6515 26.4152Z" stroke="#B2B2B2" stroke-width="1.83379" stroke-linecap="round" stroke-linejoin="round"/>
<path d="M11.4746 14.5176L13.7876 16.8342L18.553 12.0664" stroke="#B2B2B2" stroke-width="1.83379" stroke-linecap="round" stroke-linejoin="round"/>
<path d="M52.4398 17.8269C52.4398 17.5337 52.3938 17.2751 52.3018 17.0509C52.2156 16.8209 52.0604 16.614 51.8362 16.4301C51.6178 16.2461 51.3131 16.0708 50.9222 15.9041C50.5371 15.7374 50.0485 15.5678 49.4564 15.3954C48.8356 15.2114 48.2751 15.0073 47.775 14.7832C47.2749 14.5532 46.8466 14.2917 46.4902 13.9985C46.1339 13.7053 45.8608 13.3691 45.6711 12.9897C45.4814 12.6103 45.3866 12.1763 45.3866 11.6877C45.3866 11.1991 45.4872 10.7478 45.6884 10.3339C45.8895 9.92005 46.177 9.56077 46.5506 9.25611C46.93 8.9457 47.3812 8.70427 47.9043 8.53182C48.4274 8.35937 49.0109 8.27314 49.6547 8.27314C50.5974 8.27314 51.3965 8.45421 52.0518 8.81636C52.7128 9.17276 53.2158 9.64125 53.5607 10.2218C53.9056 10.7967 54.0781 11.4117 54.0781 12.0671H52.4226C52.4226 11.5957 52.322 11.1789 52.1208 10.8168C51.9196 10.4489 51.6149 10.1615 51.2068 9.95454C50.7986 9.74185 50.2813 9.6355 49.6547 9.6355C49.0626 9.6355 48.574 9.7246 48.1889 9.9028C47.8037 10.081 47.5163 10.3224 47.3266 10.6271C47.1427 10.9318 47.0507 11.2795 47.0507 11.6704C47.0507 11.9348 47.1053 12.1763 47.2145 12.3947C47.3295 12.6074 47.5048 12.8057 47.7405 12.9897C47.9819 13.1736 48.2866 13.3432 48.6545 13.4984C49.0281 13.6536 49.4736 13.8031 49.991 13.9468C50.7038 14.148 51.3189 14.3721 51.8362 14.6193C52.3536 14.8665 52.779 15.1453 53.1124 15.4557C53.4515 15.7604 53.7016 16.1081 53.8625 16.499C54.0292 16.8842 54.1126 17.3211 54.1126 17.8097C54.1126 18.3213 54.0091 18.784 53.8022 19.1979C53.5952 19.6118 53.2992 19.9653 52.914 20.2585C52.5289 20.5516 52.0662 20.7787 51.5258 20.9396C50.9912 21.0948 50.3934 21.1725 49.7323 21.1725C49.1517 21.1725 48.5798 21.092 48.0164 20.931C47.4588 20.7701 46.9501 20.5286 46.4902 20.2067C46.0361 19.8848 45.6711 19.4882 45.3952 19.0168C45.125 18.5397 44.9899 17.9879 44.9899 17.3613H46.6455C46.6455 17.7924 46.7288 18.1632 46.8955 18.4736C47.0622 18.7783 47.2893 19.0312 47.5767 19.2324C47.8699 19.4336 48.2004 19.583 48.5683 19.6808C48.9419 19.7727 49.3299 19.8187 49.7323 19.8187C50.3129 19.8187 50.8044 19.7382 51.2068 19.5773C51.6092 19.4163 51.9138 19.1864 52.1208 18.8875C52.3335 18.5886 52.4398 18.235 52.4398 17.8269ZM59.8638 21.1725C59.2142 21.1725 58.625 21.0632 58.0962 20.8448C57.5731 20.6206 57.1218 20.3073 56.7424 19.9049C56.3688 19.5026 56.0814 19.0254 55.8802 18.4736C55.679 17.9218 55.5784 17.3182 55.5784 16.6629V16.3007C55.5784 15.5419 55.6905 14.8665 55.9147 14.2744C56.1389 13.6766 56.4435 13.1707 56.8287 12.7569C57.2138 12.343 57.6507 12.0297 58.1393 11.817C58.6279 11.6043 59.1338 11.498 59.6569 11.498C60.3237 11.498 60.8985 11.6129 61.3814 11.8429C61.87 12.0728 62.2695 12.3947 62.5799 12.8086C62.8903 13.2167 63.1202 13.6996 63.2697 14.2572C63.4192 14.809 63.4939 15.4126 63.4939 16.0679V16.7836H56.5269V15.4816H61.8987V15.3609C61.8757 14.947 61.7895 14.5446 61.64 14.1537C61.4963 13.7628 61.2664 13.4409 60.9502 13.188C60.6341 12.9351 60.203 12.8086 59.6569 12.8086C59.2947 12.8086 58.9613 12.8862 58.6566 13.0414C58.352 13.1909 58.0904 13.415 57.872 13.714C57.6536 14.0129 57.484 14.3779 57.3633 14.809C57.2425 15.2401 57.1822 15.7374 57.1822 16.3007V16.6629C57.1822 17.1055 57.2425 17.5222 57.3633 17.9131C57.4897 18.2983 57.6708 18.6374 57.9065 18.9306C58.1479 19.2238 58.4382 19.4537 58.7774 19.6204C59.1223 19.7871 59.5131 19.8704 59.95 19.8704C60.5134 19.8704 60.9905 19.7555 61.3814 19.5255C61.7723 19.2956 62.1143 18.9881 62.4074 18.6029L63.3732 19.3703C63.172 19.675 62.9162 19.9653 62.6058 20.2412C62.2954 20.5171 61.9131 20.7413 61.459 20.9138C61.0106 21.0862 60.4789 21.1725 59.8638 21.1725ZM69.0899 19.8618C69.4693 19.8618 69.82 19.7842 70.1419 19.629C70.4638 19.4738 70.7282 19.2611 70.9351 18.9909C71.1421 18.715 71.2599 18.4017 71.2887 18.0511H72.8062C72.7775 18.6029 72.5907 19.1174 72.2458 19.5945C71.9066 20.0659 71.4611 20.4482 70.9093 20.7413C70.3574 21.0287 69.751 21.1725 69.0899 21.1725C68.3886 21.1725 67.7764 21.0489 67.2533 20.8017C66.736 20.5545 66.3048 20.2153 65.9599 19.7842C65.6208 19.3531 65.365 18.8587 65.1925 18.3011C65.0258 17.7378 64.9425 17.1429 64.9425 16.5163V16.1541C64.9425 15.5276 65.0258 14.9355 65.1925 14.3779C65.365 13.8146 65.6208 13.3173 65.9599 12.8862C66.3048 12.4551 66.736 12.1159 67.2533 11.8687C67.7764 11.6216 68.3886 11.498 69.0899 11.498C69.82 11.498 70.458 11.6474 71.0041 11.9463C71.5502 12.2395 71.9785 12.6419 72.2889 13.1535C72.605 13.6594 72.7775 14.2342 72.8062 14.878H71.2887C71.2599 14.4929 71.1507 14.1451 70.961 13.8347C70.7771 13.5243 70.5241 13.2771 70.2022 13.0931C69.8861 12.9034 69.5153 12.8086 69.0899 12.8086C68.6013 12.8086 68.1903 12.9063 67.8569 13.1018C67.5292 13.2915 67.2677 13.5501 67.0722 13.8778C66.8825 14.1997 66.7446 14.559 66.6584 14.9556C66.5779 15.3465 66.5376 15.746 66.5376 16.1541V16.5163C66.5376 16.9244 66.5779 17.3268 66.6584 17.7234C66.7388 18.1201 66.8739 18.4793 67.0636 18.8013C67.2591 19.1232 67.5206 19.3818 67.8483 19.5773C68.1817 19.767 68.5956 19.8618 69.0899 19.8618ZM80.3078 18.8444V11.6704H81.9116V21H80.3854L80.3078 18.8444ZM80.6096 16.8784L81.2735 16.8612C81.2735 17.482 81.2074 18.0568 81.0752 18.5857C80.9488 19.1088 80.7418 19.5629 80.4544 19.9481C80.167 20.3332 79.7905 20.635 79.3249 20.8534C78.8592 21.0661 78.293 21.1725 77.6262 21.1725C77.1721 21.1725 76.7553 21.1063 76.3759 20.9741C76.0023 20.8419 75.6804 20.6379 75.4102 20.3619C75.1401 20.086 74.9302 19.7267 74.7808 19.2841C74.6371 18.8415 74.5652 18.3098 74.5652 17.6889V11.6704H76.1604V17.7062C76.1604 18.1258 76.2064 18.4736 76.2983 18.7495C76.3961 19.0197 76.5254 19.2353 76.6864 19.3962C76.8531 19.5514 77.037 19.6606 77.2382 19.7239C77.4451 19.7871 77.6578 19.8187 77.8763 19.8187C78.5546 19.8187 79.092 19.6894 79.4887 19.4307C79.8853 19.1663 80.1699 18.8128 80.3423 18.3701C80.5205 17.9218 80.6096 17.4245 80.6096 16.8784ZM85.9383 13.1363V21H84.3432V11.6704H85.8952L85.9383 13.1363ZM88.8528 11.6187L88.8441 13.1018C88.7119 13.073 88.5855 13.0558 88.4647 13.05C88.3498 13.0385 88.2176 13.0328 88.0681 13.0328C87.7002 13.0328 87.3754 13.0903 87.0938 13.2052C86.8121 13.3202 86.5735 13.4812 86.3781 13.6881C86.1826 13.895 86.0274 14.1422 85.9125 14.4296C85.8033 14.7113 85.7314 15.0217 85.6969 15.3609L85.2485 15.6195C85.2485 15.0562 85.3031 14.5274 85.4124 14.033C85.5273 13.5386 85.7027 13.1018 85.9383 12.7224C86.174 12.3372 86.4729 12.0383 86.8351 11.8256C87.203 11.6072 87.6399 11.498 88.1457 11.498C88.2607 11.498 88.3929 11.5123 88.5423 11.5411C88.6918 11.5641 88.7953 11.5899 88.8528 11.6187ZM94.0263 21.1725C93.3767 21.1725 92.7875 21.0632 92.2587 20.8448C91.7356 20.6206 91.2843 20.3073 90.9049 19.9049C90.5313 19.5026 90.2439 19.0254 90.0427 18.4736C89.8415 17.9218 89.7409 17.3182 89.7409 16.6629V16.3007C89.7409 15.5419 89.853 14.8665 90.0772 14.2744C90.3013 13.6766 90.606 13.1707 90.9911 12.7569C91.3763 12.343 91.8132 12.0297 92.3018 11.817C92.7904 11.6043 93.2962 11.498 93.8193 11.498C94.4861 11.498 95.061 11.6129 95.5438 11.8429C96.0324 12.0728 96.432 12.3947 96.7424 12.8086C97.0528 13.2167 97.2827 13.6996 97.4322 14.2572C97.5816 14.809 97.6564 15.4126 97.6564 16.0679V16.7836H90.6894V15.4816H96.0612V15.3609C96.0382 14.947 95.952 14.5446 95.8025 14.1537C95.6588 13.7628 95.4289 13.4409 95.1127 13.188C94.7966 12.9351 94.3654 12.8086 93.8193 12.8086C93.4572 12.8086 93.1238 12.8862 92.8191 13.0414C92.5145 13.1909 92.2529 13.415 92.0345 13.714C91.816 14.0129 91.6465 14.3779 91.5257 14.809C91.405 15.2401 91.3447 15.7374 91.3447 16.3007V16.6629C91.3447 17.1055 91.405 17.5222 91.5257 17.9131C91.6522 18.2983 91.8333 18.6374 92.069 18.9306C92.3104 19.2238 92.6007 19.4537 92.9398 19.6204C93.2847 19.7871 93.6756 19.8704 94.1125 19.8704C94.6758 19.8704 95.1529 19.7555 95.5438 19.5255C95.9347 19.2956 96.2768 18.9881 96.5699 18.6029L97.5356 19.3703C97.3344 19.675 97.0786 19.9653 96.7682 20.2412C96.4578 20.5171 96.0756 20.7413 95.6214 20.9138C95.1731 21.0862 94.6413 21.1725 94.0263 21.1725ZM105.399 19.1893V7.75579H107.003V21H105.537L105.399 19.1893ZM99.1222 16.4387V16.2576C99.1222 15.5448 99.2084 14.8981 99.3809 14.3175C99.5591 13.7312 99.8091 13.2282 100.131 12.8086C100.459 12.389 100.847 12.0671 101.295 11.8429C101.749 11.6129 102.255 11.498 102.813 11.498C103.399 11.498 103.911 11.6014 104.347 11.8084C104.79 12.0096 105.164 12.3056 105.468 12.6965C105.779 13.0816 106.023 13.5473 106.201 14.0934C106.379 14.6394 106.503 15.2574 106.572 15.9472V16.7405C106.509 17.4245 106.385 18.0396 106.201 18.5857C106.023 19.1318 105.779 19.5974 105.468 19.9825C105.164 20.3677 104.79 20.6637 104.347 20.8707C103.905 21.0719 103.387 21.1725 102.795 21.1725C102.249 21.1725 101.749 21.0546 101.295 20.8189C100.847 20.5832 100.459 20.2527 100.131 19.8273C99.8091 19.402 99.5591 18.9019 99.3809 18.327C99.2084 17.7464 99.1222 17.117 99.1222 16.4387ZM100.726 16.2576V16.4387C100.726 16.9043 100.772 17.3412 100.864 17.7493C100.962 18.1574 101.111 18.5167 101.312 18.8271C101.514 19.1375 101.769 19.3818 102.08 19.56C102.39 19.7325 102.761 19.8187 103.192 19.8187C103.721 19.8187 104.155 19.7066 104.494 19.4824C104.839 19.2582 105.115 18.9622 105.322 18.5943C105.529 18.2264 105.69 17.8269 105.805 17.3958V15.3178C105.736 15.0016 105.635 14.6969 105.503 14.4038C105.376 14.1048 105.21 13.8404 105.003 13.6105C104.802 13.3748 104.552 13.188 104.253 13.05C103.959 12.9121 103.612 12.8431 103.209 12.8431C102.772 12.8431 102.396 12.9351 102.08 13.119C101.769 13.2972 101.514 13.5444 101.312 13.8605C101.111 14.171 100.962 14.5331 100.864 14.947C100.772 15.3551 100.726 15.792 100.726 16.2576ZM116.704 19.56L119.256 11.6704H120.885L117.531 21H116.462L116.704 19.56ZM114.574 11.6704L117.204 19.6031L117.385 21H116.316L112.935 11.6704H114.574ZM124.153 11.6704V21H122.55V11.6704H124.153ZM122.429 9.19575C122.429 8.93708 122.507 8.71864 122.662 8.54044C122.823 8.36224 123.058 8.27314 123.369 8.27314C123.673 8.27314 123.906 8.36224 124.067 8.54044C124.234 8.71864 124.317 8.93708 124.317 9.19575C124.317 9.44293 124.234 9.65562 124.067 9.83382C123.906 10.0063 123.673 10.0925 123.369 10.0925C123.058 10.0925 122.823 10.0063 122.662 9.83382C122.507 9.65562 122.429 9.44293 122.429 9.19575ZM128.309 13.1363V21H126.714V11.6704H128.266L128.309 13.1363ZM131.224 11.6187L131.215 13.1018C131.083 13.073 130.957 13.0558 130.836 13.05C130.721 13.0385 130.589 13.0328 130.439 13.0328C130.071 13.0328 129.747 13.0903 129.465 13.2052C129.183 13.3202 128.945 13.4812 128.749 13.6881C128.554 13.895 128.399 14.1422 128.284 14.4296C128.174 14.7113 128.103 15.0217 128.068 15.3609L127.62 15.6195C127.62 15.0562 127.674 14.5274 127.783 14.033C127.898 13.5386 128.074 13.1018 128.309 12.7224C128.545 12.3372 128.844 12.0383 129.206 11.8256C129.574 11.6072 130.011 11.498 130.517 11.498C130.632 11.498 130.764 11.5123 130.913 11.5411C131.063 11.5641 131.166 11.5899 131.224 11.6187ZM137.035 11.6704V12.8948H131.991V11.6704H137.035ZM133.699 9.40269H135.294V18.6892C135.294 19.0053 135.343 19.2439 135.44 19.4048C135.538 19.5658 135.664 19.6721 135.82 19.7239C135.975 19.7756 136.142 19.8015 136.32 19.8015C136.452 19.8015 136.59 19.79 136.734 19.767C136.883 19.7382 136.995 19.7152 137.07 19.698L137.079 21C136.952 21.0402 136.785 21.0776 136.578 21.1121C136.377 21.1523 136.133 21.1725 135.846 21.1725C135.455 21.1725 135.095 21.0948 134.768 20.9396C134.44 20.7844 134.179 20.5258 133.983 20.1636C133.793 19.7957 133.699 19.3014 133.699 18.6805V9.40269ZM144.615 18.8444V11.6704H146.218V21H144.692L144.615 18.8444ZM144.916 16.8784L145.58 16.8612C145.58 17.482 145.514 18.0568 145.382 18.5857C145.256 19.1088 145.049 19.5629 144.761 19.9481C144.474 20.3332 144.097 20.635 143.632 20.8534C143.166 21.0661 142.6 21.1725 141.933 21.1725C141.479 21.1725 141.062 21.1063 140.683 20.9741C140.309 20.8419 139.987 20.6379 139.717 20.3619C139.447 20.086 139.237 19.7267 139.088 19.2841C138.944 18.8415 138.872 18.3098 138.872 17.6889V11.6704H140.467V17.7062C140.467 18.1258 140.513 18.4736 140.605 18.7495C140.703 19.0197 140.832 19.2353 140.993 19.3962C141.16 19.5514 141.344 19.6606 141.545 19.7239C141.752 19.7871 141.965 19.8187 142.183 19.8187C142.861 19.8187 143.399 19.6894 143.796 19.4307C144.192 19.1663 144.477 18.8128 144.649 18.3701C144.827 17.9218 144.916 17.4245 144.916 16.8784ZM154.151 19.4048V14.6021C154.151 14.2342 154.076 13.9152 153.927 13.645C153.783 13.3691 153.565 13.1564 153.272 13.0069C152.979 12.8575 152.616 12.7827 152.185 12.7827C151.783 12.7827 151.429 12.8517 151.125 12.9897C150.826 13.1276 150.59 13.3087 150.418 13.5329C150.251 13.7571 150.168 13.9985 150.168 14.2572H148.572C148.572 13.9238 148.659 13.5932 148.831 13.2656C149.004 12.9379 149.251 12.6419 149.573 12.3775C149.9 12.1073 150.291 11.8946 150.745 11.7394C151.205 11.5784 151.717 11.498 152.28 11.498C152.958 11.498 153.556 11.6129 154.074 11.8429C154.597 12.0728 155.005 12.4206 155.298 12.8862C155.597 13.3461 155.746 13.9238 155.746 14.6193V18.9651C155.746 19.2755 155.772 19.606 155.824 19.9567C155.881 20.3073 155.965 20.6091 156.074 20.862V21H154.41C154.329 20.8161 154.266 20.5717 154.22 20.2671C154.174 19.9567 154.151 19.6693 154.151 19.4048ZM154.427 15.3436L154.444 16.4645H152.832C152.378 16.4645 151.973 16.5019 151.616 16.5766C151.26 16.6456 150.961 16.752 150.719 16.8957C150.478 17.0394 150.294 17.2205 150.168 17.4389C150.041 17.6516 149.978 17.9016 149.978 18.1891C149.978 18.4822 150.044 18.7495 150.176 18.9909C150.308 19.2324 150.507 19.425 150.771 19.5687C151.041 19.7066 151.372 19.7756 151.763 19.7756C152.251 19.7756 152.682 19.6721 153.056 19.4652C153.43 19.2582 153.726 19.0053 153.944 18.7064C154.168 18.4075 154.289 18.1172 154.306 17.8355L154.988 18.6029C154.947 18.8444 154.838 19.1117 154.66 19.4048C154.482 19.698 154.243 19.9797 153.944 20.2498C153.651 20.5143 153.3 20.7356 152.892 20.9138C152.49 21.0862 152.036 21.1725 151.53 21.1725C150.898 21.1725 150.343 21.0489 149.866 20.8017C149.394 20.5545 149.027 20.224 148.762 19.8101C148.503 19.3905 148.374 18.922 148.374 18.4046C148.374 17.9045 148.472 17.4648 148.667 17.0854C148.863 16.7002 149.144 16.3812 149.512 16.1283C149.88 15.8696 150.323 15.6741 150.84 15.5419C151.357 15.4097 151.935 15.3436 152.573 15.3436H154.427ZM159.989 7.75579V21H158.385V7.75579H159.989ZM166.507 16.4387V16.2404C166.507 15.5678 166.605 14.9441 166.8 14.3693C166.996 13.7887 167.278 13.2857 167.645 12.8603C168.013 12.4292 168.459 12.0958 168.982 11.8601C169.505 11.6187 170.091 11.498 170.741 11.498C171.396 11.498 171.985 11.6187 172.509 11.8601C173.037 12.0958 173.486 12.4292 173.854 12.8603C174.227 13.2857 174.512 13.7887 174.707 14.3693C174.903 14.9441 175 15.5678 175 16.2404V16.4387C175 17.1112 174.903 17.7349 174.707 18.3098C174.512 18.8846 174.227 19.3876 173.854 19.8187C173.486 20.2441 173.04 20.5775 172.517 20.8189C172 21.0546 171.413 21.1725 170.758 21.1725C170.103 21.1725 169.514 21.0546 168.991 20.8189C168.467 20.5775 168.019 20.2441 167.645 19.8187C167.278 19.3876 166.996 18.8846 166.8 18.3098C166.605 17.7349 166.507 17.1112 166.507 16.4387ZM168.102 16.2404V16.4387C168.102 16.9043 168.157 17.344 168.266 17.7579C168.375 18.1661 168.539 18.5282 168.758 18.8444C168.982 19.1605 169.261 19.4106 169.594 19.5945C169.928 19.7727 170.316 19.8618 170.758 19.8618C171.195 19.8618 171.577 19.7727 171.905 19.5945C172.238 19.4106 172.514 19.1605 172.733 18.8444C172.951 18.5282 173.115 18.1661 173.224 17.7579C173.339 17.344 173.397 16.9043 173.397 16.4387V16.2404C173.397 15.7805 173.339 15.3465 173.224 14.9384C173.115 14.5245 172.948 14.1595 172.724 13.8433C172.506 13.5214 172.23 13.2685 171.896 13.0845C171.569 12.9006 171.184 12.8086 170.741 12.8086C170.304 12.8086 169.919 12.9006 169.586 13.0845C169.258 13.2685 168.982 13.5214 168.758 13.8433C168.539 14.1595 168.375 14.5245 168.266 14.9384C168.157 15.3465 168.102 15.7805 168.102 16.2404ZM178.596 13.1363V21H177.001V11.6704H178.553L178.596 13.1363ZM181.51 11.6187L181.502 13.1018C181.37 13.073 181.243 13.0558 181.122 13.05C181.008 13.0385 180.875 13.0328 180.726 13.0328C180.358 13.0328 180.033 13.0903 179.751 13.2052C179.47 13.3202 179.231 13.4812 179.036 13.6881C178.84 13.895 178.685 14.1422 178.57 14.4296C178.461 14.7113 178.389 15.0217 178.355 15.3609L177.906 15.6195C177.906 15.0562 177.961 14.5274 178.07 14.033C178.185 13.5386 178.36 13.1018 178.596 12.7224C178.832 12.3372 179.131 12.0383 179.493 11.8256C179.861 11.6072 180.298 11.498 180.803 11.498C180.918 11.498 181.051 11.5123 181.2 11.5411C181.35 11.5641 181.453 11.5899 181.51 11.6187ZM191.099 19.8618C191.478 19.8618 191.829 19.7842 192.151 19.629C192.473 19.4738 192.737 19.2611 192.944 18.9909C193.151 18.715 193.269 18.4017 193.297 18.0511H194.815C194.786 18.6029 194.599 19.1174 194.255 19.5945C193.915 20.0659 193.47 20.4482 192.918 20.7413C192.366 21.0287 191.76 21.1725 191.099 21.1725C190.397 21.1725 189.785 21.0489 189.262 20.8017C188.745 20.5545 188.314 20.2153 187.969 19.7842C187.63 19.3531 187.374 18.8587 187.201 18.3011C187.035 17.7378 186.951 17.1429 186.951 16.5163V16.1541C186.951 15.5276 187.035 14.9355 187.201 14.3779C187.374 13.8146 187.63 13.3173 187.969 12.8862C188.314 12.4551 188.745 12.1159 189.262 11.8687C189.785 11.6216 190.397 11.498 191.099 11.498C191.829 11.498 192.467 11.6474 193.013 11.9463C193.559 12.2395 193.987 12.6419 194.298 13.1535C194.614 13.6594 194.786 14.2342 194.815 14.878H193.297C193.269 14.4929 193.16 14.1451 192.97 13.8347C192.786 13.5243 192.533 13.2771 192.211 13.0931C191.895 12.9034 191.524 12.8086 191.099 12.8086C190.61 12.8086 190.199 12.9063 189.866 13.1018C189.538 13.2915 189.277 13.5501 189.081 13.8778C188.891 14.1997 188.753 14.559 188.667 14.9556C188.587 15.3465 188.546 15.746 188.546 16.1541V16.5163C188.546 16.9244 188.587 17.3268 188.667 17.7234C188.748 18.1201 188.883 18.4793 189.072 18.8013C189.268 19.1232 189.529 19.3818 189.857 19.5773C190.191 19.767 190.604 19.8618 191.099 19.8618ZM196.186 16.4387V16.2404C196.186 15.5678 196.284 14.9441 196.479 14.3693C196.675 13.7887 196.956 13.2857 197.324 12.8603C197.692 12.4292 198.138 12.0958 198.661 11.8601C199.184 11.6187 199.77 11.498 200.42 11.498C201.075 11.498 201.664 11.6187 202.187 11.8601C202.716 12.0958 203.165 12.4292 203.532 12.8603C203.906 13.2857 204.191 13.7887 204.386 14.3693C204.582 14.9441 204.679 15.5678 204.679 16.2404V16.4387C204.679 17.1112 204.582 17.7349 204.386 18.3098C204.191 18.8846 203.906 19.3876 203.532 19.8187C203.165 20.2441 202.719 20.5775 202.196 20.8189C201.679 21.0546 201.092 21.1725 200.437 21.1725C199.782 21.1725 199.192 21.0546 198.669 20.8189C198.146 20.5775 197.698 20.2441 197.324 19.8187C196.956 19.3876 196.675 18.8846 196.479 18.3098C196.284 17.7349 196.186 17.1112 196.186 16.4387ZM197.781 16.2404V16.4387C197.781 16.9043 197.836 17.344 197.945 17.7579C198.054 18.1661 198.218 18.5282 198.437 18.8444C198.661 19.1605 198.939 19.4106 199.273 19.5945C199.606 19.7727 199.994 19.8618 200.437 19.8618C200.874 19.8618 201.256 19.7727 201.584 19.5945C201.917 19.4106 202.193 19.1605 202.412 18.8444C202.63 18.5282 202.794 18.1661 202.903 17.7579C203.018 17.344 203.075 16.9043 203.075 16.4387V16.2404C203.075 15.7805 203.018 15.3465 202.903 14.9384C202.794 14.5245 202.627 14.1595 202.403 13.8433C202.184 13.5214 201.909 13.2685 201.575 13.0845C201.247 12.9006 200.862 12.8086 200.42 12.8086C199.983 12.8086 199.598 12.9006 199.264 13.0845C198.937 13.2685 198.661 13.5214 198.437 13.8433C198.218 14.1595 198.054 14.5245 197.945 14.9384C197.836 15.3465 197.781 15.7805 197.781 16.2404ZM209.999 15.0073V16.318H205.792V15.0073H209.999ZM213.923 19.3445L216.32 11.6704H217.372L217.165 13.1966L214.724 21H213.698L213.923 19.3445ZM212.31 11.6704L214.354 19.4307L214.5 21H213.422L210.715 11.6704H212.31ZM219.665 19.3703L221.614 11.6704H223.2L220.493 21H219.424L219.665 19.3703ZM217.604 11.6704L219.95 19.2151L220.217 21H219.2L216.69 13.1794L216.483 11.6704H217.604ZM224.416 16.4387V16.2404C224.416 15.5678 224.514 14.9441 224.709 14.3693C224.905 13.7887 225.186 13.2857 225.554 12.8603C225.922 12.4292 226.368 12.0958 226.891 11.8601C227.414 11.6187 228 11.498 228.65 11.498C229.305 11.498 229.894 11.6187 230.417 11.8601C230.946 12.0958 231.395 12.4292 231.763 12.8603C232.136 13.2857 232.421 13.7887 232.616 14.3693C232.812 14.9441 232.909 15.5678 232.909 16.2404V16.4387C232.909 17.1112 232.812 17.7349 232.616 18.3098C232.421 18.8846 232.136 19.3876 231.763 19.8187C231.395 20.2441 230.949 20.5775 230.426 20.8189C229.909 21.0546 229.322 21.1725 228.667 21.1725C228.012 21.1725 227.423 21.0546 226.9 20.8189C226.376 20.5775 225.928 20.2441 225.554 19.8187C225.186 19.3876 224.905 18.8846 224.709 18.3098C224.514 17.7349 224.416 17.1112 224.416 16.4387ZM226.011 16.2404V16.4387C226.011 16.9043 226.066 17.344 226.175 17.7579C226.284 18.1661 226.448 18.5282 226.667 18.8444C226.891 19.1605 227.17 19.4106 227.503 19.5945C227.836 19.7727 228.224 19.8618 228.667 19.8618C229.104 19.8618 229.486 19.7727 229.814 19.5945C230.147 19.4106 230.423 19.1605 230.642 18.8444C230.86 18.5282 231.024 18.1661 231.133 17.7579C231.248 17.344 231.306 16.9043 231.306 16.4387V16.2404C231.306 15.7805 231.248 15.3465 231.133 14.9384C231.024 14.5245 230.857 14.1595 230.633 13.8433C230.415 13.5214 230.139 13.2685 229.805 13.0845C229.478 12.9006 229.092 12.8086 228.65 12.8086C228.213 12.8086 227.828 12.9006 227.494 13.0845C227.167 13.2685 226.891 13.5214 226.667 13.8433C226.448 14.1595 226.284 14.5245 226.175 14.9384C226.066 15.3465 226.011 15.7805 226.011 16.2404ZM236.505 13.1363V21H234.91V11.6704H236.462L236.505 13.1363ZM239.419 11.6187L239.411 13.1018C239.279 13.073 239.152 13.0558 239.031 13.05C238.916 13.0385 238.784 13.0328 238.635 13.0328C238.267 13.0328 237.942 13.0903 237.66 13.2052C237.379 13.3202 237.14 13.4812 236.945 13.6881C236.749 13.895 236.594 14.1422 236.479 14.4296C236.37 14.7113 236.298 15.0217 236.264 15.3609L235.815 15.6195C235.815 15.0562 235.87 14.5274 235.979 14.033C236.094 13.5386 236.269 13.1018 236.505 12.7224C236.741 12.3372 237.04 12.0383 237.402 11.8256C237.77 11.6072 238.207 11.498 238.712 11.498C238.827 11.498 238.96 11.5123 239.109 11.5411C239.258 11.5641 239.362 11.5899 239.419 11.6187ZM242.498 7.75579V21H240.894V7.75579H242.498ZM248.197 11.6704L244.127 16.0248L241.851 18.3874L241.722 16.6887L243.351 14.74L246.248 11.6704H248.197ZM246.74 21L243.412 16.5508L244.239 15.1281L248.62 21H246.74ZM255.276 18.5253C255.276 18.2954 255.225 18.0827 255.121 17.8873C255.023 17.6861 254.819 17.505 254.509 17.344C254.204 17.1773 253.744 17.0336 253.129 16.9129C252.612 16.8037 252.143 16.6744 251.724 16.5249C251.31 16.3754 250.956 16.1944 250.663 15.9817C250.376 15.769 250.154 15.5189 249.999 15.2315C249.844 14.9441 249.766 14.6078 249.766 14.2227C249.766 13.8548 249.847 13.507 250.008 13.1794C250.175 12.8517 250.407 12.5614 250.706 12.3085C251.011 12.0556 251.376 11.8572 251.801 11.7135C252.227 11.5698 252.701 11.498 253.224 11.498C253.971 11.498 254.609 11.6302 255.138 11.8946C255.667 12.159 256.072 12.5126 256.354 12.9552C256.636 13.3921 256.777 13.8778 256.777 14.4124H255.181C255.181 14.1537 255.104 13.9037 254.949 13.6622C254.799 13.415 254.578 13.211 254.285 13.05C253.997 12.8891 253.644 12.8086 253.224 12.8086C252.781 12.8086 252.422 12.8776 252.146 13.0155C251.876 13.1477 251.678 13.3173 251.551 13.5243C251.431 13.7312 251.37 13.9496 251.37 14.1796C251.37 14.352 251.399 14.5072 251.456 14.6452C251.52 14.7774 251.629 14.901 251.784 15.016C251.939 15.1252 252.158 15.2287 252.439 15.3264C252.721 15.4241 253.08 15.5218 253.517 15.6195C254.282 15.792 254.911 15.9989 255.406 16.2404C255.9 16.4818 256.268 16.7778 256.509 17.1285C256.751 17.4791 256.871 17.9045 256.871 18.4046C256.871 18.8128 256.785 19.1864 256.613 19.5255C256.446 19.8647 256.202 20.1579 255.88 20.405C255.564 20.6465 255.184 20.8362 254.742 20.9741C254.305 21.1063 253.813 21.1725 253.267 21.1725C252.445 21.1725 251.75 21.0259 251.181 20.7327C250.611 20.4395 250.18 20.0601 249.887 19.5945C249.594 19.1289 249.447 18.6374 249.447 18.1201H251.051C251.074 18.5569 251.201 18.9047 251.431 19.1634C251.661 19.4163 251.942 19.5974 252.276 19.7066C252.609 19.8101 252.94 19.8618 253.267 19.8618C253.704 19.8618 254.069 19.8043 254.362 19.6894C254.661 19.5744 254.888 19.4163 255.043 19.2151C255.199 19.0139 255.276 18.784 255.276 18.5253ZM260.562 13.4639V24.587H258.958V11.6704H260.424L260.562 13.4639ZM266.848 16.2576V16.4387C266.848 17.117 266.767 17.7464 266.606 18.327C266.445 18.9019 266.21 19.402 265.899 19.8273C265.595 20.2527 265.218 20.5832 264.77 20.8189C264.321 21.0546 263.807 21.1725 263.226 21.1725C262.634 21.1725 262.111 21.0747 261.657 20.8793C261.203 20.6838 260.818 20.3993 260.502 20.0257C260.185 19.652 259.932 19.2036 259.743 18.6805C259.559 18.1574 259.432 17.5682 259.363 16.9129V15.9472C259.432 15.2574 259.562 14.6394 259.751 14.0934C259.941 13.5473 260.191 13.0816 260.502 12.6965C260.818 12.3056 261.2 12.0096 261.648 11.8084C262.097 11.6014 262.614 11.498 263.2 11.498C263.787 11.498 264.307 11.6129 264.761 11.8429C265.215 12.0671 265.597 12.389 265.908 12.8086C266.218 13.2282 266.451 13.7312 266.606 14.3175C266.767 14.8981 266.848 15.5448 266.848 16.2576ZM265.244 16.4387V16.2576C265.244 15.792 265.195 15.3551 265.097 14.947C265 14.5331 264.847 14.171 264.64 13.8605C264.439 13.5444 264.18 13.2972 263.864 13.119C263.548 12.9351 263.172 12.8431 262.735 12.8431C262.332 12.8431 261.982 12.9121 261.683 13.05C261.39 13.188 261.14 13.3748 260.933 13.6105C260.726 13.8404 260.556 14.1048 260.424 14.4038C260.297 14.6969 260.203 15.0016 260.139 15.3178V17.551C260.254 17.9534 260.415 18.3328 260.622 18.6892C260.829 19.0398 261.105 19.3244 261.45 19.5428C261.795 19.7555 262.229 19.8618 262.752 19.8618C263.183 19.8618 263.554 19.7727 263.864 19.5945C264.18 19.4106 264.439 19.1605 264.64 18.8444C264.847 18.5282 265 18.1661 265.097 17.7579C265.195 17.344 265.244 16.9043 265.244 16.4387ZM274.384 19.4048V14.6021C274.384 14.2342 274.309 13.9152 274.16 13.645C274.016 13.3691 273.797 13.1564 273.504 13.0069C273.211 12.8575 272.849 12.7827 272.418 12.7827C272.015 12.7827 271.662 12.8517 271.357 12.9897C271.058 13.1276 270.823 13.3087 270.65 13.5329C270.484 13.7571 270.4 13.9985 270.4 14.2572H268.805C268.805 13.9238 268.891 13.5932 269.064 13.2656C269.236 12.9379 269.483 12.6419 269.805 12.3775C270.133 12.1073 270.524 11.8946 270.978 11.7394C271.438 11.5784 271.949 11.498 272.513 11.498C273.191 11.498 273.789 11.6129 274.306 11.8429C274.829 12.0728 275.237 12.4206 275.531 12.8862C275.83 13.3461 275.979 13.9238 275.979 14.6193V18.9651C275.979 19.2755 276.005 19.606 276.057 19.9567C276.114 20.3073 276.197 20.6091 276.307 20.862V21H274.642C274.562 20.8161 274.499 20.5717 274.453 20.2671C274.407 19.9567 274.384 19.6693 274.384 19.4048ZM274.66 15.3436L274.677 16.4645H273.065C272.61 16.4645 272.205 16.5019 271.849 16.5766C271.492 16.6456 271.193 16.752 270.952 16.8957C270.711 17.0394 270.527 17.2205 270.4 17.4389C270.274 17.6516 270.21 17.9016 270.21 18.1891C270.21 18.4822 270.277 18.7495 270.409 18.9909C270.541 19.2324 270.739 19.425 271.004 19.5687C271.274 19.7066 271.604 19.7756 271.995 19.7756C272.484 19.7756 272.915 19.6721 273.289 19.4652C273.662 19.2582 273.958 19.0053 274.177 18.7064C274.401 18.4075 274.522 18.1172 274.539 17.8355L275.22 18.6029C275.18 18.8444 275.071 19.1117 274.893 19.4048C274.714 19.698 274.476 19.9797 274.177 20.2498C273.884 20.5143 273.533 20.7356 273.125 20.9138C272.723 21.0862 272.268 21.1725 271.763 21.1725C271.13 21.1725 270.576 21.0489 270.098 20.8017C269.627 20.5545 269.259 20.224 268.995 19.8101C268.736 19.3905 268.607 18.922 268.607 18.4046C268.607 17.9045 268.704 17.4648 268.9 17.0854C269.095 16.7002 269.377 16.3812 269.745 16.1283C270.113 15.8696 270.555 15.6741 271.073 15.5419C271.59 15.4097 272.168 15.3436 272.806 15.3436H274.66ZM282.222 19.8618C282.601 19.8618 282.952 19.7842 283.274 19.629C283.596 19.4738 283.86 19.2611 284.067 18.9909C284.274 18.715 284.392 18.4017 284.42 18.0511H285.938C285.909 18.6029 285.722 19.1174 285.378 19.5945C285.038 20.0659 284.593 20.4482 284.041 20.7413C283.489 21.0287 282.883 21.1725 282.222 21.1725C281.52 21.1725 280.908 21.0489 280.385 20.8017C279.868 20.5545 279.437 20.2153 279.092 19.7842C278.753 19.3531 278.497 18.8587 278.324 18.3011C278.158 17.7378 278.074 17.1429 278.074 16.5163V16.1541C278.074 15.5276 278.158 14.9355 278.324 14.3779C278.497 13.8146 278.753 13.3173 279.092 12.8862C279.437 12.4551 279.868 12.1159 280.385 11.8687C280.908 11.6216 281.52 11.498 282.222 11.498C282.952 11.498 283.59 11.6474 284.136 11.9463C284.682 12.2395 285.11 12.6419 285.421 13.1535C285.737 13.6594 285.909 14.2342 285.938 14.878H284.42C284.392 14.4929 284.282 14.1451 284.093 13.8347C283.909 13.5243 283.656 13.2771 283.334 13.0931C283.018 12.9034 282.647 12.8086 282.222 12.8086C281.733 12.8086 281.322 12.9063 280.989 13.1018C280.661 13.2915 280.399 13.5501 280.204 13.8778C280.014 14.1997 279.876 14.559 279.79 14.9556C279.71 15.3465 279.669 15.746 279.669 16.1541V16.5163C279.669 16.9244 279.71 17.3268 279.79 17.7234C279.871 18.1201 280.006 18.4793 280.195 18.8013C280.391 19.1232 280.652 19.3818 280.98 19.5773C281.313 19.767 281.727 19.8618 282.222 19.8618ZM291.603 21.1725C290.953 21.1725 290.364 21.0632 289.835 20.8448C289.312 20.6206 288.861 20.3073 288.482 19.9049C288.108 19.5026 287.821 19.0254 287.619 18.4736C287.418 17.9218 287.318 17.3182 287.318 16.6629V16.3007C287.318 15.5419 287.43 14.8665 287.654 14.2744C287.878 13.6766 288.183 13.1707 288.568 12.7569C288.953 12.343 289.39 12.0297 289.878 11.817C290.367 11.6043 290.873 11.498 291.396 11.498C292.063 11.498 292.638 11.6129 293.121 11.8429C293.609 12.0728 294.009 12.3947 294.319 12.8086C294.629 13.2167 294.859 13.6996 295.009 14.2572C295.158 14.809 295.233 15.4126 295.233 16.0679V16.7836H288.266V15.4816H293.638V15.3609C293.615 14.947 293.529 14.5446 293.379 14.1537C293.236 13.7628 293.006 13.4409 292.689 13.188C292.373 12.9351 291.942 12.8086 291.396 12.8086C291.034 12.8086 290.7 12.8862 290.396 13.0414C290.091 13.1909 289.83 13.415 289.611 13.714C289.393 14.0129 289.223 14.3779 289.102 14.809C288.982 15.2401 288.921 15.7374 288.921 16.3007V16.6629C288.921 17.1055 288.982 17.5222 289.102 17.9131C289.229 18.2983 289.41 18.6374 289.646 18.9306C289.887 19.2238 290.177 19.4537 290.517 19.6204C290.861 19.7871 291.252 19.8704 291.689 19.8704C292.253 19.8704 292.73 19.7555 293.121 19.5255C293.511 19.2956 293.853 18.9881 294.147 18.6029L295.112 19.3703C294.911 19.675 294.655 19.9653 294.345 20.2412C294.035 20.5171 293.652 20.7413 293.198 20.9138C292.75 21.0862 292.218 21.1725 291.603 21.1725ZM306.977 19.4048V14.6021C306.977 14.2342 306.902 13.9152 306.753 13.645C306.609 13.3691 306.391 13.1564 306.097 13.0069C305.804 12.8575 305.442 12.7827 305.011 12.7827C304.609 12.7827 304.255 12.8517 303.95 12.9897C303.652 13.1276 303.416 13.3087 303.243 13.5329C303.077 13.7571 302.993 13.9985 302.993 14.2572H301.398C301.398 13.9238 301.484 13.5932 301.657 13.2656C301.829 12.9379 302.076 12.6419 302.398 12.3775C302.726 12.1073 303.117 11.8946 303.571 11.7394C304.031 11.5784 304.543 11.498 305.106 11.498C305.784 11.498 306.382 11.6129 306.899 11.8429C307.422 12.0728 307.831 12.4206 308.124 12.8862C308.423 13.3461 308.572 13.9238 308.572 14.6193V18.9651C308.572 19.2755 308.598 19.606 308.65 19.9567C308.707 20.3073 308.791 20.6091 308.9 20.862V21H307.236C307.155 20.8161 307.092 20.5717 307.046 20.2671C307 19.9567 306.977 19.6693 306.977 19.4048ZM307.253 15.3436L307.27 16.4645H305.658C305.204 16.4645 304.798 16.5019 304.442 16.5766C304.086 16.6456 303.787 16.752 303.545 16.8957C303.304 17.0394 303.12 17.2205 302.993 17.4389C302.867 17.6516 302.804 17.9016 302.804 18.1891C302.804 18.4822 302.87 18.7495 303.002 18.9909C303.134 19.2324 303.333 19.425 303.597 19.5687C303.867 19.7066 304.198 19.7756 304.589 19.7756C305.077 19.7756 305.508 19.6721 305.882 19.4652C306.256 19.2582 306.552 19.0053 306.77 18.7064C306.994 18.4075 307.115 18.1172 307.132 17.8355L307.813 18.6029C307.773 18.8444 307.664 19.1117 307.486 19.4048C307.307 19.698 307.069 19.9797 306.77 20.2498C306.477 20.5143 306.126 20.7356 305.718 20.9138C305.316 21.0862 304.862 21.1725 304.356 21.1725C303.723 21.1725 303.169 21.0489 302.692 20.8017C302.22 20.5545 301.852 20.224 301.588 19.8101C301.329 19.3905 301.2 18.922 301.2 18.4046C301.2 17.9045 301.298 17.4648 301.493 17.0854C301.688 16.7002 301.97 16.3812 302.338 16.1283C302.706 15.8696 303.149 15.6741 303.666 15.5419C304.183 15.4097 304.761 15.3436 305.399 15.3436H307.253ZM312.676 13.6622V21H311.081V11.6704H312.59L312.676 13.6622ZM312.297 15.9817L311.633 15.9558C311.639 15.3178 311.734 14.7285 311.918 14.1882C312.102 13.6421 312.36 13.1679 312.694 12.7655C313.027 12.3631 313.424 12.0527 313.884 11.8342C314.349 11.6101 314.864 11.498 315.427 11.498C315.887 11.498 316.301 11.5612 316.669 11.6877C317.037 11.8084 317.35 12.0038 317.609 12.274C317.873 12.5442 318.074 12.8948 318.212 13.3259C318.35 13.7513 318.419 14.2716 318.419 14.8866V21H316.815V14.8694C316.815 14.3808 316.743 13.9899 316.6 13.6967C316.456 13.3978 316.246 13.1822 315.97 13.05C315.694 12.9121 315.355 12.8431 314.953 12.8431C314.556 12.8431 314.194 12.9264 313.866 13.0931C313.544 13.2598 313.266 13.4898 313.03 13.7829C312.8 14.0761 312.619 14.4124 312.487 14.7918C312.36 15.1654 312.297 15.5621 312.297 15.9817ZM326.723 19.1893V7.75579H328.326V21H326.861L326.723 19.1893ZM320.445 16.4387V16.2576C320.445 15.5448 320.532 14.8981 320.704 14.3175C320.882 13.7312 321.132 13.2282 321.454 12.8086C321.782 12.389 322.17 12.0671 322.618 11.8429C323.072 11.6129 323.578 11.498 324.136 11.498C324.722 11.498 325.234 11.6014 325.671 11.8084C326.113 12.0096 326.487 12.3056 326.792 12.6965C327.102 13.0816 327.346 13.5473 327.524 14.0934C327.703 14.6394 327.826 15.2574 327.895 15.9472V16.7405C327.832 17.4245 327.708 18.0396 327.524 18.5857C327.346 19.1318 327.102 19.5974 326.792 19.9825C326.487 20.3677 326.113 20.6637 325.671 20.8707C325.228 21.0719 324.711 21.1725 324.119 21.1725C323.572 21.1725 323.072 21.0546 322.618 20.8189C322.17 20.5832 321.782 20.2527 321.454 19.8273C321.132 19.402 320.882 18.9019 320.704 18.327C320.532 17.7464 320.445 17.117 320.445 16.4387ZM322.049 16.2576V16.4387C322.049 16.9043 322.095 17.3412 322.187 17.7493C322.285 18.1574 322.434 18.5167 322.635 18.8271C322.837 19.1375 323.092 19.3818 323.403 19.56C323.713 19.7325 324.084 19.8187 324.515 19.8187C325.044 19.8187 325.478 19.7066 325.817 19.4824C326.162 19.2582 326.438 18.9622 326.645 18.5943C326.852 18.2264 327.013 17.8269 327.128 17.3958V15.3178C327.059 15.0016 326.958 14.6969 326.826 14.4038C326.7 14.1048 326.533 13.8404 326.326 13.6105C326.125 13.3748 325.875 13.188 325.576 13.05C325.283 12.9121 324.935 12.8431 324.532 12.8431C324.096 12.8431 323.719 12.9351 323.403 13.119C323.092 13.2972 322.837 13.5444 322.635 13.8605C322.434 14.171 322.285 14.5331 322.187 14.947C322.095 15.3551 322.049 15.792 322.049 16.2576ZM338.923 19.8618C339.303 19.8618 339.653 19.7842 339.975 19.629C340.297 19.4738 340.562 19.2611 340.769 18.9909C340.976 18.715 341.093 18.4017 341.122 18.0511H342.64C342.611 18.6029 342.424 19.1174 342.079 19.5945C341.74 20.0659 341.295 20.4482 340.743 20.7413C340.191 21.0287 339.585 21.1725 338.923 21.1725C338.222 21.1725 337.61 21.0489 337.087 20.8017C336.57 20.5545 336.138 20.2153 335.793 19.7842C335.454 19.3531 335.199 18.8587 335.026 18.3011C334.859 17.7378 334.776 17.1429 334.776 16.5163V16.1541C334.776 15.5276 334.859 14.9355 335.026 14.3779C335.199 13.8146 335.454 13.3173 335.793 12.8862C336.138 12.4551 336.57 12.1159 337.087 11.8687C337.61 11.6216 338.222 11.498 338.923 11.498C339.653 11.498 340.292 11.6474 340.838 11.9463C341.384 12.2395 341.812 12.6419 342.122 13.1535C342.439 13.6594 342.611 14.2342 342.64 14.878H341.122C341.093 14.4929 340.984 14.1451 340.795 13.8347C340.611 13.5243 340.358 13.2771 340.036 13.0931C339.72 12.9034 339.349 12.8086 338.923 12.8086C338.435 12.8086 338.024 12.9063 337.69 13.1018C337.363 13.2915 337.101 13.5501 336.906 13.8778C336.716 14.1997 336.578 14.559 336.492 14.9556C336.411 15.3465 336.371 15.746 336.371 16.1541V16.5163C336.371 16.9244 336.411 17.3268 336.492 17.7234C336.572 18.1201 336.707 18.4793 336.897 18.8013C337.093 19.1232 337.354 19.3818 337.682 19.5773C338.015 19.767 338.429 19.8618 338.923 19.8618ZM346.166 7.75579V21H344.563V7.75579H346.166ZM350.46 11.6704V21H348.857V11.6704H350.46ZM348.736 9.19575C348.736 8.93708 348.813 8.71864 348.969 8.54044C349.13 8.36224 349.365 8.27314 349.676 8.27314C349.98 8.27314 350.213 8.36224 350.374 8.54044C350.541 8.71864 350.624 8.93708 350.624 9.19575C350.624 9.44293 350.541 9.65562 350.374 9.83382C350.213 10.0063 349.98 10.0925 349.676 10.0925C349.365 10.0925 349.13 10.0063 348.969 9.83382C348.813 9.65562 348.736 9.44293 348.736 9.19575ZM356.893 21.1725C356.243 21.1725 355.654 21.0632 355.125 20.8448C354.602 20.6206 354.151 20.3073 353.771 19.9049C353.398 19.5026 353.11 19.0254 352.909 18.4736C352.708 17.9218 352.607 17.3182 352.607 16.6629V16.3007C352.607 15.5419 352.719 14.8665 352.944 14.2744C353.168 13.6766 353.473 13.1707 353.858 12.7569C354.243 12.343 354.68 12.0297 355.168 11.817C355.657 11.6043 356.163 11.498 356.686 11.498C357.353 11.498 357.928 11.6129 358.41 11.8429C358.899 12.0728 359.298 12.3947 359.609 12.8086C359.919 13.2167 360.149 13.6996 360.299 14.2572C360.448 14.809 360.523 15.4126 360.523 16.0679V16.7836H353.556V15.4816H358.928V15.3609C358.905 14.947 358.819 14.5446 358.669 14.1537C358.525 13.7628 358.295 13.4409 357.979 13.188C357.663 12.9351 357.232 12.8086 356.686 12.8086C356.324 12.8086 355.99 12.8862 355.686 13.0414C355.381 13.1909 355.119 13.415 354.901 13.714C354.683 14.0129 354.513 14.3779 354.392 14.809C354.272 15.2401 354.211 15.7374 354.211 16.3007V16.6629C354.211 17.1055 354.272 17.5222 354.392 17.9131C354.519 18.2983 354.7 18.6374 354.935 18.9306C355.177 19.2238 355.467 19.4537 355.806 19.6204C356.151 19.7871 356.542 19.8704 356.979 19.8704C357.542 19.8704 358.019 19.7555 358.41 19.5255C358.801 19.2956 359.143 18.9881 359.436 18.6029L360.402 19.3703C360.201 19.675 359.945 19.9653 359.635 20.2412C359.324 20.5171 358.942 20.7413 358.488 20.9138C358.04 21.0862 357.508 21.1725 356.893 21.1725ZM363.981 13.6622V21H362.385V11.6704H363.894L363.981 13.6622ZM363.601 15.9817L362.937 15.9558C362.943 15.3178 363.038 14.7285 363.222 14.1882C363.406 13.6421 363.664 13.1679 363.998 12.7655C364.331 12.3631 364.728 12.0527 365.188 11.8342C365.653 11.6101 366.168 11.498 366.731 11.498C367.191 11.498 367.605 11.5612 367.973 11.6877C368.341 11.8084 368.654 12.0038 368.913 12.274C369.177 12.5442 369.378 12.8948 369.516 13.3259C369.654 13.7513 369.723 14.2716 369.723 14.8866V21H368.119V14.8694C368.119 14.3808 368.047 13.9899 367.904 13.6967C367.76 13.3978 367.55 13.1822 367.274 13.05C366.998 12.9121 366.659 12.8431 366.257 12.8431C365.86 12.8431 365.498 12.9264 365.17 13.0931C364.849 13.2598 364.57 13.4898 364.334 13.7829C364.104 14.0761 363.923 14.4124 363.791 14.7918C363.664 15.1654 363.601 15.5621 363.601 15.9817ZM376.052 11.6704V12.8948H371.008V11.6704H376.052ZM372.715 9.40269H374.31V18.6892C374.31 19.0053 374.359 19.2439 374.457 19.4048C374.555 19.5658 374.681 19.6721 374.836 19.7239C374.992 19.7756 375.158 19.8015 375.336 19.8015C375.469 19.8015 375.607 19.79 375.75 19.767C375.9 19.7382 376.012 19.7152 376.087 19.698L376.095 21C375.969 21.0402 375.802 21.0776 375.595 21.1121C375.394 21.1523 375.15 21.1725 374.862 21.1725C374.471 21.1725 374.112 21.0948 373.784 20.9396C373.457 20.7844 373.195 20.5258 373 20.1636C372.81 19.7957 372.715 19.3014 372.715 18.6805V9.40269ZM387.805 19.4048V14.6021C387.805 14.2342 387.73 13.9152 387.58 13.645C387.437 13.3691 387.218 13.1564 386.925 13.0069C386.632 12.8575 386.27 12.7827 385.839 12.7827C385.436 12.7827 385.083 12.8517 384.778 12.9897C384.479 13.1276 384.243 13.3087 384.071 13.5329C383.904 13.7571 383.821 13.9985 383.821 14.2572H382.226C382.226 13.9238 382.312 13.5932 382.484 13.2656C382.657 12.9379 382.904 12.6419 383.226 12.3775C383.554 12.1073 383.945 11.8946 384.399 11.7394C384.859 11.5784 385.37 11.498 385.933 11.498C386.612 11.498 387.21 11.6129 387.727 11.8429C388.25 12.0728 388.658 12.4206 388.951 12.8862C389.25 13.3461 389.4 13.9238 389.4 14.6193V18.9651C389.4 19.2755 389.426 19.606 389.477 19.9567C389.535 20.3073 389.618 20.6091 389.727 20.862V21H388.063C387.983 20.8161 387.92 20.5717 387.874 20.2671C387.828 19.9567 387.805 19.6693 387.805 19.4048ZM388.08 15.3436L388.098 16.4645H386.485C386.031 16.4645 385.626 16.5019 385.27 16.5766C384.913 16.6456 384.614 16.752 384.373 16.8957C384.131 17.0394 383.947 17.2205 383.821 17.4389C383.694 17.6516 383.631 17.9016 383.631 18.1891C383.631 18.4822 383.697 18.7495 383.83 18.9909C383.962 19.2324 384.16 19.425 384.425 19.5687C384.695 19.7066 385.025 19.7756 385.416 19.7756C385.905 19.7756 386.336 19.6721 386.71 19.4652C387.083 19.2582 387.379 19.0053 387.598 18.7064C387.822 18.4075 387.943 18.1172 387.96 17.8355L388.641 18.6029C388.601 18.8444 388.491 19.1117 388.313 19.4048C388.135 19.698 387.897 19.9797 387.598 20.2498C387.304 20.5143 386.954 20.7356 386.546 20.9138C386.143 21.0862 385.689 21.1725 385.183 21.1725C384.551 21.1725 383.996 21.0489 383.519 20.8017C383.048 20.5545 382.68 20.224 382.415 19.8101C382.157 19.3905 382.027 18.922 382.027 18.4046C382.027 17.9045 382.125 17.4648 382.321 17.0854C382.516 16.7002 382.798 16.3812 383.166 16.1283C383.534 15.8696 383.976 15.6741 384.494 15.5419C385.011 15.4097 385.589 15.3436 386.227 15.3436H388.08ZM397.341 18.5253C397.341 18.2954 397.289 18.0827 397.186 17.8873C397.088 17.6861 396.884 17.505 396.574 17.344C396.269 17.1773 395.809 17.0336 395.194 16.9129C394.677 16.8037 394.208 16.6744 393.789 16.5249C393.375 16.3754 393.021 16.1944 392.728 15.9817C392.441 15.769 392.219 15.5189 392.064 15.2315C391.909 14.9441 391.831 14.6078 391.831 14.2227C391.831 13.8548 391.912 13.507 392.073 13.1794C392.239 12.8517 392.472 12.5614 392.771 12.3085C393.076 12.0556 393.441 11.8572 393.866 11.7135C394.292 11.5698 394.766 11.498 395.289 11.498C396.036 11.498 396.674 11.6302 397.203 11.8946C397.732 12.159 398.137 12.5126 398.419 12.9552C398.701 13.3921 398.841 13.8778 398.841 14.4124H397.246C397.246 14.1537 397.169 13.9037 397.013 13.6622C396.864 13.415 396.643 13.211 396.35 13.05C396.062 12.8891 395.709 12.8086 395.289 12.8086C394.846 12.8086 394.487 12.8776 394.211 13.0155C393.941 13.1477 393.743 13.3173 393.616 13.5243C393.495 13.7312 393.435 13.9496 393.435 14.1796C393.435 14.352 393.464 14.5072 393.521 14.6452C393.585 14.7774 393.694 14.901 393.849 15.016C394.004 15.1252 394.223 15.2287 394.504 15.3264C394.786 15.4241 395.145 15.5218 395.582 15.6195C396.347 15.792 396.976 15.9989 397.47 16.2404C397.965 16.4818 398.333 16.7778 398.574 17.1285C398.816 17.4791 398.936 17.9045 398.936 18.4046C398.936 18.8128 398.85 19.1864 398.678 19.5255C398.511 19.8647 398.267 20.1579 397.945 20.405C397.629 20.6465 397.249 20.8362 396.807 20.9741C396.37 21.1063 395.878 21.1725 395.332 21.1725C394.51 21.1725 393.815 21.0259 393.245 20.7327C392.676 20.4395 392.245 20.0601 391.952 19.5945C391.659 19.1289 391.512 18.6374 391.512 18.1201H393.116C393.139 18.5569 393.266 18.9047 393.495 19.1634C393.725 19.4163 394.007 19.5974 394.34 19.7066C394.674 19.8101 395.004 19.8618 395.332 19.8618C395.769 19.8618 396.134 19.8043 396.427 19.6894C396.726 19.5744 396.953 19.4163 397.108 19.2151C397.264 19.0139 397.341 18.784 397.341 18.5253ZM406.464 18.5253C406.464 18.2954 406.412 18.0827 406.309 17.8873C406.211 17.6861 406.007 17.505 405.696 17.344C405.392 17.1773 404.932 17.0336 404.317 16.9129C403.799 16.8037 403.331 16.6744 402.911 16.5249C402.497 16.3754 402.144 16.1944 401.851 15.9817C401.563 15.769 401.342 15.5189 401.187 15.2315C401.032 14.9441 400.954 14.6078 400.954 14.2227C400.954 13.8548 401.034 13.507 401.195 13.1794C401.362 12.8517 401.595 12.5614 401.894 12.3085C402.198 12.0556 402.563 11.8572 402.989 11.7135C403.414 11.5698 403.888 11.498 404.412 11.498C405.159 11.498 405.797 11.6302 406.326 11.8946C406.855 12.159 407.26 12.5126 407.542 12.9552C407.823 13.3921 407.964 13.8778 407.964 14.4124H406.369C406.369 14.1537 406.291 13.9037 406.136 13.6622C405.987 13.415 405.765 13.211 405.472 13.05C405.185 12.8891 404.831 12.8086 404.412 12.8086C403.969 12.8086 403.61 12.8776 403.334 13.0155C403.064 13.1477 402.865 13.3173 402.739 13.5243C402.618 13.7312 402.558 13.9496 402.558 14.1796C402.558 14.352 402.586 14.5072 402.644 14.6452C402.707 14.7774 402.816 14.901 402.972 15.016C403.127 15.1252 403.345 15.2287 403.627 15.3264C403.909 15.4241 404.268 15.5218 404.705 15.6195C405.469 15.792 406.099 15.9989 406.593 16.2404C407.087 16.4818 407.455 16.7778 407.697 17.1285C407.938 17.4791 408.059 17.9045 408.059 18.4046C408.059 18.8128 407.973 19.1864 407.8 19.5255C407.634 19.8647 407.389 20.1579 407.067 20.405C406.751 20.6465 406.372 20.8362 405.929 20.9741C405.492 21.1063 405.001 21.1725 404.455 21.1725C403.633 21.1725 402.937 21.0259 402.368 20.7327C401.799 20.4395 401.368 20.0601 401.075 19.5945C400.781 19.1289 400.635 18.6374 400.635 18.1201H402.239C402.262 18.5569 402.388 18.9047 402.618 19.1634C402.848 19.4163 403.13 19.5974 403.463 19.7066C403.797 19.8101 404.127 19.8618 404.455 19.8618C404.892 19.8618 405.257 19.8043 405.55 19.6894C405.849 19.5744 406.076 19.4163 406.231 19.2151C406.386 19.0139 406.464 18.784 406.464 18.5253ZM411.887 11.6704V21H410.284V11.6704H411.887ZM410.163 9.19575C410.163 8.93708 410.24 8.71864 410.396 8.54044C410.557 8.36224 410.792 8.27314 411.103 8.27314C411.407 8.27314 411.64 8.36224 411.801 8.54044C411.968 8.71864 412.051 8.93708 412.051 9.19575C412.051 9.44293 411.968 9.65562 411.801 9.83382C411.64 10.0063 411.407 10.0925 411.103 10.0925C410.792 10.0925 410.557 10.0063 410.396 9.83382C410.24 9.65562 410.163 9.44293 410.163 9.19575ZM419.88 18.5253C419.88 18.2954 419.829 18.0827 419.725 17.8873C419.627 17.6861 419.423 17.505 419.113 17.344C418.808 17.1773 418.348 17.0336 417.733 16.9129C417.216 16.8037 416.748 16.6744 416.328 16.5249C415.914 16.3754 415.561 16.1944 415.267 15.9817C414.98 15.769 414.759 15.5189 414.603 15.2315C414.448 14.9441 414.371 14.6078 414.371 14.2227C414.371 13.8548 414.451 13.507 414.612 13.1794C414.779 12.8517 415.012 12.5614 415.31 12.3085C415.615 12.0556 415.98 11.8572 416.406 11.7135C416.831 11.5698 417.305 11.498 417.828 11.498C418.576 11.498 419.214 11.6302 419.742 11.8946C420.271 12.159 420.677 12.5126 420.958 12.9552C421.24 13.3921 421.381 13.8778 421.381 14.4124H419.786C419.786 14.1537 419.708 13.9037 419.553 13.6622C419.403 13.415 419.182 13.211 418.889 13.05C418.601 12.8891 418.248 12.8086 417.828 12.8086C417.386 12.8086 417.026 12.8776 416.75 13.0155C416.48 13.1477 416.282 13.3173 416.155 13.5243C416.035 13.7312 415.974 13.9496 415.974 14.1796C415.974 14.352 416.003 14.5072 416.061 14.6452C416.124 14.7774 416.233 14.901 416.388 15.016C416.543 15.1252 416.762 15.2287 417.044 15.3264C417.325 15.4241 417.685 15.5218 418.121 15.6195C418.886 15.792 419.515 15.9989 420.01 16.2404C420.504 16.4818 420.872 16.7778 421.113 17.1285C421.355 17.4791 421.476 17.9045 421.476 18.4046C421.476 18.8128 421.389 19.1864 421.217 19.5255C421.05 19.8647 420.806 20.1579 420.484 20.405C420.168 20.6465 419.788 20.8362 419.346 20.9741C418.909 21.1063 418.417 21.1725 417.871 21.1725C417.049 21.1725 416.354 21.0259 415.785 20.7327C415.216 20.4395 414.784 20.0601 414.491 19.5945C414.198 19.1289 414.052 18.6374 414.052 18.1201H415.655C415.678 18.5569 415.805 18.9047 416.035 19.1634C416.265 19.4163 416.546 19.5974 416.88 19.7066C417.213 19.8101 417.544 19.8618 417.871 19.8618C418.308 19.8618 418.673 19.8043 418.966 19.6894C419.265 19.5744 419.492 19.4163 419.648 19.2151C419.803 19.0139 419.88 18.784 419.88 18.5253ZM427.477 11.6704V12.8948H422.433V11.6704H427.477ZM424.14 9.40269H425.735V18.6892C425.735 19.0053 425.784 19.2439 425.882 19.4048C425.979 19.5658 426.106 19.6721 426.261 19.7239C426.416 19.7756 426.583 19.8015 426.761 19.8015C426.893 19.8015 427.031 19.79 427.175 19.767C427.325 19.7382 427.437 19.7152 427.511 19.698L427.52 21C427.394 21.0402 427.227 21.0776 427.02 21.1121C426.819 21.1523 426.574 21.1725 426.287 21.1725C425.896 21.1725 425.537 21.0948 425.209 20.9396C424.881 20.7844 424.62 20.5258 424.424 20.1636C424.235 19.7957 424.14 19.3014 424.14 18.6805V9.40269ZM434.849 19.4048V14.6021C434.849 14.2342 434.774 13.9152 434.625 13.645C434.481 13.3691 434.263 13.1564 433.97 13.0069C433.676 12.8575 433.314 12.7827 432.883 12.7827C432.481 12.7827 432.127 12.8517 431.823 12.9897C431.524 13.1276 431.288 13.3087 431.116 13.5329C430.949 13.7571 430.866 13.9985 430.866 14.2572H429.27C429.27 13.9238 429.357 13.5932 429.529 13.2656C429.701 12.9379 429.949 12.6419 430.271 12.3775C430.598 12.1073 430.989 11.8946 431.443 11.7394C431.903 11.5784 432.415 11.498 432.978 11.498C433.656 11.498 434.254 11.6129 434.772 11.8429C435.295 12.0728 435.703 12.4206 435.996 12.8862C436.295 13.3461 436.444 13.9238 436.444 14.6193V18.9651C436.444 19.2755 436.47 19.606 436.522 19.9567C436.579 20.3073 436.663 20.6091 436.772 20.862V21H435.108C435.027 20.8161 434.964 20.5717 434.918 20.2671C434.872 19.9567 434.849 19.6693 434.849 19.4048ZM435.125 15.3436L435.142 16.4645H433.53C433.076 16.4645 432.67 16.5019 432.314 16.5766C431.958 16.6456 431.659 16.752 431.417 16.8957C431.176 17.0394 430.992 17.2205 430.866 17.4389C430.739 17.6516 430.676 17.9016 430.676 18.1891C430.676 18.4822 430.742 18.7495 430.874 18.9909C431.006 19.2324 431.205 19.425 431.469 19.5687C431.739 19.7066 432.07 19.7756 432.461 19.7756C432.949 19.7756 433.38 19.6721 433.754 19.4652C434.128 19.2582 434.424 19.0053 434.642 18.7064C434.866 18.4075 434.987 18.1172 435.004 17.8355L435.686 18.6029C435.645 18.8444 435.536 19.1117 435.358 19.4048C435.18 19.698 434.941 19.9797 434.642 20.2498C434.349 20.5143 433.998 20.7356 433.59 20.9138C433.188 21.0862 432.734 21.1725 432.228 21.1725C431.596 21.1725 431.041 21.0489 430.564 20.8017C430.092 20.5545 429.724 20.224 429.46 19.8101C429.201 19.3905 429.072 18.922 429.072 18.4046C429.072 17.9045 429.17 17.4648 429.365 17.0854C429.561 16.7002 429.842 16.3812 430.21 16.1283C430.578 15.8696 431.021 15.6741 431.538 15.5419C432.055 15.4097 432.633 15.3436 433.271 15.3436H435.125ZM440.549 13.6622V21H438.953V11.6704H440.462L440.549 13.6622ZM440.169 15.9817L439.505 15.9558C439.511 15.3178 439.606 14.7285 439.79 14.1882C439.974 13.6421 440.232 13.1679 440.566 12.7655C440.899 12.3631 441.296 12.0527 441.756 11.8342C442.221 11.6101 442.736 11.498 443.299 11.498C443.759 11.498 444.173 11.5612 444.541 11.6877C444.909 11.8084 445.222 12.0038 445.481 12.274C445.745 12.5442 445.946 12.8948 446.084 13.3259C446.222 13.7513 446.291 14.2716 446.291 14.8866V21H444.687V14.8694C444.687 14.3808 444.616 13.9899 444.472 13.6967C444.328 13.3978 444.118 13.1822 443.842 13.05C443.567 12.9121 443.227 12.8431 442.825 12.8431C442.428 12.8431 442.066 12.9264 441.739 13.0931C441.417 13.2598 441.138 13.4898 440.902 13.7829C440.672 14.0761 440.491 14.4124 440.359 14.7918C440.232 15.1654 440.169 15.5621 440.169 15.9817ZM452.448 19.8618C452.827 19.8618 453.178 19.7842 453.5 19.629C453.822 19.4738 454.086 19.2611 454.293 18.9909C454.5 18.715 454.618 18.4017 454.646 18.0511H456.164C456.135 18.6029 455.948 19.1174 455.604 19.5945C455.264 20.0659 454.819 20.4482 454.267 20.7413C453.715 21.0287 453.109 21.1725 452.448 21.1725C451.746 21.1725 451.134 21.0489 450.611 20.8017C450.094 20.5545 449.663 20.2153 449.318 19.7842C448.979 19.3531 448.723 18.8587 448.55 18.3011C448.384 17.7378 448.3 17.1429 448.3 16.5163V16.1541C448.3 15.5276 448.384 14.9355 448.55 14.3779C448.723 13.8146 448.979 13.3173 449.318 12.8862C449.663 12.4551 450.094 12.1159 450.611 11.8687C451.134 11.6216 451.746 11.498 452.448 11.498C453.178 11.498 453.816 11.6474 454.362 11.9463C454.908 12.2395 455.336 12.6419 455.647 13.1535C455.963 13.6594 456.135 14.2342 456.164 14.878H454.646C454.618 14.4929 454.509 14.1451 454.319 13.8347C454.135 13.5243 453.882 13.2771 453.56 13.0931C453.244 12.9034 452.873 12.8086 452.448 12.8086C451.959 12.8086 451.548 12.9063 451.215 13.1018C450.887 13.2915 450.625 13.5501 450.43 13.8778C450.24 14.1997 450.102 14.559 450.016 14.9556C449.936 15.3465 449.895 15.746 449.895 16.1541V16.5163C449.895 16.9244 449.936 17.3268 450.016 17.7234C450.097 18.1201 450.232 18.4793 450.421 18.8013C450.617 19.1232 450.878 19.3818 451.206 19.5773C451.539 19.767 451.953 19.8618 452.448 19.8618ZM461.829 21.1725C461.179 21.1725 460.59 21.0632 460.061 20.8448C459.538 20.6206 459.087 20.3073 458.708 19.9049C458.334 19.5026 458.047 19.0254 457.845 18.4736C457.644 17.9218 457.544 17.3182 457.544 16.6629V16.3007C457.544 15.5419 457.656 14.8665 457.88 14.2744C458.104 13.6766 458.409 13.1707 458.794 12.7569C459.179 12.343 459.616 12.0297 460.105 11.817C460.593 11.6043 461.099 11.498 461.622 11.498C462.289 11.498 462.864 11.6129 463.347 11.8429C463.835 12.0728 464.235 12.3947 464.545 12.8086C464.856 13.2167 465.085 13.6996 465.235 14.2572C465.384 14.809 465.459 15.4126 465.459 16.0679V16.7836H458.492V15.4816H463.864V15.3609C463.841 14.947 463.755 14.5446 463.605 14.1537C463.462 13.7628 463.232 13.4409 462.915 13.188C462.599 12.9351 462.168 12.8086 461.622 12.8086C461.26 12.8086 460.927 12.8862 460.622 13.0414C460.317 13.1909 460.056 13.415 459.837 13.714C459.619 14.0129 459.449 14.3779 459.328 14.809C459.208 15.2401 459.147 15.7374 459.147 16.3007V16.6629C459.147 17.1055 459.208 17.5222 459.328 17.9131C459.455 18.2983 459.636 18.6374 459.872 18.9306C460.113 19.2238 460.403 19.4537 460.743 19.6204C461.087 19.7871 461.478 19.8704 461.915 19.8704C462.479 19.8704 462.956 19.7555 463.347 19.5255C463.737 19.2956 464.08 18.9881 464.373 18.6029L465.338 19.3703C465.137 19.675 464.881 19.9653 464.571 20.2412C464.261 20.5171 463.878 20.7413 463.424 20.9138C462.976 21.0862 462.444 21.1725 461.829 21.1725Z" fill="#B2B2B2"/>
</svg>
