<svg width="154" height="111" viewBox="0 0 154 111" fill="none" xmlns="http://www.w3.org/2000/svg">
<path d="M112.799 35.2498L111.513 39.1869L111.017 40.6911L108.296 39.1869L104.619 37.1498L105.837 39.1869L106.607 40.4685L104.211 39.1869L102.848 38.4584L102.173 38.0964L101.078 37.5095L100.776 37.3476L101.094 36.754L101.43 36.9317L102.173 37.3319L102.848 37.6916L104.774 38.7214L102.848 35.5174L102.747 35.3443L102.848 35.4005L109.688 39.1869L110.63 39.7085L110.799 39.1869L111.947 35.6815L103.806 33.0374L103.31 32.8755L103.515 32.2324L104.168 32.4415L112.799 35.2498Z" fill="black"/>
<path d="M80.4009 24.8408C79.2546 22.3676 76.347 21.2591 73.9259 22.3676C71.4845 23.5312 70.4476 26.4484 71.6084 28.888C72.4115 30.6447 74.1628 31.7764 76.097 31.7885C76.7823 31.789 77.4595 31.6401 78.0812 31.3523C79.7936 30.5506 80.8816 28.8268 80.8671 26.9386C80.8651 26.214 80.706 25.4984 80.4009 24.8408ZM77.7997 30.7475C75.6789 31.6234 73.2436 30.673 72.28 28.5935C71.3165 26.5139 72.1679 24.0457 74.2097 22.9994C74.7432 22.7524 75.3242 22.6243 75.9123 22.6239C77.5828 22.6361 79.0943 23.6152 79.7861 25.1331C80.7846 27.2314 79.8967 29.7408 77.7997 30.7475Z" fill="black"/>
<path d="M102.848 29.0989L102.173 28.919L92.7745 26.4053L81.6307 15.5925L81.2861 15.2597L81.0609 16.2535L81.4189 16.3322L81.6442 16.5458L92.3691 26.9539L92.4321 27.0146L102.173 29.6183L102.848 29.7982L104.691 30.2906L102.848 33.3125L102.173 34.421L99.2653 39.1877L98.7946 39.9611L97.5131 39.1877L88.3174 33.643L82.8829 27.4103C83.0743 25.7195 83.25 24.0084 83.3874 22.2839L82.7117 22.2299C82.4595 25.3777 82.0811 28.4896 81.7162 31.5025C81.4099 34.0072 81.0969 36.5907 80.8559 39.1877C80.8559 39.1877 80.8559 39.2034 80.8559 39.2101L80.7771 39.1877C78.1398 38.4749 66.505 35.3158 60.0975 33.5238C59.8858 33.4609 59.6606 33.4024 59.4331 33.344C58.9658 33.2355 58.5067 33.0943 58.0593 32.9212L70.0454 18.4323L69.3472 18.4165C69.1206 18.4606 68.9202 18.5913 68.7887 18.7808L66.568 20.0759L69.8157 15.9388L68.7234 14.203L68.3608 13.6274L66.9284 11.3542L66.7144 11.0147L65.746 9.47448L65.3766 8.88988L64.4758 7.45312L50.0415 26.7425L56.3746 33.0651L65.4329 21.5261L67.7257 20.1771L57.0098 33.1326L57.3543 33.3417C57.9572 33.6487 58.5978 33.8755 59.2597 34.0162C59.4849 34.0747 59.6966 34.1309 59.9083 34.1916C61.5614 34.6548 63.5636 35.2079 65.6694 35.788L65.496 39.1877L65.4059 40.9864H66.0816L66.1739 39.1877L66.3406 35.9499C70.6535 37.1371 75.2862 38.3985 78.1983 39.1877L78.9776 39.399L79.0406 40.9864H79.7163L79.6622 39.5856L81.0699 39.9656L81.4572 40.069L81.4933 39.6688C81.5068 39.5092 81.5226 39.3473 81.5383 39.1877C81.7748 36.6222 82.0856 34.0635 82.3874 31.5834C82.518 30.5087 82.6509 29.4182 82.7793 28.3209L87.876 34.1669L96.209 39.1899L99.0198 40.8875L100.056 39.1877L101.078 37.5103L101.43 36.9392L102.173 35.7206L102.848 34.6121L103.806 33.0382L104.166 32.4446L105.743 29.8724L102.848 29.0989ZM56.3093 32.0466L50.9311 26.6773L64.424 8.64255L68.9914 15.896L64.9757 21.009L64.9532 21.0225L56.3093 32.0466Z" fill="black"/>
<path d="M79.7409 41.6118L79.0675 41.6523L79.0697 41.7175L76.027 41.8299L76.0023 41.8321H75.9933L66.0183 42.2031L66.0521 41.5488H65.3765L65.3449 42.1604L65.3066 42.9069L65.5431 42.8979L71.9754 42.6573L72.3492 42.6438L72.606 42.6348H72.6127L75.8379 42.5134L75.8852 42.5112H75.9032L75.9482 42.5089L79.7702 42.3673L79.7679 42.2863L79.7409 41.6118Z" fill="black"/>
<path d="M70.4576 70.4622L86.1688 69.8573L81.8019 48.1823L81.6645 47.5078H80.9753L81.1104 48.1823L81.4843 50.0261L81.6329 50.7681L83.3649 59.3571L83.4977 60.0182L85.3513 69.2098L82.4708 69.32L81.714 69.3492L70.5342 69.7786L72.5229 52.2183L74.7277 52.0182L74.6647 51.3437L71.9148 51.5955L71.1918 57.9766L71.1152 58.6511L68.7572 79.4559L68.6086 80.7623L67.8856 87.1479L67.809 87.8224L66.3969 100.281L65.7213 100.378H65.7032L62.843 100.544L62.0232 93.2659L61.9466 92.5914L60.8363 82.7274L60.7394 81.8798L59.8318 73.7516L59.7575 73.0771L58.03 57.8507C57.994 57.5336 57.9715 57.2188 57.958 56.9041C57.9445 56.6792 57.94 56.4544 57.9422 56.2295C57.9563 53.3594 58.8249 50.5583 60.4376 48.1823C60.5908 47.9575 60.7529 47.7327 60.9218 47.5078H60.084L59.9309 47.7327C59.8881 47.7956 59.8453 47.8563 59.8048 47.9193L59.7147 48.0542C59.6854 48.0992 59.6561 48.1441 59.6291 48.1891C57.7841 51.0851 56.9818 54.5219 57.3544 57.9338L57.7305 61.2705L57.6945 61.1671L49.5843 64.0024L48.9087 64.2385V64.9512L49.5843 64.7151L54.4671 63.0221L55.19 62.7702L57.8048 61.8461L58.7665 70.3902L53.9018 70.6488L53.0933 70.6915L49.5866 70.8781L48.9109 70.9141V71.5886L49.5866 71.5527L58.8453 71.0625L62.2056 100.886L61.9286 100.924L62.057 108.969L66.4059 108.899L66.5996 107.119L68.6266 108.863L79.9663 108.679L67.0388 100.571L70.4576 70.4622ZM77.6849 108.043L68.8766 108.184L66.0658 105.772L65.7978 108.245L62.7236 108.294L62.6132 101.52L65.7798 101.07H65.7933L66.5073 101.03L77.6849 108.043Z" fill="black"/>
<path d="M117.375 41.5488V43.3476H59.0435V41.5488H79.0631L79.0676 41.6523L79.741 41.6118L79.7388 41.5488H117.375Z" fill="black"/>
<path d="M116.587 40.0869C116.587 40.5836 116.184 40.9863 115.686 40.9863H91.1372C90.6397 40.9863 90.2363 40.5836 90.2363 40.0869C90.2363 39.5902 90.6397 39.1875 91.1372 39.1875H97.5131L98.7946 39.961L99.2653 39.1875H109.686L110.628 39.7091L110.799 39.1875H115.686C116.184 39.1875 116.587 39.5902 116.587 40.0869Z" fill="black"/>
<path d="M85.7319 40.0869C85.7319 40.5836 85.3286 40.9863 84.831 40.9863H60.2822C59.7847 40.9863 59.3813 40.5836 59.3813 40.0869C59.3813 39.5902 59.7847 39.1875 60.2822 39.1875H84.831C85.3286 39.1875 85.7319 39.5902 85.7319 40.0869Z" fill="black"/>
<path d="M40.1497 110.147C0.608089 110.147 0.200444 109.943 0 109.844L0.299541 109.239C0.284502 109.231 0.268637 109.225 0.252245 109.221C2.33101 109.671 101.567 109.41 153.748 109.205V109.88C153.367 109.88 115.215 110.03 77.3986 110.104C62.1851 110.134 49.9602 110.147 40.1497 110.147Z" fill="black"/>
<path d="M111.069 102.593C106.565 103.043 101.385 104.392 103.186 101.244C104.988 98.0965 113.997 91.3512 108.141 91.8009C103.114 92.1876 99.4185 95.223 98.1866 97.4962C97.0065 93.802 95.734 87.9493 95.529 79.5491C97.0245 78.9286 107.173 74.5621 104.876 71.2299C102.623 67.9719 96.6326 77.5053 95.5223 79.3243C95.4705 76.9791 95.502 74.4362 95.6416 71.6908L94.966 71.6548C94.8804 73.3607 94.8331 74.9878 94.8241 76.5362C93.5403 74.7554 89.054 69.186 83.9303 70.3238C78.3786 71.5559 92.3489 76.1697 94.8218 76.9522C94.8218 78.4946 94.8496 79.9613 94.9052 81.3524C93.475 80.2979 87.1036 75.8032 85.5068 78.1933C83.8717 80.6419 93.1642 81.4221 94.9142 81.548C94.975 82.9668 95.0696 84.3091 95.1867 85.5727C93.6552 84.7093 88.6441 82.1483 86.1779 84.0393C83.5789 86.0359 93.0494 85.9055 95.207 85.8515C95.3826 87.6795 95.6101 89.3433 95.8668 90.852C93.9998 90.2247 86.7072 87.9291 85.732 89.8852C84.732 91.8818 93.8534 91.2118 95.9029 91.0364C96.3275 93.5802 96.9572 96.0856 97.7857 98.5282C97.7847 98.5327 97.7847 98.5373 97.7857 98.5417C97.3353 100.79 94.6326 97.4175 91.93 97.8672C89.2274 98.3169 89.9031 100.565 91.93 102.589C93.957 104.613 85.3987 103.938 90.3535 107.985H110.623C110.623 107.985 115.573 102.144 111.069 102.593Z" fill="#FF9595"/>
<path d="M95.9858 83.9511C95.9858 83.9511 106.227 81.1204 105.551 78.1974C104.875 75.2744 95.9858 83.9511 95.9858 83.9511Z" fill="black"/>
<path d="M100.371 65.3809C98.3439 62.9076 96.5421 72.1263 95.9858 73.0526C95.9858 73.0526 102.398 67.8542 100.371 65.3809Z" fill="black"/>
<path d="M104.425 84.0443C101.272 82.4704 96.4678 88.9211 96.4678 88.9211C96.4678 88.9211 107.578 85.6182 104.425 84.0443Z" fill="black"/>
<path d="M48.9087 43.2344V43.9089H128.298V47.5064H48.9087V48.181H128.974V43.2344H48.9087Z" fill="black"/>
<path d="M82.0111 3.78131L88.2879 1.29004L88.0379 0.664968L81.7881 3.13826C81.3535 2.50195 80.4368 1.30353 79.1688 0.584024L79.1891 0.523317C79.099 0.494087 79.0112 0.473851 78.9233 0.451367H78.9098C78.4957 0.241134 78.0499 0.0998696 77.5901 0.0331558C76.464 -0.119738 75.3762 0.258001 74.3492 1.12815C73.2749 2.05226 72.8199 3.03932 72.6893 3.9432L72.669 3.88699L72.2186 4.39963C71.8892 4.65771 71.6092 4.97305 71.392 5.33049L67.7435 9.4294L68.5002 5.71947L65.3945 8.86729L65.1265 9.13935L65.6084 9.61153L65.7638 9.45189L67.3832 7.80827L66.7323 10.9921L66.5791 11.7453L66.9462 11.3316L70.8673 6.91564L71.9168 5.73746L72.4573 5.13038L73.0587 6.51317L73.1037 6.6211L73.1893 6.81446L73.8807 8.41311L74.1893 9.12136L73.3447 9.77341L72.7411 10.2388L70.874 11.6823L68.3538 13.625L68.0633 13.8498L68.4777 14.385L68.7164 14.2006L70.7885 12.5997C70.8884 12.8375 71.0812 13.0242 71.3222 13.1168L75.6014 13.8161L75.446 15.39C75.3749 15.7846 75.4695 16.191 75.7076 16.5138C75.9458 16.8366 76.3064 17.0473 76.7049 17.0966L80.0607 17.5171C80.1228 17.5241 80.1852 17.5278 80.2476 17.5283C80.8747 17.5268 81.4314 17.1274 81.6327 16.5345C81.7407 16.2266 81.7407 15.8913 81.6327 15.5834L80.6823 12.8853C81.0144 12.8093 81.3205 12.6472 81.5697 12.4153C82.8219 11.2731 82.7701 9.15509 82.5539 7.72508H83.8309C83.8309 7.72508 84.9502 4.91228 82.0111 3.78131ZM78.6711 1.08318C79.7431 1.64529 80.5877 2.64135 81.0291 3.24168L80.6305 3.42606L77.1396 5.04044C76.8993 4.72357 76.6059 4.45049 76.2725 4.23325C75.9292 4.00711 75.5477 3.84485 75.1464 3.75433C75.3401 3.09779 75.8063 1.9151 76.7567 1.3395C77.3359 1.00468 78.0248 0.914058 78.6711 1.08768V1.08318ZM74.7906 1.63854C75.2546 1.21967 75.8121 0.917486 76.4167 0.757155H76.4054C75.2072 1.4834 74.6712 2.92915 74.4685 3.65765H74.3582C74.0329 3.65737 73.7091 3.70278 73.3965 3.79255C73.615 2.94266 74.1043 2.18669 74.7906 1.63854ZM74.3582 9.95779C74.3131 9.95779 74.2681 9.95779 74.223 9.95779L75.0248 9.33946L74.6487 8.46932C75.1914 8.35541 75.6093 7.92208 75.7027 7.37638C75.7961 6.83069 75.5461 6.2834 75.0721 5.99603C74.9681 5.93004 74.855 5.87931 74.7365 5.84538C74.3726 5.93538 74.0203 6.06743 73.687 6.23886L73.5947 6.02751L73.5631 5.9578L73.0114 4.68519C73.4242 4.45495 73.8898 4.33564 74.3627 4.33893C74.9794 4.33751 75.5792 4.54078 76.0676 4.91678C76.2343 5.0398 76.3856 5.18249 76.518 5.34173C76.5875 5.42123 76.6515 5.50536 76.7095 5.59356C76.7771 5.69556 76.8388 5.80142 76.8941 5.91059C76.9552 6.0356 77.0071 6.16485 77.0495 6.29732C77.3895 7.37792 77.0437 8.55655 76.1734 9.28325C75.6684 9.71726 75.0245 9.95653 74.3582 9.95779ZM81.0021 15.8037C81.0934 16.0612 81.0444 16.3475 80.8727 16.5602C80.7011 16.7728 80.4312 16.8814 80.1598 16.847L76.8018 16.4266C76.5862 16.3993 76.3915 16.2844 76.2635 16.1091C76.1356 15.9337 76.0859 15.7134 76.1261 15.5002L76.2815 13.9263L78.1531 14.2321C78.5389 13.7736 78.856 13.2616 79.0945 12.7121C79.3824 12.8301 79.6858 12.9058 79.9954 12.937L81.0021 15.8037ZM81.117 11.9162C80.9348 12.0873 80.706 12.2008 80.4593 12.2422H80.4481C80.3432 12.2598 80.2367 12.2658 80.1305 12.2602C79.8191 12.2399 79.514 12.1637 79.2296 12.0353C79.2315 11.8235 79.1391 11.6217 78.9774 11.4845C78.09 10.7357 77.3513 10.1354 77.9504 9.54857C78.5495 8.96173 78.4008 8.21524 77.9639 7.61716L77.9504 7.60142C77.8467 7.45503 77.8636 7.25542 77.9903 7.12838C78.117 7.00134 78.3168 6.98368 78.4639 7.08652L79.376 7.7026L81.8715 7.72059C82.0742 9.02019 82.1642 10.9628 81.1102 11.9252L81.117 11.9162Z" fill="black"/>
</svg>
