<svg width="116" height="106" viewBox="0 0 116 106" fill="none" xmlns="http://www.w3.org/2000/svg">
<path d="M51.4709 80.1472C52.3089 73.6637 49.265 62.8801 48.1714 59.9164C47.1532 57.1578 46.0345 53 46.0115 51.0549V51.0403C46.009 50.9126 46.0132 50.7848 46.0241 50.6575C46.0167 50.3093 45.9035 49.9716 45.6994 49.6892L45.1379 51.9522L43.6987 49.0806L44.2161 47.8989C44.0611 47.742 43.9019 47.5831 43.7385 47.4262C42.5969 46.3526 41.402 45.3369 40.1582 44.3831V43.9648L28.636 46.6837C28.636 46.6837 23.3987 50.4484 27.1319 60.0691C28.0578 62.4555 27.444 64.7498 25.8749 65.9963C24.3058 67.2429 21.8128 72.5489 24.7813 75.981C27.7499 79.4131 27.2806 83.6232 26.0383 86.2752C24.796 88.9272 22.6005 92.6709 27.444 97.5064H34.1625C34.1625 97.5064 36.3496 91.8908 37.7553 88.9314C38.6792 86.9863 40.0053 82.8891 40.4096 77.8801C40.4808 77.9867 40.5542 78.0892 40.6191 78.1959C41.2225 79.045 41.8761 79.8167 42.4522 80.5676C44.5471 83.2865 43.4745 83.9411 42.381 89.5609C41.2874 95.1807 45.3956 97.2972 45.3956 97.2972L51.0519 97.0881C52.1455 94.9046 50.8718 84.7882 51.4709 80.1472Z" fill="black"/>
<path d="M28.4263 46.7674V42.8167H29.0548V45.9769L39.5421 43.5466L38.5658 40.7126L39.1587 40.5098L40.3633 44.0004L28.4263 46.7674Z" fill="black"/>
<path d="M44.9114 43.3496L44.5175 43.7825L42.7222 45.759L44.3646 45.9953L43.7361 47.4259L43.0029 49.099L45.3346 53.7567L46.0091 51.0567V51.042L46.9623 47.2021L47.0922 46.675L44.9114 43.3496ZM45.6991 49.6888L45.1376 51.9518L43.6984 49.0802L44.2159 47.8985L45.2633 45.4892L43.9749 45.3072L44.8234 44.3702L46.4114 46.7859L45.6991 49.6888Z" fill="black"/>
<path d="M29.9995 97.8493C28.1811 96.2597 28.4053 90.4329 29.9492 88.2285C31.2691 86.3462 32.2202 79.1599 29.1636 76.5163C28.1539 75.6442 27.6071 74.5838 27.5401 73.3791C27.4018 70.9049 29.2432 68.3596 30.8145 66.6634C33.1629 64.1223 31.3989 59.5085 31.3801 59.4625L31.9667 59.2324C32.0463 59.4416 33.894 64.2519 31.2753 67.0901C30.0582 68.4077 28.0345 70.9718 28.1664 73.3435C28.2353 74.4033 28.746 75.3857 29.5742 76.052C32.9262 78.9549 31.9122 86.5323 30.4646 88.6008C29.1071 90.5354 28.8515 96.0234 30.4143 97.3849L29.9995 97.8493Z" fill="white"/>
<path d="M34.4699 97.5406L33.9043 97.2646C38.3037 88.2713 39.8016 80.5558 40.2897 75.6723C40.9182 69.423 40.1745 65.0644 39.347 63.2322C37.4385 58.9949 38.8505 53.6261 38.9112 53.4023L39.5188 53.5655C39.5041 53.6178 38.1047 58.9468 39.921 62.9771C41.7101 66.9425 42.7303 80.6123 34.4699 97.5406Z" fill="white"/>
<path d="M32.7611 103.573L35.275 97.0898H26.1055L26.5245 105.247L26.5559 105.874H27.7081L27.9176 105.247L28.1439 104.573L29.2374 105.665H35.34V103.573H32.7611ZM27.8694 103.41L27.2577 105.247H27.1529L26.7675 97.7173H34.3575L31.8435 104.201H34.7115V105.037H29.4993L27.8694 103.41Z" fill="black"/>
<path d="M49.9393 103.364L52.4533 96.8809H43.2837L43.7194 105.247L43.7404 105.665H44.8926L45.033 105.247L45.3284 104.364L46.4219 105.456H52.5182V103.364H49.9393ZM45.0476 103.201L44.4359 105.038H44.3312L43.9457 97.5083H51.5357L49.0217 103.992H51.8897V104.828H46.6775L45.0476 103.201Z" fill="black"/>
<path d="M115.261 105.246H18.6841V105.874H115.261V105.246Z" fill="black"/>
<path d="M10.4098 105.875C11.0383 106.085 24.0898 105.875 24.0898 105.875C24.0898 105.875 24.6554 102.111 20.8845 101.065C17.1136 100.019 17.7421 100.228 17.5326 94.9998C17.3231 89.7711 16.2756 81.6144 13.1332 85.7973C9.99081 89.9802 11.6668 94.9998 8.73384 97.5095C5.80091 100.019 4.54395 101.274 4.54395 105.875H10.4098Z" fill="black"/>
<path d="M69.8602 12.44L57.4015 21.333L48.4917 8.89291L60.9524 0L69.8602 12.44Z" fill="#FF9595"/>
<path d="M43.8993 25.37C41.941 23.3614 39.1846 22.3339 36.3869 22.5695L33.1125 22.8414L33.1648 23.4688L36.4371 23.1948C39.0484 22.9726 41.6219 23.9313 43.4489 25.8071L57.4201 40.096L48.8895 48.8111L44.0481 42.0431L48.5019 38.655L40.1368 30.9458L38.6703 26.2003L38.0712 26.3843L42.0516 39.32L26.3395 43.1997C26.4589 40.1274 26.8653 29.4818 26.748 28.9443L26.1321 29.0719C26.1677 29.3061 26.1321 31.1822 26.0483 33.6731L13.1916 32.8804L2.97037 19.3235L11.4235 15.2054L16.8263 25.577L28.227 24.5731L28.1726 23.9457L17.1909 24.914L11.7 14.373L2.00879 19.0935L12.7768 33.3824L12.8648 33.4995L26.0253 34.3068C25.9331 37.2035 25.8011 40.7715 25.6901 43.5929L25.6733 44.0112L42.8519 39.7718L40.5055 32.14L47.5278 38.611L43.1829 41.9156L48.8162 49.7878L58.3 40.096L43.8993 25.37Z" fill="black"/>
<path d="M5.2667 17.9757L1.50417 14.2822L4.18989 15.1104L0 11.1094L5.08234 10.9902L9.32461 16.1039L8.84067 16.5033L4.79324 11.626L1.52931 11.7013L6.5488 16.495L3.78766 15.6437L5.70873 17.5282L5.2667 17.9757Z" fill="black"/>
<path d="M39.3204 33.0901C36.8065 31.2077 39.1109 30.162 41.2058 27.6523C43.3008 25.1425 39.5299 25.3516 37.6444 24.5151C35.759 23.6785 37.4349 23.4693 38.0634 21.3779C38.5432 19.78 36.3372 17.9416 35.2667 17.1594L36.2806 17.1907C36.2806 17.1907 38.0634 12.9639 31.4979 12.9723C31.4979 12.9723 29.5998 12.5059 29.2584 13.9824V14.0096C28.9357 15.5197 27.1508 15.0554 26.5726 15.8627C25.9944 16.67 26.2584 17.0945 26.5056 18.0692C26.7528 19.0438 25.9316 18.7426 25.2235 19.2738C24.5154 19.8051 23.5957 20.5287 24.8213 21.1269L28.544 21.9112L27.8527 23.2602C27.6821 23.5943 27.6571 23.9838 27.7836 24.3369C27.9101 24.69 28.1768 24.9754 28.5209 25.1258L31.4057 26.3806C31.5783 26.4555 31.7643 26.4946 31.9525 26.4957C32.0948 26.4961 32.2363 26.4735 32.3715 26.4287C31.7199 26.9579 30.243 27.7589 31.787 28.9134C33.4629 30.1683 34.5104 29.1225 33.2534 30.1683C31.9965 31.214 31.787 33.5146 33.4629 34.9787C35.1389 36.4427 34.3009 35.8152 33.0439 37.0701C31.787 38.325 33.8819 40.4165 33.8819 40.4165C33.8819 40.4165 38.9098 39.3707 41.4237 38.1159C43.9377 36.861 41.8343 34.9724 39.3204 33.0901ZM32.0153 21.1415C31.9708 20.9213 31.8544 20.7219 31.6843 20.5747C30.8757 19.8594 30.2011 19.2864 30.7709 18.751C31.3407 18.2156 31.2234 17.5212 30.8254 16.9565C30.8214 16.9512 30.8179 16.9456 30.8149 16.9398C30.7262 16.8019 30.7476 16.6207 30.8659 16.5071C30.9842 16.3936 31.1665 16.3795 31.3009 16.4734L32.1389 17.0652L34.4622 17.1364C34.6277 18.341 34.6717 20.1502 33.6682 21.0223C33.4159 21.2486 33.0799 21.3587 32.7423 21.3256C32.4916 21.3036 32.2462 21.2414 32.0153 21.1415ZM31.6571 25.7992L28.7723 24.5443C28.5863 24.4638 28.4421 24.3099 28.3738 24.1193C28.3055 23.9287 28.3194 23.7184 28.412 23.5383L29.1767 22.0471L31.6906 22.5763C31.832 22.3354 31.9358 22.0745 31.9986 21.8024C32.1663 21.8603 32.3387 21.9037 32.5139 21.9321L32.6815 25.0881C32.6945 25.3417 32.5753 25.5839 32.3663 25.7287C32.1574 25.8734 31.8884 25.9001 31.655 25.7992H31.6571Z" fill="black"/>
<path d="M93.676 68.4352H92.9511V67.3895H88.1328V62.1608H87.7138V61.3242H66.5548V62.1608H66.3453V67.3895H60.0605V68.4938C57.7691 68.8602 56.0827 70.8326 56.0801 73.1494V99.4851C56.0824 102.088 58.1952 104.197 60.8021 104.199H93.676C96.2829 104.197 98.3957 102.088 98.398 99.4851V73.1494C98.3957 70.5468 96.2829 68.4375 93.676 68.4352ZM92.3226 68.0169V69.2718H83.5239V68.0169H92.3226ZM66.9738 62.8928H87.5043V67.3895H82.8954V68.4352H70.1162V67.3895H66.9738V62.8928ZM60.689 68.0169H69.4877V69.2718H60.689V68.0169ZM60.8021 103.572C58.5427 103.568 56.712 101.741 56.7086 99.4851V73.1494C56.7118 71.1793 58.1203 69.491 60.0605 69.1317V69.8992H62.9934V103.572H60.8021ZM63.6219 103.572V69.8992H67.3928V103.572H63.6219ZM68.0213 103.572V69.8992H70.1162V69.0626H82.8954V69.8992H85.1998V103.572H68.0213ZM85.8283 103.572V69.8992H89.5992V103.572H85.8283ZM97.7695 99.4851C97.766 101.741 95.9353 103.568 93.676 103.572H90.2277V69.8992H92.9511V69.0626H93.676C95.9353 69.0661 97.766 70.8938 97.7695 73.1494V99.4851Z" fill="black"/>
<path d="M76.8196 76.3828H69.9062V80.7749H76.8196V76.3828ZM76.1911 80.1475H70.5347V77.0103H76.1911V80.1475Z" fill="black"/>
<path d="M76.8197 85.5859C74.7415 85.5859 73.0488 87.3679 73.0488 89.5597C73.0488 91.7516 74.7415 93.5335 76.8197 93.5335C78.8979 93.5335 80.5906 91.7516 80.5906 89.5597C80.5906 87.3679 78.8979 85.5859 76.8197 85.5859ZM76.8197 92.9061C75.0872 92.9061 73.6773 91.4044 73.6773 89.5597C73.6773 87.715 75.0872 86.2134 76.8197 86.2134C78.5523 86.2134 79.9622 87.715 79.9622 89.5597C79.9622 91.4044 78.5523 92.9061 76.8197 92.9061Z" fill="black"/>
<path d="M77.9929 36.282L76.3253 43.0332L72.8456 42.1778L71.7332 46.6849L64.9707 45.0201L66.6383 38.2689L70.1159 39.1243L71.2304 34.6172L77.9929 36.282Z" fill="#FF9595"/>
<path d="M63.4851 19.86L58.9915 13.0293L52.6794 17.1683L48.9692 19.6007L55.5034 29.5351L65.5235 22.9658L63.4851 19.86ZM49.8386 19.7805L53.0439 17.6891L58.8029 13.8993L62.9656 20.226L64.6415 22.7818L55.671 28.663L49.8386 19.7805Z" fill="black"/>
</svg>
