<svg width="183" height="102" viewBox="0 0 183 102" fill="none" xmlns="http://www.w3.org/2000/svg">
<g clip-path="url(#clip0_477_8672)">
<path d="M43.5425 40.2496C43.5425 40.2496 46.9472 42.652 47.6259 42.2583C48.3047 41.8645 48.7926 39.6214 48.7926 39.6214C49.1675 39.6745 49.4581 39.7696 49.8241 39.6656C50.1679 39.4909 49.5601 37.9733 49.6244 36.885C49.6887 35.7966 50.0059 34.3631 49.6599 33.6973" stroke="black" stroke-width="0.353508" stroke-miterlimit="10"/>
<path d="M39.9141 40.3722C40.6282 39.7097 41.2706 38.9742 41.8305 38.1777" stroke="black" stroke-width="0.353508" stroke-miterlimit="10"/>
<path d="M45.4679 41.8477C45.4679 41.8477 43.6069 44.0178 43.6202 44.8584" stroke="black" stroke-width="0.353508" stroke-miterlimit="10"/>
<path d="M40.6658 39.6309L43.6158 44.4356L39.9648 40.3277L40.6658 39.6309Z" fill="black"/>
<path d="M40.848 39.0221C40.655 38.5111 38.6676 31.8591 40.6506 30.4566C42.6335 29.0541 46.1514 28.6692 48.7088 29.7554C51.2663 30.8416 51.1864 32.9166 49.6604 33.6953C48.1343 34.4739 45.191 33.4541 44.8716 33.9651C44.7288 34.2233 44.6313 34.5038 44.5832 34.7947C44.572 34.8572 44.5468 34.9165 44.5094 34.9679C44.472 35.0194 44.4235 35.0618 44.3675 35.092C44.3114 35.1222 44.2492 35.1394 44.1856 35.1423C44.1219 35.1452 44.0585 35.1337 43.9999 35.1088C43.7663 34.9974 43.5006 34.9724 43.2501 35.038C42.4805 35.2305 42.9529 38.4292 42.3762 38.8119C41.7995 39.1946 40.848 39.0221 40.848 39.0221Z" fill="black"/>
<path d="M38.166 101.557C38.2645 93.2774 41.6316 85.3698 47.5372 79.5494C53.4429 73.729 61.4109 70.4648 69.7137 70.4648C78.0164 70.4648 85.9845 73.729 91.8902 79.5494C97.7958 85.3698 101.163 93.2774 101.261 101.557H38.166Z" fill="#FF9595"/>
<path d="M45.1706 46.4449L44.9488 48.385C44.9439 48.4292 44.9271 48.4713 44.9 48.5067C44.8733 48.5428 44.8373 48.5711 44.7958 48.5886C44.7538 48.6061 44.7081 48.6129 44.6628 48.6084C44.6178 48.6032 44.575 48.5864 44.5385 48.5598L44.421 48.4691L44.4764 47.7302C44.5242 47.1023 44.4001 46.4732 44.1173 45.9102C43.8344 45.3471 43.4035 44.8714 42.8705 44.5337L38.5231 41.7773C38.3645 41.6813 38.1936 41.6069 38.0151 41.5561L39 40.4699C39.0728 40.392 39.1612 40.3303 39.2595 40.2886C39.3589 40.2464 39.4665 40.2267 39.5744 40.2311C39.6817 40.2334 39.7871 40.2592 39.8833 40.3066C39.9795 40.354 40.0641 40.4218 40.1312 40.5054L45.1706 46.4449Z" stroke="black" stroke-width="0.353508" stroke-miterlimit="10"/>
<path d="M38.022 41.541C38.2004 41.5918 38.3713 41.6662 38.5299 41.7622L42.8774 44.5186C43.4103 44.8563 43.8412 45.3321 44.1241 45.8951C44.4069 46.4581 44.5311 47.0872 44.4833 47.7151L44.4189 48.454" stroke="black" stroke-width="0.353508" stroke-miterlimit="10"/>
<path d="M42.7554 63.0742L41.7129 69.4895" stroke="black" stroke-width="0.353508" stroke-miterlimit="10"/>
<path d="M44.419 48.4668L43.1924 57.8729" stroke="black" stroke-width="0.353508" stroke-miterlimit="10"/>
<path d="M61.6445 81.4154L54.2051 100.23H49.9641L54.2139 78.502C53.2158 79.1458 51.61 79.7762 49.6425 80.2872C44.969 81.4928 38.2616 82.0083 32.8362 80.3757C28.3468 79.0219 24.7535 76.197 23.9217 71.0847C23.8131 70.421 23.7332 69.7574 23.6777 69.0938C26.8296 71.2794 49.7911 68.0319 57.3925 70.5604C58.985 71.0847 64.5679 73.737 61.6445 81.4154Z" fill="black"/>
<path d="M23.6691 69.087C23.6336 69.0604 23.6004 69.0383 23.5693 69.0117" stroke="black" stroke-width="0.353508" stroke-miterlimit="10"/>
<path d="M23.6689 69.0871C25.816 56.0708 32.1376 45.6007 36.2388 41.9485C36.4764 41.7328 36.7648 41.5806 37.0772 41.506C37.3891 41.4333 37.7144 41.4416 38.0221 41.5303" stroke="black" stroke-width="0.353508" stroke-miterlimit="10"/>
<path d="M177.49 101.826H42.3735" stroke="black" stroke-width="0.353508" stroke-miterlimit="10"/>
<path d="M19.7981 101.826H-0.00488281" stroke="black" stroke-width="0.353508" stroke-miterlimit="10"/>
<path d="M49.6362 80.291C44.9605 81.4966 38.2397 82.0121 32.832 80.3773" stroke="black" stroke-width="0.353508" stroke-miterlimit="10"/>
<path d="M48.6338 81.8881C44.276 82.863 40.4254 83.3504 37.082 83.3504C31.6012 83.3504 27.4401 82.0452 24.479 79.4327C17.1948 72.9931 18.5079 59.9657 19.8964 46.1686L20.0228 44.8723C20.0662 44.5289 20.2424 44.2159 20.5138 44.0002C20.7852 43.7845 21.1304 43.6831 21.4757 43.7175C21.8206 43.7523 22.1383 43.9199 22.3611 44.1848C22.584 44.4496 22.6944 44.7907 22.669 45.1355L22.5337 46.4473C21.2162 59.5366 19.9718 71.9357 26.2379 77.4683C27.9125 78.9504 30.0973 79.9237 32.8278 80.3994C38.2532 82.0319 44.9607 81.5055 49.6319 80.3109C49.6703 80.4796 49.6748 80.6543 49.6451 80.8248C49.6154 80.9953 49.5521 81.1582 49.4589 81.3041C49.2717 81.5996 48.9752 81.8094 48.6338 81.8881V81.8881Z" stroke="black" stroke-width="0.353508" stroke-miterlimit="10"/>
<path d="M42.3739 101.822H19.7983C21.6393 100.579 26.0089 99.7031 31.0861 99.7031C36.1633 99.7031 40.5329 100.579 42.3739 101.822Z" stroke="black" stroke-width="0.353508" stroke-miterlimit="10"/>
<path d="M32.9474 83.0117L31.0864 99.7046" stroke="black" stroke-width="0.353508" stroke-miterlimit="10"/>
<path d="M66.9615 58.4961C66.9615 58.4961 71.9832 60.9494 71.6527 61.0489C71.1803 61.2215 69.4701 60.5092 69.4701 60.5092C69.4701 60.5092 68.7182 61.2259 68.3323 61.133C67.8447 61.0208 67.373 60.8483 66.9282 60.6198" stroke="black" stroke-width="0.353508" stroke-miterlimit="10"/>
<path d="M49.6357 101.821L49.9529 100.232H53.6704C55.4449 100.232 57.1794 100.954 58.7232 101.821H49.6357Z" stroke="black" stroke-width="0.226607" stroke-miterlimit="10"/>
<path d="M54.2049 100.236H49.9639L54.2137 78.5078C53.2156 79.1515 51.6097 79.782 49.6423 80.293C44.9688 81.4986 38.2613 82.0141 32.8359 80.3815" stroke="black" stroke-width="0.353508" stroke-miterlimit="10"/>
<path d="M23.6689 69.0898C25.5543 70.3994 34.5375 69.7535 43.0749 69.5787" stroke="black" stroke-width="0.353508" stroke-miterlimit="10"/>
<path d="M49.6337 80.2911C44.9603 81.4967 38.2528 82.0122 32.8274 80.3796C28.338 79.0258 24.7447 76.2009 23.913 71.0886C23.8043 70.4249 23.7244 69.7613 23.6689 69.0977" stroke="black" stroke-width="0.353508" stroke-miterlimit="10"/>
<path d="M54.2028 100.24H49.9507L54.2028 78.5078" stroke="black" stroke-width="0.353508" stroke-miterlimit="10"/>
<path d="M102.342 61.9473H63.2861V64.509H102.342" stroke="black" stroke-width="0.262865" stroke-miterlimit="10"/>
<path d="M67.0591 64.5039V101.929" stroke="black" stroke-width="0.262865" stroke-miterlimit="10"/>
<path d="M40.4462 47L43.1988 57.875L65.5836 58.2952L65.9252 61.2352L41.2868 63.1332C40.7386 63.177 40.1904 63.0503 39.7173 62.7706C39.2443 62.491 38.8697 62.0721 38.6451 61.5715L34.7856 51.577" stroke="black" stroke-width="0.353508" stroke-miterlimit="10"/>
<path d="M80.3788 61.207H66.7842V61.9835H80.3788V61.207Z" fill="black"/>
<path d="M79.52 61.2298L84.0981 50.9102L84.6349 51.0871L80.2764 61.2077L79.52 61.2298Z" stroke="black" stroke-width="0.226607" stroke-miterlimit="10"/>
<path d="M65.9677 61.0023L66.8017 60.9691L66.9414 58.3301L65.584 58.2969" stroke="black" stroke-width="0.353508" stroke-miterlimit="10"/>
<path d="M42.4003 64.8854C42.4003 64.8854 38.4611 65.0889 37.8755 63.7218C36.2186 59.8572 34.6504 51.6855 34.6504 51.6855C34.6504 51.6855 37.8888 60.2819 38.6429 61.5694C39.3971 62.8569 40.5438 63.171 41.6484 63.1179L42.7575 63.0693L42.4003 64.8854Z" fill="black"/>
<path d="M139.821 87.1426H154.757L153.271 101.827H140.965L139.821 87.1426Z" stroke="black" stroke-width="0.226607" stroke-miterlimit="10"/>
<path d="M132.02 101.587C132.323 101.587 140.921 98.6406 140.921 98.6406L141.142 101.738L132.02 101.587Z" fill="black"/>
<path d="M140.666 69.0645L146.928 74.3471C146.928 74.3471 146.832 84.5849 146.843 85.2729" stroke="black" stroke-width="0.226607" stroke-miterlimit="10"/>
<path d="M145.348 73.0138L147.027 61.8402L156.538 56.2324" stroke="black" stroke-width="0.226607" stroke-miterlimit="10" stroke-linecap="round"/>
<path d="M150.942 59.5341L143.044 44.4804L134.935 40.0605" stroke="black" stroke-width="0.226607" stroke-miterlimit="10" stroke-linecap="round"/>
<path d="M143.753 69.1469C143.532 69.4168 142.953 69.304 142.953 69.304C142.953 69.304 142.709 68.7576 142.922 68.4899C142.961 68.4252 143.015 68.3696 143.078 68.327C143.14 68.2843 143.212 68.2555 143.287 68.2424C143.362 68.2293 143.439 68.2323 143.513 68.2511C143.586 68.27 143.655 68.3043 143.715 68.3517C143.774 68.3991 143.823 68.4586 143.857 68.5262C143.892 68.5939 143.912 68.668 143.915 68.7439C143.919 68.8197 143.907 68.8955 143.879 68.9661C143.851 69.0368 143.808 69.1007 143.753 69.1536V69.1469Z" fill="black"/>
<path d="M142.901 70.354C142.68 70.0908 142.901 69.54 142.901 69.54C142.901 69.54 143.487 69.4138 143.706 69.6771C143.768 69.7265 143.819 69.789 143.853 69.8601C143.888 69.9312 143.907 70.0091 143.908 70.0882C143.909 70.1674 143.892 70.2458 143.859 70.3177C143.826 70.3897 143.778 70.4534 143.717 70.5044C143.656 70.5554 143.585 70.5924 143.509 70.6127C143.432 70.6329 143.352 70.6359 143.274 70.6215C143.196 70.6071 143.122 70.5757 143.057 70.5294C142.993 70.4832 142.94 70.4233 142.901 70.354Z" fill="black"/>
<path d="M141.99 69.6293C142.303 69.7687 142.775 69.4081 142.775 69.4081C142.775 69.4081 142.74 68.813 142.427 68.6714C142.362 68.6291 142.289 68.6013 142.212 68.5899C142.135 68.5784 142.057 68.5837 141.983 68.6052C141.908 68.6267 141.839 68.6639 141.78 68.7144C141.722 68.7649 141.674 68.8275 141.642 68.8978C141.61 68.9682 141.593 69.0446 141.593 69.122C141.593 69.1993 141.61 69.2758 141.643 69.346C141.675 69.4163 141.722 69.4788 141.781 69.5292C141.84 69.5797 141.909 69.6168 141.983 69.6382L141.99 69.6293Z" fill="black"/>
<path d="M139.686 67.3686C139.943 67.5898 139.797 68.176 139.797 68.176C139.797 68.176 139.235 68.3973 138.98 68.1606C138.914 68.1193 138.857 68.064 138.813 67.9985C138.77 67.9329 138.742 67.8588 138.731 67.7812C138.719 67.7037 138.725 67.6246 138.748 67.5495C138.77 67.4744 138.809 67.4051 138.861 67.3465C138.913 67.2879 138.978 67.2414 139.05 67.2103C139.122 67.1791 139.2 67.1641 139.279 67.1662C139.357 67.1683 139.434 67.1875 139.505 67.2225C139.575 67.2575 139.637 67.3073 139.686 67.3686Z" fill="black"/>
<path d="M140.845 68.279C140.568 68.4825 140.029 68.2214 140.029 68.2214C140.029 68.2214 139.936 67.6286 140.213 67.425C140.268 67.3695 140.334 67.3264 140.407 67.2987C140.48 67.2711 140.558 67.2596 140.636 67.265C140.714 67.2704 140.789 67.2925 140.858 67.33C140.926 67.3675 140.986 67.4193 141.032 67.4819C141.078 67.5445 141.11 67.6164 141.126 67.6927C141.142 67.7689 141.141 67.8476 141.123 67.9234C141.106 67.9992 141.071 68.0702 141.024 68.1316C140.976 68.193 140.915 68.2433 140.845 68.279Z" fill="black"/>
<path d="M140.069 69.1516C140.227 68.8485 139.885 68.3574 139.885 68.3574C139.885 68.3574 139.284 68.3574 139.126 68.6605C139.079 68.7228 139.047 68.7946 139.03 68.8709C139.014 68.9471 139.014 69.0261 139.031 69.1022C139.049 69.1783 139.082 69.2497 139.13 69.3116C139.178 69.3734 139.238 69.4241 139.308 69.4603C139.377 69.4964 139.453 69.517 139.531 69.5207C139.61 69.5244 139.687 69.5112 139.76 69.4818C139.832 69.4524 139.898 69.4077 139.951 69.3507C140.004 69.2937 140.045 69.2257 140.069 69.1516Z" fill="black"/>
<path d="M141.851 72.7674C142.048 72.4887 142.642 72.5639 142.642 72.5639C142.642 72.5639 142.92 73.0948 142.722 73.3758C142.688 73.446 142.64 73.508 142.579 73.5575C142.519 73.607 142.449 73.6429 142.373 73.6626C142.297 73.6823 142.218 73.6854 142.142 73.6716C142.065 73.6579 141.992 73.6276 141.928 73.5829C141.864 73.5383 141.81 73.4803 141.771 73.4129C141.732 73.3456 141.707 73.2705 141.7 73.193C141.693 73.1154 141.702 73.0372 141.728 72.9637C141.754 72.8902 141.796 72.8232 141.851 72.7674Z" fill="black"/>
<path d="M142.624 71.5149C142.859 71.7649 142.662 72.329 142.662 72.329C142.662 72.329 142.083 72.4883 141.85 72.2383C141.789 72.1907 141.739 72.1305 141.704 72.0618C141.668 71.9931 141.648 71.9176 141.645 71.8405C141.641 71.7633 141.654 71.6863 141.684 71.6147C141.713 71.5432 141.757 71.4788 141.814 71.426C141.87 71.3731 141.938 71.3331 142.011 71.3087C142.085 71.2843 142.163 71.276 142.24 71.2845C142.317 71.2929 142.391 71.3179 142.457 71.3577C142.524 71.3975 142.581 71.4511 142.624 71.5149Z" fill="black"/>
<path d="M143.585 72.1835C143.263 72.0618 142.813 72.4556 142.813 72.4556C142.813 72.4556 142.884 73.0506 143.203 73.1723C143.271 73.2099 143.345 73.2327 143.422 73.2391C143.499 73.2455 143.576 73.2353 143.648 73.2093C143.721 73.1832 143.787 73.142 143.842 73.0882C143.897 73.0345 143.94 72.9695 143.967 72.8978C143.995 72.8262 144.007 72.7494 144.002 72.6727C143.997 72.596 143.976 72.5212 143.94 72.4535C143.904 72.3857 143.853 72.3265 143.792 72.2799C143.731 72.2334 143.66 72.2005 143.585 72.1835Z" fill="black"/>
<path d="M148.373 70.1783C148.032 70.1385 147.816 69.581 147.816 69.581C147.816 69.581 148.154 69.0855 148.495 69.1253C148.573 69.1212 148.652 69.1342 148.724 69.1633C148.797 69.1924 148.863 69.2371 148.916 69.294C148.97 69.351 149.011 69.419 149.035 69.4932C149.06 69.5675 149.068 69.6462 149.059 69.7238C149.05 69.8015 149.024 69.8763 148.983 69.943C148.942 70.0097 148.887 70.0666 148.822 70.1099C148.757 70.1532 148.683 70.1817 148.605 70.1935C148.528 70.2053 148.448 70.2001 148.373 70.1783Z" fill="black"/>
<path d="M146.894 70.1C147.003 69.7748 147.595 69.6797 147.595 69.6797C147.595 69.6797 148.012 70.1111 147.904 70.4363C147.891 70.5131 147.862 70.5863 147.818 70.6509C147.774 70.7154 147.717 70.7697 147.65 70.81C147.583 70.8502 147.509 70.8755 147.431 70.8841C147.353 70.8927 147.275 70.8844 147.201 70.8597C147.127 70.835 147.059 70.7946 147.002 70.7412C146.945 70.6878 146.901 70.6228 146.871 70.5505C146.842 70.4783 146.829 70.4005 146.833 70.3228C146.837 70.245 146.858 70.169 146.894 70.1Z" fill="black"/>
<path d="M147.034 68.9396C147.078 69.278 147.639 69.486 147.639 69.486C147.639 69.486 148.132 69.1409 148.083 68.8024C148.084 68.7256 148.068 68.6495 148.037 68.5793C148.006 68.509 147.96 68.4463 147.903 68.3952C147.845 68.3442 147.778 68.3061 147.704 68.2835C147.63 68.2609 147.553 68.2543 147.477 68.2643C147.4 68.2742 147.327 68.3004 147.262 68.3411C147.196 68.3817 147.141 68.4359 147.098 68.5C147.056 68.564 147.028 68.6364 147.016 68.7123C147.004 68.7881 147.008 68.8657 147.029 68.9396H147.034Z" fill="black"/>
<path d="M148.851 64.0726C148.509 64.0328 148.294 63.4753 148.294 63.4753C148.294 63.4753 148.631 62.982 148.973 63.0196C149.051 63.0155 149.129 63.0285 149.202 63.0576C149.275 63.0867 149.34 63.1313 149.394 63.1883C149.448 63.2453 149.488 63.3133 149.513 63.3875C149.537 63.4618 149.546 63.5404 149.537 63.6181C149.528 63.6958 149.502 63.7706 149.461 63.8372C149.42 63.9039 149.365 63.9609 149.299 64.0041C149.234 64.0474 149.16 64.076 149.083 64.0878C149.005 64.0996 148.926 64.0944 148.851 64.0726Z" fill="black"/>
<path d="M147.376 63.9886C147.487 63.6635 148.079 63.5684 148.079 63.5684C148.079 63.5684 148.494 64.0108 148.385 64.3249C148.372 64.4018 148.343 64.475 148.299 64.5395C148.256 64.604 148.198 64.6583 148.132 64.6986C148.065 64.7388 147.99 64.7642 147.912 64.7728C147.835 64.7814 147.756 64.773 147.682 64.7483C147.608 64.7236 147.54 64.6832 147.483 64.6298C147.427 64.5764 147.382 64.5114 147.353 64.4391C147.324 64.3669 147.311 64.2892 147.315 64.2114C147.319 64.1336 147.339 64.0576 147.376 63.9886Z" fill="black"/>
<path d="M147.511 62.8322C147.555 63.1706 148.119 63.3785 148.119 63.3785C148.119 63.3785 148.609 63.0334 148.562 62.695C148.563 62.6182 148.548 62.5421 148.517 62.4719C148.486 62.4016 148.44 62.3389 148.382 62.2878C148.325 62.2368 148.257 62.1987 148.184 62.1761C148.11 62.1535 148.032 62.1469 147.956 62.1568C147.88 62.1668 147.806 62.193 147.741 62.2336C147.676 62.2743 147.62 62.3285 147.578 62.3926C147.535 62.4566 147.507 62.529 147.495 62.6049C147.483 62.6807 147.488 62.7582 147.509 62.8322H147.511Z" fill="black"/>
<path d="M149.179 74.6742C148.859 74.8003 148.405 74.4088 148.405 74.4088C148.405 74.4088 148.469 73.8137 148.789 73.6898C148.855 73.6511 148.93 73.6271 149.007 73.6197C149.084 73.6122 149.161 73.6215 149.234 73.6467C149.307 73.6719 149.374 73.7126 149.43 73.7659C149.486 73.8193 149.529 73.884 149.558 73.9557C149.586 74.0273 149.599 74.1043 149.594 74.1813C149.59 74.2582 149.57 74.3334 149.534 74.4016C149.498 74.4698 149.447 74.5295 149.386 74.5766C149.325 74.6236 149.254 74.6569 149.179 74.6742Z" fill="black"/>
<path d="M147.839 75.2948C147.781 74.9585 148.258 74.5957 148.258 74.5957C148.258 74.5957 148.83 74.7815 148.886 75.1178C148.91 75.191 148.918 75.2684 148.909 75.3448C148.9 75.4213 148.875 75.495 148.835 75.5609C148.795 75.6267 148.741 75.6832 148.677 75.7265C148.614 75.7698 148.541 75.7989 148.465 75.8117C148.389 75.8246 148.311 75.821 148.237 75.801C148.162 75.7811 148.093 75.7454 148.033 75.6964C147.974 75.6473 147.926 75.586 147.892 75.5167C147.859 75.4474 147.84 75.3717 147.839 75.2948Z" fill="black"/>
<path d="M147.409 74.2102C147.609 74.489 148.203 74.4072 148.203 74.4072C148.203 74.4072 148.474 73.8718 148.274 73.593C148.239 73.5231 148.19 73.4615 148.129 73.4124C148.068 73.3634 147.998 73.3282 147.922 73.3092C147.846 73.2902 147.767 73.2878 147.69 73.3024C147.613 73.3169 147.54 73.3479 147.477 73.3933C147.413 73.4387 147.36 73.4973 147.322 73.5652C147.283 73.633 147.26 73.7084 147.253 73.7861C147.247 73.8638 147.257 73.942 147.284 74.0153C147.311 74.0885 147.354 74.155 147.409 74.2102Z" fill="black"/>
<path d="M144.94 79.4247C145.28 79.4756 145.473 80.0419 145.473 80.0419C145.473 80.0419 145.118 80.5241 144.778 80.4711C144.701 80.4708 144.625 80.4539 144.555 80.4215C144.485 80.3891 144.423 80.3421 144.372 80.2835C144.322 80.2249 144.285 80.1562 144.264 80.0821C144.243 80.008 144.238 79.9302 144.25 79.8541C144.262 79.7779 144.29 79.7052 144.332 79.6409C144.375 79.5766 144.431 79.5222 144.496 79.4814C144.562 79.4407 144.636 79.4145 144.712 79.4047C144.789 79.3949 144.867 79.4018 144.94 79.4247Z" fill="black"/>
<path d="M146.408 79.5532C146.289 79.874 145.692 79.947 145.692 79.947C145.692 79.947 145.293 79.5045 145.415 79.1793C145.431 79.1042 145.464 79.0334 145.51 78.9719C145.556 78.9104 145.615 78.8595 145.683 78.8228C145.751 78.7861 145.826 78.7643 145.902 78.7591C145.979 78.7538 146.057 78.7651 146.129 78.7922C146.201 78.8194 146.266 78.8617 146.321 78.9163C146.375 78.971 146.417 79.0367 146.443 79.1089C146.47 79.1811 146.48 79.2581 146.474 79.3348C146.468 79.4115 146.446 79.486 146.408 79.5532Z" fill="black"/>
<path d="M146.229 80.7053C146.196 80.3646 145.641 80.1367 145.641 80.1367C145.641 80.1367 145.138 80.4641 145.171 80.8004C145.167 80.877 145.18 80.9535 145.209 81.0248C145.237 81.096 145.281 81.1603 145.336 81.2133C145.392 81.2662 145.458 81.3067 145.531 81.3319C145.604 81.357 145.681 81.3663 145.758 81.3591C145.834 81.3519 145.908 81.3283 145.975 81.2901C146.042 81.2518 146.099 81.1997 146.144 81.1373C146.189 81.0748 146.219 81.0036 146.234 80.9283C146.249 80.853 146.247 80.7754 146.229 80.7008V80.7053Z" fill="black"/>
<path d="M144.774 63.7854C145.038 64.0066 144.907 64.5884 144.907 64.5884C144.907 64.5884 144.353 64.8096 144.091 64.5884C144.025 64.5483 143.968 64.4944 143.925 64.4304C143.881 64.3664 143.853 64.2938 143.84 64.2176C143.828 64.1414 143.832 64.0634 143.852 63.989C143.873 63.9146 143.909 63.8454 143.959 63.7864C144.009 63.7273 144.071 63.6797 144.141 63.6468C144.211 63.6139 144.287 63.5965 144.365 63.5957C144.442 63.595 144.519 63.611 144.589 63.6426C144.66 63.6742 144.723 63.7206 144.774 63.7788V63.7854Z" fill="black"/>
<path d="M145.958 64.6651C145.687 64.8753 145.139 64.6275 145.139 64.6275C145.139 64.6275 145.033 64.0391 145.303 63.8289C145.357 63.775 145.422 63.733 145.493 63.7057C145.564 63.6785 145.64 63.6666 145.716 63.6707C145.792 63.6749 145.866 63.6951 145.934 63.73C146.002 63.765 146.061 63.8138 146.108 63.8733C146.156 63.9328 146.19 64.0016 146.209 64.0753C146.227 64.1489 146.23 64.2256 146.217 64.3005C146.204 64.3753 146.175 64.4465 146.132 64.5093C146.089 64.5722 146.034 64.6253 145.969 64.6651H145.958Z" fill="black"/>
<path d="M145.204 65.5593C145.355 65.2518 145 64.7695 145 64.7695C145 64.7695 144.401 64.7872 144.25 65.0947C144.207 65.1581 144.177 65.2302 144.163 65.3062C144.15 65.3821 144.153 65.46 144.173 65.5345C144.192 65.6091 144.228 65.6786 144.277 65.7383C144.326 65.7979 144.387 65.8463 144.456 65.8801C144.526 65.9139 144.602 65.9324 144.679 65.9343C144.756 65.9361 144.833 65.9213 144.904 65.8908C144.975 65.8604 145.039 65.815 145.091 65.7578C145.142 65.7005 145.181 65.6328 145.204 65.5593Z" fill="black"/>
<path d="M133.49 37.9143C133.752 38.1355 133.623 38.7195 133.623 38.7195C133.623 38.7195 133.066 38.9407 132.805 38.7195C132.738 38.6795 132.68 38.6254 132.636 38.5611C132.592 38.4968 132.563 38.4238 132.55 38.347C132.537 38.2702 132.541 38.1915 132.562 38.1164C132.582 38.0413 132.619 37.9716 132.669 37.912C132.719 37.8524 132.782 37.8045 132.853 37.7715C132.923 37.7384 133.001 37.7211 133.079 37.7207C133.157 37.7203 133.234 37.7368 133.305 37.769C133.376 37.8013 133.439 37.8486 133.49 37.9076V37.9143Z" fill="black"/>
<path d="M134.672 38.7927C134.402 39.0139 133.856 38.7573 133.856 38.7573C133.856 38.7573 133.747 38.1689 134.018 37.9587C134.072 37.9069 134.136 37.8669 134.206 37.8412C134.276 37.8156 134.351 37.8049 134.426 37.8097C134.5 37.8146 134.573 37.835 134.64 37.8696C134.706 37.9042 134.764 37.9522 134.811 38.0106C134.857 38.069 134.891 38.1364 134.91 38.2086C134.929 38.2808 134.932 38.3561 134.921 38.4297C134.909 38.5033 134.881 38.5737 134.84 38.6362C134.8 38.6987 134.746 38.752 134.683 38.7927H134.672Z" fill="black"/>
<path d="M133.92 39.6882C134.071 39.3807 133.714 38.8984 133.714 38.8984C133.714 38.8984 133.115 38.9161 132.964 39.2236C132.919 39.2872 132.888 39.3599 132.874 39.4366C132.86 39.5133 132.862 39.5923 132.881 39.6679C132.901 39.7435 132.936 39.814 132.986 39.8745C133.035 39.935 133.097 39.9841 133.168 40.0183C133.238 40.0525 133.315 40.0709 133.393 40.0725C133.471 40.074 133.549 40.0585 133.621 40.0271C133.692 39.9957 133.756 39.9491 133.808 39.8906C133.86 39.832 133.898 39.763 133.92 39.6882Z" fill="black"/>
<path d="M135.178 42.6427C135.36 42.3507 135.956 42.395 135.956 42.395C135.956 42.395 136.26 42.9104 136.081 43.2024C136.051 43.2747 136.006 43.3397 135.948 43.3928C135.891 43.4459 135.822 43.4859 135.748 43.51C135.673 43.534 135.594 43.5416 135.517 43.5321C135.439 43.5226 135.364 43.4963 135.297 43.455C135.231 43.4138 135.174 43.3585 135.131 43.2932C135.088 43.2278 135.06 43.1539 135.049 43.0766C135.037 42.9992 135.043 42.9203 135.065 42.8454C135.088 42.7705 135.126 42.7013 135.178 42.6427Z" fill="black"/>
<path d="M135.884 41.3502C136.13 41.5869 135.963 42.1621 135.963 42.1621C135.963 42.1621 135.396 42.3523 135.147 42.1156C135.083 42.0715 135.029 42.0139 134.989 41.9469C134.949 41.8798 134.924 41.8048 134.916 41.7273C134.908 41.6497 134.917 41.5713 134.942 41.4976C134.968 41.4238 135.009 41.3564 135.063 41.3002C135.117 41.2439 135.183 41.2 135.256 41.1716C135.329 41.1432 135.407 41.131 135.485 41.1358C135.563 41.1405 135.639 41.1622 135.708 41.1992C135.777 41.2363 135.837 41.2877 135.884 41.3502Z" fill="black"/>
<path d="M136.875 41.9639C136.549 41.8599 136.121 42.278 136.121 42.278C136.121 42.278 136.223 42.8687 136.551 42.9726C136.621 43.0065 136.696 43.0252 136.773 43.0273C136.851 43.0294 136.927 43.0148 136.998 42.9847C137.069 42.9546 137.133 42.9096 137.185 42.8528C137.237 42.7959 137.276 42.7286 137.299 42.6554C137.323 42.5821 137.33 42.5047 137.321 42.4283C137.312 42.3519 137.286 42.2784 137.246 42.2128C137.206 42.1472 137.152 42.091 137.088 42.0481C137.024 42.0051 136.951 41.9764 136.875 41.9639Z" fill="black"/>
<path d="M140.746 40.9903C140.588 41.2934 139.989 41.2978 139.989 41.2978C139.989 41.2978 139.643 40.8067 139.803 40.5037C139.828 40.4307 139.868 40.3639 139.921 40.3079C139.974 40.252 140.039 40.2081 140.111 40.1794C140.182 40.1506 140.259 40.1376 140.337 40.1412C140.414 40.1449 140.489 40.1651 140.558 40.2005C140.626 40.236 140.687 40.2858 140.734 40.3465C140.782 40.4073 140.816 40.4775 140.833 40.5525C140.851 40.6275 140.853 40.7054 140.837 40.781C140.822 40.8566 140.791 40.928 140.746 40.9903Z" fill="black"/>
<path d="M140.146 42.3346C139.88 42.1134 140 41.5316 140 41.5316C140 41.5316 140.552 41.297 140.819 41.5138C140.887 41.552 140.946 41.6045 140.991 41.6677C141.037 41.7309 141.068 41.8032 141.083 41.8797C141.098 41.9563 141.096 42.0351 141.077 42.1107C141.058 42.1863 141.022 42.2568 140.973 42.3174C140.924 42.378 140.862 42.4272 140.792 42.4615C140.722 42.4958 140.645 42.5144 140.567 42.516C140.489 42.5176 140.412 42.5022 140.34 42.4709C140.268 42.4396 140.205 42.3931 140.153 42.3346H140.146Z" fill="black"/>
<path d="M139.106 41.7999C139.441 41.8796 139.834 41.4261 139.834 41.4261C139.834 41.4261 139.685 40.8465 139.35 40.7625C139.279 40.734 139.202 40.7214 139.125 40.7253C139.048 40.7292 138.972 40.7496 138.904 40.7851C138.836 40.8207 138.776 40.8705 138.728 40.9312C138.681 40.9919 138.647 41.0621 138.63 41.1369C138.612 41.2118 138.611 41.2896 138.626 41.365C138.641 41.4404 138.672 41.5117 138.717 41.574C138.763 41.6363 138.821 41.6881 138.888 41.726C138.955 41.7638 139.029 41.7868 139.106 41.7933V41.7999Z" fill="black"/>
<path d="M145.137 43.9027C144.869 44.124 144.319 43.8762 144.319 43.8762C144.319 43.8762 144.203 43.29 144.472 43.0754C144.524 43.0173 144.588 42.9712 144.66 42.9403C144.732 42.9095 144.81 42.8946 144.888 42.8967C144.966 42.8988 145.043 42.9179 145.113 42.9526C145.183 42.9873 145.245 43.0368 145.294 43.0977C145.343 43.1586 145.378 43.2293 145.396 43.3051C145.415 43.3808 145.417 43.4598 145.402 43.5364C145.387 43.613 145.356 43.6854 145.31 43.7487C145.264 43.812 145.205 43.8645 145.137 43.9027Z" fill="black"/>
<path d="M144.039 44.8896C143.886 44.5821 144.235 44.0977 144.235 44.0977C144.235 44.0977 144.833 44.0976 144.989 44.4118C145.035 44.4747 145.067 44.547 145.082 44.6235C145.098 44.7001 145.096 44.779 145.078 44.8549C145.06 44.9308 145.025 45.0018 144.977 45.063C144.928 45.1242 144.867 45.1741 144.797 45.2093C144.727 45.2445 144.65 45.264 144.572 45.2666C144.494 45.2693 144.416 45.2548 144.344 45.2244C144.272 45.194 144.207 45.1483 144.155 45.0905C144.102 45.0327 144.063 44.9641 144.039 44.8896Z" fill="black"/>
<path d="M143.31 43.9787C143.583 44.1866 144.126 43.9323 144.126 43.9323C144.126 43.9323 144.226 43.3438 143.953 43.1359C143.899 43.0808 143.834 43.0381 143.762 43.0104C143.69 42.9827 143.613 42.9709 143.536 42.9756C143.459 42.9804 143.384 43.0015 143.316 43.0378C143.248 43.074 143.189 43.1245 143.142 43.1857C143.095 43.2469 143.062 43.3174 143.045 43.3925C143.028 43.4675 143.028 43.5453 143.044 43.6205C143.06 43.6958 143.092 43.7667 143.138 43.8285C143.184 43.8903 143.242 43.9416 143.31 43.9787Z" fill="black"/>
<path d="M148.591 50.5963C148.325 50.8176 147.775 50.5698 147.775 50.5698C147.775 50.5698 147.659 49.9836 147.928 49.769C147.98 49.7134 148.044 49.6698 148.115 49.641C148.187 49.6122 148.263 49.5989 148.34 49.602C148.416 49.6051 148.491 49.6246 148.56 49.659C148.628 49.6935 148.688 49.7422 148.736 49.8019C148.784 49.8616 148.819 49.9308 148.838 50.0049C148.857 50.079 148.86 50.1563 148.846 50.2316C148.832 50.3069 148.803 50.3784 148.759 50.4413C148.716 50.5043 148.659 50.5571 148.593 50.5963H148.591Z" fill="black"/>
<path d="M147.495 51.5829C147.34 51.2754 147.69 50.791 147.69 50.791C147.69 50.791 148.289 50.791 148.445 51.1051C148.491 51.1681 148.523 51.2404 148.538 51.3169C148.554 51.3934 148.552 51.4724 148.534 51.5483C148.516 51.6242 148.481 51.6952 148.432 51.7564C148.384 51.8176 148.322 51.8675 148.253 51.9027C148.183 51.9378 148.106 51.9574 148.028 51.96C147.95 51.9626 147.872 51.9482 147.8 51.9178C147.728 51.8874 147.663 51.8417 147.61 51.7838C147.558 51.726 147.519 51.6574 147.495 51.5829Z" fill="black"/>
<path d="M146.763 50.6662C147.038 50.8741 147.58 50.6198 147.58 50.6198C147.58 50.6198 147.682 50.0313 147.407 49.8234C147.353 49.7683 147.288 49.7256 147.216 49.6979C147.144 49.6702 147.067 49.6584 146.99 49.6631C146.913 49.6679 146.838 49.6891 146.77 49.7253C146.702 49.7616 146.642 49.812 146.595 49.8732C146.549 49.9344 146.516 50.0049 146.499 50.08C146.482 50.155 146.481 50.2328 146.497 50.308C146.513 50.3833 146.545 50.4542 146.591 50.516C146.637 50.5778 146.696 50.6291 146.763 50.6662Z" fill="black"/>
<path d="M140.127 45.5052C140.348 45.2442 140.932 45.3703 140.932 45.3703C140.932 45.3703 141.154 45.9233 140.932 46.1866C140.891 46.2517 140.837 46.3074 140.773 46.3499C140.709 46.3923 140.636 46.4205 140.56 46.4326C140.484 46.4447 140.407 46.4404 140.333 46.4199C140.258 46.3995 140.19 46.3634 140.131 46.3141C140.072 46.2648 140.024 46.2034 139.991 46.1341C139.958 46.0649 139.94 45.9893 139.939 45.9126C139.938 45.8359 139.953 45.7598 139.984 45.6895C140.015 45.6193 140.06 45.5564 140.118 45.5052H140.127Z" fill="black"/>
<path d="M141.003 44.3191C141.224 44.589 140.972 45.1353 140.972 45.1353C140.972 45.1353 140.382 45.246 140.169 44.9761C140.115 44.9228 140.074 44.8588 140.047 44.7885C140.02 44.7181 140.008 44.6429 140.013 44.5677C140.017 44.4925 140.037 44.419 140.072 44.3521C140.106 44.2852 140.155 44.2264 140.214 44.1794C140.273 44.1324 140.341 44.0984 140.414 44.0795C140.487 44.0607 140.564 44.0574 140.638 44.07C140.712 44.0825 140.783 44.1106 140.846 44.1524C140.909 44.1942 140.962 44.2487 141.003 44.3124V44.3191Z" fill="black"/>
<path d="M141.901 45.0673C141.593 44.9191 141.111 45.2753 141.111 45.2753C141.111 45.2753 141.129 45.8726 141.44 46.023C141.504 46.0679 141.577 46.0983 141.654 46.1122C141.731 46.1261 141.81 46.1232 141.885 46.1035C141.961 46.0839 142.032 46.048 142.092 45.9984C142.152 45.9489 142.201 45.8868 142.235 45.8165C142.269 45.7462 142.287 45.6693 142.289 45.5913C142.29 45.5133 142.274 45.436 142.242 45.3647C142.21 45.2934 142.163 45.2299 142.104 45.1785C142.045 45.1272 141.976 45.0892 141.901 45.0673Z" fill="black"/>
<path d="M146.053 55.7025C146.275 55.4393 146.859 55.5653 146.859 55.5653C146.859 55.5653 147.08 56.1184 146.859 56.3817C146.819 56.4491 146.765 56.5072 146.701 56.5519C146.637 56.5965 146.563 56.6266 146.486 56.6401C146.409 56.6536 146.33 56.6502 146.254 56.63C146.178 56.6099 146.108 56.5735 146.048 56.5234C145.988 56.4734 145.939 56.4108 145.906 56.3402C145.872 56.2695 145.855 56.1924 145.854 56.1143C145.853 56.0361 145.87 55.9588 145.903 55.8876C145.935 55.8165 145.983 55.7534 146.042 55.7025H146.053Z" fill="black"/>
<path d="M146.932 54.5178C147.143 54.7855 146.899 55.3319 146.899 55.3319C146.899 55.3319 146.309 55.4425 146.096 55.1727C146.04 55.1195 145.997 55.0552 145.969 54.9841C145.94 54.9129 145.928 54.8366 145.931 54.7601C145.935 54.6836 145.955 54.6089 145.99 54.5407C146.025 54.4726 146.074 54.4126 146.134 54.365C146.194 54.3173 146.264 54.283 146.338 54.2643C146.413 54.2456 146.49 54.243 146.566 54.2566C146.641 54.2703 146.713 54.2999 146.776 54.3434C146.839 54.3869 146.892 54.4434 146.932 54.509V54.5178Z" fill="black"/>
<path d="M147.828 55.2627C147.519 55.1144 147.038 55.4706 147.038 55.4706C147.038 55.4706 147.058 56.0679 147.366 56.2183C147.43 56.2632 147.503 56.2936 147.58 56.3075C147.657 56.3214 147.736 56.3184 147.812 56.2988C147.888 56.2791 147.958 56.2433 148.019 56.1937C148.079 56.1442 148.128 56.0821 148.162 56.0118C148.196 55.9415 148.214 55.8647 148.215 55.7866C148.217 55.7086 148.201 55.6313 148.169 55.56C148.137 55.4887 148.09 55.4252 148.031 55.3739C147.972 55.3225 147.903 55.2846 147.828 55.2627Z" fill="black"/>
<path d="M143.008 48.6749C143.343 48.5975 143.734 49.051 143.734 49.051C143.734 49.051 143.581 49.6305 143.246 49.7146C143.174 49.7422 143.097 49.754 143.02 49.7494C142.944 49.7447 142.869 49.7237 142.801 49.6877C142.733 49.6516 142.673 49.6015 142.627 49.5405C142.58 49.4796 142.547 49.4094 142.53 49.3346C142.512 49.2598 142.512 49.1822 142.527 49.1071C142.543 49.0319 142.574 48.961 142.62 48.8991C142.665 48.8372 142.723 48.7857 142.79 48.7481C142.857 48.7106 142.932 48.6879 143.008 48.6816V48.6749Z" fill="black"/>
<path d="M144.425 48.2707C144.425 48.6135 143.904 48.8989 143.904 48.8989C143.904 48.8989 143.369 48.6313 143.363 48.2884C143.351 48.2126 143.355 48.1351 143.375 48.0611C143.396 47.9871 143.432 47.9184 143.481 47.8596C143.531 47.8007 143.592 47.7532 143.662 47.7201C143.731 47.6871 143.807 47.6693 143.884 47.668C143.961 47.6668 144.037 47.682 144.108 47.7127C144.178 47.7434 144.241 47.7889 144.292 47.8461C144.344 47.9032 144.382 47.9707 144.405 48.0439C144.428 48.1172 144.435 48.1945 144.425 48.2707Z" fill="black"/>
<path d="M144.688 49.4077C144.532 49.1024 143.934 49.0957 143.934 49.0957C143.934 49.0957 143.585 49.5824 143.741 49.8877C143.765 49.9604 143.805 50.0271 143.858 50.083C143.911 50.139 143.975 50.1829 144.046 50.2119C144.118 50.2409 144.194 50.2543 144.271 50.2511C144.348 50.248 144.424 50.2283 144.492 50.1935C144.561 50.1587 144.621 50.1096 144.669 50.0495C144.717 49.9894 144.752 49.9197 144.77 49.8451C144.789 49.7706 144.791 49.6929 144.777 49.6174C144.762 49.5419 144.732 49.4704 144.688 49.4077Z" fill="black"/>
<path d="M158.34 55.9742C158.022 56.1025 157.565 55.7132 157.565 55.7132C157.565 55.7132 157.623 55.1181 157.942 54.9898C158.009 54.9495 158.084 54.9241 158.162 54.9154C158.239 54.9068 158.318 54.9151 158.392 54.9397C158.466 54.9644 158.534 55.0049 158.591 55.0583C158.648 55.1117 158.692 55.1768 158.722 55.2491C158.751 55.3214 158.764 55.3991 158.76 55.4769C158.756 55.5548 158.735 55.6308 158.699 55.6997C158.662 55.7687 158.611 55.829 158.549 55.8764C158.487 55.9238 158.416 55.9571 158.34 55.9742Z" fill="black"/>
<path d="M157.006 56.6058C156.946 56.2674 157.421 55.9023 157.421 55.9023C157.421 55.9023 157.993 56.0815 158.053 56.42C158.079 56.4936 158.089 56.5719 158.082 56.6496C158.075 56.7274 158.05 56.8026 158.011 56.8701C157.972 56.9375 157.918 56.9956 157.854 57.0403C157.79 57.0851 157.717 57.1153 157.64 57.129C157.563 57.1426 157.483 57.1394 157.408 57.1195C157.332 57.0996 157.262 57.0635 157.201 57.0138C157.141 56.964 157.092 56.9017 157.059 56.8312C157.025 56.7608 157.007 56.6839 157.006 56.6058Z" fill="black"/>
<path d="M156.567 55.5328C156.769 55.8093 157.363 55.7208 157.363 55.7208C157.363 55.7208 157.629 55.1854 157.428 54.9089C157.392 54.8393 157.342 54.7782 157.281 54.7298C157.22 54.6813 157.149 54.6468 157.073 54.6284C156.997 54.6101 156.918 54.6084 156.842 54.6235C156.765 54.6386 156.692 54.6702 156.629 54.716C156.566 54.7618 156.514 54.8208 156.476 54.8888C156.438 54.9568 156.415 55.0323 156.409 55.11C156.403 55.1877 156.414 55.2657 156.441 55.3387C156.469 55.4117 156.511 55.4779 156.567 55.5328Z" fill="black"/>
<path d="M155.374 59.8801C155.043 59.7894 154.919 59.2032 154.919 59.2032C154.919 59.2032 155.329 58.7607 155.66 58.8603C155.736 58.8699 155.81 58.8958 155.876 58.9363C155.941 58.9769 155.997 59.0311 156.04 59.0952C156.083 59.1593 156.111 59.2318 156.123 59.3079C156.135 59.3839 156.131 59.4616 156.11 59.5357C156.089 59.6098 156.053 59.6786 156.003 59.7374C155.953 59.7961 155.891 59.8434 155.821 59.8761C155.751 59.9088 155.675 59.9261 155.598 59.9268C155.521 59.9275 155.444 59.9115 155.374 59.8801Z" fill="black"/>
<path d="M153.932 59.5709C154.089 59.2656 154.69 59.2656 154.69 59.2656C154.69 59.2656 155.034 59.7545 154.875 60.0598C154.849 60.1322 154.808 60.1984 154.755 60.2538C154.702 60.3092 154.637 60.3526 154.566 60.3809C154.494 60.4092 154.417 60.4218 154.34 60.4179C154.264 60.414 154.188 60.3936 154.12 60.3582C154.052 60.3228 153.992 60.2731 153.945 60.2126C153.897 60.1521 153.864 60.0821 153.846 60.0074C153.828 59.9327 153.826 59.8551 153.841 59.7798C153.856 59.7045 153.887 59.6332 153.932 59.5709Z" fill="black"/>
<path d="M154.245 58.4482C154.245 58.7888 154.759 59.0809 154.759 59.0809C154.759 59.0809 155.298 58.8176 155.307 58.4747C155.322 58.398 155.32 58.3189 155.302 58.2429C155.283 58.167 155.248 58.0961 155.199 58.0351C155.15 57.9741 155.088 57.9245 155.017 57.8898C154.947 57.8551 154.87 57.8361 154.792 57.8342C154.713 57.8322 154.636 57.8473 154.564 57.8785C154.492 57.9096 154.427 57.9561 154.375 58.0145C154.323 58.073 154.285 58.1421 154.262 58.217C154.239 58.2919 154.234 58.3708 154.245 58.4482Z" fill="black"/>
<path d="M153.03 56.0916C153.01 56.4322 152.462 56.68 152.462 56.68C152.462 56.68 151.949 56.3703 151.969 56.0296C151.963 55.953 151.972 55.8759 151.998 55.8034C152.024 55.7309 152.065 55.6648 152.119 55.6097C152.173 55.5545 152.238 55.5115 152.31 55.4837C152.381 55.4558 152.458 55.4437 152.535 55.4482C152.612 55.4527 152.688 55.4737 152.756 55.5097C152.824 55.5457 152.883 55.596 152.93 55.6571C152.977 55.7181 153.01 55.7885 153.027 55.8635C153.045 55.9385 153.045 56.0163 153.03 56.0916Z" fill="black"/>
<path d="M153.029 57.5634C152.699 57.4749 152.57 56.8997 152.57 56.8997C152.57 56.8997 152.978 56.4573 153.309 56.5525C153.385 56.5617 153.459 56.5873 153.525 56.6274C153.59 56.6676 153.647 56.7214 153.69 56.7852C153.733 56.849 153.762 56.9213 153.774 56.9971C153.787 57.073 153.782 57.1506 153.762 57.2248C153.742 57.2989 153.706 57.3678 153.656 57.4268C153.607 57.4859 153.546 57.5336 153.476 57.5668C153.407 57.6 153.331 57.6178 153.254 57.6192C153.176 57.6205 153.1 57.6052 153.029 57.5745V57.5634Z" fill="black"/>
<path d="M151.86 57.4972C152.2 57.433 152.375 56.8601 152.375 56.8601C152.375 56.8601 152.002 56.3911 151.665 56.4552C151.588 56.4585 151.513 56.4783 151.444 56.5131C151.376 56.5479 151.316 56.597 151.268 56.657C151.22 56.7171 151.186 56.7866 151.167 56.8611C151.149 56.9355 151.146 57.013 151.161 57.0884C151.175 57.1638 151.205 57.2353 151.249 57.298C151.293 57.3608 151.351 57.4133 151.417 57.4521C151.483 57.4908 151.557 57.5149 151.634 57.5227C151.71 57.5305 151.787 57.5217 151.86 57.4972Z" fill="black"/>
<path d="M138.623 85.2734H155.913C155.973 85.2733 156.032 85.2867 156.086 85.3124C156.14 85.3382 156.187 85.3757 156.225 85.4222C156.262 85.4687 156.289 85.523 156.302 85.5811C156.316 85.6392 156.316 85.6996 156.303 85.7579L156.081 86.8286C156.062 86.9177 156.012 86.9975 155.94 87.0546C155.869 87.1117 155.78 87.1428 155.689 87.1427H139.038C138.956 87.1429 138.876 87.1182 138.809 87.0719C138.742 87.0257 138.691 86.96 138.663 86.8839L138.259 85.8132C138.236 85.7536 138.228 85.6895 138.235 85.6262C138.243 85.5629 138.265 85.5023 138.301 85.4494C138.336 85.3965 138.384 85.3529 138.44 85.3223C138.496 85.2917 138.559 85.2749 138.623 85.2734V85.2734Z" stroke="black" stroke-width="0.226607" stroke-miterlimit="10"/>
<path d="M139.996 88.8283C140.187 88.8283 154.757 87.1426 154.757 87.1426H139.821L139.996 88.8283Z" fill="black"/>
<path d="M95.1399 57.2363H99.1835C99.2282 57.2364 99.2724 57.2459 99.3132 57.264C99.354 57.2822 99.3906 57.3087 99.4205 57.3419C99.4504 57.375 99.473 57.4141 99.4868 57.4565C99.5006 57.4989 99.5054 57.5437 99.5007 57.5881L99.1014 61.5302C99.0915 61.6313 99.0442 61.7251 98.9688 61.7933C98.8934 61.8616 98.7952 61.8995 98.6933 61.8996H95.537C95.4333 61.8999 95.3334 61.861 95.2573 61.7909C95.1812 61.7207 95.1345 61.6244 95.1267 61.5213L94.8183 57.5792C94.8149 57.5352 94.8208 57.491 94.8354 57.4493C94.8501 57.4077 94.8733 57.3695 94.9036 57.3373C94.9338 57.305 94.9704 57.2794 95.0111 57.2621C95.0518 57.2447 95.0957 57.2359 95.1399 57.2363V57.2363Z" stroke="black" stroke-width="0.226607" stroke-miterlimit="10"/>
<path d="M94.8716 58.252H99.4342L94.9359 59.066L94.8716 58.252Z" fill="black"/>
<path d="M98.9834 56.1963C98.9803 56.3393 98.9398 56.4791 98.8659 56.6017C98.792 56.7243 98.6872 56.8255 98.5619 56.8953C98.1339 57.1253 97.6499 57.2319 97.1645 57.2028C96.3239 57.2028 95.8337 56.997 95.5986 56.6918C95.4711 56.5175 95.4158 56.3009 95.4443 56.0871C95.4728 55.8733 95.5829 55.6787 95.7516 55.5437C96.02 55.3225 96.4769 55.1875 97.1645 55.1875C97.9453 55.1875 98.4599 55.3645 98.7371 55.6299C98.8148 55.7025 98.8767 55.7902 98.9191 55.8877C98.9614 55.9851 98.9833 56.0901 98.9834 56.1963V56.1963Z" stroke="black" stroke-width="0.226607" stroke-miterlimit="10"/>
<path d="M98.7771 53.7415C98.8201 53.8311 98.8388 53.9302 98.8314 54.0292C98.824 54.1281 98.7907 54.2235 98.735 54.3056C98.5409 54.5809 98.2746 54.7975 97.9653 54.9317C97.444 55.1949 97.0781 55.2193 96.8341 55.102C96.7008 55.0336 96.599 54.9166 96.5498 54.7753C96.5007 54.6341 96.5079 54.4794 96.5702 54.3433C96.745 54.0441 97.014 53.8108 97.3354 53.6796C97.8167 53.4363 98.1916 53.3854 98.4444 53.4584C98.5165 53.4802 98.5832 53.5165 98.6405 53.5653C98.6977 53.614 98.7443 53.674 98.7771 53.7415V53.7415Z" stroke="black" stroke-width="0.226607" stroke-miterlimit="10"/>
<path d="M97.9477 52.6121C97.9808 52.6047 98.0152 52.6061 98.0475 52.6162C98.0798 52.6263 98.1089 52.6447 98.1318 52.6696C98.2084 52.7532 98.26 52.8567 98.2804 52.9682C98.3048 53.0305 98.3146 53.0976 98.3093 53.1642C98.3039 53.2309 98.2834 53.2955 98.2494 53.3531C98.2233 53.3861 98.1864 53.4089 98.1451 53.4173C98.1166 53.425 98.0866 53.4258 98.0577 53.4196C98.0287 53.4135 98.0017 53.4005 97.9788 53.3819C97.893 53.3024 97.8368 53.1964 97.8191 53.081C97.7755 52.957 97.7803 52.8212 97.8324 52.7005C97.8448 52.6789 97.8613 52.6599 97.8811 52.6447C97.9009 52.6295 97.9236 52.6185 97.9477 52.6121Z" fill="black"/>
<path d="M88.5386 61.9001L95.0863 61.002V61.9841L88.5386 61.9001Z" fill="black"/>
<path d="M10.8707 63.6272C-10.842 47.1777 3.40912 -3.42528 42.9596 2.71122C82.5101 8.84772 130.334 97.4686 182.9 0.0566406" stroke="black" stroke-width="0.226607" stroke-miterlimit="10"/>
</g>
<defs>
<clipPath id="clip0_477_8672">
<rect width="183" height="102" fill="white"/>
</clipPath>
</defs>
</svg>
