<svg width="30" height="30" viewBox="0 0 30 30" fill="none" xmlns="http://www.w3.org/2000/svg">
<g id="BarChart">
<path id="Vector" d="M27.589 24.3756H4.55329V3.4827C4.55329 3.33538 4.43276 3.21484 4.28544 3.21484H2.41044C2.26311 3.21484 2.14258 3.33538 2.14258 3.4827V26.5184C2.14258 26.6657 2.26311 26.7863 2.41044 26.7863H27.589C27.7363 26.7863 27.8569 26.6657 27.8569 26.5184V24.6434C27.8569 24.4961 27.7363 24.3756 27.589 24.3756ZM7.49972 21.697H9.37472C9.52204 21.697 9.64258 21.5765 9.64258 21.4291V16.6077C9.64258 16.4604 9.52204 16.3398 9.37472 16.3398H7.49972C7.3524 16.3398 7.23186 16.4604 7.23186 16.6077V21.4291C7.23186 21.5765 7.3524 21.697 7.49972 21.697ZM12.589 21.697H14.464C14.6113 21.697 14.7319 21.5765 14.7319 21.4291V10.7148C14.7319 10.5675 14.6113 10.447 14.464 10.447H12.589C12.4417 10.447 12.3212 10.5675 12.3212 10.7148V21.4291C12.3212 21.5765 12.4417 21.697 12.589 21.697ZM17.6783 21.697H19.5533C19.7006 21.697 19.8212 21.5765 19.8212 21.4291V13.3265C19.8212 13.1791 19.7006 13.0586 19.5533 13.0586H17.6783C17.531 13.0586 17.4104 13.1791 17.4104 13.3265V21.4291C17.4104 21.5765 17.531 21.697 17.6783 21.697ZM22.7676 21.697H24.6426C24.7899 21.697 24.9104 21.5765 24.9104 21.4291V8.03627C24.9104 7.88895 24.7899 7.76842 24.6426 7.76842H22.7676C22.6203 7.76842 22.4997 7.88895 22.4997 8.03627V21.4291C22.4997 21.5765 22.6203 21.697 22.7676 21.697Z" fill="#FF3A3A"/>
</g>
</svg>
