<svg width="40" height="41" viewBox="0 0 40 41" fill="none" xmlns="http://www.w3.org/2000/svg">
<g id="FileZip" clip-path="url(#clip0_3683_17724)">
<path id="Vector" d="M10.3585 15.1429H13.2157V18H10.3585V15.1429ZM10.3585 23.625V30.7679H16.0728V23.625H13.2157V20.8571H10.3585V23.625ZM13.93 25.7679V28.625H12.5014V25.7679H13.93ZM13.2157 12.2857H16.0728V15.1429H13.2157V12.2857ZM10.3585 9.42857H13.2157V12.2857H10.3585V9.42857ZM13.2157 18H16.0728V20.8571H13.2157V18ZM13.2157 6.57143H16.0728V9.42857H13.2157V6.57143ZM35.296 10.5268L25.6889 0.919643C25.421 0.651786 25.0594 0.5 24.68 0.5H5.71568C4.9255 0.5 4.28711 1.13839 4.28711 1.92857V39.0714C4.28711 39.8616 4.9255 40.5 5.71568 40.5H34.2871C35.0773 40.5 35.7157 39.8616 35.7157 39.0714V11.5402C35.7157 11.1607 35.5639 10.7946 35.296 10.5268ZM32.421 12.1964H24.0193V3.79464L32.421 12.1964ZM32.5014 37.2857H7.5014V3.71429H10.3585V6.57143H13.2157V3.71429H20.9835V13.3571C20.9835 13.8544 21.1811 14.3313 21.5327 14.683C21.8843 15.0346 22.3613 15.2321 22.8585 15.2321H32.5014V37.2857Z" fill="#434343"/>
</g>
<defs>
<clipPath id="clip0_3683_17724">
<rect width="40" height="40" fill="white" transform="translate(0 0.5)"/>
</clipPath>
</defs>
</svg>
