<svg width="30" height="30" viewBox="0 0 30 30" fill="none" xmlns="http://www.w3.org/2000/svg">
<g id="FileProtect">
<path id="Vector" d="M19.442 20.2561C19.4173 20.2216 19.3846 20.1936 19.3467 20.1744C19.3088 20.1551 19.2669 20.1453 19.2244 20.1456H17.7445C17.5269 20.1456 17.3996 20.3934 17.5269 20.5709L19.9978 23.9894C20.105 24.1367 20.3226 24.1367 20.4298 23.9894L24.2534 18.6992C24.3807 18.5218 24.2534 18.274 24.0358 18.274H22.5525C22.4655 18.274 22.3851 18.3142 22.3349 18.3845L20.2088 21.3242L19.442 20.2561ZM20.8918 8.09542V6.48828C20.8918 6.34096 20.7713 6.22042 20.624 6.22042H7.76681C7.61949 6.22042 7.49895 6.34096 7.49895 6.48828V8.09542C7.49895 8.24275 7.61949 8.36328 7.76681 8.36328H20.624C20.7713 8.36328 20.8918 8.24275 20.8918 8.09542ZM7.76681 11.0419C7.61949 11.0419 7.49895 11.1624 7.49895 11.3097V12.9169C7.49895 13.0642 7.61949 13.1847 7.76681 13.1847H13.9275C14.0748 13.1847 14.1954 13.0642 14.1954 12.9169V11.3097C14.1954 11.1624 14.0748 11.0419 13.9275 11.0419H7.76681ZM13.9275 26.3767H4.82038V2.80525H23.5704V12.716C23.5704 12.8633 23.6909 12.9838 23.8382 12.9838H25.7132C25.8606 12.9838 25.9811 12.8633 25.9811 12.716V1.46596C25.9811 0.873326 25.5023 0.394531 24.9097 0.394531H3.4811C2.88846 0.394531 2.40967 0.873326 2.40967 1.46596V27.716C2.40967 28.3086 2.88846 28.7874 3.4811 28.7874H13.9275C14.0748 28.7874 14.1954 28.6669 14.1954 28.5195V26.6445C14.1954 26.4972 14.0748 26.3767 13.9275 26.3767ZM27.4074 15.6356L20.9789 13.4023C20.9487 13.3923 20.9219 13.389 20.8918 13.389C20.8617 13.389 20.8315 13.3923 20.8048 13.4023L14.3762 15.6356C14.3237 15.6534 14.278 15.6872 14.2456 15.7322C14.2132 15.7772 14.1956 15.8313 14.1954 15.8867V24.2941C14.1954 24.3778 14.2322 24.4548 14.2992 24.505L20.7277 29.534C20.7746 29.5709 20.8349 29.591 20.8918 29.591C20.9487 29.591 21.009 29.5709 21.0559 29.534L27.4844 24.505C27.5481 24.4548 27.5882 24.3778 27.5882 24.2941V15.8867C27.5882 15.7729 27.5146 15.6724 27.4074 15.6356ZM25.5123 23.4202L20.8918 27.0329L16.2713 23.4202V17.1691L20.8918 15.5619L25.5123 17.1691V23.4202Z" fill="#FF3A3A"/>
</g>
</svg>
