<svg width="30" height="30" viewBox="0 0 30 30" fill="none" xmlns="http://www.w3.org/2000/svg">
<g id="FileDone">
<path id="Vector" d="M20.8938 8.29632V6.68917C20.8938 6.54185 20.7732 6.42132 20.6259 6.42132H7.76876C7.62144 6.42132 7.50091 6.54185 7.50091 6.68917V8.29632C7.50091 8.44364 7.62144 8.56417 7.76876 8.56417H20.6259C20.7732 8.56417 20.8938 8.44364 20.8938 8.29632ZM7.76876 11.2427C7.62144 11.2427 7.50091 11.3633 7.50091 11.5106V13.1177C7.50091 13.2651 7.62144 13.3856 7.76876 13.3856H13.9295C14.0768 13.3856 14.1973 13.2651 14.1973 13.1177V11.5106C14.1973 11.3633 14.0768 11.2427 13.9295 11.2427H7.76876ZM20.3581 15.1267C16.3636 15.1267 13.1259 18.3644 13.1259 22.3588C13.1259 26.3532 16.3636 29.591 20.3581 29.591C24.3525 29.591 27.5902 26.3532 27.5902 22.3588C27.5902 18.3644 24.3525 15.1267 20.3581 15.1267ZM23.9574 25.9581C22.9964 26.9191 21.7174 27.4481 20.3581 27.4481C18.9987 27.4481 17.7197 26.9191 16.7587 25.9581C15.7978 24.9972 15.2688 23.7182 15.2688 22.3588C15.2688 20.9994 15.7978 19.7204 16.7587 18.7595C17.7197 17.7985 18.9987 17.2695 20.3581 17.2695C21.7174 17.2695 22.9964 17.7985 23.9574 18.7595C24.9183 19.7204 25.4473 20.9994 25.4473 22.3588C25.4473 23.7182 24.9183 24.9972 23.9574 25.9581ZM23.338 19.8142H21.8547C21.7677 19.8142 21.6873 19.8544 21.6371 19.9247L19.511 22.8644L18.7375 21.7963C18.7127 21.7618 18.68 21.7338 18.6422 21.7145C18.6043 21.6953 18.5624 21.6855 18.5199 21.6858H17.0433C16.8257 21.6858 16.6985 21.9336 16.8257 22.111L19.2967 25.5296C19.4038 25.6769 19.6214 25.6769 19.7286 25.5296L23.5522 20.2394C23.6828 20.0619 23.5556 19.8142 23.338 19.8142ZM12.5902 26.3767H4.82234V2.80525H23.5723V14.3231C23.5723 14.4704 23.6929 14.591 23.8402 14.591H25.7152C25.8625 14.591 25.9831 14.4704 25.9831 14.3231V1.46596C25.9831 0.873326 25.5043 0.394531 24.9116 0.394531H3.48305C2.89042 0.394531 2.41162 0.873326 2.41162 1.46596V27.716C2.41162 28.3086 2.89042 28.7874 3.48305 28.7874H12.5902C12.7375 28.7874 12.8581 28.6669 12.8581 28.5195V26.6445C12.8581 26.4972 12.7375 26.3767 12.5902 26.3767Z" fill="#FF3A3A"/>
</g>
</svg>
