<svg width="30" height="30" viewBox="0 0 30 30" fill="none" xmlns="http://www.w3.org/2000/svg">
<g id="Mail" clip-path="url(#clip0_1409_17212)">
<path id="Vector" d="M28.9286 3.20703H1.07143C0.478795 3.20703 0 3.68583 0 4.27846V25.707C0 26.2997 0.478795 26.7785 1.07143 26.7785H28.9286C29.5212 26.7785 30 26.2997 30 25.707V4.27846C30 3.68583 29.5212 3.20703 28.9286 3.20703ZM27.5893 6.91685V24.3677H2.41071V6.91685L1.48661 6.19699L2.80246 4.50614L4.23549 5.62109H25.7679L27.2009 4.50614L28.5167 6.19699L27.5893 6.91685ZM25.7679 5.61775L15 13.9883L4.23214 5.61775L2.79911 4.50279L1.48326 6.19364L2.40737 6.91351L13.8449 15.8064C14.1738 16.0619 14.5785 16.2006 14.995 16.2006C15.4115 16.2006 15.8162 16.0619 16.1451 15.8064L27.5893 6.91685L28.5134 6.19699L27.1975 4.50614L25.7679 5.61775Z" fill="#FF3A3A"/>
</g>
<defs>
<clipPath id="clip0_1409_17212">
<rect width="30" height="30" fill="white"/>
</clipPath>
</defs>
</svg>
