<svg width="30" height="30" viewBox="0 0 30 30" fill="none" xmlns="http://www.w3.org/2000/svg">
<g id="Safety">
<g id="Vector">
<path d="M15 1.875L3.75 5.625V16.875C3.75 23.0889 8.78613 28.125 15 28.125C21.2139 28.125 26.25 23.0889 26.25 16.875V5.625L15 1.875ZM24.1406 16.875C24.1406 21.9229 20.0479 26.0156 15 26.0156C9.95215 26.0156 5.85938 21.9229 5.85938 16.875V7.20703L15 3.98438L24.1406 7.20703V16.875Z" fill="#FF3A3A"/>
<path d="M11.0845 13.9154C10.9868 13.8172 10.8706 13.7393 10.7426 13.6861C10.6147 13.6329 10.4775 13.6056 10.3389 13.6056C10.2004 13.6056 10.0632 13.6329 9.93522 13.6861C9.80727 13.7393 9.69108 13.8172 9.59332 13.9154C9.49512 14.0131 9.4172 14.1293 9.36403 14.2573C9.31086 14.3852 9.28349 14.5224 9.28349 14.661C9.28349 14.7996 9.31086 14.9367 9.36403 15.0647C9.4172 15.1927 9.49512 15.3088 9.59332 15.4066L13.4459 19.2591C13.5383 19.3518 13.6482 19.4253 13.7691 19.4754C13.89 19.5256 14.0196 19.5514 14.1505 19.5514C14.2813 19.5514 14.4109 19.5256 14.5318 19.4754C14.6527 19.4253 14.7626 19.3518 14.855 19.2591L21.4029 12.7113C21.4955 12.6188 21.569 12.509 21.6192 12.3881C21.6693 12.2672 21.6951 12.1376 21.6951 12.0067C21.6951 11.8758 21.6693 11.7462 21.6192 11.6253C21.569 11.5044 21.4955 11.3946 21.4029 11.3021L21.3209 11.2201C21.2284 11.1274 21.1186 11.0539 20.9977 11.0038C20.8768 10.9536 20.7472 10.9278 20.6163 10.9278C20.4854 10.9278 20.3558 10.9536 20.2349 11.0038C20.114 11.0539 20.0041 11.1274 19.9117 11.2201L14.149 16.9798L11.0845 13.9154Z" fill="#FF3A3A"/>
</g>
</g>
</svg>
