<svg width="30" height="30" viewBox="0 0 30 30" fill="none" xmlns="http://www.w3.org/2000/svg">
<g id="Team">
<path id="Vector" d="M25.4535 21.2943C24.6154 20.4556 23.6362 19.771 22.5606 19.272C24.0774 18.0432 25.045 16.1682 25.045 14.0655C25.045 10.3557 21.9513 7.31217 18.2414 7.36909C14.5885 7.42601 11.6455 10.4026 11.6455 14.0655C11.6455 16.1682 12.6164 18.0432 14.1298 19.272C13.0541 19.7706 12.0748 20.4553 11.237 21.2943C9.40885 23.1258 8.3709 25.5432 8.30393 28.1213C8.30304 28.1571 8.30931 28.1926 8.32237 28.2259C8.33543 28.2592 8.35502 28.2895 8.37998 28.3151C8.40494 28.3407 8.43477 28.361 8.46772 28.3749C8.50066 28.3887 8.53605 28.3959 8.57179 28.3959H10.4468C10.5908 28.3959 10.7113 28.282 10.7146 28.1381C10.7783 26.1961 11.5651 24.378 12.9479 22.9986C13.6555 22.2872 14.4972 21.7232 15.4242 21.3393C16.3512 20.9554 17.3452 20.7592 18.3486 20.7619C20.3876 20.7619 22.3062 21.5555 23.7492 22.9986C25.1287 24.378 25.9155 26.1961 25.9825 28.1381C25.9859 28.282 26.1064 28.3959 26.2504 28.3959H28.1254C28.1611 28.3959 28.1965 28.3887 28.2294 28.3749C28.2624 28.361 28.2922 28.3407 28.3172 28.3151C28.3421 28.2895 28.3617 28.2592 28.3748 28.2259C28.3878 28.1926 28.3941 28.1571 28.3932 28.1213C28.3263 25.5432 27.2883 23.1258 25.4535 21.2943ZM18.3486 18.3512C17.2035 18.3512 16.1254 17.9059 15.3184 17.0957C14.9135 16.6939 14.5936 16.2147 14.3779 15.6866C14.1622 15.1585 14.055 14.5924 14.0629 14.022C14.0729 12.9238 14.5115 11.8624 15.2783 11.0756C16.0818 10.2519 17.1566 9.7932 18.3051 9.7798C19.4401 9.76976 20.5417 10.2117 21.3519 11.0053C22.1823 11.8189 22.6376 12.907 22.6376 14.0655C22.6376 15.2106 22.1923 16.2854 21.3821 17.0957C20.9845 17.4951 20.5118 17.8117 19.9911 18.0272C19.4704 18.2427 18.9121 18.3529 18.3486 18.3512ZM9.9613 14.9494C9.93117 14.6582 9.91443 14.3635 9.91443 14.0655C9.91443 13.5332 9.96465 13.0142 10.0584 12.5086C10.0818 12.3881 10.0182 12.2642 9.90773 12.214C9.45237 12.0097 9.03385 11.7285 8.67224 11.3736C8.24614 10.9604 7.91085 10.463 7.68775 9.91301C7.46464 9.36303 7.35863 8.77259 7.37648 8.17936C7.40661 7.10458 7.83853 6.08338 8.59188 5.31329C9.41889 4.46619 10.5305 4.00413 11.7124 4.01753C12.7805 4.02757 13.8117 4.4394 14.5919 5.16931C14.8564 5.41708 15.0841 5.69163 15.2749 5.98628C15.3419 6.09007 15.4725 6.1336 15.5863 6.09342C16.1756 5.88918 16.7984 5.74521 17.4379 5.67824C17.6254 5.65815 17.7325 5.45726 17.6488 5.28985C16.5606 3.13695 14.3374 1.65034 11.766 1.61016C8.05282 1.55324 4.95907 4.59677 4.95907 8.30324C4.95907 10.4059 5.9267 12.2809 7.44344 13.5097C6.37871 14.0019 5.39768 14.6816 4.54724 15.532C2.71242 17.3635 1.67447 19.7809 1.60751 22.3624C1.60661 22.3981 1.61288 22.4337 1.62594 22.467C1.639 22.5002 1.65859 22.5306 1.68355 22.5561C1.70851 22.5817 1.73835 22.6021 1.77129 22.6159C1.80423 22.6298 1.83962 22.637 1.87536 22.6369H3.75371C3.89768 22.6369 4.01822 22.5231 4.02157 22.3791C4.08518 20.4372 4.87201 18.6191 6.25483 17.2396C7.2392 16.2553 8.44456 15.5722 9.76041 15.2407C9.89099 15.2073 9.97804 15.0834 9.9613 14.9494Z" fill="#FF3A3A"/>
</g>
</svg>
