<svg width="36" height="37" viewBox="0 0 36 37" fill="none" xmlns="http://www.w3.org/2000/svg">
<g id="Social Icons" clip-path="url(#clip0_712_14474)">
<path id="Vector" d="M33.1645 0.885742H2.6559C1.95514 0.885742 1.28308 1.16412 0.787563 1.65963C0.292049 2.15515 0.0136719 2.82721 0.0136719 3.52797V34.0366C0.0136719 34.7374 0.292049 35.4094 0.787563 35.905C1.28308 36.4005 1.95514 36.6788 2.6559 36.6788H33.1645C33.8653 36.6788 34.5374 36.4005 35.0329 35.905C35.5284 35.4094 35.8068 34.7374 35.8068 34.0366V3.52797C35.8068 2.82721 35.5284 2.15515 35.0329 1.65963C34.5374 1.16412 33.8653 0.885742 33.1645 0.885742ZM10.682 31.377H5.30061V14.2833H10.682V31.377ZM7.98758 11.9145C7.37715 11.9111 6.78142 11.7269 6.27558 11.3852C5.76973 11.0435 5.37643 10.5596 5.14532 9.99462C4.91422 9.42963 4.85565 8.80883 4.97703 8.21058C5.0984 7.61234 5.39427 7.06345 5.8273 6.63319C6.26033 6.20294 6.8111 5.9106 7.41012 5.79307C8.00913 5.67554 8.62954 5.73808 9.19304 5.97281C9.75654 6.20755 10.2379 6.60394 10.5763 7.11197C10.9147 7.62 11.0951 8.2169 11.0946 8.82734C11.1004 9.23602 11.0238 9.64169 10.8694 10.0201C10.7151 10.3986 10.4861 10.7421 10.1962 11.0302C9.90623 11.3183 9.56126 11.5451 9.18181 11.697C8.80237 11.8489 8.39622 11.9229 7.98758 11.9145ZM30.5173 31.3919H25.1384V22.0534C25.1384 19.2993 23.9677 18.4492 22.4564 18.4492C20.8607 18.4492 19.2947 19.6523 19.2947 22.123V31.3919H13.9133V14.2957H19.0884V16.6645H19.158C19.6775 15.6131 21.497 13.816 24.2734 13.816C27.2761 13.816 30.5198 15.5982 30.5198 20.818L30.5173 31.3919Z" fill="#0A66C2"/>
</g>
<defs>
<clipPath id="clip0_712_14474">
<rect width="35.7931" height="35.7931" fill="white" transform="translate(0.0136719 0.885742)"/>
</clipPath>
</defs>
</svg>
