<svg width="37" height="37" viewBox="0 0 37 37" fill="none" xmlns="http://www.w3.org/2000/svg">
<g id="Social Icons" clip-path="url(#clip0_712_14476)">
<path id="Vector" d="M27.2581 17.4752C27.1039 17.4013 26.9473 17.3301 26.7887 17.262C26.5124 12.1714 23.7308 9.25704 19.0601 9.22721C19.039 9.22708 19.0179 9.22708 18.9968 9.22708C16.2031 9.22708 13.8797 10.4196 12.4496 12.5895L15.0183 14.3516C16.0866 12.7307 17.7632 12.3852 18.998 12.3852C19.0123 12.3852 19.0266 12.3852 19.0407 12.3853C20.5786 12.3951 21.739 12.8422 22.4901 13.7142C23.0367 14.349 23.4023 15.2263 23.5833 16.3334C22.2198 16.1017 20.7452 16.0304 19.1688 16.1208C14.7282 16.3766 11.8734 18.9665 12.0651 22.5652C12.1624 24.3906 13.0718 25.961 14.6257 26.9869C15.9395 27.8542 17.6316 28.2783 19.3902 28.1823C21.7126 28.0549 23.5345 27.1689 24.8055 25.5487C25.7708 24.3183 26.3813 22.7238 26.6509 20.7147C27.7577 21.3827 28.5779 22.2617 29.0309 23.3183C29.8012 25.1145 29.8462 28.0661 27.4378 30.4725C25.3277 32.5805 22.7912 33.4925 18.9579 33.5207C14.7057 33.4892 11.4899 32.1255 9.39901 29.4675C7.44109 26.9785 6.42923 23.3836 6.39148 18.7823C6.42923 14.181 7.44109 10.586 9.39901 8.09706C11.4899 5.43909 14.7057 4.07543 18.9578 4.04383C23.2409 4.07567 26.5128 5.44589 28.6836 8.11669C29.7481 9.42642 30.5507 11.0735 31.0797 12.9939L34.0899 12.1908C33.4486 9.82697 32.4395 7.79003 31.0663 6.10072C28.2832 2.67664 24.2129 0.922122 18.9683 0.885742H18.9473C13.7135 0.921996 9.68871 2.68319 6.98488 6.12035C4.57884 9.179 3.33773 13.4349 3.29603 18.7697L3.2959 18.7823L3.29603 18.7949C3.33773 24.1296 4.57884 28.3857 6.98488 31.4443C9.68871 34.8814 13.7135 36.6427 18.9473 36.6788H18.9683C23.6215 36.6466 26.9014 35.4283 29.6035 32.7287C33.1386 29.197 33.0321 24.77 31.867 22.0523C31.0311 20.1035 29.4373 18.5206 27.2581 17.4752ZM19.2239 25.0287C17.2777 25.1384 15.2557 24.2648 15.156 22.3937C15.0821 21.0063 16.1433 19.4583 19.3434 19.2739C19.7098 19.2527 20.0694 19.2424 20.4227 19.2424C21.5851 19.2424 22.6725 19.3553 23.6611 19.5714C23.2923 24.1764 21.1294 24.9242 19.2239 25.0287Z" fill="black"/>
</g>
<defs>
<clipPath id="clip0_712_14476">
<rect width="35.7931" height="35.7931" fill="white" transform="translate(0.87207 0.885742)"/>
</clipPath>
</defs>
</svg>
