<svg width="37" height="37" viewBox="0 0 37 37" fill="none" xmlns="http://www.w3.org/2000/svg">
<g id="Social Icons" clip-path="url(#clip0_712_14475)">
<path id="Vector" d="M35.5232 10.1128C35.3209 9.3513 34.922 8.65633 34.3667 8.09741C33.8113 7.53849 33.1189 7.13524 32.3588 6.92801C29.5604 6.17554 18.3751 6.17554 18.3751 6.17554C18.3751 6.17554 7.18972 6.17554 4.39135 6.92801C3.63119 7.13524 2.93878 7.53849 2.38344 8.09741C1.82809 8.65633 1.42928 9.3513 1.22692 10.1128C0.478516 12.9233 0.478516 18.7845 0.478516 18.7845C0.478516 18.7845 0.478516 24.6456 1.22692 27.4562C1.42928 28.2176 1.82809 28.9126 2.38344 29.4715C2.93878 30.0304 3.63119 30.4337 4.39135 30.6409C7.18972 31.3934 18.3751 31.3934 18.3751 31.3934C18.3751 31.3934 29.5604 31.3934 32.3588 30.6409C33.1189 30.4337 33.8113 30.0304 34.3667 29.4715C34.922 28.9126 35.3209 28.2176 35.5232 27.4562C36.2716 24.6456 36.2716 18.7845 36.2716 18.7845C36.2716 18.7845 36.2716 12.9233 35.5232 10.1128Z" fill="#FF0302"/>
<path id="Vector_2" d="M14.7139 24.1019V13.4575L24.0689 18.7797L14.7139 24.1019Z" fill="#FEFEFE"/>
</g>
<defs>
<clipPath id="clip0_712_14475">
<rect width="35.7931" height="35.7931" fill="white" transform="translate(0.442383 0.885742)"/>
</clipPath>
</defs>
</svg>
