<svg width="61" height="60" viewBox="0 0 61 60" fill="none" xmlns="http://www.w3.org/2000/svg">
<path d="M26.5415 4.79688C25.8779 4.79688 25.3415 5.33328 25.3415 5.99688V32.1344L25.5478 32.2258C32.6578 35.3398 35.8262 36.7352 37.2782 37.3844L37.3415 37.3445V5.99688C37.3415 5.33328 36.8051 4.79688 36.1415 4.79688H26.5415ZM10.9415 11.9969C10.6233 11.9969 10.318 12.1233 10.093 12.3484C9.86798 12.5734 9.74154 12.8786 9.7415 13.1969V34.0703L3.27979 36.7609C2.66779 37.0129 2.5415 37.5693 2.5415 38.3289V52.7828C2.5415 53.4452 3.0791 53.9828 3.7415 53.9828C4.1075 53.9828 4.40017 53.7856 4.44697 53.7508L8.62822 50.6828C10.7594 49.1192 13.6005 48.7755 16.1001 49.8039L30.1345 54.7797C30.9229 55.0593 31.7397 55.1969 32.5509 55.1969C34.1001 55.1969 35.6265 54.6957 36.9009 53.7297L55.7845 39.4211C57.7897 38.0387 58.3427 35.3409 57.0431 33.2805C56.133 31.8365 54.5336 31.1059 52.9415 31.1992V17.9969C52.9415 17.6786 52.815 17.3734 52.59 17.1484C52.365 16.9233 52.0598 16.7969 51.7415 16.7969H42.1415C41.8233 16.7969 41.5181 16.9233 41.293 17.1484C41.068 17.3734 40.9415 17.6786 40.9415 17.9969V37.9469L39.5938 38.7766C40.4446 39.6442 40.9415 40.8229 40.9415 42.0625C40.9415 44.6665 38.8228 46.7852 36.2188 46.7852C35.8517 46.7852 35.4876 46.7414 35.136 46.6586C34.2132 46.4402 22.4245 42.911 21.0829 42.5102C20.4481 42.3194 20.0894 41.6496 20.279 41.0148C20.4698 40.38 21.1384 40.0213 21.772 40.2109C27.0112 41.7805 35.0424 44.1706 35.6892 44.3242C35.8608 44.365 36.0388 44.3852 36.2188 44.3852C37.4992 44.3852 38.5415 43.3452 38.5415 42.0648C38.5415 41.238 38.1119 40.4949 37.3931 40.0773C37.0439 39.8745 25.1993 34.696 22.8173 33.6508C22.4652 33.4961 22.1028 33.3691 21.7415 33.243V13.1969C21.7415 12.8786 21.615 12.5734 21.39 12.3484C21.165 12.1233 20.8598 11.9969 20.5415 11.9969H10.9415ZM12.1415 14.3969H19.3415V32.6266C16.9451 32.2156 14.4691 32.382 12.1415 33.1375V14.3969ZM43.3415 19.1969H50.5415V32.0289L43.3415 36.468V19.1969Z" fill="black"/>
</svg>
