<svg width="64" height="64" viewBox="0 0 64 64" fill="none" xmlns="http://www.w3.org/2000/svg">
<path d="M58.3076 1.25C56.981 1.24968 55.6552 1.73418 54.6876 2.7025L48.4301 8.96H5.12006C3.70822 8.96 2.56006 10.1082 2.56006 11.52V43.52C2.56006 44.9318 3.70822 46.08 5.12006 46.08H58.8801C60.2919 46.08 61.4401 44.9318 61.4401 43.52V11.52C61.4401 11.1972 61.3702 10.8938 61.2601 10.61L61.9276 9.9425C62.8952 8.9761 63.4276 7.69082 63.4276 6.3225C63.4276 4.95418 62.8952 3.67018 61.9276 2.7025C60.9618 1.73546 59.6341 1.25032 58.3076 1.25ZM5.12006 11.52H45.8701L34.6226 22.7675C29.8796 23.7443 29.268 27.9725 28.8201 31.1325C28.7104 31.9026 28.5884 32.614 28.4401 33.28H10.2401C10.0704 33.2776 9.90204 33.3089 9.74464 33.3722C9.58724 33.4354 9.44398 33.5293 9.32319 33.6484C9.2024 33.7675 9.10648 33.9095 9.04101 34.0659C8.97554 34.2224 8.94183 34.3904 8.94183 34.56C8.94183 34.7296 8.97554 34.8976 9.04101 35.0541C9.10648 35.2106 9.2024 35.3525 9.32319 35.4716C9.44398 35.5907 9.58724 35.6846 9.74464 35.7478C9.90204 35.8111 10.0704 35.8424 10.2401 35.84H30.7201C30.8244 35.841 30.9285 35.8293 31.0301 35.805C36.7372 35.6464 40.1488 34.5252 41.6776 30.1925L58.8801 12.99L58.8826 39.68H58.8801V38.4H5.12006V11.52ZM41.1101 19.9L44.7301 23.52L41.1101 27.14L37.4901 23.52L41.1101 19.9ZM24.3201 48.64V51.2H21.7601C18.9364 51.2 16.6401 53.4963 16.6401 56.32C16.6401 57.0278 17.2122 57.6 17.9201 57.6H46.0801C46.7879 57.6 47.3601 57.0278 47.3601 56.32C47.3601 53.4963 45.0637 51.2 42.2401 51.2H39.6801V48.64H24.3201Z" fill="#171717"/>
</svg>
