<svg width="61" height="60" viewBox="0 0 61 60" fill="none" xmlns="http://www.w3.org/2000/svg">
<path d="M5.37314 4.79688C4.04954 4.79688 2.97314 5.87327 2.97314 7.19687V41.9969C2.97314 43.3205 4.04954 44.3969 5.37314 44.3969H55.7731C57.0967 44.3969 58.1731 43.3205 58.1731 41.9969V7.19687C58.1731 5.87327 57.0967 4.79688 55.7731 4.79688H5.37314ZM5.37314 7.19687H55.7731L55.7755 34.7969H5.37314V7.19687ZM34.1122 10.7828C33.877 10.7961 33.6509 10.8783 33.4621 11.0191C33.2733 11.16 33.1302 11.3533 33.0505 11.575L25.8505 30.775C25.7882 30.9238 25.7566 31.0837 25.7575 31.245C25.7584 31.4063 25.7918 31.5658 25.8558 31.7139C25.9197 31.862 26.0128 31.9957 26.1296 32.107C26.2464 32.2183 26.3844 32.3049 26.5354 32.3617C26.6865 32.4184 26.8474 32.4441 27.0085 32.4373C27.1697 32.4304 27.3278 32.3912 27.4735 32.3218C27.6192 32.2525 27.7493 32.1545 27.8563 32.0337C27.9632 31.9129 28.0447 31.7717 28.0958 31.6187L35.2958 12.4187C35.3691 12.2316 35.3942 12.029 35.3689 11.8297C35.3435 11.6303 35.2685 11.4405 35.1506 11.2776C35.0328 11.1148 34.876 10.9842 34.6946 10.8977C34.5131 10.8112 34.3129 10.7717 34.1122 10.7828ZM38.9755 14.3828C38.7467 14.3801 38.5218 14.4428 38.3275 14.5637C38.1331 14.6845 37.9774 14.8584 37.8786 15.0648C37.7798 15.2713 37.7421 15.5016 37.7699 15.7288C37.7978 15.9559 37.89 16.1704 38.0356 16.3469L42.2356 21.5969L38.0356 26.8469C37.9371 26.97 37.8638 27.1113 37.8199 27.2627C37.7759 27.4142 37.7623 27.5728 37.7797 27.7295C37.7971 27.8863 37.8452 28.038 37.9212 28.1762C37.9973 28.3143 38.0998 28.4361 38.2229 28.5346C38.3461 28.6331 38.4874 28.7064 38.6389 28.7503C38.7903 28.7942 38.949 28.8078 39.1057 28.7904C39.2624 28.7729 39.4142 28.7248 39.5523 28.6487C39.6904 28.5726 39.8122 28.47 39.9106 28.3469L44.7106 22.3469C44.881 22.134 44.9739 21.8695 44.9739 21.5969C44.9739 21.3242 44.881 21.0597 44.7106 20.8469L39.9106 14.8469C39.7998 14.7041 39.6581 14.5882 39.4962 14.5078C39.3342 14.4275 39.1562 14.3847 38.9755 14.3828ZM22.1356 14.3852C21.9611 14.392 21.7901 14.4368 21.6346 14.5166C21.4792 14.5963 21.343 14.709 21.2356 14.8469L16.4356 20.8469C16.2653 21.0597 16.1724 21.3242 16.1724 21.5969C16.1724 21.8695 16.2653 22.134 16.4356 22.3469L21.2356 28.3469C21.3341 28.47 21.4559 28.5726 21.594 28.6487C21.7321 28.7248 21.8839 28.7729 22.0406 28.7904C22.1973 28.8078 22.356 28.7942 22.5074 28.7503C22.6589 28.7064 22.8002 28.6331 22.9234 28.5346C23.0465 28.4361 23.149 28.3143 23.2251 28.1762C23.3011 28.038 23.3492 27.8863 23.3666 27.7295C23.384 27.5728 23.3704 27.4142 23.3264 27.2627C23.2825 27.1113 23.2092 26.97 23.1106 26.8469L18.9106 21.5969L23.1106 16.3469C23.2578 16.1681 23.3501 15.9505 23.3763 15.7204C23.4026 15.4903 23.3617 15.2575 23.2586 15.0502C23.1556 14.8428 22.9947 14.6697 22.7954 14.5517C22.5962 14.4337 22.367 14.3758 22.1356 14.3852ZM50.9731 38.3969C51.6355 38.3969 52.1731 38.9345 52.1731 39.5969C52.1731 40.2593 51.6355 40.7969 50.9731 40.7969C50.3107 40.7969 49.7731 40.2593 49.7731 39.5969C49.7731 38.9345 50.3107 38.3969 50.9731 38.3969ZM23.3731 46.7969V49.1969H19.7731C17.7847 49.1969 16.1731 50.8085 16.1731 52.7969V53.9969C16.1731 54.6593 16.7107 55.1969 17.3731 55.1969H43.7731C44.4355 55.1969 44.9731 54.6593 44.9731 53.9969V52.7969C44.9731 50.8085 43.3615 49.1969 41.3731 49.1969H37.7731V46.7969H23.3731Z" fill="black"/>
</svg>
