<svg width="60" height="60" viewBox="0 0 97 97" fill="none" xmlns="http://www.w3.org/2000/svg">
<path fill-rule="evenodd" clip-rule="evenodd" d="M29.3021 24.2487C29.3021 13.646 37.8973 5.05078 48.4999 5.05078C59.1028 5.05078 67.6978 13.646 67.6978 24.2487C67.6978 34.8514 59.1028 43.4466 48.4999 43.4466C37.8973 43.4466 29.3021 34.8514 29.3021 24.2487ZM48.4999 11.1133C41.2455 11.1133 35.3646 16.9942 35.3646 24.2487C35.3646 31.5032 41.2455 37.3841 48.4999 37.3841C55.7546 37.3841 61.6353 31.5032 61.6353 24.2487C61.6353 16.9942 55.7546 11.1133 48.4999 11.1133Z" fill="#FF4F4F"/>
<path d="M72.7513 56.2461C74.4254 56.2461 75.7826 57.6029 75.7826 59.2773V61.6348H78.1397C79.8137 61.6348 81.1709 62.992 81.1709 64.6661C81.1709 66.3402 79.8137 67.6973 78.1397 67.6973H75.7826V70.0549C75.7826 71.7289 74.4254 73.0861 72.7513 73.0861C71.0773 73.0861 69.7201 71.7289 69.7201 70.0549V67.6973H67.3618C65.6877 67.6973 64.3305 66.3402 64.3305 64.6661C64.3305 62.992 65.6877 61.6348 67.3618 61.6348H69.7201V59.2773C69.7201 57.6029 71.0773 56.2461 72.7513 56.2461Z" fill="#FF4F4F"/>
<path fill-rule="evenodd" clip-rule="evenodd" d="M59.7148 50.573C56.1877 49.8827 52.4148 49.5104 48.5004 49.5104C39.1499 49.5104 30.535 51.6359 24.1513 55.2265C17.8626 58.7642 13.136 64.1255 13.136 70.7292L13.1357 71.1414C13.1311 75.837 13.1254 81.7306 18.2948 85.94C20.8389 88.0117 24.398 89.4849 29.2065 90.4586C34.0284 91.4342 40.3131 91.9479 48.5004 91.9479C60.0923 91.9479 67.9404 90.9217 73.2338 88.951C77.9985 87.1775 80.8228 84.5783 82.3308 81.307C88.0792 77.9904 91.9483 71.7804 91.9483 64.6667C91.9483 54.0638 83.3533 45.4688 72.7504 45.4688C67.7181 45.4688 63.1381 47.4051 59.7148 50.573ZM27.1236 60.5106C21.7099 63.5556 19.1985 67.2885 19.1985 70.7292C19.1985 76.0149 19.3614 78.9903 22.123 81.2391C23.6205 82.4589 26.124 83.6492 30.4092 84.5165C34.681 85.381 40.5214 85.8854 48.5004 85.8854C58.9198 85.8854 65.6375 85.0229 69.9653 83.6641C60.6824 82.315 53.5525 74.3234 53.5525 64.6667C53.5525 61.5635 54.2889 58.6321 55.5964 56.0377C53.3262 55.7346 50.9501 55.5729 48.5004 55.5729C39.994 55.5729 32.4422 57.519 27.1236 60.5106ZM59.615 64.6667C59.615 57.4123 65.496 51.5312 72.7504 51.5312C80.0052 51.5312 85.8858 57.4123 85.8858 64.6667C85.8858 71.9211 80.0052 77.8021 72.7504 77.8021C65.496 77.8021 59.615 71.9211 59.615 64.6667Z" fill="#FF4F4F"/>
</svg>
