<svg width="60" height="60" viewBox="0 0 110 113" fill="none" xmlns="http://www.w3.org/2000/svg">
<rect width="110" height="111.966" transform="translate(0 0.925781)" fill="#FFF7F6"/>
<path fill-rule="evenodd" clip-rule="evenodd" d="M36.4152 20.7539H59.835C66.1031 20.7538 71.1553 20.7537 75.1291 21.2975C79.2545 21.8621 82.7278 23.0699 85.4869 25.878C88.0279 28.4645 89.2352 31.6683 89.8434 35.4393C93.5486 36.0581 96.6964 37.2872 99.2379 39.874C101.997 42.6821 103.183 46.2178 103.738 50.417C104.272 54.4618 104.272 59.6043 104.272 65.9845V66.4963C104.272 72.8765 104.272 78.019 103.738 82.0638C103.183 86.263 101.997 89.7988 99.2379 92.6068C96.4792 95.4148 93.0055 96.6226 88.88 97.1871C84.9062 97.7311 79.854 97.7311 73.5859 97.7311H50.1664C43.8982 97.7311 38.8459 97.7311 34.8723 97.1871C30.7468 96.6226 27.2732 95.4148 24.5144 92.6068C21.9733 90.0204 20.7658 86.8163 20.1578 83.0454C16.4525 82.4263 13.3046 81.1974 10.7633 78.611C8.00446 75.8025 6.81788 72.2672 6.26321 68.068C5.72898 64.0232 5.72907 58.8807 5.72916 52.5005V51.9883C5.72907 45.6083 5.72898 40.4656 6.26321 36.421C6.81788 32.2218 8.00446 28.6861 10.7633 25.878C13.5221 23.0699 16.9956 21.8621 21.1211 21.2975C25.0948 20.7537 30.1471 20.7538 36.4152 20.7539ZM27.297 83.649C27.7777 85.5287 28.4624 86.729 29.3758 87.6584C30.6443 88.9497 32.4252 89.7918 35.7884 90.2518C39.2504 90.7258 43.8388 90.7332 50.418 90.7332H73.3347C79.9136 90.7332 84.502 90.7258 87.9638 90.2518C91.327 89.7918 93.1081 88.9497 94.3763 87.6584C95.645 86.3675 96.4723 84.5546 96.9242 81.1312C97.3899 77.6075 97.3972 72.9371 97.3972 66.2406C97.3972 59.5437 97.3899 54.8733 96.9242 51.3496C96.4723 47.9262 95.645 46.1135 94.3763 44.8222C93.4629 43.8925 92.2836 43.1954 90.4365 42.706C90.5208 45.4534 90.5208 48.5402 90.5208 51.9883V52.5005C90.5208 58.8807 90.5208 64.0232 89.9869 68.068C89.4323 72.2672 88.2457 75.8025 85.4869 78.611C82.7278 81.419 79.2545 82.6269 75.1291 83.1914C71.1553 83.7349 66.1031 83.7349 59.835 83.7349H36.4152C33.028 83.7349 29.9958 83.7349 27.297 83.649ZM22.0372 28.233C18.6741 28.6932 16.8931 29.5351 15.6246 30.8262C14.3561 32.1174 13.5291 33.9302 13.0769 37.3535C12.6114 40.8774 12.6042 45.5478 12.6042 52.2444C12.6042 58.9409 12.6114 63.6113 13.0769 67.1354C13.5291 70.5588 14.3561 72.3712 15.6246 73.6626C16.8931 74.9539 18.6741 75.7955 22.0372 76.256C25.4992 76.7295 30.0877 76.737 36.6667 76.737H59.5833C66.1622 76.737 70.7506 76.7295 74.2129 76.256C77.5761 75.7955 79.3567 74.9539 80.6254 73.6626C81.8941 72.3712 82.7209 70.5588 83.1733 67.1354C83.6385 63.6113 83.6458 58.9409 83.6458 52.2444C83.6458 45.5478 83.6385 40.8774 83.1733 37.3535C82.7209 33.9302 81.8941 32.1174 80.6254 30.8262C79.3567 29.5351 77.5761 28.6932 74.2129 28.233C70.7506 27.7592 66.1622 27.7518 59.5833 27.7518H36.6667C30.0877 27.7518 25.4992 27.7592 22.0372 28.233ZM48.125 44.0802C43.6952 44.0802 40.1042 47.7354 40.1042 52.2444C40.1042 56.7534 43.6952 60.4086 48.125 60.4086C52.5548 60.4086 56.1458 56.7534 56.1458 52.2444C56.1458 47.7354 52.5548 44.0802 48.125 44.0802ZM33.2292 52.2444C33.2292 43.8706 39.8983 37.0823 48.125 37.0823C56.3516 37.0823 63.0208 43.8706 63.0208 52.2444C63.0208 60.6181 56.3516 67.4065 48.125 67.4065C39.8983 67.4065 33.2292 60.6181 33.2292 52.2444ZM22.9167 39.4149C24.8151 39.4149 26.3542 40.9815 26.3542 42.9139V61.5749C26.3542 63.5073 24.8151 65.0739 22.9167 65.0739C21.0182 65.0739 19.4792 63.5073 19.4792 61.5749V42.9139C19.4792 40.9815 21.0182 39.4149 22.9167 39.4149ZM73.3333 39.4149C75.2317 39.4149 76.7708 40.9815 76.7708 42.9139V61.5749C76.7708 63.5073 75.2317 65.0739 73.3333 65.0739C71.4349 65.0739 69.8958 63.5073 69.8958 61.5749V42.9139C69.8958 40.9815 71.4349 39.4149 73.3333 39.4149Z" fill="#FF4F4F"/>
</svg>
