<svg width="60" height="60" viewBox="0 0 94 94" fill="none" xmlns="http://www.w3.org/2000/svg">
<path fill-rule="evenodd" clip-rule="evenodd" d="M46.9994 10.7734C26.9906 10.7734 10.7703 26.9938 10.7703 47.0026C10.7703 67.0113 26.9906 83.2318 46.9994 83.2318C67.0081 83.2318 83.2286 67.0113 83.2286 47.0026C83.2286 26.9938 67.0081 10.7734 46.9994 10.7734ZM4.89526 47.0026C4.89526 23.7491 23.7459 4.89844 46.9994 4.89844C70.2531 4.89844 89.1036 23.7491 89.1036 47.0026C89.1036 70.2562 70.2531 89.1068 46.9994 89.1068C23.7459 89.1068 4.89526 70.2562 4.89526 47.0026ZM46.9994 20.5651C48.6217 20.5651 49.9369 21.8803 49.9369 23.5026V24.7431C56.3227 25.8866 61.6869 30.6842 61.6869 37.2109C61.6869 38.8333 60.3717 40.1484 58.7494 40.1484C57.1271 40.1484 55.8119 38.8333 55.8119 37.2109C55.8119 34.5536 53.6025 31.7409 49.9369 30.7386V44.3263C56.3227 45.47 61.6869 50.2675 61.6869 56.7943C61.6869 63.321 56.3227 68.1185 49.9369 69.2622V70.5026C49.9369 72.1249 48.6217 73.4401 46.9994 73.4401C45.3771 73.4401 44.0619 72.1249 44.0619 70.5026V69.2622C37.6761 68.1185 32.3119 63.321 32.3119 56.7943C32.3119 55.172 33.6271 53.8568 35.2494 53.8568C36.8718 53.8568 38.1869 55.172 38.1869 56.7943C38.1869 59.4517 40.3963 62.2643 44.0619 63.2666V49.6789C37.6761 48.5352 32.3119 43.7377 32.3119 37.2109C32.3119 30.6842 37.6761 25.8866 44.0619 24.7431V23.5026C44.0619 21.8803 45.3771 20.5651 46.9994 20.5651ZM44.0619 30.7386C40.3963 31.7409 38.1869 34.5536 38.1869 37.2109C38.1869 39.8684 40.3963 42.681 44.0619 43.6832V30.7386ZM49.9369 50.322V63.2666C53.6025 62.2643 55.8119 59.4517 55.8119 56.7943C55.8119 54.1368 53.6025 51.3243 49.9369 50.322Z" fill="#FF4F4F"/>
</svg>
