<svg width="60" height="60" viewBox="0 0 92 94" fill="none" xmlns="http://www.w3.org/2000/svg">
<rect width="92" height="93.6444" transform="translate(0 0.195312)" fill="#FFF7F6"/>
<path d="M27.7917 27.5084C27.7917 29.1246 29.0789 30.4348 30.6667 30.4348H61.3334C62.9211 30.4348 64.2084 29.1246 64.2084 27.5084C64.2084 25.8922 62.9211 24.582 61.3334 24.582H30.6667C29.0789 24.582 27.7917 25.8922 27.7917 27.5084Z" fill="#FF4F4F"/>
<path d="M46 69.4548C47.5878 69.4548 48.875 68.1446 48.875 66.5284V46.2805L55.4672 52.9902C56.59 54.133 58.41 54.133 59.5328 52.9902C60.6556 51.8473 60.6556 49.9947 59.5328 48.8519L48.0328 37.1462C47.4938 36.5974 46.7624 36.2891 46 36.2891C45.2375 36.2891 44.5061 36.5974 43.9672 37.1462L32.4671 48.8519C31.3443 49.9947 31.3443 51.8473 32.4671 52.9902C33.5898 54.133 35.4102 54.133 36.5329 52.9902L43.125 46.2805V66.5284C43.125 68.1446 44.4122 69.4548 46 69.4548Z" fill="#FF4F4F"/>
<path fill-rule="evenodd" clip-rule="evenodd" d="M45.78 5.07422C36.9312 5.07418 29.9966 5.07414 24.5859 5.8146C19.0477 6.57249 14.6777 8.15407 11.2476 11.6455C7.81745 15.1369 6.26365 19.5851 5.51906 25.2222C4.79161 30.7296 4.79165 37.7882 4.79169 46.7952V47.2431C4.79165 56.2501 4.79161 63.3086 5.51906 68.816C6.26365 74.453 7.81745 78.9015 11.2476 82.3929C14.6777 85.8843 19.0477 87.4657 24.5859 88.2238C29.9966 88.964 36.9312 88.964 45.78 88.964H46.2201C55.0689 88.964 62.0034 88.964 67.4142 88.2238C72.9522 87.4657 77.3226 85.8843 80.7526 82.3929C84.1827 78.9015 85.7364 74.453 86.4812 68.816C87.2084 63.3086 87.2084 56.2501 87.2084 47.2431V46.7952C87.2084 37.7882 87.2084 30.7296 86.4812 25.2222C85.7364 19.5851 84.1827 15.1369 80.7526 11.6455C77.3226 8.15407 72.9522 6.57249 67.4142 5.8146C62.0034 5.07414 55.0689 5.07418 46.2201 5.07422H45.78ZM15.3134 15.784C17.4971 13.5613 20.4515 12.2858 25.3521 11.6152C30.3353 10.9332 36.8835 10.927 46 10.927C55.1165 10.927 61.6646 10.9332 66.6479 11.6152C71.5484 12.2858 74.5028 13.5613 76.6866 15.784C78.8705 18.0067 80.1236 21.0139 80.7822 26.0021C81.4522 31.0744 81.4584 37.7397 81.4584 47.0191C81.4584 56.2985 81.4522 62.9636 80.7822 68.036C80.1236 73.0242 78.8705 76.0313 76.6866 78.2542C74.5028 80.4771 71.5484 81.7526 66.6479 82.423C61.6646 83.105 55.1165 83.1112 46 83.1112C36.8835 83.1112 30.3353 83.105 25.3521 82.423C20.4515 81.7526 17.4971 80.4771 15.3134 78.2542C13.1297 76.0313 11.8766 73.0242 11.2178 68.036C10.5478 62.9636 10.5417 56.2985 10.5417 47.0191C10.5417 37.7397 10.5478 31.0744 11.2178 26.0021C11.8766 21.0139 13.1297 18.0067 15.3134 15.784Z" fill="#FF4F4F"/>
</svg>
