<svg width="60" height="60" viewBox="0 0 60 60" fill="none" xmlns="http://www.w3.org/2000/svg">
<circle cx="30" cy="30" r="30" fill="#FFECEC"/>
<path d="M23.1982 25.2967L24.5859 16.3164H17.3683L14.3526 24.0138C14.2596 24.2875 14.2104 24.5714 14.2104 24.869C14.2104 26.7575 16.228 28.2901 18.721 28.2901C21.0192 28.2901 22.9192 26.9832 23.1982 25.2967ZM29.9999 28.2901C32.4911 28.2901 34.5104 26.7575 34.5104 24.869C34.5104 24.7989 34.5052 24.7288 34.5017 24.6621L33.6087 16.3164H26.3912L25.4964 24.6552C25.4929 24.7254 25.4894 24.7955 25.4894 24.869C25.4894 26.7575 27.5087 28.2901 29.9999 28.2901ZM38.7719 30.0793V36.8427H21.228V30.0896C20.4596 30.3598 19.614 30.5138 18.721 30.5138C18.3789 30.5138 18.0473 30.4744 17.7192 30.43V41.2901C17.7192 42.6072 18.8227 43.6848 20.1719 43.6848H39.8245C41.1754 43.6848 42.2806 42.6055 42.2806 41.2901V30.4317C41.949 30.4813 41.6143 30.5093 41.2789 30.5155C40.4234 30.5146 39.5748 30.367 38.7719 30.0793ZM45.649 24.0138L42.6297 16.3164H35.414L36.7999 25.283C37.0701 26.9764 38.9701 28.2901 41.2789 28.2901C43.7701 28.2901 45.7894 26.7575 45.7894 24.869C45.7894 24.5714 45.7403 24.2875 45.649 24.0138Z" fill="#FF9494"/>
</svg>
