<svg width="44" height="34" viewBox="0 0 44 34" fill="none" xmlns="http://www.w3.org/2000/svg">
<path d="M21.9897 0.175781C34.0759 0.175781 44.0188 5.78276 43.9794 13.1505C43.9772 13.566 43.9434 13.976 43.8794 14.3796L43.9998 14.3788V20.684C44.039 28.1371 34.0967 33.8228 22.0105 33.8228C9.92442 33.8228 -0.0180459 28.1371 0.021127 20.684L0.0380302 16.5968L0.0301315 14.4835L0.044981 14.6039L0.0936368 14.791C0.117436 14.8623 0.127597 14.8929 0.164725 14.9564L0.242922 15.0809C0.169416 14.7861 0.112265 14.4877 0.0718365 14.1858L0.0367664 14.1797C-0.00341596 14.1584 -0.0250218 14.147 0.0516159 14.0448C0.0198582 13.7487 0.00174717 13.451 0.000116578 13.1504C-0.0392634 5.78276 9.90346 0.175781 21.9897 0.175781ZM21.9897 26.1111C13.6658 26.1111 6.3386 23.4206 2.61015 19.3206L2.60841 20.6977C2.57871 26.3175 11.1678 31.2293 22.0105 31.2293C32.8533 31.2293 41.4424 26.3175 41.4127 20.6909L41.4141 19.2711C37.6997 23.3989 30.347 26.1111 21.9897 26.1111ZM21.9897 2.76931C11.1465 2.76931 2.55754 7.61284 2.58709 13.1365C2.617 18.6709 11.2117 23.5176 21.9897 23.5176C32.7677 23.5176 41.3625 18.6709 41.3925 13.1365C41.422 7.61285 32.8329 2.76931 21.9897 2.76931Z" fill="#FF4F4F"/>
</svg>
