<svg width="62" height="62" viewBox="0 0 62 62" fill="none" xmlns="http://www.w3.org/2000/svg">
<path d="M30.7796 5.70898C24.0696 5.70898 18.5796 11.199 18.5796 17.909C18.5796 24.619 24.0696 30.109 30.7796 30.109C37.4896 30.109 42.9796 24.619 42.9796 17.909C42.9796 11.199 37.4896 5.70898 30.7796 5.70898ZM9.9753 6.91945C9.72204 6.92976 9.47828 7.01868 9.27788 7.17387C9.07747 7.32906 8.93037 7.5428 8.85701 7.78542C8.78365 8.02804 8.78767 8.28748 8.86851 8.52771C8.94935 8.76794 9.103 8.97703 9.30811 9.12594L14.1881 12.7859C14.3164 12.8821 14.4624 12.952 14.6177 12.9916C14.773 13.0313 14.9346 13.04 15.0933 13.0173C15.252 12.9945 15.4046 12.9407 15.5425 12.8589C15.6803 12.7772 15.8008 12.669 15.8968 12.5407C15.9929 12.4124 16.0628 12.2664 16.1024 12.1111C16.1421 11.9558 16.1508 11.7941 16.1279 11.6355C16.1051 11.4768 16.0513 11.3242 15.9695 11.1863C15.8877 11.0485 15.7795 10.9281 15.6512 10.832L10.7712 7.17203C10.5438 6.99686 10.262 6.90743 9.9753 6.91945ZM51.5482 6.91945C51.2737 6.91571 51.0058 7.0047 50.7881 7.17203L45.9081 10.832C45.7798 10.9281 45.6716 11.0485 45.5898 11.1863C45.508 11.3242 45.4541 11.4768 45.4313 11.6355C45.4085 11.7941 45.4172 11.9558 45.4568 12.1111C45.4965 12.2664 45.5663 12.4124 45.6624 12.5407C45.7585 12.669 45.8789 12.7772 46.0168 12.8589C46.1547 12.9407 46.3073 12.9945 46.466 13.0173C46.6247 13.04 46.7863 13.0313 46.9416 12.9916C47.0969 12.952 47.2429 12.8821 47.3712 12.7859L52.2512 9.12594C52.4584 8.97511 52.6128 8.76288 52.6926 8.51933C52.7724 8.27579 52.7735 8.01331 52.6957 7.76912C52.6179 7.52493 52.4652 7.31144 52.2592 7.15893C52.0532 7.00642 51.8045 6.92263 51.5482 6.91945ZM30.7796 8.14898C36.1476 8.14898 40.5396 12.541 40.5396 17.909C40.5396 23.277 36.1476 27.669 30.7796 27.669C25.4116 27.669 21.0196 23.277 21.0196 17.909C21.0196 12.541 25.4116 8.14898 30.7796 8.14898ZM31.7566 13.029L27.1196 14.492V16.2005L29.5596 15.5905V22.789H31.9996V13.029H31.7566ZM7.59964 16.689C7.43797 16.6867 7.27746 16.7166 7.12744 16.7768C6.97742 16.8371 6.84088 16.9266 6.72575 17.0401C6.61062 17.1537 6.51919 17.2889 6.45679 17.4381C6.39439 17.5872 6.36226 17.7473 6.36226 17.909C6.36226 18.0707 6.39439 18.2307 6.45679 18.3799C6.51919 18.529 6.61062 18.6643 6.72575 18.7778C6.84088 18.8913 6.97742 18.9808 7.12744 19.0411C7.27746 19.1014 7.43797 19.1313 7.59964 19.129H13.6996C13.8613 19.1313 14.0218 19.1014 14.1718 19.0411C14.3218 18.9808 14.4584 18.8913 14.5735 18.7778C14.6887 18.6643 14.7801 18.529 14.8425 18.3799C14.9049 18.2307 14.937 18.0707 14.937 17.909C14.937 17.7473 14.9049 17.5872 14.8425 17.4381C14.7801 17.2889 14.6887 17.1537 14.5735 17.0401C14.4584 16.9266 14.3218 16.8371 14.1718 16.7768C14.0218 16.7166 13.8613 16.6867 13.6996 16.689H7.59964ZM47.8596 16.689C47.698 16.6867 47.5375 16.7166 47.3874 16.7768C47.2374 16.8371 47.1009 16.9266 46.9858 17.0401C46.8706 17.1537 46.7792 17.2889 46.7168 17.4381C46.6544 17.5872 46.6223 17.7473 46.6223 17.909C46.6223 18.0707 46.6544 18.2307 46.7168 18.3799C46.7792 18.529 46.8706 18.6643 46.9858 18.7778C47.1009 18.8913 47.2374 18.9808 47.3874 19.0411C47.5375 19.1014 47.698 19.1313 47.8596 19.129H53.9596C54.1213 19.1313 54.2818 19.1014 54.4318 19.0411C54.5819 18.9808 54.7184 18.8913 54.8335 18.7778C54.9487 18.6643 55.0401 18.529 55.1025 18.3799C55.1649 18.2307 55.197 18.0707 55.197 17.909C55.197 17.7473 55.1649 17.5872 55.1025 17.4381C55.0401 17.2889 54.9487 17.1537 54.8335 17.0401C54.7184 16.9266 54.5819 16.8371 54.4318 16.7768C54.2818 16.7166 54.1213 16.6867 53.9596 16.689H47.8596ZM14.9482 22.7795C14.6737 22.7757 14.4058 22.8647 14.1881 23.032L9.30811 26.692C9.04901 26.886 8.87759 27.175 8.83156 27.4954C8.78553 27.8158 8.86867 28.1414 9.06268 28.4005C9.2567 28.6596 9.54569 28.831 9.86609 28.8771C10.1865 28.9231 10.5121 28.84 10.7712 28.6459L15.6512 24.9859C15.8584 24.8351 16.0128 24.6229 16.0926 24.3793C16.1724 24.1358 16.1734 23.8733 16.0957 23.6291C16.0179 23.3849 15.8652 23.1714 15.6592 23.0189C15.4532 22.8664 15.2045 22.7826 14.9482 22.7795ZM46.5753 22.7795C46.322 22.7898 46.0783 22.8787 45.8779 23.0339C45.6775 23.1891 45.5304 23.4028 45.457 23.6454C45.3837 23.888 45.3877 24.1475 45.4685 24.3877C45.5493 24.6279 45.703 24.837 45.9081 24.9859L50.7881 28.6459C51.0472 28.8399 51.3728 28.9231 51.6932 28.8771C52.0136 28.831 52.3026 28.6596 52.4966 28.4005C52.6906 28.1414 52.7737 27.8158 52.7277 27.4954C52.6817 27.175 52.5103 26.886 52.2512 26.692L47.3712 23.032C47.1438 22.8569 46.862 22.7674 46.5753 22.7795ZM54.1526 32.5299C53.9305 32.5332 53.709 32.5537 53.4878 32.5895C52.8982 32.6849 52.3182 32.8984 51.7841 33.2352L38.2426 41.5798C37.93 41.4089 37.5468 41.2202 37.0417 40.977C36.4613 40.6975 35.8543 40.4124 35.5119 40.2574C33.6689 39.4239 27.793 36.9986 23.3333 35.0414C21.4256 34.2042 19.3865 33.7763 17.3453 33.7571C15.3041 33.7378 13.259 34.1279 11.3359 34.9294L3.47022 38.2058C3.31885 38.265 3.18083 38.3538 3.06425 38.467C2.94768 38.5803 2.85491 38.7157 2.79138 38.8653C2.72786 39.0149 2.69486 39.1756 2.69433 39.3382C2.69379 39.5007 2.72574 39.6617 2.78828 39.8117C2.85083 39.9617 2.94271 40.0977 3.05854 40.2117C3.17437 40.3257 3.31181 40.4154 3.46279 40.4756C3.61377 40.5358 3.77525 40.5652 3.93774 40.5621C4.10024 40.559 4.26048 40.5234 4.40905 40.4575L12.2747 37.1812C15.5069 35.8342 19.1448 35.8692 22.3516 37.2765C26.8541 39.2525 32.826 41.7207 34.5064 42.4805C34.8081 42.6171 35.4176 42.9038 35.9837 43.1763C36.5498 43.4489 37.1448 43.7505 37.1942 43.7792C37.7385 44.0958 38.0996 44.6625 38.0996 45.3447C38.0996 46.3705 37.2954 47.1747 36.2696 47.1747C36.1243 47.1747 35.9863 47.1584 35.855 47.127C35.8542 47.127 35.8534 47.127 35.8526 47.127C35.8219 47.1197 34.8567 46.8486 33.6867 46.5051C32.5167 46.1616 31.028 45.7204 29.5644 45.2851C26.6373 44.4145 23.8099 43.5671 23.8099 43.5671C23.4999 43.4742 23.1657 43.5083 22.8809 43.6618C22.596 43.8153 22.3838 44.0756 22.2909 44.3856C22.198 44.6956 22.232 45.0298 22.3855 45.3146C22.539 45.5995 22.7994 45.8118 23.1094 45.9046C23.1094 45.9046 25.9409 46.7511 28.871 47.6227C30.336 48.0584 31.8253 48.5 33.0004 48.845C34.1744 49.1897 34.9218 49.4135 35.2879 49.5003C35.6056 49.5763 35.9343 49.6147 36.2696 49.6147C38.6135 49.6147 40.5396 47.6885 40.5396 45.3447C40.5396 44.6223 40.351 43.9434 40.0297 43.3455L53.0756 35.3059C53.0796 35.3035 53.0836 35.3012 53.0875 35.2988C54.1086 34.6549 55.4224 34.9524 56.066 35.9731C56.6912 36.9641 56.4299 38.2385 55.4656 38.9039C55.4503 38.9139 55.4352 38.9243 55.4203 38.9349L36.1767 53.5154C34.8631 54.5113 33.1416 54.7791 31.5874 54.2278L17.3763 49.1905C14.0905 47.8344 10.3299 48.2911 7.46382 50.3939L3.21288 53.513C3.07847 53.6057 2.96404 53.7244 2.87637 53.8622C2.78869 53.9999 2.72956 54.1538 2.70246 54.3149C2.67537 54.4759 2.68087 54.6407 2.71863 54.7995C2.7564 54.9584 2.82566 55.108 2.92233 55.2396C3.01899 55.3712 3.14108 55.4821 3.28136 55.5656C3.42165 55.6492 3.57727 55.7037 3.73902 55.726C3.90077 55.7483 4.06535 55.7379 4.22301 55.6955C4.38067 55.653 4.5282 55.5793 4.65686 55.4788L8.9078 52.3621C11.0901 50.7609 13.9428 50.4145 16.4446 51.4471C16.4635 51.4547 16.4826 51.4618 16.5018 51.4685L30.7725 56.5272C33.0979 57.3521 35.6859 56.9501 37.6517 55.4597L56.85 40.9127C58.8698 39.5188 59.4393 36.7482 58.1296 34.6721C57.2453 33.2699 55.708 32.5068 54.1526 32.5299Z" fill="#FF4F4F"/>
</svg>
