<svg width="71" height="70" viewBox="0 0 71 70" fill="none" xmlns="http://www.w3.org/2000/svg">
<g clip-path="url(#clip0_16306_27472)">
<path d="M4.38481 11.8672C4.01352 11.8672 3.65745 12.0126 3.39491 12.2714C3.13236 12.5302 2.98485 12.8812 2.98481 13.2472V53.2672H1.58481C1.21352 53.2672 0.857449 53.4126 0.594906 53.6714C0.332363 53.9302 0.184852 54.2812 0.184814 54.6472L0.184814 57.4072C0.184814 59.4192 1.17709 60.9551 2.35591 61.8005C3.53473 62.646 4.78858 62.9272 5.78481 62.9272H64.5848C66.0971 62.9272 67.5393 62.6815 68.6344 61.7089C69.7296 60.7363 70.1848 59.2279 70.1848 57.4072V54.6472C70.1848 54.2812 70.0373 53.9302 69.7747 53.6714C69.5122 53.4126 69.1561 53.2672 68.7848 53.2672H67.3848V13.2472C67.3848 12.8812 67.2373 12.5302 66.9747 12.2714C66.7122 12.0126 66.3561 11.8672 65.9848 11.8672H4.38481ZM5.78481 14.6272H64.5848V53.2672H43.82C43.5962 53.2297 43.3665 53.2464 43.1507 53.3159C42.9349 53.3854 42.7395 53.5056 42.5813 53.6661C42.5786 53.6688 42.5758 53.6715 42.5731 53.6742C42.5667 53.6804 42.5603 53.6867 42.554 53.693C42.3047 53.9499 42.1656 54.2917 42.1657 54.6472H28.204C28.204 54.4615 28.166 54.2777 28.0922 54.1068C28.0184 53.9359 27.9104 53.7814 27.7747 53.6526L27.7719 53.6499C27.7692 53.6472 27.7665 53.6445 27.7637 53.6418C27.7601 53.6382 27.7564 53.6346 27.7528 53.6311C27.4867 53.3801 27.1311 53.2426 26.7629 53.2483C26.6951 53.2498 26.6275 53.2561 26.5606 53.2672H5.78481V14.6272ZM38.5563 24.1336C37.5763 24.2716 36.4563 24.823 35.7563 25.651C35.0563 26.479 34.6368 27.445 34.9168 28.411C36.0368 28.411 37.0168 27.859 37.7168 27.031C38.2768 26.341 38.6963 25.2376 38.5563 24.1336ZM31.9774 28.411C30.5774 28.411 29.1785 29.2412 28.1985 30.6212C26.7985 32.6912 27.0774 36.5546 29.1774 39.7286C29.8774 40.9706 30.8563 42.211 32.2563 42.211C33.5163 42.349 33.7974 41.521 35.4774 41.521C37.0174 41.383 37.2963 42.211 38.5563 42.211C39.8163 42.211 40.9374 40.6952 41.7774 39.5912C42.1974 38.7632 42.4779 38.347 43.0379 37.381C39.9579 36.139 39.3974 31.8621 42.4774 30.2061C41.4974 29.1021 40.2374 28.411 38.9774 28.411C37.2974 28.411 36.5974 29.2412 35.4774 29.2412C34.3574 29.2412 33.3774 28.411 31.9774 28.411ZM2.98481 56.0272H25.3848C25.3849 56.3932 25.5324 56.7442 25.7949 57.003C26.0574 57.2617 26.4135 57.4072 26.7848 57.4072H43.5848C43.9561 57.4072 44.3122 57.2617 44.5747 57.003C44.8373 56.7442 44.9848 56.3932 44.9848 56.0272H67.3848V57.4072C67.3848 58.806 67.0907 59.368 66.7614 59.6605C66.432 59.953 65.7745 60.1672 64.5848 60.1672H5.78481C5.43705 60.1672 4.58992 59.9885 4.00474 59.5688C3.41955 59.1491 2.98481 58.6147 2.98481 57.4072V56.0272Z" fill="#FF4F4F"/>
</g>
<defs>
<clipPath id="clip0_16306_27472">
<rect width="70" height="69" fill="white" transform="translate(0.184814 0.828125)"/>
</clipPath>
</defs>
</svg>
