<svg width="68" height="68" viewBox="0 0 68 68" fill="none" xmlns="http://www.w3.org/2000/svg">
<g clip-path="url(#clip0_16306_27474)">
<path d="M34.4371 4.84766C26.3123 4.84766 19.6971 11.4629 19.6971 19.5877C19.6971 27.7125 26.3123 34.3277 34.4371 34.3277C42.562 34.3277 49.1771 27.7125 49.1771 19.5877C49.1771 11.4629 42.562 4.84766 34.4371 4.84766ZM34.4371 7.52766C41.1136 7.52766 46.4971 12.9112 46.4971 19.5877C46.4971 26.2641 41.1136 31.6477 34.4371 31.6477C27.7607 31.6477 22.3771 26.2641 22.3771 19.5877C22.3771 12.9112 27.7607 7.52766 34.4371 7.52766ZM33.0971 10.2077V12.5788C29.5488 13.1738 29.4357 16.327 29.4357 16.7009C29.4357 20.0187 32.1214 20.618 34.2801 21.1004C36.2178 21.5346 37.3134 21.8446 37.3134 23.147C37.3134 23.9283 36.9402 25.2408 34.4398 25.2408C34.3848 25.2408 33.0848 25.2311 32.2701 24.4164C31.7891 23.9353 31.5564 23.2398 31.5792 22.3514L31.5818 22.2677H29.0928L29.0955 22.354C29.1759 25.168 30.4921 26.7759 33.0998 27.2717V28.9677H33.228H35.6672H35.7771V27.3136C39.5908 26.6945 39.7971 23.7384 39.7971 23.1287C39.7985 19.9248 37.1127 19.3088 34.9553 18.813C33.0177 18.3681 31.922 18.0552 31.922 16.8291C31.922 15.3618 32.7331 14.6778 34.4764 14.6778C36.3738 14.6778 36.8735 15.845 36.9418 16.9077H39.4281C39.4295 15.8678 39.0072 14.7493 38.2635 13.9345C37.6122 13.223 36.7567 12.765 35.7745 12.5814V10.2077H35.6672H33.2254H33.0971ZM18.98 34.3277C15.1786 34.3277 13.4523 35.248 11.5498 36H11.5472C7.9201 37.4374 1.69613 40.4309 1.69613 40.4309C1.53729 40.5072 1.39504 40.614 1.27748 40.7453C1.15993 40.8765 1.06939 41.0297 1.01103 41.1959C0.952666 41.3622 0.927628 41.5383 0.937344 41.7142C0.94706 41.8902 0.99134 42.0624 1.06765 42.2213C1.14397 42.3801 1.25082 42.5223 1.38211 42.6398C1.5134 42.7573 1.66656 42.8478 1.83283 42.9061C1.9991 42.9645 2.17523 42.9894 2.35116 42.9797C2.52709 42.9699 2.69937 42.9256 2.85816 42.8492C2.85816 42.8492 9.12015 39.8446 12.5339 38.4916C14.6247 37.6651 15.5696 37.0077 18.98 37.0077C26.5063 37.0077 26.3028 40.3865 29.386 42.2368H29.3886C30.4947 42.9001 32.2061 43.4432 34.1623 43.9406C34.3646 44.0536 34.5928 44.1122 34.8245 44.1107H34.8271C37.0267 44.6428 39.3543 45.0477 41.1371 45.0477C42.7033 45.0477 43.8097 45.348 44.3982 45.7177C44.9866 46.0873 45.1571 46.3923 45.1571 47.0577C45.1571 47.8376 44.9776 48.104 44.3903 48.4526C43.803 48.8012 42.6789 49.0677 41.1371 49.0677H33.3641C30.0828 49.0677 25.4262 47.78 25.4262 47.78C25.2552 47.7252 25.0751 47.7054 24.8963 47.7216C24.7176 47.7378 24.5439 47.7897 24.3856 47.8743C24.2273 47.9589 24.0876 48.0744 23.9748 48.214C23.862 48.3536 23.7784 48.5145 23.729 48.687C23.6796 48.8596 23.6653 49.0403 23.687 49.2184C23.7087 49.3966 23.766 49.5686 23.8555 49.7242C23.9449 49.8798 24.0647 50.0158 24.2078 50.1242C24.3508 50.2327 24.5141 50.3112 24.6881 50.3553C24.6881 50.3553 29.4201 51.7477 33.3641 51.7477H41.1371C42.9508 51.7477 44.5053 51.5025 45.7591 50.7584C46.136 50.5347 46.4677 50.245 46.7562 49.9156C46.857 49.8775 46.9528 49.8275 47.0415 49.7664L59.0937 41.661C61.1834 40.4213 62.6244 40.0691 63.4827 40.0855C64.3413 40.1018 64.6664 40.3737 64.9405 40.7319C65.3378 41.2517 65.369 41.5274 65.1106 42.14C64.8522 42.7525 64.1136 43.6365 62.8205 44.553C61.2116 45.6946 43.5059 57.4555 41.425 58.6596C39.8852 59.552 38.6437 60.5022 37.2244 60.9052C35.8057 61.3081 34.1273 61.3035 31.3829 59.9682H31.3803C29.5473 59.0753 21.8045 55.0317 19.2915 53.7341C17.9028 53.0164 16.732 52.6198 15.5358 52.6872C14.3396 52.7546 13.3266 53.2764 12.2617 53.9566C12.2582 53.9592 12.2547 53.9618 12.2512 53.9644L8.63691 56.3225C8.48726 56.4176 8.35795 56.5414 8.25648 56.6867C8.15502 56.8321 8.08341 56.9962 8.0458 57.1695C8.00819 57.3427 8.00534 57.5217 8.0374 57.6961C8.06946 57.8705 8.13581 58.0367 8.23259 58.1853C8.32937 58.3338 8.45466 58.4617 8.60121 58.5615C8.74776 58.6613 8.91265 58.731 9.08633 58.7666C9.26001 58.8022 9.43903 58.803 9.61302 58.7689C9.78701 58.7348 9.9525 58.6665 10.0999 58.568L13.7169 56.21C14.6401 55.6218 15.1863 55.3928 15.6876 55.3646C16.1922 55.3362 16.8652 55.4975 18.0614 56.1157C20.5515 57.4015 28.1933 61.3948 30.2078 62.3761C33.3724 63.9164 35.9173 64.0624 37.9573 63.4831C39.9972 62.9039 41.452 61.741 42.7677 60.9785C45.559 59.3632 62.3528 48.1696 64.3699 46.7384V46.741C65.907 45.6515 67.0179 44.5107 67.5786 43.1816C68.1393 41.8525 67.9586 40.2687 67.0682 39.104C66.3682 38.1892 65.1176 37.4357 63.5324 37.4055C62.4114 37.3841 61.0703 37.8079 59.5936 38.4707C59.5377 38.2026 59.668 37.9068 59.5491 37.6489C59.0935 36.6606 58.0782 35.9644 56.9371 35.7383H56.9345C55.4375 35.4424 53.7422 35.9035 52.0639 36.6753C51.9444 36.3115 51.8533 35.9301 51.6111 35.6415C50.8925 34.785 49.8588 34.4807 48.8971 34.4062C46.9736 34.2571 44.9728 34.8851 43.5266 35.7462C41.5195 36.9406 35.5216 40.7369 34.6491 41.2894C32.858 40.8066 31.2436 40.2231 30.7652 39.9363V39.9389C29.539 39.2029 27.4292 34.3277 18.98 34.3277ZM48.6903 37.0783C49.2259 37.1198 49.482 37.2747 49.5566 37.3636C49.6134 37.4313 49.7023 37.5575 49.6613 37.9525L43.0451 42.5142C42.4456 42.4257 41.8193 42.3677 41.1371 42.3677C40.428 42.3677 39.4576 42.2612 38.3996 42.0929C40.7311 40.6222 43.6207 38.8053 44.8954 38.0467C45.7943 37.5115 47.6193 36.9953 48.6903 37.0783ZM55.5238 38.345C55.8782 38.3123 56.1839 38.32 56.4163 38.366C56.9729 38.4763 57.0266 38.5797 57.1151 38.7716C57.1808 38.9143 57.201 39.2733 57.1543 39.7348L47.7141 46.0841C47.48 45.1177 46.9085 44.2548 46.1098 43.6553L51.6399 39.8447C51.6875 39.8127 51.7329 39.7778 51.776 39.74C53.0519 38.885 54.4939 38.4401 55.5238 38.345Z" fill="#FF4F4F"/>
</g>
<defs>
<clipPath id="clip0_16306_27474">
<rect width="67" height="67" fill="white" transform="translate(0.937256 0.828125)"/>
</clipPath>
</defs>
</svg>
