<svg width="67" height="66" viewBox="0 0 67 66" fill="none" xmlns="http://www.w3.org/2000/svg">
<path d="M8.61006 10.4805C5.00756 10.4805 2.06006 13.428 2.06006 17.0305V47.1605C2.06006 50.763 5.00756 53.7105 8.61006 53.7105H58.3901C61.9926 53.7105 64.9401 50.763 64.9401 47.1605V17.0305C64.9401 13.428 61.9926 10.4805 58.3901 10.4805H8.61006ZM8.61006 13.1005H21.7101V17.9311C22.1655 18.146 22.6056 18.3968 23.0201 18.6884C23.4346 18.3968 23.8746 18.146 24.3301 17.9311V13.1005H58.3901C60.5751 13.1005 62.3201 14.8454 62.3201 17.0305V30.1305H36.5397C36.0689 31.1181 35.4139 31.9931 34.6412 32.7505H62.3201V47.1605C62.3201 49.3455 60.5751 51.0905 58.3901 51.0905H24.3301V38.3589L23.0201 37.0694L21.7101 38.3589V51.0905H8.61006C6.42502 51.0905 4.68006 49.3455 4.68006 47.1605V32.7505H11.404C10.6262 31.9931 9.97123 31.1181 9.50045 30.1305H4.68006V17.0305C4.68006 14.8454 6.42502 13.1005 8.61006 13.1005ZM17.7801 19.6505C17.5549 19.6505 17.3297 19.6607 17.1097 19.6863C16.8948 19.7068 16.6747 19.7426 16.4649 19.7835C13.9063 20.3055 11.8851 22.3268 11.3631 24.8854C11.2761 25.3101 11.2301 25.7502 11.2301 26.2005C11.2301 26.6508 11.2761 27.0909 11.3631 27.5156C11.8851 30.0742 13.9063 32.0955 16.4649 32.6174C16.8897 32.7044 17.3297 32.7505 17.7801 32.7505H19.9344L14.239 38.364L16.0812 40.2369L23.0201 33.3901L29.959 40.2369L31.8012 38.364L26.1057 32.7505H28.2601C28.7104 32.7505 29.1505 32.7044 29.5752 32.6174C32.1338 32.0955 34.1551 30.0691 34.677 27.5156C34.764 27.0909 34.8101 26.6508 34.8101 26.2005C34.8101 25.7502 34.764 25.3101 34.677 24.8854C34.1551 22.3268 32.1287 20.3055 29.5752 19.7835C29.1505 19.6965 28.7104 19.6505 28.2601 19.6505C28.0042 19.6505 27.7586 19.6658 27.5078 19.6965C27.4515 19.7016 27.3953 19.717 27.3338 19.7272C27.1701 19.7477 27.0115 19.7784 26.8528 19.8142C26.5049 19.891 26.1722 19.9933 25.8447 20.1264C25.7424 20.1673 25.6401 20.2185 25.5377 20.2645C25.2819 20.3873 25.0311 20.5204 24.7957 20.6739C24.6422 20.766 24.4989 20.8684 24.3556 20.9758C24.197 21.0986 24.0435 21.2266 23.8951 21.3647C23.7569 21.4824 23.6239 21.6052 23.5011 21.7383C23.3322 21.9174 23.1685 22.1118 23.0201 22.3114C22.8717 22.1118 22.7079 21.9174 22.539 21.7383C22.4162 21.6052 22.2832 21.4824 22.145 21.3647C21.9966 21.2266 21.8431 21.0986 21.6845 20.9758C21.5412 20.8684 21.3979 20.766 21.2444 20.6739C21.009 20.5204 20.7583 20.3873 20.5024 20.2645C20.4001 20.2185 20.2977 20.1673 20.1954 20.1264C19.8679 19.9933 19.5353 19.891 19.1873 19.8142C19.0287 19.7784 18.87 19.7477 18.7063 19.7272C18.6449 19.717 18.5886 19.7016 18.5323 19.6965C18.2815 19.6658 18.0359 19.6505 17.7801 19.6505ZM17.7801 22.2705C18.0513 22.2705 18.3174 22.2961 18.5732 22.3523C18.5732 22.3523 18.5732 22.3472 18.5783 22.3523C20.3642 22.7208 21.7101 24.3071 21.7101 26.2005V30.1305H17.7801C17.5088 30.1305 17.2428 30.1049 16.9869 30.0486C15.4569 29.7364 14.2441 28.5288 13.9319 26.9987C13.9268 26.9936 13.9319 26.9936 13.9319 26.9936C13.8756 26.7378 13.8501 26.4717 13.8501 26.2005C13.8501 25.9293 13.8756 25.6632 13.9319 25.4073C14.2441 23.8773 15.4517 22.6645 16.9818 22.3523C17.2428 22.2961 17.5088 22.2705 17.7801 22.2705ZM28.2601 22.2705C28.5313 22.2705 28.7974 22.2961 29.0532 22.3523C29.0532 22.3523 29.0532 22.3472 29.0583 22.3523C30.5833 22.6645 31.796 23.8773 32.1082 25.4022C32.1133 25.4073 32.1082 25.4073 32.1082 25.4073C32.1645 25.6632 32.1901 25.9293 32.1901 26.2005C32.1901 26.4717 32.1645 26.7378 32.1082 26.9936C32.1082 26.9936 32.1133 26.9936 32.1082 26.9987C31.7397 28.7846 30.1534 30.1305 28.2601 30.1305H24.3301V26.2005C24.3301 25.9293 24.3556 25.6632 24.4119 25.4022C24.7241 23.8773 25.9369 22.6645 27.4618 22.3523C27.7228 22.2961 27.9888 22.2705 28.2601 22.2705ZM42.6701 43.2305C41.9485 43.2305 41.3601 43.8189 41.3601 44.5405C41.3601 45.262 41.9485 45.8505 42.6701 45.8505C43.3916 45.8505 43.9801 45.262 43.9801 44.5405C43.9801 43.8189 43.3916 43.2305 42.6701 43.2305ZM46.6001 43.2305C45.8785 43.2305 45.2901 43.8189 45.2901 44.5405C45.2901 45.262 45.8785 45.8505 46.6001 45.8505C47.3216 45.8505 47.9101 45.262 47.9101 44.5405C47.9101 43.8189 47.3216 43.2305 46.6001 43.2305ZM50.5301 43.2305C49.8085 43.2305 49.2201 43.8189 49.2201 44.5405C49.2201 45.262 49.8085 45.8505 50.5301 45.8505C51.2516 45.8505 51.8401 45.262 51.8401 44.5405C51.8401 43.8189 51.2516 43.2305 50.5301 43.2305ZM54.4601 43.2305C53.7385 43.2305 53.1501 43.8189 53.1501 44.5405C53.1501 45.262 53.7385 45.8505 54.4601 45.8505C55.1816 45.8505 55.7701 45.262 55.7701 44.5405C55.7701 43.8189 55.1816 43.2305 54.4601 43.2305Z" fill="#FF4F4F"/>
</svg>
