<svg width="69" height="68" viewBox="0 0 69 68" fill="none" xmlns="http://www.w3.org/2000/svg">
<g clip-path="url(#clip0_13377_40377)">
<path d="M7.045 13.5996C6.39688 13.7218 5.92938 14.2955 5.94 14.9596C5.94 17.2121 4.1125 19.0396 1.86 19.0396C1.11094 19.0396 0.5 19.6505 0.5 20.3996V47.5996C0.5 48.3487 1.11094 48.9596 1.86 48.9596C4.1125 48.9596 5.94 50.7871 5.94 53.0396C5.94 53.7887 6.55094 54.3996 7.3 54.3996H61.7C62.4491 54.3996 63.06 53.7887 63.06 53.0396C63.06 50.7871 64.8875 48.9596 67.14 48.9596C67.8891 48.9596 68.5 48.3487 68.5 47.5996V20.3996C68.5 19.6505 67.8891 19.0396 67.14 19.0396C64.8875 19.0396 63.06 17.2121 63.06 14.9596C63.06 14.2105 62.4491 13.5996 61.7 13.5996H7.3C7.2575 13.5996 7.215 13.5996 7.1725 13.5996C7.13 13.5996 7.0875 13.5996 7.045 13.5996ZM8.3625 16.3196H49.46V20.3996H52.18V16.3196H60.6375C61.1953 18.928 63.1716 20.9043 65.78 21.4621V46.5371C63.1716 47.0949 61.1953 49.0712 60.6375 51.6796H52.18V47.5996H49.46V51.6796H8.3625C7.80469 49.0712 5.82844 47.0949 3.22 46.5371V21.4621C5.82844 20.9043 7.80469 18.928 8.3625 16.3196ZM49.46 23.1196V28.5596H52.18V23.1196H49.46ZM49.46 31.2796V36.7196H52.18V31.2796H49.46ZM49.46 39.4396V44.8796H52.18V39.4396H49.46Z" fill="#FF4F4F"/>
</g>
<defs>
<clipPath id="clip0_13377_40377">
<rect width="68" height="68" fill="white" transform="translate(0.5)"/>
</clipPath>
</defs>
</svg>
