<svg width="63" height="62" viewBox="0 0 63 62" fill="none" xmlns="http://www.w3.org/2000/svg">
<g clip-path="url(#clip0_13377_40386)">
<path d="M5.46 1.24023C2.71984 1.24023 0.5 3.46008 0.5 6.20023V53.3202C0.5 56.0604 2.71984 58.2802 5.46 58.2802H30.26V55.8002H5.46C3.98416 55.8002 2.98 54.7961 2.98 53.3202V6.20023C2.98 4.72439 3.98416 3.72023 5.46 3.72023H40.18C41.6558 3.72023 42.66 4.72439 42.66 6.20023V16.1202H45.14V6.20023C45.14 3.46008 42.9202 1.24023 40.18 1.24023H5.46ZM36.46 18.6002C34.4196 18.6002 32.74 20.2799 32.74 22.3202V58.2802C32.74 60.3206 34.4196 62.0002 36.46 62.0002H58.78C60.8204 62.0002 62.5 60.3206 62.5 58.2802V22.3202C62.5 20.2799 60.8204 18.6002 58.78 18.6002H36.46ZM36.46 21.0802H58.78C59.4676 21.0802 60.02 21.6326 60.02 22.3202V58.2802C60.02 58.9679 59.4676 59.5202 58.78 59.5202H36.46C35.7724 59.5202 35.22 58.9679 35.22 58.2802V22.3202C35.22 21.6326 35.7724 21.0802 36.46 21.0802ZM43.9 23.5602C43.7357 23.5579 43.5725 23.5883 43.4201 23.6495C43.2676 23.7108 43.1288 23.8018 43.0118 23.9172C42.8948 24.0325 42.8018 24.17 42.7384 24.3216C42.675 24.4732 42.6423 24.6359 42.6423 24.8002C42.6423 24.9646 42.675 25.1273 42.7384 25.2789C42.8018 25.4305 42.8948 25.5679 43.0118 25.6833C43.1288 25.7987 43.2676 25.8897 43.4201 25.9509C43.5725 26.0122 43.7357 26.0426 43.9 26.0402H51.34C51.5043 26.0426 51.6675 26.0122 51.8199 25.9509C51.9724 25.8897 52.1112 25.7987 52.2282 25.6833C52.3452 25.5679 52.4382 25.4305 52.5016 25.2789C52.565 25.1273 52.5977 24.9646 52.5977 24.8002C52.5977 24.6359 52.565 24.4732 52.5016 24.3216C52.4382 24.17 52.3452 24.0325 52.2282 23.9172C52.1112 23.8018 51.9724 23.7108 51.8199 23.6495C51.6675 23.5883 51.5043 23.5579 51.34 23.5602H43.9Z" fill="#FF4F4F"/>
</g>
<defs>
<clipPath id="clip0_13377_40386">
<rect width="62" height="62" fill="white" transform="translate(0.5)"/>
</clipPath>
</defs>
</svg>
