<svg width="42" height="42" viewBox="0 0 42 42" fill="none" xmlns="http://www.w3.org/2000/svg">
<path d="M37.1875 21C37.1875 29.94 29.94 37.1875 21 37.1875C12.0599 37.1875 4.8125 29.94 4.8125 21C4.8125 12.0599 12.0599 4.8125 21 4.8125C21.7248 4.8125 22.3125 4.22487 22.3125 3.5C22.3125 2.77513 21.7248 2.1875 21 2.1875C10.6101 2.1875 2.1875 10.6101 2.1875 21C2.1875 31.3899 10.6101 39.8125 21 39.8125C31.3899 39.8125 39.8125 31.3899 39.8125 21C39.8125 20.2751 39.2248 19.6875 38.5 19.6875C37.7751 19.6875 37.1875 20.2751 37.1875 21Z" fill="#FF4F4F"/>
<path d="M21.8219 18.322C21.3094 18.8345 21.3094 19.6654 21.8219 20.178C22.3345 20.6906 23.1654 20.6906 23.678 20.178L37.1875 6.66865V12.8516C37.1875 13.5764 37.7751 14.1641 38.5 14.1641C39.2248 14.1641 39.8125 13.5764 39.8125 12.8516V3.5C39.8125 2.77513 39.2248 2.1875 38.5 2.1875H29.1483C28.4235 2.1875 27.8358 2.77513 27.8358 3.5C27.8358 4.22487 28.4235 4.8125 29.1483 4.8125H35.3312L21.8219 18.322Z" fill="#FF4F4F"/>
</svg>
