<svg width="44" height="44" viewBox="0 0 44 44" fill="none" xmlns="http://www.w3.org/2000/svg">
<path fill-rule="evenodd" clip-rule="evenodd" d="M21.8948 2.29102C17.6629 2.291 14.3463 2.29098 11.7585 2.63889C9.10986 2.995 7.01982 3.73812 5.37934 5.37861C3.73885 7.01909 2.99573 9.10913 2.63962 11.7578C2.29171 14.3455 2.29173 17.6621 2.29175 21.8941V22.1046C2.29173 26.3366 2.29171 29.6531 2.63962 32.2409C2.99573 34.8895 3.73885 36.9797 5.37934 38.6202C7.01982 40.2606 9.10986 41.0037 11.7585 41.3599C14.3463 41.7077 17.6628 41.7077 21.8948 41.7077H22.1053C26.3374 41.7077 29.6539 41.7077 32.2416 41.3599C34.8902 41.0037 36.9804 40.2606 38.6209 38.6202C40.2614 36.9797 41.0044 34.8895 41.3606 32.2409C41.7084 29.6531 41.7084 26.3366 41.7084 22.1046V21.8941C41.7084 17.6621 41.7084 14.3455 41.3606 11.7578C41.0044 9.10913 40.2614 7.01909 38.6209 5.37861C36.9804 3.73812 34.8902 2.995 32.2416 2.63889C29.6539 2.29098 26.3374 2.291 22.1053 2.29102H21.8948ZM20.6251 5.04153C16.9699 5.04538 14.25 5.07867 12.125 5.36436C9.78123 5.67947 8.36824 6.27877 7.32388 7.32315C6.27951 8.36751 5.68021 9.78049 5.36509 12.1242C5.0794 14.2492 5.04611 16.9692 5.04226 20.6243H12.6753C12.0319 19.8206 11.5511 18.8726 11.2889 17.824C10.3021 13.8768 13.8775 10.3014 17.8247 11.2882C18.8733 11.5504 19.8213 12.0311 20.6251 12.6746V5.04153ZM5.04226 23.3743C5.04611 27.0295 5.0794 29.7494 5.36509 31.8744C5.68021 34.2181 6.27951 35.6311 7.32388 36.6755C8.36824 37.72 9.78123 38.3193 12.125 38.6343C14.25 38.9201 16.9699 38.9533 20.6251 38.9571V25.8926C19.1958 28.7477 16.2435 30.7077 12.8334 30.7077C12.074 30.7077 11.4584 30.092 11.4584 29.3327C11.4584 28.5733 12.074 27.9577 12.8334 27.9577C15.6509 27.9577 18.0116 26.0022 18.6322 23.3743H18.3978H18.3809H5.04226ZM23.3751 38.9571C27.0302 38.9533 29.7501 38.9201 31.8751 38.6343C34.2189 38.3193 35.6318 37.72 36.6763 36.6755C37.7207 35.6311 38.32 34.2181 38.635 31.8744C38.9208 29.7494 38.954 27.0295 38.9579 23.3743H25.6193H25.6024H25.3679C25.9887 26.0022 28.3493 27.9577 31.1667 27.9577C31.9261 27.9577 32.5417 28.5733 32.5417 29.3327C32.5417 30.092 31.9261 30.7077 31.1667 30.7077C27.7567 30.7077 24.8043 28.7477 23.3751 25.8926V38.9571ZM38.9579 20.6243H31.325C31.9683 19.8206 32.4492 18.8726 32.7113 17.824C33.698 13.8768 30.1227 10.3014 26.1755 11.2882C25.1268 11.5504 24.1788 12.0311 23.3751 12.6746V5.04153C27.0302 5.04538 29.7501 5.07867 31.8751 5.36436C34.2189 5.67947 35.6318 6.27877 36.6763 7.32315C37.7207 8.36751 38.32 9.78049 38.635 12.1242C38.9208 14.2492 38.954 16.9692 38.9579 20.6243ZM23.3751 20.6243V18.386C23.38 16.2901 24.8082 14.4647 26.8425 13.9561C28.7755 13.4728 30.5267 15.2239 30.0433 17.157C29.5349 19.1905 27.7107 20.6183 25.6158 20.6243H23.3751ZM20.6251 18.3831C20.6188 16.2884 19.191 14.4644 17.1577 13.9561C15.2246 13.4728 13.4735 15.2239 13.9568 17.157C14.4652 19.1905 16.2895 20.6183 18.3844 20.6243H20.6251V18.3831Z" fill="#FF4F4F"/>
</svg>
