<svg width="41" height="41" viewBox="0 0 41 41" fill="none" xmlns="http://www.w3.org/2000/svg">
<g id="icons8-trees-2 1" clip-path="url(#clip0_1500_21179)">
<path id="Vector" d="M28.8281 0.0256348C28.543 0.0256348 28.2548 0.150557 28.1106 0.41001L21.9606 11.4288C21.8485 11.6274 21.8389 11.8772 21.9094 12.095C21.9798 12.3128 22.1368 12.4858 22.345 12.5819C22.4699 12.6395 25.4648 14.0169 28.905 14.0169C32.3548 14.0169 35.2184 12.6395 35.3369 12.5819C35.5387 12.4826 35.6796 12.284 35.7469 12.0694C35.8141 11.8548 35.7789 11.6242 35.67 11.4288L29.5456 0.41001C29.4015 0.150557 29.1132 0.0256348 28.8281 0.0256348ZM12.1719 1.56313C9.97133 1.56313 7.91813 2.83798 6.84188 4.81751C4.66055 5.20189 3.02375 7.15899 3.02375 9.48126C3.02375 9.65743 3.03016 9.81759 3.04938 9.99376C2.0532 11.1533 1.51188 12.6331 1.51188 14.1963C1.51188 14.728 1.58234 15.2789 1.7425 15.8619C1.58555 16.3488 1.51188 16.8452 1.51188 17.3481C1.51188 17.7101 1.55352 18.0881 1.64 18.45C0.602188 19.3501 0 20.6474 0 22.0631C0 24.0907 1.2268 25.8781 3.02375 26.5475C3.01734 26.634 3.02375 26.7173 3.02375 26.8038C3.02375 29.4239 5.09617 31.5444 7.63625 31.5444C7.84445 31.5444 8.05266 31.5636 8.25125 31.57C8.97195 31.5956 9.74391 31.602 10.4294 31.2625C11.0764 32.1338 12.0245 32.4413 12.915 32.4413C13.4275 32.4413 13.9176 32.3388 14.3244 32.2106C14.6543 32.3836 14.981 32.4989 15.2981 32.5694C14.9105 31.807 14.9105 30.8653 15.4006 30.1094L18.9625 24.6513C18.4372 24.3245 18.1393 24.0331 18.0144 23.9081C17.22 23.117 17.063 21.9062 17.63 20.9356L21.3713 14.5294L21.6531 14.0169C21.6531 14.0169 21.3104 13.8695 21.1663 13.7606C20.7883 13.4627 20.4968 13.0752 20.3463 12.6075C20.1348 11.9605 20.1957 11.2334 20.5256 10.6344L20.7306 10.3013C20.1989 9.32431 19.3245 8.56517 18.2706 8.17439C18.277 8.0879 18.2962 7.97899 18.2962 7.89251C18.2962 4.4011 15.5448 1.56313 12.1719 1.56313ZM23.1906 14.6575L19.0394 21.7556C18.8504 22.0792 18.9016 22.4924 19.1675 22.755C19.2604 22.8479 20.138 23.6839 22.3706 24.3438C24.1932 24.8819 26.3937 25.1638 28.9306 25.1638C36.1569 25.1638 38.2934 22.9536 38.5144 22.7038C38.745 22.4411 38.7962 22.0599 38.6169 21.7556L34.4912 14.6831C33.178 15.138 31.176 15.6569 28.905 15.6569C26.6148 15.6569 24.5359 15.1092 23.1906 14.6575ZM20.4744 25.3944L16.8356 31.0063C16.6114 31.3522 16.6723 31.8167 16.9894 32.0825C17.1175 32.1914 20.2021 34.6963 29.0075 34.6963C37.8353 34.6963 40.6797 32.1658 40.795 32.0569C41.0833 31.7846 41.1377 31.3394 40.9231 31.0063L37.31 25.4456C35.6412 26.1567 33.0082 26.8038 28.9819 26.8038C26.288 26.8038 23.9338 26.4931 21.9606 25.9069C21.3969 25.7403 20.9036 25.5738 20.4744 25.3944ZM10.3525 33.3638C10.5511 36.8263 9.38516 37.6047 8.55875 38.1556C7.98859 38.5368 7.13016 39.107 7.43125 40.3594C7.52094 40.7277 7.84766 41 8.22563 41H17.9375C18.3891 41 18.7575 40.6349 18.7575 40.18C18.7575 39.4209 18.2354 38.9949 17.7581 38.6169C17.015 38.0275 15.8875 37.1178 15.4262 34.235C15.0034 34.1806 14.5774 34.0845 14.1706 33.9275C13.8087 34.0012 13.3859 34.0813 12.915 34.0813C11.9573 34.0813 11.086 33.8154 10.3525 33.3638ZM32.0825 36.2338C31.1312 36.3042 30.1062 36.3363 28.9819 36.3363C28.2355 36.3363 27.5277 36.317 26.855 36.285C26.8614 37.5919 26.5987 38.2069 26.3425 38.4888C26.067 38.7931 25.673 38.8475 25.0869 38.8475H24.7794C24.4238 38.8475 23.8441 38.8571 23.4725 39.3088C23.3188 39.4977 23.1426 39.8277 23.2419 40.3338C23.3188 40.7181 23.6711 41 24.0619 41H34.235C34.2414 41 34.2542 41 34.2606 41C34.7155 41 35.0806 40.6349 35.0806 40.18C35.0806 39.9238 34.9589 39.6899 34.7731 39.5394C34.1613 38.8795 33.4182 38.8731 33.005 38.8731H32.8769C32.611 38.8731 32.5085 38.8635 32.4669 38.8219C32.3708 38.7258 32.0921 38.2485 32.0825 36.2338Z" fill="#3A3A3A"/>
</g>
<defs>
<clipPath id="clip0_1500_21179">
<rect width="41" height="41" fill="white"/>
</clipPath>
</defs>
</svg>
