<svg width="60" height="42" viewBox="0 0 60 42" fill="none" xmlns="http://www.w3.org/2000/svg">
<path d="M7.30112 0.226562C3.78112 0.226562 0.901123 3.10656 0.901123 6.62656V34.7866C0.901123 38.3066 3.78112 41.1866 7.30112 41.1866H53.3811C56.9011 41.1866 59.7811 38.3066 59.7811 34.7866V6.62656C59.7811 3.10656 56.9011 0.226562 53.3811 0.226562H7.30112ZM7.30112 2.78656H53.3811C55.5161 2.78656 57.2211 4.49156 57.2211 6.62656V34.7866C57.2211 36.9216 55.5161 38.6266 53.3811 38.6266H7.30112C5.16612 38.6266 3.46112 36.9216 3.46112 34.7866V6.62656C3.46112 4.49156 5.16612 2.78656 7.30112 2.78656ZM17.3811 10.4666C17.2411 10.4866 17.1061 10.5266 16.9811 10.5866L9.30112 14.4266C8.66112 14.7366 8.39112 15.5066 8.70112 16.1466C9.01112 16.7866 9.78112 17.0566 10.4211 16.7466L17.5411 13.1866L24.6611 16.7466C25.3011 17.0566 26.0711 16.7866 26.3811 16.1466C26.6911 15.5066 26.4211 14.7366 25.7811 14.4266L18.1011 10.5866C17.8761 10.4766 17.6261 10.4366 17.3811 10.4666ZM32.5411 11.7466C31.8361 11.8466 31.3411 12.5016 31.4411 13.2066C31.5411 13.9116 32.1961 14.4066 32.9011 14.3066H50.8211C51.2811 14.3116 51.7111 14.0716 51.9461 13.6716C52.1761 13.2716 52.1761 12.7816 51.9461 12.3816C51.7111 11.9816 51.2811 11.7416 50.8211 11.7466H32.9011C32.8611 11.7466 32.8211 11.7466 32.7811 11.7466C32.7411 11.7466 32.7011 11.7466 32.6611 11.7466C32.6211 11.7466 32.5811 11.7466 32.5411 11.7466ZM32.5411 16.8666C31.8361 16.9666 31.3411 17.6216 31.4411 18.3266C31.5411 19.0316 32.1961 19.5266 32.9011 19.4266H46.9811C47.4411 19.4316 47.8711 19.1916 48.1061 18.7916C48.3361 18.3916 48.3361 17.9016 48.1061 17.5016C47.8711 17.1016 47.4411 16.8616 46.9811 16.8666H32.9011C32.8611 16.8666 32.8211 16.8666 32.7811 16.8666C32.7411 16.8666 32.7011 16.8666 32.6611 16.8666C32.6211 16.8666 32.5811 16.8666 32.5411 16.8666ZM13.3411 18.1466C12.2461 18.1466 11.2461 18.8666 10.9011 19.9066L9.94112 22.8666L9.86112 23.0666V30.3066C9.86112 30.6616 10.1461 30.9466 10.5011 30.9466H13.0611C13.4161 30.9466 13.7011 30.6616 13.7011 30.3066V29.6666H21.3811V30.3066C21.3811 30.6616 21.6661 30.9466 22.0211 30.9466H24.5811C24.9361 30.9466 25.2211 30.6616 25.2211 30.3066V23.0666L25.1411 22.8666L24.1811 19.9066C23.8361 18.8616 22.8361 18.1466 21.7411 18.1466H13.3411ZM13.3411 20.7066H21.7411L22.6211 23.2666H12.4611L13.3411 20.7066ZM32.5411 21.9866C31.8361 22.0866 31.3411 22.7416 31.4411 23.4466C31.5411 24.1516 32.1961 24.6466 32.9011 24.5466H50.8211C51.2811 24.5516 51.7111 24.3116 51.9461 23.9116C52.1761 23.5116 52.1761 23.0216 51.9461 22.6216C51.7111 22.2216 51.2811 21.9816 50.8211 21.9866H32.9011C32.8611 21.9866 32.8211 21.9866 32.7811 21.9866C32.7411 21.9866 32.7011 21.9866 32.6611 21.9866C32.6211 21.9866 32.5811 21.9866 32.5411 21.9866ZM12.4211 25.8266C13.1261 25.8266 13.7011 26.4016 13.7011 27.1066C13.7011 27.8116 13.1261 28.3866 12.4211 28.3866C11.7161 28.3866 11.1411 27.8116 11.1411 27.1066C11.1411 26.4016 11.7161 25.8266 12.4211 25.8266ZM22.6611 25.8266C23.3661 25.8266 23.9411 26.4016 23.9411 27.1066C23.9411 27.8116 23.3661 28.3866 22.6611 28.3866C21.9561 28.3866 21.3811 27.8116 21.3811 27.1066C21.3811 26.4016 21.9561 25.8266 22.6611 25.8266ZM32.5411 27.1066C31.8361 27.2066 31.3411 27.8616 31.4411 28.5666C31.5411 29.2716 32.1961 29.7666 32.9011 29.6666H46.9811C47.4411 29.6716 47.8711 29.4316 48.1061 29.0316C48.3361 28.6316 48.3361 28.1416 48.1061 27.7416C47.8711 27.3416 47.4411 27.1016 46.9811 27.1066H32.9011C32.8611 27.1066 32.8211 27.1066 32.7811 27.1066C32.7411 27.1066 32.7011 27.1066 32.6611 27.1066C32.6211 27.1066 32.5811 27.1066 32.5411 27.1066Z" fill="black"/>
</svg>
