<svg width="59" height="42" viewBox="0 0 59 42" fill="none" xmlns="http://www.w3.org/2000/svg">
<path d="M6.41005 0.976562C2.92897 0.976562 0.0808105 3.82472 0.0808105 7.30581V35.1545C0.0808105 38.6356 2.92897 41.4837 6.41005 41.4837H51.9806C55.4617 41.4837 58.3098 38.6356 58.3098 35.1545V7.30581C58.3098 3.82472 55.4617 0.976562 51.9806 0.976562H6.41005ZM6.41005 3.50826H51.9806C54.092 3.50826 55.7781 5.19437 55.7781 7.30581V35.1545C55.7781 37.2659 54.092 38.952 51.9806 38.952H6.41005C4.29862 38.952 2.61251 37.2659 2.61251 35.1545V7.30581C2.61251 5.19437 4.29862 3.50826 6.41005 3.50826ZM16.3786 9.8375C16.2406 9.85776 16.1058 9.89668 15.983 9.95618L8.38794 13.7537C7.75502 14.0601 7.48824 14.8218 7.79457 15.4547C8.10091 16.0876 8.86263 16.3544 9.49556 16.0481L16.5368 12.5274L23.5781 16.0481C24.211 16.3544 24.9728 16.0876 25.2791 15.4547C25.5854 14.8218 25.3187 14.0601 24.6857 13.7537L17.0907 9.95618C16.8691 9.84858 16.6204 9.80839 16.3786 9.8375ZM31.371 12.3692C30.6735 12.4679 30.1832 13.1156 30.2832 13.8131C30.3832 14.5105 31.0295 14.9996 31.727 14.9009H49.4489C49.9033 14.906 50.3285 14.6679 50.5615 14.2729C50.7893 13.878 50.7893 13.3934 50.5615 12.9972C50.3285 12.6022 49.9033 12.3641 49.4489 12.3692H31.727H31.6084H31.4897H31.371ZM14.6381 16.1667C13.9393 16.1667 13.3722 16.7338 13.3722 17.4326V18.6984H10.2076C8.82395 18.6984 7.6759 19.8465 7.6759 21.2301V28.8252C7.6759 30.2089 8.82395 31.3569 10.2076 31.3569H22.8661C24.2497 31.3569 25.3978 30.2089 25.3978 28.8252V21.2301C25.3978 19.8465 24.2497 18.6984 22.8661 18.6984H19.7015V17.4326C19.7015 16.7338 19.1344 16.1667 18.4356 16.1667H14.6381ZM31.371 17.4326C30.6735 17.5313 30.1832 18.179 30.2832 18.8765C30.3832 19.5739 31.0295 20.063 31.727 19.9643H45.6514C46.1058 19.9694 46.531 19.7313 46.7639 19.3363C46.9918 18.9414 46.9918 18.4568 46.7639 18.0606C46.531 17.6656 46.1058 17.4275 45.6514 17.4326H31.727H31.6084H31.4897H31.371ZM10.2076 21.2301H22.8661V28.8252H10.2076V21.2301ZM31.371 22.496C30.6735 22.5947 30.1832 23.2424 30.2832 23.9398C30.3832 24.6373 31.0295 25.1264 31.727 25.0277H49.4489C49.9033 25.0327 50.3285 24.7947 50.5615 24.3997C50.7893 24.0048 50.7893 23.5202 50.5615 23.124C50.3285 22.729 49.9033 22.4909 49.4489 22.496H31.727H31.6084H31.4897H31.371ZM31.371 27.5594C30.6735 27.6581 30.1832 28.3058 30.2832 29.0032C30.3832 29.7007 31.0295 30.1898 31.727 30.0911H45.6514C46.1058 30.0961 46.531 29.858 46.7639 29.4631C46.9918 29.0682 46.9918 28.5836 46.7639 28.1874C46.531 27.7924 46.1058 27.5543 45.6514 27.5594H31.727H31.6084H31.4897H31.371Z" fill="black"/>
</svg>
