<svg width="248" height="39" viewBox="0 0 248 39" fill="none" xmlns="http://www.w3.org/2000/svg">
<g clip-path="url(#clip0_16207_26876)">
<path d="M111.904 14.361C111.586 13.5868 111.102 12.8918 110.486 12.3248C109.87 11.7579 109.137 11.3329 108.339 11.0797C107.114 10.6705 105.796 10.6319 104.549 10.9689C103.302 11.3058 102.182 12.0033 101.329 12.9739C100.887 13.4419 100.479 13.9403 100.106 14.4654V3.07031H93.842V4.03979H94.021L95.7661 4.30826C95.9552 4.35231 96.1252 4.45569 96.2513 4.60328C96.3774 4.75088 96.4531 4.93495 96.4671 5.12859C96.5711 5.82511 96.6309 6.52752 96.6461 7.23161V29.2014H99.1965C99.1965 29.2014 99.3606 29.0225 99.3606 28.933C99.4501 28.3215 99.6291 27.7994 99.7186 27.173C99.7186 27.173 99.7186 27.0089 99.8081 27.0089C99.8567 27.0017 99.9063 27.0061 99.953 27.0216C99.9996 27.0372 100.042 27.0635 100.077 27.0984C100.256 27.3203 100.456 27.525 100.673 27.7099C101.549 28.4852 102.602 29.033 103.739 29.3053C104.877 29.5775 106.064 29.5657 107.195 29.271C108.327 28.9763 109.369 28.4076 110.229 27.6152C111.089 26.8227 111.742 25.8308 112.128 24.7269C112.897 22.7443 113.193 20.6096 112.993 18.4925C112.932 17.053 112.56 15.6437 111.904 14.361ZM109.622 21.1324C109.606 22.355 109.399 23.5676 109.011 24.7269C108.738 25.7339 108.079 26.5927 107.177 27.1175C106.276 27.6424 105.203 27.7909 104.193 27.531C102.773 27.2948 101.44 26.6876 100.33 25.771C100.276 25.7316 100.231 25.6801 100.2 25.6206C100.169 25.5611 100.152 25.4951 100.151 25.4279V15.9569C100.147 15.6929 100.243 15.4371 100.42 15.241C101.371 14.0446 102.702 13.2082 104.193 12.8695C104.815 12.7174 105.463 12.7123 106.087 12.8547C106.711 12.9971 107.293 13.2831 107.788 13.6898C108.504 14.3769 108.994 15.2669 109.19 16.2403C109.603 17.8359 109.749 19.489 109.622 21.1324Z" fill="#253858"/>
<path d="M130.16 27.8927C129.802 27.8927 129.533 27.9822 129.011 27.9822C128.489 27.9822 127.878 27.5347 127.699 26.7442C127.52 25.9059 127.43 25.051 127.43 24.1937V16.4976C127.446 15.9492 127.416 15.4004 127.341 14.8569C127.269 14.1842 127.042 13.5375 126.677 12.9679C126.312 12.3983 125.819 11.9216 125.238 11.5756C124.381 11.0839 123.42 10.8028 122.434 10.7553C119.988 10.6541 117.554 11.14 115.334 12.1722C115.234 12.2666 115.171 12.3934 115.155 12.5302V15.6027H117.288C117.288 15.3342 117.378 15.1701 117.378 14.8868C117.379 14.3123 117.567 13.754 117.915 13.2964C118.262 12.8388 118.749 12.507 119.302 12.3512C119.842 12.2243 120.39 12.1346 120.942 12.0827C121.588 12.0166 122.236 12.1852 122.767 12.5578C123.299 12.9303 123.678 13.4817 123.836 14.1112C124.18 15.5457 124.301 17.0248 124.194 18.4962H123.746C122.613 18.4962 121.464 18.5857 120.331 18.6603C118.973 18.7485 117.653 19.141 116.468 19.8087C115.288 20.4914 114.419 21.6048 114.044 22.915C113.668 24.2251 113.816 25.6298 114.454 26.8337C115.027 27.8222 115.899 28.6026 116.945 29.0612C117.991 29.5199 119.156 29.633 120.271 29.3842C121.661 29.0939 122.958 28.4636 124.045 27.5496C124.388 27.2811 124.746 26.9232 125.104 26.6696L125.357 27.3706C125.503 27.9416 125.825 28.452 126.278 28.8296C126.73 29.2071 127.29 29.4324 127.878 29.4737C128.409 29.4583 128.938 29.3984 129.459 29.2947C130.324 29.1306 130.324 29.1306 130.279 28.2506C130.16 28.1462 130.16 28.0716 130.16 27.8927ZM124.283 26.3117C123.451 26.8651 122.519 27.2502 121.539 27.4452C121.092 27.5222 120.635 27.5104 120.193 27.4103C119.751 27.3102 119.333 27.1239 118.963 26.8621C118.593 26.6002 118.278 26.2679 118.037 25.8843C117.796 25.5006 117.633 25.0731 117.557 24.6263C117.549 24.4822 117.549 24.3378 117.557 24.1937C117.474 23.3463 117.67 22.4952 118.114 21.7687C118.558 21.0422 119.226 20.4799 120.018 20.1667C121.393 19.6298 122.869 19.3958 124.343 19.4806C124.343 19.7491 124.343 19.9131 124.522 20.0026V25.8791C124.524 25.9659 124.503 26.0515 124.461 26.1275C124.419 26.2035 124.358 26.267 124.283 26.3117Z" fill="#253858"/>
<path d="M184.182 27.8883C183.049 28.1419 182.437 27.7988 182.169 26.6504C181.99 25.903 181.899 25.137 181.9 24.3684V16.2099C181.916 15.7704 181.886 15.3306 181.811 14.8973C181.75 14.0715 181.447 13.282 180.94 12.6269C180.434 11.9718 179.746 11.4803 178.962 11.2133C178.345 10.9751 177.697 10.8244 177.038 10.7659C174.58 10.6546 172.131 11.13 169.894 12.153C169.794 12.2474 169.73 12.3742 169.715 12.5109V15.2255C169.715 15.315 169.804 15.4044 169.804 15.4939H171.997C171.997 15.4044 171.997 15.315 171.728 15.136C171.675 14.4362 171.87 13.7401 172.279 13.1699C172.688 12.5998 173.285 12.1921 173.965 12.0187C174.43 11.8408 174.924 11.7571 175.421 11.7725C175.918 11.7878 176.407 11.902 176.859 12.1082C177.355 12.3466 177.773 12.7216 178.064 13.1892C178.355 13.6568 178.506 14.1976 178.5 14.7482C178.589 15.8817 178.589 17.0302 178.589 18.1637L178.5 18.2532H178.246C177.008 18.2532 175.875 18.3427 174.726 18.4322C173.411 18.5853 172.134 18.9691 170.953 19.5657C169.743 20.2033 168.836 21.2949 168.43 22.6009C168.025 23.9069 168.154 25.3204 168.79 26.5311C168.861 26.6747 168.941 26.8142 169.029 26.9487C169.624 27.8282 170.47 28.5078 171.457 28.899C172.444 29.2901 173.526 29.3745 174.562 29.1412C175.963 28.8871 177.265 28.2465 178.321 27.2917C178.679 27.0382 179.037 26.6802 179.38 26.4267C179.525 26.7329 179.64 27.0526 179.723 27.3812C179.836 27.8422 180.079 28.2612 180.422 28.5889C180.766 28.9166 181.196 29.1392 181.662 29.2307C182.575 29.3666 183.507 29.2744 184.376 28.9622C184.42 28.9593 184.462 28.9415 184.495 28.9117C184.527 28.8818 184.548 28.8418 184.555 28.7981C184.571 28.4428 184.54 28.0869 184.466 27.7392C184.466 27.7392 184.272 27.8883 184.182 27.8883ZM178.664 19.8193V25.9494C178.662 26.041 178.637 26.1305 178.589 26.2091C178.542 26.2876 178.475 26.3523 178.395 26.3968C177.602 26.9514 176.704 27.3372 175.755 27.5304C175.298 27.5978 174.831 27.574 174.383 27.4603C173.935 27.3466 173.513 27.1454 173.143 26.8681C172.773 26.5908 172.461 26.2429 172.226 25.8446C171.991 25.4463 171.837 25.0054 171.773 24.5474C171.758 24.3587 171.758 24.1692 171.773 23.9806C171.758 23.1088 172.021 22.255 172.526 21.5439C173.03 20.8328 173.749 20.3016 174.577 20.0281C175.893 19.5652 177.285 19.3576 178.679 19.4166L178.664 19.8193Z" fill="#253858"/>
<path d="M165.837 27.9817C165.637 28.0307 165.43 28.0399 165.226 28.0087C165.023 27.9775 164.828 27.9065 164.652 27.7999C164.476 27.6932 164.323 27.553 164.201 27.3871C164.079 27.2213 163.992 27.0331 163.943 26.8333V26.6692C163.838 26.1784 163.778 25.6792 163.764 25.1777C163.674 22.2842 163.674 19.3907 163.674 16.5866C163.689 16.0878 163.659 15.5886 163.585 15.0951C163.561 14.1264 163.211 13.194 162.591 12.4494C161.971 11.7048 161.118 11.1917 160.169 10.9935C159.177 10.6809 158.128 10.5893 157.097 10.725C155.215 10.8449 153.372 11.3207 151.668 12.127C151.569 12.2246 151.501 12.3491 151.474 12.485V15.289C151.53 15.3334 151.567 15.3973 151.578 15.468H153.681C153.644 15.1459 153.644 14.8206 153.681 14.4985C153.755 14.0661 153.929 13.6566 154.188 13.3022C154.446 12.9478 154.783 12.6579 155.173 12.4552C155.841 12.1799 156.553 12.0283 157.276 12.0077C157.907 11.9718 158.531 12.1536 159.044 12.5228C159.557 12.8921 159.928 13.4263 160.095 14.0362C160.432 15.4718 160.552 16.9498 160.452 18.4212C160.273 18.4212 160.184 18.4212 160.273 18.5107C159.304 18.6002 158.335 18.6002 157.29 18.6897C155.959 18.7226 154.646 19.0165 153.428 19.5547C152.25 20.0003 151.276 20.8625 150.691 21.9779C150.106 23.0932 149.951 24.3843 150.254 25.6067C150.557 26.829 151.298 27.8977 152.337 28.6103C153.375 29.3229 154.639 29.6299 155.888 29.4732C157.308 29.3674 158.659 28.8197 159.751 27.9071C160.272 27.5235 160.77 27.1102 161.243 26.6692C161.299 27.2308 161.499 27.7684 161.823 28.2307C162.147 28.6929 162.584 29.0643 163.092 29.3092C164.171 29.6533 165.339 29.5896 166.374 29.1302C166.388 28.7205 166.358 28.3104 166.284 27.9071C166.133 27.9168 165.983 27.9418 165.837 27.9817ZM160.393 19.7785V25.9085C160.393 26.0875 160.303 26.177 160.139 26.356C159.337 26.8934 158.442 27.2777 157.499 27.4895C156.591 27.6231 155.666 27.3947 154.924 26.8536C154.182 26.3125 153.682 25.5019 153.532 24.596V24.1187C153.499 23.2796 153.725 22.4506 154.178 21.7437C154.632 21.0369 155.291 20.4862 156.067 20.1662C157.433 19.629 158.898 19.39 160.363 19.4652L160.393 19.7785Z" fill="#253858"/>
<path d="M137.125 27.4378C140.72 22.5158 144.225 17.5193 147.789 12.6122C147.952 12.3863 148.068 12.1298 148.129 11.8582C148.191 11.5865 148.197 11.3053 148.147 11.0312H133.486V14.9092H135.186V13.6861C135.183 13.36 135.218 13.0346 135.291 12.7166C135.327 12.5774 135.405 12.4526 135.514 12.3592C135.623 12.2659 135.759 12.2084 135.902 12.1946C136.335 12.1946 136.782 12.1051 137.215 12.1051H144.314C144.28 12.201 144.223 12.2877 144.15 12.3587C140.541 17.4596 136.946 22.4562 133.262 27.5422C133.102 27.7519 132.988 27.9935 132.929 28.2508C132.87 28.5081 132.867 28.775 132.919 29.0337H148.61V27.8107H136.901C136.966 27.7707 137.019 27.716 137.058 27.6512C137.097 27.5864 137.12 27.5132 137.125 27.4378Z" fill="#253858"/>
<path d="M191.863 14.4525V11.1712H185.629V12.0214C186.449 12.2003 187.12 12.2898 188 12.5434C188.189 12.5874 188.36 12.6908 188.486 12.8384C188.612 12.986 188.687 13.1701 188.701 13.3637C188.806 14.0351 188.866 14.7128 188.88 15.3922V24.9974C188.895 25.6103 188.865 26.2235 188.791 26.832C188.77 27.106 188.652 27.3635 188.458 27.5578C188.263 27.7521 188.006 27.8703 187.732 27.8909C187.182 27.9087 186.634 27.9635 186.091 28.055C186.002 28.055 185.838 28.1445 185.838 28.234V29.114H195.562V28.0699C195.365 28.0077 195.158 27.9824 194.951 27.9954C194.365 27.9808 193.782 27.921 193.206 27.8164C192.914 27.8009 192.64 27.6722 192.443 27.4576C192.245 27.243 192.139 26.9597 192.147 26.6679C192.042 26.0316 191.982 25.3886 191.968 24.7439C191.968 22.1188 192.057 19.4789 191.968 16.8389C191.928 16.3036 192.087 15.7724 192.415 15.3474C192.829 14.8136 193.351 14.3739 193.948 14.0576C194.544 13.7413 195.202 13.5556 195.876 13.5129C196.696 13.5129 196.756 13.6023 196.92 14.3779C197.024 14.8254 197.024 15.4369 197.099 15.8694H198.859V10.9475C195.667 10.4254 193.579 11.9169 191.863 14.4525Z" fill="#253858"/>
<path d="M11.302 11.2118C9.7203 11.7643 8.38065 12.8508 7.51354 14.2843C7.51354 14.3589 7.42405 14.4484 7.33456 14.5379C7.24507 14.6274 7.33456 14.4484 7.24507 14.4484V11.4654C7.24507 11.2118 7.15558 11.1223 6.90202 11.1223H0.950928C0.950928 11.1223 0.950928 11.2118 1.12991 11.3013C1.11672 11.5092 1.1472 11.7175 1.2194 11.9128C1.2194 12.0769 1.2194 12.1664 1.47295 12.1664C1.72651 12.1664 2.29328 12.2559 2.7109 12.3454C3.06747 12.3893 3.39914 12.5511 3.65318 12.8051C3.90721 13.0591 4.06903 13.3908 4.11291 13.7474C4.11291 14.1948 4.2024 14.8064 4.2024 15.2389V35.5233H7.36439V27.0963V27.0068C7.45525 27.1724 7.57673 27.3192 7.72235 27.4394C8.85502 28.496 10.2886 29.1737 11.824 29.3783C13.0897 29.5217 14.3693 29.2794 15.495 28.6833C16.6208 28.0871 17.5403 27.1649 18.133 26.0374C19.0129 24.3819 19.5219 22.5548 19.6245 20.6829C19.8485 18.7657 19.6343 16.8226 18.9981 15.0002C18.7759 14.2233 18.3934 13.5016 17.8753 12.8814C17.3572 12.2613 16.715 11.7565 15.99 11.3996C15.265 11.0428 14.4733 10.8417 13.6659 10.8093C12.8584 10.777 12.0532 10.9141 11.302 11.2118ZM15.9405 24.3669C15.7215 25.2599 15.2684 26.0785 14.628 26.7384C14.2308 27.1028 13.7555 27.3715 13.2385 27.5241C12.7215 27.6766 12.1764 27.7088 11.645 27.6184C10.1375 27.4036 8.71284 26.7967 7.51354 25.8584C7.43479 25.8201 7.36808 25.7609 7.32073 25.6872C7.27338 25.6136 7.2472 25.5283 7.24507 25.4408V15.8504C7.24066 15.7823 7.25502 15.7143 7.28658 15.6539C7.31814 15.5934 7.36569 15.5427 7.42405 15.5074C8.2744 14.1783 9.58679 13.2113 11.1081 12.7928C11.8054 12.5705 12.5571 12.5877 13.2436 12.8418C13.93 13.0958 14.5119 13.5721 14.8965 14.1948C15.5821 15.2013 16.0356 16.3476 16.2239 17.5507C16.6573 19.8142 16.5603 22.1472 15.9405 24.3669Z" fill="#0065FF"/>
<path d="M33.928 11.91C32.3054 10.9854 30.426 10.6137 28.5735 10.851C27.3829 10.9478 26.2317 11.3237 25.2134 11.9482C24.195 12.5727 23.3381 13.4282 22.7119 14.4456C21.9529 15.6545 21.4443 17.0035 21.2163 18.4126C20.9883 19.8217 21.0455 21.2622 21.3845 22.6488C21.7365 24.5873 22.7707 26.3357 24.2999 27.5777C25.8292 28.8197 27.7526 29.4733 29.722 29.4203C29.9922 29.3613 30.272 29.3613 30.5423 29.4203C30.6318 29.4203 30.7959 29.4203 30.9003 29.4203C32.1167 29.3046 33.2861 28.8919 34.3056 28.2183C35.3251 27.5447 36.1635 26.6309 36.747 25.5573C37.4555 24.3162 37.9124 22.9476 38.0915 21.5297C38.2706 20.1119 38.1685 18.6727 37.791 17.2943C37.5544 16.1785 37.0889 15.1239 36.424 14.1972C35.7591 13.2704 34.9092 12.4916 33.928 11.91ZM33.6595 25.6766C33.2865 26.5817 32.6466 27.3517 31.825 27.884C31.0171 28.4228 30.036 28.6376 29.0769 28.4856C28.1178 28.3335 27.2511 27.8259 26.6495 27.0637C25.6852 25.9061 25.0514 24.5096 24.8149 23.0217C24.2285 20.3834 24.4467 17.6298 25.4414 15.1167C25.8095 14.0946 26.4426 13.1887 27.2759 12.4917C28.0791 11.8316 29.1115 11.5174 30.1463 11.6181C31.1811 11.7187 32.1336 12.2261 32.7945 13.0286L32.9884 13.2822C33.9554 14.5255 34.5594 16.0122 34.7334 17.5777C34.9124 18.4577 34.9124 19.2184 35.0019 19.6807C35.0456 21.7585 34.585 23.8158 33.6595 25.6766Z" fill="#0065FF"/>
<path d="M44.2789 3.39702C44.2789 3.12855 44.2789 3.03906 43.9209 3.03906H38.0593V3.94888C38.7218 4.08317 39.4011 4.11336 40.0729 4.03837C40.3577 4.12475 40.6136 4.28697 40.8133 4.50767C41.013 4.72837 41.1489 4.99922 41.2064 5.29123C41.3107 5.69112 41.3707 6.10126 41.3854 6.51427C41.3854 9.79557 41.3854 12.9277 41.2959 16.1643C41.2959 17.9243 41.2064 19.5947 41.2064 21.3547C41.2064 23.6815 41.2064 26.1424 41.2064 28.5139V28.8719H44.0701C44.5175 28.8719 44.5175 28.8719 44.5175 28.4244C44.5175 24.1289 44.428 19.7439 44.428 15.344C44.2789 11.4064 44.2789 7.439 44.2789 3.39702Z" fill="#0065FF"/>
<path d="M89.815 10.7687C89.5316 10.7687 89.4571 10.7687 89.3676 11.0371C89.0096 12.1707 88.6666 13.3191 88.2191 14.4527C86.8171 17.8981 85.3256 21.1794 83.7446 24.5502C83.7446 24.5502 83.7446 24.6397 83.5656 24.7291C83.5222 24.605 83.4672 24.4852 83.4016 24.3712C81.9996 20.9556 80.5081 17.4506 79.106 14.0202C78.8786 13.3436 78.7824 12.6298 78.8226 11.9171V10.7687H73.8858C73.0655 10.7687 73.1848 10.6792 73.1848 11.4697V11.5592C73.1848 11.5592 73.2743 11.7382 73.3488 11.7382C73.7967 11.7984 74.2205 11.9765 74.5769 12.2543C74.9333 12.5321 75.2095 12.8995 75.3773 13.3191C75.6308 13.9307 75.8098 14.4527 76.0783 15.0791C78.0023 19.5536 79.8518 24.0281 81.6863 28.4132C81.7305 28.509 81.7534 28.6133 81.7534 28.7189C81.7534 28.8245 81.7305 28.9288 81.6863 29.0247C81.4608 29.4136 81.2854 29.8296 81.1643 30.2626C80.8063 31.1426 80.4633 32.0077 80.1053 32.7982C79.83 33.3545 79.3643 33.7937 78.7928 34.0361C77.8933 34.4686 76.8933 34.649 75.8993 34.5582C75.2878 34.5582 74.6763 34.4687 74.0648 34.4687C73.4532 34.4687 73.5278 34.5581 73.7068 35.0802C73.9753 35.0802 74.1542 35.1697 74.3183 35.1697C75.2878 35.1697 76.2424 35.2592 77.1223 35.2592C77.5915 35.2744 78.061 35.2444 78.5243 35.1697C79.0666 35.0847 79.575 34.8518 79.9934 34.4965C80.4118 34.1413 80.7241 33.6775 80.8958 33.1561C82.2084 30.4267 83.4463 27.5332 84.7588 24.7291C86.3995 20.8662 88.2639 16.9137 90.0238 13.0507C90.3818 12.4392 90.7248 11.8276 91.0679 11.1266C90.5906 11.1266 90.1581 11.2161 89.815 10.7687Z" fill="#0065FF"/>
<path d="M71.0517 11.5587C69.0889 10.9766 67.0401 10.7395 64.9962 10.8577C63.8048 10.9591 62.6534 11.3368 61.6333 11.9607C60.6133 12.5847 59.7527 13.4377 59.1197 14.4522C58.2103 15.8247 57.6541 17.4007 57.5006 19.04C57.347 20.6793 57.601 22.3311 58.2397 23.8487C58.6509 25.078 59.3522 26.1902 60.2842 27.0911C61.2162 27.9919 62.3516 28.655 63.5942 29.0242C66.0983 29.6901 68.7526 29.5065 71.1412 28.5021C71.2307 28.5021 71.3053 28.3232 71.3053 28.2337V27.1001C71.146 27.1005 70.9922 27.1588 70.8727 27.2642C69.348 27.8875 67.6797 28.0735 66.0552 27.8011C64.981 27.6277 63.9794 27.1487 63.1701 26.4214C62.3608 25.6941 61.7779 24.7492 61.4912 23.6995C60.9221 21.9446 60.7041 20.0947 60.8498 18.2555C60.9568 16.9914 61.2955 15.7577 61.8492 14.6162C62.1715 13.8287 62.7118 13.1494 63.4066 12.658C64.1013 12.1666 64.9218 11.8836 65.7718 11.8421C66.5036 11.6923 67.2648 11.8391 67.8885 12.2502C68.5121 12.6613 68.947 13.303 69.0979 14.0346C69.2422 14.4904 69.3372 14.9604 69.3812 15.4366C69.3812 15.705 69.4707 15.7945 69.7392 15.7945H71.0517C71.1127 15.7988 71.173 15.7795 71.2201 15.7407C71.2673 15.7018 71.2978 15.6464 71.3053 15.5857V11.8421C71.2904 11.7376 71.2158 11.6482 71.0517 11.5587Z" fill="#0065FF"/>
<path d="M48.6792 11.2188V12.0242H49.5592C49.7977 12.0065 50.0372 12.0422 50.2602 12.1286C50.6187 12.1673 50.9533 12.3275 51.2083 12.5825C51.4633 12.8375 51.6235 13.172 51.6622 13.5306C51.6622 13.9631 51.7517 14.3957 51.7517 14.7536C51.7517 16.6777 51.6622 18.6166 51.6622 20.4959C51.6622 23.0464 51.5727 25.5968 51.5727 28.1324V28.9527H55.0032C54.9137 23.0762 54.9137 17.1102 54.8242 11.2337L48.6792 11.2188Z" fill="#0065FF"/>
<path d="M54.8092 4.71094H51.6472V7.78343H54.8092V4.71094Z" fill="#0065FF"/>
<path d="M227.57 38.9581C238.328 38.9581 247.049 30.237 247.049 19.479C247.049 8.72106 238.328 0 227.57 0C216.812 0 208.091 8.72106 208.091 19.479C208.091 30.237 216.812 38.9581 227.57 38.9581Z" fill="#0065FF"/>
<path d="M226.69 23.0926C226.452 23.6002 226.124 24.0602 225.721 24.4499C225.36 24.8021 224.935 25.0808 224.468 25.2702C223.837 25.5964 223.103 25.6607 222.425 25.4492C222.14 25.3544 221.881 25.1964 221.667 24.9872C221.452 24.7779 221.288 24.5229 221.187 24.2411C221.044 23.9022 220.987 23.5332 221.022 23.1672C221.053 22.8248 221.171 22.496 221.366 22.2126C221.563 21.928 221.799 21.672 222.067 21.452C222.395 21.2282 222.738 21.0194 223.081 20.8255C223.787 20.4531 224.457 20.0135 225.079 19.513L224.945 19.1998C224.887 19.0042 224.79 18.8225 224.659 18.666C224.528 18.5096 224.367 18.3816 224.184 18.29C223.683 18.1675 223.155 18.2256 222.693 18.454C222.237 18.5993 221.84 18.8868 221.559 19.2744C221.35 19.6784 221.292 20.1438 221.395 20.5869L220.128 20.915C220.019 20.4238 220.019 19.9147 220.128 19.4235C220.278 18.97 220.552 18.5673 220.918 18.2602C221.361 17.8726 221.865 17.5603 222.41 17.3354C222.915 17.1126 223.455 16.9764 224.005 16.9327C224.369 16.9142 224.731 16.9806 225.064 17.1266C225.356 17.2987 225.605 17.533 225.795 17.8127C225.994 18.1609 226.164 18.5251 226.302 18.9015L226.974 20.5422C227.251 21.2682 227.575 21.9756 227.943 22.6601C228.116 22.941 228.339 23.1885 228.599 23.3909L227.332 23.9129C227.068 23.6824 226.85 23.4041 226.69 23.0926ZM225.467 20.4079C224.919 20.8997 224.319 21.3299 223.677 21.6906C223.328 21.8743 223.003 22.0997 222.708 22.3618C222.547 22.5254 222.438 22.733 222.395 22.9584C222.32 23.1758 222.32 23.4121 222.395 23.6296C222.455 23.7847 222.549 23.9243 222.67 24.0379C222.791 24.1516 222.937 24.2363 223.096 24.2858C223.499 24.4035 223.932 24.3608 224.304 24.1665C224.75 24.002 225.142 23.7182 225.437 23.3462C225.711 23.0125 225.868 22.5989 225.885 22.1679C225.871 21.7232 225.764 21.2863 225.572 20.8852L225.467 20.4079Z" fill="white"/>
<path d="M234.028 18.3979L235.341 18.0399C235.457 18.7856 235.315 19.5486 234.938 20.2026C234.523 20.8903 233.887 21.4164 233.133 21.6941C232.682 21.9007 232.191 22.0076 231.694 22.0076C231.197 22.0076 230.706 21.9007 230.255 21.6941C229.282 21.2167 228.538 20.3753 228.181 19.3524C227.691 18.3591 227.611 17.2127 227.958 16.1606C228.127 15.7031 228.394 15.2877 228.739 14.9428C229.083 14.5978 229.499 14.3315 229.956 14.162C230.389 13.9626 230.86 13.8594 231.336 13.8594C231.812 13.8594 232.283 13.9626 232.716 14.162C233.68 14.6624 234.413 15.5181 234.759 16.5484L234.893 16.8765L229.539 19.069C229.838 19.7313 230.368 20.2616 231.03 20.5605C231.309 20.6787 231.608 20.7396 231.91 20.7396C232.213 20.7396 232.512 20.6787 232.79 20.5605C233.2 20.3962 233.549 20.1098 233.79 19.7402C233.981 19.32 234.063 18.8583 234.028 18.3979ZM229.226 18.0846L233.223 16.444C233.013 15.9568 232.659 15.5456 232.209 15.2657C231.938 15.1125 231.635 15.0247 231.324 15.0091C231.014 14.9936 230.703 15.0508 230.419 15.1762C230.154 15.2791 229.912 15.4337 229.707 15.6308C229.502 15.828 229.339 16.0638 229.226 16.3247C229.017 16.8927 229.017 17.5166 229.226 18.0846Z" fill="white"/>
</g>
<defs>
<clipPath id="clip0_16207_26876">
<rect width="246.098" height="38.9581" fill="white" transform="translate(0.950928)"/>
</clipPath>
</defs>
</svg>
