<svg width="60" height="42" viewBox="0 0 60 42" fill="none" xmlns="http://www.w3.org/2000/svg">
<path d="M6.96006 0.523438C3.44068 0.523438 0.560059 3.40406 0.560059 6.92344V35.0834C0.560059 38.6028 3.44068 41.4834 6.96006 41.4834H53.0401C56.5594 41.4834 59.4401 38.6028 59.4401 35.0834V6.92344C59.4401 3.40406 56.5594 0.523438 53.0401 0.523438H6.96006ZM6.96006 3.08344H53.0401C55.1757 3.08344 56.8801 4.78778 56.8801 6.92344V35.0834C56.8801 37.2191 55.1757 38.9234 53.0401 38.9234H6.96006C4.8244 38.9234 3.12006 37.2191 3.12006 35.0834V6.92344C3.12006 4.78778 4.8244 3.08344 6.96006 3.08344ZM18.4851 6.92344C18.3098 6.92234 18.1363 6.95723 17.9751 7.02594L9.01506 10.8659C8.70277 10.9999 8.45647 11.2524 8.33035 11.5679C8.20423 11.8834 8.20862 12.2361 8.34256 12.5484C8.47649 12.8607 8.729 13.107 9.04453 13.2331C9.36006 13.3593 9.71277 13.3549 10.0251 13.2209L18.4801 9.59594L26.9351 13.2209C27.2474 13.3549 27.6001 13.3593 27.9156 13.2331C28.2311 13.107 28.4836 12.8607 28.6176 12.5484C28.7515 12.2361 28.7559 11.8834 28.6298 11.5679C28.5036 11.2524 28.2574 10.9999 27.9451 10.8659L18.9851 7.02594C18.827 6.95855 18.6569 6.9237 18.4851 6.92344ZM33.8401 12.0434C33.6704 12.041 33.502 12.0724 33.3446 12.1356C33.1872 12.1989 33.044 12.2928 32.9232 12.4119C32.8024 12.531 32.7065 12.6729 32.641 12.8294C32.5755 12.9859 32.5418 13.1538 32.5418 13.3234C32.5418 13.4931 32.5755 13.661 32.641 13.8175C32.7065 13.974 32.8024 14.1159 32.9232 14.235C33.044 14.3541 33.1872 14.448 33.3446 14.5112C33.502 14.5745 33.6704 14.6058 33.8401 14.6034H50.4801C50.6497 14.6058 50.8181 14.5745 50.9755 14.5112C51.1329 14.448 51.2761 14.3541 51.3969 14.235C51.5177 14.1159 51.6136 13.974 51.6791 13.8175C51.7446 13.661 51.7783 13.4931 51.7783 13.3234C51.7783 13.1538 51.7446 12.9859 51.6791 12.8294C51.6136 12.6729 51.5177 12.531 51.3969 12.4119C51.2761 12.2928 51.1329 12.1989 50.9755 12.1356C50.8181 12.0724 50.6497 12.041 50.4801 12.0434H33.8401ZM26.3451 15.8834C24.9921 15.8834 22.6849 17.5016 22.2101 18.0084L19.7826 20.4359L11.1501 19.2684C11.0374 19.2531 10.9244 19.299 10.8451 19.3809L9.62006 20.6384C9.53558 20.7242 9.50696 20.8469 9.53256 20.9659C9.55816 21.0837 9.63242 21.1799 9.74506 21.2234L16.3976 23.8309L12.9701 27.3259H11.3176C11.2318 27.3259 11.1466 27.3596 11.0826 27.4159L9.64506 28.6284C9.54266 28.7155 9.50184 28.8579 9.53256 28.9884C9.56328 29.119 9.6595 29.2252 9.79006 29.2584L13.2176 30.1034L14.0626 33.5309C14.0933 33.6525 14.1872 33.75 14.3076 33.7884C14.4266 33.8268 14.5516 33.7929 14.6451 33.7109L15.8701 32.6334C15.9469 32.5643 15.9951 32.4633 15.9951 32.3609V30.3609L19.5226 26.9209L22.0976 33.5734C22.1411 33.6861 22.2373 33.7628 22.3551 33.7884C22.3807 33.7936 22.4107 33.7984 22.4351 33.7984C22.5272 33.7984 22.6122 33.765 22.6801 33.6984L23.9401 32.4734C24.022 32.3928 24.0679 32.2836 24.0526 32.1709L22.8826 23.5384L25.3126 21.1084C25.8105 20.6105 28.2472 17.318 27.1426 16.1634C26.948 15.9778 26.6779 15.8834 26.3451 15.8834ZM33.8401 17.1634C33.6704 17.161 33.502 17.1924 33.3446 17.2556C33.1872 17.3189 33.044 17.4128 32.9232 17.5319C32.8024 17.651 32.7065 17.7929 32.641 17.9494C32.5755 18.1059 32.5418 18.2738 32.5418 18.4434C32.5418 18.6131 32.5755 18.781 32.641 18.9375C32.7065 19.094 32.8024 19.2359 32.9232 19.355C33.044 19.4741 33.1872 19.568 33.3446 19.6313C33.502 19.6945 33.6704 19.7258 33.8401 19.7234H46.6401C46.8097 19.7258 46.9781 19.6945 47.1355 19.6313C47.2929 19.568 47.4361 19.4741 47.5569 19.355C47.6777 19.2359 47.7736 19.094 47.8391 18.9375C47.9046 18.781 47.9383 18.6131 47.9383 18.4434C47.9383 18.2738 47.9046 18.1059 47.8391 17.9494C47.7736 17.7929 47.6777 17.651 47.5569 17.5319C47.4361 17.4128 47.2929 17.3189 47.1355 17.2556C46.9781 17.1924 46.8097 17.161 46.6401 17.1634H33.8401ZM33.8401 22.2834C33.6704 22.281 33.502 22.3124 33.3446 22.3756C33.1872 22.4389 33.044 22.5328 32.9232 22.6519C32.8024 22.771 32.7065 22.9129 32.641 23.0694C32.5755 23.2259 32.5418 23.3938 32.5418 23.5634C32.5418 23.7331 32.5755 23.901 32.641 24.0575C32.7065 24.214 32.8024 24.3559 32.9232 24.475C33.044 24.5941 33.1872 24.688 33.3446 24.7512C33.502 24.8145 33.6704 24.8458 33.8401 24.8434H50.4801C50.6497 24.8458 50.8181 24.8145 50.9755 24.7512C51.1329 24.688 51.2761 24.5941 51.3969 24.475C51.5177 24.3559 51.6136 24.214 51.6791 24.0575C51.7446 23.901 51.7783 23.7331 51.7783 23.5634C51.7783 23.3938 51.7446 23.2259 51.6791 23.0694C51.6136 22.9129 51.5177 22.771 51.3969 22.6519C51.2761 22.5328 51.1329 22.4389 50.9755 22.3756C50.8181 22.3124 50.6497 22.281 50.4801 22.2834H33.8401ZM33.8401 27.4034C33.6704 27.401 33.502 27.4324 33.3446 27.4956C33.1872 27.5589 33.044 27.6528 32.9232 27.7719C32.8024 27.891 32.7065 28.0329 32.641 28.1894C32.5755 28.3459 32.5418 28.5138 32.5418 28.6834C32.5418 28.8531 32.5755 29.021 32.641 29.1775C32.7065 29.334 32.8024 29.4759 32.9232 29.595C33.044 29.7141 33.1872 29.808 33.3446 29.8713C33.502 29.9345 33.6704 29.9658 33.8401 29.9634H46.6401C46.8097 29.9658 46.9781 29.9345 47.1355 29.8713C47.2929 29.808 47.4361 29.7141 47.5569 29.595C47.6777 29.4759 47.7736 29.334 47.8391 29.1775C47.9046 29.021 47.9383 28.8531 47.9383 28.6834C47.9383 28.5138 47.9046 28.3459 47.8391 28.1894C47.7736 28.0329 47.6777 27.891 47.5569 27.7719C47.4361 27.6528 47.2929 27.5589 47.1355 27.4956C46.9781 27.4324 46.8097 27.401 46.6401 27.4034H33.8401Z" fill="black"/>
</svg>
