<svg width="158" height="120" viewBox="0 0 158 120" fill="none" xmlns="http://www.w3.org/2000/svg">
<circle cx="13.6456" cy="25.1378" r="3.59091" fill="#EAEEF9"/>
<circle cx="6.46364" cy="87.6199" r="6.46364" fill="#EAEEF9"/>
<circle cx="147.227" cy="20.106" r="4.30909" fill="#EAEEF9"/>
<circle cx="79" cy="57.4545" r="57.4545" fill="#EAEEF9"/>
<g filter="url(#filter0_dd_10105_43703)">
<rect x="19.3911" y="15.7969" width="119.218" height="74.6909" rx="4.30909" fill="#FAFAFA"/>
<rect x="29" y="33" width="100" height="37" rx="3.41133" fill="#D5DDEA"/>
<path d="M29.4961 79.1979C29.4961 78.2386 30.2738 77.4609 31.2331 77.4609H48.6031C49.5624 77.4609 50.3401 78.2386 50.3401 79.1979C50.3401 80.1573 49.5624 80.9349 48.6031 80.9349H31.2331C30.2738 80.9349 29.4961 80.1573 29.4961 79.1979Z" fill="#D5DDEA"/>
<path d="M55.5511 79.1979C55.5511 78.2386 56.3287 77.4609 57.2881 77.4609H74.658C75.6174 77.4609 76.395 78.2386 76.395 79.1979C76.395 80.1573 75.6174 80.9349 74.658 80.9349H57.2881C56.3287 80.9349 55.5511 80.1573 55.5511 79.1979Z" fill="#D5DDEA"/>
<path d="M81.606 79.1979C81.606 78.2386 82.3837 77.4609 83.343 77.4609H100.713C101.672 77.4609 102.45 78.2386 102.45 79.1979C102.45 80.1573 101.672 80.9349 100.713 80.9349H83.343C82.3837 80.9349 81.606 80.1573 81.606 79.1979Z" fill="#D5DDEA"/>
<path d="M107.661 79.1979C107.661 78.2386 108.439 77.4609 109.398 77.4609H126.768C127.727 77.4609 128.505 78.2386 128.505 79.1979C128.505 80.1573 127.727 80.9349 126.768 80.9349H109.398C108.439 80.9349 107.661 80.1573 107.661 79.1979Z" fill="#D5DDEA"/>
</g>
<circle cx="150.1" cy="2.87273" r="2.87273" fill="#EAEEF9"/>
<defs>
<filter id="filter0_dd_10105_43703" x="5.02748" y="15.7969" width="147.946" height="103.415" filterUnits="userSpaceOnUse" color-interpolation-filters="sRGB">
<feFlood flood-opacity="0" result="BackgroundImageFix"/>
<feColorMatrix in="SourceAlpha" type="matrix" values="0 0 0 0 0 0 0 0 0 0 0 0 0 0 0 0 0 0 127 0" result="hardAlpha"/>
<feMorphology radius="2.87273" operator="erode" in="SourceAlpha" result="effect1_dropShadow_10105_43703"/>
<feOffset dy="5.74545"/>
<feGaussianBlur stdDeviation="2.87273"/>
<feColorMatrix type="matrix" values="0 0 0 0 0.0627451 0 0 0 0 0.0941176 0 0 0 0 0.156863 0 0 0 0.03 0"/>
<feBlend mode="normal" in2="BackgroundImageFix" result="effect1_dropShadow_10105_43703"/>
<feColorMatrix in="SourceAlpha" type="matrix" values="0 0 0 0 0 0 0 0 0 0 0 0 0 0 0 0 0 0 127 0" result="hardAlpha"/>
<feMorphology radius="2.87273" operator="erode" in="SourceAlpha" result="effect2_dropShadow_10105_43703"/>
<feOffset dy="14.3636"/>
<feGaussianBlur stdDeviation="8.61818"/>
<feColorMatrix type="matrix" values="0 0 0 0 0.0627451 0 0 0 0 0.0941176 0 0 0 0 0.156863 0 0 0 0.08 0"/>
<feBlend mode="normal" in2="effect1_dropShadow_10105_43703" result="effect2_dropShadow_10105_43703"/>
<feBlend mode="normal" in="SourceGraphic" in2="effect2_dropShadow_10105_43703" result="shape"/>
</filter>
</defs>
</svg>
