<svg width="408" height="375" viewBox="0 0 408 375" fill="none" xmlns="http://www.w3.org/2000/svg">
<g id="Wallet is Empty">
<path id="Stroke 3" d="M188.058 50.6484C146.29 54.1842 130.939 89.5378 143.515 110.146C152.389 124.686 167.426 144.336 195.456 139.623C223.485 134.908 225.846 108.968 211.085 105.44C196.323 101.912 143.735 118.368 149.678 156.385C153.968 183.815 191.155 191.722 191.155 191.722" stroke="#DCDCE2" stroke-width="1.08491" stroke-dasharray="3.8"/>
<path id="Fill 5" fill-rule="evenodd" clip-rule="evenodd" d="M212.2 28.9381C212.2 28.9381 218.185 13.3038 218.816 7.22187C219.148 4.04389 213.881 -4.80434 207.718 3.38027C201.554 11.5649 204.366 21.6002 212.2 28.9381Z" fill="#DCDCE2"/>
<path id="Fill 7" fill-rule="evenodd" clip-rule="evenodd" d="M190.961 11.911C183.95 9.53995 180.776 11.3886 179.424 15.0786C178.07 18.7698 179.959 25.7958 190.534 27.3974C201.11 28.999 211.595 28.9376 211.595 28.9376C211.595 28.9376 197.973 14.2821 190.961 11.911Z" fill="#DCDCE2"/>
<path id="Fill 9" fill-rule="evenodd" clip-rule="evenodd" d="M211.013 32.0327C211.172 31.3792 211.383 30.7528 211.617 30.1406C210.323 30.3451 209.005 30.6323 207.68 31.0211C206.242 31.4418 204.9 31.9937 203.638 32.626C203.09 33.6612 202.646 34.7674 202.358 35.9551C200.581 43.267 204.775 50.6367 211.823 53.05C212.586 52.8987 213.353 52.7238 214.121 52.4992C216.267 51.8705 218.247 51.0385 220.037 50.0742C213.154 47.0547 209.193 39.5195 211.013 32.0327Z" fill="#DCDCE2"/>
<path id="Fill 11" fill-rule="evenodd" clip-rule="evenodd" d="M200.95 35.838C201.118 35.1156 201.347 34.4249 201.6 33.75C195.503 37.656 192.089 43.718 192.652 47.2531C188.756 48.9276 186.274 50.3382 186.274 50.3382C186.274 50.3382 189.214 50.1145 193.497 49.2912C195.791 52.6439 202.151 54.8887 209.184 54.0837C202.813 50.7894 199.218 43.2924 200.95 35.838Z" fill="#DCDCE2"/>
<path id="Fill 13" fill-rule="evenodd" clip-rule="evenodd" d="M220.95 38.6463C219.443 38.2833 218.509 36.7636 218.872 35.2416C219.234 33.7301 220.757 32.7934 222.263 33.1565C223.776 33.5218 224.701 35.0473 224.341 36.56C223.977 38.0808 222.465 39.0105 220.95 38.6463ZM213.909 30.2715C213.609 30.9691 213.354 31.7051 213.172 32.4673C211.573 39.1499 215.265 45.8719 221.527 48.2035C226.751 44.9389 229.685 40.3162 228.495 36.3025C227.171 31.8004 221.087 29.4754 213.909 30.2715Z" fill="#DCDCE2"/>
<path id="Fill 15" fill-rule="evenodd" clip-rule="evenodd" d="M125.69 312.289H275.84C279.647 312.289 282.734 309.194 282.734 305.378V204.669C282.734 200.843 279.639 197.742 275.824 197.742H122.047C120.226 197.742 118.751 199.221 118.751 201.045V305.333C118.751 309.175 121.857 312.289 125.69 312.289Z" fill="#F1F2F7"/>
<path id="Fill 19" fill-rule="evenodd" clip-rule="evenodd" d="M244.982 268.891H292.129C292.268 268.891 292.382 268.776 292.382 268.634V240.211C292.382 240.069 292.268 239.953 292.129 239.953H244.982C241.195 239.953 238.123 243.062 238.123 246.895V261.949C238.123 265.784 241.195 268.891 244.982 268.891Z" fill="url(#paint0_linear_7613_43635)"/>
<path id="Fill 23" fill-rule="evenodd" clip-rule="evenodd" d="M261.032 254.419C261.032 257.749 258.333 260.448 255.003 260.448C251.673 260.448 248.974 257.749 248.974 254.419C248.974 251.089 251.673 248.391 255.003 248.391C258.333 248.391 261.032 251.089 261.032 254.419Z" fill="#FEFEFF"/>
<path id="Stroke 25" d="M13.853 224.273V227.891" stroke="#D2D8DF" stroke-width="1.5845" stroke-linecap="round"/>
<path id="Stroke 27" d="M6.6162 227.883L9.02771 230.294" stroke="#D2D8DF" stroke-width="1.5845" stroke-linecap="round"/>
<path id="Stroke 29" d="M3 235.125H6.61726" stroke="#D2D8DF" stroke-width="1.5845" stroke-linecap="round"/>
<path id="Stroke 31" d="M6.6162 242.365L9.02771 239.953" stroke="#D2D8DF" stroke-width="1.5845" stroke-linecap="round"/>
<path id="Stroke 33" d="M13.853 245.961V242.344" stroke="#D2D8DF" stroke-width="1.5845" stroke-linecap="round"/>
<path id="Stroke 35" d="M21.0876 242.365L18.6761 239.953" stroke="#D2D8DF" stroke-width="1.5845" stroke-linecap="round"/>
<path id="Stroke 37" d="M24.7026 235.125H21.0854" stroke="#D2D8DF" stroke-width="1.5845" stroke-linecap="round"/>
<path id="Stroke 39" d="M21.0876 227.883L18.6761 230.294" stroke="#D2D8DF" stroke-width="1.5845" stroke-linecap="round"/>
<path id="Stroke 41" d="M199.537 75.9609V78.3724" stroke="#D2D8DF" stroke-width="1.5845" stroke-linecap="round"/>
<path id="Stroke 43" d="M193.509 82.0078H195.92" stroke="#D2D8DF" stroke-width="1.5845" stroke-linecap="round"/>
<path id="Stroke 45" d="M199.537 89.224V86.8125" stroke="#D2D8DF" stroke-width="1.5845" stroke-linecap="round"/>
<path id="Stroke 47" d="M206.773 83.2031H204.362" stroke="#D2D8DF" stroke-width="1.5845" stroke-linecap="round"/>
<path id="Stroke 49" d="M66.9044 171.234V174.852" stroke="#D2D8DF" stroke-width="1.5845" stroke-linecap="round"/>
<path id="Stroke 51" d="M56.0537 182.062H59.671" stroke="#D2D8DF" stroke-width="1.5845" stroke-linecap="round"/>
<path id="Stroke 53" d="M65.6976 191.703V188.086" stroke="#D2D8DF" stroke-width="1.5845" stroke-linecap="round"/>
<path id="Stroke 55" d="M76.5517 182.062H72.9344" stroke="#D2D8DF" stroke-width="1.5845" stroke-linecap="round"/>
<path id="Stroke 57" d="M312.878 297.82C315.542 297.82 317.701 299.98 317.701 302.644C317.701 305.307 315.542 307.466 312.878 307.466C310.215 307.466 308.055 305.307 308.055 302.644" stroke="#D2D8DF" stroke-width="1.5845" stroke-linecap="round"/>
<path id="Stroke 59" d="M335.707 363.586C336.323 367.892 333.346 371.883 329.062 372.5C324.779 373.118 320.807 370.127 320.193 365.822C319.579 361.515 322.554 357.523 326.839 356.906" stroke="#D2D8DF" stroke-width="1.5845" stroke-linecap="round"/>
<path id="Fill 61" fill-rule="evenodd" clip-rule="evenodd" d="M335.789 252.002C338.713 251.078 343.192 247.458 344.23 243.562C345.17 247.006 349.112 251.078 352.67 251.387C348.666 252.824 344.837 257.092 344.23 260.443C343.816 257.026 338.522 252.5 335.789 252.002Z" fill="#EBECEF"/>
<path id="Fill 63" fill-rule="evenodd" clip-rule="evenodd" d="M33.1453 296.016C34.6075 295.555 36.8472 293.744 37.366 291.797C37.8359 293.518 39.8062 295.555 41.5856 295.709C39.5831 296.427 37.669 298.561 37.366 300.237C37.1585 298.529 34.5121 296.265 33.1453 296.016Z" fill="#EBECEF"/>
<path id="Fill 65" fill-rule="evenodd" clip-rule="evenodd" d="M59.672 136.25C59.672 138.249 58.0522 139.867 56.0548 139.867C54.0562 139.867 52.4375 138.249 52.4375 136.25C52.4375 134.252 54.0562 132.633 56.0548 132.633C58.0522 132.633 59.672 134.252 59.672 136.25Z" fill="#D1D9E0"/>
<path id="Fill 69" fill-rule="evenodd" clip-rule="evenodd" d="M406.928 129.018C406.928 131.683 404.769 133.841 402.106 133.841C399.441 133.841 397.282 131.683 397.282 129.018C397.282 126.354 399.441 124.195 402.106 124.195C404.769 124.195 406.928 126.354 406.928 129.018Z" fill="#EBECEF"/>
<path id="Stroke 73" fill-rule="evenodd" clip-rule="evenodd" d="M129.604 110.914C129.604 112.913 127.984 114.531 125.987 114.531C123.988 114.531 122.37 112.913 122.37 110.914C122.37 108.916 123.988 107.297 125.987 107.297C127.984 107.297 129.604 108.916 129.604 110.914Z" stroke="#D2D8DF" stroke-width="1.5845" stroke-linecap="round"/>
<path id="Stroke 75" fill-rule="evenodd" clip-rule="evenodd" d="M73.442 339.705C70.953 340.652 68.1683 339.402 67.2214 336.913C66.2733 334.424 67.5244 331.639 70.0134 330.692C72.5024 329.744 75.2871 330.995 76.234 333.484C77.181 335.973 75.931 338.758 73.442 339.705Z" stroke="#D2D8DF" stroke-width="1.5845" stroke-linecap="round"/>
</g>
<defs>
<linearGradient id="paint0_linear_7613_43635" x1="265.253" y1="225.484" x2="241.221" y2="270.543" gradientUnits="userSpaceOnUse">
<stop stop-color="#FF8960"/>
<stop offset="1" stop-color="#FF62A5"/>
</linearGradient>
</defs>
</svg>
