<svg width="23" height="23" viewBox="0 0 23 23" fill="none" xmlns="http://www.w3.org/2000/svg">
<path d="M16.0013 4.52344L18.257 6.86506C18.4721 7.10156 18.6653 7.59588 18.6653 7.91763V14.8573C18.6653 15.1797 18.4075 15.4801 18.0638 15.4801H14.046V14.4276H17.4189C17.5261 14.4276 17.6121 14.3416 17.6121 14.2344V8.39063C17.6121 8.28338 17.5261 8.19744 17.4189 8.19744H14.9267C14.8195 8.19744 14.7115 8.1115 14.7115 8.00425V5.34019C14.7115 5.23294 14.6256 5.147 14.5183 5.147H10.436C10.3287 5.147 10.2208 5.23294 10.2208 5.34019V6.82244C10.0056 6.7365 9.72645 6.69319 9.51195 6.69319H9.18952V4.69531C9.18952 4.35156 9.46864 4.09375 9.79108 4.09375H14.9906C15.3131 4.09375 15.7861 4.28694 16.0013 4.52344ZM15.9586 7.14419H16.8613C16.9686 7.14419 16.9906 7.07956 16.926 6.99363L15.8947 5.94106C15.8301 5.85513 15.7655 5.87644 15.7655 5.98438V6.951C15.7655 7.05825 15.8514 7.14419 15.9586 7.14419ZM10.5446 7.96094L12.779 10.3246C13.0155 10.5611 13.1873 11.0334 13.1873 11.3558V18.2954C13.1873 18.6392 12.9295 18.9183 12.6071 18.9183H4.33577C3.99202 18.9183 3.71289 18.6392 3.71289 18.2954V8.1335C3.71289 7.81106 3.99202 7.51063 4.33577 7.51063H9.51333C9.83577 7.51063 10.3081 7.72581 10.5446 7.96163V7.96094ZM4.95864 17.8651H11.9409C12.0481 17.8651 12.1561 17.7791 12.1561 17.6719V11.8281C12.1561 11.7209 12.0488 11.6349 11.9409 11.6349H9.4487C9.34145 11.6349 9.25552 11.549 9.25552 11.4418V8.77769C9.25552 8.67044 9.16958 8.5845 9.06233 8.5845H4.95864C4.85139 8.5845 4.76545 8.67044 4.76545 8.77769V17.6726C4.76545 17.7798 4.85139 17.8651 4.95864 17.8651ZM11.4466 10.4531L10.4366 9.35725C10.3507 9.27131 10.2861 9.33594 10.2861 9.44319V10.3885C10.2861 10.4958 10.3933 10.5817 10.5013 10.5817H11.382C11.4892 10.5817 11.5325 10.5178 11.4466 10.4531Z" fill="#FF4F4F"/>
</svg>
