<svg xmlns="http://www.w3.org/2000/svg" width="36" height="35" viewBox="0 0 36 35" fill="none">
  <path opacity="0.2" d="M27.5014 20.7275L22.518 25.7109C22.3822 25.8379 22.2176 25.9301 22.0384 25.9797C21.8591 26.0292 21.6706 26.0346 21.4888 25.9953L13.6346 24.0317C13.4911 23.9918 13.3574 23.9226 13.2418 23.8286L5.83447 18.0463L10.2491 9.74512L17.1961 7.71385C17.4429 7.64306 17.7069 7.66226 17.9409 7.76802L22.6263 9.89408H19.8232C19.6825 9.89359 19.5431 9.92085 19.413 9.97429C19.2829 10.0277 19.1645 10.1063 19.0648 10.2055L13.7564 15.5004C13.648 15.6117 13.5645 15.7447 13.5114 15.8907C13.4583 16.0366 13.4368 16.1922 13.4483 16.3471C13.4598 16.502 13.5041 16.6527 13.5782 16.7892C13.6524 16.9257 13.7547 17.0449 13.8783 17.139L14.6096 17.6942C15.3605 18.2547 16.2725 18.5575 17.2096 18.5575C18.1467 18.5575 19.0587 18.2547 19.8096 17.6942L21.543 16.3942L27.5014 20.7275Z" fill="#A4A4A4"/>
  <path d="M33.0132 16.5134L29.6683 18.179L25.335 9.89144L28.7204 8.19872C28.972 8.07047 29.2641 8.0469 29.533 8.13315C29.8019 8.2194 30.0258 8.40848 30.1559 8.65914L33.4871 15.0373C33.5547 15.165 33.596 15.3049 33.6087 15.4488C33.6214 15.5927 33.6052 15.7377 33.561 15.8752C33.5169 16.0127 33.4457 16.14 33.3516 16.2496C33.2575 16.3592 33.1424 16.4489 33.0132 16.5134V16.5134Z" stroke="#A4A4A4" stroke-width="2.16669" stroke-linecap="round" stroke-linejoin="round"/>
  <path d="M5.83445 18.0447L2.48962 16.3655C2.36083 16.3023 2.24605 16.214 2.1521 16.1056C2.05815 15.9972 1.98695 15.8711 1.94273 15.7346C1.89852 15.5982 1.88219 15.4543 1.89471 15.3114C1.90724 15.1685 1.94837 15.0296 2.01566 14.9029L5.34694 8.52475C5.47726 8.27427 5.70022 8.08456 5.96833 7.99603C6.23645 7.90751 6.52853 7.92715 6.78238 8.05079L10.1678 9.74352L5.83445 18.0447Z" stroke="#A4A4A4" stroke-width="2.16669" stroke-linecap="round" stroke-linejoin="round"/>
  <path d="M29.6681 18.1784L27.5014 20.7242L22.518 25.7076C22.3822 25.8346 22.2176 25.9269 22.0384 25.9764C21.8591 26.0259 21.6706 26.0313 21.4888 25.992L13.6346 24.0285C13.4911 23.9885 13.3574 23.9193 13.2418 23.8253L5.83447 18.043" stroke="#A4A4A4" stroke-width="2.16669" stroke-linecap="round" stroke-linejoin="round"/>
  <path d="M27.5019 20.7241L21.5435 16.3907L19.8102 17.6907C19.0592 18.2512 18.1472 18.554 17.2101 18.554C16.273 18.554 15.3611 18.2512 14.6101 17.6907L13.8788 17.1355C13.7552 17.0415 13.6529 16.9223 13.5788 16.7858C13.5046 16.6493 13.4603 16.4986 13.4488 16.3437C13.4373 16.1888 13.4588 16.0332 13.5119 15.8872C13.5651 15.7412 13.6486 15.6082 13.757 15.4969L19.0654 10.2021C19.1651 10.1029 19.2834 10.0243 19.4135 9.97084C19.5436 9.91739 19.683 9.89014 19.8237 9.89063H25.3352" stroke="#A4A4A4" stroke-width="2.16669" stroke-linecap="round" stroke-linejoin="round"/>
  <path d="M10.2495 9.74512L17.1965 7.71385C17.4433 7.64306 17.7073 7.66226 17.9413 7.76802L22.6267 9.89408" stroke="#A4A4A4" stroke-width="2.16669" stroke-linecap="round" stroke-linejoin="round"/>
  <path d="M15.5849 28.8511L11.5088 27.8219C11.3427 27.7844 11.1889 27.7052 11.0619 27.5917L8.00146 24.9375" stroke="#A4A4A4" stroke-width="2.16669" stroke-linecap="round" stroke-linejoin="round"/>
</svg>