<svg width="47" height="47" viewBox="0 0 47 47" fill="none" xmlns="http://www.w3.org/2000/svg">
<rect x="3.37061" y="3.36719" width="40.0449" height="40.0449" rx="20.0225" fill="#FFE6EF"/>
<rect x="3.37061" y="3.36719" width="40.0449" height="40.0449" rx="20.0225" stroke="#FEEEED" stroke-width="6.67416"/>
<path d="M18.3341 14C18.1382 14.0369 17.9968 14.2104 18.0001 14.4111V32.5005C17.9984 32.6483 18.0771 32.7848 18.204 32.8587C18.3309 32.9341 18.4883 32.9341 18.6167 32.8603L23.3447 30.098L28.0726 32.8603C28.201 32.9341 28.3584 32.9341 28.4853 32.8587C28.6122 32.7848 28.6909 32.6483 28.6893 32.5005V14.4111C28.6893 14.1847 28.5046 14 28.2781 14H18.4112C18.3983 14 18.3855 14 18.3726 14C18.3598 14 18.3469 14 18.3341 14ZM18.8223 14.8222H27.867V31.7811L23.5502 29.2629C23.4233 29.1891 23.266 29.1891 23.1391 29.2629L18.8223 31.7811V14.8222Z" fill="#FF3A3A"/>
</svg>
