<svg width="468" height="384" viewBox="0 0 468 384" fill="none" xmlns="http://www.w3.org/2000/svg">
<g id="No Results">
<g id="circle">
<path id="Stroke 1" d="M15.6735 175.828V179.786" stroke="#D2D8DF" stroke-width="1.28464" stroke-linecap="round"/>
<g id="Group 8">
<path id="Stroke 2" d="M6.78314 177.984L10.0175 181.314" stroke="#D2D8DF" stroke-width="1.28464" stroke-linecap="round"/>
<path id="Stroke 4" d="M3.00018 186.867H7.57354" stroke="#D2D8DF" stroke-width="1.28464" stroke-linecap="round"/>
<path id="Stroke 6" d="M6.41199 195.869L9.64636 192.539" stroke="#D2D8DF" stroke-width="1.28464" stroke-linecap="round"/>
</g>
<path id="Stroke 9" d="M15.6735 196.943V192.984" stroke="#D2D8DF" stroke-width="1.28464" stroke-linecap="round"/>
<path id="Stroke 10" d="M22.2702 194.311L19.6315 191.672" stroke="#D2D8DF" stroke-width="1.28464" stroke-linecap="round"/>
<path id="Stroke 11" d="M27.5478 187.711H23.5897" stroke="#D2D8DF" stroke-width="1.28464" stroke-linecap="round"/>
<path id="Stroke 12" d="M24.9091 178.477L22.2704 181.115" stroke="#D2D8DF" stroke-width="1.28464" stroke-linecap="round"/>
<path id="Stroke 13" d="M228.094 3V5.63876" stroke="#D2D8DF" stroke-width="1.28464" stroke-linecap="round"/>
<path id="Stroke 15" d="M220.177 10.9219H222.816" stroke="#D2D8DF" stroke-width="1.28464" stroke-linecap="round"/>
<path id="Stroke 16" d="M228.094 18.8341V16.1953" stroke="#D2D8DF" stroke-width="1.28464" stroke-linecap="round"/>
<path id="Stroke 17" d="M234.691 10.9219H232.052" stroke="#D2D8DF" stroke-width="1.28464" stroke-linecap="round"/>
<path id="Stroke 18" d="M75.0456 113.836V117.794" stroke="#D2D8DF" stroke-width="1.28464" stroke-linecap="round"/>
<path id="Stroke 19" d="M63.171 125.695H67.1292" stroke="#D2D8DF" stroke-width="1.28464" stroke-linecap="round"/>
<path id="Stroke 20" d="M75.0456 136.263V132.305" stroke="#D2D8DF" stroke-width="1.28464" stroke-linecap="round"/>
<path id="Stroke 21" d="M85.6007 125.695H81.6425" stroke="#D2D8DF" stroke-width="1.28464" stroke-linecap="round"/>
<g id="Group 42">
<path id="Stroke 22" d="M359.047 257.695C362.2 257.695 364.758 260.253 364.758 263.407C364.758 266.562 362.2 269.119 359.047 269.119C355.894 269.119 353.337 266.562 353.337 263.407" stroke="#D2D8DF" stroke-width="1.28464" stroke-linecap="round"/>
<path id="Fill 26" fill-rule="evenodd" clip-rule="evenodd" d="M385.18 205.884C388.571 204.827 393.768 200.68 394.971 196.219C396.062 200.163 400.635 204.827 404.762 205.18C400.117 206.824 395.675 211.71 394.971 215.549C394.492 211.636 388.349 206.455 385.18 205.884Z" fill="#EBECEE"/>
<path id="Fill 28" fill-rule="evenodd" clip-rule="evenodd" d="M37.1417 255.942C38.8375 255.413 41.435 253.34 42.0365 251.109C42.582 253.08 44.8681 255.413 46.9313 255.59C44.6094 256.411 42.3893 258.855 42.0365 260.774C41.7968 258.818 38.7255 256.226 37.1417 255.942Z" fill="#EBECEE"/>
<path id="Fill 30" fill-rule="evenodd" clip-rule="evenodd" d="M68.6122 72.3742C68.6122 74.8212 66.6296 76.8031 64.1844 76.8031C61.7381 76.8031 59.7567 74.8212 59.7567 72.3742C59.7567 69.9284 61.7381 67.9453 64.1844 67.9453C66.6296 67.9453 68.6122 69.9284 68.6122 72.3742Z" fill="#D1D8DF"/>
<path id="Fill 32" fill-rule="evenodd" clip-rule="evenodd" d="M364.279 84.3009C364.279 88.3892 360.965 91.7033 356.879 91.7033C352.79 91.7033 349.477 88.3892 349.477 84.3009C349.477 80.2126 352.79 76.8984 356.879 76.8984C360.965 76.8984 364.279 80.2126 364.279 84.3009Z" fill="#EBECEE"/>
<path id="Fill 34" fill-rule="evenodd" clip-rule="evenodd" d="M466.788 64.2314C466.788 67.4749 464.16 70.1033 460.918 70.1033C457.676 70.1033 455.048 67.4749 455.048 64.2314C455.048 60.9878 457.676 58.3594 460.918 58.3594C464.16 58.3594 466.788 60.9878 466.788 64.2314Z" fill="#EBECEE"/>
<path id="Stroke 36" fill-rule="evenodd" clip-rule="evenodd" d="M151.363 338.483C151.363 340.528 149.707 342.185 147.662 342.185C145.619 342.185 143.963 340.528 143.963 338.483C143.963 336.438 145.619 334.781 147.662 334.781C149.707 334.781 151.363 336.438 151.363 338.483Z" stroke="#D2D8DF" stroke-width="1.28464" stroke-linecap="round"/>
<path id="Stroke 38" fill-rule="evenodd" clip-rule="evenodd" d="M149.161 43.9445C149.161 46.3915 147.179 48.3734 144.734 48.3734C142.288 48.3734 140.306 46.3915 140.306 43.9445C140.306 41.4987 142.288 39.5156 144.734 39.5156C147.179 39.5156 149.161 41.4987 149.161 43.9445Z" stroke="#D2D8DF" stroke-width="1.28464" stroke-linecap="round"/>
<path id="Stroke 40" fill-rule="evenodd" clip-rule="evenodd" d="M262.104 379.491C259.275 380.568 256.108 379.146 255.032 376.317C253.956 373.487 255.376 370.318 258.206 369.243C261.035 368.166 264.201 369.587 265.278 372.417C266.355 375.247 264.934 378.414 262.104 379.491Z" stroke="#D2D8DF" stroke-width="1.28464" stroke-linecap="round"/>
</g>
</g>
<g id="search">
<g id="documents">
<path id="Fill 5" fill-rule="evenodd" clip-rule="evenodd" d="M242.198 286.578H133.779C126.148 286.578 119.902 280.352 119.902 272.743V119.09C119.902 111.481 126.148 105.258 133.779 105.258H242.198C249.833 105.258 256.079 111.481 256.079 119.09V272.743C256.079 280.352 249.833 286.578 242.198 286.578Z" fill="#D8DBEA"/>
<path id="Fill 8" fill-rule="evenodd" clip-rule="evenodd" d="M242.198 286.578H133.779C126.148 286.578 119.902 280.352 119.902 272.743V119.09C119.902 111.481 126.148 105.258 133.779 105.258H242.198C249.833 105.258 256.079 111.481 256.079 119.09V272.743C256.079 280.352 249.833 286.578 242.198 286.578Z" fill="#F1F2F7"/>
<path id="Fill 11" fill-rule="evenodd" clip-rule="evenodd" d="M226.571 152.08H146.49C144.203 152.08 142.331 150.299 142.331 148.124C142.331 145.945 144.203 144.164 146.49 144.164H226.571C228.858 144.164 230.73 145.945 230.73 148.124C230.73 150.299 228.858 152.08 226.571 152.08Z" fill="#E0E2EE"/>
<path id="Fill 13" fill-rule="evenodd" clip-rule="evenodd" d="M226.571 175.823H146.49C144.203 175.823 142.331 174.042 142.331 171.866C142.331 169.687 144.203 167.906 146.49 167.906H226.571C228.858 167.906 230.73 169.687 230.73 171.866C230.73 174.042 228.858 175.823 226.571 175.823Z" fill="#E0E2EE"/>
<path id="Fill 15" fill-rule="evenodd" clip-rule="evenodd" d="M226.571 199.565H146.49C144.203 199.565 142.331 197.784 142.331 195.608C142.331 193.432 144.203 191.648 146.49 191.648H226.571C228.858 191.648 230.73 193.432 230.73 195.608C230.73 197.784 228.858 199.565 226.571 199.565Z" fill="#E0E2EE"/>
<path id="Fill 17" fill-rule="evenodd" clip-rule="evenodd" d="M226.571 223.307H146.49C144.203 223.307 142.331 221.526 142.331 219.35C142.331 217.172 144.203 215.391 146.49 215.391H226.571C228.858 215.391 230.73 217.172 230.73 219.35C230.73 221.526 228.858 223.307 226.571 223.307Z" fill="#E0E2EE"/>
<path id="Fill 19" fill-rule="evenodd" clip-rule="evenodd" d="M188.291 247.073H146.508C144.211 247.073 142.331 245.292 142.331 243.116C142.331 240.937 144.211 239.156 146.508 239.156H188.291C190.588 239.156 192.468 240.937 192.468 243.116C192.468 245.292 190.588 247.073 188.291 247.073Z" fill="#E0E2EE"/>
</g>
<g id="search_2">
<path id="Fill 21" fill-rule="evenodd" clip-rule="evenodd" d="M272.627 216.37C256.614 232.38 231.824 234.187 213.827 221.826C211.527 220.218 209.338 218.411 207.296 216.37C206.245 215.323 205.255 214.242 204.321 213.104C202.454 210.831 200.819 208.407 199.479 205.903C197.119 201.673 195.514 197.184 194.637 192.545C191.81 177.995 196.038 162.334 207.296 151.081C218.581 139.794 234.245 135.594 248.797 138.394C253.434 139.297 257.927 140.902 262.158 143.235C264.666 144.605 267.057 146.24 269.333 148.106C270.468 149.036 271.549 150.03 272.597 151.081C274.642 153.122 276.475 155.307 278.053 157.61C290.42 175.601 288.61 200.39 272.627 216.37Z" fill="white" fill-opacity="0.1"/>
<path id="Fill 23" fill-rule="evenodd" clip-rule="evenodd" d="M268.147 213.214C251.487 229.877 224.49 229.873 207.827 213.214C191.187 196.573 191.187 169.573 207.849 152.913C224.49 136.273 251.487 136.273 268.128 152.913C284.787 169.573 284.787 196.573 268.147 213.214ZM276.696 144.358C255.313 122.974 220.661 122.974 199.277 144.358C177.897 165.739 177.878 200.412 199.259 221.796C218.721 241.251 249.224 243.006 270.679 227.031C272.775 225.469 274.793 223.718 276.718 221.796C278.64 219.871 280.391 217.852 281.951 215.757C297.925 194.299 296.155 163.817 276.696 144.358Z" fill="#E0E2EE"/>
<path id="Fill 25" fill-rule="evenodd" clip-rule="evenodd" d="M360.85 302.408L359.953 303.306C354.013 309.248 344.288 309.248 338.345 303.306L283.505 248.466L306.011 225.961L360.85 280.801C366.793 286.743 366.793 296.466 360.85 302.408Z" fill="url(#paint0_linear_7613_43583)"/>
<path id="Fill 27" fill-rule="evenodd" clip-rule="evenodd" d="M283.133 214.078L299.338 230.284L287.833 241.785L271.631 225.58C273.769 223.985 275.826 222.198 277.793 220.237C279.754 218.276 281.542 216.216 283.133 214.078Z" fill="#E0E2EE"/>
<path id="Fill 31" fill-rule="evenodd" clip-rule="evenodd" d="M307.255 226.749L284.28 249.724L280.867 246.311L303.841 223.336L307.255 226.749Z" fill="url(#paint1_linear_7613_43583)"/>
</g>
</g>
</g>
<defs>
<linearGradient id="paint0_linear_7613_43583" x1="324.406" y1="185.06" x2="242.605" y2="266.862" gradientUnits="userSpaceOnUse">
<stop stop-color="#FF8960"/>
<stop offset="1" stop-color="#FF62A5"/>
</linearGradient>
<linearGradient id="paint1_linear_7613_43583" x1="294.061" y1="210.142" x2="267.673" y2="236.53" gradientUnits="userSpaceOnUse">
<stop stop-color="#FF404E"/>
<stop offset="1" stop-color="#FF62A5"/>
</linearGradient>
</defs>
</svg>
