<svg xmlns="http://www.w3.org/2000/svg" width="36" height="35" viewBox="0 0 36 35" fill="none">
  <path opacity="0.2" d="M5.14896 10.1211C5.05084 10.2896 4.99942 10.4813 5 10.6763V24.0285C5.00104 24.2214 5.05291 24.4106 5.15039 24.577C5.24787 24.7434 5.3875 24.8812 5.55522 24.9765L17.472 31.6797C17.6327 31.7715 17.8151 31.8183 18.0002 31.8151L18.122 17.3524L5.14896 10.1211Z" fill="#A4A4A4"/>
  <path d="M31.0003 24.0277V10.6755C30.9993 10.4826 30.9474 10.2934 30.8499 10.127C30.7524 9.96055 30.6128 9.82277 30.4451 9.72753L18.5283 3.02432C18.3677 2.93162 18.1856 2.88281 18.0001 2.88281C17.8147 2.88281 17.6326 2.93162 17.472 3.02432L5.55521 9.72753C5.3875 9.82277 5.24786 9.96055 5.15039 10.127C5.05291 10.2934 5.00104 10.4826 5 10.6755V24.0277C5.00104 24.2206 5.05291 24.4097 5.15039 24.5762C5.24786 24.7426 5.3875 24.8804 5.55521 24.9756L17.472 31.6788C17.6326 31.7715 17.8147 31.8203 18.0001 31.8203C18.1856 31.8203 18.3677 31.7715 18.5283 31.6788L30.4451 24.9756C30.6128 24.8804 30.7524 24.7426 30.8499 24.5762C30.9474 24.4097 30.9993 24.2206 31.0003 24.0277V24.0277Z" stroke="#A4A4A4" stroke-width="2.16669" stroke-linecap="round" stroke-linejoin="round"/>
  <path d="M24.6356 20.6694V13.6277L11.5 6.38281" stroke="#A4A4A4" stroke-width="2.16669" stroke-linecap="round" stroke-linejoin="round"/>
  <path d="M30.8513 10.1211L18.122 17.3524L5.14893 10.1211" stroke="#A4A4A4" stroke-width="2.16669" stroke-linecap="round" stroke-linejoin="round"/>
  <path d="M18.1219 17.3516L18 31.8142" stroke="#A4A4A4" stroke-width="2.16669" stroke-linecap="round" stroke-linejoin="round"/>
</svg>