<svg xmlns="http://www.w3.org/2000/svg" width="36" height="35" viewBox="0 0 36 35" fill="none">
  <path opacity="0.2" d="M11.4997 29.2711H7.16635C6.87903 29.2711 6.60348 29.157 6.40031 28.9538C6.19715 28.7506 6.08301 28.4751 6.08301 28.1878V6.52085C6.08301 6.23352 6.19715 5.95797 6.40031 5.7548C6.60348 5.55164 6.87903 5.4375 7.16635 5.4375H11.4997V29.2711Z" fill="#2DB324"/>
  <path d="M15.8335 15.1875H24.5003" stroke="#2DB324" stroke-width="2.16669" stroke-linecap="round" stroke-linejoin="round"/>
  <path d="M15.8335 19.5195H24.5003" stroke="#2DB324" stroke-width="2.16669" stroke-linecap="round" stroke-linejoin="round"/>
  <path d="M28.8333 5.4375H7.16635C6.56804 5.4375 6.08301 5.92253 6.08301 6.52085V28.1878C6.08301 28.7861 6.56804 29.2711 7.16635 29.2711H28.8333C29.4316 29.2711 29.9166 28.7861 29.9166 28.1878V6.52085C29.9166 5.92253 29.4316 5.4375 28.8333 5.4375Z" stroke="#2DB324" stroke-width="2.16669" stroke-linecap="round" stroke-linejoin="round"/>
  <path d="M11.5 5.4375V29.2711" stroke="#2DB324" stroke-width="2.16669" stroke-linecap="round" stroke-linejoin="round"/>
</svg>