<svg width="25" height="24" viewBox="0 0 25 24" fill="none" xmlns="http://www.w3.org/2000/svg">
<path d="M22.7637 6.25V11.35C22.7637 12.62 22.3437 13.69 21.5937 14.43C20.8537 15.18 19.7837 15.6 18.5137 15.6V17.41C18.5137 18.09 17.7537 18.5 17.1937 18.12L16.2237 17.48C16.3137 17.17 16.3537 16.83 16.3537 16.47V12.4C16.3537 10.36 14.9937 9 12.9537 9H6.16367C6.02367 9 5.89367 9.01002 5.76367 9.02002V6.25C5.76367 3.7 7.46367 2 10.0137 2H18.5137C21.0637 2 22.7637 3.7 22.7637 6.25Z" stroke="#9C9DA1" stroke-width="1.4" stroke-miterlimit="10" stroke-linecap="round" stroke-linejoin="round"/>
<path d="M16.3537 12.4V16.47C16.3537 16.83 16.3137 17.17 16.2237 17.48C15.8537 18.95 14.6337 19.87 12.9537 19.87H10.2337L7.21367 21.88C6.76367 22.19 6.16367 21.86 6.16367 21.32V19.87C5.14367 19.87 4.29367 19.53 3.70367 18.94C3.10367 18.34 2.76367 17.49 2.76367 16.47V12.4C2.76367 10.5 3.94367 9.19002 5.76367 9.02002C5.89367 9.01002 6.02367 9 6.16367 9H12.9537C14.9937 9 16.3537 10.36 16.3537 12.4Z" stroke="#9C9DA1" stroke-width="1.4" stroke-miterlimit="10" stroke-linecap="round" stroke-linejoin="round"/>
</svg>
