<svg xmlns="http://www.w3.org/2000/svg" width="36" height="35" viewBox="0 0 36 35" fill="none">
  <path opacity="0.2" d="M24.2514 19.5195H2.58447V24.9363C2.58447 25.2236 2.69861 25.4991 2.90178 25.7023C3.10494 25.9055 3.3805 26.0196 3.66782 26.0196H6.37618C6.37618 25.1576 6.7186 24.331 7.3281 23.7215C7.9376 23.112 8.76426 22.7696 9.62622 22.7696C10.4882 22.7696 11.3148 23.112 11.9243 23.7215C12.5338 24.331 12.8763 25.1576 12.8763 26.0196H22.6264C22.626 25.4488 22.776 24.8879 23.0613 24.3934C23.3465 23.8989 23.757 23.4883 24.2514 23.2029V19.5195Z" fill="#A4A4A4"/>
  <path opacity="0.2" d="M29.1265 26.0196C29.1269 25.449 28.977 24.8883 28.6919 24.3939C28.4068 23.8995 27.9965 23.489 27.5024 23.2035C27.0083 22.918 26.4477 22.7676 25.877 22.7675C25.3063 22.7674 24.7457 22.9176 24.2515 23.2029V16.2695H32.9182V24.9363C32.9182 25.2236 32.8041 25.4992 32.6009 25.7023C32.3978 25.9055 32.1222 26.0196 31.8349 26.0196H29.1265Z" fill="#A4A4A4"/>
  <path d="M24.2515 10.8516H30.0203C30.2361 10.8502 30.4473 10.9141 30.6262 11.0349C30.805 11.1558 30.9431 11.3279 31.0224 11.5287L32.9182 16.2683" stroke="#A4A4A4" stroke-width="2.16669" stroke-linecap="round" stroke-linejoin="round"/>
  <path d="M2.58447 19.5195H24.2514" stroke="#A4A4A4" stroke-width="2.16669" stroke-linecap="round" stroke-linejoin="round"/>
  <path d="M25.8765 29.2696C27.6714 29.2696 29.1265 27.8145 29.1265 26.0196C29.1265 24.2246 27.6714 22.7695 25.8765 22.7695C24.0816 22.7695 22.6265 24.2246 22.6265 26.0196C22.6265 27.8145 24.0816 29.2696 25.8765 29.2696Z" stroke="#A4A4A4" stroke-width="2.16669" stroke-miterlimit="10"/>
  <path d="M9.6265 29.2696C11.4214 29.2696 12.8765 27.8145 12.8765 26.0196C12.8765 24.2246 11.4214 22.7695 9.6265 22.7695C7.83156 22.7695 6.37646 24.2246 6.37646 26.0196C6.37646 27.8145 7.83156 29.2696 9.6265 29.2696Z" stroke="#A4A4A4" stroke-width="2.16669" stroke-miterlimit="10"/>
  <path d="M22.6266 26.0195H12.8765" stroke="#A4A4A4" stroke-width="2.16669" stroke-linecap="round" stroke-linejoin="round"/>
  <path d="M6.37618 26.021H3.66782C3.3805 26.021 3.10494 25.9069 2.90178 25.7037C2.69861 25.5006 2.58447 25.225 2.58447 24.9377V9.77085C2.58447 9.48352 2.69861 9.20797 2.90178 9.0048C3.10494 8.80164 3.3805 8.6875 3.66782 8.6875H24.2514V23.2043" stroke="#A4A4A4" stroke-width="2.16669" stroke-linecap="round" stroke-linejoin="round"/>
  <path d="M24.2515 16.2695H32.9182V24.9363C32.9182 25.2236 32.8041 25.4992 32.6009 25.7023C32.3978 25.9055 32.1222 26.0196 31.8349 26.0196H29.1265" stroke="#A4A4A4" stroke-width="2.16669" stroke-linecap="round" stroke-linejoin="round"/>
</svg>