<svg width="300" height="300" viewBox="0 0 300 300" fill="none" xmlns="http://www.w3.org/2000/svg">
<path d="M55.5822 190.287L46.6824 190.455L42.1734 190.522C40.6674 190.55 39.1542 190.545 37.644 190.555L37.3776 190.557L37.3764 190.287L37.344 182.707L37.3428 182.406L37.644 182.407L46.6128 182.445C49.6026 182.448 52.5918 182.512 55.5816 182.544L55.7466 182.545L55.7454 182.707C55.734 183.991 55.6938 185.268 55.6668 186.532L55.5822 190.287ZM55.5822 190.287L55.497 186.462C55.47 185.2 55.4298 183.951 55.4184 182.707L55.5822 182.871C52.5924 182.902 49.6032 182.967 46.6134 182.97L37.6446 183.007L37.944 182.708L37.9116 190.288L37.644 190.02C39.1236 190.031 40.6002 190.025 42.084 190.053L46.5438 190.12L55.5822 190.287Z" fill="#EBEBEB"/>
<path d="M45.5753 199.842L36.6755 200.009L32.1665 200.077C30.6605 200.105 29.1473 200.099 27.6371 200.11L27.3707 200.111L27.3695 199.842L27.3371 192.262L27.3359 191.961L27.6371 191.962L36.6059 192C39.5957 192.003 42.5849 192.067 45.5747 192.098L45.7397 192.1L45.7385 192.262C45.7271 193.546 45.6869 194.823 45.6599 196.087L45.5753 199.842ZM45.5753 199.842L45.4901 196.017C45.4631 194.755 45.4229 193.505 45.4115 192.262L45.5753 192.426C42.5855 192.457 39.5963 192.521 36.6065 192.524L27.6377 192.562L27.9371 192.263L27.9047 199.843L27.6371 199.575C29.1167 199.586 30.5933 199.58 32.0771 199.608L36.5369 199.675L45.5753 199.842Z" fill="#EBEBEB"/>
<path d="M45.5753 35.8263L36.6755 35.9937L32.1665 36.0609C30.6605 36.0891 29.1473 36.0831 27.6371 36.0939L27.3707 36.0957L27.3695 35.8263L27.3371 28.2465L27.3359 27.9453L27.6371 27.9465L36.6059 27.9843C39.5957 27.9873 42.5849 28.0515 45.5747 28.0827L45.7397 28.0845L45.7385 28.2465C45.7271 29.5299 45.6869 30.8073 45.6599 32.0715L45.5753 35.8263ZM45.5753 35.8263L45.4901 32.0013C45.4631 30.7395 45.4229 29.4897 45.4115 28.2465L45.5753 28.4103C42.5855 28.4409 39.5963 28.5057 36.6065 28.5087L27.6377 28.5459L27.9371 28.2465L27.9047 35.8263L27.6371 35.5587C29.1167 35.5695 30.5933 35.5635 32.0771 35.5917L36.5369 35.6589L45.5753 35.8263Z" fill="#EBEBEB"/>
<path d="M272.362 35.8263L263.462 35.9937L258.953 36.0609C257.447 36.0891 255.934 36.0831 254.424 36.0939L254.157 36.0957L254.156 35.8263L254.124 28.2465L254.123 27.9453L254.424 27.9465L263.393 27.9843C266.382 27.9873 269.372 28.0515 272.361 28.0827L272.526 28.0845L272.525 28.2465C272.514 29.5299 272.474 30.8073 272.447 32.0715L272.362 35.8263ZM272.362 35.8263L272.277 32.0013C272.25 30.7395 272.21 29.4897 272.198 28.2465L272.362 28.4103C269.372 28.4409 266.382 28.5057 263.393 28.5087L254.424 28.5465L254.724 28.2471L254.691 35.8269L254.424 35.5593C255.903 35.5701 257.38 35.5641 258.864 35.5923L263.324 35.6595L272.362 35.8263Z" fill="#EBEBEB"/>
<path d="M262.356 45.381L253.456 45.5484L248.947 45.6156C247.441 45.6438 245.928 45.6378 244.418 45.6486L244.152 45.6504L244.15 45.381L244.118 37.8012L244.117 37.5L244.418 37.5012L253.387 37.539C256.377 37.542 259.366 37.6062 262.355 37.6374L262.52 37.6392L262.519 37.8012C262.508 39.0846 262.468 40.362 262.441 41.6262L262.356 45.381ZM262.356 45.381L262.271 41.556C262.244 40.2942 262.204 39.0444 262.192 37.8012L262.356 37.965C259.366 37.9956 256.377 38.0604 253.387 38.0634L244.419 38.1012L244.718 37.8018L244.685 45.3816L244.418 45.114C245.898 45.1248 247.374 45.1188 248.858 45.147L253.318 45.2142L262.356 45.381Z" fill="#EBEBEB"/>
<path d="M216.415 134.061L207.515 134.228L203.006 134.295C201.5 134.323 199.987 134.318 198.477 134.328L198.211 134.33L198.209 134.061L198.177 126.481L198.176 126.18L198.477 126.181L207.446 126.219C210.436 126.222 213.425 126.286 216.415 126.317L216.58 126.319L216.578 126.481C216.567 127.764 216.527 129.042 216.5 130.306L216.415 134.061ZM216.415 134.061L216.33 130.236C216.303 128.973 216.263 127.724 216.251 126.481L216.415 126.645C213.425 126.675 210.436 126.74 207.446 126.743L198.478 126.781L198.777 126.481L198.745 134.061L198.477 133.794C199.957 133.804 201.433 133.799 202.917 133.827L207.377 133.894L216.415 134.061Z" fill="#EBEBEB"/>
<path d="M206.408 143.615L197.509 143.783L193 143.85C191.494 143.878 189.98 143.872 188.47 143.883L188.204 143.885L188.203 143.615L188.17 136.036L188.169 135.734L188.47 135.736L197.439 135.773C200.429 135.776 203.418 135.841 206.408 135.872L206.573 135.874L206.572 136.036C206.56 137.319 206.52 138.596 206.493 139.861L206.408 143.615ZM206.408 143.615L206.323 139.79C206.296 138.529 206.256 137.279 206.245 136.036L206.408 136.199C203.419 136.23 200.429 136.295 197.44 136.298L188.471 136.336L188.77 136.036L188.738 143.616L188.47 143.348C189.95 143.359 191.426 143.353 192.91 143.381L197.37 143.449L206.408 143.615Z" fill="#EBEBEB"/>
<path d="M196.442 134.061L187.542 134.228L183.033 134.295C181.527 134.323 180.014 134.318 178.503 134.328L178.237 134.33L178.236 134.061L178.203 126.481L178.202 126.18L178.503 126.181L187.472 126.219C190.462 126.222 193.451 126.286 196.441 126.317L196.606 126.319L196.605 126.481C196.593 127.764 196.553 129.042 196.526 130.306L196.442 134.061ZM196.442 134.061L196.356 130.236C196.329 128.973 196.289 127.724 196.278 126.481L196.442 126.645C193.452 126.675 190.462 126.74 187.473 126.743L178.504 126.781L178.803 126.481L178.771 134.061L178.503 133.794C179.983 133.804 181.46 133.799 182.943 133.827L187.403 133.894L196.442 134.061Z" fill="#EBEBEB"/>
<path d="M272.362 199.842L263.462 200.009L258.953 200.077C257.447 200.105 255.934 200.099 254.424 200.11L254.157 200.111L254.156 199.842L254.124 192.262L254.123 191.961L254.424 191.962L263.393 192C266.382 192.003 269.372 192.067 272.361 192.098L272.526 192.1L272.525 192.262C272.514 193.546 272.474 194.823 272.447 196.087L272.362 199.842ZM272.362 199.842L272.277 196.017C272.25 194.755 272.21 193.505 272.198 192.262L272.362 192.426C269.372 192.457 266.383 192.521 263.393 192.524L254.424 192.562L254.724 192.263L254.691 199.843L254.424 199.575C255.903 199.586 257.38 199.58 258.864 199.608L263.324 199.675L272.362 199.842Z" fill="#EBEBEB"/>
<path d="M119.956 58.3654L111.056 58.5328L106.547 58.6C105.041 58.6282 103.528 58.6222 102.018 58.633L101.751 58.6348L101.75 58.3654L101.718 50.7856L101.716 50.4844L102.018 50.4856L110.986 50.5234C113.976 50.5264 116.965 50.5906 119.955 50.6218L120.12 50.6236L120.119 50.7856C120.108 52.069 120.067 53.3464 120.04 54.6106L119.956 58.3654ZM119.956 58.3654L119.871 54.5404C119.844 53.2786 119.803 52.0288 119.792 50.7856L119.956 50.9494C116.966 50.98 113.977 51.0448 110.987 51.0478L102.018 51.0856L102.318 50.7862L102.285 58.366L102.018 58.0984C103.497 58.1092 104.974 58.1032 106.458 58.1314L110.917 58.1986L119.956 58.3654Z" fill="#EBEBEB"/>
<path d="M253.935 108.585L257.467 102.89L255.723 101.81C255.21 101.492 254.932 100.913 254.984 100.311C255.012 99.979 255.023 99.6448 255.016 99.3094C255.002 98.7076 255.317 98.1478 255.847 97.8634L257.655 96.8938L254.487 90.9868L252.68 91.9564C252.149 92.2408 251.509 92.1928 251.015 91.849C250.74 91.6576 250.456 91.4812 250.163 91.321C249.634 91.0312 249.305 90.4786 249.324 89.8762L249.389 87.8254L242.691 87.6172L242.629 89.6752C242.611 90.2788 242.241 90.8038 241.695 91.0618C241.547 91.132 241.4 91.2058 241.255 91.2838C241.109 91.3618 240.966 91.4434 240.826 91.528C240.312 91.8388 239.673 91.8568 239.162 91.5406L237.406 90.4522L233.873 96.1468L235.621 97.231C236.133 97.5496 236.411 98.1298 236.359 98.731C236.33 99.0616 236.319 99.3952 236.326 99.7288C236.338 100.329 236.024 100.889 235.494 101.173L233.686 102.143L236.854 108.05L238.662 107.08C239.192 106.796 239.831 106.844 240.325 107.186C240.599 107.376 240.883 107.552 241.175 107.711C241.705 108 242.035 108.552 242.016 109.155L241.953 111.211L248.651 111.419L248.715 109.363C248.734 108.762 249.103 108.239 249.646 107.981C249.795 107.911 249.943 107.836 250.09 107.757C250.235 107.679 250.379 107.598 250.519 107.513C251.036 107.201 251.678 107.183 252.191 107.502L253.935 108.585ZM248.264 104.356C245.593 105.789 242.269 104.785 240.836 102.114C239.404 99.4426 240.404 96.1138 243.076 94.681C245.747 93.2482 249.079 94.2538 250.511 96.925C251.944 99.5968 250.936 102.924 248.264 104.356Z" fill="#EBEBEB"/>
<path d="M60.9178 173.109L64.45 167.414L62.7058 166.334C62.1929 166.016 61.915 165.436 61.9666 164.835C61.9954 164.502 62.0056 164.168 61.9984 163.833C61.9852 163.231 62.2997 162.671 62.83 162.387L64.6378 161.417L61.4698 155.51L59.6627 156.48C59.1323 156.764 58.4921 156.716 57.9983 156.372C57.7229 156.181 57.4385 156.005 57.1463 155.844C56.6171 155.555 56.2877 155.002 56.3069 154.4L56.3717 152.349L49.6739 152.141L49.6121 154.199C49.5941 154.802 49.2239 155.327 48.6779 155.585C48.5297 155.655 48.3827 155.729 48.2375 155.807C48.0917 155.885 47.9489 155.967 47.8091 156.051C47.2949 156.362 46.6559 156.38 46.1453 156.064L44.3885 154.976L40.8563 160.67L42.6035 161.754C43.1159 162.073 43.3937 162.653 43.3415 163.254C43.3127 163.586 43.3019 163.919 43.3085 164.252C43.3211 164.853 43.0067 165.413 42.4769 165.696L40.6685 166.666L43.8365 172.573L45.6449 171.603C46.1747 171.319 46.8143 171.367 47.3081 171.71C47.5823 171.9 47.8661 172.075 48.1577 172.234C48.6875 172.523 49.0175 173.076 48.9989 173.679L48.9359 175.734L55.6337 175.943L55.6979 173.886C55.7165 173.285 56.0855 172.762 56.6291 172.505C56.7779 172.435 56.9261 172.36 57.0731 172.281C57.2189 172.203 57.3616 172.122 57.502 172.037C58.0192 171.725 58.6607 171.707 59.1742 172.026L60.9178 173.109ZM55.2467 168.88C52.5755 170.313 49.2515 169.309 47.8187 166.638C46.3859 163.967 47.3867 160.638 50.0585 159.205C52.7297 157.772 56.0609 158.778 57.4936 161.449C58.9264 164.121 57.9179 167.447 55.2467 168.88Z" fill="#EBEBEB"/>
<path d="M129.521 64.0418L127.175 59.9756L125.93 60.6944C125.564 60.9062 125.114 60.8858 124.76 60.6548C124.565 60.527 124.362 60.41 124.153 60.3032C123.777 60.1124 123.535 59.7326 123.535 59.3114V57.875H118.84V59.312C118.84 59.7332 118.598 60.113 118.222 60.3038C118.013 60.41 117.81 60.5276 117.614 60.6554C117.26 60.8858 116.81 60.9068 116.444 60.695L115.2 59.9762L112.854 64.0424L114.104 64.7618C114.47 64.973 114.672 65.375 114.65 65.7974C114.644 65.912 114.641 66.0272 114.641 66.143C114.641 66.2588 114.644 66.374 114.65 66.4886C114.672 66.9092 114.472 67.3094 114.107 67.52L112.854 68.2442L115.2 72.3104L116.448 71.591C116.814 71.3798 117.265 71.4008 117.619 71.6318C117.814 71.759 118.015 71.876 118.224 71.9822C118.599 72.1736 118.84 72.5528 118.84 72.974V74.4116H123.536V72.974C123.536 72.5528 123.777 72.1736 124.152 71.9822C124.36 71.876 124.562 71.759 124.757 71.6318C125.111 71.4008 125.561 71.3798 125.927 71.591L127.175 72.3104L129.521 68.2442L128.273 67.5242C127.908 67.3136 127.708 66.9128 127.729 66.4916C127.735 66.3764 127.737 66.2606 127.737 66.1436C127.737 66.0278 127.734 65.9126 127.729 65.798C127.707 65.3756 127.909 64.973 128.275 64.7618L129.521 64.0418ZM125.033 66.143C125.033 68.2664 123.313 69.9866 121.189 69.9866C119.066 69.9866 117.342 68.2664 117.342 66.143C117.342 64.0196 119.066 62.2958 121.189 62.2958C123.313 62.2958 125.033 64.0196 125.033 66.143Z" fill="#EBEBEB"/>
<path d="M53.301 182.31C45.4596 189.986 44.1438 201.862 45.7962 212.264C45.8388 212.5 46.2042 212.436 46.2042 212.215C46.2042 209.846 46.1328 207.5 46.14 205.16C46.1826 205.053 46.2186 204.953 46.2618 204.845C48.3078 203.357 50.1894 201.676 51.3558 199.372C52.665 196.797 53.1798 193.892 54.1818 191.202C54.2748 190.945 54 191.02 53.8206 191.153C49.0512 194.67 47.5308 198.456 46.1622 203.515C46.2264 200.889 46.4268 198.264 46.992 195.638C48.0222 190.837 50.061 186.08 53.5098 182.517C53.6376 182.382 53.4372 182.174 53.301 182.31Z" fill="#263238"/>
<path d="M54.7748 183.205C56.1236 183.25 56.9696 185.406 58.0208 186.035C58.577 186.37 59.1188 186.35 59.5094 185.801C60.551 184.348 59.1218 182.554 57.7778 181.55C58.739 181.946 59.5364 182.64 60.5726 182.837C61.2002 182.952 61.688 182.719 61.8344 182.081C62.291 180.099 59.8046 179.217 58.0988 179.176C58.9256 178.601 61.2962 177.038 60.0368 176.269C58.7606 175.498 55.979 177.733 55.0718 178.468C53.7386 179.55 52.148 181.167 52.088 182.859C52.01 184.835 53.7368 183.619 54.7748 183.205Z" fill="#FF4F4F"/>
<path opacity="0.1" d="M54.7748 183.205C56.1236 183.25 56.9696 185.406 58.0208 186.035C58.577 186.37 59.1188 186.35 59.5094 185.801C60.551 184.348 59.1218 182.554 57.7778 181.55C58.739 181.946 59.5364 182.64 60.5726 182.837C61.2002 182.952 61.688 182.719 61.8344 182.081C62.291 180.099 59.8046 179.217 58.0988 179.176C58.9256 178.601 61.2962 177.038 60.0368 176.269C58.7606 175.498 55.979 177.733 55.0718 178.468C53.7386 179.55 52.148 181.167 52.088 182.859C52.01 184.835 53.7368 183.619 54.7748 183.205Z" fill="black"/>
<path d="M54.3847 183.534C56.1097 182.75 59.4223 183.878 59.7043 183.225C60.2755 181.897 57.6277 180.985 56.1985 180.809C57.5149 180.452 60.0367 179.884 59.9593 178.614C59.8645 177.065 56.0911 178.397 54.1813 179.862C51.7753 181.707 51.7909 183.487 52.1887 183.843C52.7341 184.333 54.0997 183.663 54.3847 183.534Z" fill="#FF4F4F"/>
<path d="M35.4441 181.548C43.5711 188.921 45.3387 200.738 44.0829 211.196C44.0493 211.434 43.6821 211.383 43.6737 211.162C43.5837 208.796 43.5657 206.448 43.4697 204.111C43.4229 204.005 43.3833 203.907 43.3359 203.801C41.2347 202.391 39.2907 200.783 38.0379 198.525C36.6315 196.002 36.0063 193.119 34.9035 190.469C34.8009 190.215 35.0781 190.28 35.2629 190.406C40.1625 193.739 41.8263 197.465 43.3863 202.467C43.2219 199.845 42.9219 197.229 42.2577 194.627C41.0457 189.869 38.8275 185.193 35.2461 181.764C35.1111 181.633 35.3031 181.418 35.4441 181.548Z" fill="#263238"/>
<path d="M34.0058 182.501C32.6594 182.598 31.8968 184.785 30.8702 185.453C30.3272 185.809 29.7854 185.809 29.3738 185.276C28.2776 183.863 29.6372 182.016 30.9422 180.962C29.9966 181.394 29.2262 182.118 28.1984 182.354C27.5756 182.493 27.0794 182.279 26.9084 181.647C26.3768 179.684 28.8278 178.708 30.5306 178.602C29.6822 178.059 27.254 176.587 28.4834 175.771C29.729 174.951 32.594 177.078 33.5282 177.78C34.9016 178.81 36.5522 180.365 36.677 182.054C36.83 184.025 35.0588 182.876 34.0058 182.501Z" fill="#FF4F4F"/>
<path opacity="0.1" d="M34.0058 182.501C32.6594 182.598 31.8968 184.785 30.8702 185.453C30.3272 185.809 29.7854 185.809 29.3738 185.276C28.2776 183.863 29.6372 182.016 30.9422 180.962C29.9966 181.394 29.2262 182.118 28.1984 182.354C27.5756 182.493 27.0794 182.279 26.9084 181.647C26.3768 179.684 28.8278 178.708 30.5306 178.602C29.6822 178.059 27.254 176.587 28.4834 175.771C29.729 174.951 32.594 177.078 33.5282 177.78C34.9016 178.81 36.5522 180.365 36.677 182.054C36.83 184.025 35.0588 182.876 34.0058 182.501Z" fill="black"/>
<path d="M34.4082 182.818C32.655 182.1 29.3868 183.354 29.0808 182.713C28.4598 181.407 31.0704 180.396 32.4918 180.165C31.1628 179.859 28.6212 179.387 28.6506 178.116C28.686 176.563 32.5074 177.751 34.4718 179.142C36.9462 180.894 36.9984 182.674 36.6144 183.045C36.0876 183.555 34.6974 182.937 34.4082 182.818Z" fill="#FF4F4F"/>
<path d="M43.7551 201.016C44.3551 204.902 45.0991 208.919 46.2787 212.674C46.3915 213.016 46.8991 212.928 46.8469 212.559C46.3129 208.967 45.3397 205.441 44.8063 201.848C44.2639 198.214 43.9741 194.528 44.1823 190.852C44.5243 184.799 46.1683 178.36 50.1187 173.623C50.2057 173.51 50.0215 173.351 49.9321 173.456C42.0235 182.677 43.2817 193.982 43.2889 194.996C42.1693 191.178 41.0155 186.803 36.7807 182.915C36.5983 182.747 36.4555 182.827 36.4861 183.112C37.2433 190.193 39.2119 193.889 43.3171 197.675C43.4323 198.797 43.5769 199.913 43.7551 201.016Z" fill="#263238"/>
<path d="M50.1887 174.686C51.6113 174.054 53.5739 175.865 54.9815 175.989C55.7267 176.056 56.2787 175.762 56.4083 174.997C56.7575 172.964 54.3713 171.822 52.4717 171.458C53.6681 171.384 54.8447 171.703 56.0189 171.386C56.7281 171.189 57.1169 170.702 56.9483 169.967C56.4239 167.679 53.4005 168.016 51.6095 168.832C52.1783 167.819 53.8505 165.004 52.1573 164.841C50.4449 164.682 48.6839 168.401 48.1127 169.622C47.2739 171.416 46.4375 173.893 47.2271 175.679C48.1409 177.768 49.3205 175.638 50.1887 174.686Z" fill="#FF4F4F"/>
<path opacity="0.1" d="M50.1887 174.686C51.6113 174.054 53.5739 175.865 54.9815 175.989C55.7267 176.056 56.2787 175.762 56.4083 174.997C56.7575 172.964 54.3713 171.822 52.4717 171.458C53.6681 171.384 54.8447 171.703 56.0189 171.386C56.7281 171.189 57.1169 170.702 56.9483 169.967C56.4239 167.679 53.4005 168.016 51.6095 168.832C52.1783 167.819 53.8505 165.004 52.1573 164.841C50.4449 164.682 48.6839 168.401 48.1127 169.622C47.2739 171.416 46.4375 173.893 47.2271 175.679C48.1409 177.768 49.3205 175.638 50.1887 174.686Z" fill="black"/>
<path d="M49.9511 175.229C51.3461 173.547 55.3517 173.05 55.3151 172.231C55.2389 170.566 52.0331 170.953 50.4611 171.488C51.6473 170.456 53.9777 168.597 53.2583 167.319C52.3799 165.758 49.1357 169.041 47.8913 171.522C46.3235 174.647 47.2355 176.486 47.8283 176.656C48.6413 176.888 49.7213 175.507 49.9511 175.229Z" fill="#FF4F4F"/>
<path d="M38.5523 203.148L35.0645 229.797H56.2889C55.8515 227.436 51.9011 203.117 51.9011 203.117L38.5523 203.148Z" fill="#FF4F4F"/>
<path d="M26.0244 229.885L57.018 229.74L88.0122 229.687L150 229.586L211.988 229.686L242.981 229.739L273.976 229.885L242.981 230.032L211.988 230.085L150 230.185L88.0122 230.085L57.018 230.031L26.0244 229.885Z" fill="#263238"/>
<path d="M150 282.071C199.393 282.071 239.434 276.41 239.434 269.426C239.434 262.443 199.393 256.781 150 256.781C100.607 256.781 60.5659 262.443 60.5659 269.426C60.5659 276.41 100.607 282.071 150 282.071Z" fill="#EBEBEB"/>
<path d="M54.2369 49.9405L104.945 48.4991L105.43 65.5416L71.0837 66.5172L69.5772 78.1059C71.9211 76.9201 74.2489 76.0129 76.5574 75.3882C78.8658 74.7636 81.1559 74.417 83.4289 74.3536C91.1185 74.1344 97.4259 76.2831 102.347 80.7965C107.268 85.3098 109.83 91.0978 110.03 98.1575C110.171 103.121 109.074 107.928 106.739 112.578C104.403 117.229 101.008 120.823 96.5486 123.364C92.0891 125.906 86.3294 127.277 79.2697 127.477C74.2013 127.621 69.8432 127.263 66.1978 126.404C62.5524 125.546 59.4359 124.201 56.847 122.366C54.2581 120.531 52.1437 118.434 50.5015 116.064C48.8611 113.698 47.463 110.728 46.3141 107.156L67.8497 104.183C68.4727 107.63 69.7708 110.224 71.7453 111.97C73.7197 113.716 76.0348 114.551 78.69 114.476C81.6612 114.392 84.086 113.194 85.9608 110.884C87.8356 108.575 88.7114 105.181 88.5846 100.708C88.4555 96.1302 87.3796 92.7995 85.3623 90.7249C83.3449 88.6503 80.7092 87.656 77.4586 87.7479C75.396 87.8067 73.4183 88.3694 71.5249 89.4384C70.1114 90.2125 68.5779 91.5865 66.9182 93.5567L48.6473 91.4522L54.2369 49.9405Z" fill="#263238"/>
<path d="M114.713 86.2693C114.298 71.6573 116.637 61.3569 121.734 55.3692C126.829 49.381 134.76 46.2345 145.529 45.9297C150.702 45.7832 154.967 46.2993 158.326 47.4809C161.683 48.662 164.439 50.2464 166.596 52.2319C168.751 54.2168 170.465 56.3207 171.736 58.5407C173.006 60.7606 174.051 63.3639 174.869 66.3499C176.465 72.0425 177.352 77.9988 177.529 84.2235C177.925 98.1718 175.855 108.447 171.322 115.047C166.785 121.649 158.751 125.113 147.213 125.441C140.746 125.625 135.49 124.743 131.446 122.793C127.402 120.844 124.047 117.914 121.382 114C119.448 111.22 117.896 107.391 116.726 102.508C115.551 97.6239 114.881 92.2119 114.713 86.2693ZM135.898 85.7192C136.177 95.5082 137.232 102.168 139.063 105.703C140.895 109.236 143.454 110.957 146.742 110.864C148.909 110.803 150.766 109.988 152.314 108.423C153.861 106.857 154.965 104.42 155.623 101.112C156.282 97.805 156.513 92.6729 156.313 85.7155C156.024 75.508 154.964 68.672 153.133 65.2073C151.303 61.7427 148.657 60.0598 145.197 60.1592C141.667 60.2592 139.166 62.1239 137.696 65.7514C136.22 69.3802 135.623 76.0358 135.898 85.7192Z" fill="#263238"/>
<path d="M202.496 67.7648L182.205 64.7213C183.7 58.2426 186.783 53.2207 191.458 49.6585C196.133 46.0963 202.839 44.191 211.579 43.9432C221.613 43.6577 228.919 45.3228 233.502 48.9351C238.082 52.5491 240.453 57.1857 240.615 62.8494C240.709 66.1712 239.886 69.202 238.144 71.9463C236.402 74.6906 233.726 77.1279 230.113 79.2602C233.107 79.9092 235.402 80.7027 237.003 81.6366C239.599 83.1375 241.642 85.1525 243.131 87.681C244.619 90.2096 245.415 93.2586 245.517 96.823C245.643 101.298 244.595 105.622 242.37 109.797C240.144 113.972 236.861 117.232 232.518 119.577C228.177 121.922 222.423 123.197 215.255 123.401C208.263 123.6 202.726 122.934 198.64 121.406C194.556 119.878 191.168 117.568 188.473 114.479C185.779 111.391 183.664 107.471 182.13 102.72L203.391 99.2819C204.353 103.557 205.74 106.5 207.551 108.111C209.365 109.722 211.633 110.487 214.361 110.41C217.227 110.329 219.585 109.212 221.43 107.061C223.275 104.91 224.148 102.085 224.049 98.5899C223.948 95.0233 222.953 92.2881 221.062 90.3839C219.17 88.4796 216.651 87.5708 213.506 87.6604C211.827 87.7086 209.532 88.1927 206.619 89.115L207.287 73.8247C208.481 73.9657 209.41 74.0283 210.074 74.0074C212.872 73.9271 215.18 72.9713 216.999 71.133C218.817 69.2971 219.694 67.155 219.623 64.7073C219.556 62.3654 218.803 60.5139 217.366 59.1557C215.927 57.797 213.987 57.1517 211.539 57.2232C209.023 57.2958 206.999 58.1129 205.469 59.6778C203.936 61.2416 202.947 63.9393 202.496 67.7648Z" fill="#263238"/>
<path d="M121.205 36.4744C119.944 36.4744 118.801 36.2278 117.775 35.7352C116.749 35.2426 115.869 34.588 115.134 33.772C114.398 32.9566 113.829 32.023 113.425 30.973C113.021 29.923 112.819 28.8484 112.819 27.7492C112.819 26.602 113.032 25.5034 113.461 24.4528C113.889 23.4028 114.479 22.4734 115.23 21.6652C115.981 20.857 116.874 20.215 117.909 19.738C118.942 19.2616 120.066 19.0234 121.278 19.0234C122.522 19.0234 123.657 19.2778 124.683 19.7866C125.709 20.2954 126.586 20.962 127.313 21.7864C128.04 22.6108 128.605 23.548 129.01 24.598C129.414 25.6486 129.616 26.7148 129.616 27.7978C129.616 28.9456 129.405 30.0394 128.986 31.0822C128.565 32.1244 127.984 33.0454 127.24 33.8452C126.497 34.645 125.608 35.2834 124.575 35.7598C123.54 36.2362 122.417 36.4744 121.205 36.4744ZM116.212 27.7486C116.212 28.492 116.325 29.2114 116.551 29.9056C116.777 30.6004 117.104 31.2148 117.532 31.7476C117.96 32.281 118.486 32.7088 119.108 33.0322C119.73 33.3556 120.437 33.517 121.229 33.517C122.037 33.517 122.752 33.3514 123.374 33.0202C123.996 32.6896 124.521 32.2486 124.95 31.699C125.377 31.15 125.701 30.532 125.919 29.845C126.138 29.158 126.246 28.4596 126.246 27.748C126.246 27.0052 126.129 26.2858 125.895 25.591C125.66 24.8962 125.329 24.2824 124.901 23.749C124.473 23.2156 123.948 22.792 123.326 22.4764C122.704 22.1614 122.005 22.0036 121.23 22.0036C120.421 22.0036 119.703 22.1692 119.072 22.5004C118.442 22.8316 117.917 23.2678 117.497 23.809C117.076 24.3508 116.758 24.9646 116.539 25.651C116.321 26.3392 116.212 27.0376 116.212 27.7486Z" fill="#263238"/>
<path d="M137.736 36.5991C136.701 36.5991 135.773 36.4215 134.949 36.0657C134.124 35.7105 133.425 35.2293 132.852 34.6239C132.278 34.0179 131.838 33.3189 131.531 32.5269C131.223 31.7355 131.07 30.9027 131.07 30.0303C131.07 29.1417 131.223 28.3017 131.531 27.5097C131.837 26.7183 132.278 26.0193 132.852 25.4133C133.425 24.8073 134.124 24.3267 134.949 23.9709C135.773 23.6157 136.701 23.4375 137.736 23.4375C138.77 23.4375 139.695 23.6157 140.511 23.9709C141.327 24.3267 142.022 24.8073 142.596 25.4133C143.169 26.0193 143.61 26.7183 143.917 27.5097C144.224 28.3017 144.377 29.1417 144.377 30.0303C144.377 30.9027 144.224 31.7355 143.917 32.5269C143.61 33.3189 143.174 34.0173 142.608 34.6239C142.043 35.2299 141.348 35.7111 140.524 36.0657C139.699 36.4209 138.77 36.5991 137.736 36.5991ZM134.415 30.0303C134.415 30.5961 134.5 31.1091 134.669 31.5693C134.839 32.0301 135.073 32.4297 135.372 32.7693C135.671 33.1083 136.022 33.3711 136.426 33.5571C136.83 33.7431 137.266 33.8361 137.735 33.8361C138.204 33.8361 138.64 33.7431 139.044 33.5571C139.448 33.3717 139.799 33.1089 140.098 32.7693C140.397 32.4297 140.631 32.0259 140.801 31.5573C140.97 31.0887 141.055 30.5721 141.055 30.0063C141.055 29.4573 140.97 28.9485 140.801 28.4793C140.631 28.0107 140.397 27.6069 140.098 27.2673C139.799 26.9277 139.447 26.6655 139.044 26.4795C138.64 26.2935 138.204 26.2005 137.735 26.2005C137.266 26.2005 136.83 26.2977 136.426 26.4915C136.022 26.6853 135.671 26.9523 135.372 27.2913C135.072 27.6309 134.838 28.0347 134.669 28.5033C134.499 28.9725 134.415 29.4813 134.415 30.0303Z" fill="#263238"/>
<path d="M154.168 36.5991C153.166 36.5991 152.294 36.3771 151.551 35.9325C150.807 35.4885 150.225 34.8867 149.805 34.1271V41.5197H146.558V23.6559H149.393V25.8369C149.862 25.0941 150.468 24.5079 151.211 24.0795C151.954 23.6517 152.811 23.4375 153.78 23.4375C154.637 23.4375 155.428 23.6115 156.155 23.9589C156.882 24.3063 157.509 24.7749 158.034 25.3647C158.559 25.9545 158.971 26.6493 159.27 27.4491C159.569 28.2489 159.719 29.0937 159.719 29.9823C159.719 30.9033 159.581 31.7679 159.306 32.5755C159.032 33.3837 158.648 34.0869 158.155 34.6845C157.662 35.2827 157.076 35.7507 156.398 36.0903C155.72 36.4293 154.976 36.5991 154.168 36.5991ZM153.078 33.8361C153.563 33.8361 154.011 33.7311 154.423 33.5211C154.835 33.3111 155.186 33.0285 155.477 32.6727C155.768 32.3175 155.994 31.9053 156.156 31.4361C156.318 30.9675 156.398 30.4833 156.398 29.9823C156.398 29.4489 156.309 28.9521 156.132 28.4919C155.954 28.0311 155.708 27.6315 155.393 27.2919C155.078 26.9529 154.706 26.6859 154.278 26.4921C153.849 26.2983 153.385 26.2011 152.885 26.2011C152.577 26.2011 152.262 26.2539 151.94 26.3589C151.616 26.4639 151.317 26.6133 151.043 26.8077C150.768 27.0015 150.522 27.2283 150.303 27.4863C150.086 27.7449 149.919 28.0281 149.807 28.3347V31.3161C150.098 32.0433 150.542 32.6451 151.14 33.1215C151.736 33.5979 152.383 33.8361 153.078 33.8361Z" fill="#263238"/>
<path d="M166.723 36.6003C165.657 36.6003 164.614 36.4305 163.597 36.0915C162.579 35.7525 161.706 35.2671 160.979 34.6371L162.191 32.6013C162.967 33.1509 163.722 33.5667 164.457 33.8493C165.193 34.1325 165.924 34.2735 166.651 34.2735C167.296 34.2735 167.806 34.1523 168.178 33.9099C168.549 33.6675 168.735 33.3201 168.735 32.8677C168.735 32.4153 168.517 32.0841 168.081 31.8741C167.644 31.6641 166.933 31.4217 165.948 31.1469C165.124 30.9207 164.421 30.7023 163.839 30.4923C163.257 30.2823 162.788 30.0441 162.433 29.7771C162.077 29.5107 161.819 29.2035 161.657 28.8561C161.495 28.5087 161.415 28.0923 161.415 27.6075C161.415 26.9613 161.54 26.3799 161.791 25.8621C162.041 25.3455 162.393 24.9045 162.845 24.5409C163.297 24.1773 163.827 23.8989 164.433 23.7051C165.039 23.5113 165.696 23.4141 166.408 23.4141C167.361 23.4141 168.253 23.5515 169.086 23.8263C169.918 24.1011 170.682 24.5451 171.376 25.1595L170.067 27.1227C169.421 26.6379 168.795 26.2827 168.189 26.0565C167.583 25.8303 166.981 25.7175 166.383 25.7175C165.834 25.7175 165.373 25.8309 165.001 26.0565C164.629 26.2827 164.443 26.6463 164.443 27.1473C164.443 27.3735 164.488 27.5595 164.577 27.7047C164.665 27.8499 164.808 27.9795 165.001 28.0923C165.195 28.2057 165.45 28.3149 165.765 28.4193C166.08 28.5249 166.471 28.6335 166.94 28.7463C167.812 28.9725 168.559 29.1987 169.182 29.4249C169.804 29.6511 170.313 29.9097 170.709 30.2001C171.105 30.4911 171.396 30.8265 171.582 31.2057C171.767 31.5855 171.86 32.0421 171.86 32.5755C171.86 33.8199 171.4 34.8015 170.478 35.5203C169.56 36.2409 168.307 36.6003 166.723 36.6003Z" fill="#263238"/>
<path d="M174.6 29.884V18.9766H177.848V29.884H174.6ZM174.6 36.3556V32.6956H177.848V36.3556H174.6Z" fill="#263238"/>
<path d="M162.36 188.305H141.053V190.05H162.36V188.305Z" fill="#37474F"/>
<path d="M162.36 190.578H141.053V192.324H162.36V190.578Z" fill="#37474F"/>
<path d="M162.36 192.852H141.053V194.597H162.36V192.852Z" fill="#37474F"/>
<path d="M162.36 195.125H141.053V196.87H162.36V195.125Z" fill="#37474F"/>
<path d="M162.36 197.398H141.053V199.144H162.36V197.398Z" fill="#37474F"/>
<path d="M171.584 242.758H131.075V244.503H171.584V242.758Z" fill="#37474F"/>
<path d="M171.584 245.031H131.075V246.777H171.584V245.031Z" fill="#37474F"/>
<path d="M171.584 247.305H131.075V249.05H171.584V247.305Z" fill="#37474F"/>
<path d="M171.584 249.578H131.075V251.324H171.584V249.578Z" fill="#37474F"/>
<path d="M171.584 251.852H131.075V253.597H171.584V251.852Z" fill="#37474F"/>
<path d="M113.3 173.882C113.32 173.646 104.434 170.669 104.434 170.669L104.959 140.138L116.742 137.609L113.3 173.882Z" fill="#FF4F4F"/>
<path opacity="0.2" d="M113.3 173.882C113.32 173.646 104.434 170.669 104.434 170.669L104.959 140.138L116.742 137.609L113.3 173.882Z" fill="black"/>
<path d="M194.693 185.867C194.756 185.638 204.124 185.901 204.124 185.901L214.138 157.054L203.945 150.625L194.693 185.867Z" fill="#FF4F4F"/>
<path opacity="0.2" d="M194.693 185.867C194.756 185.638 204.124 185.901 204.124 185.901L214.138 157.054L203.945 150.625L194.693 185.867Z" fill="black"/>
<path d="M111.59 185.123C111.59 185.123 114.884 135.744 117.774 119.5C117.774 119.5 177.424 124.011 209.626 136.319C209.626 136.319 193.024 193.996 192.165 196.858C192.165 196.858 150.16 188.583 111.59 185.123Z" fill="#FF4F4F"/>
<path opacity="0.1" d="M164.833 126.094C163.864 132.039 162.882 137.983 161.866 143.92L158.792 161.728L158.626 161.476L178.613 166.224L188.596 168.643L198.567 171.111L188.543 168.867L178.53 166.576L158.525 161.904L158.323 161.856L158.36 161.652L161.543 143.863C162.613 137.935 163.717 132.013 164.833 126.094Z" fill="black"/>
<path opacity="0.1" d="M162.64 129.486C162.651 130.03 162.216 130.59 161.592 130.645C161.29 130.674 160.961 130.577 160.715 130.363C160.469 130.149 160.322 129.819 160.32 129.486C160.322 129.153 160.468 128.822 160.715 128.608C160.96 128.392 161.29 128.297 161.592 128.325C162.217 128.38 162.651 128.941 162.64 129.486ZM162.64 129.486C162.638 129.211 162.516 128.941 162.311 128.767C162.106 128.594 161.837 128.523 161.593 128.551C161.09 128.61 160.763 129.061 160.77 129.486C160.763 129.91 161.088 130.364 161.593 130.421C161.837 130.449 162.107 130.378 162.312 130.204C162.516 130.03 162.638 129.76 162.64 129.486Z" fill="black"/>
<path opacity="0.1" d="M161.593 136.829C161.603 137.374 161.169 137.935 160.545 137.989C160.243 138.017 159.914 137.921 159.668 137.707C159.422 137.492 159.275 137.162 159.273 136.829C159.275 136.496 159.421 136.166 159.667 135.952C159.913 135.736 160.243 135.641 160.545 135.669C161.17 135.724 161.604 136.285 161.593 136.829ZM161.593 136.829C161.59 136.555 161.468 136.285 161.264 136.111C161.059 135.938 160.79 135.867 160.546 135.895C160.042 135.953 159.716 136.405 159.723 136.829C159.715 137.254 160.041 137.708 160.546 137.765C160.79 137.792 161.059 137.722 161.264 137.548C161.469 137.375 161.59 137.104 161.593 136.829Z" fill="black"/>
<path opacity="0.1" d="M160.303 144.595C160.313 145.14 159.879 145.7 159.255 145.754C158.953 145.783 158.624 145.687 158.378 145.472C158.132 145.258 157.985 144.928 157.983 144.595C157.985 144.262 158.131 143.931 158.377 143.717C158.623 143.501 158.953 143.406 159.255 143.435C159.88 143.49 160.314 144.05 160.303 144.595ZM160.303 144.595C160.3 144.32 160.178 144.05 159.974 143.877C159.769 143.703 159.5 143.633 159.256 143.661C158.752 143.719 158.426 144.171 158.433 144.595C158.425 145.019 158.751 145.473 159.256 145.53C159.5 145.559 159.769 145.487 159.974 145.314C160.178 145.14 160.3 144.87 160.303 144.595Z" fill="black"/>
<path opacity="0.1" d="M159.012 152.353C159.024 152.898 158.589 153.457 157.965 153.512C157.662 153.54 157.334 153.444 157.088 153.23C156.842 153.016 156.695 152.686 156.693 152.353C156.694 152.02 156.841 151.689 157.087 151.475C157.332 151.259 157.662 151.164 157.965 151.192C158.59 151.247 159.024 151.808 159.012 152.353ZM159.012 152.353C159.01 152.078 158.888 151.808 158.683 151.635C158.478 151.461 158.209 151.39 157.965 151.419C157.461 151.477 157.135 151.929 157.142 152.353C157.134 152.777 157.46 153.231 157.965 153.288C158.209 153.316 158.478 153.245 158.684 153.072C158.888 152.898 159.01 152.628 159.012 152.353Z" fill="black"/>
<path opacity="0.1" d="M163.408 164.736C163.419 165.28 162.984 165.84 162.36 165.895C162.058 165.923 161.729 165.827 161.483 165.613C161.237 165.399 161.09 165.069 161.088 164.736C161.09 164.403 161.236 164.072 161.483 163.858C161.728 163.642 162.058 163.547 162.36 163.575C162.985 163.63 163.419 164.191 163.408 164.736ZM163.408 164.736C163.406 164.461 163.284 164.191 163.079 164.017C162.873 163.844 162.605 163.773 162.36 163.801C161.857 163.86 161.531 164.311 161.538 164.736C161.53 165.16 161.856 165.614 162.36 165.671C162.605 165.699 162.874 165.628 163.079 165.454C163.284 165.28 163.405 165.01 163.408 164.736Z" fill="black"/>
<path opacity="0.1" d="M170.736 166.525C170.747 167.069 170.312 167.63 169.688 167.684C169.386 167.712 169.057 167.616 168.811 167.402C168.565 167.188 168.418 166.858 168.416 166.525C168.418 166.192 168.564 165.861 168.81 165.647C169.056 165.431 169.386 165.336 169.688 165.364C170.313 165.419 170.747 165.98 170.736 166.525ZM170.736 166.525C170.733 166.25 170.611 165.98 170.407 165.806C170.202 165.633 169.933 165.562 169.689 165.59C169.185 165.649 168.859 166.1 168.866 166.525C168.858 166.949 169.184 167.403 169.689 167.46C169.933 167.488 170.202 167.417 170.407 167.243C170.611 167.069 170.733 166.799 170.736 166.525Z" fill="black"/>
<path opacity="0.1" d="M178.064 168.314C178.075 168.858 177.641 169.418 177.017 169.473C176.714 169.501 176.385 169.405 176.139 169.191C175.893 168.977 175.746 168.647 175.745 168.314C175.746 167.981 175.892 167.65 176.139 167.436C176.384 167.22 176.714 167.125 177.017 167.153C177.641 167.208 178.075 167.769 178.064 168.314ZM178.064 168.314C178.062 168.039 177.94 167.769 177.735 167.595C177.53 167.422 177.261 167.351 177.017 167.379C176.514 167.438 176.187 167.889 176.195 168.314C176.187 168.738 176.513 169.192 177.017 169.249C177.261 169.277 177.531 169.206 177.736 169.032C177.94 168.858 178.061 168.588 178.064 168.314Z" fill="black"/>
<path opacity="0.1" d="M185.392 170.103C185.403 170.648 184.968 171.207 184.344 171.262C184.042 171.29 183.713 171.195 183.467 170.98C183.221 170.766 183.074 170.436 183.072 170.103C183.074 169.77 183.22 169.439 183.466 169.225C183.712 169.009 184.042 168.914 184.344 168.942C184.969 168.997 185.403 169.558 185.392 170.103ZM185.392 170.103C185.389 169.828 185.268 169.558 185.063 169.385C184.858 169.211 184.589 169.14 184.345 169.169C183.841 169.227 183.515 169.679 183.522 170.103C183.514 170.527 183.84 170.981 184.345 171.038C184.589 171.066 184.858 170.995 185.064 170.822C185.268 170.648 185.389 170.378 185.392 170.103Z" fill="black"/>
<path opacity="0.1" d="M192.717 171.965C192.686 172.509 192.21 173.034 191.583 173.04C191.28 173.045 190.959 172.924 190.73 172.691C190.501 172.458 190.38 172.119 190.404 171.786C190.431 171.455 190.602 171.137 190.865 170.942C191.126 170.745 191.462 170.676 191.762 170.727C192.381 170.83 192.77 171.423 192.717 171.965ZM192.717 171.965C192.735 171.69 192.635 171.412 192.444 171.223C192.252 171.034 191.99 170.943 191.744 170.952C191.238 170.972 190.877 171.397 190.852 171.821C190.811 172.243 191.102 172.721 191.6 172.817C191.841 172.863 192.116 172.814 192.333 172.656C192.551 172.499 192.693 172.239 192.717 171.965Z" fill="black"/>
<path opacity="0.1" d="M157.722 160.119C157.733 160.663 157.299 161.224 156.675 161.278C156.372 161.307 156.044 161.211 155.798 160.996C155.552 160.782 155.405 160.452 155.403 160.119C155.405 159.786 155.551 159.455 155.797 159.241C156.042 159.025 156.372 158.929 156.675 158.958C157.3 159.013 157.734 159.574 157.722 160.119ZM157.722 160.119C157.72 159.844 157.598 159.574 157.393 159.4C157.188 159.227 156.919 159.156 156.675 159.184C156.171 159.243 155.845 159.694 155.852 160.119C155.844 160.543 156.17 160.997 156.675 161.054C156.919 161.082 157.188 161.011 157.393 160.837C157.599 160.663 157.72 160.393 157.722 160.119Z" fill="black"/>
<path opacity="0.2" d="M145.382 172.983C152.338 166.728 152.907 156.019 146.652 149.062C140.397 142.106 129.688 141.537 122.731 147.792C115.775 154.047 115.206 164.756 121.461 171.713C127.716 178.669 138.425 179.238 145.382 172.983Z" fill="black"/>
<path d="M146.756 165.203C149.412 158.186 145.877 150.345 138.86 147.689C131.844 145.033 124.003 148.568 121.347 155.585C118.691 162.601 122.226 170.442 129.242 173.098C136.259 175.754 144.1 172.219 146.756 165.203Z" fill="#263238"/>
<path d="M133.238 155.389L130.062 154.875L129.548 158.051L132.723 158.565L133.238 155.389Z" fill="#FF4F4F"/>
<path d="M130.576 151.702L127.4 151.188L126.886 154.363L130.062 154.878L130.576 151.702Z" fill="#FF4F4F"/>
<path d="M143.279 153.757L140.104 153.242L139.589 156.418L142.765 156.932L143.279 153.757Z" fill="#FF4F4F"/>
<path d="M128.53 164.335L125.354 163.82L124.84 166.996L128.016 167.51L128.53 164.335Z" fill="#FF4F4F"/>
<path d="M141.233 166.389L138.057 165.875L137.543 169.051L140.718 169.565L141.233 166.389Z" fill="#FF4F4F"/>
<path d="M132.22 161.671L129.044 161.156L128.53 164.332L131.706 164.846L132.22 161.671Z" fill="#FF4F4F"/>
<path d="M135.905 159.046L132.729 158.531L132.215 161.707L135.39 162.221L135.905 159.046Z" fill="#FF4F4F"/>
<path d="M139.589 156.421L136.414 155.906L135.899 159.082L139.075 159.596L139.589 156.421Z" fill="#FF4F4F"/>
<path d="M138.575 162.702L135.399 162.188L134.885 165.363L138.061 165.878L138.575 162.702Z" fill="#FF4F4F"/>
<path d="M192.616 178.213C198.546 170.977 197.486 160.305 190.25 154.375C183.014 148.446 172.342 149.506 166.412 156.742C160.483 163.978 161.543 174.65 168.779 180.579C176.015 186.509 186.687 185.449 192.616 178.213Z" fill="#FF4F4F"/>
<path opacity="0.2" d="M192.616 178.213C198.546 170.977 197.486 160.305 190.25 154.375C183.014 148.446 172.342 149.506 166.412 156.742C160.483 163.978 161.543 174.65 168.779 180.579C176.015 186.509 186.687 185.449 192.616 178.213Z" fill="black"/>
<path opacity="0.2" d="M195.996 171.409C195.918 171.742 195.829 172.064 195.729 172.387L162.712 165.344C162.79 164.755 162.896 164.166 163.034 163.571C165.197 154.472 174.328 148.847 183.433 151.009C192.533 153.172 198.158 162.304 195.996 171.409Z" fill="black"/>
<path d="M184.749 180.02C191.672 177.127 194.939 169.171 192.047 162.248C189.154 155.326 181.198 152.058 174.275 154.951C167.353 157.843 164.085 165.799 166.978 172.722C169.87 179.645 177.826 182.912 184.749 180.02Z" fill="#263238"/>
<path d="M182.934 160.064L179.804 159.32L176.101 174.9L179.231 175.644L182.934 160.064Z" fill="#FF4F4F"/>
<path d="M196.978 171.085L162.298 162.843C164.574 153.268 174.183 147.352 183.758 149.627C193.333 151.904 199.254 161.51 196.978 171.085Z" fill="#FF4F4F"/>
<path opacity="0.2" d="M196.978 171.085L162.298 162.843C164.574 153.268 174.183 147.352 183.758 149.627C193.333 151.904 199.254 161.51 196.978 171.085Z" fill="black"/>
<path opacity="0.1" d="M150.042 177.558C150.13 176.204 150.627 174.83 151.61 173.744C152.094 173.197 152.74 172.767 153.452 172.506C154.167 172.243 154.94 172.197 155.672 172.259C156.418 172.346 157.179 172.609 157.801 173.079C158.411 173.559 158.878 174.185 159.153 174.859C159.719 176.202 159.78 177.637 159.506 178.968C159.281 177.638 158.937 176.346 158.312 175.286C157.692 174.217 156.712 173.553 155.544 173.45C154.352 173.301 153.189 173.621 152.253 174.413C151.316 175.202 150.601 176.331 150.042 177.558Z" fill="black"/>
<path d="M116.229 143.008C116.37 141.198 116.573 139.397 116.745 137.592C116.937 135.789 117.135 133.987 117.354 132.189C117.563 130.389 117.797 128.593 118.028 126.795C118.253 124.998 118.514 123.205 118.755 121.409L118.819 120.93L119.305 120.96C123.213 121.206 127.113 121.522 131.008 121.923C132.955 122.122 134.9 122.349 136.842 122.598C138.78 122.877 140.722 123.133 142.649 123.486L130.939 122.761L119.241 122.005L119.791 121.556C119.525 123.348 119.278 125.143 118.997 126.933C118.719 128.723 118.446 130.514 118.148 132.301C117.86 134.09 117.551 135.876 117.236 137.661C116.9 139.443 116.596 141.23 116.229 143.008Z" fill="white"/>
<path d="M119.046 156.7C119.439 154.525 120.428 152.452 121.757 150.646C122.087 150.192 122.463 149.773 122.825 149.341C123.217 148.936 123.624 148.545 124.026 148.148C124.465 147.792 124.908 147.439 125.358 147.096C125.836 146.793 126.308 146.477 126.794 146.186C127.306 145.94 127.815 145.687 128.331 145.453L129.941 144.896L131.606 144.552C132.165 144.47 132.734 144.453 133.295 144.411C135.553 144.353 137.776 144.835 139.816 145.661C137.645 145.254 135.481 145.028 133.348 145.232C131.22 145.43 129.153 146.066 127.304 147.107C125.441 148.124 123.791 149.527 122.397 151.157C121.01 152.795 119.861 154.65 119.046 156.7Z" fill="white"/>
<path d="M165.772 161.275C166.462 159.174 167.727 157.258 169.292 155.653C169.682 155.249 170.113 154.885 170.531 154.507C170.975 154.161 171.432 153.83 171.885 153.492C172.369 153.199 172.856 152.911 173.349 152.633C173.865 152.399 174.376 152.151 174.898 151.93C175.439 151.757 175.978 151.577 176.522 151.417L178.193 151.087L179.89 150.977C180.455 150.973 181.02 151.034 181.581 151.07C183.827 151.324 185.961 152.108 187.868 153.208C185.773 152.506 183.662 151.983 181.521 151.891C179.386 151.793 177.251 152.138 175.276 152.914C173.291 153.664 171.462 154.826 169.857 156.247C168.255 157.678 166.861 159.356 165.772 161.275Z" fill="white"/>
<path d="M113.484 215.547C109.145 215.547 99.6459 214.571 93.5331 206.712C85.7127 196.657 88.5393 177.363 88.6629 176.547L92.0583 177.062C92.0301 177.248 89.3319 195.716 96.2439 204.603C103.002 213.292 115.259 212.045 115.382 212.03L115.769 215.442C115.635 215.458 114.794 215.547 113.484 215.547Z" fill="#FF4F4F"/>
<path opacity="0.4" d="M113.484 215.547C109.145 215.547 99.6459 214.571 93.5331 206.712C85.7127 196.657 88.5393 177.363 88.6629 176.547L92.0583 177.062C92.0301 177.248 89.3319 195.716 96.2439 204.603C103.002 213.292 115.259 212.045 115.382 212.03L115.769 215.442C115.635 215.458 114.794 215.547 113.484 215.547Z" fill="white"/>
<path d="M93.058 179.401C92.4388 179.401 91.8064 179.349 91.1626 179.245C85.435 178.317 82.8994 174.89 81.7804 172.178C80.659 169.46 80.3998 166.172 81.01 162.406L88.2736 163.583C87.8956 165.916 88.0054 167.972 88.5826 169.372C88.9942 170.37 89.7934 171.569 92.3392 171.981C93.502 172.169 94.759 172.07 96.0754 170.084C97.0912 168.552 97.702 166.466 97.9156 165.145L105.179 166.322C105.011 167.361 104.299 170.997 102.208 174.151C99.934 177.581 96.733 179.401 93.058 179.401Z" fill="#FF4F4F"/>
<path d="M120.66 225.377C120.647 225.22 114.506 224.239 114.506 224.239L111.525 204.196L118.964 201.258L120.66 225.377Z" fill="#FF4F4F"/>
<path opacity="0.2" d="M120.66 225.377C120.647 225.22 114.506 224.239 114.506 224.239L111.525 204.196L118.964 201.258L120.66 225.377Z" fill="black"/>
<path d="M181.377 225.412C181.394 225.256 187.555 224.41 187.555 224.41L190.978 204.438L183.606 201.336L181.377 225.412Z" fill="#FF4F4F"/>
<path opacity="0.2" d="M181.377 225.412C181.394 225.256 187.555 224.41 187.555 224.41L190.978 204.438L183.606 201.336L181.377 225.412Z" fill="black"/>
<path d="M118.104 196.772C118.104 196.772 167.776 194.648 184.555 197.445C184.555 197.445 179.628 245.509 179.361 246.441C179.361 246.441 129.951 246.308 122.227 246.441C122.227 246.441 118.041 214.481 118.104 196.772Z" fill="#FF4F4F"/>
<path opacity="0.2" d="M133.193 209.944C133.193 209.944 160.309 208.873 169.469 210.283C169.469 210.283 166.78 234.52 166.634 234.989C166.634 234.989 139.661 234.922 135.445 234.989C135.443 234.989 133.591 218.402 133.193 209.944Z" fill="black"/>
<path opacity="0.2" d="M136.898 234.979C136.277 234.979 135.785 234.987 135.441 234.991C135.441 234.991 133.591 218.4 133.19 209.943C133.19 209.943 133.807 209.919 134.884 209.883L136.898 234.979Z" fill="black"/>
<path d="M144.896 215.923C143.376 215.444 141.757 216.288 141.278 217.806C140.799 219.328 141.644 220.946 143.163 221.424C144.682 221.903 146.3 221.06 146.778 219.54C147.257 218.022 146.415 216.402 144.896 215.923ZM146.444 219.435C146.024 220.771 144.602 221.511 143.268 221.09C141.935 220.67 141.194 219.249 141.615 217.913C142.035 216.579 143.457 215.838 144.792 216.26C146.124 216.68 146.865 218.101 146.444 219.435ZM144.896 215.923C143.376 215.444 141.757 216.288 141.278 217.806C140.799 219.328 141.644 220.946 143.163 221.424C144.682 221.903 146.3 221.06 146.778 219.54C147.257 218.022 146.415 216.402 144.896 215.923ZM146.444 219.435C146.024 220.771 144.602 221.511 143.268 221.09C141.935 220.67 141.194 219.249 141.615 217.913C142.035 216.579 143.457 215.838 144.792 216.26C146.124 216.68 146.865 218.101 146.444 219.435ZM144.896 215.923C143.376 215.444 141.757 216.288 141.278 217.806C140.799 219.328 141.644 220.946 143.163 221.424C144.682 221.903 146.3 221.06 146.778 219.54C147.257 218.022 146.415 216.402 144.896 215.923ZM146.444 219.435C146.024 220.771 144.602 221.511 143.268 221.09C141.935 220.67 141.194 219.249 141.615 217.913C142.035 216.579 143.457 215.838 144.792 216.26C146.124 216.68 146.865 218.101 146.444 219.435ZM145.857 212.876C142.653 211.867 139.241 213.647 138.231 216.847C137.222 220.049 138.999 223.463 142.202 224.472C145.402 225.48 148.817 223.702 149.826 220.501C150.836 217.301 149.058 213.884 145.857 212.876ZM147.207 219.675C146.655 221.429 144.78 222.406 143.028 221.853C141.276 221.301 140.3 219.426 140.852 217.673C141.404 215.919 143.28 214.944 145.032 215.496C146.783 216.048 147.759 217.923 147.207 219.675ZM146.778 219.541C147.257 218.023 146.415 216.402 144.896 215.924C143.376 215.445 141.757 216.288 141.278 217.807C140.799 219.329 141.644 220.946 143.163 221.425C144.682 221.904 146.3 221.061 146.778 219.541ZM146.444 219.435C146.024 220.771 144.602 221.511 143.268 221.09C141.935 220.67 141.194 219.249 141.615 217.913C142.035 216.579 143.457 215.838 144.792 216.26C146.124 216.68 146.865 218.101 146.444 219.435ZM144.896 215.923C143.376 215.444 141.757 216.288 141.278 217.806C140.799 219.328 141.644 220.946 143.163 221.424C144.682 221.903 146.3 221.06 146.778 219.54C147.257 218.022 146.415 216.402 144.896 215.923ZM146.444 219.435C146.024 220.771 144.602 221.511 143.268 221.09C141.935 220.67 141.194 219.249 141.615 217.913C142.035 216.579 143.457 215.838 144.792 216.26C146.124 216.68 146.865 218.101 146.444 219.435ZM144.896 215.923C143.376 215.444 141.757 216.288 141.278 217.806C140.799 219.328 141.644 220.946 143.163 221.424C144.682 221.903 146.3 221.06 146.778 219.54C147.257 218.022 146.415 216.402 144.896 215.923ZM146.444 219.435C146.024 220.771 144.602 221.511 143.268 221.09C141.935 220.67 141.194 219.249 141.615 217.913C142.035 216.579 143.457 215.838 144.792 216.26C146.124 216.68 146.865 218.101 146.444 219.435Z" fill="#FF4F4F"/>
<path d="M143.392 224.578L141.163 223.875L140.789 225.492L142.772 226.117L143.392 224.578Z" fill="#FF4F4F"/>
<path d="M139.387 222.495L138.307 220.422L136.899 221.301L137.859 223.145L139.387 222.495Z" fill="#FF4F4F"/>
<path d="M138.03 218.181L138.732 215.952L137.115 215.578L136.49 217.561L138.03 218.181Z" fill="#FF4F4F"/>
<path d="M140.118 214.175L142.191 213.096L141.312 211.688L139.468 212.648L140.118 214.175Z" fill="#FF4F4F"/>
<path d="M144.427 212.82L146.657 213.523L147.031 211.906L145.048 211.281L144.427 212.82Z" fill="#FF4F4F"/>
<path d="M148.434 214.907L149.513 216.98L150.921 216.102L149.961 214.258L148.434 214.907Z" fill="#FF4F4F"/>
<path d="M149.79 219.219L149.088 221.448L150.705 221.822L151.329 219.839L149.79 219.219Z" fill="#FF4F4F"/>
<path d="M147.703 223.227L145.629 224.307L146.508 225.714L148.352 224.754L147.703 223.227Z" fill="#FF4F4F"/>
<path d="M154.701 224.41C153.802 223.825 152.599 224.08 152.014 224.977C151.428 225.877 151.684 227.079 152.583 227.665C153.481 228.25 154.682 227.995 155.268 227.097C155.853 226.199 155.599 224.995 154.701 224.41ZM155.07 226.968C154.556 227.758 153.5 227.981 152.711 227.467C151.922 226.953 151.699 225.897 152.213 225.108C152.727 224.319 153.783 224.095 154.572 224.61C155.361 225.123 155.584 226.179 155.07 226.968ZM154.701 224.41C153.802 223.825 152.599 224.08 152.014 224.977C151.428 225.877 151.684 227.079 152.583 227.665C153.481 228.25 154.682 227.995 155.268 227.097C155.853 226.199 155.599 224.995 154.701 224.41ZM155.07 226.968C154.556 227.758 153.5 227.981 152.711 227.467C151.922 226.953 151.699 225.897 152.213 225.108C152.727 224.319 153.783 224.095 154.572 224.61C155.361 225.123 155.584 226.179 155.07 226.968ZM154.701 224.41C153.802 223.825 152.599 224.08 152.014 224.977C151.428 225.877 151.684 227.079 152.583 227.665C153.481 228.25 154.682 227.995 155.268 227.097C155.853 226.199 155.599 224.995 154.701 224.41ZM155.07 226.968C154.556 227.758 153.5 227.981 152.711 227.467C151.922 226.953 151.699 225.897 152.213 225.108C152.727 224.319 153.783 224.095 154.572 224.61C155.361 225.123 155.584 226.179 155.07 226.968ZM155.875 222.609C153.979 221.375 151.445 221.912 150.211 223.805C148.978 225.699 149.513 228.235 151.408 229.468C153.301 230.7 155.837 230.164 157.07 228.271C158.304 226.378 157.768 223.841 155.875 222.609ZM155.521 227.262C154.846 228.299 153.454 228.594 152.418 227.919C151.381 227.244 151.086 225.852 151.762 224.814C152.437 223.777 153.83 223.483 154.866 224.158C155.902 224.833 156.196 226.225 155.521 227.262ZM155.268 227.097C155.853 226.198 155.599 224.996 154.701 224.411C153.802 223.825 152.599 224.08 152.014 224.978C151.428 225.878 151.684 227.08 152.583 227.665C153.481 228.25 154.682 227.995 155.268 227.097ZM155.07 226.968C154.556 227.758 153.5 227.981 152.711 227.467C151.922 226.953 151.699 225.897 152.213 225.108C152.727 224.319 153.783 224.095 154.572 224.61C155.361 225.123 155.584 226.179 155.07 226.968ZM154.701 224.41C153.802 223.825 152.599 224.08 152.014 224.977C151.428 225.877 151.684 227.079 152.583 227.665C153.481 228.25 154.682 227.995 155.268 227.097C155.853 226.199 155.599 224.995 154.701 224.41ZM155.07 226.968C154.556 227.758 153.5 227.981 152.711 227.467C151.922 226.953 151.699 225.897 152.213 225.108C152.727 224.319 153.783 224.095 154.572 224.61C155.361 225.123 155.584 226.179 155.07 226.968ZM154.701 224.41C153.802 223.825 152.599 224.08 152.014 224.977C151.428 225.877 151.684 227.079 152.583 227.665C153.481 228.25 154.682 227.995 155.268 227.097C155.853 226.199 155.599 224.995 154.701 224.41ZM155.07 226.968C154.556 227.758 153.5 227.981 152.711 227.467C151.922 226.953 151.699 225.897 152.213 225.108C152.727 224.319 153.783 224.095 154.572 224.61C155.361 225.123 155.584 226.179 155.07 226.968Z" fill="#DBDBDB"/>
<path d="M152.16 229.749L150.841 228.891L150.307 229.872L151.48 230.635L152.16 229.749Z" fill="#DBDBDB"/>
<path d="M149.939 227.672L149.614 226.133L148.542 226.448L148.832 227.818L149.939 227.672Z" fill="#DBDBDB"/>
<path d="M149.839 224.635L150.698 223.316L149.717 222.781L148.953 223.954L149.839 224.635Z" fill="#DBDBDB"/>
<path d="M151.918 222.412L153.457 222.087L153.142 221.016L151.772 221.305L151.918 222.412Z" fill="#DBDBDB"/>
<path d="M154.958 222.316L156.276 223.175L156.811 222.193L155.638 221.43L154.958 222.316Z" fill="#DBDBDB"/>
<path d="M157.178 224.387L157.503 225.927L158.575 225.611L158.286 224.242L157.178 224.387Z" fill="#DBDBDB"/>
<path d="M157.279 227.43L156.42 228.748L157.401 229.283L158.165 228.11L157.279 227.43Z" fill="#DBDBDB"/>
<path d="M155.2 229.648L153.661 229.974L153.976 231.045L155.345 230.756L155.2 229.648Z" fill="#DBDBDB"/>
<path d="M183.356 240.849L185.265 241.204L190.725 204.228L188.55 203.828L183.356 240.849Z" fill="#FF4F4F"/>
<path d="M166.632 234.989L169.467 210.283L188.55 203.828C188.55 203.828 183.356 241.248 183.356 240.849L166.632 234.989Z" fill="#FF4F4F"/>
<path opacity="0.4" d="M166.632 234.989L169.467 210.283L188.55 203.828C188.55 203.828 183.356 241.248 183.356 240.849L166.632 234.989Z" fill="white"/>
<path d="M120.384 211.278C120.073 209.231 119.905 207.168 119.777 205.103C119.718 204.069 119.692 203.035 119.669 202.001C119.649 200.966 119.631 199.931 119.661 198.896L119.67 198.624L119.934 198.609C123.725 198.406 127.514 198.157 131.307 197.991C135.099 197.804 138.891 197.634 142.686 197.516C138.903 197.858 135.118 198.15 131.332 198.425C127.547 198.72 123.758 198.933 119.972 199.191L120.244 198.905L120.228 201.995L120.264 205.086C120.27 206.117 120.288 207.148 120.318 208.179L120.384 211.278Z" fill="white"/>
<path d="M172.129 210.645C173.311 210.083 174.512 209.561 175.727 209.08C176.938 208.586 178.16 208.12 179.397 207.691C180.635 207.268 181.878 206.854 183.141 206.503C184.403 206.148 185.676 205.82 186.977 205.607L187.296 205.555L187.239 205.86C186.94 207.46 186.627 209.057 186.257 210.645C186.395 209.02 186.591 207.404 186.8 205.79L187.063 206.044C185.802 206.344 184.552 206.696 183.305 207.064C182.06 207.437 180.818 207.829 179.579 208.232L172.129 210.645Z" fill="white"/>
<path opacity="0.1" d="M128.642 196.867L128.963 203.047L129.238 209.228L129.714 221.593L130.087 233.961L130.236 240.146L130.338 246.334L130.016 240.154L129.741 233.973L129.265 221.608L128.894 209.24L128.744 203.054L128.642 196.867Z" fill="black"/>
<path opacity="0.1" d="M126.872 200.594C126.99 201.126 126.675 201.761 126.074 201.937C125.783 202.025 125.442 201.996 125.159 201.834C124.875 201.673 124.665 201.379 124.598 201.052C124.534 200.725 124.612 200.372 124.811 200.114C125.009 199.854 125.314 199.695 125.616 199.663C126.239 199.594 126.775 200.058 126.872 200.594ZM126.872 200.594C126.815 200.325 126.642 200.084 126.407 199.955C126.172 199.825 125.894 199.809 125.66 199.885C125.178 200.042 124.947 200.549 125.039 200.964C125.115 201.381 125.524 201.762 126.03 201.718C126.275 201.697 126.525 201.575 126.691 201.364C126.858 201.153 126.923 200.864 126.872 200.594Z" fill="black"/>
<path opacity="0.1" d="M127.297 208C127.416 208.532 127.1 209.167 126.499 209.343C126.208 209.431 125.868 209.402 125.584 209.24C125.3 209.079 125.091 208.785 125.023 208.458C124.959 208.131 125.037 207.779 125.236 207.52C125.434 207.26 125.739 207.101 126.041 207.069C126.664 207 127.2 207.464 127.297 208ZM127.297 208C127.24 207.731 127.067 207.491 126.832 207.361C126.597 207.231 126.319 207.215 126.085 207.291C125.604 207.448 125.373 207.956 125.464 208.37C125.54 208.787 125.949 209.168 126.455 209.124C126.7 209.103 126.95 208.98 127.117 208.77C127.283 208.559 127.349 208.27 127.297 208Z" fill="black"/>
<path opacity="0.1" d="M127.567 215.867C127.686 216.399 127.37 217.034 126.769 217.211C126.478 217.298 126.138 217.269 125.854 217.107C125.57 216.946 125.361 216.652 125.293 216.326C125.229 215.999 125.307 215.646 125.506 215.387C125.704 215.127 126.009 214.968 126.311 214.937C126.934 214.867 127.47 215.331 127.567 215.867ZM127.567 215.867C127.51 215.598 127.337 215.358 127.102 215.228C126.867 215.099 126.589 215.082 126.355 215.159C125.874 215.315 125.643 215.822 125.734 216.237C125.81 216.654 126.219 217.035 126.725 216.991C126.97 216.97 127.22 216.848 127.386 216.636C127.553 216.426 127.618 216.137 127.567 215.867Z" fill="black"/>
<path opacity="0.1" d="M127.837 223.734C127.956 224.267 127.64 224.901 127.039 225.078C126.748 225.165 126.408 225.137 126.124 224.975C125.84 224.813 125.631 224.519 125.563 224.193C125.499 223.866 125.577 223.513 125.776 223.254C125.974 222.995 126.279 222.836 126.581 222.804C127.204 222.734 127.74 223.199 127.837 223.734ZM127.837 223.734C127.78 223.466 127.608 223.225 127.372 223.095C127.137 222.966 126.859 222.95 126.625 223.026C126.144 223.182 125.913 223.689 126.004 224.105C126.08 224.522 126.489 224.903 126.995 224.859C127.24 224.838 127.49 224.715 127.656 224.504C127.823 224.294 127.888 224.004 127.837 223.734Z" fill="black"/>
<path opacity="0.1" d="M128.107 231.594C128.226 232.126 127.91 232.761 127.31 232.937C127.019 233.025 126.678 232.996 126.394 232.834C126.11 232.673 125.901 232.379 125.834 232.052C125.769 231.725 125.847 231.372 126.047 231.114C126.245 230.854 126.549 230.695 126.851 230.663C127.474 230.594 128.01 231.057 128.107 231.594ZM128.107 231.594C128.05 231.325 127.877 231.084 127.643 230.955C127.407 230.825 127.13 230.809 126.896 230.885C126.414 231.042 126.183 231.549 126.274 231.964C126.35 232.382 126.759 232.762 127.265 232.718C127.51 232.697 127.76 232.575 127.927 232.364C128.093 232.152 128.159 231.863 128.107 231.594Z" fill="black"/>
<path opacity="0.1" d="M128.377 239.461C128.496 239.993 128.18 240.628 127.58 240.804C127.289 240.892 126.948 240.863 126.664 240.701C126.38 240.54 126.171 240.246 126.104 239.919C126.039 239.593 126.117 239.24 126.317 238.981C126.515 238.721 126.819 238.562 127.121 238.53C127.744 238.461 128.28 238.925 128.377 239.461ZM128.377 239.461C128.32 239.192 128.147 238.952 127.913 238.822C127.677 238.692 127.4 238.676 127.166 238.752C126.684 238.909 126.453 239.416 126.544 239.831C126.62 240.249 127.029 240.629 127.535 240.585C127.78 240.564 128.03 240.441 128.196 240.231C128.363 240.02 128.429 239.731 128.377 239.461Z" fill="black"/>
<path d="M130.805 251.501L102.68 260.023L103.676 263.31L131.801 254.787L130.805 251.501Z" fill="#FF4F4F"/>
<path opacity="0.4" d="M130.805 251.501L102.68 260.023L103.676 263.31L131.801 254.787L130.805 251.501Z" fill="white"/>
<path d="M117.349 254.459L114.076 255.5L115.622 260.361L118.895 259.32L117.349 254.459Z" fill="#FF4F4F"/>
<path d="M103.456 268.123L96.1985 236.695L74.2925 241.889L85.0793 272.517L103.456 268.123Z" fill="#FF4F4F"/>
<path d="M108.316 266.525L103.456 268.123L96.1982 236.695L103.189 238.36L108.316 266.525Z" fill="#FF4F4F"/>
<path opacity="0.2" d="M108.316 266.525L103.456 268.123L96.1982 236.695L103.189 238.36L108.316 266.525Z" fill="black"/>
<path d="M131.315 256.871C133.374 256.871 135.044 255.202 135.044 253.142C135.044 251.083 133.374 249.414 131.315 249.414C129.256 249.414 127.587 251.083 127.587 253.142C127.587 255.202 129.256 256.871 131.315 256.871Z" fill="#FF4F4F"/>
<path d="M169.681 251.403L168.678 254.688L196.785 263.269L197.788 259.985L169.681 251.403Z" fill="#FF4F4F"/>
<path opacity="0.4" d="M169.681 251.403L168.678 254.688L196.785 263.269L197.788 259.985L169.681 251.403Z" fill="white"/>
<path d="M183.157 254.385L181.6 259.242L184.87 260.29L186.427 255.433L183.157 254.385Z" fill="#FF4F4F"/>
<path d="M197.014 268.092L204.338 236.68L226.233 241.92L215.381 272.526L197.014 268.092Z" fill="#FF4F4F"/>
<path d="M192.157 266.483L197.014 268.092L204.339 236.68L197.344 238.33L192.157 266.483Z" fill="#FF4F4F"/>
<path opacity="0.2" d="M192.157 266.483L197.014 268.092L204.339 236.68L197.344 238.33L192.157 266.483Z" fill="black"/>
<path d="M165.458 253.041C165.454 255.1 167.119 256.773 169.179 256.778C171.238 256.782 172.911 255.116 172.915 253.057C172.92 250.998 171.254 249.325 169.195 249.32C167.135 249.316 165.462 250.982 165.458 253.041Z" fill="#FF4F4F"/>
<path d="M193.598 214.281C193.686 214.198 202.72 205.819 213.347 208.685C224.214 211.618 233.186 227.986 233.275 228.151L236.296 226.519C235.903 225.792 226.545 208.684 214.24 205.371C201.726 201.996 191.655 211.391 191.232 211.793L193.598 214.281Z" fill="#FF4F4F"/>
<path opacity="0.4" d="M193.598 214.281C193.686 214.198 202.72 205.819 213.347 208.685C224.214 211.618 233.186 227.986 233.275 228.151L236.296 226.519C235.903 225.792 226.545 208.684 214.24 205.371C201.726 201.996 191.655 211.391 191.232 211.793L193.598 214.281Z" fill="white"/>
<path d="M229.271 244.626L235.778 241.191C235.154 240.008 234.385 237.975 234.273 236.14C234.128 233.762 235.072 232.925 236.113 232.375C238.393 231.171 239.754 231.648 240.683 232.196C241.987 232.965 243.313 234.54 244.417 236.631L250.924 233.195C249.143 229.822 246.956 227.354 244.424 225.858C241.897 224.369 237.809 223.159 232.678 225.867C228.678 227.979 226.636 231.786 226.928 236.586C227.158 240.364 228.779 243.695 229.271 244.626Z" fill="#FF4F4F"/>
<path d="M194.969 202.815C196.38 201.841 197.823 200.923 199.272 200.013C200.718 199.098 202.187 198.223 203.657 197.348C205.133 196.486 206.61 195.625 208.112 194.804L210.364 193.574C211.126 193.183 211.877 192.774 212.649 192.398C211.947 192.891 211.225 193.35 210.513 193.827L208.346 195.201C206.9 196.116 205.431 196.991 203.961 197.864C202.484 198.726 201.007 199.587 199.506 200.408C198.008 201.236 196.505 202.054 194.969 202.815Z" fill="#263238"/>
<path d="M191.232 216.859C193.252 218.01 195.166 219.309 197.055 220.644C198.933 221.994 200.785 223.381 202.529 224.917C200.509 223.767 198.595 222.468 196.706 221.132C194.83 219.781 192.978 218.395 191.232 216.859Z" fill="#263238"/>
<path d="M194.549 215.125C196.108 215.598 197.643 216.134 199.174 216.678C200.707 217.215 202.224 217.797 203.74 218.379C205.252 218.975 206.762 219.571 208.256 220.211L210.497 221.172C211.235 221.513 211.982 221.834 212.714 222.192C211.933 221.961 211.165 221.694 210.39 221.446L208.089 220.641C206.555 220.103 205.039 219.521 203.523 218.939C202.012 218.343 200.501 217.746 199.007 217.106C197.511 216.472 196.019 215.829 194.549 215.125Z" fill="#263238"/>
<path d="M198.978 204.134C200.472 203.746 201.977 203.423 203.484 203.109C204.989 202.788 206.504 202.515 208.018 202.241C209.534 201.981 211.051 201.722 212.575 201.509L214.862 201.192C215.629 201.108 216.391 201.003 217.161 200.938C216.415 201.138 215.663 201.3 214.913 201.482L212.655 201.963C211.149 202.283 209.635 202.557 208.121 202.83C206.605 203.089 205.088 203.348 203.564 203.561C202.04 203.781 200.515 203.99 198.978 204.134Z" fill="#263238"/>
<path d="M162.974 213.474C163.227 212.26 163.634 211.077 164.161 209.949C164.688 208.822 165.334 207.742 166.144 206.781C166.956 205.831 167.956 204.993 169.159 204.529C170.362 204.081 171.739 204.084 172.946 204.566C174.167 205.042 175.13 206.068 175.649 207.247C175.918 207.837 176.087 208.468 176.156 209.115C176.217 209.76 176.191 210.43 175.934 211.075C175.803 211.392 175.599 211.711 175.271 211.924C175.113 212.035 174.919 212.098 174.729 212.127C174.542 212.154 174.35 212.146 174.131 212.07C173.73 211.899 173.529 211.576 173.356 211.285C173.202 210.983 173.083 210.673 173.002 210.361C172.665 209.109 172.631 207.835 172.69 206.575C172.869 204.067 173.528 201.558 174.879 199.399C175.562 198.332 176.417 197.35 177.481 196.632C178.531 195.91 179.76 195.412 181.016 195.268C181.633 195.119 182.271 195.133 182.901 195.102C183.218 195.069 183.531 195.145 183.846 195.162C184.159 195.203 184.479 195.198 184.784 195.288C186.03 195.512 187.202 196.012 188.297 196.618C189.384 197.245 190.353 198.05 191.238 198.924C192.114 199.806 192.912 200.772 193.553 201.835C192.134 199.81 190.307 198.052 188.153 196.875C187.068 196.311 185.923 195.849 184.716 195.661C184.422 195.579 184.113 195.594 183.812 195.56C183.509 195.551 183.207 195.482 182.903 195.523C182.298 195.567 181.688 195.564 181.097 195.723C179.888 195.894 178.766 196.38 177.778 197.058C176.786 197.737 175.985 198.669 175.342 199.689C174.068 201.753 173.444 204.19 173.289 206.611C173.221 207.822 173.252 209.059 173.554 210.208C173.699 210.758 173.958 211.377 174.337 211.551C174.386 211.555 174.418 211.581 174.477 211.583C174.536 211.578 174.599 211.591 174.654 211.577C174.768 211.558 174.879 211.528 174.975 211.459C175.172 211.336 175.328 211.116 175.433 210.864C175.643 210.354 175.682 209.749 175.629 209.167C175.57 208.581 175.42 207.999 175.178 207.459C174.703 206.379 173.861 205.447 172.77 204.99C171.686 204.529 170.415 204.492 169.289 204.883C168.158 205.29 167.18 206.07 166.365 206.974C164.73 208.804 163.628 211.093 162.974 213.474Z" fill="#263238"/>
<path d="M107.53 229.019C108.109 227.928 108.961 226.983 109.955 226.237C110.948 225.491 112.088 224.912 113.315 224.628C114.535 224.336 115.846 224.331 117.067 224.702C118.289 225.067 119.389 225.783 120.27 226.696C121.157 227.608 121.82 228.716 122.275 229.893C122.722 231.074 122.99 232.338 122.896 233.631C122.831 234.267 122.702 234.954 122.199 235.504C121.949 235.775 121.564 235.953 121.188 235.959C120.827 235.956 120.485 235.902 120.154 235.725C119.825 235.556 119.561 235.26 119.41 234.934C119.257 234.607 119.2 234.261 119.185 233.926C119.161 233.254 119.306 232.616 119.503 232.008C119.906 230.792 120.567 229.697 121.34 228.704C122.117 227.712 123.031 226.829 124.056 226.093C126.089 224.617 128.678 223.797 131.204 224.127C132.451 224.296 133.688 224.656 134.78 225.292C135.881 225.907 136.835 226.761 137.614 227.736C138.391 228.716 138.997 229.817 139.464 230.964C139.931 232.112 140.275 233.31 140.444 234.533C139.94 232.129 138.952 229.794 137.377 227.93C136.597 226.999 135.656 226.2 134.59 225.636C133.532 225.053 132.345 224.739 131.15 224.606C128.75 224.345 126.316 225.11 124.379 226.542C122.446 227.965 120.863 229.95 120.064 232.196C119.875 232.756 119.744 233.342 119.761 233.906C119.774 234.465 119.971 235.003 120.421 235.23C120.632 235.352 120.92 235.399 121.171 235.403C121.414 235.397 121.63 235.3 121.803 235.121C122.153 234.755 122.303 234.158 122.357 233.584C122.451 232.412 122.209 231.199 121.789 230.079C121.364 228.956 120.733 227.908 119.917 227.031C119.103 226.156 118.077 225.473 116.942 225.102C115.808 224.724 114.566 224.693 113.385 224.943C111.023 225.446 108.834 226.923 107.53 229.019Z" fill="#263238"/>
<path d="M79.772 84.1256C79.7042 81.6566 79.1804 79.1708 78.0314 77.0048C77.456 75.932 76.6928 74.9408 75.6908 74.2766C74.6906 73.6274 73.4486 73.3604 72.2852 73.5488C71.117 73.7324 70.0772 74.4374 69.3584 75.3716C68.9942 75.8384 68.7092 76.367 68.5124 76.9226C68.3216 77.4758 68.2148 78.0722 68.2976 78.6176C68.339 78.887 68.438 79.1372 68.6 79.3046C68.6768 79.394 68.777 79.4498 68.8832 79.4954C68.9342 79.5224 68.9984 79.5248 69.0542 79.5434C69.1118 79.5554 69.149 79.538 69.1976 79.5452C69.6062 79.4672 70.007 78.9278 70.2782 78.4286C70.8464 77.3846 71.1716 76.19 71.3942 74.999C71.8208 72.6104 71.7968 70.0946 71.0522 67.787C70.6718 66.6428 70.1162 65.5466 69.3146 64.6508C68.5172 63.7568 67.544 63.0164 66.41 62.5622C65.8742 62.267 65.2814 62.1248 64.7042 61.9364C64.4192 61.8248 64.1096 61.82 63.8132 61.7558C63.5126 61.7168 63.2162 61.6292 62.9102 61.6382C61.694 61.532 60.4712 61.7078 59.2838 61.9964C56.9108 62.6258 54.7172 63.8966 52.856 65.5244C53.732 64.6454 54.7364 63.8978 55.7984 63.2498C56.8658 62.6126 57.9986 62.0624 59.2046 61.7126C60.4112 61.3856 61.6694 61.1792 62.933 61.2596C63.2504 61.244 63.5594 61.3262 63.8732 61.3604C64.1828 61.4192 64.5062 61.4198 64.805 61.5278C65.4098 61.7084 66.0332 61.847 66.5966 62.1392C67.781 62.5784 68.8562 63.3548 69.7034 64.307C70.565 65.2574 71.1614 66.4154 71.5694 67.6142C72.3668 70.0328 72.4076 72.6272 71.9822 75.1058C71.7398 76.343 71.402 77.5718 70.7762 78.7076C70.6226 78.992 70.433 79.2644 70.2116 79.5212C69.9746 79.7624 69.7022 80.0282 69.272 80.0984C69.0416 80.1194 68.8538 80.0816 68.678 80.0108C68.5004 79.9364 68.327 79.8296 68.1998 79.6844C67.9328 79.3994 67.8098 79.04 67.7588 78.7016C67.6628 78.0152 67.7978 77.3576 68.0108 76.745C68.2322 76.1336 68.5472 75.5606 68.9492 75.053C69.7346 74.0318 70.9148 73.265 72.2138 73.0946C73.5008 72.9146 74.8388 73.2398 75.9002 73.9628C76.9574 74.7002 77.7284 75.7532 78.2906 76.8698C78.848 77.996 79.2164 79.1996 79.46 80.4194C79.7024 81.6398 79.8158 82.886 79.772 84.1256Z" fill="#263238"/>
<path d="M212.262 115.417C209.846 114.907 207.306 114.837 204.932 115.449C203.754 115.758 202.613 116.269 201.732 117.088C200.868 117.909 200.318 119.055 200.23 120.23C200.136 121.408 200.579 122.584 201.32 123.501C201.688 123.964 202.136 124.365 202.63 124.686C203.123 125 203.679 125.244 204.228 125.29C204.5 125.313 204.767 125.275 204.967 125.157C205.071 125.103 205.149 125.019 205.218 124.926C205.257 124.883 205.274 124.821 205.305 124.771C205.331 124.719 205.322 124.678 205.341 124.633C205.361 124.217 204.929 123.702 204.507 123.322C203.625 122.526 202.539 121.931 201.433 121.437C199.21 120.465 196.758 119.901 194.34 120.086C193.139 120.189 191.943 120.474 190.884 121.044C189.829 121.61 188.882 122.384 188.176 123.381C187.764 123.833 187.487 124.376 187.17 124.893C186.995 125.145 186.918 125.444 186.786 125.718C186.678 126.001 186.524 126.268 186.462 126.568C186.075 127.726 185.96 128.956 185.964 130.177C186.022 132.631 186.746 135.061 187.895 137.251C187.244 136.195 186.752 135.043 186.369 133.86C185.999 132.673 185.728 131.443 185.67 130.188C185.634 128.938 185.726 127.667 186.099 126.457C186.158 126.145 186.31 125.863 186.417 125.566C186.546 125.278 186.623 124.964 186.797 124.699C187.114 124.153 187.394 123.579 187.81 123.099C188.514 122.05 189.519 121.186 190.643 120.584C191.768 119.968 193.033 119.658 194.294 119.541C196.832 119.331 199.365 119.896 201.675 120.888C202.822 121.412 203.938 122.027 204.896 122.901C205.137 123.117 205.358 123.364 205.556 123.64C205.735 123.927 205.929 124.254 205.898 124.689C205.865 124.917 205.784 125.092 205.674 125.246C205.56 125.401 205.415 125.545 205.245 125.635C204.906 125.828 204.527 125.863 204.186 125.834C203.496 125.767 202.888 125.482 202.342 125.133C201.8 124.774 201.315 124.335 200.915 123.825C200.105 122.823 199.635 121.497 199.772 120.194C199.898 118.901 200.526 117.675 201.476 116.812C202.44 115.956 203.643 115.452 204.861 115.166C206.086 114.887 207.342 114.809 208.586 114.857C209.829 114.905 211.067 115.086 212.262 115.417Z" fill="#263238"/>
<path d="M175.116 76.6009C174.706 75.1795 174.651 73.6591 174.882 72.1909C175.111 70.7227 175.609 69.2785 176.421 68.0137C177.222 66.7477 178.338 65.6527 179.689 64.9549C181.036 64.2517 182.571 63.9463 184.081 63.9925C185.596 64.0333 187.086 64.4257 188.457 65.0509C189.822 65.6851 191.104 66.5419 192.097 67.7203C192.571 68.3137 193.028 69.0055 193.056 69.8743C193.068 70.3033 192.894 70.7617 192.586 71.0725C192.281 71.3641 191.948 71.6011 191.529 71.7229C191.116 71.8495 190.657 71.8183 190.264 71.6683C189.868 71.5195 189.536 71.2753 189.247 71.0053C188.672 70.4569 188.264 69.7933 187.927 69.1117C187.259 67.7407 186.908 66.2539 186.738 64.7617C186.573 63.2671 186.616 61.7497 186.876 60.2671C187.377 57.3103 188.901 54.4549 191.328 52.6261C192.531 51.7279 193.885 51.0007 195.347 50.6305C196.799 50.2339 198.327 50.1637 199.807 50.3443C201.291 50.5279 202.731 50.9581 204.093 51.5455C205.454 52.1335 206.754 52.8667 207.927 53.7667C205.489 52.1179 202.688 50.9371 199.774 50.6491C198.324 50.5015 196.844 50.6005 195.452 51.0103C194.051 51.3943 192.765 52.1197 191.624 53.0065C190.496 53.9095 189.536 55.0201 188.835 56.2831C188.127 57.5431 187.665 58.9357 187.421 60.3625C186.954 63.2113 187.255 66.2455 188.458 68.8537C188.769 69.4951 189.148 70.1113 189.644 70.5871C190.13 71.0611 190.771 71.3719 191.372 71.1817C191.667 71.1049 191.958 70.9015 192.184 70.6867C192.397 70.4689 192.507 70.1869 192.504 69.8767C192.496 69.2467 192.116 68.6041 191.678 68.0635C190.769 66.9715 189.541 66.1345 188.238 65.5237C186.927 64.9159 185.503 64.5445 184.063 64.4791C182.626 64.4131 181.168 64.6897 179.878 65.3287C178.586 65.9611 177.493 66.9817 176.691 68.1901C175.09 70.6105 174.463 73.7167 175.116 76.6009Z" fill="#263238"/>
<path d="M105.525 229.149C104.18 228.725 102.748 229.472 102.324 230.815C101.9 232.161 102.647 233.592 103.992 234.016C105.335 234.44 106.766 233.694 107.19 232.349C107.613 231.006 106.868 229.572 105.525 229.149ZM106.894 232.255C106.522 233.436 105.264 234.092 104.085 233.72C102.904 233.348 102.249 232.091 102.622 230.909C102.994 229.729 104.251 229.074 105.432 229.446C106.611 229.818 107.266 231.075 106.894 232.255ZM105.525 229.149C104.18 228.725 102.748 229.472 102.324 230.815C101.9 232.161 102.647 233.592 103.992 234.016C105.335 234.44 106.766 233.694 107.19 232.349C107.613 231.006 106.868 229.572 105.525 229.149ZM106.894 232.255C106.522 233.436 105.264 234.092 104.085 233.72C102.904 233.348 102.249 232.091 102.622 230.909C102.994 229.729 104.251 229.074 105.432 229.446C106.611 229.818 107.266 231.075 106.894 232.255ZM105.525 229.149C104.18 228.725 102.748 229.472 102.324 230.815C101.9 232.161 102.647 233.592 103.992 234.016C105.335 234.44 106.766 233.694 107.19 232.349C107.613 231.006 106.868 229.572 105.525 229.149ZM106.894 232.255C106.522 233.436 105.264 234.092 104.085 233.72C102.904 233.348 102.249 232.091 102.622 230.909C102.994 229.729 104.251 229.074 105.432 229.446C106.611 229.818 107.266 231.075 106.894 232.255ZM106.375 226.453C103.54 225.56 100.521 227.135 99.6284 229.966C98.7362 232.798 100.308 235.819 103.141 236.711C105.972 237.603 108.993 236.03 109.885 233.198C110.779 230.367 109.206 227.345 106.375 226.453ZM107.569 232.467C107.08 234.019 105.422 234.883 103.872 234.395C102.322 233.906 101.458 232.248 101.947 230.697C102.436 229.146 104.095 228.283 105.645 228.771C107.193 229.259 108.057 230.918 107.569 232.467ZM107.19 232.349C107.613 231.005 106.868 229.572 105.525 229.148C104.18 228.725 102.748 229.471 102.324 230.814C101.9 232.16 102.647 233.591 103.992 234.015C105.335 234.439 106.766 233.693 107.19 232.349ZM106.894 232.255C106.522 233.436 105.264 234.092 104.085 233.72C102.904 233.348 102.249 232.091 102.622 230.909C102.994 229.729 104.251 229.074 105.432 229.446C106.611 229.818 107.266 231.075 106.894 232.255ZM105.525 229.149C104.18 228.725 102.748 229.472 102.324 230.815C101.9 232.161 102.647 233.592 103.992 234.016C105.335 234.44 106.766 233.694 107.19 232.349C107.613 231.006 106.868 229.572 105.525 229.149ZM106.894 232.255C106.522 233.436 105.264 234.092 104.085 233.72C102.904 233.348 102.249 232.091 102.622 230.909C102.994 229.729 104.251 229.074 105.432 229.446C106.611 229.818 107.266 231.075 106.894 232.255ZM105.525 229.149C104.18 228.725 102.748 229.472 102.324 230.815C101.9 232.161 102.647 233.592 103.992 234.016C105.335 234.44 106.766 233.694 107.19 232.349C107.613 231.006 106.868 229.572 105.525 229.149ZM106.894 232.255C106.522 233.436 105.264 234.092 104.085 233.72C102.904 233.348 102.249 232.091 102.622 230.909C102.994 229.729 104.251 229.074 105.432 229.446C106.611 229.818 107.266 231.075 106.894 232.255Z" fill="#455A64"/>
<path d="M104.194 236.808L102.222 236.188L101.892 237.618L103.645 238.17L104.194 236.808Z" fill="#455A64"/>
<path d="M100.65 234.967L99.6952 233.133L98.4502 233.91L99.2992 235.542L100.65 234.967Z" fill="#455A64"/>
<path d="M99.4503 231.154L100.072 229.182L98.6415 228.852L98.0889 230.605L99.4503 231.154Z" fill="#455A64"/>
<path d="M101.297 227.607L103.131 226.652L102.353 225.406L100.723 226.256L101.297 227.607Z" fill="#455A64"/>
<path d="M105.109 226.408L107.082 227.029L107.413 225.599L105.658 225.047L105.109 226.408Z" fill="#455A64"/>
<path d="M108.654 228.254L109.609 230.088L110.855 229.31L110.005 227.68L108.654 228.254Z" fill="#455A64"/>
<path d="M109.855 232.07L109.233 234.043L110.663 234.374L111.216 232.619L109.855 232.07Z" fill="#455A64"/>
<path d="M108.007 235.609L106.173 236.565L106.95 237.81L108.582 236.961L108.007 235.609Z" fill="#455A64"/>
<path d="M205.005 212.008C207.71 208.363 206.948 203.215 203.303 200.51C199.658 197.805 194.509 198.567 191.805 202.211C189.099 205.856 189.861 211.005 193.507 213.71C197.151 216.415 202.299 215.654 205.005 212.008ZM201.487 209.397C200.223 211.1 197.82 211.456 196.117 210.193C194.414 208.929 194.058 206.526 195.322 204.822C196.585 203.12 198.989 202.764 200.692 204.028C202.394 205.292 202.75 207.695 201.487 209.397Z" fill="#263238"/>
<path d="M194.978 214.376L192.44 212.492L191.247 214.393L193.504 216.068L194.978 214.376Z" fill="#263238"/>
<path d="M190.782 209.939L190.319 206.812L188.131 207.313L188.543 210.094L190.782 209.939Z" fill="#263238"/>
<path d="M190.954 203.832L192.838 201.294L190.937 200.102L189.262 202.359L190.954 203.832Z" fill="#263238"/>
<path d="M195.395 199.635L198.522 199.172L198.021 196.984L195.24 197.396L195.395 199.635Z" fill="#263238"/>
<path d="M201.502 199.809L204.04 201.693L205.233 199.792L202.976 198.117L201.502 199.809Z" fill="#263238"/>
<path d="M205.698 204.249L206.16 207.375L208.348 206.875L207.936 204.094L205.698 204.249Z" fill="#263238"/>
<path d="M205.526 210.352L203.642 212.89L205.542 214.082L207.218 211.825L205.526 210.352Z" fill="#263238"/>
<path d="M201.085 214.547L197.958 215.009L198.458 217.197L201.239 216.786L201.085 214.547Z" fill="#263238"/>
<path d="M195.46 207.508L197.206 209.71L199.987 209.297L201.019 206.685L199.275 204.484L196.494 204.895L195.46 207.508ZM198.77 206.381C199.166 206.675 199.248 207.231 198.954 207.627C198.661 208.021 198.104 208.105 197.708 207.811C197.314 207.519 197.231 206.959 197.524 206.565C197.818 206.17 198.376 206.089 198.77 206.381Z" fill="#263238"/>
<path d="M188.237 137.679C187.06 137.308 185.807 137.961 185.436 139.137C185.065 140.315 185.719 141.567 186.895 141.938C188.071 142.308 189.323 141.656 189.694 140.479C190.064 139.304 189.412 138.049 188.237 137.679ZM189.435 140.397C189.109 141.431 188.009 142.004 186.976 141.678C185.944 141.353 185.371 140.253 185.696 139.219C186.021 138.186 187.122 137.613 188.155 137.939C189.187 138.264 189.76 139.364 189.435 140.397ZM188.237 137.679C187.06 137.308 185.807 137.961 185.436 139.137C185.065 140.315 185.719 141.567 186.895 141.938C188.071 142.308 189.323 141.656 189.694 140.479C190.064 139.304 189.412 138.049 188.237 137.679ZM189.435 140.397C189.109 141.431 188.009 142.004 186.976 141.678C185.944 141.353 185.371 140.253 185.696 139.219C186.021 138.186 187.122 137.613 188.155 137.939C189.187 138.264 189.76 139.364 189.435 140.397ZM188.237 137.679C187.06 137.308 185.807 137.961 185.436 139.137C185.065 140.315 185.719 141.567 186.895 141.938C188.071 142.308 189.323 141.656 189.694 140.479C190.064 139.304 189.412 138.049 188.237 137.679ZM189.435 140.397C189.109 141.431 188.009 142.004 186.976 141.678C185.944 141.353 185.371 140.253 185.696 139.219C186.021 138.186 187.122 137.613 188.155 137.939C189.187 138.264 189.76 139.364 189.435 140.397ZM188.981 135.32C186.501 134.539 183.859 135.917 183.078 138.394C182.297 140.873 183.672 143.516 186.152 144.296C188.629 145.077 191.272 143.7 192.053 141.222C192.834 138.745 191.458 136.1 188.981 135.32ZM190.026 140.583C189.598 141.94 188.147 142.697 186.79 142.269C185.434 141.842 184.678 140.39 185.106 139.033C185.533 137.676 186.985 136.92 188.341 137.348C189.697 137.775 190.453 139.226 190.026 140.583ZM189.694 140.479C190.064 139.304 189.412 138.049 188.237 137.679C187.06 137.308 185.807 137.961 185.436 139.137C185.065 140.315 185.719 141.567 186.895 141.938C188.071 142.308 189.323 141.656 189.694 140.479ZM189.435 140.397C189.109 141.431 188.009 142.004 186.976 141.678C185.944 141.353 185.371 140.253 185.696 139.219C186.021 138.186 187.122 137.613 188.155 137.939C189.187 138.264 189.76 139.364 189.435 140.397ZM188.237 137.679C187.06 137.308 185.807 137.961 185.436 139.137C185.065 140.315 185.719 141.567 186.895 141.938C188.071 142.308 189.323 141.656 189.694 140.479C190.064 139.304 189.412 138.049 188.237 137.679ZM189.435 140.397C189.109 141.431 188.009 142.004 186.976 141.678C185.944 141.353 185.371 140.253 185.696 139.219C186.021 138.186 187.122 137.613 188.155 137.939C189.187 138.264 189.76 139.364 189.435 140.397ZM188.237 137.679C187.06 137.308 185.807 137.961 185.436 139.137C185.065 140.315 185.719 141.567 186.895 141.938C188.071 142.308 189.323 141.656 189.694 140.479C190.064 139.304 189.412 138.049 188.237 137.679ZM189.435 140.397C189.109 141.431 188.009 142.004 186.976 141.678C185.944 141.353 185.371 140.253 185.696 139.219C186.021 138.186 187.122 137.613 188.155 137.939C189.187 138.264 189.76 139.364 189.435 140.397Z" fill="#263238"/>
<path d="M187.072 144.38L185.347 143.836L185.058 145.088L186.592 145.571L187.072 144.38Z" fill="#263238"/>
<path d="M183.971 142.761L183.136 141.156L182.045 141.836L182.789 143.263L183.971 142.761Z" fill="#263238"/>
<path d="M182.921 139.429L183.465 137.703L182.214 137.414L181.73 138.949L182.921 139.429Z" fill="#263238"/>
<path d="M184.537 136.324L186.142 135.489L185.462 134.398L184.035 135.142L184.537 136.324Z" fill="#263238"/>
<path d="M187.874 135.277L189.599 135.821L189.889 134.57L188.354 134.086L187.874 135.277Z" fill="#263238"/>
<path d="M190.975 136.893L191.81 138.498L192.9 137.818L192.157 136.391L190.975 136.893Z" fill="#263238"/>
<path d="M192.025 140.227L191.481 141.952L192.733 142.242L193.217 140.707L192.025 140.227Z" fill="#263238"/>
<path d="M190.409 143.328L188.804 144.164L189.484 145.254L190.911 144.51L190.409 143.328Z" fill="#263238"/>
<path d="M216.954 143.366C215.34 140.908 214.433 138.144 214.433 135.222C214.433 124.904 225.762 116.539 239.73 116.539C253.697 116.539 265.017 124.905 265.017 135.222C265.017 145.539 253.697 153.905 239.73 153.905C232.957 153.905 226.817 151.943 222.281 148.736L213.567 150.951L216.954 143.366Z" fill="white"/>
<path d="M216.954 143.366C215.431 141.097 214.476 138.418 214.376 135.666C214.301 132.92 214.977 130.141 216.388 127.765C217.767 125.371 219.732 123.352 221.952 121.729C224.174 120.096 226.677 118.863 229.289 117.996C231.901 117.123 234.623 116.6 237.369 116.38C240.119 116.179 242.887 116.35 245.604 116.799C246.279 116.938 246.965 117.03 247.631 117.207L249.629 117.745L251.581 118.434C252.23 118.668 252.847 118.984 253.482 119.256C255.973 120.441 258.309 121.993 260.273 123.954C262.233 125.906 263.813 128.292 264.647 130.961C265.478 133.621 265.539 136.54 264.729 139.215C263.942 141.899 262.398 144.309 260.465 146.287C258.528 148.273 256.211 149.854 253.732 151.066C251.254 152.292 248.584 153.091 245.876 153.583C243.164 154.048 240.396 154.248 237.649 154.054C234.903 153.88 232.175 153.379 229.561 152.516C226.95 151.656 224.438 150.456 222.203 148.848L222.315 148.869L213.584 151.016L213.452 151.048L213.508 150.925L216.954 143.366ZM216.954 143.366L213.627 150.978L213.551 150.887L222.248 148.603L222.308 148.587L222.36 148.624C226.847 151.721 232.259 153.333 237.675 153.623C240.389 153.79 243.119 153.568 245.786 153.087C248.45 152.592 251.074 151.8 253.5 150.589C255.928 149.394 258.189 147.84 260.068 145.902C261.943 143.971 263.425 141.635 264.174 139.054C264.947 136.482 264.873 133.688 264.075 131.137C263.283 128.573 261.767 126.262 259.867 124.358C257.963 122.447 255.686 120.921 253.247 119.752C252.625 119.484 252.021 119.172 251.385 118.941L249.47 118.258L247.508 117.724C246.853 117.547 246.179 117.456 245.515 117.317C242.842 116.863 240.115 116.699 237.404 116.873C234.696 117.066 232.007 117.558 229.423 118.396C226.839 119.228 224.361 120.422 222.158 122.011C219.954 123.591 218.012 125.565 216.612 127.895C215.186 130.213 214.475 132.939 214.506 135.662C214.561 138.39 215.466 141.074 216.954 143.366Z" fill="#263238"/>
<path d="M226.716 138.279V139.668H221.055V131.516H226.613V132.905H222.64V134.868H226.074V136.155H222.64V138.279L226.716 138.279Z" fill="#263238"/>
<path d="M227.957 139.668V131.516H231.563C231.938 131.516 232.284 131.594 232.602 131.751C232.919 131.909 233.193 132.115 233.422 132.371C233.652 132.628 233.832 132.919 233.962 133.244C234.092 133.569 234.157 133.897 234.157 134.226C234.157 134.754 234.025 135.234 233.761 135.667C233.497 136.1 233.139 136.412 232.687 136.602L234.548 139.668H232.768L231.103 136.935H229.542V139.668H227.957ZM229.542 135.546H231.528C231.673 135.546 231.81 135.512 231.936 135.443C232.062 135.374 232.171 135.28 232.263 135.161C232.355 135.043 232.428 134.903 232.481 134.742C232.535 134.582 232.562 134.409 232.562 134.226C232.562 134.034 232.531 133.859 232.47 133.698C232.408 133.537 232.327 133.398 232.223 133.279C232.12 133.16 232.001 133.068 231.867 133.003C231.733 132.938 231.597 132.905 231.459 132.905H229.542V135.546H229.542Z" fill="#263238"/>
<path d="M235.592 139.668V131.516H239.198C239.573 131.516 239.919 131.594 240.236 131.751C240.554 131.909 240.827 132.115 241.057 132.371C241.287 132.628 241.467 132.919 241.597 133.244C241.727 133.569 241.792 133.897 241.792 134.226C241.792 134.754 241.66 135.234 241.396 135.667C241.132 136.1 240.774 136.412 240.322 136.602L242.182 139.668H240.402L238.737 136.935H237.176V139.668H235.592ZM237.177 135.546H239.163C239.308 135.546 239.444 135.512 239.57 135.443C239.697 135.374 239.806 135.28 239.898 135.161C239.99 135.043 240.062 134.903 240.116 134.742C240.17 134.582 240.197 134.409 240.197 134.226C240.197 134.034 240.166 133.859 240.105 133.698C240.043 133.537 239.962 133.398 239.858 133.279C239.755 133.16 239.636 133.068 239.502 133.003C239.368 132.938 239.232 132.905 239.094 132.905H237.177V135.546Z" fill="#263238"/>
<path d="M246.707 139.728C246.11 139.728 245.569 139.611 245.083 139.378C244.596 139.145 244.179 138.834 243.831 138.448C243.482 138.062 243.213 137.619 243.021 137.122C242.83 136.625 242.735 136.115 242.735 135.595C242.735 135.051 242.836 134.531 243.039 134.033C243.242 133.536 243.521 133.095 243.877 132.713C244.233 132.33 244.656 132.026 245.146 131.8C245.635 131.574 246.167 131.461 246.742 131.461C247.331 131.461 247.868 131.582 248.355 131.823C248.842 132.064 249.257 132.38 249.601 132.77C249.945 133.16 250.213 133.605 250.405 134.102C250.596 134.6 250.691 135.105 250.691 135.618C250.691 136.161 250.592 136.68 250.393 137.174C250.194 137.667 249.918 138.104 249.566 138.483C249.214 138.862 248.793 139.164 248.303 139.39C247.813 139.615 247.282 139.728 246.707 139.728ZM244.342 135.594C244.342 135.947 244.395 136.287 244.502 136.616C244.61 136.946 244.765 137.237 244.967 137.489C245.17 137.742 245.419 137.945 245.714 138.098C246.008 138.251 246.343 138.327 246.719 138.327C247.102 138.327 247.44 138.249 247.735 138.092C248.029 137.936 248.278 137.727 248.481 137.466C248.684 137.206 248.837 136.913 248.941 136.588C249.044 136.263 249.095 135.932 249.095 135.595C249.095 135.243 249.04 134.903 248.929 134.573C248.818 134.244 248.662 133.953 248.459 133.7C248.255 133.448 248.007 133.247 247.712 133.098C247.418 132.948 247.087 132.873 246.719 132.873C246.336 132.873 245.996 132.952 245.698 133.109C245.399 133.266 245.15 133.473 244.951 133.729C244.752 133.986 244.601 134.277 244.498 134.602C244.393 134.927 244.342 135.258 244.342 135.594Z" fill="#263238"/>
<path d="M251.909 139.668V131.516H255.515C255.89 131.516 256.236 131.594 256.554 131.751C256.871 131.909 257.145 132.115 257.375 132.371C257.604 132.628 257.784 132.919 257.914 133.244C258.044 133.569 258.109 133.897 258.109 134.226C258.109 134.754 257.977 135.234 257.713 135.667C257.45 136.1 257.091 136.412 256.64 136.602L258.5 139.668H256.72L255.056 136.935H253.494V139.668H251.909ZM253.494 135.546H255.48C255.626 135.546 255.762 135.512 255.888 135.443C256.014 135.374 256.124 135.28 256.215 135.161C256.307 135.043 256.38 134.903 256.433 134.742C256.487 134.582 256.514 134.409 256.514 134.226C256.514 134.034 256.483 133.859 256.422 133.698C256.361 133.537 256.279 133.398 256.175 133.279C256.072 133.16 255.953 133.068 255.819 133.003C255.685 132.938 255.549 132.905 255.411 132.905H253.494V135.546H253.494Z" fill="#263238"/>
</svg>
