<svg width="70" height="64" viewBox="0 0 70 64" fill="none" xmlns="http://www.w3.org/2000/svg">
<g clip-path="url(#clip0_4806_19145)">
<path d="M51.7143 3.85156H18.2857C17.5746 3.85156 17 4.42612 17 5.13728V30.8516C17 31.5627 17.5746 32.1373 18.2857 32.1373H51.7143C52.4254 32.1373 53 31.5627 53 30.8516V5.13728C53 4.42612 52.4254 3.85156 51.7143 3.85156ZM50.1071 8.30335V29.2444H19.8929V8.30335L18.7839 7.43951L20.3629 5.41049L22.0826 6.74844H47.9214L49.6411 5.41049L51.2201 7.43951L50.1071 8.30335ZM47.9214 6.74442L35 16.7891L22.0786 6.74442L20.3589 5.40647L18.7799 7.43549L19.8888 8.29933L33.6138 18.9708C34.0086 19.2774 34.4941 19.4439 34.994 19.4439C35.4938 19.4439 35.9794 19.2774 36.3741 18.9708L50.1071 8.30335L51.2161 7.43951L49.6371 5.41049L47.9214 6.74442Z" fill="#595959"/>
</g>
<path d="M22.0127 58.8501V60H16.3657V58.8501H22.0127ZM16.6514 49.3359V60H15.2378V49.3359H16.6514ZM21.2656 53.9209V55.0708H16.3657V53.9209H21.2656ZM21.9395 49.3359V50.4932H16.3657V49.3359H21.9395ZM26.3779 54.9097V56.0229H22.8037V54.9097H26.3779ZM29.0513 53.6499V60H27.689V52.0752H28.978L29.0513 53.6499ZM28.7729 55.7373L28.1431 55.7153C28.1479 55.1733 28.2188 54.6729 28.3555 54.2139C28.4922 53.75 28.6948 53.3472 28.9634 53.0054C29.2319 52.6636 29.5664 52.3999 29.9668 52.2144C30.3672 52.0239 30.8311 51.9287 31.3584 51.9287C31.7295 51.9287 32.0713 51.9824 32.3838 52.0898C32.6963 52.1924 32.9673 52.356 33.1968 52.5806C33.4263 52.8052 33.6045 53.0933 33.7314 53.4448C33.8584 53.7964 33.9219 54.2212 33.9219 54.7192V60H32.5669V54.7852C32.5669 54.3701 32.4961 54.0381 32.3545 53.7891C32.2178 53.54 32.0225 53.3594 31.7686 53.2471C31.5146 53.1299 31.2168 53.0713 30.875 53.0713C30.4746 53.0713 30.1401 53.1421 29.8716 53.2837C29.603 53.4253 29.3882 53.6206 29.2271 53.8696C29.0659 54.1187 28.9487 54.4043 28.8755 54.7266C28.8071 55.0439 28.7729 55.3809 28.7729 55.7373ZM33.9072 54.9902L32.999 55.2686C33.0039 54.834 33.0747 54.4165 33.2114 54.0161C33.353 53.6157 33.5557 53.2593 33.8193 52.9468C34.0879 52.6343 34.4175 52.3877 34.8081 52.207C35.1987 52.0215 35.6455 51.9287 36.1484 51.9287C36.5732 51.9287 36.9492 51.9849 37.2764 52.0972C37.6084 52.2095 37.8867 52.3828 38.1113 52.6172C38.3408 52.8467 38.5142 53.1421 38.6313 53.5034C38.7485 53.8647 38.8071 54.2944 38.8071 54.7925V60H37.4448V54.7778C37.4448 54.3335 37.374 53.9893 37.2324 53.7451C37.0957 53.4961 36.9004 53.3228 36.6465 53.2251C36.3975 53.1226 36.0996 53.0713 35.7529 53.0713C35.4551 53.0713 35.1914 53.1226 34.9619 53.2251C34.7324 53.3276 34.5396 53.4692 34.3833 53.6499C34.2271 53.8257 34.1074 54.0283 34.0244 54.2578C33.9463 54.4873 33.9072 54.7314 33.9072 54.9902ZM45.5308 58.645V54.5654C45.5308 54.2529 45.4673 53.9819 45.3403 53.7524C45.2183 53.5181 45.0327 53.3374 44.7837 53.2104C44.5347 53.0835 44.2271 53.02 43.8608 53.02C43.519 53.02 43.2188 53.0786 42.96 53.1958C42.7061 53.313 42.5059 53.4668 42.3594 53.6572C42.2178 53.8477 42.147 54.0527 42.147 54.2725H40.792C40.792 53.9893 40.8652 53.7085 41.0117 53.4302C41.1582 53.1519 41.3682 52.9004 41.6416 52.6758C41.9199 52.4463 42.252 52.2656 42.6377 52.1338C43.0283 51.9971 43.4629 51.9287 43.9414 51.9287C44.5176 51.9287 45.0254 52.0264 45.4648 52.2217C45.9092 52.417 46.2559 52.7124 46.5049 53.1079C46.7588 53.4985 46.8857 53.9893 46.8857 54.5801V58.2715C46.8857 58.5352 46.9077 58.8159 46.9517 59.1138C47.0005 59.4116 47.0713 59.668 47.1641 59.8828V60H45.7505C45.6821 59.8438 45.6284 59.6362 45.5894 59.3774C45.5503 59.1138 45.5308 58.8696 45.5308 58.645ZM45.7651 55.1953L45.7798 56.1475H44.4102C44.0244 56.1475 43.6802 56.1792 43.3774 56.2427C43.0747 56.3013 42.8208 56.3916 42.6157 56.5137C42.4106 56.6357 42.2544 56.7896 42.147 56.9751C42.0396 57.1558 41.9858 57.3682 41.9858 57.6123C41.9858 57.8613 42.042 58.0884 42.1543 58.2935C42.2666 58.4985 42.4351 58.6621 42.6597 58.7842C42.8892 58.9014 43.1699 58.96 43.502 58.96C43.917 58.96 44.2832 58.8721 44.6006 58.6963C44.918 58.5205 45.1694 58.3057 45.355 58.0518C45.5454 57.7979 45.6479 57.5513 45.6626 57.312L46.2412 57.9639C46.207 58.1689 46.1143 58.396 45.9629 58.645C45.8115 58.894 45.6089 59.1333 45.355 59.3628C45.106 59.5874 44.8081 59.7754 44.4614 59.9268C44.1196 60.0732 43.7339 60.1465 43.3042 60.1465C42.7671 60.1465 42.2959 60.0415 41.8906 59.8315C41.4902 59.6216 41.1777 59.3408 40.9531 58.9893C40.7334 58.6328 40.6235 58.2349 40.6235 57.7954C40.6235 57.3706 40.7065 56.9971 40.8726 56.6748C41.0386 56.3477 41.2778 56.0767 41.5903 55.8618C41.9028 55.6421 42.2788 55.4761 42.7183 55.3638C43.1577 55.2515 43.6484 55.1953 44.1904 55.1953H45.7651ZM50.4893 52.0752V60H49.127V52.0752H50.4893ZM49.0244 49.9731C49.0244 49.7534 49.0903 49.5679 49.2222 49.4165C49.3589 49.2651 49.5591 49.1895 49.8228 49.1895C50.0815 49.1895 50.2793 49.2651 50.416 49.4165C50.5576 49.5679 50.6284 49.7534 50.6284 49.9731C50.6284 50.1831 50.5576 50.3638 50.416 50.5151C50.2793 50.6616 50.0815 50.7349 49.8228 50.7349C49.5591 50.7349 49.3589 50.6616 49.2222 50.5151C49.0903 50.3638 49.0244 50.1831 49.0244 49.9731ZM54.1367 48.75V60H52.7744V48.75H54.1367Z" fill="#595959"/>
<defs>
<clipPath id="clip0_4806_19145">
<rect width="36" height="36" fill="white" transform="translate(17)"/>
</clipPath>
</defs>
</svg>
