<svg width="21" height="21" viewBox="0 0 21 21" fill="none" xmlns="http://www.w3.org/2000/svg">
<g id="icons8-bank-building 1">
<path id="Vector" d="M10.4157 2.39885C10.3464 2.40289 10.2793 2.42415 10.2203 2.4607L2.72034 7.04403C2.66947 7.07027 2.62455 7.1067 2.58838 7.15106C2.55221 7.19542 2.52556 7.24675 2.51011 7.30187C2.49465 7.35698 2.49072 7.41468 2.49854 7.47138C2.50637 7.52808 2.5258 7.58256 2.55561 7.63142C2.58542 7.68028 2.62497 7.72248 2.67181 7.75538C2.71865 7.78828 2.77176 7.81118 2.82783 7.82265C2.88391 7.83412 2.94175 7.83391 2.99774 7.82204C3.05373 7.81017 3.10668 7.7869 3.15328 7.75367L3.35348 7.6316V17.3988H2.93681C2.8816 17.3981 2.82678 17.4083 2.77554 17.4289C2.72431 17.4494 2.67767 17.48 2.63835 17.5188C2.59903 17.5576 2.56781 17.6037 2.5465 17.6547C2.52518 17.7056 2.51421 17.7603 2.51421 17.8155C2.51421 17.8707 2.52518 17.9254 2.5465 17.9763C2.56781 18.0273 2.59903 18.0735 2.63835 18.1122C2.67767 18.151 2.72431 18.1816 2.77554 18.2022C2.82678 18.2228 2.8816 18.233 2.93681 18.2322H3.70341C3.74814 18.2395 3.79377 18.2395 3.8385 18.2322H17.0367C17.0815 18.2395 17.1271 18.2395 17.1718 18.2322H17.9368C17.992 18.233 18.0468 18.2228 18.0981 18.2022C18.1493 18.1816 18.1959 18.151 18.2353 18.1122C18.2746 18.0735 18.3058 18.0273 18.3271 17.9763C18.3484 17.9254 18.3594 17.8707 18.3594 17.8155C18.3594 17.7603 18.3484 17.7056 18.3271 17.6547C18.3058 17.6037 18.2746 17.5576 18.2353 17.5188C18.1959 17.48 18.1493 17.4494 18.0981 17.4289C18.0468 17.4083 17.992 17.3981 17.9368 17.3988H17.5201V7.6316L17.7203 7.75367C17.7669 7.7869 17.8199 7.81017 17.8759 7.82204C17.9319 7.83391 17.9897 7.83411 18.0458 7.82264C18.1019 7.81117 18.155 7.78828 18.2018 7.75538C18.2486 7.72248 18.2882 7.68028 18.318 7.63142C18.3478 7.58256 18.3672 7.52808 18.3751 7.47138C18.3829 7.41468 18.379 7.35698 18.3635 7.30187C18.3481 7.24676 18.3214 7.19542 18.2852 7.15106C18.2491 7.1067 18.2042 7.07027 18.1533 7.04403L10.6533 2.4607C10.5821 2.41668 10.4993 2.39513 10.4157 2.39885ZM10.4368 3.3038L16.6868 7.12216V17.3988H4.18681V7.12216L10.4368 3.3038ZM10.4303 7.39234C10.3756 7.39319 10.3216 7.40482 10.2713 7.42654C10.2211 7.44827 10.1757 7.47968 10.1376 7.51898C10.0995 7.55827 10.0695 7.60469 10.0494 7.65557C10.0292 7.70645 10.0193 7.7608 10.0201 7.81552V8.34611C9.67612 8.3929 9.32079 8.41603 9.03544 8.6163C8.62939 8.90128 8.35348 9.3991 8.35348 10.0014C8.35348 10.6133 8.66476 11.0887 9.06149 11.3507C9.45821 11.6126 9.90968 11.7236 10.3229 11.8406C10.7361 11.9575 11.1076 12.0802 11.3352 12.2475C11.5629 12.4148 11.6868 12.5825 11.6868 13.0173C11.6868 13.4895 11.263 14.0519 10.4515 14.0606C10.4406 14.0602 10.4298 14.0602 10.4189 14.0606C9.52439 14.0494 9.11845 13.4194 9.11845 13.4194C9.08831 13.3736 9.04946 13.3343 9.00412 13.3035C8.95877 13.2728 8.90781 13.2513 8.85416 13.2403C8.80051 13.2292 8.7452 13.2289 8.69141 13.2392C8.63762 13.2496 8.58639 13.2704 8.54065 13.3005C8.49491 13.3307 8.45555 13.3695 8.42483 13.4149C8.3941 13.4602 8.37261 13.5112 8.36158 13.5648C8.35054 13.6185 8.35019 13.6738 8.36053 13.7276C8.37087 13.7814 8.3917 13.8326 8.42184 13.8783C8.42184 13.8783 9.03108 14.5473 10.0201 14.7572V15.3155C10.0194 15.3707 10.0296 15.4255 10.0502 15.4768C10.0707 15.528 10.1013 15.5747 10.1401 15.614C10.1788 15.6533 10.225 15.6845 10.276 15.7058C10.3269 15.7271 10.3816 15.7381 10.4368 15.7381C10.492 15.7381 10.5467 15.7271 10.5976 15.7058C10.6486 15.6845 10.6948 15.6533 10.7335 15.614C10.7723 15.5747 10.8029 15.528 10.8235 15.4768C10.8441 15.4255 10.8543 15.3707 10.8535 15.3155V14.7393C11.8131 14.5356 12.5201 13.852 12.5201 13.0173C12.5201 12.3688 12.2274 11.8673 11.83 11.5753C11.4327 11.2832 10.9709 11.1571 10.5507 11.0382C10.1306 10.9193 9.74874 10.8064 9.52047 10.6557C9.29219 10.5049 9.18681 10.3795 9.18681 10.0014C9.18681 9.62284 9.30585 9.44432 9.51396 9.29826C9.71732 9.15554 10.0469 9.07425 10.4157 9.0704C10.4281 9.0715 10.4406 9.07204 10.4531 9.07203C11.021 9.08371 11.2832 9.37802 11.2832 9.37802C11.3194 9.41906 11.3633 9.45257 11.4125 9.47663C11.4617 9.50069 11.5151 9.51482 11.5698 9.51823C11.6244 9.52163 11.6792 9.51424 11.731 9.49647C11.7828 9.47871 11.8305 9.45091 11.8716 9.41468C11.9126 9.37845 11.9461 9.33449 11.9702 9.28531C11.9942 9.23612 12.0084 9.18269 12.0118 9.12805C12.0151 9.07341 12.0077 9.01863 11.99 8.96685C11.9722 8.91507 11.9444 8.86729 11.9082 8.82626C11.9082 8.82626 11.4775 8.49522 10.8535 8.34611V7.81552C10.8544 7.7597 10.844 7.70428 10.823 7.65255C10.8021 7.60081 10.7709 7.55381 10.7315 7.51434C10.692 7.47487 10.645 7.44373 10.5933 7.42277C10.5415 7.40181 10.4861 7.39147 10.4303 7.39234Z" fill="#FF4F4F"/>
</g>
</svg>
