<svg width="26" height="26" viewBox="0 0 26 26" fill="none" xmlns="http://www.w3.org/2000/svg">
<g id="icons8-money 1">
<path id="Vector" d="M11.628 4.42188C6.64061 4.42188 2.59424 8.46824 2.59424 13.4556C2.59424 18.443 6.64061 22.4894 11.628 22.4894C12.2416 22.4894 12.8376 22.4168 13.4159 22.3012C13.9433 22.3953 14.5295 22.4894 15.1411 22.4894C20.1285 22.4894 24.1749 18.443 24.1749 13.4556C24.1749 8.46824 20.1285 4.42188 15.1411 4.42188C14.5628 4.42188 13.9825 4.47285 13.4159 4.61008C12.8376 4.49441 12.2416 4.42188 11.628 4.42188ZM11.628 5.42562C12.1514 5.42562 12.6553 5.47268 13.1493 5.56678C13.2356 5.61579 13.3336 5.63735 13.4316 5.62951C17.0016 6.44702 19.658 9.63079 19.658 13.4556C19.658 17.2903 16.9859 20.476 13.4002 21.2817C13.3179 21.2837 13.2375 21.3053 13.165 21.3445C12.6651 21.4405 12.1573 21.4856 11.628 21.4856C7.18169 21.4856 3.59799 17.9019 3.59799 13.4556C3.59799 9.00933 7.18169 5.42562 11.628 5.42562ZM15.8312 5.47268C19.9501 5.82556 23.1711 9.24458 23.1711 13.4556C23.1711 17.6667 19.9501 21.0857 15.8312 21.4386C18.7032 19.9251 20.6617 16.9276 20.6617 13.4556C20.6617 9.98367 18.7032 6.98614 15.8312 5.47268ZM11.1261 7.935V9.03285C10.3223 9.13283 8.86768 9.83664 8.86768 11.5422C8.86768 14.7534 13.5414 13.1008 13.5414 15.5102C13.5414 16.314 13.1846 17.0629 11.628 17.0629C10.0714 17.0629 9.62049 15.865 9.62049 15.2122H8.61674C8.76769 17.3706 10.2733 17.8686 11.1261 18.0196V18.9762H12.1299V18.0196C12.8827 17.9686 14.6392 17.4236 14.6392 15.4161C14.6392 13.7595 13.2787 13.3027 11.973 13.0008C10.9183 12.7499 9.96553 12.5028 9.96553 11.4481C9.96553 10.9972 10.1694 9.98955 11.675 9.98955C12.7298 9.98955 13.2336 10.6443 13.3846 11.4481H14.3883C14.0864 10.3444 13.5845 9.34652 12.1299 9.09559V7.935H11.1261Z" fill="#FF4F4F"/>
</g>
</svg>
