<svg width="23" height="23" viewBox="0 0 23 23" fill="none" xmlns="http://www.w3.org/2000/svg">
<g id="user-rounded-svgrepo-com 1">
<path id="Vector" fill-rule="evenodd" clip-rule="evenodd" d="M11.7933 1.72656C9.34345 1.72656 7.35742 3.7126 7.35742 6.16249C7.35742 8.61238 9.34345 10.5984 11.7933 10.5984C14.2433 10.5984 16.2293 8.61238 16.2293 6.16249C16.2293 3.7126 14.2433 1.72656 11.7933 1.72656ZM8.75824 6.16249C8.75824 4.48624 10.1171 3.12738 11.7933 3.12738C13.4696 3.12738 14.8285 4.48624 14.8285 6.16249C14.8285 7.83873 13.4696 9.19759 11.7933 9.19759C10.1171 9.19759 8.75824 7.83873 8.75824 6.16249Z" fill="#FF4F4F"/>
<path id="Vector_2" fill-rule="evenodd" clip-rule="evenodd" d="M11.7937 12C9.88922 12 8.13059 12.4397 6.82375 13.1864C5.53672 13.9218 4.55615 15.0445 4.55615 16.4359C4.55615 17.8273 5.53672 18.95 6.82375 19.6854C8.13059 20.4322 9.88922 20.8718 11.7937 20.8718C13.6982 20.8718 15.4568 20.4322 16.7637 19.6854C18.0507 18.95 19.0313 17.8273 19.0313 16.4359C19.0313 15.0445 18.0507 13.9218 16.7637 13.1864C15.4568 12.4397 13.6982 12 11.7937 12ZM5.95697 16.4359C5.95697 15.7642 6.43979 15.0192 7.51875 14.4027C8.57789 13.7974 10.0878 13.4008 11.7937 13.4008C13.4996 13.4008 15.0095 13.7974 16.0686 14.4027C17.1476 15.0192 17.6305 15.7642 17.6305 16.4359C17.6305 17.1077 17.1476 17.8526 16.0686 18.4692C15.0095 19.0744 13.4996 19.471 11.7937 19.471C10.0878 19.471 8.57789 19.0744 7.51875 18.4692C6.43979 17.8526 5.95697 17.1077 5.95697 16.4359Z" fill="#FF4F4F"/>
</g>
</svg>
