<svg width="20" height="20" viewBox="0 0 33 33" fill="none" xmlns="http://www.w3.org/2000/svg">
<path d="M27.2334 9.77562L20.152 2.69421C19.9472 2.48939 19.6705 2.375 19.3818 2.375H7.94257C6.73873 2.375 5.76367 3.35006 5.76367 4.5539V28.5218C5.76367 29.7256 6.73873 30.7006 7.94257 30.7006H25.3737C26.5776 30.7006 27.5526 29.7256 27.5526 28.5218V10.5459C27.5526 10.2572 27.4382 9.98044 27.2334 9.77562ZM23.111 20.2223C23.0554 20.3563 22.9748 20.4773 22.8745 20.5775L18.5178 24.9342C18.3054 25.1466 18.0265 25.2534 17.7476 25.2534C17.4687 25.2534 17.1898 25.1466 16.9774 24.9342C16.5514 24.5082 16.5514 23.8197 16.9774 23.3937L19.4755 20.8956H11.2109C10.6084 20.8956 10.1215 20.4086 10.1215 19.8062C10.1215 19.2037 10.6084 18.7167 11.2109 18.7167H19.4755L16.9774 16.2186C16.5514 15.7926 16.5514 15.1041 16.9774 14.6781C17.4033 14.2522 18.0919 14.2522 18.5178 14.6781L22.8745 19.0348C22.9759 19.1351 23.0554 19.256 23.111 19.3911C23.221 19.6558 23.221 19.9565 23.111 20.2223ZM19.9265 11.0906C19.3251 11.0906 18.837 10.6025 18.837 10.0011V4.44931L25.4783 11.0906H19.9265Z" fill="black"/>
</svg>
