<svg width="27" height="26" viewBox="0 0 27 26" fill="none" xmlns="http://www.w3.org/2000/svg">
<path d="M17.7476 2.5938C17.6832 2.59458 17.6195 2.60733 17.5597 2.63138L4.03972 7.83138C3.94164 7.86916 3.85731 7.93577 3.79784 8.02244C3.73837 8.1091 3.70656 8.21175 3.70659 8.31685V19.2369C3.70562 19.3058 3.71835 19.3742 3.74405 19.4381C3.76974 19.5021 3.80789 19.5603 3.85627 19.6093C3.90465 19.6584 3.96231 19.6974 4.02588 19.724C4.08946 19.7506 4.15768 19.7643 4.22659 19.7643C4.29551 19.7643 4.36373 19.7506 4.42731 19.724C4.49088 19.6974 4.54854 19.6584 4.59692 19.6093C4.6453 19.5603 4.68345 19.5021 4.70914 19.4381C4.73484 19.3742 4.74757 19.3058 4.74659 19.2369V8.67435L17.9335 3.60232C18.0489 3.56019 18.1457 3.47855 18.2066 3.37187C18.2676 3.2652 18.2888 3.14038 18.2666 3.01955C18.2443 2.89871 18.18 2.78967 18.085 2.71174C17.99 2.63381 17.8705 2.59203 17.7476 2.5938ZM20.3476 4.6738C20.2832 4.67458 20.2195 4.68733 20.1597 4.71138L6.63972 9.91138C6.54164 9.94916 6.45731 10.0158 6.39784 10.1024C6.33837 10.1891 6.30656 10.2917 6.30659 10.3969V21.3169C6.30562 21.3858 6.31835 21.4542 6.34405 21.5181C6.36974 21.5821 6.40789 21.6403 6.45627 21.6893C6.50465 21.7384 6.56231 21.7774 6.62588 21.804C6.68946 21.8306 6.75768 21.8443 6.82659 21.8443C6.89551 21.8443 6.96373 21.8306 7.02731 21.804C7.09088 21.7774 7.14854 21.7384 7.19692 21.6893C7.2453 21.6403 7.28345 21.5821 7.30914 21.5181C7.33484 21.4542 7.34757 21.3858 7.34659 21.3169V10.7544L20.5335 5.68232C20.6489 5.64019 20.7457 5.55855 20.8066 5.45187C20.8676 5.3452 20.8888 5.22038 20.8666 5.09955C20.8443 4.97871 20.78 4.86967 20.685 4.79174C20.59 4.71381 20.4705 4.67203 20.3476 4.6738ZM22.9314 6.75685C22.8726 6.75858 22.8146 6.77026 22.7597 6.79138L9.23972 11.9914C9.14164 12.0292 9.05731 12.0958 8.99784 12.1824C8.93837 12.2691 8.90656 12.3717 8.90659 12.4769V23.9168C8.90657 24.0013 8.92711 24.0844 8.96642 24.1591C9.00573 24.2339 9.06264 24.2979 9.13223 24.3457C9.20182 24.3935 9.282 24.4236 9.36585 24.4335C9.44969 24.4433 9.53468 24.4326 9.61347 24.4023L23.1335 19.2023C23.2315 19.1645 23.3159 19.0979 23.3753 19.0113C23.4348 18.9246 23.4666 18.822 23.4666 18.7169V7.27685C23.4666 7.20726 23.4527 7.13838 23.4256 7.07428C23.3985 7.01018 23.3588 6.95217 23.3089 6.90368C23.259 6.85519 23.1999 6.81721 23.135 6.79199C23.0702 6.76677 23.0009 6.75482 22.9314 6.75685ZM22.4266 8.03451V18.3594L9.94659 23.1592V12.8344L22.4266 8.03451Z" fill="#FF4F4F"/>
</svg>
