<svg width="25" height="25" viewBox="0 0 25 25" fill="none" xmlns="http://www.w3.org/2000/svg">
<g id="icons8-cheque-3 1">
<path id="Vector" d="M20.5864 4.59375H4.58643C3.92362 4.59453 3.28819 4.85817 2.81952 5.32684C2.35085 5.79551 2.0872 6.43095 2.08643 7.09375V17.0938C2.0872 17.7566 2.35085 18.392 2.81952 18.8607C3.28819 19.3293 3.92362 19.593 4.58643 19.5938H20.5864C21.2492 19.593 21.8847 19.3293 22.3533 18.8607C22.822 18.392 23.0856 17.7566 23.0864 17.0938V7.09375C23.0856 6.43095 22.822 5.79551 22.3533 5.32684C21.8847 4.85817 21.2492 4.59453 20.5864 4.59375ZM22.0864 17.0938C22.086 17.4914 21.9278 17.8727 21.6466 18.1539C21.3654 18.4351 20.9841 18.5933 20.5864 18.5938H4.58643C4.18873 18.5933 3.80746 18.4351 3.52625 18.1539C3.24503 17.8727 3.08686 17.4914 3.08643 17.0938V7.09375C3.08686 6.69606 3.24503 6.31478 3.52625 6.03357C3.80746 5.75236 4.18873 5.59418 4.58643 5.59375H20.5864C20.9841 5.59418 21.3654 5.75236 21.6466 6.03357C21.9278 6.31478 22.086 6.69606 22.0864 7.09375V17.0938ZM19.0864 12.0938C19.0865 12.1594 19.0736 12.2245 19.0484 12.2851C19.0233 12.3458 18.9865 12.401 18.9401 12.4474C18.8936 12.4938 18.8385 12.5307 18.7778 12.5558C18.7171 12.5809 18.6521 12.5938 18.5864 12.5938H6.58643C6.45382 12.5938 6.32664 12.5411 6.23287 12.4473C6.1391 12.3535 6.08643 12.2264 6.08643 12.0938C6.08643 11.9611 6.1391 11.834 6.23287 11.7402C6.32664 11.6464 6.45382 11.5938 6.58643 11.5938H18.5864C18.6521 11.5937 18.7171 11.6066 18.7778 11.6317C18.8385 11.6568 18.8936 11.6937 18.9401 11.7401C18.9865 11.7865 19.0233 11.8417 19.0484 11.9024C19.0736 11.963 19.0865 12.0281 19.0864 12.0938ZM6.08643 9.09375C6.08639 9.02808 6.09929 8.96304 6.12441 8.90236C6.14952 8.84168 6.18635 8.78655 6.23279 8.74011C6.27922 8.69367 6.33436 8.65685 6.39504 8.63173C6.45572 8.60662 6.52075 8.59371 6.58643 8.59375H8.58643C8.71903 8.59375 8.84621 8.64643 8.93998 8.7402C9.03375 8.83396 9.08643 8.96114 9.08643 9.09375C9.08643 9.22636 9.03375 9.35354 8.93998 9.4473C8.84621 9.54107 8.71903 9.59375 8.58643 9.59375H6.58643C6.52075 9.59379 6.45572 9.58088 6.39504 9.55577C6.33436 9.53065 6.27922 9.49383 6.23279 9.44739C6.18635 9.40095 6.14952 9.34582 6.12441 9.28514C6.09929 9.22446 6.08639 9.15942 6.08643 9.09375ZM15.0864 15.0938C15.0865 15.1594 15.0736 15.2245 15.0484 15.2851C15.0233 15.3458 14.9865 15.401 14.9401 15.4474C14.8936 15.4938 14.8385 15.5307 14.7778 15.5558C14.7171 15.5809 14.6521 15.5938 14.5864 15.5938H6.58643C6.45382 15.5938 6.32664 15.5411 6.23287 15.4473C6.1391 15.3535 6.08643 15.2264 6.08643 15.0938C6.08643 14.9611 6.1391 14.834 6.23287 14.7402C6.32664 14.6464 6.45382 14.5938 6.58643 14.5938H14.5864C14.6521 14.5937 14.7171 14.6066 14.7778 14.6317C14.8385 14.6568 14.8936 14.6937 14.9401 14.7401C14.9865 14.7865 15.0233 14.8417 15.0484 14.9024C15.0736 14.963 15.0865 15.0281 15.0864 15.0938Z" fill="#FF4F4F"/>
</g>
</svg>
