<svg width="15" height="13" viewBox="0 0 15 13" fill="none" xmlns="http://www.w3.org/2000/svg">
<path d="M2.29239 0.0163675V12.7656H0.602414V0.0163675H2.29239ZM8.70828 12.7656H6.04635L6.06386 11.3909H8.70828C9.61894 11.3909 10.3778 11.2012 10.9849 10.8217C11.592 10.4364 12.0474 9.89938 12.3509 9.21054C12.6603 8.51587 12.815 7.70445 12.815 6.77628V5.99696C12.815 5.26726 12.7274 4.61929 12.5523 4.05305C12.3772 3.48097 12.1203 2.99937 11.7818 2.60825C11.4432 2.21129 11.0287 1.91066 10.5384 1.70634C10.0538 1.50203 9.49635 1.39987 8.86589 1.39987H5.99381V0.0163675H8.86589C9.70067 0.0163675 10.4625 0.156469 11.1513 0.436673C11.8401 0.711039 12.4327 1.11091 12.9288 1.63629C13.4309 2.15584 13.8162 2.7863 14.0847 3.52767C14.3532 4.2632 14.4875 5.09214 14.4875 6.01447V6.77628C14.4875 7.69861 14.3532 8.53047 14.0847 9.27184C13.8162 10.0074 13.428 10.6349 12.9201 11.1545C12.4181 11.674 11.8109 12.0739 11.0988 12.3541C10.3924 12.6284 9.59559 12.7656 8.70828 12.7656ZM6.94825 0.0163675V12.7656H5.25827V0.0163675H6.94825Z" fill="#FF4F4F"/>
</svg>
