<svg width="17" height="17" viewBox="0 0 25 26" fill="none" xmlns="http://www.w3.org/2000/svg">
<path d="M9.45045 0.882812C8.26722 0.882812 7.28547 1.86456 7.28547 3.04779V6.29526H9.45045V3.04779H14.8629V6.29526H18.1104V3.04779H20.2754V6.29526H22.4403V3.04779C22.4403 1.86456 21.4586 0.882812 20.2754 0.882812H9.45045ZM4.038 4.13028C2.25733 4.13028 0.790527 5.59709 0.790527 7.37776V22.5326C0.790527 24.3263 2.24431 25.7801 4.038 25.7801H22.4403C23.6365 25.7801 24.6053 24.8113 24.6053 23.6151V10.6252C24.6053 9.42907 23.6365 8.46025 22.4403 8.46025H13.7804H4.038C3.42636 8.46025 2.95551 7.9894 2.95551 7.37776C2.95551 6.76612 3.42636 6.29526 4.038 6.29526H5.12049V4.13028H4.038ZM20.2754 14.9552C21.4715 14.9552 22.4403 15.924 22.4403 17.1202C22.4403 18.3163 21.4715 19.2852 20.2754 19.2852C19.0792 19.2852 18.1104 18.3163 18.1104 17.1202C18.1104 15.924 19.0792 14.9552 20.2754 14.9552Z" fill="black"/>
</svg>
