<svg width="25" height="25" viewBox="0 0 25 25" fill="none" xmlns="http://www.w3.org/2000/svg">
<g id="icons8-cash 2" clip-path="url(#clip0_19494_31738)">
<path id="Vector" d="M1.09504 4.85156C0.960149 4.85156 0.83078 4.90515 0.735396 5.00053C0.640012 5.09592 0.586426 5.22529 0.586426 5.36018L0.586426 19.6014C0.586426 19.7363 0.640012 19.8657 0.735396 19.9611C0.83078 20.0565 0.960149 20.11 1.09504 20.11H24.4914C24.6263 20.11 24.7556 20.0565 24.851 19.9611C24.9464 19.8657 25 19.7363 25 19.6014V5.36018C25 5.22529 24.9464 5.09592 24.851 5.00053C24.7556 4.90515 24.6263 4.85156 24.4914 4.85156H1.09504ZM1.60366 5.86879H23.9828V19.0928H1.60366V5.86879ZM5.16397 6.88603C5.02908 6.88603 4.89971 6.93961 4.80433 7.035C4.70894 7.13038 4.65535 7.25975 4.65535 7.39464C4.65535 7.79932 4.4946 8.18743 4.20844 8.47358C3.92229 8.75973 3.53419 8.92049 3.12951 8.92049C2.99461 8.92049 2.86524 8.97408 2.76986 9.06946C2.67448 9.16485 2.62089 9.29421 2.62089 9.42911V15.5325C2.62089 15.6674 2.67448 15.7968 2.76986 15.8921C2.86524 15.9875 2.99461 16.0411 3.12951 16.0411C3.53419 16.0411 3.92229 16.2019 4.20844 16.488C4.4946 16.7742 4.65535 17.1623 4.65535 17.567C4.65535 17.7019 4.70894 17.8312 4.80433 17.9266C4.89971 18.022 5.02908 18.0756 5.16397 18.0756H20.4225C20.5573 18.0756 20.6867 18.022 20.7821 17.9266C20.8775 17.8312 20.9311 17.7019 20.9311 17.567C20.9311 17.1623 21.0918 16.7742 21.378 16.488C21.6641 16.2019 22.0522 16.0411 22.4569 16.0411C22.5918 16.0411 22.7212 15.9875 22.8166 15.8921C22.912 15.7968 22.9655 15.6674 22.9655 15.5325V9.42911C22.9655 9.29421 22.912 9.16485 22.8166 9.06946C22.7212 8.97408 22.5918 8.92049 22.4569 8.92049C22.0522 8.92049 21.6641 8.75973 21.378 8.47358C21.0918 8.18743 20.9311 7.79932 20.9311 7.39464C20.9311 7.25975 20.8775 7.13038 20.7821 7.035C20.6867 6.93961 20.5573 6.88603 20.4225 6.88603H5.16397ZM5.62192 7.90326H19.9645C20.0642 8.39205 20.3054 8.84073 20.6581 9.19347C21.0108 9.5462 21.4595 9.78741 21.9483 9.88706V15.0745C21.4595 15.1742 21.0108 15.4154 20.6581 15.7681C20.3054 16.1209 20.0642 16.5696 19.9645 17.0583H5.62192C5.52227 16.5696 5.28107 16.1209 4.92833 15.7681C4.5756 15.4154 4.12691 15.1742 3.63812 15.0745V9.88706C4.12691 9.78741 4.5756 9.5462 4.92833 9.19347C5.28107 8.84073 5.52227 8.39205 5.62192 7.90326ZM12.9204 9.43209C12.5093 9.41495 12.099 9.4811 11.7141 9.62658C11.3293 9.77206 10.9778 9.99386 10.6809 10.2786C10.384 10.5634 10.1477 10.9053 9.98623 11.2838C9.8248 11.6622 9.74156 12.0694 9.74152 12.4808C9.74152 13.2902 10.063 14.0664 10.6353 14.6387C11.2076 15.211 11.9839 15.5325 12.7932 15.5325C13.5903 15.5306 14.3549 15.2168 14.9237 14.6584C15.4924 14.1 15.8202 13.3413 15.8368 12.5444C15.8534 11.7475 15.5576 10.9758 15.0126 10.3942C14.4676 9.81255 13.7166 9.46725 12.9204 9.43209ZM12.7932 10.4463C13.1956 10.4463 13.5889 10.5657 13.9235 10.7892C14.2581 11.0128 14.5188 11.3305 14.6728 11.7022C14.8268 12.074 14.8671 12.4831 14.7886 12.8777C14.7101 13.2724 14.5163 13.6349 14.2318 13.9194C13.9473 14.2039 13.5848 14.3977 13.1901 14.4762C12.7955 14.5547 12.3864 14.5144 12.0147 14.3604C11.6429 14.2064 11.3252 13.9457 11.1016 13.6111C10.8781 13.2765 10.7587 12.8832 10.7587 12.4808C10.7587 11.9412 10.9731 11.4238 11.3546 11.0422C11.7362 10.6607 12.2536 10.4463 12.7932 10.4463ZM5.16397 11.9722C5.02908 11.9722 4.89971 12.0258 4.80433 12.1212C4.70894 12.2165 4.65535 12.3459 4.65535 12.4808C4.65535 12.6157 4.70894 12.7451 4.80433 12.8405C4.89971 12.9358 5.02908 12.9894 5.16397 12.9894H7.19844C7.33333 12.9894 7.4627 12.9358 7.55808 12.8405C7.65347 12.7451 7.70705 12.6157 7.70705 12.4808C7.70705 12.3459 7.65347 12.2165 7.55808 12.1212C7.4627 12.0258 7.33333 11.9722 7.19844 11.9722H5.16397ZM18.388 11.9722C18.2531 11.9722 18.1237 12.0258 18.0283 12.1212C17.933 12.2165 17.8794 12.3459 17.8794 12.4808C17.8794 12.6157 17.933 12.7451 18.0283 12.8405C18.1237 12.9358 18.2531 12.9894 18.388 12.9894H20.4225C20.5573 12.9894 20.6867 12.9358 20.7821 12.8405C20.8775 12.7451 20.9311 12.6157 20.9311 12.4808C20.9311 12.3459 20.8775 12.2165 20.7821 12.1212C20.6867 12.0258 20.5573 11.9722 20.4225 11.9722H18.388Z" fill="#FF4F4F"/>
</g>
<defs>
<clipPath id="clip0_19494_31738">
<rect width="24.4136" height="24.4136" fill="white" transform="translate(0.586426 0.28125)"/>
</clipPath>
</defs>
</svg>
