<svg width="18" height="18" viewBox="0 0 27 27" fill="none" xmlns="http://www.w3.org/2000/svg">
<path d="M6.46198 3.90625C5.4979 3.90625 4.71704 4.68711 4.71704 5.65119V17.8657C4.71704 18.8298 5.4979 19.6107 6.46198 19.6107V9.14106C6.46198 7.21639 8.02718 5.65119 9.95185 5.65119H18.6765C18.6765 4.68711 17.8957 3.90625 16.9316 3.90625H6.46198ZM9.95185 7.39612C8.98777 7.39612 8.20691 8.17698 8.20691 9.14106V21.3556C8.20691 22.3197 8.98777 23.1005 9.95185 23.1005H20.4215C21.3855 23.1005 22.1664 22.3197 22.1664 21.3556V9.14106C22.1664 8.17698 21.3855 7.39612 20.4215 7.39612H9.95185ZM11.6968 10.886H18.6765C19.1581 10.886 19.549 11.2769 19.549 11.7585C19.549 12.2401 19.1581 12.6309 18.6765 12.6309H11.6968C11.2152 12.6309 10.8243 12.2401 10.8243 11.7585C10.8243 11.2769 11.2152 10.886 11.6968 10.886ZM11.6968 14.3759H18.6765C19.1581 14.3759 19.549 14.7667 19.549 15.2483C19.549 15.7299 19.1581 16.1208 18.6765 16.1208H11.6968C11.2152 16.1208 10.8243 15.7299 10.8243 15.2483C10.8243 14.7667 11.2152 14.3759 11.6968 14.3759ZM11.6968 17.8657H18.6765C19.1581 17.8657 19.549 18.2566 19.549 18.7382C19.549 19.2198 19.1581 19.6107 18.6765 19.6107H11.6968C11.2152 19.6107 10.8243 19.2198 10.8243 18.7382C10.8243 18.2566 11.2152 17.8657 11.6968 17.8657Z" fill="#121212"/>
</svg>
