<svg width="38" height="37" viewBox="0 0 38 37" fill="none" xmlns="http://www.w3.org/2000/svg">
<path fill-rule="evenodd" clip-rule="evenodd" d="M19.3073 4.19974C11.4962 4.19974 5.16409 10.5319 5.16409 18.3429C5.16409 26.1539 11.4962 32.4861 19.3073 32.4861C27.1183 32.4861 33.4504 26.1539 33.4504 18.3429C33.4504 10.5319 27.1183 4.19974 19.3073 4.19974ZM2.87061 18.3429C2.87061 9.26519 10.2295 1.90625 19.3073 1.90625C28.385 1.90625 35.7439 9.26519 35.7439 18.3429C35.7439 27.4207 28.385 34.7795 19.3073 34.7795C10.2295 34.7795 2.87061 27.4207 2.87061 18.3429ZM19.3073 8.02221C19.9406 8.02221 20.454 8.53563 20.454 9.16895V9.65323C22.9469 10.0996 25.041 11.9725 25.041 14.5204C25.041 15.1537 24.5275 15.6672 23.8942 15.6672C23.2609 15.6672 22.7475 15.1537 22.7475 14.5204C22.7475 13.4831 21.885 12.385 20.454 11.9937V17.2981C22.9469 17.7446 25.041 19.6175 25.041 22.1654C25.041 24.7133 22.9469 26.5861 20.454 27.0326V27.5168C20.454 28.1501 19.9406 28.6636 19.3073 28.6636C18.6739 28.6636 18.1605 28.1501 18.1605 27.5168V27.0326C15.6676 26.5861 13.5735 24.7133 13.5735 22.1654C13.5735 21.5321 14.087 21.0186 14.7203 21.0186C15.3536 21.0186 15.867 21.5321 15.867 22.1654C15.867 23.2028 16.7295 24.3008 18.1605 24.692V19.3877C15.6676 18.9412 13.5735 17.0683 13.5735 14.5204C13.5735 11.9725 15.6676 10.0996 18.1605 9.65323V9.16895C18.1605 8.53563 18.6739 8.02221 19.3073 8.02221ZM18.1605 11.9937C16.7295 12.385 15.867 13.4831 15.867 14.5204C15.867 15.5578 16.7295 16.6558 18.1605 17.0471V11.9937ZM20.454 19.6387V24.692C21.885 24.3008 22.7475 23.2028 22.7475 22.1654C22.7475 21.128 21.885 20.03 20.454 19.6387Z" fill="#FF4F4F"/>
</svg>
