<svg width="18" height="18" viewBox="0 0 18 18" fill="none" xmlns="http://www.w3.org/2000/svg">
<path d="M8.76928 1.77344C4.77976 1.77344 1.54492 5.00827 1.54492 8.9978C1.54492 12.9873 4.77976 16.2222 8.76928 16.2222C12.7588 16.2222 15.9936 12.9873 15.9936 8.9978C15.9936 5.00827 12.7588 1.77344 8.76928 1.77344ZM8.25326 5.51462C8.25326 5.44367 8.31131 5.38562 8.38226 5.38562H9.1563C9.22725 5.38562 9.28531 5.44367 9.28531 5.51462V9.90084C9.28531 9.9718 9.22725 10.0298 9.1563 10.0298H8.38226C8.31131 10.0298 8.25326 9.9718 8.25326 9.90084V5.51462ZM8.76928 12.61C8.56673 12.6058 8.37387 12.5225 8.23208 12.3778C8.0903 12.2331 8.01088 12.0385 8.01088 11.8359C8.01088 11.6333 8.0903 11.4388 8.23208 11.2941C8.37387 11.1494 8.56673 11.066 8.76928 11.0619C8.97183 11.066 9.16469 11.1494 9.30648 11.2941C9.44827 11.4388 9.52768 11.6333 9.52768 11.8359C9.52768 12.0385 9.44827 12.2331 9.30648 12.3778C9.16469 12.5225 8.97183 12.6058 8.76928 12.61Z" fill="#FF4F4F"/>
</svg>
