<svg width="18" height="20" viewBox="0 0 23 31" fill="none" xmlns="http://www.w3.org/2000/svg">
<path d="M22.1097 8.50401L14.8172 1.21153C14.6063 1.00061 14.3213 0.882812 14.024 0.882812H2.24384C1.00412 0.882812 0 1.88693 0 3.12665V27.8089C0 29.0486 1.00412 30.0527 2.24384 30.0527H20.1945C21.4343 30.0527 22.4384 29.0486 22.4384 27.8089V9.29721C22.4384 8.9999 22.3206 8.71493 22.1097 8.50401ZM11.2192 25.565C10.5988 25.565 10.0973 25.0624 10.0973 24.4431C10.0973 23.8238 10.5988 23.3212 11.2192 23.3212C13.6941 23.3212 15.7069 21.3085 15.7069 18.8335C15.7069 16.3586 13.6941 14.3458 11.2192 14.3458C8.74424 14.3458 6.73151 16.3586 6.73151 18.8335H8.97535L5.6096 23.3212L2.24384 18.8335H4.48768C4.48768 15.1211 7.50676 12.102 11.2192 12.102C14.9316 12.102 17.9507 15.1211 17.9507 18.8335C17.9507 22.5459 14.9316 25.565 11.2192 25.565ZM14.5849 9.85817C13.9656 9.85817 13.463 9.35555 13.463 8.73625V3.01895L20.3022 9.85817H14.5849Z" fill="black"/>
</svg>
