<svg width="22" height="18" viewBox="0 0 22 18" fill="none" xmlns="http://www.w3.org/2000/svg">
<path d="M11 0.09375C4.7975 0.09375 3.98183 1.04561 3.67761 2.17108C2.72511 5.69233 2.63082 6.27024 2.25488 6.64618C1.43551 7.46555 0.6875 8.28551 0.6875 9.86426V13.6875V14.9949V16.2656C0.6875 16.913 1.21203 17.4375 1.85938 17.4375H2.79688C3.44422 17.4375 3.96875 16.913 3.96875 16.2656V15.3199C5.69779 15.4463 8.04597 15.5625 11 15.5625C13.954 15.5625 16.3022 15.4463 18.0312 15.3199V16.2656C18.0312 16.913 18.5558 17.4375 19.2031 17.4375H20.1406C20.788 17.4375 21.3125 16.913 21.3125 16.2656V14.9949V13.6875V9.86426C21.3125 8.28504 20.5645 7.46555 19.7451 6.64618C19.3692 6.27024 19.2744 5.69233 18.3224 2.17108C18.0177 1.04561 17.2025 0.09375 11 0.09375ZM11 1.96875C15.7339 1.96875 16.4411 2.24865 16.6488 3.06006C16.9246 4.13789 17.1289 4.92592 17.3025 5.54846C16.463 5.6234 14.7643 5.71875 11 5.71875C7.23569 5.71875 5.53695 5.6234 4.69751 5.54846C4.87102 4.92596 5.07543 4.13789 5.3512 3.06006C5.55885 2.24865 6.26609 1.96875 11 1.96875ZM4.06671 7.32642C5.06668 7.45114 7.03886 7.59375 11 7.59375C14.9611 7.59375 16.9333 7.45114 17.9333 7.32642C18.0738 7.58301 18.2236 7.77605 18.4194 7.97186C19.1582 8.71061 19.4375 9.06598 19.4375 9.86426V13.3231C17.7823 13.482 14.8902 13.6875 11 13.6875C7.10984 13.6875 4.21766 13.482 2.5625 13.3231V9.86426C2.5625 9.06598 2.84182 8.71061 3.58057 7.97186C3.77652 7.77591 3.92619 7.58302 4.06671 7.32642ZM5.14062 9C4.49328 9 3.96875 9.52453 3.96875 10.1719C3.96875 10.8192 4.49328 11.3438 5.14062 11.3438C5.78797 11.3438 6.3125 10.8192 6.3125 10.1719C6.3125 9.52453 5.78797 9 5.14062 9ZM16.8594 9C16.212 9 15.6875 9.52453 15.6875 10.1719C15.6875 10.8192 16.212 11.3438 16.8594 11.3438C17.5067 11.3438 18.0312 10.8192 18.0312 10.1719C18.0312 9.52453 17.5067 9 16.8594 9ZM8.65625 9.9375C8.13828 9.9375 7.71875 10.357 7.71875 10.875C7.71875 11.393 8.13828 11.8125 8.65625 11.8125H13.3438C13.8617 11.8125 14.2812 11.393 14.2812 10.875C14.2812 10.357 13.8617 9.9375 13.3438 9.9375H8.65625Z" fill="#888888"/>
</svg>
