<svg width="20" height="20" viewBox="0 0 20 20" fill="none" xmlns="http://www.w3.org/2000/svg">
<path d="M10 0.375C5.17438 0.375 1.25 4.29938 1.25 9.125C0.767 9.125 0.375 9.517 0.375 10V17C0.375 18.4477 1.55231 19.625 3 19.625H17C18.4477 19.625 19.625 18.4477 19.625 17V10C19.625 9.517 19.233 9.125 18.75 9.125C18.75 4.29938 14.8256 0.375 10 0.375ZM10 2.125C13.8587 2.125 17 5.26625 17 9.125H13.0625C13.0625 7.43625 11.6888 6.0625 10 6.0625C8.31125 6.0625 6.9375 7.43625 6.9375 9.125H3C3 5.26625 6.14125 2.125 10 2.125ZM10 7.8125C10.7219 7.8125 11.3125 8.40312 11.3125 9.125H8.6875C8.6875 8.40312 9.27812 7.8125 10 7.8125ZM2.5625 10.875H17.4375C17.679 10.875 17.875 11.071 17.875 11.3125V17C17.875 17.4834 17.4834 17.875 17 17.875H3C2.51656 17.875 2.125 17.4834 2.125 17V11.3125C2.125 11.071 2.321 10.875 2.5625 10.875ZM7.8125 12.625C7.32906 12.625 6.9375 13.0166 6.9375 13.5C6.9375 13.9834 7.32906 14.375 7.8125 14.375H12.1875C12.6709 14.375 13.0625 13.9834 13.0625 13.5C13.0625 13.0166 12.6709 12.625 12.1875 12.625H7.8125Z" fill="#888888"/>
</svg>
