<svg width="28" height="26" viewBox="0 0 28 26" fill="none" xmlns="http://www.w3.org/2000/svg">
<path d="M19.6667 7.33464H25.3333C26.1158 7.33464 26.75 7.96891 26.75 8.7513V24.3346L22.0282 20.4119C21.774 20.2005 21.4528 20.0846 21.122 20.0846H9.75C8.96759 20.0846 8.33333 19.4504 8.33333 18.668V14.418M19.6667 7.33464V3.08464C19.6667 2.30224 19.0324 1.66797 18.25 1.66797H2.66667C1.88427 1.66797 1.25 2.30224 1.25 3.08464V18.6684L5.97176 14.7449C6.22611 14.5337 6.54726 14.418 6.87793 14.418H8.33333M19.6667 7.33464V13.0013C19.6667 13.7837 19.0324 14.418 18.25 14.418H8.33333" stroke="#888888" stroke-width="2.3" stroke-linecap="round" stroke-linejoin="round"/>
</svg>
