<svg width="24" height="24" viewBox="0 0 24 24" fill="none" xmlns="http://www.w3.org/2000/svg">
<g id="icons8-amount 1">
<path id="Vector" d="M10.515 3.26562C5.745 3.26562 1.875 7.13563 1.875 11.9056C1.875 16.6756 5.745 20.5456 10.515 20.5456C11.1019 20.5456 11.6719 20.4763 12.225 20.3656C12.7294 20.4556 13.29 20.5456 13.875 20.5456C18.645 20.5456 22.515 16.6756 22.515 11.9056C22.515 7.13563 18.645 3.26562 13.875 3.26562C13.3219 3.26562 12.7537 3.31438 12.21 3.44563C11.6606 3.33688 11.0962 3.26562 10.515 3.26562ZM10.515 4.22563C11.0044 4.22563 11.475 4.27438 11.94 4.36063C12.03 4.41313 12.1369 4.43375 12.24 4.42063C15.6544 5.2025 18.195 8.2475 18.195 11.9056C18.195 15.5731 15.6394 18.62 12.21 19.3906C12.1313 19.3925 12.0544 19.4131 11.985 19.4506C11.5069 19.5425 11.0212 19.5856 10.515 19.5856C6.2625 19.5856 2.835 16.1581 2.835 11.9056C2.835 7.65313 6.2625 4.22563 10.515 4.22563ZM14.535 4.27062C18.4744 4.60813 21.555 7.87813 21.555 11.9056C21.555 15.9331 18.4744 19.2031 14.535 19.5406C17.2819 18.0931 19.155 15.2263 19.155 11.9056C19.155 8.585 17.2819 5.71813 14.535 4.27062ZM10.32 7.82563C10.2712 8.16125 10.1794 8.39938 10.035 8.59063C9.89062 8.78188 9.70125 8.975 9.51 9.07063C9.27 9.16625 9.03 9.26188 8.79 9.31063C8.50125 9.35938 8.25375 9.35563 7.965 9.35563V10.1356H10.08V15.9856H11.04V7.82563H10.32Z" fill="#FF4F4F"/>
</g>
</svg>
