<svg width="20" height="20" viewBox="0 0 35 35" fill="none" xmlns="http://www.w3.org/2000/svg">
<g clip-path="url(#clip0_17331_14679)">
<path d="M25.3187 0.453125L24.9085 2.64161C24.7033 2.71002 24.4296 2.77869 24.2244 2.91551L22.3766 1.61551L20.3244 3.66772L21.5563 5.37789C21.4879 5.65152 21.3508 5.85781 21.2824 6.13144L19.162 6.47347V9.34603L21.2824 9.68807C21.3508 9.89329 21.4195 10.1669 21.5563 10.3721L20.3244 12.2186L22.3766 14.2708L24.2244 13.0403C24.498 13.1771 24.703 13.2458 24.9766 13.3142L25.3187 15.5027H28.1231L28.5333 13.3823C28.7385 13.3139 28.9437 13.2452 29.2173 13.1084L31.0651 14.3403L33.1173 12.2881L31.8173 10.5084C31.9541 10.2348 32.0228 9.96143 32.0912 9.75621L34.2116 9.34603V6.47347L32.0231 6.13144C31.9547 5.92622 31.886 5.65259 31.7492 5.44737L32.9797 3.59958L30.997 1.61551L29.2173 2.91551C29.0121 2.77869 28.7385 2.71002 28.5333 2.64161L28.1912 0.453125H25.3187ZM2.74436 3.87347C1.98983 3.87347 1.37622 4.48708 1.37622 5.24161V25.0796C1.37622 25.8342 1.98983 26.4478 2.74436 26.4478H31.4753C32.2298 26.4478 32.8434 25.8342 32.8434 25.0796V14.3857C32.4248 14.7886 31.9664 15.1486 31.4753 15.4639V20.9752H2.74436V5.24161H18.2281C18.382 4.76618 18.5748 4.30991 18.8026 3.87347H2.74436ZM26.6868 5.92568C27.8155 5.92568 28.739 6.74657 28.739 7.97789C28.739 9.10661 27.8155 10.0301 26.6868 10.0301C25.5581 10.0301 24.6346 9.10661 24.6346 7.97789C24.6346 6.84918 25.5581 5.92568 26.6868 5.92568ZM28.0549 23.0274H29.4231V24.3956H28.0549V23.0274ZM13.0054 27.8159V29.1841H10.9532C9.82174 29.1841 8.90099 30.1048 8.90099 31.2363V31.9203H25.3187V31.2363C25.3187 30.1048 24.3979 29.1841 23.2665 29.1841H21.2142V27.8159H13.0054Z" fill="black"/>
</g>
<defs>
<clipPath id="clip0_17331_14679">
<rect width="34.2035" height="34.2035" fill="white" transform="translate(0.00830078 0.453125)"/>
</clipPath>
</defs>
</svg>
