<svg width="26" height="16" viewBox="0 0 26 16" fill="none" xmlns="http://www.w3.org/2000/svg">
<path d="M3.05091 0.71875C2.2509 0.71875 1.53262 1.22202 1.25935 1.97406L1.25122 1.99539L0.211223 5.90148C0.0767149 6.1583 -0.00703714 6.44493 -0.00916764 6.75258L-0.0365895 11.0903C-0.0420321 11.9417 0.656634 12.6465 1.50818 12.6473L2.6406 12.6483C2.72626 13.246 2.96529 13.8239 3.38099 14.2916C3.90962 14.8863 4.72331 15.2788 5.71997 15.2788C7.26067 15.2788 8.49122 14.129 8.73943 12.6564L17.2463 12.6676C17.3354 13.2561 17.5313 13.8307 17.941 14.2916C18.4696 14.8863 19.2833 15.2788 20.28 15.2788C21.8205 15.2788 23.1048 14.148 23.3533 12.6757L24.4776 12.6767C25.312 12.6783 26 11.9915 26 11.1573V8.21305C26 6.93902 25.0723 5.84409 23.8154 5.63438L19.305 4.88281L17.0879 1.71406C16.6513 1.09026 15.9366 0.71875 15.1754 0.71875H3.05091ZM3.05091 1.75875H5.13091L4.74091 4.87875H4.67997H1.87685C1.7657 4.87875 1.65792 4.89348 1.55185 4.91227L2.23943 2.32648C2.36542 1.98439 2.68636 1.75875 3.05091 1.75875ZM6.17903 1.75875H10.92V4.87875H5.78903L6.17903 1.75875ZM11.96 1.75875H15.1754C15.5988 1.75875 15.9932 1.96372 16.2358 2.31023L18.0334 4.87875H11.96V1.75875ZM5.71997 10.0788C6.87489 10.0788 7.79997 11.0038 7.79997 12.1588C7.79997 13.3137 6.87489 14.2388 5.71997 14.2388C4.98331 14.2388 4.49699 13.9812 4.15896 13.6009C3.82093 13.2207 3.63997 12.6932 3.63997 12.1588C3.63997 11.6243 3.82093 11.0968 4.15896 10.7166C4.49699 10.3363 4.98331 10.0788 5.71997 10.0788ZM20.28 10.0788C21.4349 10.0788 22.36 11.0038 22.36 12.1588C22.36 13.3137 21.4349 14.2388 20.28 14.2388C19.5433 14.2388 19.057 13.9812 18.719 13.6009C18.3809 13.2207 18.2 12.6932 18.2 12.1588C18.2 11.6243 18.3809 11.0968 18.719 10.7166C19.057 10.3363 19.5433 10.0788 20.28 10.0788Z" fill="black"/>
</svg>
