<svg width="37" height="37" viewBox="0 0 37 37" fill="none" xmlns="http://www.w3.org/2000/svg">
<path fill-rule="evenodd" clip-rule="evenodd" d="M15.0519 4.78125H22.9866C25.1103 4.78122 26.822 4.78119 28.1684 4.96219C29.5661 5.15012 30.7429 5.55214 31.6777 6.48684C32.6124 7.42154 33.0144 8.59841 33.2023 9.99616C33.3832 11.3424 33.3832 13.0542 33.3832 15.1779V21.8902C34.7002 22.0786 35.7125 23.2113 35.7125 24.5803V26.1331C35.7125 29.3493 33.1054 31.9564 29.8893 31.9564H8.14917C4.93308 31.9564 2.32593 29.3493 2.32593 26.1331V24.5803C2.32593 23.2113 3.33829 22.0786 4.65522 21.8902V15.1779C4.65519 13.0542 4.65516 11.3424 4.83616 9.99616C5.02409 8.59841 5.42611 7.42154 6.36081 6.48684C7.29551 5.55214 8.47238 5.15012 9.87013 4.96219C11.2164 4.78119 12.9282 4.78122 15.0519 4.78125ZM5.04344 24.1921C4.82904 24.1921 4.65522 24.3658 4.65522 24.5803V26.1331C4.65522 28.0627 6.21952 29.6271 8.14917 29.6271H29.8893C31.8189 29.6271 33.3832 28.0627 33.3832 26.1331V24.5803C33.3832 24.3658 33.2094 24.1921 32.995 24.1921H26.266C25.8459 24.1921 25.4372 24.3282 25.1013 24.5803L23.6519 25.6673C22.9127 26.2216 22.0138 26.5213 21.0896 26.5213H16.9488C16.0247 26.5213 15.1257 26.2216 14.3865 25.6673L12.9372 24.5803C12.6012 24.3282 12.1925 24.1921 11.7725 24.1921H5.04344ZM31.0539 21.8628H26.266C25.3419 21.8628 24.4429 22.1625 23.7037 22.7168L22.2543 23.8038C21.9184 24.0559 21.5097 24.1921 21.0896 24.1921H16.9488C16.5287 24.1921 16.12 24.0559 15.7841 23.8038L14.3347 22.7168C13.5956 22.1625 12.6965 21.8628 11.7725 21.8628H6.98452V15.2631C6.98452 13.0341 6.98699 11.4795 7.1447 10.3065C7.29789 9.16708 7.5781 8.56367 8.00787 8.1339C8.43764 7.70413 9.04104 7.42391 10.1805 7.27072C11.3535 7.11302 12.908 7.11055 15.1371 7.11055H22.9014C25.1304 7.11055 26.6849 7.11302 27.858 7.27072C28.9975 7.42391 29.6007 7.70413 30.0306 8.1339C30.4604 8.56367 30.7405 9.16708 30.8938 10.3065C31.0514 11.4795 31.0539 13.0341 31.0539 15.2631V21.8628Z" fill="#FF4F4F"/>
</svg>
