<svg width="26" height="25" viewBox="0 0 26 25" fill="none" xmlns="http://www.w3.org/2000/svg">
<path d="M13 4.07031C11.2389 4.07031 10.0848 4.18863 9.35355 4.31858C8.66499 4.44078 8.36628 4.58237 8.32943 4.59789C8.32749 4.59983 8.26736 4.61341 8.26736 4.61341C7.53225 4.86168 6.41309 5.20305 5.89327 6.21165C5.76719 6.45605 5.57905 6.95259 5.30362 7.65473C5.0922 8.19395 4.84393 8.87475 4.58984 9.53229H3.11573C2.37867 9.53229 1.8317 9.77862 1.50197 10.153C1.17223 10.5273 1.08301 10.9715 1.08301 11.3167C1.08301 11.7027 1.28473 12.0887 1.59507 12.2788C1.90541 12.4689 2.2526 12.5115 2.61919 12.5115H3.44159C3.364 12.7191 3.10021 13.4115 3.10021 13.4115L3.06918 13.5046V19.4631C3.06918 20.2797 3.74223 20.9528 4.55881 20.9528H6.54498C7.36156 20.9528 8.03461 20.2797 8.03461 19.4631V18.9666H17.9655V19.4631C17.9655 20.2797 18.6385 20.9528 19.4551 20.9528H21.4413C22.2578 20.9528 22.9309 20.2797 22.9309 19.4631V13.5046L22.8999 13.4115C22.8999 13.4115 22.64 12.721 22.5585 12.5115H23.3809C23.7475 12.5115 24.0947 12.4689 24.405 12.2788C24.7153 12.0887 24.9171 11.7027 24.9171 11.3167C24.9171 10.9715 24.8278 10.5273 24.4981 10.153C24.1684 9.77862 23.6214 9.53229 22.8843 9.53229H21.4102C21.3792 9.45858 21.3482 9.38681 21.3327 9.34608C20.7954 7.95731 20.2775 6.63449 20.0913 6.21165C19.6161 5.13129 18.3941 4.79961 17.7327 4.61341C17.7114 4.60759 17.6745 4.58819 17.6551 4.58237V4.59789C17.6086 4.57849 17.3254 4.44078 16.6465 4.31858C15.9153 4.18863 14.7612 4.07031 13 4.07031ZM13 5.0634C14.7147 5.0634 15.8164 5.19335 16.4758 5.31167C17.1353 5.42999 17.2982 5.51339 17.2982 5.51339L17.3448 5.52891L17.3758 5.54442C17.981 5.71705 18.9566 6.11467 19.1758 6.6151C19.3193 6.94095 19.8838 8.39373 20.4016 9.71849C20.5258 10.0346 20.7333 10.5506 20.6654 10.8667C20.6305 11.0258 20.5704 11.1402 20.3396 11.2702C20.1087 11.4001 19.6743 11.5185 18.9586 11.5185H7.04152C6.3258 11.5185 5.89133 11.4001 5.66051 11.2702C5.4297 11.1402 5.36957 11.0258 5.33466 10.8667C5.26677 10.5506 5.47431 10.0346 5.59845 9.71849L5.56741 9.70297C5.79435 9.11139 6.0271 8.49847 6.21912 8.01162C6.49261 7.3153 6.737 6.75669 6.77773 6.67716C7.05316 6.14183 7.91241 5.77718 8.63977 5.52891H8.6708L8.70184 5.51339C8.70184 5.51339 8.86477 5.42999 9.52424 5.31167C10.1837 5.19335 11.2854 5.0634 13 5.0634ZM3.11573 10.5254H4.1864C3.99826 11.02 3.96528 11.117 3.81399 11.5185H2.61919C2.34182 11.5185 2.1692 11.47 2.12264 11.4409C2.07609 11.4118 2.07609 11.4564 2.07609 11.3167C2.07609 11.1364 2.12652 10.9405 2.24678 10.8047C2.36704 10.6689 2.57652 10.5254 3.11573 10.5254ZM21.7826 10.5254H22.8843C23.4236 10.5254 23.633 10.6689 23.7533 10.8047C23.8736 10.9405 23.924 11.1364 23.924 11.3167C23.924 11.4564 23.924 11.4118 23.8774 11.4409C23.8309 11.47 23.6583 11.5185 23.3809 11.5185H22.1706C22.0115 11.1111 21.9766 11.0277 21.7826 10.5254ZM4.77605 11.8133C4.89048 11.9335 5.02238 12.0499 5.17949 12.1391C5.62754 12.3913 6.22106 12.5115 7.04152 12.5115H18.9586C19.779 12.5115 20.3725 12.3913 20.8206 12.1391C20.9777 12.0499 21.1096 11.9335 21.224 11.8133C21.515 12.5775 21.9204 13.6482 21.9378 13.6908V17.5546C21.9378 17.7873 21.7439 17.9735 21.4878 17.9735H4.51226C4.25623 17.9735 4.06227 17.7873 4.06227 17.5546V13.6908C4.07778 13.6482 4.49286 12.5697 4.77605 11.8133ZM6.04844 13.0081C5.23186 13.0081 4.55881 13.6811 4.55881 14.4977C4.55881 14.938 4.74113 15.3298 4.99328 15.5994C5.24543 15.869 5.54995 16.0514 5.84672 16.2201C6.26761 16.4587 6.55468 16.641 6.88635 16.7787C7.21803 16.9164 7.57492 16.9804 8.03461 16.9804C9.12468 16.9804 10.0208 16.0863 10.0208 14.9943C10.0208 13.9023 9.12468 13.0081 8.03461 13.0081H6.04844ZM17.9655 13.0081C16.8754 13.0081 15.9793 13.9023 15.9793 14.9943C15.9793 16.0863 16.8754 16.9804 17.9655 16.9804C18.4252 16.9804 18.782 16.9164 19.1137 16.7787C19.4454 16.641 19.7325 16.4587 20.1534 16.2201C20.4501 16.0514 20.7546 15.869 21.0068 15.5994C21.2589 15.3298 21.4413 14.938 21.4413 14.4977C21.4413 13.6811 20.7682 13.0081 19.9516 13.0081H17.9655ZM6.04844 14.0012H8.03461C8.58934 14.0012 9.0277 14.4395 9.0277 14.9943C9.0277 15.549 8.58934 15.9873 8.03461 15.9873C7.6622 15.9873 7.47794 15.9544 7.25876 15.8632C7.03958 15.772 6.7661 15.5994 6.32774 15.3511C6.04844 15.194 5.84284 15.0447 5.72258 14.9167C5.60232 14.7887 5.55189 14.7053 5.55189 14.4977C5.55189 14.2184 5.76913 14.0012 6.04844 14.0012ZM17.9655 14.0012H19.9516C20.2309 14.0012 20.4482 14.2184 20.4482 14.4977C20.4482 14.7053 20.3978 14.7887 20.2775 14.9167C20.1572 15.0447 19.9516 15.194 19.6723 15.3511C19.234 15.5994 18.9605 15.772 18.7413 15.8632C18.5221 15.9544 18.3379 15.9873 17.9655 15.9873C17.4107 15.9873 16.9724 15.549 16.9724 14.9943C16.9724 14.4395 17.4107 14.0012 17.9655 14.0012ZM4.06227 18.889C4.2058 18.9356 4.35515 18.9666 4.51226 18.9666H7.04152V19.4631C7.04152 19.7425 6.82429 19.9597 6.54498 19.9597H4.55881C4.2795 19.9597 4.06227 19.7425 4.06227 19.4631V18.889ZM21.9378 18.889V19.4631C21.9378 19.7425 21.7206 19.9597 21.4413 19.9597H19.4551C19.1758 19.9597 18.9586 19.7425 18.9586 19.4631V18.9666H21.4878C21.6449 18.9666 21.7943 18.9356 21.9378 18.889Z" fill="#FF4F4F"/>
</svg>
