<svg width="25" height="24" viewBox="0 0 25 24" fill="none" xmlns="http://www.w3.org/2000/svg">
<g id="icons8-paycheque-2 1">
<path id="Vector" d="M2.38623 4.79688V19.1969H22.7862V4.79688H2.38623ZM2.98623 5.39687H22.1862V18.5969H2.98623V5.39687ZM18.3917 8.18594V8.60195C17.5397 8.67461 17.0253 9.14219 17.0253 9.85586C17.0253 10.4605 17.4038 10.8719 18.1022 11.0441L18.3917 11.1121V12.4C17.9722 12.3543 17.6968 12.1129 17.6687 11.7742H16.9315C16.9351 12.4879 17.4917 12.9648 18.3917 13.0187V13.409H18.8077V13.0164C19.7171 12.9402 20.2409 12.4727 20.2409 11.7238C20.2409 11.0863 19.8753 10.6961 19.1077 10.5168L18.8077 10.4547V9.23125C19.171 9.2793 19.4253 9.52656 19.4347 9.83711H20.1565C20.1413 9.15859 19.6151 8.67461 18.8077 8.60195V8.18594H18.3917ZM5.68623 8.69687C5.521 8.69687 5.38623 8.83164 5.38623 8.99687C5.38623 9.16211 5.521 9.29687 5.68623 9.29687C5.85146 9.29687 5.98623 9.16211 5.98623 8.99687C5.98623 8.83164 5.85146 8.69687 5.68623 8.69687ZM6.88623 8.69687C6.721 8.69687 6.58623 8.83164 6.58623 8.99687C6.58623 9.16211 6.721 9.29687 6.88623 9.29687C7.05146 9.29687 7.18623 9.16211 7.18623 8.99687C7.18623 8.83164 7.05146 8.69687 6.88623 8.69687ZM8.08623 8.69687C7.921 8.69687 7.78623 8.83164 7.78623 8.99687C7.78623 9.16211 7.921 9.29687 8.08623 9.29687C8.25146 9.29687 8.38623 9.16211 8.38623 8.99687C8.38623 8.83164 8.25146 8.69687 8.08623 8.69687ZM9.28623 8.69687C9.121 8.69687 8.98623 8.83164 8.98623 8.99687C8.98623 9.16211 9.121 9.29687 9.28623 9.29687C9.45146 9.29687 9.58623 9.16211 9.58623 8.99687C9.58623 8.83164 9.45146 8.69687 9.28623 8.69687ZM10.4862 8.69687C10.321 8.69687 10.1862 8.83164 10.1862 8.99687C10.1862 9.16211 10.321 9.29687 10.4862 9.29687C10.6515 9.29687 10.7862 9.16211 10.7862 8.99687C10.7862 8.83164 10.6515 8.69687 10.4862 8.69687ZM11.6862 8.69687C11.521 8.69687 11.3862 8.83164 11.3862 8.99687C11.3862 9.16211 11.521 9.29687 11.6862 9.29687C11.8515 9.29687 11.9862 9.16211 11.9862 8.99687C11.9862 8.83164 11.8515 8.69687 11.6862 8.69687ZM12.8862 8.69687C12.721 8.69687 12.5862 8.83164 12.5862 8.99687C12.5862 9.16211 12.721 9.29687 12.8862 9.29687C13.0515 9.29687 13.1862 9.16211 13.1862 8.99687C13.1862 8.83164 13.0515 8.69687 12.8862 8.69687ZM14.0862 8.69687C13.921 8.69687 13.7862 8.83164 13.7862 8.99687C13.7862 9.16211 13.921 9.29687 14.0862 9.29687C14.2515 9.29687 14.3862 9.16211 14.3862 8.99687C14.3862 8.83164 14.2515 8.69687 14.0862 8.69687ZM18.3917 9.22656V10.3656C17.9862 10.2812 17.7718 10.082 17.7718 9.79258C17.7718 9.48437 18.0319 9.24766 18.3917 9.22656ZM5.68623 10.4969C5.521 10.4969 5.38623 10.6316 5.38623 10.7969C5.38623 10.9621 5.521 11.0969 5.68623 11.0969C5.85146 11.0969 5.98623 10.9621 5.98623 10.7969C5.98623 10.6316 5.85146 10.4969 5.68623 10.4969ZM6.88623 10.4969C6.721 10.4969 6.58623 10.6316 6.58623 10.7969C6.58623 10.9621 6.721 11.0969 6.88623 11.0969C7.05146 11.0969 7.18623 10.9621 7.18623 10.7969C7.18623 10.6316 7.05146 10.4969 6.88623 10.4969ZM8.08623 10.4969C7.921 10.4969 7.78623 10.6316 7.78623 10.7969C7.78623 10.9621 7.921 11.0969 8.08623 11.0969C8.25146 11.0969 8.38623 10.9621 8.38623 10.7969C8.38623 10.6316 8.25146 10.4969 8.08623 10.4969ZM9.28623 10.4969C9.121 10.4969 8.98623 10.6316 8.98623 10.7969C8.98623 10.9621 9.121 11.0969 9.28623 11.0969C9.45146 11.0969 9.58623 10.9621 9.58623 10.7969C9.58623 10.6316 9.45146 10.4969 9.28623 10.4969ZM10.4862 10.4969C10.321 10.4969 10.1862 10.6316 10.1862 10.7969C10.1862 10.9621 10.321 11.0969 10.4862 11.0969C10.6515 11.0969 10.7862 10.9621 10.7862 10.7969C10.7862 10.6316 10.6515 10.4969 10.4862 10.4969ZM11.6862 10.4969C11.521 10.4969 11.3862 10.6316 11.3862 10.7969C11.3862 10.9621 11.521 11.0969 11.6862 11.0969C11.8515 11.0969 11.9862 10.9621 11.9862 10.7969C11.9862 10.6316 11.8515 10.4969 11.6862 10.4969ZM12.8862 10.4969C12.721 10.4969 12.5862 10.6316 12.5862 10.7969C12.5862 10.9621 12.721 11.0969 12.8862 11.0969C13.0515 11.0969 13.1862 10.9621 13.1862 10.7969C13.1862 10.6316 13.0515 10.4969 12.8862 10.4969ZM18.8077 11.1906C19.2858 11.2855 19.5038 11.4777 19.5038 11.8012C19.5038 12.1574 19.2495 12.3789 18.8077 12.4059V11.1906ZM6.70342 12.2969C6.29209 12.2969 5.95225 12.5687 5.73193 12.9262C5.51045 13.2848 5.38623 13.7488 5.38623 14.2562C5.38623 14.6805 5.51162 15.202 5.79287 15.6543C5.83623 15.7234 5.9124 15.7703 5.96396 15.8359C5.79053 15.9848 5.521 16.2473 5.521 16.2473C5.38271 16.3387 5.34404 16.525 5.43545 16.6633C5.52803 16.8004 5.71436 16.8391 5.85146 16.7465C5.85146 16.7465 6.17607 16.443 6.39521 16.2578C6.62256 16.3984 6.88271 16.4969 7.18623 16.4969C7.621 16.4969 7.97607 16.3574 8.23506 16.15C8.49404 15.9414 8.66045 15.6754 8.77998 15.427C8.87607 15.2254 8.9335 15.0578 8.98857 14.9113C9.01201 14.977 9.02959 15.0215 9.05771 15.0988C9.11514 15.257 9.18076 15.4316 9.30264 15.591C9.42451 15.7504 9.63662 15.8969 9.88623 15.8969C10.1616 15.8969 10.3679 15.7187 10.5003 15.543C10.6315 15.3672 10.7265 15.1703 10.8237 14.9875C10.9222 14.8059 11.0206 14.6383 11.1155 14.5363C11.2116 14.4344 11.2784 14.3969 11.3862 14.3969C11.494 14.398 11.5948 14.3418 11.6499 14.248C11.7038 14.1543 11.7038 14.0395 11.6499 13.9457C11.5948 13.852 11.494 13.7957 11.3862 13.7969C11.0921 13.7969 10.8448 13.9469 10.6784 14.1262C10.5108 14.3055 10.3972 14.5129 10.294 14.7062C10.1921 14.8984 10.1007 15.0766 10.021 15.182C9.94014 15.2875 9.91084 15.2969 9.88623 15.2969C9.83701 15.2969 9.82998 15.2934 9.77959 15.2277C9.73037 15.1621 9.67295 15.0367 9.62256 14.8949C9.57217 14.7543 9.52764 14.6008 9.45732 14.4543C9.42217 14.3816 9.38232 14.3078 9.31084 14.2363C9.23936 14.1648 9.11631 14.0969 8.98623 14.0969C8.81865 14.0969 8.68857 14.207 8.62295 14.2949C8.55732 14.384 8.51982 14.4707 8.48115 14.5645C8.40498 14.7508 8.33584 14.9652 8.23975 15.1668C8.14248 15.3684 8.02061 15.5523 7.86006 15.6812C7.69834 15.8113 7.50029 15.8969 7.18623 15.8969C7.06084 15.8969 6.96826 15.8406 6.86631 15.802C7.33154 15.243 7.78623 14.4648 7.78623 13.4969C7.78623 13.2391 7.71826 12.9602 7.546 12.7199C7.37373 12.4809 7.07139 12.2969 6.70342 12.2969ZM6.70342 12.8969C6.89092 12.8969 6.97998 12.9613 7.05967 13.0715C7.13936 13.1828 7.18623 13.3527 7.18623 13.4969C7.18623 14.2797 6.79014 14.9441 6.38467 15.4281C6.36006 15.3941 6.32607 15.3754 6.30264 15.3391C6.09287 15.0004 5.98623 14.5516 5.98623 14.2562C5.98623 13.8496 6.09287 13.4852 6.24287 13.2414C6.3917 12.9977 6.56162 12.8969 6.70342 12.8969Z" fill="#FF4F4F"/>
</g>
</svg>
