<svg width="25" height="26" viewBox="0 0 25 26" fill="none" xmlns="http://www.w3.org/2000/svg">
<path d="M12.7855 4.21875C12.7549 4.22066 12.7263 4.22256 12.6958 4.23019C10.6474 4.24736 8.7286 4.81383 7.07878 5.79037C7.03873 5.80754 7.00058 5.83043 6.96434 5.85713C5.28782 6.87754 3.9012 8.329 2.95136 10.0532C2.92657 10.0875 2.90559 10.1238 2.89033 10.1638C2.05874 11.7145 1.58191 13.4826 1.56665 15.3574C1.5533 15.4223 1.5533 15.4871 1.56665 15.5501C1.58191 17.6138 2.09689 19.4257 3.09822 21.087C3.21457 21.2796 3.44917 21.3674 3.6647 21.2987C3.88022 21.2301 4.02136 21.0222 4.0042 20.7971L4.02708 21.0965L5.86001 20.0342C6.01641 19.9502 6.11368 19.7881 6.11368 19.6107C6.11559 19.4334 6.02022 19.2693 5.86573 19.1816C5.71124 19.0939 5.52242 19.0977 5.36983 19.1892L3.74099 20.1333C3.04673 18.8478 2.62712 17.4994 2.55464 15.9449H4.49247C4.66794 15.9468 4.83197 15.8553 4.92161 15.7027C5.00935 15.5501 5.00935 15.3632 4.92161 15.2106C4.83197 15.058 4.66794 14.9664 4.49247 14.9684H2.55464C2.6214 13.5531 2.97997 12.218 3.5617 11.0107C3.83635 11.1595 4.27503 11.396 5.26111 11.9319C5.41561 12.0196 5.60443 12.0177 5.75702 11.9262C5.90769 11.8346 5.99924 11.6668 5.99161 11.4913C5.98589 11.3139 5.88481 11.1537 5.7265 11.0717C4.74042 10.5377 4.30364 10.3012 4.02708 10.1524C4.80908 8.86496 5.85429 7.75872 7.10358 6.92522L8.10873 8.59793C8.19647 8.74861 8.36049 8.84207 8.53597 8.84016C8.71335 8.83635 8.87356 8.74098 8.95939 8.58649C9.04331 8.432 9.03759 8.24318 8.94604 8.0944L7.94089 6.42169C9.25121 5.7179 10.7313 5.29257 12.3048 5.21818V7.15601C12.3029 7.33148 12.3945 7.49551 12.547 7.58515C12.6996 7.67289 12.8865 7.67289 13.0391 7.58515C13.1917 7.49551 13.2833 7.33148 13.2814 7.15601V5.21818C14.6966 5.28494 16.0355 5.63588 17.2428 6.21761L16.3178 7.92465C16.2301 8.07915 16.232 8.26797 16.3235 8.42056C16.4151 8.57123 16.5829 8.66278 16.7584 8.65515C16.9358 8.64943 17.096 8.54834 17.178 8.39004L18.1011 6.6849C19.3886 7.46499 20.491 8.51783 21.3245 9.76712L19.6518 10.7723C19.5011 10.86 19.4076 11.024 19.4095 11.1995C19.4134 11.3769 19.5087 11.5371 19.6632 11.6229C19.8177 11.7069 20.0065 11.7011 20.1553 11.6096L21.828 10.6044C22.5318 11.9147 22.9571 13.3948 23.0315 14.9684H21.0937C20.9182 14.9664 20.7542 15.058 20.6646 15.2106C20.5768 15.3632 20.5768 15.5501 20.6646 15.7027C20.7542 15.8553 20.9182 15.9468 21.0937 15.9449H23.0315C22.959 17.4994 22.5394 18.8478 21.8471 20.1333L20.2163 19.1892C20.0638 19.0977 19.8749 19.0939 19.7204 19.1816C19.5659 19.2693 19.4706 19.4334 19.4725 19.6107C19.4725 19.7881 19.5698 19.9502 19.7262 20.0342L21.5591 21.0965L21.582 20.7971C21.5648 21.0222 21.7059 21.2301 21.9215 21.2987C22.137 21.3674 22.3716 21.2796 22.4879 21.087C23.4893 19.4276 24.0043 17.6157 24.0214 15.5558C24.0329 15.491 24.0329 15.4242 24.0214 15.3613C24.0023 13.309 23.434 11.3864 22.4536 9.7366C22.4403 9.70036 22.4212 9.66794 22.3983 9.63551C22.3964 9.63551 22.3964 9.63551 22.3964 9.63551C22.3964 9.6336 22.3945 9.6336 22.3926 9.6317C21.3741 7.95708 19.9264 6.57237 18.206 5.62253C18.1641 5.59011 18.1183 5.56722 18.0706 5.55005C16.5219 4.72228 14.7595 4.24545 12.8865 4.23019C12.8541 4.22256 12.8198 4.21875 12.7855 4.21875ZM18.4368 11.6382C18.3434 11.6363 18.2518 11.6611 18.1717 11.7107L13.7239 14.3389C13.4702 14.1253 13.1478 13.9918 12.7931 13.9918C11.9901 13.9918 11.3283 14.6536 11.3283 15.4566C11.3283 16.2596 11.9901 16.9214 12.7931 16.9214C13.5961 16.9214 14.2579 16.2596 14.2579 15.4566C14.2579 15.3613 14.2465 15.2659 14.2293 15.1743L18.6676 12.5499C18.8583 12.4412 18.9518 12.218 18.8984 12.0063C18.845 11.7946 18.6562 11.6439 18.4368 11.6382ZM12.7931 14.9684C12.9476 14.9684 13.0773 15.0389 13.165 15.1457C13.1841 15.1972 13.2127 15.243 13.2489 15.285C13.268 15.3384 13.2814 15.3956 13.2814 15.4566C13.2814 15.7313 13.0677 15.9449 12.7931 15.9449C12.5184 15.9449 12.3048 15.7313 12.3048 15.4566C12.3048 15.182 12.5184 14.9684 12.7931 14.9684ZM9.86345 19.3628C9.68798 19.3609 9.52395 19.4524 9.43431 19.605C9.34657 19.7576 9.34657 19.9445 9.43431 20.0971C9.52395 20.2497 9.68798 20.3412 9.86345 20.3393H15.7227C15.8982 20.3412 16.0622 20.2497 16.1519 20.0971C16.2396 19.9445 16.2396 19.7576 16.1519 19.605C16.0622 19.4524 15.8982 19.3609 15.7227 19.3628H9.86345Z" fill="#FF4F4F"/>
</svg>
