<svg width="23" height="23" viewBox="0 0 23 23" fill="none" xmlns="http://www.w3.org/2000/svg">
<g clip-path="url(#clip0_17372_14859)">
<path d="M2.78619 2.32031C2.54331 2.32031 2.34619 2.49681 2.34619 2.73969V20.3603C2.34619 20.6032 2.54331 20.8003 2.78619 20.8003H8.50619V19.9203H3.22619V3.17969H19.9462V13.3203H20.8262V2.73969C20.8262 2.49681 20.6291 2.32031 20.3862 2.32031H2.78619ZM9.38619 4.52031C8.6624 4.52031 8.06619 5.11653 8.06619 5.84031C8.0662 5.8983 8.07767 5.9557 8.09994 6.00924C8.12221 6.06277 8.15484 6.11138 8.19596 6.15227C8.3512 6.70842 8.78355 7.16031 9.38619 7.16031H13.7862C14.3888 7.16031 14.8212 6.70842 14.9764 6.15227C15.0175 6.11138 15.0502 6.06277 15.0724 6.00924C15.0947 5.9557 15.1062 5.8983 15.1062 5.84031C15.1062 5.11653 14.51 4.52031 13.7862 4.52031H9.38619ZM9.38619 5.40031H13.7862C14.0348 5.40031 14.2262 5.5917 14.2262 5.84031C14.2262 6.08893 14.0348 6.28031 13.7862 6.28031H9.38619C9.13758 6.28031 8.94619 6.08893 8.94619 5.84031C8.94619 5.5917 9.13758 5.40031 9.38619 5.40031ZM9.38619 14.2003V14.6403V17.0448V19.7158V22.5603H12.4662H19.5062H22.5862V19.7158V17.0448V14.2003H19.5062H12.4662H9.38619ZM10.2662 15.0803H11.1144C11.0333 15.238 10.9714 15.3883 10.9236 15.5031C10.8677 15.6376 10.8078 15.7247 10.8308 15.7008C10.8535 15.6772 10.7775 15.7346 10.6555 15.7859C10.5517 15.8294 10.4099 15.8856 10.2662 15.9491V15.0803ZM12.4662 15.0803H19.5062C19.8435 15.0803 19.9192 15.1953 20.051 15.4309C20.1169 15.5487 20.1742 15.6926 20.2358 15.8409C20.2974 15.9891 20.3467 16.1436 20.5065 16.3101V16.3109H20.5074C20.6667 16.4762 20.8243 16.5335 20.9757 16.5971C21.1272 16.6607 21.2771 16.716 21.4011 16.7741C21.5251 16.8323 21.6177 16.8943 21.6598 16.9383C21.7019 16.9823 21.7062 16.9871 21.7062 17.0448V19.7158C21.7062 19.7737 21.7019 19.7783 21.6598 19.8223C21.6177 19.8664 21.5251 19.9283 21.4011 19.9865C21.2771 20.0446 21.1272 20.0999 20.9757 20.1635C20.8242 20.2271 20.6667 20.2851 20.5074 20.4505H20.5065C20.3464 20.6171 20.2974 20.7716 20.2358 20.9198C20.1742 21.0679 20.1169 21.2119 20.051 21.3297C19.9192 21.5652 19.8435 21.6803 19.5062 21.6803H12.4662C12.1289 21.6803 12.0532 21.5653 11.9213 21.3297C11.8554 21.2119 11.7974 21.068 11.7357 20.9198C11.674 20.7715 11.6253 20.617 11.465 20.4505C11.3058 20.2849 11.1481 20.2272 10.9967 20.1635C10.8452 20.0999 10.6952 20.0446 10.5713 19.9865C10.4473 19.9283 10.3547 19.8664 10.3126 19.8223C10.2705 19.7783 10.2662 19.7737 10.2662 19.7158V17.0448C10.2662 17.016 10.2676 17.0003 10.2739 16.9864C10.2803 16.9725 10.2915 16.9603 10.3126 16.9383C10.3547 16.8943 10.4473 16.8323 10.5713 16.7741C10.6952 16.716 10.8452 16.6607 10.9967 16.5971C11.1481 16.5335 11.3057 16.4764 11.465 16.3109C11.6251 16.1445 11.674 15.9891 11.7357 15.8409C11.7974 15.6926 11.8554 15.5488 11.9213 15.4309C12.0532 15.1953 12.1289 15.0803 12.4662 15.0803ZM20.858 15.0803H21.7062V15.9491C21.5623 15.8856 21.4199 15.8294 21.316 15.7859C21.1947 15.7349 21.1204 15.6786 21.1416 15.7008L21.1407 15.6999C21.1627 15.7226 21.1044 15.6369 21.0488 15.5031C21.001 15.3882 20.9391 15.238 20.858 15.0803ZM15.9862 15.9603C14.7467 15.9603 13.7862 17.0754 13.7862 18.3803C13.7862 19.6852 14.7467 20.8003 15.9862 20.8003C17.2257 20.8003 18.1862 19.6852 18.1862 18.3803C18.1862 17.0754 17.2257 15.9603 15.9862 15.9603ZM15.9862 16.8403C16.6907 16.8403 17.3062 17.4982 17.3062 18.3803C17.3062 19.2625 16.6907 19.9203 15.9862 19.9203C15.2817 19.9203 14.6662 19.2625 14.6662 18.3803C14.6662 17.4982 15.2817 16.8403 15.9862 16.8403ZM12.2462 17.7203C12.0711 17.7203 11.9033 17.7898 11.7795 17.9136C11.6557 18.0374 11.5862 18.2053 11.5862 18.3803C11.5862 18.5554 11.6557 18.7232 11.7795 18.847C11.9033 18.9708 12.0711 19.0403 12.2462 19.0403C12.4212 19.0403 12.5891 18.9708 12.7129 18.847C12.8367 18.7232 12.9062 18.5554 12.9062 18.3803C12.9062 18.2053 12.8367 18.0374 12.7129 17.9136C12.5891 17.7898 12.4212 17.7203 12.2462 17.7203ZM19.7262 17.7203C19.5511 17.7203 19.3833 17.7898 19.2595 17.9136C19.1357 18.0374 19.0662 18.2053 19.0662 18.3803C19.0662 18.5554 19.1357 18.7232 19.2595 18.847C19.3833 18.9708 19.5511 19.0403 19.7262 19.0403C19.9012 19.0403 20.0691 18.9708 20.1929 18.847C20.3167 18.7232 20.3862 18.5554 20.3862 18.3803C20.3862 18.2053 20.3167 18.0374 20.1929 17.9136C20.0691 17.7898 19.9012 17.7203 19.7262 17.7203ZM10.2662 20.8115C10.4099 20.875 10.5518 20.9312 10.6555 20.9748C10.7775 21.026 10.8534 21.0843 10.8308 21.0607C10.8076 21.0366 10.8677 21.1231 10.9236 21.2575C10.9714 21.3723 11.0333 21.5226 11.1144 21.6803H10.2662V20.8115ZM21.7062 20.8115V21.6803H20.858C20.9391 21.5226 21.001 21.3723 21.0488 21.2575C21.1047 21.1231 21.1648 21.0365 21.1416 21.0607C21.12 21.0833 21.1945 21.0258 21.316 20.9748C21.4198 20.9312 21.5623 20.8751 21.7062 20.8115Z" fill="#FF4F4F"/>
</g>
<defs>
<clipPath id="clip0_17372_14859">
<rect width="22" height="22" fill="white" transform="translate(0.586426 0.5625)"/>
</clipPath>
</defs>
</svg>
