<svg width="27" height="27" viewBox="0 0 27 27" fill="none" xmlns="http://www.w3.org/2000/svg">
<g clip-path="url(#clip0_26813_22048)">
<path d="M16.1844 18.0547C16.1844 18.6787 15.0404 19.3547 13.5844 19.3547C12.1284 19.3547 10.9844 18.7307 10.9844 18.0547" stroke="#FF4F4F" stroke-width="1.04" stroke-miterlimit="10" stroke-linecap="round"/>
<path d="M24.4495 15.1953C23.9295 15.1953 23.4615 15.4033 23.0455 15.7673L22.9415 15.8193L22.8895 15.8713L22.7335 16.0273L22.3695 16.3913L22.2655 16.4953L16.1815 22.6313C16.1295 22.6833 16.0775 22.7873 16.0255 22.8393L15.1415 25.9593C15.0375 26.2193 15.1935 26.5313 15.5055 26.5833C15.6095 26.6353 15.7135 26.6353 15.7655 26.5833L18.8855 25.7513C18.9895 25.7513 19.0415 25.6993 19.1455 25.5953L25.8015 18.9393L25.9575 18.8353C26.7895 18.0033 26.7895 16.6513 25.9575 15.8193C25.5415 15.3513 24.9695 15.1953 24.4495 15.1953ZM24.4495 16.2353C24.7095 16.2353 25.0215 16.3393 25.2295 16.5473C25.6455 16.9633 25.6455 17.5873 25.2815 18.0033L23.7735 16.4953C23.9815 16.3393 24.1895 16.2353 24.4495 16.2353ZM22.9935 17.2233L24.5535 18.7833L18.8855 24.4513L17.3255 22.9433L22.9935 17.2233ZM16.8055 23.9313L17.8975 25.0233L16.3895 25.4393L16.8055 23.9313Z" fill="#FF4F4F"/>
<path d="M14.6103 24.0312H4.28881C4.66789 21.959 6.48945 21.2294 8.25693 20.5227C9.66145 19.9606 10.9885 19.4297 11.4232 18.228L11.4544 18.1422V15.8672L11.4648 15.5718L11.2027 15.4221C11.0046 15.2744 10.4539 14.2557 10.3598 13.2698L10.3531 12.8039H9.88037C9.80653 12.7753 9.57409 12.5283 9.47633 11.82C9.44045 11.3837 9.66301 11.2038 9.66249 11.2038L9.96929 11L9.87881 10.6433C9.24805 8.15611 9.35257 6.33715 10.1887 5.23787C10.833 4.39027 11.963 3.94203 13.5349 3.90667C14.5182 3.90667 15.226 4.15419 15.4776 4.58475L15.6045 4.80263L15.8531 4.83799C16.5457 4.93575 17.0356 5.23631 17.3512 5.75735C18.1042 7.00275 17.7074 9.33339 17.256 10.5959L17.0917 11.0244L17.5041 11.2303C17.5504 11.2631 17.6752 11.4425 17.644 11.8153C17.5738 12.5849 17.3299 12.7898 17.2779 12.7992H16.8047L16.76 13.2703C16.6658 14.2562 16.1157 15.2744 15.9275 15.4158L15.6659 15.5651V18.1474L15.7002 18.2368C15.9919 18.9986 16.6409 19.4885 17.437 19.8899L18.2128 19.1078C17.4989 18.7839 16.9357 18.436 16.7054 17.9456V16.0991C17.1453 15.6228 17.5842 14.6285 17.7459 13.7227C18.1161 13.5407 18.5727 13.0779 18.6793 11.9063C18.7287 11.3208 18.5675 10.8903 18.346 10.6126C18.7874 9.19403 19.1748 6.76355 18.2404 5.21863C17.7979 4.48647 17.1219 4.02575 16.229 3.84739C15.7267 3.21299 14.7824 2.86719 13.523 2.86719C11.6068 2.91035 10.2059 3.49639 9.35985 4.60867C8.35833 5.92635 8.17061 7.94551 8.80033 10.6131C8.58557 10.8892 8.39213 11.3307 8.44257 11.9339C8.59649 13.0566 9.02289 13.5194 9.37077 13.7092C9.53093 14.6192 9.97189 15.6207 10.4144 16.0996V17.9519C10.0967 18.6669 9.06189 19.0808 7.87057 19.5576C5.86129 20.3615 3.36061 21.362 3.18693 24.5231L3.15625 25.0712H14.3154L14.6103 24.0312Z" fill="#FF4F4F"/>
</g>
<defs>
<clipPath id="clip0_26813_22048">
<rect width="26" height="26" fill="white" transform="translate(0.585938 0.632812)"/>
</clipPath>
</defs>
</svg>
