<svg width="23" height="24" viewBox="0 0 23 24" fill="none" xmlns="http://www.w3.org/2000/svg">
<g clip-path="url(#clip0_17418_14273)">
<path fill-rule="evenodd" clip-rule="evenodd" d="M11.7933 1.89062C9.34345 1.89062 7.35742 3.87666 7.35742 6.32655C7.35742 8.77644 9.34345 10.7625 11.7933 10.7625C14.2433 10.7625 16.2293 8.77644 16.2293 6.32655C16.2293 3.87666 14.2433 1.89062 11.7933 1.89062ZM8.75824 6.32655C8.75824 4.6503 10.1171 3.29144 11.7933 3.29144C13.4696 3.29144 14.8285 4.6503 14.8285 6.32655C14.8285 8.00279 13.4696 9.36165 11.7933 9.36165C10.1171 9.36165 8.75824 8.00279 8.75824 6.32655Z" fill="#FF4F4F"/>
<path fill-rule="evenodd" clip-rule="evenodd" d="M11.7937 12.1641C9.88922 12.1641 8.13059 12.6037 6.82375 13.3505C5.53672 14.0859 4.55615 15.2086 4.55615 16.6C4.55615 17.9914 5.53672 19.1141 6.82375 19.8495C8.13059 20.5962 9.88922 21.0359 11.7937 21.0359C13.6982 21.0359 15.4568 20.5962 16.7637 19.8495C18.0507 19.1141 19.0313 17.9914 19.0313 16.6C19.0313 15.2086 18.0507 14.0859 16.7637 13.3505C15.4568 12.6037 13.6982 12.1641 11.7937 12.1641ZM5.95697 16.6C5.95697 15.9282 6.43979 15.1833 7.51875 14.5667C8.57789 13.9615 10.0878 13.5649 11.7937 13.5649C13.4996 13.5649 15.0095 13.9615 16.0686 14.5667C17.1476 15.1833 17.6305 15.9282 17.6305 16.6C17.6305 17.2717 17.1476 18.0167 16.0686 18.6332C15.0095 19.2385 13.4996 19.6351 11.7937 19.6351C10.0878 19.6351 8.57789 19.2385 7.51875 18.6332C6.43979 18.0167 5.95697 17.2717 5.95697 16.6Z" fill="#FF4F4F"/>
<path d="M18.8249 4.78906C18.3928 4.78906 18.0426 5.1393 18.0426 5.57135C18.0426 6.0034 18.3928 6.35365 18.8249 6.35365H20.0654L17.2286 9.19042C16.9232 9.49592 16.9232 9.99123 17.2286 10.2967C17.5341 10.6022 18.0294 10.6022 18.3349 10.2967L21.1717 7.45998V8.70052C21.1717 9.13257 21.522 9.48282 21.954 9.48282C22.3861 9.48282 22.7363 9.13257 22.7363 8.70052V5.57135C22.7363 5.1393 22.3861 4.78906 21.954 4.78906H18.8249Z" fill="#FF4F4F"/>
</g>
<defs>
<clipPath id="clip0_17418_14273">
<rect width="22.4131" height="22.4131" fill="white" transform="translate(0.586426 0.726562)"/>
</clipPath>
</defs>
</svg>
