<svg width="20" height="20" viewBox="0 0 24 24" fill="none" xmlns="http://www.w3.org/2000/svg">
<path d="M22 18.3984C21.6912 18.3984 2.30885 18.3984 2.00005 18.3984C1.33765 18.3984 0.800049 18.936 0.800049 19.5984C0.800049 20.2608 1.33765 20.7984 2.00005 20.7984C2.30885 20.7984 21.6912 20.7984 22 20.7984C22.6624 20.7984 23.2 20.2608 23.2 19.5984C23.2 18.936 22.6624 18.3984 22 18.3984Z" fill="#121212"/>
<path d="M19.9999 3.20312H13.5999C13.5999 3.64472 13.2415 4.00313 12.7999 4.00313H11.1999C10.7583 4.00313 10.3999 3.64472 10.3999 3.20312H3.9999C3.1159 3.20312 2.3999 3.91913 2.3999 4.80313V15.2031C2.3999 16.0871 3.1159 16.8031 3.9999 16.8031H19.9999C20.8839 16.8031 21.5999 16.0871 21.5999 15.2031V4.80313C21.5999 3.91913 20.8839 3.20312 19.9999 3.20312Z" fill="#121212"/>
<path d="M14.4 19.2016H9.60005C9.15845 19.2016 8.80005 18.8432 8.80005 18.4016V17.6016H15.2V18.4016C15.2 18.8432 14.8416 19.2016 14.4 19.2016Z" fill="white"/>
</svg>
