<svg width="25" height="18" viewBox="0 0 25 18" fill="none" xmlns="http://www.w3.org/2000/svg">
<path d="M1.90016 0.0078125C1.14641 0.0078125 0.535156 0.620938 0.535156 1.37281V13.9278C0.535156 14.6797 1.22141 15.3678 1.97516 15.3678H3.94016C4.16891 16.7291 5.35016 17.7678 6.77516 17.7678C8.20016 17.7678 9.38141 16.7291 9.61016 15.3678H14.0502C14.802 15.3678 15.4152 14.7547 15.4152 14.0028V1.40281C15.4152 0.634063 14.8095 0.0078125 14.0652 0.0078125H1.90016ZM16.3752 3.36781V15.3678C16.6058 16.7272 17.8302 17.7678 19.2552 17.7678C20.6802 17.7678 21.8614 16.7272 22.0902 15.3678H23.0952C23.8489 15.3678 24.5352 14.6816 24.5352 13.9278V9.30781C24.5352 8.34219 23.8395 7.35594 23.7552 7.23781L21.7602 4.56781C21.3027 4.01656 20.5845 3.36781 19.7352 3.36781H16.3752ZM18.7752 5.76781H21.4602L22.9902 7.80781C23.1533 8.03844 23.5752 8.74531 23.5752 9.30781V9.60781H18.7752C18.2952 9.60781 17.8152 9.12781 17.8152 8.64781V6.72781C17.8152 6.19719 18.2952 5.76781 18.7752 5.76781ZM6.77516 12.9678C7.83453 12.9678 8.69516 13.8284 8.69516 14.8878C8.69516 15.9472 7.83453 16.8078 6.77516 16.8078C5.71578 16.8078 4.85516 15.9472 4.85516 14.8878C4.85516 13.8284 5.71578 12.9678 6.77516 12.9678ZM19.2552 12.9678C20.3145 12.9678 21.1752 13.8284 21.1752 14.8878C21.1752 15.9472 20.3145 16.8078 19.2552 16.8078C18.1958 16.8078 17.3352 15.9472 17.3352 14.8878C17.3352 13.8284 18.1958 12.9678 19.2552 12.9678Z" fill="black"/>
</svg>
