<svg width="34" height="34" viewBox="0 0 34 34" fill="none" xmlns="http://www.w3.org/2000/svg">
<g clip-path="url(#clip0_17258_38374)">
<path fill-rule="evenodd" clip-rule="evenodd" d="M17.3134 2.46875C13.6844 2.46875 10.7424 5.4107 10.7424 9.03977C10.7424 12.6688 13.6844 15.6108 17.3134 15.6108C20.9426 15.6108 23.8845 12.6688 23.8845 9.03977C23.8845 5.4107 20.9426 2.46875 17.3134 2.46875ZM12.8175 9.03977C12.8175 6.55671 14.8304 4.54381 17.3134 4.54381C19.7965 4.54381 21.8094 6.55671 21.8094 9.03977C21.8094 11.5228 19.7965 13.5357 17.3134 13.5357C14.8304 13.5357 12.8175 11.5228 12.8175 9.03977Z" fill="#FF4F4F"/>
<path d="M25.6137 5.24219C25.0407 5.24219 24.5762 5.70671 24.5762 6.27972C24.5762 6.85272 25.0407 7.31725 25.6137 7.31725C27.5179 7.31725 28.7263 8.57021 28.7263 9.73815C28.7263 10.9061 27.5179 12.159 25.6137 12.159C25.0407 12.159 24.5762 12.6236 24.5762 13.1966C24.5762 13.7696 25.0407 14.2341 25.6137 14.2341C28.2936 14.2341 30.8013 12.3903 30.8013 9.73815C30.8013 7.08602 28.2936 5.24219 25.6137 5.24219Z" fill="#FF4F4F"/>
<path d="M10.0509 6.27972C10.0509 5.70671 9.58634 5.24219 9.01333 5.24219C6.33343 5.24219 3.82568 7.08602 3.82568 9.73815C3.82568 12.3903 6.33343 14.2341 9.01333 14.2341C9.58634 14.2341 10.0509 13.7696 10.0509 13.1966C10.0509 12.6236 9.58634 12.159 9.01333 12.159C7.10913 12.159 5.90074 10.9061 5.90074 9.73815C5.90074 8.57021 7.10913 7.31725 9.01333 7.31725C9.58634 7.31725 10.0509 6.85272 10.0509 6.27972Z" fill="#FF4F4F"/>
<path fill-rule="evenodd" clip-rule="evenodd" d="M17.3133 17.6875C14.845 17.6875 12.5635 18.3526 10.8687 19.4824C9.18114 20.6075 7.97559 22.2756 7.97559 24.2585C7.97559 26.2414 9.18114 27.9095 10.8687 29.0346C12.5635 30.1644 14.845 30.8295 17.3133 30.8295C19.7817 30.8295 22.0632 30.1644 23.7581 29.0346C25.4455 27.9095 26.6511 26.2414 26.6511 24.2585C26.6511 22.2756 25.4455 20.6075 23.7581 19.4824C22.0632 18.3526 19.7817 17.6875 17.3133 17.6875ZM10.0506 24.2585C10.0506 23.1853 10.7032 22.0868 12.0197 21.209C13.329 20.3361 15.1976 19.7626 17.3133 19.7626C19.4291 19.7626 21.2977 20.3361 22.607 21.209C23.9235 22.0868 24.5761 23.1853 24.5761 24.2585C24.5761 25.3317 23.9235 26.4303 22.607 27.308C21.2977 28.1809 19.4291 28.7545 17.3133 28.7545C15.1976 28.7545 13.329 28.1809 12.0197 27.308C10.7032 26.4303 10.0506 25.3317 10.0506 24.2585Z" fill="#FF4F4F"/>
<path d="M27.3671 19.8858C27.4898 19.326 28.0431 18.9719 28.6028 19.0946C29.9334 19.3864 31.1325 19.9134 32.0227 20.6419C32.9122 21.3697 33.5682 22.3702 33.5682 23.5665C33.5682 24.7628 32.9122 25.7633 32.0227 26.4911C31.1325 27.2196 29.9334 27.7466 28.6028 28.0384C28.0431 28.1611 27.4898 27.8069 27.3671 27.2472C27.2444 26.6875 27.5985 26.1342 28.1582 26.0115C29.2544 25.771 30.1304 25.3582 30.7086 24.8851C31.2875 24.4115 31.4931 23.9487 31.4931 23.5665C31.4931 23.1843 31.2875 22.7215 30.7086 22.2479C30.1304 21.7748 29.2544 21.362 28.1582 21.1215C27.5985 20.9988 27.2444 20.4455 27.3671 19.8858Z" fill="#FF4F4F"/>
<path d="M6.024 19.0946C6.58371 18.9719 7.13695 19.326 7.25969 19.8858C7.38243 20.4455 7.02819 20.9988 6.46848 21.1215C5.37235 21.362 4.49634 21.7748 3.91819 22.2479C3.33926 22.7215 3.13365 23.1843 3.13365 23.5665C3.13365 23.9487 3.33926 24.4115 3.91819 24.8851C4.49634 25.3582 5.37235 25.771 6.46848 26.0115C7.02819 26.1342 7.38243 26.6875 7.25969 27.2472C7.13695 27.8069 6.58371 28.1611 6.024 28.0384C4.69335 27.7466 3.4943 27.2196 2.60408 26.4911C1.71466 25.7633 1.05859 24.7628 1.05859 23.5665C1.05859 22.3702 1.71466 21.3697 2.60408 20.6419C3.4943 19.9134 4.69335 19.3864 6.024 19.0946Z" fill="#FF4F4F"/>
</g>
<defs>
<clipPath id="clip0_17258_38374">
<rect width="33.2009" height="33.2009" fill="white" transform="translate(0.712891 0.742188)"/>
</clipPath>
</defs>
</svg>
