<svg width="20" height="20" viewBox="0 0 20 20" fill="none" xmlns="http://www.w3.org/2000/svg">
<path d="M11.0254 0C9.35439 0 8 1.35439 8 3.02539C8 5.50039 13.5 9.90039 13.5 9.90039C13.5 9.90039 19 5.50039 19 3.02539C19 1.35439 17.6456 0 15.9746 0C14.3826 0 13.5 1.14844 13.5 1.14844C13.5 1.14844 12.6174 0 11.0254 0ZM11.0254 2C12.0054 2 13.3984 3.32617 13.3984 3.32617C13.3984 3.32617 14.9926 2 15.9746 2C16.5396 2 17.001 2.45986 17.002 3.00586C16.926 3.72386 15.38 5.57148 13.502 7.27148C11.643 5.58448 10.074 3.71639 10 3.02539C10 2.46039 10.4604 2 11.0254 2ZM18.5859 10C18.2239 10 17.8619 10.1381 17.5859 10.4141L13 15H9C8.724 15 8.5 14.776 8.5 14.5C8.5 14.224 8.724 14 9 14H11C12.105 14 13 13.105 13 12V11H6.65625C5.59525 11 4.57812 11.4209 3.82812 12.1719L0 16L4 20L6 18H13.1719C13.7019 18 14.2109 17.7891 14.5859 17.4141L19.5859 12.4141C20.1379 11.8621 20.1379 10.9661 19.5859 10.4141C19.3099 10.1381 18.9479 10 18.5859 10Z" fill="#888888"/>
</svg>
