<svg width="20" height="20" viewBox="0 0 20 20" fill="none" xmlns="http://www.w3.org/2000/svg">
<g id="icons8-solar 1">
<path id="Vector" d="M4.98313 5.41227L4.0625 5.82789L4.78562 6.53289C4.85719 6.60289 4.90219 6.68976 4.92031 6.7807L5.94312 6.76789C6.00031 4.57758 7.79594 2.81227 10 2.81227C12.1694 2.81227 13.9419 4.52289 14.0519 6.66539L15.1284 6.65164C15.1509 6.60914 15.1781 6.56852 15.2147 6.53289L15.9375 5.82789L15.0169 5.41227C14.7725 5.30195 14.6669 5.01195 14.7831 4.77008L15.2213 3.86008L14.2141 3.78477C13.9466 3.76477 13.7481 3.5282 13.7747 3.26133L13.8753 2.25633L12.9031 2.52977C12.645 2.60258 12.3775 2.4482 12.3112 2.18789L12.0622 1.20914L11.2422 1.79852C11.0244 1.95508 10.7203 1.90133 10.5691 1.67977L10 0.845703L9.43094 1.68039C9.27969 1.90195 8.97563 1.9557 8.75781 1.79914L7.93781 1.20977L7.68875 2.18852C7.6225 2.44852 7.355 2.60289 7.09687 2.53039L6.12469 2.25664L6.22531 3.26164C6.25219 3.52852 6.05344 3.76508 5.78594 3.78508L4.77875 3.86039L5.21688 4.77039C5.33344 5.01195 5.22781 5.30195 4.98313 5.41227ZM6.5625 9.68727H9.375V7.81227H6.83031L6.5625 9.68727ZM15.0112 12.8123H18.3566L17.7084 10.6248H14.6206L15.0112 12.8123ZM13.1697 7.81227H10.625V9.68727H13.4375L13.1697 7.81227ZM9.375 10.6248H6.42844L6.11594 12.8123H9.375V10.6248ZM1.64344 12.8123H4.98875L5.37938 10.6248H2.29156L1.64344 12.8123ZM5.54688 9.68727L5.88156 7.81227H3.125L2.56938 9.68727H5.54688ZM13.5716 10.6248H10.625V12.8123H13.8841L13.5716 10.6248ZM18.6344 13.7498H15.1784L15.625 16.2498H14.375L14.0178 13.7498H10.625V16.2498H9.375V13.7498H5.98219L5.625 16.2498H4.375L4.82156 13.7498H1.36562L0.625 16.2498V16.8748H19.375V16.2498L18.6344 13.7498ZM14.4531 9.68727H17.4306L16.875 7.81227H14.1184L14.4531 9.68727Z" fill="black"/>
</g>
</svg>
