<svg  width="42" height="54" viewBox="0 0 31 30" fill="none" xmlns="http://www.w3.org/2000/svg">
<g id="info-square-svgrepo-com 1">
<path id="Vector" d="M17.0095 10.1821C17.0095 9.49743 16.4545 8.94238 15.7698 8.94238C15.0851 8.94238 14.53 9.49743 14.53 10.1821C14.53 10.8668 15.0851 11.4218 15.7698 11.4218C16.4545 11.4218 17.0095 10.8668 17.0095 10.1821Z" fill="#FF4F4F"/>
<path id="Vector_2" d="M15.7701 22.2852C16.2836 22.2852 16.6999 21.8689 16.6999 21.3554V13.9171C16.6999 13.4036 16.2836 12.9873 15.7701 12.9873C15.2566 12.9873 14.8403 13.4036 14.8403 13.9171V21.3554C14.8403 21.8689 15.2566 22.2852 15.7701 22.2852Z" fill="#FF4F4F"/>
<path id="Vector_3" fill-rule="evenodd" clip-rule="evenodd" d="M15.8464 1.8252H15.7041C12.8424 1.82518 10.5997 1.82517 8.84981 2.06043C7.05873 2.30124 5.64543 2.80375 4.53611 3.91306C3.42679 5.02238 2.92428 6.43569 2.68348 8.22676C2.44822 9.97661 2.44823 12.2193 2.44824 15.0811V15.2234C2.44823 18.0852 2.44822 20.3278 2.68348 22.0777C2.92428 23.8687 3.42679 25.2821 4.53611 26.3914C5.64543 27.5007 7.05873 28.0032 8.84981 28.2441C10.5997 28.4792 12.8424 28.4792 15.7041 28.4792H15.8464C18.7082 28.4792 20.9509 28.4792 22.7007 28.2441C24.4918 28.0032 25.9052 27.5007 27.0145 26.3914C28.1238 25.2821 28.6262 23.8687 28.8671 22.0777C29.1023 20.3278 29.1023 18.0852 29.1023 15.2234V15.0811C29.1023 12.2193 29.1023 9.97661 28.8671 8.22676C28.6262 6.43569 28.1238 5.02238 27.0145 3.91306C25.9052 2.80375 24.4918 2.30124 22.7007 2.06043C20.9509 1.82517 18.7082 1.82518 15.8464 1.8252ZM5.85103 5.22799C6.55724 4.52177 7.51272 4.11651 9.0976 3.90343C10.7092 3.68675 12.8269 3.68478 15.7753 3.68478C18.7236 3.68478 20.8413 3.68675 22.4529 3.90343C24.0378 4.11651 24.9932 4.52177 25.6995 5.22799C26.4058 5.9342 26.811 6.88967 27.024 8.47455C27.2407 10.0862 27.2427 12.2039 27.2427 15.1522C27.2427 18.1005 27.2407 20.2182 27.024 21.8299C26.811 23.4147 26.4058 24.3702 25.6995 25.0764C24.9932 25.7827 24.0378 26.188 22.4529 26.401C20.8413 26.6177 18.7236 26.6197 15.7753 26.6197C12.8269 26.6197 10.7092 26.6177 9.0976 26.401C7.51272 26.188 6.55724 25.7827 5.85103 25.0764C5.14481 24.3702 4.73956 23.4147 4.52648 21.8299C4.3098 20.2182 4.30783 18.1005 4.30783 15.1522C4.30783 12.2039 4.3098 10.0862 4.52648 8.47455C4.73956 6.88967 5.14481 5.9342 5.85103 5.22799Z" fill="#FF4F4F"/>
</g>
</svg>
