<svg width="30" height="30" viewBox="0 0 30 30" fill="none" xmlns="http://www.w3.org/2000/svg">
<g clip-path="url(#clip0_1670_24816)">
<path d="M24.8817 23.081L24.8817 23.0811C25.3816 23.581 25.3816 24.3961 24.8817 24.8961C24.3847 25.393 23.5612 25.375 23.0806 24.9097L15.2631 16.1683L14.6992 15.5378L14.1011 16.1359L13.5491 16.6879L5.6407 8.77957C5.00031 8.13917 4.5987 7.25243 4.5122 6.18104L4.5122 6.18104C4.43775 5.25905 4.59593 4.2253 4.99025 3.18958L15.5906 13.7899L24.8817 23.081ZM3.71552 6.24537L3.71516 6.2454L3.71552 6.24537Z" stroke="#595959" stroke-width="1.6"/>
<path d="M3.55112 23.06L9.62228 16.9888L11.4373 18.8037L5.36607 24.8749C4.85555 25.3854 4.02745 25.3512 3.55112 24.8749C3.05126 24.375 3.05126 23.5598 3.55112 23.06Z" stroke="#595959" stroke-width="1.6"/>
<path d="M17.3642 7.28287L17.9299 6.71718L21.129 3.51809L21.5453 3.93448L18.9119 6.56786L18.3462 7.13355L18.7627 7.54999L18.9119 7.69924L19.3284 8.11567L19.894 7.54999L22.5274 4.9166L22.9439 5.33304L19.7448 8.53211L19.7447 8.53215L19.1791 9.09779M17.3642 7.28287L17.2149 7.13355L17.7805 6.56786L20.9797 3.36879L20.5633 2.9524L16.2183 7.29733C15.6176 7.89807 15.2589 8.69573 15.2082 9.54346M17.3642 7.28287L17.7805 7.69923L18.7627 8.68136L19.1791 9.09779M17.3642 7.28287L16.784 7.86301C16.3216 8.32542 16.0458 8.93879 16.0068 9.59112L15.2082 9.54346M15.2082 9.54346C15.1954 9.75823 15.1467 9.96949 15.0659 10.1704M15.2082 9.54346L16.0068 9.59124C15.9998 9.70793 15.9854 9.82339 15.9639 9.93707M15.0659 10.1704L18.2558 13.3604M15.0659 10.1704L15.6316 9.60475L15.9639 9.93707M15.0659 10.1704L15.8082 10.4688C15.877 10.2976 15.9295 10.1196 15.9639 9.93707M18.2558 13.3604C18.4568 13.2795 18.6681 13.2309 18.8828 13.2181C19.7306 13.1675 20.5282 12.8087 21.129 12.2079M18.2558 13.3604L17.9572 12.6182C18.1285 12.5493 18.3066 12.4967 18.4892 12.4623M18.2558 13.3604L18.8215 12.7947L18.4892 12.4623M21.129 12.2079L25.4739 7.86306L25.0574 7.44657L21.8583 10.6457L21.2926 11.2113L21.1434 11.0621M21.129 12.2079L20.5633 11.6423C20.1008 12.1047 19.4874 12.3806 18.8352 12.4195L18.8352 12.4195C18.7185 12.4264 18.6029 12.4409 18.4892 12.4623M21.129 12.2079L20.5633 11.6423L21.1434 11.0621M21.1434 11.0621L21.7091 10.4965L24.9082 7.29737L24.4917 6.88089L21.2965 10.076L21.2926 10.08L21.2887 10.076L20.8761 9.66351L20.8761 9.66353L20.3104 9.09784L20.8761 8.53214L20.8761 8.53215L23.5095 5.89872L23.0931 5.48229L19.894 8.68136L19.894 8.6814L19.3284 9.24704L19.1791 9.09779M21.1434 11.0621L20.7269 10.6457L19.7448 9.66354L19.179 9.09785L19.1791 9.09779M15.9639 9.93707L18.4892 12.4623" stroke="#595959" stroke-width="1.6"/>
</g>
<defs>
<clipPath id="clip0_1670_24816">
<rect width="23.6946" height="23.6946" fill="white" transform="translate(2.36938 2.36914)"/>
</clipPath>
</defs>
</svg>