<svg width="44" height="45" viewBox="0 0 44 45" fill="none" xmlns="http://www.w3.org/2000/svg">
<g id="ic_ticket">
<path id="Subtract" d="M25.126 12.1612C27.1587 12.162 28.8566 10.9167 29.7849 9.1774L39.7784 9.18109C40.3121 9.18129 41.0003 9.74471 41 10.7803L40.9944 31.5698C40.9941 32.6054 40.3057 33.1682 39.7722 33.168L30.4162 33.1645C29.4881 31.4288 27.7929 30.186 25.7633 30.1852C23.7336 30.1845 22.0378 31.426 21.1086 33.1611L4.22158 33.1548C3.68787 33.1546 2.99972 32.5912 3 31.5556L3.00561 10.7661C3.00589 9.73053 3.69427 9.16777 4.22785 9.16797L20.4688 9.17396C21.3961 10.9139 23.0932 12.1605 25.126 12.1612Z" stroke="#8C8C8C" stroke-width="2"/>
<path id="Vector" d="M25 16.168V26.168" stroke="#8C8C8C" stroke-width="2" stroke-linecap="round" stroke-linejoin="round" stroke-dasharray="4 4"/>
</g>
</svg>
