<svg width="201" height="95" viewBox="0 0 201 95" fill="none" xmlns="http://www.w3.org/2000/svg">
<path d="M84.6282 83.2528C83.7746 82.2677 71.8832 73.9602 70.9902 73.3363L73.0192 72.9883C73.0192 72.9883 83.8928 82.2283 84.6282 83.2528Z" fill="#E3EAED"/>
<path opacity="0.5" d="M84.6282 83.2528C83.7746 82.2677 71.8832 73.9602 70.9902 73.3363L73.0192 72.9883C73.0192 72.9883 83.8928 82.2283 84.6282 83.2528Z" fill="white"/>
<path d="M84.6669 83.3244C84.6669 83.3244 84.6669 83.3244 84.6669 83.3638C84.575 83.574 83.7608 83.7579 82.8481 83.8826H82.8153C81.9745 84.0383 81.114 84.056 80.2676 83.9352C80.0115 83.7578 71.4295 79.4629 66.1765 76.8361L65.9664 76.7376H65.927L65.185 76.3632L63.0182 75.2862L62.1777 74.8659L71.0093 73.3555C71.5149 73.7035 75.5268 76.5077 79.0791 79.0623L79.4468 79.325C79.7751 79.5614 80.1034 79.7978 80.4186 80.0211C81.8839 81.0279 83.2953 82.1107 84.6472 83.2653C84.6472 83.2653 84.6472 83.2981 84.6472 83.3113L84.6669 83.3244Z" fill="#E3EAED"/>
<g opacity="0.1">
<path opacity="0.1" d="M84.6653 83.3202C84.6653 83.3202 84.6653 83.3202 84.6653 83.3596C84.5734 83.5697 83.7592 83.7536 82.8465 83.8784H82.8137C81.9729 84.034 81.1125 84.0518 80.266 83.9309C80.0034 83.7536 71.1981 79.3339 65.9648 76.707C66.825 77.1273 78.1189 82.5584 80.4105 79.9906C81.8757 80.9973 83.2872 82.0802 84.6391 83.2348C84.6391 83.2348 84.6391 83.2676 84.6391 83.2808L84.6653 83.3202Z" fill="black"/>
</g>
<path d="M200.999 93.019C200.999 94.2011 194.492 94.582 193.606 94.3325C192.719 94.0829 121.805 66.1725 121.805 66.1725L147.866 55.8555L148.621 56.3743L148.949 56.6041C153.756 59.9271 168.103 69.8764 180.631 78.6304L181.373 79.1492L182.358 79.8059C191.045 85.9134 198.577 91.2131 200.999 93.019Z" fill="#E3EAED"/>
<path d="M201.001 93.0134C194.658 88.2785 153.284 59.6062 147.867 55.8564L151.15 54.543C151.15 54.543 199.346 91.2074 200.804 92.6653C200.912 92.7518 200.982 92.8764 201.001 93.0134Z" fill="#E3EAED"/>
<path opacity="0.5" d="M201.001 93.0134C194.658 88.2785 153.284 59.6062 147.867 55.8564L151.15 54.543C151.15 54.543 199.346 91.2074 200.804 92.6653C200.912 92.7518 200.982 92.8764 201.001 93.0134Z" fill="white"/>
<g opacity="0.5">
<path opacity="0.1" d="M201.001 93.0151C201.001 94.1972 194.494 94.5781 193.608 94.3286C192.721 94.079 121.807 66.1686 121.807 66.1686L147.868 55.8516C147.868 55.8516 141.426 63.2199 156.719 74.5614C167.14 82.291 178.236 83.8934 182.327 79.8151C191.047 85.9095 198.578 91.2092 201.001 93.0151Z" fill="black"/>
</g>
<path d="M141.937 75.3236C139.921 76.3021 137.734 77.0638 137.57 75.0411C137.511 74.2137 138.154 73.3271 141.392 71.7576C142.147 71.3898 144.018 70.5755 144.55 72.2567C145.082 73.9379 142.692 74.9492 141.937 75.3236Z" fill="#E3EAED"/>
<path opacity="0.1" d="M141.937 75.3236C139.921 76.3021 137.734 77.0638 137.57 75.0411C137.511 74.2137 138.154 73.3271 141.392 71.7576C142.147 71.3898 144.018 70.5755 144.55 72.2567C145.082 73.9379 142.692 74.9492 141.937 75.3236Z" fill="black"/>
<path d="M158.371 82.0477C156.355 83.0262 154.162 83.7946 154.004 81.7719C153.939 80.9379 154.582 80.0513 157.826 78.4883C158.581 78.1205 160.452 77.3128 160.984 78.994C161.516 80.6752 159.126 81.68 158.371 82.0477Z" fill="#E3EAED"/>
<path opacity="0.1" d="M158.371 82.0477C156.355 83.0262 154.162 83.7946 154.004 81.7719C153.939 80.9379 154.582 80.0513 157.826 78.4883C158.581 78.1205 160.452 77.3128 160.984 78.994C161.516 80.6752 159.126 81.68 158.371 82.0477Z" fill="black"/>
<path d="M174.802 88.7798C172.793 89.7583 170.599 90.5267 170.442 88.504C170.376 87.6765 171.02 86.79 174.257 85.2204C175.019 84.8592 176.883 84.0449 177.422 85.7261C177.96 87.4073 175.564 88.412 174.802 88.7798Z" fill="#E3EAED"/>
<path opacity="0.1" d="M174.802 88.7798C172.793 89.7583 170.599 90.5267 170.442 88.504C170.376 87.6765 171.02 86.79 174.257 85.2204C175.019 84.8592 176.883 84.0449 177.422 85.7261C177.96 87.4073 175.564 88.412 174.802 88.7798Z" fill="black"/>
<path d="M169.416 71.1282C167.446 74.6548 162.941 75.9222 160.098 77.0387C152.54 80.0595 147.064 81.7539 144.339 74.8912C144.016 74.0983 143.812 73.2617 143.735 72.4088C143.289 67.2339 148.653 64.6464 151.372 63.2148C154.655 61.4811 156.979 60.3646 158.713 59.6357C161.536 58.4405 162.797 58.3223 164.09 58.25C165.62 58.1975 169.068 58.5849 170.204 64.9157C170.694 67.014 170.415 69.2189 169.416 71.1282Z" fill="#E3EAED"/>
<path d="M169.52 66.1801C169.52 70.035 167.111 73.161 164.136 73.161C161.162 73.161 158.752 70.035 158.752 66.1801C158.752 62.3252 161.162 59.1992 164.136 59.1992C167.111 59.1992 169.52 62.3252 169.52 66.1801Z" fill="#455A64"/>
<path d="M168.891 66.1848C168.891 69.5932 166.764 72.3514 164.137 72.3514C161.511 72.3514 159.377 69.5932 159.377 66.1848C159.377 62.7765 161.511 60.0117 164.137 60.0117C166.764 60.0117 168.891 62.7765 168.891 66.1848Z" fill="#F0F0F0"/>
<path d="M56.6744 64.3298L55.4268 64.7895L52.6165 65.8074L42.8985 61.611C33.4958 57.5722 22.3332 52.8176 20.1992 52.082L20.4684 52.1608L20.7179 52.2396L21.0463 52.3447L21.2301 52.4104L21.9721 52.6468L22.7338 52.8964L24.8678 53.599L25.6032 53.842L26.2598 54.0719L26.6341 54.1967L27.7963 54.5841L28.5645 54.8402L38.5648 58.2026L39.5104 58.5244L43.2334 59.7787L49.6551 61.9525L50.5613 62.2611C51.5987 62.6092 52.5311 62.9178 53.3585 63.2068L54.0742 63.4498L54.4025 63.5614L54.5732 63.614C55.9127 64.0802 56.6744 64.3298 56.6744 64.3298Z" fill="#E3EAED"/>
<path opacity="0.5" d="M56.6744 64.3298L55.4268 64.7895L52.6165 65.8074L42.8985 61.611C33.4958 57.5722 22.3332 52.8176 20.1992 52.082L20.4684 52.1608L20.7179 52.2396L21.0463 52.3447L21.2301 52.4104L21.9721 52.6468L22.7338 52.8964L24.8678 53.599L25.6032 53.842L26.2598 54.0719L26.6341 54.1967L27.7963 54.5841L28.5645 54.8402L38.5648 58.2026L39.5104 58.5244L43.2334 59.7787L49.6551 61.9525L50.5613 62.2611C51.5987 62.6092 52.5311 62.9178 53.3585 63.2068L54.0742 63.4498L54.4025 63.5614L54.5732 63.614C55.9127 64.0802 56.6744 64.3298 56.6744 64.3298Z" fill="white"/>
<g opacity="0.1">
<path opacity="0.1" d="M52.6167 65.8086L45.0919 68.5537C45.0919 68.5537 28.2824 60.7519 18.2559 55.8594C19.9171 56.5686 36.9301 64.0618 41.1193 63.0176C41.5089 62.9484 41.8752 62.7839 42.1857 62.5387C42.4962 62.2934 42.7412 61.9752 42.8988 61.6122L52.6167 65.8086Z" fill="black"/>
</g>
<path d="M71.9813 55.0785L53.7207 63.8654C53.7207 63.8654 53.9046 48.2027 54.049 36.94C54.049 36.5526 54.049 36.1717 54.049 35.7973C54.049 35.423 54.049 35.18 54.049 34.8779C54.095 31.023 54.1409 27.9167 54.1606 26.5048C54.2263 21.9735 54.7122 21.0541 55.9138 21.7896C57.1154 22.5251 62.4472 27.1681 64.0493 29.2367C65.3625 30.9311 68.2779 41.2152 70.1756 48.2815C70.1756 48.3472 70.1756 48.3997 70.215 48.4588C70.3266 48.8726 70.4382 49.2731 70.5367 49.654C71.41 52.8325 71.9813 55.0785 71.9813 55.0785Z" fill="#E3EAED"/>
<g opacity="0.1">
<path opacity="0.1" d="M71.9793 55.076L53.7188 63.8629C53.7188 63.8629 53.9026 48.2002 54.0471 36.9375C56.7326 42.9399 62.0447 51.1357 70.561 49.6515C71.4081 52.83 71.9793 55.076 71.9793 55.076Z" fill="black"/>
</g>
<path d="M40.962 73.4397C39.0841 68.7376 47.062 64.469 56.1234 60.4039C65.1847 56.3388 154.498 16.9424 167.446 13.429C180.395 9.91555 195.471 14.7424 198.019 22.1173C201.84 33.2158 185.733 42.5149 127.879 66.5048C120.295 69.6504 86.3869 77.7937 67.3187 77.8528C46.9241 77.9185 41.8879 75.7251 40.962 73.4397Z" fill="#E3EAED"/>
<path opacity="0.5" d="M40.962 73.4397C39.0841 68.7376 47.062 64.469 56.1234 60.4039C65.1847 56.3388 154.498 16.9424 167.446 13.429C180.395 9.91555 195.471 14.7424 198.019 22.1173C201.84 33.2158 185.733 42.5149 127.879 66.5048C120.295 69.6504 86.3869 77.7937 67.3187 77.8528C46.9241 77.9185 41.8879 75.7251 40.962 73.4397Z" fill="white"/>
<path opacity="0.1" d="M127.873 66.5315C120.289 69.6771 86.3816 77.8139 67.3134 77.8795C46.9254 77.9452 41.8891 75.778 40.9633 73.4664C39.9784 71.0103 41.6921 68.6658 44.8505 66.4067C44.8295 66.8829 44.9124 67.358 45.0934 67.7989C45.9405 69.9004 50.5105 71.864 69.0075 71.8049C86.3094 71.7458 111.195 57.7315 118.07 54.8813C170.567 33.0849 191.086 31.2724 187.599 21.2181C186.089 16.8312 179.72 13.4491 172.215 12.5231C183.85 11.1309 195.774 15.6294 198.013 22.1309C201.835 33.2163 185.728 42.5154 127.873 66.5315Z" fill="black"/>
<path d="M69.2754 57.9439L71.324 57.0508V60.0717L69.2754 60.9583V57.9439Z" fill="#455A64"/>
<path d="M73.0176 56.3194L75.2107 55.3672V58.3881L73.0176 59.3338V56.3194Z" fill="#455A64"/>
<path d="M76.8984 54.6397L79.0915 53.6875V56.7084L76.8984 57.6541V54.6397Z" fill="#455A64"/>
<path d="M80.7852 52.9561L82.9717 52.0039V55.0248L80.7852 55.9705V52.9561Z" fill="#455A64"/>
<path d="M84.666 51.2764L86.8591 50.3242V53.3451L84.666 54.2908V51.2764Z" fill="#455A64"/>
<path d="M88.5547 49.5929L90.7412 48.6406V51.6615L88.5547 52.6137V49.5929Z" fill="#455A64"/>
<path d="M92.4336 47.9132L94.6267 46.9609V49.9818L92.4336 50.9341V47.9132Z" fill="#455A64"/>
<path d="M96.3164 46.2296L98.5095 45.2773V48.2982L96.3164 49.2505V46.2296Z" fill="#455A64"/>
<path d="M100.201 44.5538L102.388 43.6016V46.6225L100.201 47.5747V44.5538Z" fill="#455A64"/>
<path d="M104.084 42.8702L106.277 41.918V44.9389L104.084 45.8845V42.8702Z" fill="#455A64"/>
<path d="M107.971 41.1905L110.157 40.2383V43.2592L107.971 44.2049V41.1905Z" fill="#455A64"/>
<path d="M111.852 39.5069L114.045 38.5547V41.5756L111.852 42.5213V39.5069Z" fill="#455A64"/>
<path d="M115.732 37.8246L117.926 36.8789V39.8932L115.732 40.8389V37.8246Z" fill="#455A64"/>
<path d="M119.617 36.1449L121.804 35.1992V38.2135L119.617 39.1592V36.1449Z" fill="#455A64"/>
<path d="M123.5 34.4652L125.693 33.5195V36.5339L123.5 37.4795V34.4652Z" fill="#455A64"/>
<path d="M127.379 32.7855L129.572 31.8398V34.8542L127.379 35.8064V32.7855Z" fill="#455A64"/>
<path d="M131.268 31.1019L133.461 30.1562V33.1706L131.268 34.1228V31.1019Z" fill="#455A64"/>
<path d="M135.148 29.4183L137.342 28.4727V31.487L135.148 32.4392V29.4183Z" fill="#455A64"/>
<path d="M139.035 27.7386L141.222 26.793V29.8073L139.035 30.7595V27.7386Z" fill="#455A64"/>
<path d="M142.916 26.055L145.109 25.1094V28.1237L142.916 29.0759V26.055Z" fill="#455A64"/>
<path d="M146.797 24.3793L148.99 23.4336V26.4479L146.797 27.4002V24.3793Z" fill="#455A64"/>
<path d="M152.877 21.7461V24.7604L150.684 25.7127V22.6918L152.877 21.7461Z" fill="#455A64"/>
<path d="M156.758 20.0664V23.0807L154.564 24.033V21.0121L156.758 20.0664Z" fill="#455A64"/>
<path d="M160.638 18.3867V21.401L158.451 22.3533V19.3324L160.638 18.3867Z" fill="#455A64"/>
<path d="M164.525 16.707V19.7214L162.332 20.6736V17.6527L164.525 16.707Z" fill="#455A64"/>
<path d="M174.67 15.4721C175.875 14.555 177.264 13.9077 178.741 13.5742V15.5444C177.441 15.5312 176.101 15.4984 174.67 15.4721Z" fill="#455A64"/>
<path d="M183.514 13.0937V15.865C182.49 15.7731 181.472 15.714 180.441 15.6614V13.2382C181.459 13.0914 182.488 13.043 183.514 13.0937Z" fill="#455A64"/>
<path d="M193.278 17.0062C192.418 17.0062 191.63 16.8355 190.842 16.7436C190.054 16.6516 189.286 16.5071 188.517 16.4349C187.401 16.2642 186.298 16.1459 185.234 16.0409V13.2695C186.571 13.4512 187.877 13.8067 189.122 14.3268C189.894 14.6417 190.636 15.0241 191.341 15.4695C191.7 15.6841 192.043 15.9256 192.365 16.1919C192.661 16.4546 192.982 16.7173 193.278 17.0062Z" fill="#455A64"/>
<g opacity="0.1">
<path opacity="0.1" d="M123.5 41.5764L97.7601 53.9621C97.7601 53.9621 56.8528 32.0278 27.502 16.0039C29.8001 17.1597 82.4281 43.6845 89.3029 39.7048C91.8965 38.2009 92.586 34.3197 92.3956 30.0314L123.5 41.5764Z" fill="black"/>
</g>
<path d="M52.6169 65.8083L45.0921 68.5533C45.0921 68.5533 28.2827 60.7516 18.2561 55.859L18.151 55.8131L18.0131 55.7474L15.1109 54.3289C12.5172 53.0155 10.8757 52.1486 10.9414 52.0304C11.2171 51.4722 17.455 51.3343 19.9502 52.0304H20.0224L20.18 52.0829C22.2549 52.7856 32.728 57.2381 41.9272 61.1916L42.1373 61.2769L42.8793 61.5987L52.6169 65.8083Z" fill="#E3EAED"/>
<path d="M123.499 41.5751L97.7598 53.9608C97.7598 53.9608 56.8524 32.0264 27.5016 16.0026L27.4359 15.9632C11.769 7.42586 -0.194588 0.753617 0.0023977 0.497498C0.494862 -0.159218 8.37428 -0.0869731 11.4932 0.339892C11.7946 0.368952 12.0931 0.421645 12.3862 0.497498C13.6995 0.858692 59.9976 18.0056 92.4083 30.0497L123.499 41.5751Z" fill="#E3EAED"/>
<path d="M127.255 39.8974L119.612 43.575C100.058 35.3792 18.7223 3.21983 11.9263 0.520727L11.7161 0.435351L11.5454 0.382812H11.4863C11.7877 0.411872 12.0863 0.464575 12.3793 0.540428C14.4017 1.07894 127.255 39.8974 127.255 39.8974Z" fill="#E3EAED"/>
<path opacity="0.5" d="M127.255 39.8974L119.612 43.575C100.058 35.3792 18.7223 3.21983 11.9263 0.520727L11.7161 0.435351L11.5454 0.382812H11.4863C11.7877 0.411872 12.0863 0.464575 12.3793 0.540428C14.4017 1.07894 127.255 39.8974 127.255 39.8974Z" fill="white"/>
<path d="M72.1308 40.5024C69.616 41.7239 66.8779 42.6827 66.6809 40.1544C66.6021 39.1168 67.4032 38.0069 71.4545 36.063C72.4 35.6033 74.7376 34.5854 75.3942 36.7198C76.0508 38.8541 73.0829 40.0427 72.1308 40.5024Z" fill="#E3EAED"/>
<path opacity="0.1" d="M72.1308 40.5024C69.616 41.7239 66.8779 42.6827 66.6809 40.1544C66.6021 39.1168 67.4032 38.0069 71.4545 36.063C72.4 35.6033 74.7376 34.5854 75.3942 36.7198C76.0508 38.8541 73.0829 40.0427 72.1308 40.5024Z" fill="black"/>
<path d="M50.3515 29.492C47.8367 30.7135 45.0986 31.6723 44.9016 29.144C44.8228 28.1063 45.6239 27.0031 49.6752 25.0526C50.6207 24.5929 52.9583 23.5816 53.6149 25.7093C54.2715 27.8371 51.3036 29.0323 50.3515 29.492Z" fill="#E3EAED"/>
<path opacity="0.1" d="M50.3515 29.492C47.8367 30.7135 45.0986 31.6723 44.9016 29.144C44.8228 28.1063 45.6239 27.0031 49.6752 25.0526C50.6207 24.5929 52.9583 23.5816 53.6149 25.7093C54.2715 27.8371 51.3036 29.0323 50.3515 29.492Z" fill="black"/>
<path d="M28.5068 18.3507C26.1627 19.4934 23.6085 20.3865 23.4246 18.0289C23.3524 17.0635 24.0812 16.0588 27.8699 14.22C28.7564 13.7931 30.9166 12.8474 31.547 14.8044C32.1773 16.7614 29.3867 17.9304 28.5068 18.3507Z" fill="#E3EAED"/>
<path opacity="0.1" d="M28.5068 18.3507C26.1627 19.4934 23.6085 20.3865 23.4246 18.0289C23.3524 17.0635 24.0812 16.0588 27.8699 14.22C28.7564 13.7931 30.9166 12.8474 31.547 14.8044C32.1773 16.7614 29.3867 17.9304 28.5068 18.3507Z" fill="black"/>
<path d="M104.628 38.0071C102.659 41.5337 98.1542 42.8011 95.3111 43.9176C87.7534 46.9385 82.2772 48.6394 79.5522 41.7701C79.2288 40.9772 79.0252 40.1406 78.9481 39.2877C78.5016 34.1128 83.8662 31.5253 86.5846 30.0937C89.8677 28.3665 92.1921 27.2435 93.9256 26.5146C96.749 25.3259 98.0097 25.2012 99.3033 25.1289C100.833 25.0764 104.28 25.4638 105.416 31.7946C105.907 33.8929 105.628 36.0978 104.628 38.0071Z" fill="#E3EAED"/>
<path d="M99.3374 40.0673C102.311 40.0673 104.722 36.9418 104.722 33.0864C104.722 29.2309 102.311 26.1055 99.3374 26.1055C96.3637 26.1055 93.9531 29.2309 93.9531 33.0864C93.9531 36.9418 96.3637 40.0673 99.3374 40.0673Z" fill="#455A64"/>
<path d="M104.089 33.0845C104.089 36.4929 101.961 39.2511 99.3347 39.2511C96.7082 39.2511 94.5742 36.4929 94.5742 33.0845C94.5742 29.6762 96.7082 26.918 99.3347 26.918C101.961 26.918 104.089 29.6762 104.089 33.0845Z" fill="#F0F0F0"/>
<path d="M22.7343 52.9098L21.9727 52.6602L22.7343 52.9098Z" fill="#E3EAED"/>
</svg>
