<svg width="32" height="33" viewBox="0 0 32 33" fill="none" xmlns="http://www.w3.org/2000/svg">
<path d="M14.9058 9.08544L15.7188 9.30444L18.1558 13.2734L15.3438 12.4294L14.9058 9.08544Z" fill="#7B7B7B"/>
<path d="M5.28075 7.30444L5.71875 7.42944L7.31175 11.6174L7.46875 12.0854L7.93675 12.2104L26.1248 17.8354C26.2778 17.8786 26.4207 17.952 26.545 18.0513C26.6692 18.1507 26.7722 18.2739 26.848 18.4137C26.9238 18.5536 26.9708 18.7072 26.9862 18.8655C27.0016 19.0238 26.9852 19.1836 26.9378 19.3354C26.8946 19.4885 26.8212 19.6314 26.7218 19.7556C26.6225 19.8799 26.4993 19.9829 26.3595 20.0587C26.2196 20.1345 26.066 20.1815 25.9077 20.1969C25.7494 20.2123 25.5896 20.1958 25.4378 20.1484L18.6878 18.1164L18.3438 18.0234L18.0308 18.1484L8.09375 22.3044L7.34375 21.9914L12.9688 18.1164L14.6878 16.9294L12.6878 16.3354L5.03075 14.0234L5.28075 7.30444Z" fill="#7B7B7B"/>
<path fill-rule="evenodd" clip-rule="evenodd" d="M19.4391 22.1188C19.7204 21.8375 20.1019 21.6794 20.4998 21.6794C20.8976 21.6794 21.2791 21.8375 21.5604 22.1188C21.8417 22.4001 21.9998 22.7816 21.9998 23.1794C21.9998 23.5773 21.8417 23.9588 21.5604 24.2401C21.2791 24.5214 20.8976 24.6794 20.4998 24.6794C20.1019 24.6794 19.7204 24.5214 19.4391 24.2401C19.1578 23.9588 18.9998 23.5773 18.9998 23.1794C18.9998 22.7816 19.1578 22.4001 19.4391 22.1188ZM2.99975 28.6794V26.6794H28.9998V28.6794H2.99975Z" fill="#7B7B7B"/>
</svg>
