<svg width="32" height="33" viewBox="0 0 32 33" fill="none" xmlns="http://www.w3.org/2000/svg">
<path d="M25.906 7.46108C26.031 7.45308 26.16 7.45708 26.281 7.49308C26.4703 7.54586 26.6394 7.6544 26.7661 7.80457C26.8929 7.95475 26.9716 8.1396 26.9918 8.33508C27.0121 8.53056 26.9731 8.72763 26.8799 8.90063C26.7866 9.07363 26.6434 9.21456 26.469 9.30508L20.875 12.3361L20.562 12.4921L20.437 12.8361L16.719 21.7741L16.281 21.9611L17.344 16.0551L17.719 14.0241L15.906 14.9931L9.594 18.3991L5.625 14.0861L5.781 13.9921L9.438 15.6181L9.906 15.8361L10.312 15.5861L25.532 7.55508C25.6483 7.49667 25.7759 7.46457 25.906 7.46108Z" fill="#7B7B7B"/>
<path d="M13.375 8.77408L17.219 9.71108L15.156 10.7741L12.906 9.05508L13.375 8.77408Z" fill="#7B7B7B"/>
<path fill-rule="evenodd" clip-rule="evenodd" d="M3 28.6801V26.6801H29V28.6801H3Z" fill="#7B7B7B"/>
</svg>
