<svg width="36" height="35" viewBox="0 0 36 35" fill="none" xmlns="http://www.w3.org/2000/svg">
<g id="Duotone/Handshake">
<path id="Vector" opacity="0.2" d="M27.5014 20.7275L22.518 25.7109C22.3822 25.8379 22.2176 25.9301 22.0384 25.9797C21.8591 26.0292 21.6706 26.0346 21.4888 25.9953L13.6346 24.0317C13.4911 23.9918 13.3574 23.9226 13.2418 23.8286L5.83447 18.0463L10.2491 9.74512L17.1961 7.71385C17.4429 7.64306 17.7069 7.66226 17.9409 7.76802L22.6263 9.89408H19.8232C19.6825 9.89359 19.5431 9.92084 19.413 9.97429C19.2829 10.0277 19.1645 10.1063 19.0648 10.2055L13.7564 15.5004C13.648 15.6117 13.5645 15.7447 13.5114 15.8907C13.4583 16.0366 13.4368 16.1922 13.4483 16.3471C13.4598 16.502 13.5041 16.6527 13.5782 16.7892C13.6524 16.9257 13.7547 17.0449 13.8783 17.139L14.6096 17.6942C15.3605 18.2547 16.2725 18.5575 17.2096 18.5575C18.1467 18.5575 19.0587 18.2547 19.8096 17.6942L21.543 16.3942L27.5014 20.7275Z" fill="#52C41A"/>
<path id="Vector_2" d="M33.0132 16.5173L29.6683 18.1829L25.335 9.89535L28.7204 8.20262C28.972 8.07438 29.2641 8.05081 29.533 8.13706C29.8019 8.22331 30.0258 8.41238 30.1559 8.66304L33.4871 15.0412C33.5547 15.1689 33.596 15.3088 33.6087 15.4527C33.6214 15.5966 33.6052 15.7416 33.561 15.8791C33.5169 16.0166 33.4457 16.1439 33.3516 16.2535C33.2575 16.3631 33.1424 16.4528 33.0132 16.5173V16.5173Z" stroke="#52C41A" stroke-width="2.16669" stroke-linecap="round" stroke-linejoin="round"/>
<path id="Vector_3" d="M5.83445 18.0486L2.48962 16.3694C2.36083 16.3063 2.24605 16.2179 2.1521 16.1095C2.05815 16.0011 1.98695 15.875 1.94273 15.7385C1.89852 15.6021 1.88219 15.4582 1.89471 15.3153C1.90724 15.1724 1.94837 15.0335 2.01566 14.9069L5.34694 8.52866C5.47726 8.27818 5.70022 8.08847 5.96833 7.99994C6.23645 7.91141 6.52853 7.93106 6.78238 8.05469L10.1678 9.74742L5.83445 18.0486Z" stroke="#52C41A" stroke-width="2.16669" stroke-linecap="round" stroke-linejoin="round"/>
<path id="Vector_4" d="M29.6681 18.1901L27.5014 20.736L22.518 25.7194C22.3822 25.8464 22.2176 25.9386 22.0384 25.9881C21.8591 26.0376 21.6706 26.043 21.4888 26.0037L13.6346 24.0402C13.4911 24.0002 13.3574 23.931 13.2418 23.837L5.83447 18.0547" stroke="#52C41A" stroke-width="2.16669" stroke-linecap="round" stroke-linejoin="round"/>
<path id="Vector_5" d="M27.5019 20.7241L21.5435 16.3907L19.8102 17.6907C19.0592 18.2512 18.1472 18.554 17.2101 18.554C16.273 18.554 15.3611 18.2512 14.6101 17.6907L13.8788 17.1355C13.7552 17.0415 13.6529 16.9223 13.5788 16.7858C13.5046 16.6493 13.4603 16.4986 13.4488 16.3437C13.4373 16.1888 13.4588 16.0332 13.5119 15.8872C13.5651 15.7412 13.6486 15.6082 13.757 15.4969L19.0654 10.2021C19.1651 10.1029 19.2834 10.0243 19.4135 9.97084C19.5436 9.91739 19.683 9.89014 19.8237 9.89063H25.3352" stroke="#52C41A" stroke-width="2.16669" stroke-linecap="round" stroke-linejoin="round"/>
<path id="Vector_6" d="M10.2495 9.74512L17.1965 7.71385C17.4433 7.64306 17.7073 7.66226 17.9413 7.76802L22.6267 9.89408" stroke="#52C41A" stroke-width="2.16669" stroke-linecap="round" stroke-linejoin="round"/>
<path id="Vector_7" d="M15.5849 28.8511L11.5088 27.8219C11.3427 27.7844 11.1889 27.7052 11.0619 27.5917L8.00146 24.9375" stroke="#52C41A" stroke-width="2.16669" stroke-linecap="round" stroke-linejoin="round"/>
</g>
</svg>
