<svg width="26" height="26" viewBox="0 0 26 26" fill="none" xmlns="http://www.w3.org/2000/svg">
<g clip-path="url(#clip0_17385_26384)">
<path d="M3.05091 5.71875C2.2509 5.71875 1.53262 6.22202 1.25935 6.97406L1.25122 6.99539L0.211223 10.9015C0.0767149 11.1583 -0.00703714 11.4449 -0.00916764 11.7526L-0.0365895 16.0903C-0.0420321 16.9417 0.656634 17.6465 1.50818 17.6473L2.6406 17.6483C2.72626 18.246 2.96529 18.8239 3.38099 19.2916C3.90962 19.8863 4.72331 20.2788 5.71997 20.2788C7.26067 20.2788 8.49122 19.129 8.73943 17.6564L17.2463 17.6676C17.3354 18.2561 17.5313 18.8307 17.941 19.2916C18.4696 19.8863 19.2833 20.2788 20.28 20.2788C21.8205 20.2788 23.1048 19.148 23.3533 17.6757L24.4776 17.6767C25.312 17.6783 26 16.9915 26 16.1573V13.213C26 11.939 25.0723 10.8441 23.8154 10.6344L19.305 9.88281L17.0879 6.71406C16.6513 6.09026 15.9366 5.71875 15.1754 5.71875H3.05091ZM3.05091 6.75875H5.13091L4.74091 9.87875H4.67997H1.87685C1.7657 9.87875 1.65792 9.89348 1.55185 9.91227L2.23943 7.32648C2.36542 6.98439 2.68636 6.75875 3.05091 6.75875ZM6.17903 6.75875H10.92V9.87875H5.78903L6.17903 6.75875ZM11.96 6.75875H15.1754C15.5988 6.75875 15.9932 6.96372 16.2358 7.31023L18.0334 9.87875H11.96V6.75875ZM5.71997 15.0788C6.87489 15.0788 7.79997 16.0038 7.79997 17.1588C7.79997 18.3137 6.87489 19.2388 5.71997 19.2388C4.98331 19.2388 4.49699 18.9812 4.15896 18.6009C3.82093 18.2207 3.63997 17.6932 3.63997 17.1588C3.63997 16.6243 3.82093 16.0968 4.15896 15.7166C4.49699 15.3363 4.98331 15.0788 5.71997 15.0788ZM20.28 15.0788C21.4349 15.0788 22.36 16.0038 22.36 17.1588C22.36 18.3137 21.4349 19.2388 20.28 19.2388C19.5433 19.2388 19.057 18.9812 18.719 18.6009C18.3809 18.2207 18.2 17.6932 18.2 17.1588C18.2 16.6243 18.3809 16.0968 18.719 15.7166C19.057 15.3363 19.5433 15.0788 20.28 15.0788Z" fill="black"/>
</g>
<defs>
<clipPath id="clip0_17385_26384">
<rect width="26" height="26" fill="white"/>
</clipPath>
</defs>
</svg>
