<svg width="25" height="25" viewBox="0 0 25 25" fill="none" xmlns="http://www.w3.org/2000/svg">
<g clip-path="url(#clip0_17385_26374)">
<path d="M1.90016 7.00781C1.14641 7.00781 0.535156 7.62094 0.535156 8.37281V20.9278C0.535156 21.6797 1.22141 22.3678 1.97516 22.3678H3.94016C4.16891 23.7291 5.35016 24.7678 6.77516 24.7678C8.20016 24.7678 9.38141 23.7291 9.61016 22.3678H14.0502C14.802 22.3678 15.4152 21.7547 15.4152 21.0028V8.40281C15.4152 7.63406 14.8095 7.00781 14.0652 7.00781H1.90016ZM16.3752 10.3678V22.3678C16.6058 23.7272 17.8302 24.7678 19.2552 24.7678C20.6802 24.7678 21.8614 23.7272 22.0902 22.3678H23.0952C23.8489 22.3678 24.5352 21.6816 24.5352 20.9278V16.3078C24.5352 15.3422 23.8395 14.3559 23.7552 14.2378L21.7602 11.5678C21.3027 11.0166 20.5845 10.3678 19.7352 10.3678H16.3752ZM18.7752 12.7678H21.4602L22.9902 14.8078C23.1533 15.0384 23.5752 15.7453 23.5752 16.3078V16.6078H18.7752C18.2952 16.6078 17.8152 16.1278 17.8152 15.6478V13.7278C17.8152 13.1972 18.2952 12.7678 18.7752 12.7678ZM6.77516 19.9678C7.83453 19.9678 8.69516 20.8284 8.69516 21.8878C8.69516 22.9472 7.83453 23.8078 6.77516 23.8078C5.71578 23.8078 4.85516 22.9472 4.85516 21.8878C4.85516 20.8284 5.71578 19.9678 6.77516 19.9678ZM19.2552 19.9678C20.3145 19.9678 21.1752 20.8284 21.1752 21.8878C21.1752 22.9472 20.3145 23.8078 19.2552 23.8078C18.1958 23.8078 17.3352 22.9472 17.3352 21.8878C17.3352 20.8284 18.1958 19.9678 19.2552 19.9678Z" fill="black"/>
</g>
<defs>
<clipPath id="clip0_17385_26374">
<rect width="24" height="24" fill="white" transform="translate(0.535156 0.765625)"/>
</clipPath>
</defs>
</svg>
