<svg width="27" height="27" viewBox="0 0 27 27" fill="none" xmlns="http://www.w3.org/2000/svg">
<g clip-path="url(#clip0_17418_14244)">
<path d="M12.515 3.35938C7.745 3.35938 3.875 7.22938 3.875 11.9994C3.875 16.7694 7.745 20.6394 12.515 20.6394C13.1019 20.6394 13.6719 20.57 14.225 20.4594C14.7294 20.5494 15.29 20.6394 15.875 20.6394C20.645 20.6394 24.515 16.7694 24.515 11.9994C24.515 7.22938 20.645 3.35938 15.875 3.35938C15.3219 3.35938 14.7537 3.40813 14.21 3.53938C13.6606 3.43063 13.0962 3.35938 12.515 3.35938ZM12.515 4.31938C13.0044 4.31938 13.475 4.36813 13.94 4.45438C14.03 4.50688 14.1369 4.5275 14.24 4.51438C17.6544 5.29625 20.195 8.34125 20.195 11.9994C20.195 15.6669 17.6394 18.7138 14.21 19.4844C14.1313 19.4862 14.0544 19.5069 13.985 19.5444C13.5069 19.6363 13.0212 19.6794 12.515 19.6794C8.2625 19.6794 4.835 16.2519 4.835 11.9994C4.835 7.74688 8.2625 4.31938 12.515 4.31938ZM16.535 4.36437C20.4744 4.70188 23.555 7.97188 23.555 11.9994C23.555 16.0269 20.4744 19.2969 16.535 19.6344C19.2819 18.1869 21.155 15.32 21.155 11.9994C21.155 8.67875 19.2819 5.81188 16.535 4.36437ZM12.32 7.91938C12.2712 8.255 12.1794 8.49313 12.035 8.68438C11.8906 8.87563 11.7013 9.06875 11.51 9.16438C11.27 9.26 11.03 9.35563 10.79 9.40438C10.5013 9.45313 10.2538 9.44938 9.965 9.44938V10.2294H12.08V16.0794H13.04V7.91938H12.32Z" fill="#FF4F4F"/>
</g>
<defs>
<clipPath id="clip0_17418_14244">
<rect width="26" height="26" fill="white" transform="translate(0.586426 0.28125)"/>
</clipPath>
</defs>
</svg>
