<svg width="24" height="24" viewBox="0 0 24 24" fill="none" xmlns="http://www.w3.org/2000/svg">
<path d="M10.515 3.35938C5.745 3.35938 1.875 7.22938 1.875 11.9994C1.875 16.7694 5.745 20.6394 10.515 20.6394C11.1019 20.6394 11.6719 20.57 12.225 20.4594C12.7294 20.5494 13.29 20.6394 13.875 20.6394C18.645 20.6394 22.515 16.7694 22.515 11.9994C22.515 7.22938 18.645 3.35938 13.875 3.35938C13.3219 3.35938 12.7537 3.40813 12.21 3.53938C11.6606 3.43063 11.0962 3.35938 10.515 3.35938ZM10.515 4.31938C11.0044 4.31938 11.475 4.36813 11.94 4.45438C12.03 4.50688 12.1369 4.5275 12.24 4.51438C15.6544 5.29625 18.195 8.34125 18.195 11.9994C18.195 15.6669 15.6394 18.7138 12.21 19.4844C12.1313 19.4862 12.0544 19.5069 11.985 19.5444C11.5069 19.6363 11.0212 19.6794 10.515 19.6794C6.2625 19.6794 2.835 16.2519 2.835 11.9994C2.835 7.74688 6.2625 4.31938 10.515 4.31938ZM14.535 4.36437C18.4744 4.70188 21.555 7.97188 21.555 11.9994C21.555 16.0269 18.4744 19.2969 14.535 19.6344C17.2819 18.1869 19.155 15.32 19.155 11.9994C19.155 8.67875 17.2819 5.81188 14.535 4.36437ZM10.32 7.91938C10.2712 8.255 10.1794 8.49313 10.035 8.68438C9.89062 8.87563 9.70125 9.06875 9.51 9.16438C9.27 9.26 9.03 9.35563 8.79 9.40438C8.50125 9.45313 8.25375 9.44938 7.965 9.44938V10.2294H10.08V16.0794H11.04V7.91938H10.32Z" fill="#FF4F4F"/>
</svg>
