<svg width="18" height="18" viewBox="0 0 20 20" fill="none" xmlns="http://www.w3.org/2000/svg">
<path d="M18.3334 15.3359C18.0761 15.3359 1.92408 15.3359 1.66675 15.3359C1.11475 15.3359 0.666748 15.7839 0.666748 16.3359C0.666748 16.8879 1.11475 17.3359 1.66675 17.3359C1.92408 17.3359 18.0761 17.3359 18.3334 17.3359C18.8854 17.3359 19.3334 16.8879 19.3334 16.3359C19.3334 15.7839 18.8854 15.3359 18.3334 15.3359Z" fill="black"/>
<path d="M16.6667 2.66406H11.3333C11.3333 3.03206 11.0347 3.33073 10.6667 3.33073H9.33333C8.96533 3.33073 8.66667 3.03206 8.66667 2.66406H3.33333C2.59667 2.66406 2 3.26073 2 3.9974V12.6641C2 13.4007 2.59667 13.9974 3.33333 13.9974H16.6667C17.4033 13.9974 18 13.4007 18 12.6641V3.9974C18 3.26073 17.4033 2.66406 16.6667 2.66406Z" fill="black"/>
<path d="M11.9999 15.9974H7.99992C7.63192 15.9974 7.33325 15.6987 7.33325 15.3307V14.6641H12.6666V15.3307C12.6666 15.6987 12.3679 15.9974 11.9999 15.9974Z" fill="white"/>
</svg>
