<svg width="18" height="18" viewBox="0 0 18 18" fill="none" xmlns="http://www.w3.org/2000/svg">
<g id="icons8-bank 1" clip-path="url(#clip0_19494_31733)">
<path id="Vector" d="M16.5938 6.18741C16.6683 6.18741 16.7399 6.15778 16.7926 6.10504C16.8454 6.05229 16.875 5.98075 16.875 5.90616V5.06241H17.4375C17.5121 5.06241 17.5836 5.03278 17.6364 4.98004C17.6891 4.92729 17.7188 4.85575 17.7188 4.78116V3.09366C17.7187 3.0332 17.6992 2.97435 17.6631 2.92584C17.627 2.87733 17.5763 2.84175 17.5184 2.82436L9.08086 0.293115C9.02811 0.277295 8.97189 0.277295 8.91914 0.293115L0.481641 2.82436C0.423729 2.84175 0.372961 2.87733 0.336865 2.92584C0.300769 2.97435 0.281267 3.0332 0.28125 3.09366V4.78116C0.28125 4.85575 0.310882 4.92729 0.363626 4.98004C0.416371 5.03278 0.487908 5.06241 0.5625 5.06241H1.125V5.90616C1.125 5.98075 1.15463 6.05229 1.20738 6.10504C1.26012 6.15778 1.33166 6.18741 1.40625 6.18741H1.6875V14.6249H1.125C1.05041 14.6249 0.978871 14.6545 0.926126 14.7073C0.873382 14.76 0.84375 14.8316 0.84375 14.9062V15.4687H0.5625C0.487908 15.4687 0.416371 15.4983 0.363626 15.551C0.310882 15.6038 0.28125 15.6753 0.28125 15.7499V17.4374C0.28125 17.512 0.310882 17.5835 0.363626 17.6363C0.416371 17.689 0.487908 17.7187 0.5625 17.7187H17.4375C17.5121 17.7187 17.5836 17.689 17.6364 17.6363C17.6891 17.5835 17.7188 17.512 17.7188 17.4374V15.7499C17.7188 15.6753 17.6891 15.6038 17.6364 15.551C17.5836 15.4983 17.5121 15.4687 17.4375 15.4687H16.875V14.9062C16.875 14.8316 16.8454 14.76 16.7926 14.7073C16.7399 14.6545 16.6683 14.6249 16.5938 14.6249H16.0312V6.18741H16.5938ZM0.84375 4.49991V3.30284L9 0.855966L17.1562 3.30284V4.49991H0.84375ZM1.40625 15.1874H4.21875V15.4687H1.40625V15.1874ZM2.25 14.6249V6.18741H3.375V14.6249H2.25ZM10.4062 15.1874V15.4687H7.59375V15.1874H10.4062ZM8.4375 14.6249V6.18741H9.5625V14.6249H8.4375ZM10.6875 14.6249H10.125V6.18741H13.7812V14.6249H13.2188C13.1442 14.6249 13.0726 14.6545 13.0199 14.7073C12.9671 14.76 12.9375 14.8316 12.9375 14.9062V15.4687H10.9688V14.9062C10.9688 14.8316 10.9391 14.76 10.8864 14.7073C10.8336 14.6545 10.7621 14.6249 10.6875 14.6249ZM7.875 14.6249H7.3125C7.23791 14.6249 7.16637 14.6545 7.11363 14.7073C7.06088 14.76 7.03125 14.8316 7.03125 14.9062V15.4687H4.78125V14.9062C4.78125 14.8316 4.75162 14.76 4.69887 14.7073C4.64613 14.6545 4.57459 14.6249 4.5 14.6249H3.9375V6.18741H7.875V14.6249ZM17.1562 16.0312V17.1562H0.84375V16.0312H17.1562ZM16.3125 15.1874V15.4687H13.5V15.1874H16.3125ZM14.3438 14.6249V6.18741H15.4688V14.6249H14.3438ZM1.6875 5.62491V5.06241H16.3125V5.62491H1.6875Z" fill="#FF4F4F"/>
</g>
<defs>
<clipPath id="clip0_19494_31733">
<rect width="18" height="18" fill="white"/>
</clipPath>
</defs>
</svg>
