<svg width="24" height="19" viewBox="0 0 24 19" fill="none" xmlns="http://www.w3.org/2000/svg">
<path d="M21.7119 7.88655L19.9283 2.79055C19.4421 1.40215 18.1265 0.46875 16.6549 0.46875H7.3452C5.8736 0.46875 4.558 1.40215 4.07267 2.78968L2.28907 7.88568C1.3366 8.51228 0.733398 9.59475 0.733398 10.7856V16.9354C0.733398 17.8931 1.50907 18.6688 2.46673 18.6688C3.4244 18.6688 4.20007 17.8931 4.20007 16.9354V15.8426C4.20007 15.8426 8.77693 16.0688 12.0001 16.0688C15.2232 16.0688 19.8001 15.8426 19.8001 15.8426V16.9354C19.8001 17.8931 20.5757 18.6688 21.5334 18.6688C22.4911 18.6688 23.2667 17.8931 23.2667 16.9354V10.7856C23.2667 9.59475 22.6627 8.51228 21.7119 7.88655ZM4.71573 6.20002L5.70893 3.36255C5.95247 2.66748 6.60853 2.20208 7.3452 2.20208H16.6549C17.3916 2.20208 18.0477 2.66748 18.2912 3.36255L19.2844 6.20002C19.4404 6.64635 19.0686 7.09615 18.6015 7.02075C16.9019 6.74602 14.7171 6.53542 12.0001 6.53542C9.28306 6.53542 7.0982 6.74602 5.39866 7.02075C4.93153 7.09615 4.55973 6.64635 4.71573 6.20002ZM4.6334 12.6021C3.9158 12.6021 3.3334 12.0197 3.3334 11.3021C3.3334 10.5845 3.9158 10.0021 4.6334 10.0021C5.351 10.0021 5.9334 10.5845 5.9334 11.3021C5.9334 12.0197 5.351 12.6021 4.6334 12.6021ZM14.6001 11.7354H9.40007C8.92167 11.7354 8.5334 11.3471 8.5334 10.8687C8.5334 10.3904 8.92167 10.0021 9.40007 10.0021H14.6001C15.0785 10.0021 15.4667 10.3904 15.4667 10.8687C15.4667 11.3471 15.0785 11.7354 14.6001 11.7354ZM19.3667 12.6021C18.6491 12.6021 18.0667 12.0197 18.0667 11.3021C18.0667 10.5845 18.6491 10.0021 19.3667 10.0021C20.0843 10.0021 20.6667 10.5845 20.6667 11.3021C20.6667 12.0197 20.0843 12.6021 19.3667 12.6021Z" fill="black"/>
</svg>
