<svg width="22" height="22" viewBox="0 0 30 30" fill="none" xmlns="http://www.w3.org/2000/svg">
<path d="M2.00008 5.0001C1.86757 4.99823 1.73601 5.02271 1.61304 5.07212C1.49007 5.12153 1.37815 5.1949 1.28378 5.28794C1.18941 5.38098 1.11447 5.49186 1.06333 5.61411C1.01218 5.73637 0.98584 5.86757 0.98584 6.0001C0.98584 6.13263 1.01218 6.26383 1.06333 6.38609C1.11447 6.50834 1.18941 6.61922 1.28378 6.71226C1.37815 6.8053 1.49007 6.87867 1.61304 6.92808C1.73601 6.97749 1.86757 7.00197 2.00008 7.0001H3.00008C3.5049 7.0001 3.66369 7.12378 3.78524 7.26572C3.90679 7.40767 4.00008 7.66282 4.00008 8.0001V18.0001C4.00008 20.7496 6.25057 23.0001 9.00008 23.0001H10.0001H23.0001H26.0001C26.1326 23.002 26.2642 22.9775 26.3871 22.9281C26.5101 22.8787 26.622 22.8053 26.7164 22.7123C26.8108 22.6192 26.8857 22.5083 26.9368 22.3861C26.988 22.2638 27.0143 22.1326 27.0143 22.0001C27.0143 21.8676 26.988 21.7364 26.9368 21.6141C26.8857 21.4919 26.8108 21.381 26.7164 21.2879C26.622 21.1949 26.5101 21.1215 26.3871 21.0721C26.2642 21.0227 26.1326 20.9982 26.0001 21.0001H9.00008C7.3316 21.0001 6.00008 19.6686 6.00008 18.0001V8.0001C6.00008 7.30938 5.81947 6.566 5.30477 5.96494C4.79007 5.36388 3.95026 5.0001 3.00008 5.0001H2.00008ZM23.0001 23.0001C22.4696 23.0001 21.9609 23.2108 21.5859 23.5859C21.2108 23.961 21.0001 24.4697 21.0001 25.0001C21.0001 25.5305 21.2108 26.0392 21.5859 26.4143C21.9609 26.7894 22.4696 27.0001 23.0001 27.0001C23.5305 27.0001 24.0392 26.7894 24.4143 26.4143C24.7894 26.0392 25.0001 25.5305 25.0001 25.0001C25.0001 24.4697 24.7894 23.961 24.4143 23.5859C24.0392 23.2108 23.5305 23.0001 23.0001 23.0001ZM10.0001 23.0001C9.46965 23.0001 8.96094 23.2108 8.58587 23.5859C8.2108 23.961 8.00008 24.4697 8.00008 25.0001C8.00008 25.5305 8.2108 26.0392 8.58587 26.4143C8.96094 26.7894 9.46965 27.0001 10.0001 27.0001C10.5305 27.0001 11.0392 26.7894 11.4143 26.4143C11.7894 26.0392 12.0001 25.5305 12.0001 25.0001C12.0001 24.4697 11.7894 23.961 11.4143 23.5859C11.0392 23.2108 10.5305 23.0001 10.0001 23.0001ZM15.0001 6.0001C14.4481 6.0001 14.0001 6.4481 14.0001 7.0001H9.00008C8.44808 7.0001 8.00008 7.4481 8.00008 8.0001V18.0001C8.00008 18.5521 8.44808 19.0001 9.00008 19.0001H24.0001C24.5521 19.0001 25.0001 18.5521 25.0001 18.0001V8.0001C25.0001 7.4481 24.5521 7.0001 24.0001 7.0001H19.0001C19.0001 6.4481 18.5521 6.0001 18.0001 6.0001H15.0001ZM12.5001 11.0001C13.3281 11.0001 14.0001 11.6721 14.0001 12.5001C14.0001 13.3281 13.3281 14.0001 12.5001 14.0001C11.6721 14.0001 11.0001 13.3281 11.0001 12.5001C11.0001 11.6721 11.6721 11.0001 12.5001 11.0001ZM21.0782 12.0001L22.0001 14.4474L17.922 15.9825L17.0001 13.5353L21.0782 12.0001Z" fill="black"/>
</svg>
