<svg width="25" height="25" viewBox="0 0 25 25" fill="none" xmlns="http://www.w3.org/2000/svg">
<g clip-path="url(#clip0_17418_15760)">
<path d="M10.7486 2.44531C10.5159 2.48918 10.3481 2.69517 10.3519 2.93358V4.88667C10.3519 5.1556 10.5712 5.37494 10.8401 5.37494H12.7932V6.83976H10.3519C9.98567 6.83976 9.63281 6.98853 9.37533 7.25173C9.36579 7.25555 9.35435 7.26127 9.34481 7.26699L7.19336 9.76938H5.95743C5.54926 9.76938 5.1945 9.95249 4.93511 10.2119C4.67571 10.4713 4.49261 10.826 4.49261 11.2342V12.699H3.51607V10.2577C3.51607 9.98873 3.29673 9.76938 3.0278 9.76938H1.07471C1.05945 9.76938 1.04419 9.76938 1.02894 9.76938C0.777171 9.79227 0.584533 10.004 0.58644 10.2577V18.07C0.58644 18.3389 0.805781 18.5583 1.07471 18.5583H3.0278C3.29673 18.5583 3.51607 18.3389 3.51607 18.07V15.6286H4.49261V17.0935C4.49261 17.5035 4.67381 17.8564 4.93511 18.1158C5.19641 18.3752 5.55308 18.5583 5.95743 18.5583H7.19336L9.34481 21.0607C9.35435 21.0664 9.36579 21.0721 9.37533 21.0759C9.63091 21.3372 9.98567 21.4879 10.3519 21.4879H16.6231C16.9893 21.4879 17.3441 21.3372 17.5997 21.0759L21.1854 17.4291C21.4429 17.1678 21.5821 16.8169 21.5821 16.4526V15.6286H22.0704V17.5817C22.0723 17.8507 22.2897 18.0681 22.5587 18.07H24.5117C24.7807 18.0681 24.9981 17.8507 25 17.5817V9.76938C24.9981 9.50045 24.7807 9.28302 24.5117 9.28111H22.5587C22.2897 9.28302 22.0723 9.50045 22.0704 9.76938V11.7225H21.5821V8.22828C21.5821 7.47108 20.9661 6.83976 20.2089 6.83976H15.7229V5.37494H17.6759C17.9449 5.37494 18.1642 5.1556 18.1642 4.88667V2.93358C18.1642 2.66465 17.9449 2.44531 17.6759 2.44531H10.8401C10.8249 2.44531 10.8096 2.44531 10.7944 2.44531C10.7791 2.44531 10.7638 2.44531 10.7486 2.44531ZM11.3284 3.42186H17.1877V4.3984H15.2346C14.9657 4.3984 14.7463 4.61774 14.7463 4.88667V6.83976H13.7698V4.88667C13.7698 4.61774 13.5504 4.3984 13.2815 4.3984H11.3284V3.42186ZM10.3519 7.8163H20.2089C20.4263 7.8163 20.6056 7.99177 20.6056 8.22828V12.2107C20.6075 12.4797 20.8249 12.6971 21.0938 12.699H22.5587C22.8276 12.6971 23.045 12.4797 23.0469 12.2107V10.2577H24.0235V17.0935H23.0469V15.1404C23.045 14.8714 22.8276 14.654 22.5587 14.6521H21.0938C20.8249 14.654 20.6075 14.8714 20.6056 15.1404V16.4526C20.6056 16.5651 20.5579 16.6662 20.4835 16.7425L16.8978 20.3893C16.8234 20.4656 16.7242 20.5114 16.6231 20.5114H10.3519C10.2508 20.5114 10.1516 20.4656 10.0772 20.3893L7.78844 17.7496C7.69689 17.6447 7.56338 17.5817 7.42224 17.5817H5.95743C5.87541 17.5817 5.7419 17.5188 5.637 17.4139C5.5321 17.309 5.46915 17.1812 5.46915 17.0935V11.2342C5.46915 11.1541 5.53019 11.0206 5.637 10.9138C5.74381 10.807 5.87732 10.7459 5.95743 10.7459H7.42224C7.56338 10.7459 7.69689 10.683 7.78844 10.5781L10.0772 7.93837C10.1516 7.86207 10.2508 7.8163 10.3519 7.8163ZM13.7698 9.76938L11.3284 14.6521H13.7698L12.305 19.0465L16.2111 13.6756H13.7698L16.2111 9.76938H13.7698ZM1.56298 10.7459H2.53953V13.1873C2.53953 13.4562 2.75887 13.6756 3.0278 13.6756H4.49261V14.6521H3.0278C2.75887 14.6521 2.53953 14.8714 2.53953 15.1404V17.5817H1.56298V10.7459Z" fill="#FF4F4F"/>
</g>
<defs>
<clipPath id="clip0_17418_15760">
<rect width="24.4136" height="24.4136" fill="white" transform="translate(0.586426)"/>
</clipPath>
</defs>
</svg>
