<svg width="38" height="38" viewBox="0 0 38 38" fill="none" xmlns="http://www.w3.org/2000/svg">
<g id="icons8-paycheque 1">
<path id="Vector" d="M5.34375 8.90625C3.70678 8.90625 2.375 10.238 2.375 11.875V26.125C2.375 27.762 3.70678 29.0938 5.34375 29.0938H32.6562C34.2932 29.0938 35.625 27.762 35.625 26.125V11.875C35.625 10.238 34.2932 8.90625 32.6562 8.90625H5.34375ZM26.8057 12.6357C27.1673 12.6357 27.4644 12.8215 27.4644 13.2573V13.8882C28.4477 14.0087 29.3108 14.3518 29.8951 14.8809C30.3404 15.2894 30.5909 15.753 30.5909 16.1704C30.5909 16.6062 30.2661 16.8848 29.8487 16.8848C29.4966 16.8848 29.2363 16.7643 28.8931 16.4116C28.3837 15.8606 27.9051 15.5556 27.3125 15.4387V18.23L27.9654 18.368C29.9141 18.7854 30.8414 19.6856 30.8414 21.1605C30.8414 22.877 29.5238 24.0643 27.4273 24.2869V24.8992C27.4273 25.3356 27.1213 25.5208 26.7686 25.5208C26.3975 25.5208 26.1006 25.335 26.1006 24.8992V24.2869C25.0153 24.1848 24.0501 23.8507 23.4195 23.3128C22.9463 22.9138 22.6588 22.45 22.6588 22.0047C22.6588 21.5131 23.0114 21.2161 23.4752 21.2161C23.772 21.2161 23.967 21.2998 24.3565 21.6893C24.8909 22.2438 25.4659 22.5711 26.125 22.7005V19.7932L25.544 19.668C23.7723 19.2874 22.835 18.3138 22.835 16.8662C22.835 15.2055 24.1247 14.046 26.147 13.8696V13.2573C26.147 12.812 26.4441 12.6357 26.8057 12.6357ZM8.3125 15.4375H18.4062C19.0618 15.4375 19.5938 15.9695 19.5938 16.625C19.5938 17.2805 19.0618 17.8125 18.4062 17.8125H8.3125C7.657 17.8125 7.125 17.2805 7.125 16.625C7.125 15.9695 7.657 15.4375 8.3125 15.4375ZM26.125 15.441C25.3412 15.5995 24.8575 16.0894 24.8575 16.7271C24.8575 17.3244 25.2789 17.7464 26.125 17.9691V15.441ZM27.3125 20.0576V22.7341C28.2797 22.6106 28.8282 22.1066 28.8282 21.346C28.8282 20.7077 28.3723 20.3254 27.3125 20.0576ZM8.3125 20.1875H13.6562C14.3118 20.1875 14.8438 20.7195 14.8438 21.375C14.8438 22.0305 14.3118 22.5625 13.6562 22.5625H8.3125C7.657 22.5625 7.125 22.0305 7.125 21.375C7.125 20.7195 7.657 20.1875 8.3125 20.1875ZM17.8125 20.1875H18.4062C19.0618 20.1875 19.5938 20.7195 19.5938 21.375C19.5938 22.0305 19.0618 22.5625 18.4062 22.5625H17.8125C17.157 22.5625 16.625 22.0305 16.625 21.375C16.625 20.7195 17.157 20.1875 17.8125 20.1875Z" fill="black"/>
</g>
</svg>
