<svg width="23" height="24" viewBox="0 0 23 24" fill="none" xmlns="http://www.w3.org/2000/svg">
<g id="user-rounded-svgrepo-com 1" clip-path="url(#clip0_19445_31481)">
<path id="Vector" fill-rule="evenodd" clip-rule="evenodd" d="M11.7933 1.97656C9.34345 1.97656 7.35742 3.9626 7.35742 6.41249C7.35742 8.86238 9.34345 10.8484 11.7933 10.8484C14.2433 10.8484 16.2293 8.86238 16.2293 6.41249C16.2293 3.9626 14.2433 1.97656 11.7933 1.97656ZM8.75824 6.41249C8.75824 4.73624 10.1171 3.37738 11.7933 3.37738C13.4696 3.37738 14.8285 4.73624 14.8285 6.41249C14.8285 8.08873 13.4696 9.44759 11.7933 9.44759C10.1171 9.44759 8.75824 8.08873 8.75824 6.41249Z" fill="#FF4F4F"/>
<path id="Vector_2" fill-rule="evenodd" clip-rule="evenodd" d="M11.7937 12.25C9.88922 12.25 8.13059 12.6897 6.82375 13.4364C5.53672 14.1718 4.55615 15.2945 4.55615 16.6859C4.55615 18.0773 5.53672 19.2 6.82375 19.9354C8.13059 20.6822 9.88922 21.1218 11.7937 21.1218C13.6982 21.1218 15.4568 20.6822 16.7637 19.9354C18.0507 19.2 19.0313 18.0773 19.0313 16.6859C19.0313 15.2945 18.0507 14.1718 16.7637 13.4364C15.4568 12.6897 13.6982 12.25 11.7937 12.25ZM5.95697 16.6859C5.95697 16.0142 6.43979 15.2692 7.51875 14.6527C8.57789 14.0474 10.0878 13.6508 11.7937 13.6508C13.4996 13.6508 15.0095 14.0474 16.0686 14.6527C17.1476 15.2692 17.6305 16.0142 17.6305 16.6859C17.6305 17.3577 17.1476 18.1026 16.0686 18.7192C15.0095 19.3244 13.4996 19.721 11.7937 19.721C10.0878 19.721 8.57789 19.3244 7.51875 18.7192C6.43979 18.1026 5.95697 17.3577 5.95697 16.6859Z" fill="#FF4F4F"/>
<path id="Vector_3" d="M18.8249 4.875C18.3928 4.875 18.0426 5.22524 18.0426 5.65729C18.0426 6.08934 18.3928 6.43958 18.8249 6.43958H20.0654L17.2286 9.27635C16.9232 9.58186 16.9232 10.0772 17.2286 10.3827C17.5341 10.6882 18.0294 10.6882 18.3349 10.3827L21.1717 7.54591V8.78646C21.1717 9.21851 21.522 9.56875 21.954 9.56875C22.3861 9.56875 22.7363 9.21851 22.7363 8.78646V5.65729C22.7363 5.22524 22.3861 4.875 21.954 4.875H18.8249Z" fill="#FF4F4F"/>
</g>
<defs>
<clipPath id="clip0_19445_31481">
<rect width="22.4131" height="22.4131" fill="white" transform="translate(0.586426 0.8125)"/>
</clipPath>
</defs>
</svg>
