<svg width="21" height="21" viewBox="0 0 34 34" fill="none" xmlns="http://www.w3.org/2000/svg">
<g id="icons8-cheque-2 1">
<path id="Vector" d="M28.8495 2.34386C28.314 2.33748 27.7769 2.62011 27.4709 3.13011L26.6554 4.62557C25.9754 4.48957 25.2965 4.76104 25.0245 5.44104L21.7599 12.512C21.4879 13.192 21.3509 13.872 21.3509 14.552L21.489 17.1365C21.489 17.4085 21.6234 17.6805 21.8954 17.8165C22.1674 17.9525 22.4389 17.9525 22.7109 17.8165L24.889 16.321C25.433 15.913 25.977 15.3701 26.249 14.6901L29.649 7.61651C29.921 6.93651 29.7839 6.25811 29.2399 5.85011L30.0554 4.35198C30.3274 3.53598 30.0554 2.72211 29.3754 2.45011C29.2054 2.38211 29.028 2.34598 28.8495 2.34386ZM3.26446 11.832C1.76846 11.832 0.679932 13.0565 0.679932 14.4165V29.1056C0.679932 30.4656 1.90446 31.6901 3.26446 31.6901H30.7354C32.2314 31.6901 33.3199 30.4656 33.3199 29.1056V14.552C33.3199 13.056 32.0954 11.832 30.7354 11.832L28.8309 15.7765C28.2869 16.8645 27.4719 17.8165 26.5199 18.4965L24.3445 19.992C23.3925 20.672 22.033 20.8096 20.809 20.2656C19.721 19.7216 18.905 18.496 18.769 17.272L18.6309 14.552C18.6309 13.6 18.7679 12.648 19.0399 11.832H3.26446ZM6.66446 16.8656H14.009C14.689 16.8656 15.369 17.5456 15.369 18.2256C15.369 18.9056 14.689 19.5856 14.009 19.5856H6.66446C5.98446 19.5856 5.30446 18.9056 5.30446 18.2256C5.30446 17.5456 5.84846 16.8656 6.66446 16.8656ZM6.66446 23.9365H27.4709C28.1509 23.9365 28.8309 24.6165 28.8309 25.2965C28.8309 25.9765 28.1514 26.6565 27.3354 26.6565H6.66446C5.98446 26.6565 5.30446 25.9765 5.30446 25.2965C5.30446 24.6165 5.98446 23.9365 6.66446 23.9365Z" fill="black"/>
</g>
</svg>
