<svg width="34" height="35" viewBox="0 0 34 35" fill="none" xmlns="http://www.w3.org/2000/svg">
<g id="icons8-cheque-2 1">
<path id="Vector" d="M28.8497 2.77354C28.3142 2.76717 27.7771 3.04979 27.4711 3.55979L26.6556 5.05526C25.9756 4.91926 25.2967 5.19073 25.0247 5.87073L21.7602 12.9417C21.4882 13.6217 21.3511 14.3017 21.3511 14.9817L21.4892 17.5662C21.4892 17.8382 21.6236 18.1102 21.8956 18.2462C22.1676 18.3822 22.4391 18.3822 22.7111 18.2462L24.8892 16.7507C25.4332 16.3427 25.9772 15.7998 26.2492 15.1198L29.6492 8.0462C29.9212 7.3662 29.7842 6.68779 29.2402 6.27979L30.0556 4.78167C30.3276 3.96567 30.0556 3.15179 29.3756 2.87979C29.2056 2.81179 29.0282 2.77567 28.8497 2.77354ZM3.26471 12.2617C1.76871 12.2617 0.680176 13.4862 0.680176 14.8462V29.5353C0.680176 30.8953 1.90471 32.1198 3.26471 32.1198H30.7356C32.2316 32.1198 33.3202 30.8953 33.3202 29.5353V14.9817C33.3202 13.4857 32.0956 12.2617 30.7356 12.2617L28.8311 16.2062C28.2871 17.2942 27.4722 18.2462 26.5202 18.9262L24.3447 20.4217C23.3927 21.1017 22.0332 21.2393 20.8092 20.6953C19.7212 20.1513 18.9052 18.9257 18.7692 17.7017L18.6311 14.9817C18.6311 14.0297 18.7682 13.0777 19.0402 12.2617H3.26471ZM6.66471 17.2953H14.0092C14.6892 17.2953 15.3692 17.9753 15.3692 18.6553C15.3692 19.3353 14.6892 20.0153 14.0092 20.0153H6.66471C5.98471 20.0153 5.30471 19.3353 5.30471 18.6553C5.30471 17.9753 5.84871 17.2953 6.66471 17.2953ZM6.66471 24.3662H27.4711C28.1511 24.3662 28.8311 25.0462 28.8311 25.7262C28.8311 26.4062 28.1516 27.0862 27.3356 27.0862H6.66471C5.98471 27.0862 5.30471 26.4062 5.30471 25.7262C5.30471 25.0462 5.98471 24.3662 6.66471 24.3662Z" fill="black"/>
</g>
</svg>
