<svg width="20" height="20" viewBox="0 0 20 20" fill="none" xmlns="http://www.w3.org/2000/svg">
<g id="copy-svgrepo-com (1) 4">
<path id="Vector" d="M14.2972 3.65625L16.3479 5.785C16.5435 6 16.7191 6.44938 16.7191 6.74188V13.0506C16.7191 13.3438 16.4847 13.6169 16.1722 13.6169H12.5197V12.66H15.586C15.6835 12.66 15.7616 12.5819 15.7616 12.4844V7.17188C15.7616 7.07438 15.6835 6.99625 15.586 6.99625H13.3204C13.2229 6.99625 13.1247 6.91813 13.1247 6.82063V4.39875C13.1247 4.30125 13.0466 4.22313 12.9491 4.22313H9.23785C9.14035 4.22313 9.04223 4.30125 9.04223 4.39875V5.74625C8.8466 5.66813 8.59285 5.62875 8.39785 5.62875H8.10473V3.8125C8.10473 3.5 8.35848 3.26562 8.6516 3.26562H13.3785C13.6716 3.26562 14.1016 3.44125 14.2972 3.65625ZM14.2585 6.03875H15.0791C15.1766 6.03875 15.1966 5.98 15.1379 5.90188L14.2004 4.945C14.1416 4.86688 14.0829 4.88625 14.0829 4.98438V5.86313C14.0829 5.96063 14.161 6.03875 14.2585 6.03875ZM9.3366 6.78125L11.3679 8.93C11.5829 9.145 11.7391 9.57438 11.7391 9.8675V16.1763C11.7391 16.4888 11.5047 16.7425 11.2116 16.7425H3.69223C3.37973 16.7425 3.12598 16.4888 3.12598 16.1763V6.93813C3.12598 6.645 3.37973 6.37188 3.69223 6.37188H8.3991C8.69223 6.37188 9.1216 6.5675 9.3366 6.78188V6.78125ZM4.25848 15.785H10.606C10.7035 15.785 10.8016 15.7069 10.8016 15.6094V10.2969C10.8016 10.1994 10.7041 10.1213 10.606 10.1213H8.34035C8.24285 10.1213 8.16473 10.0431 8.16473 9.94563V7.52375C8.16473 7.42625 8.0866 7.34813 7.9891 7.34813H4.25848C4.16098 7.34813 4.08285 7.42625 4.08285 7.52375V15.61C4.08285 15.7075 4.16098 15.785 4.25848 15.785ZM10.1566 9.04688L9.23848 8.05063C9.16035 7.9725 9.1016 8.03125 9.1016 8.12875V8.98813C9.1016 9.08563 9.1991 9.16375 9.29723 9.16375H10.0979C10.1954 9.16375 10.2347 9.10563 10.1566 9.04688Z" fill="#FF4F4F"/>
</g>
</svg>
