<svg width="32" height="33" viewBox="0 0 32 33" fill="none" xmlns="http://www.w3.org/2000/svg">
<path fill-rule="evenodd" clip-rule="evenodd" d="M18.4977 2.25781H18.6455C21.0541 2.25779 22.9618 2.25777 24.4547 2.45851C25.9912 2.66508 27.235 3.10035 28.2158 4.08112C29.1965 5.06191 29.6317 6.30557 29.8384 7.8421C30.0391 9.3351 30.0391 11.2428 30.0391 13.6513V19.0414C30.0391 21.45 30.0391 23.3576 29.8384 24.8506C29.6317 26.3871 29.1965 27.6308 28.2158 28.6117C27.235 29.5924 25.9912 30.0276 24.4547 30.2343C22.9618 30.4349 21.0541 30.4349 18.6455 30.4349H15.9504C15.4075 30.4349 14.9674 29.9948 14.9674 29.452C14.9674 28.9092 15.4075 28.4691 15.9504 28.4691H18.5716C21.0706 28.4691 22.846 28.467 24.1929 28.2859C25.5113 28.1087 26.2711 27.7762 26.8257 27.2216C27.3803 26.6669 27.7128 25.9072 27.89 24.5888C28.0711 23.2419 28.0732 21.4665 28.0732 18.9675V13.7252C28.0732 11.2262 28.0711 9.45085 27.89 8.10404C27.7128 6.78549 27.3803 6.02583 26.8257 5.47118C26.2711 4.91654 25.5113 4.58409 24.1929 4.40682C22.846 4.22574 21.0706 4.22366 18.5716 4.22366C16.0726 4.22366 14.2972 4.22574 12.9504 4.40682C11.6319 4.58409 10.8722 4.91654 10.3176 5.47118C9.4055 6.38326 9.12934 7.80042 9.08133 11.1183C9.07348 11.6611 8.62709 12.0948 8.08429 12.0869C7.5415 12.0791 7.10784 11.6327 7.11569 11.0899C7.16172 7.90854 7.36764 5.64099 8.92751 4.08112C9.90829 3.10035 11.1519 2.66508 12.6885 2.45851C14.1815 2.25777 16.0892 2.25779 18.4977 2.25781ZM7.38144 14.0529H7.48198C8.3595 14.0529 9.09174 14.0529 9.68454 14.1132C10.3051 14.1762 10.8809 14.3136 11.3999 14.6603C11.7934 14.9232 12.1313 15.2611 12.3942 15.6547C12.741 16.1736 12.8782 16.7494 12.9413 17.3699C13.0016 17.9628 13.0016 18.695 13.0016 19.5726V24.9152C13.0016 25.7928 13.0016 26.525 12.9413 27.1179C12.8782 27.7384 12.741 28.3142 12.3942 28.8332C12.1313 29.2267 11.7934 29.5646 11.3999 29.8275C10.8809 30.1743 10.3051 30.3116 9.68454 30.3746C9.09172 30.4349 8.35947 30.4349 7.48193 30.4349H7.38149C6.50395 30.4349 5.7717 30.4349 5.17888 30.3746C4.55837 30.3116 3.98254 30.1743 3.46356 29.8275C3.07004 29.5646 2.73216 29.2267 2.46921 28.8332C2.12244 28.3142 1.98521 27.7384 1.92208 27.1179C1.86178 26.525 1.86179 25.7928 1.86182 24.9152V19.5726C1.86179 18.695 1.86178 17.9628 1.92208 17.3699C1.98521 16.7494 2.12244 16.1736 2.46921 15.6547C2.73216 15.2611 3.07004 14.9232 3.46356 14.6603C3.98254 14.3136 4.55837 14.1762 5.17888 14.1132C5.77169 14.0529 6.50392 14.0529 7.38144 14.0529ZM5.37784 16.0689C4.91276 16.1162 4.69786 16.1998 4.55573 16.2949C4.37685 16.4144 4.22327 16.568 4.10375 16.7467C4.00878 16.8889 3.92514 17.1039 3.87783 17.5689C3.82885 18.0504 3.82766 18.6821 3.82766 19.6228V24.865C3.82766 25.8058 3.82885 26.4374 3.87783 26.9189C3.92514 27.3839 4.00878 27.5989 4.10375 27.7411C4.22327 27.9198 4.37685 28.0734 4.55573 28.1929C4.69786 28.288 4.91276 28.3716 5.37784 28.4189C5.85934 28.4679 6.49094 28.4691 7.43171 28.4691C8.37249 28.4691 9.00409 28.4679 9.48559 28.4189C9.95067 28.3716 10.1656 28.288 10.3077 28.1929C10.4866 28.0734 10.6402 27.9198 10.7597 27.7411C10.8546 27.5989 10.9383 27.3839 10.9856 26.9189C11.0346 26.4374 11.0358 25.8058 11.0358 24.865V19.6228C11.0358 18.6821 11.0346 18.0504 10.9856 17.5689C10.9383 17.1039 10.8546 16.8889 10.7597 16.7467C10.6402 16.568 10.4866 16.4144 10.3077 16.2949C10.1656 16.1998 9.95067 16.1162 9.48559 16.0689C9.00409 16.0199 8.37249 16.0187 7.43171 16.0187C6.49094 16.0187 5.85934 16.0199 5.37784 16.0689ZM14.9674 25.5203C14.9674 24.9775 15.4075 24.5374 15.9504 24.5374H22.5032C23.046 24.5374 23.4861 24.9775 23.4861 25.5203C23.4861 26.0631 23.046 26.5032 22.5032 26.5032H15.9504C15.4075 26.5032 14.9674 26.0631 14.9674 25.5203Z" fill="#FF4F4F"/>
</svg>
