<svg width="16" height="16" viewBox="0 0 18 18" fill="none" xmlns="http://www.w3.org/2000/svg">
<path d="M1.79995 0.203125C0.915951 0.203125 0.199951 0.919125 0.199951 1.80313V16.2031C0.199951 17.0871 0.915951 17.8031 1.79995 17.8031H3.04526C2.77006 17.3303 2.59995 16.7887 2.59995 16.2031V1.80313C2.59995 1.21753 2.77006 0.675925 3.04526 0.203125H1.79995ZM5.79995 0.203125C4.91595 0.203125 4.19995 0.919125 4.19995 1.80313V16.2031C4.19995 17.0871 4.91595 17.8031 5.79995 17.8031H16.2C17.084 17.8031 17.8 17.0871 17.8 16.2031V5.40313C17.8 5.19112 17.716 4.9879 17.5656 4.8375L13.1656 0.4375C13.0152 0.2871 12.812 0.203125 12.6 0.203125H5.79995ZM12.2 1.72656L16.2765 5.80312H13C12.5584 5.80312 12.2 5.44473 12.2 5.00313V1.72656ZM8.19995 9.00313H13.8C14.2416 9.00313 14.6 9.36153 14.6 9.80313C14.6 10.2447 14.2416 10.6031 13.8 10.6031H8.19995C7.75835 10.6031 7.39995 10.2447 7.39995 9.80313C7.39995 9.36153 7.75835 9.00313 8.19995 9.00313ZM8.19995 12.2031H12.2C12.6416 12.2031 13 12.5615 13 13.0031C13 13.4447 12.6416 13.8031 12.2 13.8031H8.19995C7.75835 13.8031 7.39995 13.4447 7.39995 13.0031C7.39995 12.5615 7.75835 12.2031 8.19995 12.2031Z" fill="black"/>
</svg>
