<svg width="38" height="37" viewBox="0 0 38 37" fill="none" xmlns="http://www.w3.org/2000/svg">
<path fill-rule="evenodd" clip-rule="evenodd" d="M17.3022 1.90625H20.5326C23.3426 1.90622 25.5682 1.9062 27.3101 2.1404C29.1026 2.3814 30.5537 2.88921 31.698 4.03344C32.8421 5.17769 33.3499 6.62863 33.591 8.42125C33.8251 10.1631 33.8251 12.3887 33.8251 15.1987V21.4871C33.8251 24.2971 33.8251 26.5227 33.591 28.2645C33.3499 30.0571 32.8421 31.5081 31.698 32.6524C30.5537 33.7966 29.1026 34.3043 27.3101 34.5455C25.5682 34.7795 23.3426 34.7795 20.5326 34.7795H17.3022C14.4923 34.7795 12.2666 34.7795 10.5248 34.5455C8.73215 34.3043 7.28121 33.7966 6.13696 32.6524C4.99272 31.5081 4.48492 30.0571 4.24392 28.2645C4.00972 26.5227 4.00974 24.2971 4.00977 21.4871V15.1987C4.00974 12.3887 4.00972 10.1631 4.24392 8.42125C4.48492 6.62863 4.99272 5.17769 6.13696 4.03344C7.28121 2.88921 8.73215 2.3814 10.5248 2.1404C12.2666 1.9062 14.4922 1.90622 17.3022 1.90625ZM10.8304 4.41343C9.29206 4.62024 8.40578 5.0081 7.7587 5.65518C7.11161 6.30227 6.72376 7.18855 6.51694 8.72685C6.30568 10.2981 6.30325 12.3694 6.30325 15.2849V21.4009C6.30325 24.3164 6.30568 26.3877 6.51694 27.959C6.72376 29.4972 7.11161 30.3835 7.7587 31.0306C8.40578 31.6777 9.29206 32.0656 10.8304 32.2723C12.4016 32.4836 14.4729 32.4861 17.3884 32.4861H20.4464C23.3619 32.4861 25.4332 32.4836 27.0046 32.2723C28.5427 32.0656 29.4291 31.6777 30.0761 31.0306C30.7232 30.3835 31.1111 29.4972 31.3178 27.959C31.5292 26.3877 31.5316 24.3164 31.5316 21.4009V15.2849C31.5316 12.3694 31.5292 10.2981 31.3178 8.72685C31.1111 7.18855 30.7232 6.30227 30.0761 5.65518C29.4291 5.0081 28.5427 4.62024 27.0046 4.41343C25.4332 4.20217 23.3619 4.19974 20.4464 4.19974H17.3884C14.4729 4.19974 12.4016 4.20217 10.8304 4.41343ZM18.9174 8.02221C19.5507 8.02221 20.0642 8.53563 20.0642 9.16896V11.0802H21.9754C22.6087 11.0802 23.1221 11.5936 23.1221 12.2269C23.1221 12.8603 22.6087 13.3737 21.9754 13.3737H20.0642V15.2849C20.0642 15.9182 19.5507 16.4317 18.9174 16.4317C18.2841 16.4317 17.7707 15.9182 17.7707 15.2849V13.3737H15.8594C15.2261 13.3737 14.7127 12.8603 14.7127 12.2269C14.7127 11.5936 15.2261 11.0802 15.8594 11.0802H17.7707V9.16896C17.7707 8.53563 18.2841 8.02221 18.9174 8.02221ZM11.6547 21.4009C11.6547 20.7676 12.1681 20.2541 12.8015 20.2541H25.0334C25.6667 20.2541 26.1801 20.7676 26.1801 21.4009C26.1801 22.0342 25.6667 22.5476 25.0334 22.5476H12.8015C12.1681 22.5476 11.6547 22.0342 11.6547 21.4009ZM13.1837 27.5168C13.1837 26.8835 13.6971 26.3701 14.3305 26.3701H23.5044C24.1377 26.3701 24.6511 26.8835 24.6511 27.5168C24.6511 28.1501 24.1377 28.6636 23.5044 28.6636H14.3305C13.6971 28.6636 13.1837 28.1501 13.1837 27.5168Z" fill="#FF4F4F"/>
</svg>
