<svg width="28" height="28" viewBox="0 0 28 28" fill="none" xmlns="http://www.w3.org/2000/svg">
<path d="M8.75 4.375C7.30013 4.375 6.125 5.55013 6.125 7V15.3868C6.41112 15.3427 6.70162 15.3125 7 15.3125C7.29838 15.3125 7.58887 15.3427 7.875 15.3868V7C7.875 6.51656 8.267 6.125 8.75 6.125H13.125V10.5C13.125 11.9499 14.3001 13.125 15.75 13.125H20.125V21C20.125 21.4834 19.733 21.875 19.25 21.875H12.6132C12.5165 22.4971 12.3224 23.0864 12.0406 23.625H19.25C20.6999 23.625 21.875 22.4499 21.875 21V12.5371C21.875 11.8406 21.5981 11.1733 21.106 10.6812L15.5688 5.14404C15.0762 4.65186 14.409 4.375 13.7129 4.375H8.75ZM14.875 6.9248L19.3252 11.375H15.75C15.2666 11.375 14.875 10.9834 14.875 10.5V6.9248ZM7 16.625C4.58369 16.625 2.625 18.5837 2.625 21C2.625 23.4163 4.58369 25.375 7 25.375C9.41631 25.375 11.375 23.4163 11.375 21C11.375 18.5837 9.41631 16.625 7 16.625ZM8.85852 19.097C8.90946 19.106 8.96008 19.1244 9.00635 19.1543C9.19097 19.2737 9.24285 19.5204 9.12341 19.7046L6.90686 23.126C6.83949 23.2301 6.72691 23.2971 6.60266 23.3063C6.5926 23.3067 6.58323 23.3071 6.57361 23.3071C6.45986 23.3071 6.35066 23.2583 6.27454 23.1721L4.91162 21.6229C4.76637 21.458 4.78257 21.2068 4.94751 21.0615C5.11245 20.9163 5.36366 20.9325 5.50891 21.0974L6.5249 22.2527L8.4552 19.2722C8.54478 19.1337 8.7057 19.0701 8.85852 19.097Z" fill="#888888"/>
</svg>
