<svg width="20" height="24" viewBox="0 0 20 24" fill="none" xmlns="http://www.w3.org/2000/svg">
<path d="M3.625 0.3125C1.86444 0.3125 0.4375 1.73944 0.4375 3.5V20.5C0.4375 22.2606 1.86444 23.6875 3.625 23.6875H16.375C18.1356 23.6875 19.5625 22.2606 19.5625 20.5V10.2236C19.5625 9.37788 19.2263 8.56763 18.6287 7.96997L11.905 1.24634C11.3068 0.648681 10.4966 0.3125 9.65137 0.3125H3.625ZM3.625 2.4375H8.9375V7.75C8.9375 9.51056 10.3644 10.9375 12.125 10.9375H17.4375V20.5C17.4375 21.087 16.962 21.5625 16.375 21.5625H3.625C3.03797 21.5625 2.5625 21.087 2.5625 20.5V3.5C2.5625 2.91297 3.03797 2.4375 3.625 2.4375ZM11.0625 3.40869L16.4663 8.8125H12.125C11.538 8.8125 11.0625 8.33703 11.0625 7.75V3.40869ZM5.75 13.0625C5.1635 13.0625 4.6875 13.538 4.6875 14.125C4.6875 14.712 5.1635 15.1875 5.75 15.1875H14.25C14.8365 15.1875 15.3125 14.712 15.3125 14.125C15.3125 13.538 14.8365 13.0625 14.25 13.0625H5.75ZM5.75 17.3125C5.1635 17.3125 4.6875 17.788 4.6875 18.375C4.6875 18.962 5.1635 19.4375 5.75 19.4375H14.25C14.8365 19.4375 15.3125 18.962 15.3125 18.375C15.3125 17.788 14.8365 17.3125 14.25 17.3125H5.75Z" fill="#888888"/>
</svg>
