<svg width="35" height="37" viewBox="0 0 35 37" fill="none" xmlns="http://www.w3.org/2000/svg">
<path fill-rule="evenodd" clip-rule="evenodd" d="M16.9154 2.36719H17.0846C19.8413 2.36716 22.0247 2.36714 23.7335 2.5969C25.4921 2.83333 26.9156 3.33151 28.0382 4.45405C29.1607 5.5766 29.6588 7.00003 29.8954 8.75866C30.0494 9.90475 30.1001 11.2643 30.1168 12.8672H30.5C31.9498 12.8672 33.125 14.0424 33.125 15.4922V16.9922C33.125 17.8184 32.736 18.5964 32.075 19.0922L30.1213 20.5574C30.1103 22.4061 30.067 23.9484 29.8954 25.2257C29.6588 26.9843 29.1607 28.4078 28.0382 29.5304C27.7534 29.8151 27.4492 30.0597 27.125 30.2702V31.9922C27.125 33.4419 25.9498 34.6172 24.5 34.6172H22.25C20.8002 34.6172 19.625 33.4419 19.625 31.9922V31.6089C18.838 31.6172 17.9924 31.6172 17.0846 31.6172H16.9154C16.0076 31.6172 15.1621 31.6172 14.375 31.6089V31.9922C14.375 33.4419 13.1998 34.6172 11.75 34.6172H9.5C8.05025 34.6172 6.875 33.4419 6.875 31.9922V30.2702C6.55088 30.0597 6.24668 29.8151 5.96186 29.5304C4.83932 28.4078 4.34114 26.9843 4.1047 25.2257C3.93299 23.9484 3.88963 22.4061 3.87869 20.5574L1.925 19.0922C1.26401 18.5964 0.875 17.8184 0.875 16.9922V15.4922C0.875 14.0424 2.05025 12.8672 3.5 12.8672H3.88319C3.89989 11.2643 3.95062 9.90475 4.1047 8.75866C4.34114 7.00003 4.83932 5.5766 5.96186 4.45405C7.08442 3.33151 8.50783 2.83333 10.2665 2.5969C11.9753 2.36714 14.1587 2.36716 16.9154 2.36719ZM3.875 15.1172H3.5C3.2929 15.1172 3.125 15.2851 3.125 15.4922V16.9922C3.125 17.1102 3.18057 17.2214 3.275 17.2922L3.875 17.7422V15.4076C3.875 15.3101 3.875 15.2133 3.875 15.1172ZM6.1336 21.1172C6.14993 22.6676 6.19732 23.9045 6.33464 24.926C6.53753 26.435 6.91804 27.3045 7.55285 27.9393C8.18767 28.5741 9.05714 28.9547 10.5663 29.1575C12.1078 29.3648 14.1398 29.3672 17 29.3672C19.8602 29.3672 21.8923 29.3648 23.4338 29.1575C24.9428 28.9547 25.8124 28.5741 26.4472 27.9393C27.082 27.3045 27.4625 26.435 27.6653 24.926C27.8027 23.9045 27.8501 22.6676 27.8665 21.1172H6.1336ZM27.875 18.8672H6.12503C6.125 18.7437 6.125 18.6188 6.125 18.4922V15.4922C6.125 12.6681 6.12733 10.6515 6.32687 9.11719H27.6731C27.8726 10.6515 27.875 12.6681 27.875 15.4922V18.4922C27.875 18.6188 27.875 18.7437 27.875 18.8672ZM30.125 17.7422L30.725 17.2922C30.8195 17.2214 30.875 17.1102 30.875 16.9922V15.4922C30.875 15.2851 30.7072 15.1172 30.5 15.1172H30.125C30.125 15.2133 30.125 15.3101 30.125 15.4076V17.7422ZM27.0515 6.86719C26.8823 6.54727 26.6822 6.28007 26.4472 6.04504C25.8124 5.41022 24.9428 5.02972 23.4338 4.82683C21.8923 4.61957 19.8602 4.61719 17 4.61719C14.1398 4.61719 12.1078 4.61957 10.5663 4.82683C9.05714 5.02972 8.18767 5.41022 7.55285 6.04504C7.31783 6.28007 7.11766 6.54727 6.94844 6.86719H27.0515ZM9.125 31.1829V31.9922C9.125 32.1993 9.2929 32.3672 9.5 32.3672H11.75C11.9571 32.3672 12.125 32.1993 12.125 31.9922V31.5485C11.451 31.5144 10.8327 31.4636 10.2665 31.3875C9.86899 31.334 9.48863 31.2672 9.125 31.1829ZM21.875 31.5485V31.9922C21.875 32.1993 22.0429 32.3672 22.25 32.3672H24.5C24.7071 32.3672 24.875 32.1993 24.875 31.9922V31.1829C24.5114 31.2672 24.131 31.334 23.7335 31.3875C23.1674 31.4636 22.549 31.5144 21.875 31.5485ZM8.375 24.4922C8.375 23.8709 8.87868 23.3672 9.5 23.3672H11.75C12.3713 23.3672 12.875 23.8709 12.875 24.4922C12.875 25.1135 12.3713 25.6172 11.75 25.6172H9.5C8.87868 25.6172 8.375 25.1135 8.375 24.4922ZM21.125 24.4922C21.125 23.8709 21.6287 23.3672 22.25 23.3672H24.5C25.1213 23.3672 25.625 23.8709 25.625 24.4922C25.625 25.1135 25.1213 25.6172 24.5 25.6172H22.25C21.6287 25.6172 21.125 25.1135 21.125 24.4922Z" fill="#FF4F4F"/>
</svg>
