<svg width="34" height="23" viewBox="0 0 34 23" fill="none" xmlns="http://www.w3.org/2000/svg">
<path d="M21.0801 0.437677C21.0801 0.437677 18.793 0.387208 17.1913 1.98893C16.9204 2.25987 16.9204 2.69549 17.1913 2.96643C17.4622 3.23737 17.8979 3.23737 18.1688 2.96643C19.0613 2.07393 20.153 1.90924 20.6551 1.86143C20.7932 2.15362 20.9472 2.47768 21.0163 2.81768C21.0243 2.86815 21.0402 2.91862 21.0588 2.96643C21.0083 3.27721 20.8516 3.73674 20.5276 4.11393C20.2566 4.38487 19.991 4.51768 19.7201 4.51768C15.571 4.51768 14.7529 6.49393 14.3438 7.51393C14.2747 7.6494 14.2163 7.78221 14.2163 7.91768C12.0408 7.91768 10.4072 7.30674 10.1363 6.89768C9.18537 5.26674 8.431 5.19768 5.44006 5.19768C0.749125 5.19768 0.0691248 7.51924 6.19274e-05 7.79018C-0.0690009 7.99471 -0.00790685 8.18065 0.127562 8.38518C0.196625 8.45424 1.02537 9.27768 2.65631 9.27768H2.99631C3.94725 8.86862 4.96725 8.59768 6.05631 8.59768C10.2054 8.59768 13.5363 11.9286 13.5363 16.0777C13.5363 16.6222 13.4593 17.1694 13.3238 17.7139C14.5483 18.0539 15.9216 18.1177 16.5326 18.1177H16.6601C17.8846 18.1177 19.651 17.783 20.4001 17.0339C20.7401 16.6939 20.8038 16.3539 20.8038 16.0139C20.2115 11.9206 22.2594 10.0639 23.2051 9.42643C23.476 10.0453 23.7522 10.6669 24.0551 11.2752C22.6419 12.3642 21.7601 14.12 21.7601 16.0139C21.7601 19.4139 24.4801 22.1339 27.8801 22.1339C31.2801 22.1339 34.0001 19.4139 34.0001 16.0139C34.0001 12.6139 31.2801 9.95768 27.8801 9.95768C26.9291 9.95768 26.0393 10.1649 25.2238 10.5739C25.6329 11.3894 26.1083 12.2049 26.5838 12.9539C26.9929 12.8185 27.4046 12.6777 27.8801 12.6777C29.7846 12.6777 31.2801 14.1731 31.2801 16.0777C31.2801 17.9822 29.7846 19.4777 27.8801 19.4777C25.9755 19.4777 24.4801 17.9822 24.4801 16.0777C24.4801 15.1267 24.8254 14.3086 25.4363 13.6977C24.9688 12.9619 24.5013 12.1624 24.0976 11.2964C24.4322 11.0308 24.8254 10.7731 25.2238 10.5739C24.6129 9.3494 23.9966 8.06112 23.5876 6.77018C23.5637 6.70908 23.5397 6.65065 23.5026 6.60018C22.9554 4.80721 22.4268 2.5919 22.3763 2.54143C22.3683 2.50424 22.3471 2.46971 22.3338 2.43518C22.1426 1.60377 21.6751 0.798927 21.6751 0.798927C21.5582 0.578458 21.3297 0.440333 21.0801 0.437677ZM25.4363 13.6977C26.2518 15.0577 27.208 16.2742 28.0926 17.2252C28.228 17.3606 28.4246 17.4377 28.5601 17.4377C28.6955 17.4377 28.8921 17.3606 29.0276 17.2252C29.2985 16.9542 29.2985 16.5611 29.0276 16.2902C28.2121 15.4056 27.3355 14.2449 26.5201 12.9539C26.111 13.1585 25.7763 13.3577 25.4363 13.6977ZM25.5638 3.15768C25.0193 3.15768 24.488 3.23471 24.0126 3.37018C24.4216 4.86565 24.9476 6.82065 25.2876 7.70518C25.2876 7.77424 25.3726 7.84862 25.3726 7.91768H25.5638C26.4483 7.91768 27.0035 7.70518 27.4126 7.36518C27.888 6.88971 27.8801 6.20971 27.8801 5.66518V5.41018C27.8801 4.86565 27.888 4.18565 27.4126 3.71018C27.0035 3.37018 26.4483 3.15768 25.5638 3.15768ZM6.12006 9.95768C2.72006 9.95768 6.19274e-05 12.6777 6.19274e-05 16.0777C6.19274e-05 19.4777 2.72006 22.1977 6.12006 22.1977C9.24912 22.1977 11.8363 19.8177 12.1763 16.7577H9.45631C9.11631 18.3222 7.751 19.4777 6.12006 19.4777C4.21553 19.4777 2.72006 17.9822 2.72006 16.0777C2.72006 14.1731 4.21553 12.6777 6.12006 12.6777C7.751 12.6777 9.11631 13.8331 9.45631 15.3977H12.1763C11.8363 12.3377 9.24912 9.95768 6.12006 9.95768ZM9.45631 15.3977H8.05381C7.78287 14.5928 7.03647 14.0377 6.12006 14.0377C4.96459 14.0377 4.08006 14.9222 4.08006 16.0777C4.08006 17.2331 4.96459 18.1177 6.12006 18.1177C7.03647 18.1177 7.78287 17.5625 8.05381 16.7577H9.45631C9.52537 16.5531 9.52006 16.2822 9.52006 16.0777C9.52006 15.8731 9.52537 15.6022 9.45631 15.3977Z" fill="black"/>
</svg>
