<svg width="23" height="23" viewBox="0 0 23 23" fill="none" xmlns="http://www.w3.org/2000/svg">
<g clip-path="url(#clip0_17418_14252)">
<path d="M5.96562 0.1875C5.47533 0.1875 5.06908 0.593746 5.06908 1.08404V1.98059H2.37945C2.14481 1.98059 1.90667 2.06639 1.73857 2.23624C1.56871 2.40434 1.48291 2.64249 1.48291 2.87713V20.808C1.48291 21.0426 1.56871 21.2808 1.73857 21.4506C1.90667 21.6187 2.14481 21.7045 2.37945 21.7045H21.2069C21.4415 21.7045 21.6796 21.6187 21.8495 21.4506C22.0176 21.2808 22.1034 21.0426 22.1034 20.808V2.87713C22.1034 2.64249 22.0176 2.40434 21.8495 2.23624C21.6796 2.06639 21.4415 1.98059 21.2069 1.98059H18.5172V1.08404C18.5172 0.593746 18.111 0.1875 17.6207 0.1875H16.7241C16.2338 0.1875 15.8276 0.593746 15.8276 1.08404V1.98059H7.75871V1.08404C7.75871 0.593746 7.35246 0.1875 6.86217 0.1875H5.96562ZM5.96562 1.08404H6.86217V3.77367H5.96562V1.08404ZM16.7241 1.08404H17.6207V3.77367H16.7241V1.08404ZM2.37945 2.87713H5.06908V3.77367C5.06908 4.26397 5.47533 4.67022 5.96562 4.67022H6.86217C7.35246 4.67022 7.75871 4.26397 7.75871 3.77367V2.87713H15.8276V3.77367C15.8276 4.26397 16.2338 4.67022 16.7241 4.67022H17.6207C18.111 4.67022 18.5172 4.26397 18.5172 3.77367V2.87713H21.2069V6.01503H2.37945V2.87713ZM2.37945 6.91157H21.2069V20.808H2.37945V6.91157ZM5.06908 8.70466V19.0149H18.5172V8.70466H5.06908ZM5.96562 9.6012H8.20698V11.8426H5.96562V9.6012ZM9.10352 9.6012H11.3449V11.8426H9.10352V9.6012ZM12.2414 9.6012H14.4828V11.8426H12.2414V9.6012ZM15.3793 9.6012H17.6207V11.8426H15.3793V9.6012ZM5.96562 12.7391H8.20698V14.9805H5.96562V12.7391ZM9.10352 12.7391H11.3449V14.9805H9.10352V12.7391ZM12.2414 12.7391H14.4828V14.9805H12.2414V12.7391ZM15.3793 12.7391H17.6207V14.9805H15.3793V12.7391ZM5.96562 15.877H8.20698V18.1184H5.96562V15.877ZM9.10352 15.877H11.3449V18.1184H9.10352V15.877ZM12.2414 15.877H14.4828V18.1184H12.2414V15.877ZM15.3793 15.877H17.6207V18.1184H15.3793V15.877Z" fill="#FF4F4F"/>
</g>
<defs>
<clipPath id="clip0_17418_14252">
<rect width="22.4136" height="22.4136" fill="white" transform="translate(0.586426 0.1875)"/>
</clipPath>
</defs>
</svg>
