<svg width="24" height="24" viewBox="0 0 32 33" fill="none" xmlns="http://www.w3.org/2000/svg">
<path d="M22 5.42969C21.601 5.42969 21.1922 5.47641 20.7852 5.56641L18.9629 5.96875L23 9.85547V12.4297H20.4238L16.5312 8.4082L16.1328 10.2285C16.0438 10.6285 16 11.0337 16 11.4297C16 13.5847 17.158 15.5571 19 16.6211V25.4297H25V16.6211C26.842 15.5571 28 13.5847 28 11.4297C28 8.12069 25.309 5.42969 22 5.42969ZM14.0605 10.5293C13.5505 10.6593 13.0809 10.9305 12.7109 11.3105L9.50977 14.5098L4 15.6113V22.4297H7.35156C7.91557 23.6077 9.109 24.4297 10.5 24.4297C11.891 24.4297 13.0844 23.6077 13.6484 22.4297H17V17.6699C15.13 16.1699 14 13.8697 14 11.4297C14 11.1297 14.0205 10.8393 14.0605 10.5293ZM10.5 19.4297C11.327 19.4297 12 20.1027 12 20.9297C12 21.7567 11.327 22.4297 10.5 22.4297C9.673 22.4297 9 21.7567 9 20.9297C9 20.1027 9.673 19.4297 10.5 19.4297Z" fill="black"/>
</svg>
