<svg width="25" height="25" viewBox="0 0 25 25" fill="none" xmlns="http://www.w3.org/2000/svg">
<path fill-rule="evenodd" clip-rule="evenodd" d="M7.58643 2.40625C8.00064 2.40625 8.33643 2.74204 8.33643 3.15625V3.91897C8.99846 3.90624 9.72783 3.90624 10.53 3.90625H14.6428C15.445 3.90624 16.1744 3.90624 16.8364 3.91897V3.15625C16.8364 2.74204 17.1722 2.40625 17.5864 2.40625C18.0006 2.40625 18.3364 2.74204 18.3364 3.15625V3.98334C18.5963 4.00316 18.8425 4.02807 19.0754 4.05938C20.2478 4.21701 21.1968 4.54913 21.9452 5.29749C22.6935 6.04586 23.0256 6.9948 23.1833 8.16723C23.2336 8.54192 23.2674 8.95084 23.2901 9.39632C23.3201 9.47731 23.3364 9.56486 23.3364 9.65625C23.3364 9.72557 23.327 9.79269 23.3094 9.85641C23.3364 10.6583 23.3364 11.569 23.3364 12.5998V14.7127C23.3364 16.5505 23.3364 18.0061 23.1833 19.1453C23.0256 20.3176 22.6935 21.2667 21.9452 22.0151C21.1968 22.7634 20.2478 23.0955 19.0754 23.2532C17.9362 23.4062 16.4806 23.4062 14.6428 23.4062H10.53C8.69226 23.4062 7.23662 23.4062 6.09741 23.2532C4.92499 23.0955 3.97604 22.7634 3.22767 22.0151C2.47931 21.2667 2.14719 20.3176 1.98957 19.1453C1.8364 18.0061 1.83641 16.5505 1.83643 14.7127V12.5998C1.83642 11.5689 1.83641 10.6583 1.86344 9.85642C1.84584 9.7927 1.83643 9.72557 1.83643 9.65625C1.83643 9.56487 1.85277 9.4773 1.8827 9.39631C1.90538 8.95083 1.93919 8.54191 1.98957 8.16723C2.14719 6.99481 2.47931 6.04586 3.22767 5.29749C3.97604 4.54913 4.92499 4.21701 6.09741 4.05938C6.33033 4.02807 6.57649 4.00316 6.83643 3.98334V3.15625C6.83643 2.74204 7.17222 2.40625 7.58643 2.40625ZM3.34952 10.4062C3.33675 11.059 3.33643 11.8022 3.33643 12.6562V14.6562C3.33643 16.5631 3.33802 17.9177 3.47619 18.9454C3.61145 19.9515 3.86512 20.5311 4.28833 20.9543C4.71154 21.3776 5.29119 21.6313 6.29728 21.7665C7.32494 21.9047 8.67961 21.9062 10.5864 21.9062H14.5864C16.4932 21.9062 17.8479 21.9047 18.8756 21.7665C19.8816 21.6313 20.4613 21.3776 20.8845 20.9543C21.3077 20.5311 21.5614 19.9515 21.6966 18.9454C21.8348 17.9177 21.8364 16.5631 21.8364 14.6562V12.6562C21.8364 11.8022 21.8361 11.059 21.8233 10.4062H3.34952ZM21.7547 8.90625H3.41811C3.43413 8.71686 3.45328 8.53748 3.47619 8.3671C3.61145 7.36101 3.86512 6.78136 4.28833 6.35815C4.71154 5.93494 5.29119 5.68127 6.29728 5.54601C7.32494 5.40784 8.67961 5.40625 10.5864 5.40625H14.5864C16.4932 5.40625 17.8479 5.40784 18.8756 5.54601C19.8816 5.68127 20.4613 5.93494 20.8845 6.35815C21.3077 6.78136 21.5614 7.36101 21.6966 8.3671C21.7195 8.53748 21.7387 8.71686 21.7547 8.90625ZM11.3734 12.9634C11.6537 13.0795 11.8364 13.353 11.8364 13.6562V17.6562C11.8364 18.0704 11.5006 18.4062 11.0864 18.4062C10.6722 18.4062 10.3364 18.0704 10.3364 17.6562V15.467L10.1168 15.6866C9.82387 15.9795 9.34899 15.9795 9.0561 15.6866C8.76321 15.3937 8.76321 14.9188 9.0561 14.6259L10.5561 13.1259C10.7706 12.9114 11.0932 12.8472 11.3734 12.9634ZM14.5864 14.4062C14.4483 14.4062 14.3364 14.5182 14.3364 14.6562V16.6562C14.3364 16.7943 14.4483 16.9062 14.5864 16.9062C14.7245 16.9062 14.8364 16.7943 14.8364 16.6562V14.6562C14.8364 14.5182 14.7245 14.4062 14.5864 14.4062ZM12.8364 14.6562C12.8364 13.6897 13.6199 12.9062 14.5864 12.9062C15.5529 12.9062 16.3364 13.6897 16.3364 14.6562V16.6562C16.3364 17.6228 15.5529 18.4062 14.5864 18.4062C13.6199 18.4062 12.8364 17.6228 12.8364 16.6562V14.6562Z" fill="#FF4F4F"/>
</svg>
