<svg width="20" height="20" viewBox="0 0 33 33" fill="none" xmlns="http://www.w3.org/2000/svg">
<g clip-path="url(#clip0_17331_14638)">
<path d="M24.1094 0.757812L23.7239 2.81458C23.5311 2.87887 23.2739 2.94342 23.081 3.072L21.3445 1.85024L19.4158 3.77893L20.5735 5.38618C20.5092 5.64334 20.3804 5.83721 20.3161 6.09437L18.3233 6.41582V9.11549L20.3161 9.43694C20.3804 9.62981 20.4449 9.88697 20.5735 10.0798L19.4158 11.8152L21.3445 13.7439L23.081 12.5874C23.3382 12.716 23.5308 12.7805 23.788 12.8448L24.1094 14.9016H26.7451L27.1305 12.9088C27.3234 12.8446 27.5163 12.78 27.7734 12.6514L29.51 13.8091L31.4387 11.8805L30.217 10.2079C30.3455 9.95076 30.4101 9.69385 30.4744 9.50098L32.4671 9.11549V6.41582L30.4103 6.09437C30.346 5.9015 30.2815 5.64434 30.1529 5.45147L31.3094 3.71489L29.446 1.85024L27.7734 3.072C27.5806 2.94342 27.3234 2.87887 27.1305 2.81458L26.8091 0.757812H24.1094ZM5.46538 5.901C4.04714 5.901 2.89378 7.05436 2.89378 8.47259V22.6164C2.89378 23.0871 3.03 23.5223 3.25165 23.9021H1.60799C1.25311 23.9021 0.965088 24.1902 0.965088 24.545C0.965088 26.3175 2.40711 27.7595 4.17958 27.7595H28.6097C30.3822 27.7595 31.8242 26.3175 31.8242 24.545C31.8242 24.1902 31.5362 23.9021 31.1813 23.9021H29.5376C29.7593 23.5223 29.8955 23.0871 29.8955 22.6164V14.8652C29.4886 15.1262 29.061 15.3567 28.6097 15.5445V22.6164C28.6097 23.3255 28.033 23.9021 27.3239 23.9021H5.46538C4.75626 23.9021 4.17958 23.3255 4.17958 22.6164V8.47259C4.17958 7.76347 4.75626 7.1868 5.46538 7.1868H17.0702C17.1036 6.7477 17.1715 6.31888 17.2698 5.901H5.46538ZM25.3952 5.901C26.456 5.901 27.3239 6.67248 27.3239 7.82969C27.3239 8.89048 26.456 9.75839 25.3952 9.75839C24.3344 9.75839 23.4665 8.89048 23.4665 7.82969C23.4665 6.76891 24.3344 5.901 25.3952 5.901Z" fill="black"/>
</g>
<defs>
<clipPath id="clip0_17331_14638">
<rect width="32.1449" height="32.1449" fill="white" transform="translate(0.32251 0.757812)"/>
</clipPath>
</defs>
</svg>
