<svg width="16" height="16" viewBox="0 0 18 18" fill="none" xmlns="http://www.w3.org/2000/svg">
<path d="M1.66662 0.929688C0.856284 0.929688 0.199951 1.58602 0.199951 2.39635V4.59635V16.3297C0.199971 16.5242 0.277239 16.7107 0.414761 16.8482C0.552283 16.9857 0.738798 17.063 0.933285 17.063H17.0666C17.2611 17.063 17.4476 16.9857 17.5851 16.8482C17.7227 16.7107 17.7999 16.5242 17.8 16.3297V3.86302V2.39635C17.8 1.58602 17.1436 0.929688 16.3333 0.929688H1.66662ZM1.66662 4.59635H16.3333V15.5964H1.66662V4.59635ZM3.86662 6.06302C3.76944 6.06165 3.67296 6.0796 3.58279 6.11584C3.49261 6.15207 3.41053 6.20587 3.34133 6.2741C3.27213 6.34234 3.21717 6.42364 3.17966 6.5133C3.14216 6.60295 3.12284 6.69917 3.12284 6.79635C3.12284 6.89354 3.14216 6.98976 3.17966 7.07941C3.21717 7.16907 3.27213 7.25037 3.34133 7.3186C3.41053 7.38684 3.49261 7.44064 3.58279 7.47687C3.67296 7.51311 3.76944 7.53106 3.86662 7.52969H14.1333C14.2305 7.53106 14.3269 7.51311 14.4171 7.47687C14.5073 7.44064 14.5894 7.38684 14.6586 7.3186C14.7278 7.25037 14.7827 7.16907 14.8202 7.07941C14.8577 6.98976 14.8771 6.89354 14.8771 6.79635C14.8771 6.69917 14.8577 6.60295 14.8202 6.5133C14.7827 6.42364 14.7278 6.34234 14.6586 6.2741C14.5894 6.20587 14.5073 6.15207 14.4171 6.11584C14.3269 6.0796 14.2305 6.06165 14.1333 6.06302H3.86662ZM3.86662 8.99635C3.46182 8.99635 3.13328 9.32489 3.13328 9.72969V13.3964C3.13328 13.8012 3.46182 14.1297 3.86662 14.1297H7.53328C7.93808 14.1297 8.26662 13.8012 8.26662 13.3964V9.72969C8.26662 9.32489 7.93808 8.99635 7.53328 8.99635H3.86662ZM10.4666 8.99635C10.0618 8.99635 9.73328 9.32489 9.73328 9.72969V13.3964C9.73328 13.8012 10.0618 14.1297 10.4666 14.1297H14.1333C14.5381 14.1297 14.8666 13.8012 14.8666 13.3964V9.72969C14.8666 9.32489 14.5381 8.99635 14.1333 8.99635H10.4666Z" fill="black"/>
</svg>
