<svg width="20" height="20" viewBox="0 0 32 32" fill="none" xmlns="http://www.w3.org/2000/svg">
<path d="M12.7999 3.20312C11.634 3.20312 10.6666 4.17052 10.6666 5.33646V8.53646H12.7999V5.33646H18.1333V8.53646H21.3333V5.33646H23.4666V8.53646H25.5999V5.33646C25.5999 4.17052 24.6325 3.20312 23.4666 3.20312H12.7999ZM7.4666 6.40312C5.71197 6.40312 4.2666 7.84849 4.2666 9.60312V24.5365C4.2666 26.3039 5.69914 27.7365 7.4666 27.7365H25.5999C26.7786 27.7365 27.7333 26.7818 27.7333 25.6031V12.8031C27.7333 11.6245 26.7786 10.6698 25.5999 10.6698H17.0666H7.4666C6.8639 10.6698 6.39994 10.2058 6.39994 9.60312C6.39994 9.00043 6.8639 8.53646 7.4666 8.53646H8.53327V6.40312H7.4666ZM23.4666 17.0698C24.6453 17.0698 25.5999 18.0245 25.5999 19.2031C25.5999 20.3818 24.6453 21.3365 23.4666 21.3365C22.2879 21.3365 21.3333 20.3818 21.3333 19.2031C21.3333 18.0245 22.2879 17.0698 23.4666 17.0698Z" fill="black"/>
</svg>
