<svg width="19" height="19" viewBox="0 0 30 30" fill="none" xmlns="http://www.w3.org/2000/svg">
<g clip-path="url(#clip0_17377_26298)">
<path d="M11.9249 2.64062C9.71709 2.68047 8.10459 3.33906 7.1249 4.62812C5.96475 6.15625 5.75381 8.48359 6.4874 11.5281C6.21787 11.8586 6.01397 12.3602 6.09365 13.0281C6.25303 14.35 6.76631 14.8937 7.1999 15.1094C7.40615 16.1477 7.98037 17.3148 8.53115 17.8656V18.1469C8.53584 18.7562 8.5335 19.2836 8.4749 19.9656C8.10693 20.8094 6.8835 21.3039 5.4749 21.8594C3.13115 22.7805 0.217871 23.9195 -9.76548e-05 27.5594L-0.0375977 28.1969H24.0374L23.9999 27.5594C23.9366 26.4977 23.6343 25.6469 23.1937 24.9531H30.0374L29.9999 24.3156C29.9226 23.0383 29.4233 22.0445 28.7249 21.3344C28.0265 20.6242 27.1522 20.1812 26.3062 19.8156C25.4601 19.45 24.6304 19.1758 23.9999 18.8594C23.3905 18.5547 23.046 18.2477 22.8937 17.8844C22.8444 17.2539 22.8327 16.7406 22.8374 16.1406C22.896 16.075 22.9897 16.0281 23.0437 15.9531C23.1866 15.7562 23.3296 15.5172 23.4562 15.2594C23.6694 14.8211 23.8147 14.3031 23.9062 13.7781C24.0632 13.6914 24.2296 13.6773 24.3562 13.5156C24.614 13.1875 24.7851 12.7422 24.8624 12.1094V12.0906C24.928 11.5422 24.7499 11.1742 24.5249 10.8719C24.7733 10.0586 25.078 8.77656 24.9749 7.44062C24.9163 6.70469 24.7312 5.96172 24.2812 5.34062C23.8546 4.75 23.1562 4.31641 22.2749 4.15937C21.703 3.52422 20.8007 3.24062 19.7437 3.24062C18.2999 3.26641 17.1749 3.61797 16.3499 4.25312C15.9726 4.00937 15.5296 3.82656 15.0374 3.72812C14.4702 3.01328 13.3827 2.64062 11.9249 2.64062ZM19.7437 4.44062C19.7507 4.44062 19.7554 4.44062 19.7624 4.44062C20.7608 4.44531 21.3843 4.74062 21.5437 5.02187L21.6937 5.26562L21.9749 5.32187C22.6569 5.41562 23.0366 5.66172 23.3062 6.03437C23.5757 6.40703 23.728 6.93906 23.7749 7.53437C23.8687 8.725 23.5218 10.143 23.3062 10.7969L23.1562 11.2469L23.5687 11.4906C23.5147 11.4578 23.728 11.5727 23.6812 11.9594C23.6226 12.4445 23.496 12.6859 23.4187 12.7844C23.3413 12.8828 23.3226 12.8617 23.3437 12.8594L22.8374 12.8969L22.7999 13.3844C22.7554 13.8062 22.5679 14.3242 22.3687 14.7344C22.2679 14.9383 22.1765 15.1187 22.0874 15.2406C22.0335 15.3133 21.996 15.3672 21.9749 15.3906H21.9562C21.9538 15.393 21.9562 15.4094 21.9562 15.4094L21.6374 15.5594V15.9156C21.6374 16.6445 21.6163 17.2562 21.6937 18.1094V18.1844L21.7312 18.2594C22.0335 19.068 22.7319 19.5555 23.4749 19.9281C24.2179 20.3008 25.0499 20.582 25.8374 20.9219C26.6249 21.2617 27.3397 21.6484 27.8624 22.1781C28.2562 22.5789 28.5022 23.1109 28.6499 23.7531H22.1437C21.0843 22.8555 19.7413 22.3328 18.5437 21.8594C17.1397 21.3039 15.9116 20.8094 15.5437 19.9656C15.4851 19.2859 15.5015 18.7539 15.5062 18.1469V17.8656C16.0429 17.3172 16.596 16.1477 16.7999 15.1094C17.2335 14.8937 17.7468 14.35 17.9062 13.0281C17.9858 12.3742 17.7937 11.8773 17.5312 11.5469C17.8804 10.3586 18.5929 7.26484 17.3624 5.28437C17.3179 5.21406 17.2616 5.16484 17.2124 5.09687C17.7796 4.7125 18.5858 4.46406 19.7437 4.44062Z" fill="black"/>
</g>
<defs>
<clipPath id="clip0_17377_26298">
<rect width="30" height="30" fill="white"/>
</clipPath>
</defs>
</svg>
