<svg width="20" height="20" viewBox="0 0 34 34" fill="none" xmlns="http://www.w3.org/2000/svg">
<g id="icons8-files 1">
<path id="Vector" d="M24.48 2.71875H9.51997C5.77317 2.71875 2.71997 5.77195 2.71997 9.51875V24.4788C2.71997 28.2255 5.77317 31.2787 9.51997 31.2787H24.48C28.2268 31.2787 31.28 28.2255 31.28 24.4788V9.51875C31.28 5.77195 28.2268 2.71875 24.48 2.71875ZM27.88 23.1187C27.88 24.6209 26.6621 25.8388 25.16 25.8388H8.83997C7.33785 25.8388 6.11997 24.6209 6.11997 23.1187V15.6388C6.11997 15.2634 6.42461 14.9587 6.79997 14.9587H27.2C27.5753 14.9587 27.88 15.2634 27.88 15.6388V23.1187ZM27.88 13.5988H26.52C26.52 13.5988 26.5193 13.4437 26.4452 13.2927C26.0576 12.5175 25.1464 12.2388 24.48 12.2388H9.51997C8.85357 12.2388 7.94237 12.5175 7.55477 13.2927C7.48337 13.4355 7.47997 13.5988 7.47997 13.5988H6.11997V10.8787C6.11997 9.37595 7.33717 8.15875 8.83997 8.15875H11.56C12.5188 8.15875 13.0288 8.66875 13.4028 9.03595C13.736 9.36915 13.8992 9.51875 14.28 9.51875H25.16C26.6628 9.51875 27.88 10.736 27.88 12.2388V13.5988Z" fill="black"/>
</g>
</svg>
