<svg width="21" height="21" viewBox="0 0 36 36" fill="none" xmlns="http://www.w3.org/2000/svg">
<g id="icons8-cheque 1">
<path id="Vector" d="M30 7.5H6C5.20435 7.5 4.44129 7.81607 3.87868 8.37868C3.31607 8.94129 3 9.70435 3 10.5V25.5C3 26.2956 3.31607 27.0587 3.87868 27.6213C4.44129 28.1839 5.20435 28.5 6 28.5H30C30.7956 28.5 31.5587 28.1839 32.1213 27.6213C32.6839 27.0587 33 26.2956 33 25.5V10.5C33 9.70435 32.6839 8.94129 32.1213 8.37868C31.5587 7.81607 30.7956 7.5 30 7.5ZM9 12.375H12C12.2984 12.375 12.5845 12.4935 12.7955 12.7045C13.0065 12.9155 13.125 13.2016 13.125 13.5C13.125 13.7984 13.0065 14.0845 12.7955 14.2955C12.5845 14.5065 12.2984 14.625 12 14.625H9C8.70163 14.625 8.41548 14.5065 8.2045 14.2955C7.99353 14.0845 7.875 13.7984 7.875 13.5C7.875 13.2016 7.99353 12.9155 8.2045 12.7045C8.41548 12.4935 8.70163 12.375 9 12.375ZM21 23.625H9C8.70163 23.625 8.41548 23.5065 8.2045 23.2955C7.99353 23.0845 7.875 22.7984 7.875 22.5C7.875 22.2016 7.99353 21.9155 8.2045 21.7045C8.41548 21.4935 8.70163 21.375 9 21.375H21C21.2984 21.375 21.5845 21.4935 21.7955 21.7045C22.0065 21.9155 22.125 22.2016 22.125 22.5C22.125 22.7984 22.0065 23.0845 21.7955 23.2955C21.5845 23.5065 21.2984 23.625 21 23.625ZM27 19.125H9C8.70163 19.125 8.41548 19.0065 8.2045 18.7955C7.99353 18.5845 7.875 18.2984 7.875 18C7.875 17.7016 7.99353 17.4155 8.2045 17.2045C8.41548 16.9935 8.70163 16.875 9 16.875H27C27.2984 16.875 27.5845 16.9935 27.7955 17.2045C28.0065 17.4155 28.125 17.7016 28.125 18C28.125 18.2984 28.0065 18.5845 27.7955 18.7955C27.5845 19.0065 27.2984 19.125 27 19.125Z" fill="black"/>
</g>
</svg>
