<svg width="20" height="20" viewBox="0 0 32 32" fill="none" xmlns="http://www.w3.org/2000/svg">
<path d="M0.639893 3.84375V10.2437H1.91989V28.1637H3.19989V10.2437H28.7999V28.1637H30.0799V10.2437H31.3599V3.84375H0.639893ZM5.11989 6.40375H6.39989V7.68375H5.11989V6.40375ZM8.95989 6.40375H10.2399V7.68375H8.95989V6.40375ZM12.7999 6.40375H19.1999V7.68375H12.7999V6.40375ZM21.7599 6.40375H23.0399V7.68375H21.7599V6.40375ZM25.5999 6.40375H26.8799V7.68375H25.5999V6.40375ZM12.4724 13.4437C11.1599 13.4437 9.99489 14.2312 9.50489 15.4462L8.44989 18.0637L7.98739 18.5237C7.38489 19.1187 7.03989 19.9487 7.03989 20.7962V26.8837C7.03989 27.5887 7.61489 28.1637 8.31989 28.1637H8.95989C9.66489 28.1637 10.2399 27.5887 10.2399 26.8837V26.5637C11.8574 26.7762 13.7899 26.8837 15.9999 26.8837C18.2099 26.8837 20.1424 26.7762 21.7599 26.5637V26.8837C21.7599 27.5887 22.3349 28.1637 23.0399 28.1637H23.6799C24.3849 28.1637 24.9599 27.5887 24.9599 26.8837V20.7962C24.9599 19.9487 24.6149 19.1187 24.0124 18.5237L23.5499 18.0637L22.4949 15.4462C22.0024 14.2312 20.8399 13.4437 19.5274 13.4437H12.4724ZM10.5599 21.1237C11.0899 21.1237 11.5199 21.5537 11.5199 22.0837C11.5199 22.6138 11.0899 23.0437 10.5599 23.0437C10.0299 23.0437 9.59989 22.6138 9.59989 22.0837C9.59989 21.5537 10.0299 21.1237 10.5599 21.1237ZM21.4399 21.1237C21.9699 21.1237 22.3999 21.5537 22.3999 22.0837C22.3999 22.6138 21.9699 23.0437 21.4399 23.0437C20.9099 23.0437 20.4799 22.6138 20.4799 22.0837C20.4799 21.5537 20.9099 21.1237 21.4399 21.1237ZM13.4399 21.7638H18.5599V23.0437H13.4399V21.7638Z" fill="black"/>
</svg>
