<svg width="20" height="22" viewBox="0 0 34 35" fill="none" xmlns="http://www.w3.org/2000/svg">
<g clip-path="url(#clip0_17335_14785)">
<path d="M27.1319 9.00649L19.994 1.86863C19.7876 1.66218 19.5086 1.54688 19.2176 1.54688H7.68723C6.4738 1.54688 5.49097 2.5297 5.49097 3.74314V27.9021C5.49097 29.1155 6.4738 30.0983 7.68723 30.0983H25.2573C26.4708 30.0983 27.4536 29.1155 27.4536 27.9021V9.78287C27.4536 9.49186 27.3383 9.21294 27.1319 9.00649ZM19.7667 22.4114H10.9816C10.3755 22.4114 9.8835 21.9194 9.8835 21.3133C9.8835 20.7071 10.3755 20.2151 10.9816 20.2151H19.7667C20.3729 20.2151 20.8648 20.7071 20.8648 21.3133C20.8648 21.9194 20.3729 22.4114 19.7667 22.4114ZM21.9629 18.0189H10.9816C10.3755 18.0189 9.8835 17.5269 9.8835 16.9207C9.8835 16.3146 10.3755 15.8226 10.9816 15.8226H21.9629C22.5691 15.8226 23.0611 16.3146 23.0611 16.9207C23.0611 17.5269 22.5691 18.0189 21.9629 18.0189ZM19.7667 10.3319C19.1605 10.3319 18.6686 9.83997 18.6686 9.2338V3.63772L25.3628 10.3319H19.7667Z" fill="black"/>
</g>
<defs>
<clipPath id="clip0_17335_14785">
<rect width="34" height="34" fill="white" transform="translate(0 0.882812)"/>
</clipPath>
</defs>
</svg>
