<svg width="23" height="24" viewBox="0 0 23 24" fill="none" xmlns="http://www.w3.org/2000/svg">
<g clip-path="url(#clip0_17418_15771)">
<path d="M10.6725 3.14844C10.1297 3.14844 9.60964 3.35156 9.20164 3.70878L6.20383 6.32836L1.60905 7.47706C1.01193 7.6259 0.586426 8.16523 0.586426 8.77985V11.2173C0.586426 11.9545 1.19404 12.5621 1.93124 12.5621H2.42154C2.63166 13.5813 3.54222 14.3552 4.62087 14.3552C5.69952 14.3552 6.61007 13.5813 6.8202 12.5621H15.8697C16.0798 13.5813 16.9904 14.3552 18.069 14.3552C19.1477 14.3552 20.0582 13.5813 20.2683 12.5621H21.6552C22.3924 12.5621 23 11.9545 23 11.2173V8.27554C23 7.69769 22.6235 7.18288 22.0754 7.00077L20.1283 6.35638L18.055 3.93291C17.6295 3.43561 17.0009 3.14844 16.346 3.14844H10.6725ZM10.6725 4.04498H16.346C16.7382 4.04498 17.1129 4.22359 17.3686 4.52127L19.5259 7.02879C19.5784 7.08657 19.6467 7.13035 19.722 7.15486L21.7953 7.85529C21.9791 7.91658 22.1035 8.08117 22.1035 8.27554V11.2173C22.1035 11.4712 21.9091 11.6656 21.6552 11.6656H20.2683C20.0582 10.6465 19.1477 9.87251 18.069 9.87251C16.9904 9.87251 16.0798 10.6465 15.8697 11.6656H6.8202C6.61007 10.6465 5.69952 9.87251 4.62087 9.87251C3.54222 9.87251 2.63166 10.6465 2.42154 11.6656H1.93124C1.67734 11.6656 1.48297 11.4712 1.48297 11.2173V8.77985C1.48297 8.57147 1.6178 8.39637 1.81917 8.34558L6.52602 7.16887C6.59431 7.15136 6.6556 7.11809 6.70813 7.07081L9.79 4.38118C10.0351 4.1658 10.3468 4.04498 10.6725 4.04498ZM4.62087 10.7691C5.33005 10.7691 5.89389 11.3101 5.95167 12.0018C5.95167 12.0071 5.95167 12.0106 5.95167 12.0158C5.93942 12.0753 5.93942 12.1384 5.95167 12.1979C5.95167 12.2032 5.95167 12.2067 5.95167 12.2119C5.89914 12.9106 5.33355 13.4587 4.62087 13.4587C3.88717 13.4587 3.29882 12.8826 3.27605 12.1559C3.27956 12.1226 3.27956 12.0911 3.27605 12.0578C3.30582 11.3364 3.89243 10.7691 4.62087 10.7691ZM18.069 10.7691C18.8027 10.7691 19.3911 11.3452 19.4138 12.0718C19.4138 12.0858 19.4138 12.0999 19.4138 12.1139C19.4121 12.1331 19.4121 12.1506 19.4138 12.1699C19.3841 12.8913 18.7975 13.4587 18.069 13.4587C17.3353 13.4587 16.747 12.8826 16.7242 12.1559C16.7277 12.1226 16.7277 12.0911 16.7242 12.0578C16.754 11.3364 17.3406 10.7691 18.069 10.7691ZM10.4064 13.4447C10.3924 13.4482 10.3784 13.4534 10.3643 13.4587H9.10358C9.08958 13.4587 9.07557 13.4587 9.06156 13.4587C8.81466 13.4709 8.62204 13.6811 8.6343 13.928C8.64656 14.1749 8.85668 14.3675 9.10358 14.3552H10.0001V20.1828H2.82778C2.81377 20.1828 2.79977 20.1828 2.78576 20.1828C2.53886 20.195 2.34624 20.4051 2.3585 20.652C2.37076 20.8989 2.58088 21.0916 2.82778 21.0793H20.7586C20.9197 21.081 21.0703 20.997 21.1526 20.8569C21.2332 20.7168 21.2332 20.5452 21.1526 20.4051C21.0703 20.2651 20.9197 20.181 20.7586 20.1828H13.5863V14.3552H14.4828C14.6439 14.357 14.7945 14.2729 14.8768 14.1328C14.9574 13.9928 14.9574 13.8212 14.8768 13.6811C14.7945 13.541 14.6439 13.4569 14.4828 13.4587H13.2221C13.1818 13.4482 13.138 13.4429 13.096 13.4447C13.0767 13.4482 13.0575 13.4534 13.04 13.4587H10.5465C10.5009 13.4464 10.4537 13.4412 10.4064 13.4447ZM10.8967 14.3552H12.6898V20.1828H10.8967V14.3552Z" fill="#FF4F4F"/>
</g>
<defs>
<clipPath id="clip0_17418_15771">
<rect width="22.4136" height="22.4136" fill="white" transform="translate(0.586426 0.90625)"/>
</clipPath>
</defs>
</svg>
