<svg width="23" height="24" viewBox="0 0 23 24" fill="none" xmlns="http://www.w3.org/2000/svg">
<g clip-path="url(#clip0_17337_16350)">
<path fill-rule="evenodd" clip-rule="evenodd" d="M11.7933 2.07031C9.34345 2.07031 7.35742 4.05635 7.35742 6.50624C7.35742 8.95613 9.34345 10.9422 11.7933 10.9422C14.2433 10.9422 16.2293 8.95613 16.2293 6.50624C16.2293 4.05635 14.2433 2.07031 11.7933 2.07031ZM8.75824 6.50624C8.75824 4.82999 10.1171 3.47113 11.7933 3.47113C13.4696 3.47113 14.8285 4.82999 14.8285 6.50624C14.8285 8.18248 13.4696 9.54134 11.7933 9.54134C10.1171 9.54134 8.75824 8.18248 8.75824 6.50624Z" fill="#FF4F4F"/>
<path fill-rule="evenodd" clip-rule="evenodd" d="M11.7937 12.3438C9.88922 12.3438 8.13059 12.7834 6.82375 13.5301C5.53672 14.2656 4.55615 15.3883 4.55615 16.7797C4.55615 18.1711 5.53672 19.2938 6.82375 20.0292C8.13059 20.7759 9.88922 21.2156 11.7937 21.2156C13.6982 21.2156 15.4568 20.7759 16.7637 20.0292C18.0507 19.2938 19.0313 18.1711 19.0313 16.7797C19.0313 15.3883 18.0507 14.2656 16.7637 13.5301C15.4568 12.7834 13.6982 12.3438 11.7937 12.3438ZM5.95697 16.7797C5.95697 16.1079 6.43979 15.363 7.51875 14.7464C8.57789 14.1412 10.0878 13.7446 11.7937 13.7446C13.4996 13.7446 15.0095 14.1412 16.0686 14.7464C17.1476 15.363 17.6305 16.1079 17.6305 16.7797C17.6305 17.4514 17.1476 18.1964 16.0686 18.8129C15.0095 19.4182 13.4996 19.8148 11.7937 19.8148C10.0878 19.8148 8.57789 19.4182 7.51875 18.8129C6.43979 18.1964 5.95697 17.4514 5.95697 16.7797Z" fill="#FF4F4F"/>
<path d="M18.8249 4.96875C18.3928 4.96875 18.0426 5.31899 18.0426 5.75104C18.0426 6.18309 18.3928 6.53333 18.8249 6.53333H20.0654L17.2286 9.3701C16.9232 9.67561 16.9232 10.1709 17.2286 10.4764C17.5341 10.7819 18.0294 10.7819 18.3349 10.4764L21.1717 7.63966V8.88021C21.1717 9.31226 21.522 9.6625 21.954 9.6625C22.3861 9.6625 22.7363 9.31226 22.7363 8.88021V5.75104C22.7363 5.31899 22.3861 4.96875 21.954 4.96875H18.8249Z" fill="#FF4F4F"/>
</g>
<defs>
<clipPath id="clip0_17337_16350">
<rect width="22.4131" height="22.4131" fill="white" transform="translate(0.586426 0.90625)"/>
</clipPath>
</defs>
</svg>
