<svg width="41" height="41" viewBox="0 0 41 41" fill="none" xmlns="http://www.w3.org/2000/svg">
<path fill-rule="evenodd" clip-rule="evenodd" d="M20.7969 2.71094C16.4038 2.71094 12.8425 6.27224 12.8425 10.6653C12.8425 15.0584 16.4038 18.6197 20.7969 18.6197C25.1901 18.6197 28.7513 15.0584 28.7513 10.6653C28.7513 6.27224 25.1901 2.71094 20.7969 2.71094ZM15.3544 10.6653C15.3544 7.65952 17.7912 5.22285 20.7969 5.22285C23.8027 5.22285 26.2394 7.65952 26.2394 10.6653C26.2394 13.6711 23.8027 16.1078 20.7969 16.1078C17.7912 16.1078 15.3544 13.6711 15.3544 10.6653Z" fill="#FF4F4F"/>
<path d="M32.2772 28.3703C32.7749 28.8534 32.787 29.6486 32.3038 30.1462L29.2339 33.3094C28.9859 33.565 28.6411 33.7033 28.2853 33.6899C27.9293 33.6763 27.5958 33.5125 27.3679 33.2389L25.9721 31.5643C25.528 31.0314 25.5999 30.2395 26.1327 29.7954C26.6656 29.3513 27.4575 29.4231 27.9016 29.956L28.4037 30.5582L30.5013 28.3969C30.9842 27.8991 31.7795 27.8872 32.2772 28.3703Z" fill="#FF4F4F"/>
<path fill-rule="evenodd" clip-rule="evenodd" d="M23.9965 36.8043C22.9723 36.9594 21.8999 37.0416 20.7968 37.0416C17.3817 37.0416 14.2282 36.2532 11.8848 34.9142C9.57694 33.5954 7.8186 31.5822 7.8186 29.0872C7.8186 26.5922 9.57694 24.579 11.8848 23.2602C14.2282 21.9212 17.3817 21.1328 20.7968 21.1328C23.8187 21.1328 26.6286 21.7497 28.8545 22.8136C28.9592 22.8094 29.0644 22.8074 29.1699 22.8074C33.563 22.8074 37.1243 26.3686 37.1243 30.7618C37.1243 35.155 33.563 38.7162 29.1699 38.7162C27.1945 38.7162 25.3874 37.9961 23.9965 36.8043ZM23.7274 30.7618C23.7274 27.7561 26.1641 25.3193 29.1699 25.3193C32.1756 25.3193 34.6123 27.7561 34.6123 30.7618C34.6123 33.7676 32.1756 36.2043 29.1699 36.2043C26.1641 36.2043 23.7274 33.7676 23.7274 30.7618ZM24.8454 24.0846C22.6607 25.5024 21.2155 27.9634 21.2155 30.7618C21.2155 32.1064 21.5491 33.373 22.138 34.4835C21.6991 34.5139 21.2515 34.5297 20.7968 34.5297C17.7378 34.5297 15.0303 33.8185 13.1311 32.7332C11.1963 31.6276 10.3305 30.2917 10.3305 29.0872C10.3305 27.8827 11.1963 26.5468 13.1311 25.4412C15.0303 24.3559 17.7378 23.6447 20.7968 23.6447C22.2388 23.6447 23.6046 23.8028 24.8454 24.0846Z" fill="#FF4F4F"/>
</svg>
