<svg width="26" height="25" viewBox="0 0 26 25" fill="none" xmlns="http://www.w3.org/2000/svg">
<path d="M5.49248 4.88281C3.59514 4.88281 2.05811 6.41985 2.05811 8.31719V17.1484C2.05811 19.0458 3.59514 20.5828 5.49248 20.5828H20.2112C22.1086 20.5828 23.6456 19.0458 23.6456 17.1484V8.31719C23.6456 6.41985 22.1086 4.88281 20.2112 4.88281H5.49248ZM5.49248 5.86406H20.2112C21.5643 5.86406 22.6644 6.96414 22.6644 8.31719V17.1484C22.6644 18.5015 21.5643 19.6016 20.2112 19.6016H5.49248C4.13943 19.6016 3.03936 18.5015 3.03936 17.1484V8.31719C3.03936 6.96414 4.13943 5.86406 5.49248 5.86406ZM10.5521 8.80781L6.96436 13.8061V14.6953H10.4141V16.6578H11.3187V14.6953H12.3612V13.8827H11.3187V8.80781H10.5521ZM13.3425 8.80781V9.7124H17.2981C14.3927 12.7922 14.1685 15.964 14.1244 16.6578H15.213C15.2571 16.0081 15.4736 12.6274 18.2487 9.63574V8.80781H13.3425ZM10.4601 10.2797V13.8367H7.94561L10.4601 10.2797Z" fill="#FF4F4F"/>
</svg>
