<svg width="20" height="20" viewBox="0 0 26 26" fill="none" xmlns="http://www.w3.org/2000/svg">
<path d="M22.7119 10.8865L20.9283 5.79055C20.4421 4.40215 19.1265 3.46875 17.6549 3.46875H8.3452C6.8736 3.46875 5.558 4.40215 5.07267 5.78968L3.28907 10.8857C2.3366 11.5123 1.7334 12.5948 1.7334 13.7856V19.9354C1.7334 20.8931 2.50907 21.6688 3.46673 21.6688C4.4244 21.6688 5.20007 20.8931 5.20007 19.9354V18.8426C5.20007 18.8426 9.77693 19.0688 13.0001 19.0688C16.2232 19.0688 20.8001 18.8426 20.8001 18.8426V19.9354C20.8001 20.8931 21.5757 21.6688 22.5334 21.6688C23.4911 21.6688 24.2667 20.8931 24.2667 19.9354V13.7856C24.2667 12.5948 23.6627 11.5123 22.7119 10.8865ZM5.71573 9.20002L6.70893 6.36255C6.95247 5.66748 7.60853 5.20208 8.3452 5.20208H17.6549C18.3916 5.20208 19.0477 5.66748 19.2912 6.36255L20.2844 9.20002C20.4404 9.64635 20.0686 10.0962 19.6015 10.0208C17.9019 9.74602 15.7171 9.53542 13.0001 9.53542C10.2831 9.53542 8.0982 9.74602 6.39866 10.0208C5.93153 10.0962 5.55973 9.64635 5.71573 9.20002ZM5.6334 15.6021C4.9158 15.6021 4.3334 15.0197 4.3334 14.3021C4.3334 13.5845 4.9158 13.0021 5.6334 13.0021C6.351 13.0021 6.9334 13.5845 6.9334 14.3021C6.9334 15.0197 6.351 15.6021 5.6334 15.6021ZM15.6001 14.7354H10.4001C9.92167 14.7354 9.5334 14.3471 9.5334 13.8687C9.5334 13.3904 9.92167 13.0021 10.4001 13.0021H15.6001C16.0785 13.0021 16.4667 13.3904 16.4667 13.8687C16.4667 14.3471 16.0785 14.7354 15.6001 14.7354ZM20.3667 15.6021C19.6491 15.6021 19.0667 15.0197 19.0667 14.3021C19.0667 13.5845 19.6491 13.0021 20.3667 13.0021C21.0843 13.0021 21.6667 13.5845 21.6667 14.3021C21.6667 15.0197 21.0843 15.6021 20.3667 15.6021Z" fill="black"/>
</svg>
