<svg width="25" height="25" viewBox="0 0 25 25" fill="none" xmlns="http://www.w3.org/2000/svg">
<path d="M18.5813 14.7386V17.4547C18.5813 18.086 18.5813 18.4016 18.4643 18.6427C18.3614 18.8548 18.1973 19.0273 17.9953 19.1353C17.7658 19.2582 17.4653 19.2582 16.8643 19.2582H4.7383C4.13731 19.2582 3.83681 19.2582 3.60726 19.1353C3.40535 19.0273 3.24118 18.8548 3.1383 18.6427C3.02134 18.4016 3.02134 18.086 3.02134 17.4547V14.7386M14.2889 6.2956V4.71755C14.2889 4.08627 14.2889 3.77063 14.1719 3.52951C14.069 3.31742 13.9049 3.14498 13.703 3.03692C13.4734 2.91406 13.1729 2.91406 12.5719 2.91406H9.03069C8.4297 2.91406 8.1292 2.91406 7.89966 3.03692C7.69774 3.14498 7.53358 3.31742 7.43069 3.52951C7.31373 3.77063 7.31373 4.08627 7.31373 4.71755V6.2956M13.2158 13.0587V15.8766M8.38683 13.0587V15.8766M3.6652 14.7495H17.9374C18.5384 14.7495 18.8389 14.7495 19.0684 14.6266C19.2704 14.5185 19.4345 14.3461 19.5374 14.134C19.6544 13.8929 19.6544 13.5772 19.6544 12.946V8.09909C19.6544 7.46781 19.6544 7.15217 19.5374 6.91105C19.4345 6.69896 19.2704 6.52653 19.0684 6.41846C18.8389 6.2956 18.5384 6.2956 17.9374 6.2956H3.6652C3.06421 6.2956 2.76371 6.2956 2.53416 6.41846C2.33225 6.52653 2.16808 6.69896 2.0652 6.91105C1.94824 7.15217 1.94824 7.46781 1.94824 8.09909V12.946C1.94824 13.5772 1.94824 13.8929 2.0652 14.134C2.16808 14.3461 2.33225 14.5185 2.53416 14.6266C2.76371 14.7495 3.06421 14.7495 3.6652 14.7495Z" stroke="#FF4F4F" stroke-width="1.6445" stroke-linecap="round" stroke-linejoin="round"/>
</svg>
