<svg width="18" height="18" viewBox="0 0 18 18" fill="none" xmlns="http://www.w3.org/2000/svg">
<path d="M6.76217 0.203125C5.9606 0.203125 5.29551 0.868212 5.29551 1.66979V3.86979H6.76217V1.66979H10.4288V3.86979H12.6288V1.66979H14.0955V3.86979H15.5622V1.66979C15.5622 0.868212 14.8971 0.203125 14.0955 0.203125H6.76217ZM3.09551 2.40313C1.8892 2.40313 0.895508 3.39681 0.895508 4.60313V14.8698C0.895508 16.0849 1.88037 17.0698 3.09551 17.0698H15.5622C16.3725 17.0698 17.0288 16.4135 17.0288 15.6031V6.80313C17.0288 5.99279 16.3725 5.33646 15.5622 5.33646H9.69551H3.09551C2.68115 5.33646 2.36217 5.01748 2.36217 4.60313C2.36217 4.18877 2.68115 3.86979 3.09551 3.86979H3.82884V2.40313H3.09551ZM14.0955 9.73646C14.9058 9.73646 15.5622 10.3928 15.5622 11.2031C15.5622 12.0135 14.9058 12.6698 14.0955 12.6698C13.2852 12.6698 12.6288 12.0135 12.6288 11.2031C12.6288 10.3928 13.2852 9.73646 14.0955 9.73646Z" fill="black"/>
</svg>
