<svg width="26" height="26" viewBox="0 0 26 26" fill="none" xmlns="http://www.w3.org/2000/svg">
<path d="M4.82205 3.79688C3.36704 3.79688 2.1748 4.98911 2.1748 6.44412V19.1509C2.1748 20.6059 3.36704 21.7982 4.82205 21.7982H21.7644C23.2194 21.7982 24.4117 20.6059 24.4117 19.1509V6.44412C24.4117 4.98911 23.2194 3.79688 21.7644 3.79688H4.82205ZM4.82205 4.85577H21.7644C22.6454 4.85577 23.3528 5.5632 23.3528 6.44412V19.1509C23.3528 20.0318 22.6454 20.7393 21.7644 20.7393H4.82205C3.94113 20.7393 3.2337 20.0318 3.2337 19.1509V6.44412C3.2337 5.5632 3.94113 4.85577 4.82205 4.85577ZM13.2932 7.50302C11.2597 7.50302 9.59951 9.1632 9.59951 11.1968C9.59951 11.7871 9.74309 12.3441 9.99142 12.8399L8.25727 16.3641C8.21705 16.4458 8.19859 16.5365 8.20368 16.6274C8.20876 16.7184 8.23721 16.8064 8.28628 16.8832C8.33535 16.9599 8.40338 17.0227 8.4838 17.0654C8.56422 17.1082 8.65431 17.1295 8.74536 17.1272L10.2396 17.09L11.0731 18.2657C11.1257 18.3401 11.1967 18.3996 11.279 18.4386C11.3614 18.4775 11.4525 18.4945 11.5433 18.488C11.6342 18.4814 11.7219 18.4515 11.7978 18.4012C11.8738 18.3508 11.9354 18.2817 11.9769 18.2006L12.6521 16.8739C12.686 16.8117 12.7071 16.7434 12.7142 16.673C12.7212 16.6026 12.7141 16.5315 12.6931 16.4638C12.6722 16.3962 12.638 16.3335 12.5924 16.2793C12.5468 16.2252 12.4909 16.1807 12.4278 16.1486C12.3647 16.1164 12.2959 16.0972 12.2253 16.0921C12.1547 16.0871 12.0838 16.0962 12.0168 16.119C11.9498 16.1418 11.888 16.1778 11.8352 16.2248C11.7823 16.2719 11.7394 16.3291 11.709 16.393L11.4298 16.94L10.9407 16.2482C10.8906 16.1774 10.8238 16.12 10.7463 16.0811C10.6687 16.0421 10.5828 16.0228 10.4961 16.0249L9.5933 16.0466L10.6915 13.813C11.2753 14.3934 12.0509 14.7808 12.9127 14.8698L14.6096 18.2006C14.6511 18.2817 14.7127 18.3508 14.7887 18.4012C14.8646 18.4515 14.9523 18.4814 15.0432 18.488C15.134 18.4945 15.2251 18.4775 15.3075 18.4386C15.3898 18.3996 15.4608 18.3401 15.5134 18.2657L16.3469 17.09L17.8411 17.1272C17.9322 17.1295 18.0223 17.1082 18.1027 17.0654C18.1831 17.0227 18.2511 16.9599 18.3002 16.8832C18.3493 16.8064 18.3777 16.7184 18.3828 16.6274C18.3879 16.5365 18.3694 16.4458 18.3292 16.3641L16.5951 12.8399C16.8434 12.3441 16.987 11.7871 16.987 11.1968C16.987 9.1632 15.3268 7.50302 13.2932 7.50302ZM13.2932 8.56192C14.7545 8.56192 15.9281 9.73547 15.9281 11.1968C15.9281 12.658 14.7545 13.8306 13.2932 13.8306C11.832 13.8306 10.6584 12.658 10.6584 11.1968C10.6584 9.73547 11.832 8.56192 13.2932 8.56192ZM15.895 13.813L16.9932 16.0466L16.0904 16.0249C16.0037 16.0228 15.9178 16.0421 15.8402 16.0811C15.7627 16.12 15.6959 16.1774 15.6458 16.2482L15.1556 16.94L14.0678 14.8057C14.7712 14.6544 15.4017 14.3034 15.895 13.813Z" fill="#FF4F4F"/>
</svg>
