<svg xmlns="http://www.w3.org/2000/svg" width="62" height="62" viewBox="0 0 62 62" fill="none">
  <path fill-rule="evenodd" clip-rule="evenodd" d="M18.3385 3.22667C18.4627 3.22672 18.5886 3.22677 18.7165 3.22677H43.284C43.4116 3.22677 43.5377 3.22672 43.662 3.22667C46.2884 3.22553 48.096 3.22473 49.6186 3.75447C52.4936 4.75489 54.7259 7.06865 55.683 9.9835C56.1893 11.5261 56.1888 13.3598 56.1878 16.0827C56.1878 16.2045 56.1878 16.3281 56.1878 16.4536V52.631C56.1878 56.4161 51.7263 58.6695 48.7881 55.9808C48.5827 55.793 48.2928 55.793 48.0875 55.9808L46.8395 57.1229C44.4416 59.3169 40.8087 59.3169 38.4111 57.1229C37.494 56.2836 36.1315 56.2836 35.2145 57.1229C32.8166 59.3169 29.1837 59.3169 26.7861 57.1229C25.869 56.2836 24.5065 56.2836 23.5894 57.1229C21.1916 59.3169 17.5588 59.3169 15.1609 57.1229L13.913 55.9808C13.7076 55.793 13.4177 55.793 13.2124 55.9808C10.2741 58.6695 5.81269 56.4161 5.81269 52.631V16.4536C5.81269 16.3281 5.81264 16.2045 5.81258 16.0827C5.8116 13.3598 5.81093 11.5261 6.31742 9.9835C7.27444 7.06865 9.50673 4.75489 12.3819 3.75447C13.9043 3.22473 15.7119 3.22553 18.3385 3.22667ZM18.7165 7.10177C15.562 7.10177 14.4755 7.12887 13.6553 7.41422C11.9519 8.00694 10.5896 9.3937 9.99906 11.1923C9.71207 12.0663 9.68769 13.2188 9.68769 16.4536V52.631C9.68769 52.9384 9.84248 53.1265 10.0367 53.2164C10.1379 53.2631 10.2368 53.2753 10.3193 53.2642C10.392 53.2544 10.486 53.2231 10.5965 53.1221C12.2825 51.5791 14.8428 51.5791 16.5289 53.1221L17.7769 54.2642C18.694 55.1033 20.0564 55.1033 20.9734 54.2642C23.3713 52.0699 27.0041 52.0699 29.402 54.2642C30.319 55.1033 31.6815 55.1033 32.5986 54.2642C34.9962 52.0699 38.6291 52.0699 41.027 54.2642C41.944 55.1033 43.3065 55.1033 44.2236 54.2642L45.4716 53.1221C47.1575 51.5791 49.7178 51.5791 51.4039 53.1221C51.5143 53.2231 51.6083 53.2544 51.6811 53.2642C51.7635 53.2753 51.8625 53.2631 51.9638 53.2164C52.1578 53.1265 52.3128 52.9387 52.3128 52.631V16.4536C52.3128 13.2188 52.2882 12.0663 52.0012 11.1923C51.4107 9.3937 50.0485 8.00694 48.345 7.41422C47.5248 7.12887 46.4383 7.10177 43.284 7.10177H18.7165ZM38.749 19.219C39.5472 19.9317 39.6165 21.1565 38.9037 21.9547L29.6776 32.288C29.31 32.6998 28.7843 32.9352 28.2322 32.9352C27.6804 32.9352 27.1547 32.6998 26.7871 32.288L23.0966 28.1547C22.3839 27.3564 22.4533 26.1317 23.2515 25.419C24.0496 24.7064 25.2744 24.7757 25.987 25.5739L28.2322 28.0886L36.0132 19.3739C36.726 18.5757 37.9507 18.5064 38.749 19.219ZM17.4377 40.0393C17.4377 38.9693 18.3051 38.1018 19.3752 38.1018H42.6253C43.6953 38.1018 44.5628 38.9693 44.5628 40.0393C44.5628 41.1093 43.6953 41.9768 42.6253 41.9768H19.3752C18.3051 41.9768 17.4377 41.1093 17.4377 40.0393Z" fill="#FF4F4F"/>
</svg>