<svg xmlns="http://www.w3.org/2000/svg" width="24" height="24" viewBox="0 0 24 24" fill="none">
  <path d="M5.59999 1.60938C4.71999 1.60938 3.99999 2.32937 3.99999 3.20938V7.65C4.01599 7.65 4.02462 7.64081 4.04062 7.63281C4.19262 6.92881 4.81537 6.40938 5.55937 6.40938H5.64062C6.38462 6.40938 7.00737 6.92881 7.15937 7.63281C8.13537 8.17681 8.79999 9.20937 8.79999 10.4094V19.2094V20.8813C8.79999 21.3533 8.65599 21.8172 8.39999 22.2172L8.26406 22.4094H18.4C19.28 22.4094 20 21.6894 20 20.8094V7.60938C20 7.39337 19.9207 7.19419 19.7687 7.04219L14.5687 1.84219C14.4167 1.69019 14.216 1.60938 14 1.60938H5.59999ZM13.6 3.12969L18.4797 8.00938H14.4C13.96 8.00938 13.6 7.64937 13.6 7.20937V3.12969ZM5.59999 8.00938C5.27199 8.00938 4.98406 8.20888 4.86406 8.49688V8.50625C4.82406 8.60225 4.79999 8.70538 4.79999 8.80938C4.79999 8.83337 4.79981 8.85725 4.80781 8.88125C4.46381 8.99325 4.19187 9.26538 4.07187 9.60938H3.99999C3.19999 9.60938 2.88837 9.77725 2.58437 10.0813C2.52037 10.1453 2.46362 10.2171 2.41562 10.2891C2.21562 10.5611 2.09531 10.8902 2.09531 11.2422V11.4328C2.09531 11.8568 2.19187 12.3701 2.27187 12.9141C2.31987 13.2341 2.36799 13.5536 2.39999 13.8656C2.42399 14.0896 2.44062 14.3142 2.44062 14.5063C2.43262 14.7703 2.64849 14.9938 2.91249 14.9938C3.17649 15.0017 3.39981 14.7939 3.40781 14.5219V14.5063C3.40781 13.9383 3.31124 13.3288 3.23124 12.7688C3.14324 12.2087 3.06406 11.6982 3.06406 11.4422V11.2422C3.06406 10.8582 3.36756 10.5534 3.75156 10.4094H3.99999V15.2094H7.19999V10.0094C7.19999 9.48138 6.86418 9.03325 6.39218 8.88125C6.40018 8.85725 6.39999 8.83337 6.39999 8.80938C6.39999 8.60938 6.32799 8.42525 6.19999 8.28125C6.05599 8.11325 5.83999 8.00938 5.59999 8.00938ZM3.99999 16.8094V20.8094C3.99999 21.1454 4.03199 21.137 4.19999 21.425L4.76874 22.4094L4.80781 22.4813C4.85581 22.5533 4.90474 22.6251 4.96874 22.6891C5.02474 22.7451 5.09674 22.7942 5.16874 22.8422V23.3687C5.16074 23.6327 5.37662 23.8578 5.64062 23.8578C5.90462 23.8658 6.12812 23.6579 6.12812 23.3859V23.3687V22.8422C6.20812 22.7942 6.27212 22.7451 6.32812 22.6891C6.40812 22.6091 6.47231 22.5212 6.52031 22.4172L6.52812 22.4094L7.09531 21.4328C7.15931 21.3128 7.19199 21.2499 7.19999 21.1859C7.21599 21.0899 7.19999 21.0094 7.19999 20.8094V16.8094H3.99999Z" fill="black"/>
</svg>