<svg width="30" height="30" viewBox="0 0 30 30" fill="none" xmlns="http://www.w3.org/2000/svg">
<g id="icons8-easy 1" clip-path="url(#clip0_21620_159728)">
<path id="Vector" d="M11.9843 -0.015503C11.7195 -0.0113626 11.4671 0.0976974 11.2825 0.287741C11.0979 0.477785 10.9963 0.733286 11 0.998169V1.99817C10.9981 2.13068 11.0226 2.26224 11.072 2.38521C11.1214 2.50818 11.1948 2.6201 11.2878 2.71447C11.3808 2.80884 11.4917 2.88378 11.614 2.93492C11.7362 2.98607 11.8674 3.01241 12 3.01241C12.1325 3.01241 12.2637 2.98607 12.386 2.93492C12.5082 2.88378 12.6191 2.80884 12.7121 2.71447C12.8052 2.6201 12.8785 2.50818 12.9279 2.38521C12.9774 2.26224 13.0018 2.13068 13 1.99817V0.998169C13.0018 0.864379 12.9768 0.731583 12.9263 0.607642C12.8759 0.483702 12.8012 0.371138 12.7065 0.276617C12.6118 0.182096 12.499 0.107539 12.375 0.0573621C12.251 0.00718481 12.1181 -0.0175926 11.9843 -0.015503ZM6.9902 1.9884C6.79126 1.98846 6.59687 2.04783 6.43186 2.15895C6.26685 2.27006 6.13872 2.42786 6.06387 2.61217C5.98901 2.79649 5.97082 2.99893 6.01162 3.19364C6.05243 3.38834 6.15037 3.56645 6.29293 3.7052L7.29293 4.7052C7.38508 4.80117 7.49545 4.87779 7.61758 4.93058C7.7397 4.98336 7.87114 5.01125 8.00418 5.0126C8.13722 5.01395 8.26919 4.98875 8.39237 4.93846C8.51554 4.88817 8.62745 4.81381 8.72153 4.71973C8.8156 4.62565 8.88996 4.51375 8.94025 4.39057C8.99054 4.26739 9.01575 4.13542 9.0144 4.00238C9.01304 3.86934 8.98516 3.73791 8.93237 3.61578C8.87959 3.49365 8.80297 3.38328 8.707 3.29114L7.707 2.29114C7.6138 2.19534 7.50236 2.1192 7.37925 2.0672C7.25613 2.0152 7.12384 1.98841 6.9902 1.9884ZM16.9804 1.9884C16.7206 1.99614 16.4741 2.10472 16.2929 2.29114L15.2929 3.29114C15.197 3.38328 15.1203 3.49365 15.0676 3.61578C15.0148 3.73791 14.9869 3.86934 14.9855 4.00238C14.9842 4.13542 15.0094 4.2674 15.0597 4.39057C15.11 4.51375 15.1843 4.62566 15.2784 4.71973C15.3725 4.81381 15.4844 4.88818 15.6076 4.93846C15.7307 4.98875 15.8627 5.01396 15.9957 5.01261C16.1288 5.01125 16.2602 4.98337 16.3824 4.93058C16.5045 4.8778 16.6149 4.80117 16.707 4.7052L17.707 3.7052C17.8515 3.56474 17.9502 3.3839 17.9902 3.18638C18.0301 2.98886 18.0095 2.78387 17.9309 2.59829C17.8524 2.4127 17.7196 2.25517 17.55 2.14634C17.3804 2.03751 17.1819 1.98246 16.9804 1.9884ZM23.2148 3.01965C22.7387 2.9834 22.2512 3.14784 21.8867 3.51184L11.0039 14.3947C11.0039 14.3947 9.2491 11.0921 8.3691 10.2111C6.8341 8.67706 4.48414 8.54525 3.70114 9.32825L3.28512 9.74231C2.91912 10.1083 2.91912 10.7005 3.28512 11.0665L5.3984 13.1798L6.55075 18.0236C6.86074 19.3246 7.52467 20.5151 8.47067 21.4611L12.7148 25.7032C14.4208 27.4092 17.1846 27.4092 18.8906 25.7032L20.1054 24.4884L25.4394 19.1544C26.0364 18.5574 26.1815 17.5933 25.6875 16.9083C25.0575 16.0343 23.8315 15.9625 23.1035 16.6915L23.6406 16.1544C24.2386 15.5564 24.3826 14.5953 23.8886 13.9103C23.2586 13.0363 22.0337 12.9635 21.3047 13.6915L21.8398 13.1564C22.4378 12.5584 22.5819 11.5953 22.0879 10.9103C21.4579 10.0363 20.2329 9.96548 19.5039 10.6935L24.2226 5.97473C24.8206 5.37673 24.9647 4.41559 24.4707 3.73059C24.1557 3.29359 23.6909 3.0559 23.2148 3.01965Z" fill="#888888"/>
</g>
<defs>
<clipPath id="clip0_21620_159728">
<rect width="30" height="30" fill="white"/>
</clipPath>
</defs>
</svg>
