<svg width="30" height="30" viewBox="0 0 30 30" fill="none" xmlns="http://www.w3.org/2000/svg">
<g id="icons8-fast 1">
<path id="Vector" d="M4 6C3.73479 6 3.48043 6.10536 3.2929 6.29289C3.10536 6.48043 3 6.73478 3 7V7.00391V15V22.9961V23C3 23.2652 3.10536 23.5196 3.2929 23.7071C3.48043 23.8946 3.73479 24 4 24C4.21304 23.9996 4.42037 23.9312 4.5918 23.8047H4.59375C4.60299 23.7977 4.61211 23.7905 4.6211 23.7832L15 16.2363V22.9961V23C15 23.2652 15.1054 23.5196 15.2929 23.7071C15.4804 23.8946 15.7348 24 16 24C16.213 23.9996 16.4204 23.9312 16.5918 23.8047H16.5938C16.603 23.7977 16.6121 23.7905 16.6211 23.7832L27.541 15.8418C27.6819 15.7512 27.7978 15.6266 27.878 15.4795C27.9582 15.3324 28.0001 15.1675 28 15C27.9999 14.8359 27.9594 14.6743 27.8821 14.5295C27.8047 14.3848 27.693 14.2613 27.5566 14.1699L16.5938 6.19531C16.4218 6.06844 16.2137 5.99999 16 6C15.7348 6 15.4804 6.10536 15.2929 6.29289C15.1054 6.48043 15 6.73478 15 7V7.00391V13.7656L4.59375 6.19531C4.42179 6.06844 4.2137 5.99999 4 6Z" fill="#888888"/>
</g>
</svg>
