<svg xmlns="http://www.w3.org/2000/svg" width="65" height="65" viewBox="0 0 65 65" fill="none">
  <path fill-rule="evenodd" clip-rule="evenodd" d="M32.4974 22.3594C26.8883 22.3594 22.3411 26.9065 22.3411 32.5156C22.3411 38.1249 26.8883 42.6719 32.4974 42.6719C38.1066 42.6719 42.6536 38.1249 42.6536 32.5156C42.6536 26.9065 38.1066 22.3594 32.4974 22.3594ZM26.4036 32.5156C26.4036 29.1502 29.132 26.4219 32.4974 26.4219C35.8627 26.4219 38.5911 29.1502 38.5911 32.5156C38.5911 35.881 35.8627 38.6094 32.4974 38.6094C29.132 38.6094 26.4036 35.881 26.4036 32.5156Z" fill="#FF4F4F"/>
  <path fill-rule="evenodd" clip-rule="evenodd" d="M32.4281 3.39844C31.2245 3.39841 30.2195 3.39841 29.3945 3.45469C28.5357 3.5133 27.7245 3.63962 26.9381 3.96537C25.1131 4.7213 23.6632 6.1712 22.9073 7.99616C22.5138 8.94624 22.4072 9.94751 22.3665 11.0358C22.3338 11.9107 21.8923 12.6407 21.2407 13.0168C20.5891 13.393 19.7362 13.4104 18.9622 13.0013C17.9993 12.4924 17.0789 12.084 16.0593 11.9498C14.1009 11.692 12.1203 12.2227 10.5531 13.4252C9.87779 13.9434 9.36277 14.5828 8.88264 15.2972C8.42138 15.9835 7.91896 16.8538 7.31709 17.8963L7.2487 18.0148C6.6468 19.0573 6.14435 19.9275 5.7806 20.6701C5.40195 21.4432 5.10573 22.2089 4.99461 23.0528C4.73678 25.0113 5.2675 26.9919 6.46998 28.5591C7.09593 29.3746 7.90965 29.9677 8.83167 30.547C9.57316 31.0129 9.98463 31.7604 9.98458 32.513C9.98455 33.2654 9.57308 34.0129 8.83167 34.4787C7.90954 35.058 7.09574 35.6512 6.46973 36.4669C5.26723 38.034 4.73653 40.0146 4.99434 41.973C5.10546 42.8169 5.40167 43.5828 5.78033 44.3557C6.14408 45.0984 6.64653 45.9686 7.24841 47.011L7.31682 47.1296C7.91869 48.1721 8.42111 49.0422 8.88237 49.7285C9.3625 50.443 9.87752 51.0824 10.5529 51.6005C12.12 52.803 14.1006 53.3339 16.059 53.076C17.0785 52.9417 17.9989 52.5336 18.9617 52.0247C19.7359 51.6154 20.5889 51.6328 21.2405 52.0092C21.8922 52.3854 22.3338 53.1153 22.3665 53.9904C22.4072 55.0786 22.5138 56.0798 22.9073 57.0299C23.6632 58.8548 25.1131 60.3049 26.9381 61.0607C27.7245 61.3866 28.5357 61.5128 29.3945 61.5713C30.2195 61.6276 31.2245 61.6276 32.4281 61.6276H32.5649C33.7687 61.6276 34.7735 61.6276 35.5987 61.5713C36.4576 61.5128 37.2687 61.3866 38.0552 61.0607C39.8801 60.3049 41.3301 58.8548 42.086 57.0299C42.4795 56.0798 42.586 55.0786 42.6266 53.9901C42.6594 53.1153 43.1008 52.3854 43.7525 52.009C44.4041 51.6328 45.2572 51.6154 46.0312 52.0244C46.9941 52.5333 47.9144 52.9417 48.934 53.0758C50.8924 53.3336 52.873 52.803 54.4401 51.6005C55.1155 51.0822 55.6304 50.443 56.1106 49.7285C56.5718 49.0422 57.0742 48.1721 57.676 47.1296L57.7445 47.011C58.3463 45.9686 58.849 45.0981 59.2127 44.3555C59.5913 43.5825 59.8874 42.8169 59.9987 41.973C60.2565 40.0143 59.7257 38.0337 58.5232 36.4666C57.8973 35.6509 57.0834 35.058 56.1615 34.4787C55.42 34.0129 55.0086 33.2654 55.0086 32.5127C55.0086 31.7604 55.42 31.0131 56.1612 30.5473C57.0837 29.968 57.8975 29.3751 58.5234 28.5591C59.7259 26.9921 60.2568 25.0115 59.9989 23.053C59.8876 22.2091 59.5916 21.4434 59.213 20.6703C58.8493 19.9277 58.3469 19.0576 57.7448 18.0152L57.6765 17.8966C57.0745 16.8541 56.5721 15.9837 56.1109 15.2974C55.6307 14.583 55.1158 13.9436 54.4404 13.4254C52.8733 12.2229 50.8927 11.6922 48.934 11.95C47.9146 12.0842 46.9943 12.4925 46.0315 13.0014C45.2575 13.4106 44.4044 13.3932 43.7527 13.0169C43.1011 12.6407 42.6594 11.9106 42.6266 11.0357C42.586 9.9474 42.4795 8.94619 42.086 7.99616C41.3301 6.1712 39.8801 4.7213 38.0552 3.96537C37.2687 3.63962 36.4576 3.5133 35.5987 3.45469C34.7735 3.39841 33.7687 3.39841 32.5649 3.39844H32.4281ZM28.4926 7.71864C28.7017 7.63208 29.0191 7.55226 29.671 7.50777C30.3413 7.46205 31.2069 7.46094 32.4966 7.46094C33.7863 7.46094 34.6519 7.46205 35.322 7.50777C35.9741 7.55226 36.2915 7.63208 36.5004 7.71864C37.3299 8.06224 37.9891 8.72129 38.3325 9.55082C38.4411 9.81248 38.5308 10.2204 38.5671 11.1875C38.6472 13.3336 39.755 15.3998 41.7215 16.5352C43.6877 17.6705 46.0312 17.5966 47.9298 16.5931C48.7854 16.1409 49.1838 16.0147 49.4643 15.9778C50.3546 15.8606 51.2548 16.1018 51.9671 16.6484C52.1467 16.7861 52.3744 17.0211 52.739 17.5635C53.1138 18.121 53.5474 18.8701 54.1923 19.987C54.8371 21.1039 55.2691 21.854 55.5646 22.4573C55.8519 23.0442 55.9416 23.359 55.9711 23.5833C56.0884 24.4735 55.8471 25.3738 55.3005 26.0861C55.128 26.3108 54.8198 26.5926 54 27.1075C52.1819 28.2501 50.9463 30.2424 50.9461 32.5127C50.9461 34.7834 52.1816 36.7759 54 37.9186C54.8195 38.4334 55.1277 38.7151 55.3003 38.9399C55.8468 39.6522 56.0881 40.5524 55.9708 41.4427C55.9413 41.6669 55.8517 41.9816 55.5643 42.5685C55.2688 43.1717 54.8369 43.9219 54.192 45.0388C53.5471 46.1557 53.1135 46.9048 52.7387 47.4625C52.3742 48.0047 52.1464 48.2398 51.9668 48.3773C51.2545 48.9242 50.3543 49.1652 49.4641 49.0482C49.1835 49.0111 48.7851 48.8849 47.9295 48.4329C46.031 47.4292 43.6875 47.3555 41.7209 48.4908C39.755 49.6262 38.6472 51.6923 38.5671 53.8384C38.5308 54.8056 38.4411 55.2135 38.3325 55.4753C37.9891 56.3046 37.3299 56.9638 36.5004 57.3075C36.2915 57.3939 35.9741 57.4738 35.322 57.5182C34.6519 57.564 33.7863 57.5651 32.4966 57.5651C31.2069 57.5651 30.3413 57.564 29.671 57.5182C29.0191 57.4738 28.7017 57.3939 28.4926 57.3075C27.6633 56.9638 27.0042 56.3046 26.6605 55.4753C26.5522 55.2135 26.4623 54.8056 26.4261 53.8384C26.3459 51.6926 25.2382 49.6262 23.2718 48.4908C21.3054 47.3555 18.9621 47.4294 17.0634 48.4329C16.2078 48.8852 15.8096 49.0114 15.5288 49.0482C14.6386 49.1655 13.7383 48.9242 13.026 48.3776C12.8465 48.24 12.6187 48.005 12.2542 47.4625C11.8795 46.9051 11.4457 46.156 10.8009 45.0391C10.156 43.9221 9.72417 43.1719 9.42867 42.5688C9.14121 41.9819 9.05161 41.6669 9.02209 41.4427C8.9049 40.5524 9.14613 39.6522 9.69273 38.9399C9.86514 38.7154 10.1735 38.4334 10.993 37.9186C12.8113 36.7762 14.047 34.7837 14.0471 32.5133C14.0472 30.2424 12.8115 28.2498 10.993 27.1072C10.1737 26.5923 9.86539 26.3106 9.69297 26.0859C9.14641 25.3736 8.90517 24.4733 9.02236 23.5831C9.05188 23.3589 9.14148 23.044 9.42894 22.4572C9.72445 21.8539 10.1563 21.1037 10.8011 19.9868C11.446 18.8699 11.8797 18.1208 12.2544 17.5633C12.6189 17.0209 12.8468 16.7859 13.0262 16.6482C13.7386 16.1016 14.6389 15.8604 15.529 15.9776C15.8099 16.0145 16.2081 16.1407 17.0638 16.593C18.9624 17.5965 21.3055 17.6703 23.2719 16.5351C25.2382 15.3998 26.3459 13.3336 26.4261 11.1877C26.4623 10.2204 26.5522 9.8125 26.6605 9.55082C27.0042 8.72129 27.6633 8.06224 28.4926 7.71864Z" fill="#FF4F4F"/>
</svg>