<svg width="33" height="34" viewBox="0 0 33 34" fill="none" xmlns="http://www.w3.org/2000/svg">
<g id="Layer_1" clip-path="url(#clip0_1946_22816)">
<g id="Layer 4">
<g id="Group">
<path id="Vector" d="M25.6792 17.1617C25.6792 22.336 21.488 26.5303 16.3183 26.5303C11.1486 26.5303 6.95749 22.336 6.95749 17.1617C6.95749 11.9875 11.1486 7.79318 16.3183 7.79318C21.488 7.79318 25.6792 11.9875 25.6792 17.1617Z" fill="white" stroke="#B3B3B3" stroke-width="0.363704"/>
<path id="Vector_2" d="M16.3183 23.3233C19.7242 23.3233 22.4853 20.5651 22.4853 17.1626C22.4853 13.7602 19.7242 11.002 16.3183 11.002C12.9124 11.002 10.1514 13.7602 10.1514 17.1626C10.1514 20.5651 12.9124 23.3233 16.3183 23.3233Z" stroke="#0C79EC" stroke-width="0.363704" stroke-miterlimit="10"/>
<g id="Group_2">
<g id="Group_3">
<path id="Vector_3" d="M19.0089 3.86178L16.5138 1.38281L14.0168 3.86178" stroke="#0C79EC" stroke-width="0.363704" stroke-miterlimit="10"/>
<path id="Vector_4" d="M16.5137 1.87109V6.07683" stroke="#0C79EC" stroke-width="0.363704" stroke-miterlimit="10"/>
</g>
<g id="Group_4">
<path id="Vector_5" d="M8.82959 5.85156L5.30673 5.86703L5.28931 9.38825" stroke="#0C79EC" stroke-width="0.363704" stroke-miterlimit="10"/>
<path id="Vector_6" d="M5.64917 6.20898L8.63392 9.19264" stroke="#0C79EC" stroke-width="0.363704" stroke-miterlimit="10"/>
</g>
<g id="Group_5">
<path id="Vector_7" d="M3.02228 14.4707L0.542725 16.9651L3.02228 19.4422" stroke="#0C79EC" stroke-width="0.363704" stroke-miterlimit="10"/>
<path id="Vector_8" d="M1.03247 16.9629H5.24055" stroke="#0C79EC" stroke-width="0.363704" stroke-miterlimit="10"/>
</g>
<g id="Group_6">
<path id="Vector_9" d="M5.01221 24.6582V28.1775H8.53701" stroke="#0C79EC" stroke-width="0.363704" stroke-miterlimit="10"/>
<path id="Vector_10" d="M5.37231 27.8216L8.33965 24.8398" stroke="#0C79EC" stroke-width="0.363704" stroke-miterlimit="10"/>
</g>
<g id="Group_7">
<path id="Vector_11" d="M23.8054 28.4548H27.3302V24.9336" stroke="#0C79EC" stroke-width="0.363704" stroke-miterlimit="10"/>
<path id="Vector_12" d="M26.9877 28.1145L24.001 25.1309" stroke="#0C79EC" stroke-width="0.363704" stroke-miterlimit="10"/>
</g>
<g id="Group_8">
<path id="Vector_13" d="M29.6143 19.8541L32.0938 17.3597L29.6143 14.8672" stroke="#0C79EC" stroke-width="0.363704" stroke-miterlimit="10"/>
<path id="Vector_14" d="M31.6041 17.3613H27.394" stroke="#0C79EC" stroke-width="0.363704" stroke-miterlimit="10"/>
</g>
<g id="Group_9">
<path id="Vector_15" d="M13.626 30.4414L16.123 32.9339L18.618 30.4414" stroke="#0C79EC" stroke-width="0.363704" stroke-miterlimit="10"/>
<path id="Vector_16" d="M16.1228 32.4439V28.2246" stroke="#0C79EC" stroke-width="0.363704" stroke-miterlimit="10"/>
</g>
<g id="Group_10">
<path id="Vector_17" d="M27.6227 9.6638V6.14258H24.0999" stroke="#0C79EC" stroke-width="0.363704" stroke-miterlimit="10"/>
<path id="Vector_18" d="M27.2647 6.48438L24.2954 9.46803" stroke="#0C79EC" stroke-width="0.363704" stroke-miterlimit="10"/>
</g>
</g>
<g id="Group_11">
<path id="Vector_19" d="M17.5569 15.9884V15.7119C17.5569 15.2226 17.1659 14.832 16.6762 14.832H15.9581C15.4684 14.832 15.0774 15.2226 15.0774 15.7119V16.3152C15.0774 16.5917 15.2903 16.8198 15.5826 16.9997L16.9375 17.5218" stroke="#A6F01F" stroke-width="1.45482" stroke-miterlimit="10"/>
<path id="Vector_20" d="M15.0774 18.5961V18.8726C15.0774 19.3618 15.4684 19.7524 15.9581 19.7524H16.6762C17.1659 19.7524 17.5569 19.3618 17.5569 18.8726V18.2693C17.5569 17.9928 17.3285 17.7472 17.0343 17.5693L15.7452 17.0801" stroke="#A6F01F" stroke-width="1.45482" stroke-miterlimit="10"/>
<path id="Vector_21" d="M16.3665 13.6094V14.9281" stroke="#A6F01F" stroke-width="1.45482" stroke-miterlimit="10"/>
<path id="Vector_22" d="M16.3665 19.5566V20.8754" stroke="#A6F01F" stroke-width="1.45482" stroke-miterlimit="10"/>
</g>
</g>
</g>
</g>
<defs>
<clipPath id="clip0_1946_22816">
<rect width="32.3697" height="32.3697" fill="white" transform="translate(0.132568 0.976562)"/>
</clipPath>
</defs>
</svg>
