<svg width="36" height="37" viewBox="0 0 31 30" fill="none" xmlns="http://www.w3.org/2000/svg">
<g id="icons8-cancel 1">
<path id="Vector" d="M15.5842 1C7.9699 1 1.78418 7.18572 1.78418 14.8C1.78418 22.4143 7.9699 28.6 15.5842 28.6C23.1985 28.6 29.3842 22.4143 29.3842 14.8C29.3842 7.18572 23.1985 1 15.5842 1ZM15.5842 2.2C22.5499 2.2 28.1842 7.83428 28.1842 14.8C28.1842 21.7657 22.5499 27.4 15.5842 27.4C8.61846 27.4 2.98418 21.7657 2.98418 14.8C2.98418 7.83428 8.61846 2.2 15.5842 2.2ZM20.3783 9.3918C20.2201 9.39554 20.0697 9.46167 19.96 9.57578L15.5842 13.9516L11.2084 9.57578C11.1525 9.5183 11.0856 9.47262 11.0117 9.44142C10.9379 9.41022 10.8585 9.39415 10.7783 9.39414C10.659 9.39417 10.5423 9.4298 10.4433 9.49647C10.3443 9.56314 10.2674 9.65782 10.2225 9.7684C10.1776 9.87899 10.1667 10.0005 10.1912 10.1173C10.2157 10.2341 10.2744 10.341 10.36 10.4242L14.7357 14.8L10.36 19.1758C10.3024 19.2311 10.2564 19.2973 10.2247 19.3706C10.1931 19.4438 10.1763 19.5227 10.1755 19.6025C10.1747 19.6824 10.1898 19.7615 10.22 19.8354C10.2502 19.9094 10.2948 19.9765 10.3512 20.0329C10.4077 20.0894 10.4748 20.134 10.5487 20.1642C10.6226 20.1944 10.7018 20.2095 10.7817 20.2087C10.8615 20.2079 10.9403 20.1911 11.0136 20.1595C11.0869 20.1278 11.1531 20.0818 11.2084 20.0242L15.5842 15.6484L19.96 20.0242C20.0152 20.0818 20.0815 20.1278 20.1547 20.1595C20.228 20.1911 20.3069 20.2079 20.3867 20.2087C20.4665 20.2095 20.5457 20.1944 20.6196 20.1642C20.6935 20.134 20.7607 20.0894 20.8171 20.0329C20.8736 19.9765 20.9182 19.9094 20.9484 19.8354C20.9785 19.7615 20.9937 19.6824 20.9928 19.6025C20.992 19.5227 20.9753 19.4438 20.9436 19.3706C20.912 19.2973 20.866 19.2311 20.8084 19.1758L16.4326 14.8L20.8084 10.4242C20.8955 10.3404 20.9553 10.2323 20.98 10.1139C21.0046 9.99557 20.9929 9.87253 20.9464 9.76094C20.8999 9.64935 20.8208 9.5544 20.7194 9.48853C20.6181 9.42266 20.4992 9.38895 20.3783 9.3918Z" fill="#FF3A3A"/>
</g>
</svg>
