<svg width="20" height="26" viewBox="0 0 20 26" fill="none" xmlns="http://www.w3.org/2000/svg">
<path d="M5.0625 0.75C2.58131 0.75 0.5625 2.76881 0.5625 5.25V21C0.5625 23.4812 2.58131 25.5 5.0625 25.5H14.625C17.1062 25.5 19.125 23.4812 19.125 21V9.45996C19.125 8.2579 18.6566 7.1277 17.8066 6.27832L13.5967 2.06726C12.7462 1.21789 11.6165 0.75 10.415 0.75H5.0625ZM5.0625 3H10.415C11.0158 3 11.5806 3.23505 12.0059 3.65918L16.2158 7.86914C16.6411 8.29383 16.875 8.85865 16.875 9.45996V21C16.875 22.2409 15.8659 23.25 14.625 23.25H5.0625C3.82162 23.25 2.8125 22.2409 2.8125 21V5.25C2.8125 4.00912 3.82162 3 5.0625 3ZM5.57446 11.5836C5.12446 11.5836 4.76477 11.9433 4.76477 12.3933V20.499C4.76477 20.9434 5.12446 21.3098 5.57446 21.3098H6.75549V20.0947C6.75549 19.6279 7.13237 19.251 7.59924 19.251C8.06612 19.251 8.44299 19.6279 8.44299 20.0947V21.3098H11.2104V20.0947C11.2104 19.6279 11.5929 19.251 12.0542 19.251C12.5211 19.251 12.8979 19.6279 12.8979 20.0947V21.3098H14.0845C14.5288 21.3098 14.8953 20.9434 14.8953 20.499V17.2877H7.59924C7.13237 17.2877 6.75549 16.9108 6.75549 16.444V11.5836H5.57446ZM8.44299 11.5836V15.6002H14.8953V12.3933C14.8953 11.9433 14.5288 11.5836 14.0845 11.5836H12.8979V12.7987C12.8979 13.2656 12.5211 13.6425 12.0542 13.6425C11.5929 13.6425 11.2104 13.2656 11.2104 12.7987V11.5836H8.44299Z" fill="#888888"/>
</svg>
