<svg width="40" height="32" viewBox="0 0 40 32" fill="none" xmlns="http://www.w3.org/2000/svg">
<g id="Layer_1" clip-path="url(#clip0_1946_22788)">
<g id="19">
<g id="Group">
<path id="Vector" d="M33.869 4.82812H0.797245C0.528854 4.82812 0.311279 5.04783 0.311279 5.31885V31.1835C0.311279 31.4545 0.528854 31.6742 0.797245 31.6742H33.869C34.1374 31.6742 34.355 31.4545 34.355 31.1835V5.31885C34.355 5.04783 34.1374 4.82812 33.869 4.82812Z" fill="#F7F6FF"/>
<path id="Vector_2" d="M33.9496 4.74609H0.877811C0.60942 4.74609 0.391846 4.9658 0.391846 5.23682V31.1014C0.391846 31.3725 0.60942 31.5922 0.877811 31.5922H33.9496C34.2179 31.5922 34.4355 31.3725 34.4355 31.1014V5.23682C34.4355 4.9658 34.2179 4.74609 33.9496 4.74609Z" stroke="#0C79EC" stroke-width="0.399481" stroke-miterlimit="10"/>
</g>
<path id="Vector_3" d="M33.869 4.82812H0.797245C0.528854 4.82812 0.311279 5.04783 0.311279 5.31885V12.1961C0.311279 12.4671 0.528854 12.6869 0.797245 12.6869H33.869C34.1374 12.6869 34.355 12.4671 34.355 12.1961V5.31885C34.355 5.04783 34.1374 4.82812 33.869 4.82812Z" fill="#A6F01F"/>
<path id="Vector_4" d="M23.1114 9.23811C23.1114 10.2459 22.3031 11.0622 21.3027 11.0622C20.3023 11.0622 19.4963 10.2459 19.4963 9.23811C19.4963 8.23034 20.3047 7.41406 21.3027 7.41406C22.3007 7.41406 23.1114 8.23034 23.1114 9.23811Z" fill="white" stroke="#111111" stroke-width="0.399481" stroke-miterlimit="10"/>
<path id="Vector_5" d="M27.7319 9.23811C27.7319 10.2459 26.9235 11.0622 25.9255 11.0622C24.9275 11.0622 24.1191 10.2459 24.1191 9.23811C24.1191 8.23034 24.9275 7.41406 25.9255 7.41406C26.9235 7.41406 27.7319 8.23034 27.7319 9.23811Z" fill="white" stroke="#111111" stroke-width="0.399481" stroke-miterlimit="10"/>
<path id="Vector_6" d="M32.0959 9.23811C32.0959 10.2459 31.2875 11.0622 30.2895 11.0622C29.2915 11.0622 28.4832 10.2459 28.4832 9.23811C28.4832 8.23034 29.2915 7.41406 30.2895 7.41406C31.2875 7.41406 32.0959 8.23034 32.0959 9.23811Z" fill="white" stroke="#111111" stroke-width="0.399481" stroke-miterlimit="10"/>
<path id="Vector_7" d="M4.7609 28.9586L6.64787 29.806C6.57438 30.323 6.53882 30.9382 6.53645 31.429H12.1286C12.1286 28.9729 13.4277 27.0532 15.5849 26.1531C18.4438 24.9586 21.7199 26.3542 22.9028 29.241C23.1944 29.9496 23.3295 30.6127 23.3295 31.4313H28.9241C28.9241 30.9406 28.8885 30.3182 28.8174 29.7892L30.6972 28.9777C31.2686 28.7384 31.5459 28.0777 31.3089 27.4984L30.024 24.3578C29.787 23.7761 29.1374 23.5128 28.5661 23.7521L26.6839 24.5373C26.0486 23.6899 25.2971 22.9311 24.4674 22.3039L25.2473 20.3961C25.4844 19.8192 25.2118 19.1561 24.6405 18.9167L21.535 17.6169C20.9637 17.3799 20.3094 17.6528 20.0724 18.2297L19.2853 20.1352C18.2613 19.9868 17.1993 19.9844 16.1538 20.1328L15.3763 18.2345C15.1392 17.6576 14.4968 17.3776 13.9255 17.6169L10.8201 18.9167C10.2511 19.1561 9.99036 19.812 10.2274 20.3889L11.005 22.2872C10.1634 22.9263 9.41432 23.6899 8.79323 24.5253L6.90626 23.7378C6.33495 23.4984 5.67831 23.7737 5.44125 24.3506L4.15403 27.4864C3.91698 28.0633 4.18722 28.7264 4.75853 28.9634L4.7609 28.9586Z" fill="white" stroke="#0C79EC" stroke-width="0.399481" stroke-miterlimit="10"/>
</g>
</g>
<defs>
<clipPath id="clip0_1946_22788">
<rect width="39.3767" height="31.2298" fill="white" transform="translate(0 0.761719)"/>
</clipPath>
</defs>
</svg>
