<svg width="33" height="32" viewBox="0 0 33 32" fill="none" xmlns="http://www.w3.org/2000/svg">
<g id="icons8-internal 1">
<path id="Vector" d="M16.5459 1.98054C16.3804 1.98313 16.2226 2.05128 16.1073 2.17004C15.992 2.2888 15.9285 2.44846 15.9307 2.61398V14.7335L11.9983 10.8011C11.9401 10.7412 11.8704 10.6936 11.7935 10.6611C11.7166 10.6286 11.6339 10.6119 11.5504 10.6119C11.4261 10.6119 11.3046 10.649 11.2015 10.7184C11.0984 10.7879 11.0183 10.8865 10.9715 11.0017C10.9248 11.1168 10.9134 11.2433 10.9389 11.365C10.9644 11.4867 11.0256 11.598 11.1147 11.6847L16.0589 16.6289C16.0932 16.674 16.1334 16.7143 16.1785 16.7485L16.5556 17.1256L16.9352 16.7461C16.9798 16.7121 17.0196 16.6723 17.0536 16.6277L21.9966 11.6847C22.0566 11.6271 22.1044 11.5581 22.1374 11.4818C22.1704 11.4055 22.1878 11.3234 22.1887 11.2402C22.1895 11.1571 22.1738 11.0746 22.1424 10.9977C22.1109 10.9207 22.0645 10.8508 22.0057 10.792C21.9469 10.7332 21.877 10.6867 21.8 10.6553C21.723 10.6239 21.6405 10.6081 21.5574 10.609C21.4743 10.6098 21.3921 10.6272 21.3158 10.6602C21.2395 10.6932 21.1705 10.7411 21.113 10.8011L17.1805 14.7335V2.61398C17.1817 2.53038 17.166 2.44739 17.1345 2.36994C17.103 2.29249 17.0563 2.22215 16.9971 2.16309C16.9379 2.10402 16.8675 2.05743 16.79 2.02608C16.7125 1.99472 16.6295 1.97924 16.5459 1.98054ZM12.2095 2.70186C12.1323 2.69913 12.0554 2.71072 11.9824 2.73603C6.286 4.64748 2.18311 10.0291 2.18311 16.3616C2.18311 24.2918 8.62546 30.7341 16.5556 30.7341C24.4858 30.7341 30.9282 24.2918 30.9282 16.3616C30.9282 10.0291 26.8253 4.64748 21.1288 2.73603C20.9717 2.68327 20.8 2.6951 20.6516 2.76891C20.5031 2.84273 20.3901 2.97249 20.3373 3.12964C20.2846 3.28679 20.2964 3.45847 20.3702 3.6069C20.444 3.75534 20.5738 3.86837 20.7309 3.92113C25.9289 5.6653 29.6784 10.5687 29.6784 16.3616C29.6784 23.6163 23.8103 29.4844 16.5556 29.4844C9.30092 29.4844 3.43289 23.6163 3.43289 16.3616C3.43289 10.5687 7.18239 5.6653 12.3803 3.92113C12.5203 3.87591 12.6398 3.7828 12.7178 3.65816C12.7959 3.53352 12.8275 3.38535 12.8071 3.23972C12.7867 3.09408 12.7156 2.9603 12.6062 2.86192C12.4969 2.76355 12.3564 2.70687 12.2095 2.70186Z" fill="#FF3A3A"/>
</g>
</svg>
