<svg width="22" height="22" viewBox="0 0 22 22" fill="none" xmlns="http://www.w3.org/2000/svg">
<path d="M1.48241 9.12918C1.32827 9.12918 1.17111 9.0914 1.02603 9.00979C0.574192 8.75741 0.414007 8.1862 0.666374 7.73438L3.59202 2.50568C4.3068 1.23175 5.63967 0.441406 7.07229 0.441406H13.1548C13.6716 0.441406 14.0917 0.860003 14.0917 1.37834C14.0917 1.89667 13.6731 2.31527 13.1548 2.31527H7.07229C6.31665 2.31527 5.60944 2.73991 5.22712 3.42146L2.30147 8.65016C2.12919 8.9569 1.81185 9.12918 1.48392 9.12918H1.48241Z" fill="#121212"/>
<path d="M14.3141 21.711H8.51115C7.99435 21.711 7.57422 21.2924 7.57422 20.774C7.57422 20.2557 7.99284 19.8371 8.51115 19.8371H14.3141C15.0561 19.8371 15.7558 19.4261 16.1396 18.7642L19.2843 13.3602C19.5443 12.9129 20.117 12.7618 20.5643 13.0217C21.0116 13.2816 21.1627 13.8559 20.9028 14.3017L17.7596 19.7057C17.0418 20.9418 15.721 21.711 14.3141 21.711Z" fill="#121212"/>
<path d="M1.27812 14.1539L6.14412 5.46308C6.57629 4.69086 7.37576 4.21484 8.23864 4.21484H18.0975C19.9654 4.21484 21.1275 6.30328 20.1875 7.96558L15.2746 16.6564C14.841 17.4241 14.0446 17.8956 13.1847 17.8956H3.37413C1.51084 17.8956 0.347232 15.8162 1.27963 14.1524L1.27812 14.1539Z" fill="#121212"/>
</svg>
