<svg width="21" height="22" viewBox="0 0 21 22" fill="none" xmlns="http://www.w3.org/2000/svg">
<path d="M13.045 11.6523C13.4054 11.6523 13.6976 11.3601 13.6976 10.9997C13.6976 10.6393 13.4054 10.3472 13.045 10.3472H7.82445C7.46405 10.3472 7.17188 10.6393 7.17188 10.9997C7.17188 11.3601 7.46405 11.6523 7.82445 11.6523H13.045Z" fill="#FF4F4F"/>
<path fill-rule="evenodd" clip-rule="evenodd" d="M10.4366 1.64307C9.62087 1.64307 8.84195 1.90982 7.58561 2.34012L6.95267 2.55679C5.66376 2.99798 4.66905 3.33847 3.95699 3.62775C3.59829 3.77347 3.28992 3.91461 3.0416 4.05882C2.80264 4.19759 2.56291 4.37068 2.40003 4.60274C2.23904 4.83211 2.1558 5.1141 2.10349 5.38555C2.04911 5.66776 2.01631 6.00629 1.99515 6.39498C1.95313 7.16676 1.95312 8.22406 1.95312 9.59541V10.9891C1.95312 16.2976 5.96256 18.8427 8.34689 19.8843L8.37047 19.8946C8.66613 20.0238 8.94402 20.1452 9.26334 20.227C9.60051 20.3133 9.95864 20.3502 10.4366 20.3502C10.9145 20.3502 11.2727 20.3133 11.6098 20.227C11.9291 20.1452 12.2071 20.0238 12.5026 19.8946L12.5263 19.8843C14.9106 18.8427 18.92 16.2976 18.92 10.9891V9.59559C18.92 8.22415 18.92 7.1668 18.878 6.39498C18.8569 6.00629 18.8241 5.66776 18.7697 5.38555C18.7174 5.1141 18.6341 4.83211 18.4732 4.60274C18.3103 4.37068 18.0706 4.19759 17.8315 4.05882C17.5832 3.91461 17.2749 3.77347 16.9162 3.62775C16.2041 3.33847 15.2094 2.99798 13.9205 2.55678L13.2875 2.34012C12.0312 1.90982 11.2523 1.64307 10.4366 1.64307ZM7.89644 3.61323C9.30119 3.13236 9.86432 2.94821 10.4366 2.94821C11.0088 2.94821 11.572 3.13236 12.9767 3.61323L13.4751 3.78383C14.7913 4.23434 15.7511 4.56316 16.4249 4.83693C16.7613 4.97358 17.005 5.08809 17.1761 5.18744C17.2606 5.23648 17.3188 5.27696 17.3576 5.30855C17.3906 5.33532 17.4031 5.35048 17.4049 5.35271C17.4066 5.35543 17.4175 5.3735 17.4327 5.41628C17.4501 5.4651 17.4693 5.53509 17.4881 5.63252C17.5261 5.82971 17.5549 6.10059 17.5748 6.46595C17.6146 7.19787 17.6149 8.21955 17.6149 9.61899V10.9891C17.6149 15.492 14.2477 17.7081 12.0038 18.6883C11.6806 18.8295 11.4939 18.9094 11.2861 18.9625C11.0877 19.0134 10.8455 19.045 10.4366 19.045C10.0276 19.045 9.78549 19.0134 9.58702 18.9625C9.37924 18.9094 9.1926 18.8295 8.86936 18.6883C6.62547 17.7081 3.25827 15.492 3.25827 10.9891V9.61899C3.25827 8.21955 3.25852 7.19787 3.29837 6.46595C3.31826 6.10059 3.34706 5.82971 3.38505 5.63252C3.40383 5.53509 3.4231 5.4651 3.4405 5.41628C3.45572 5.37352 3.46654 5.35545 3.46822 5.35272C3.47002 5.35051 3.48258 5.33534 3.51553 5.30855C3.5544 5.27696 3.61259 5.23648 3.69705 5.18744C3.86812 5.08809 4.11184 4.97358 4.44821 4.83693C5.12211 4.56316 6.08192 4.23434 7.39803 3.78383L7.89644 3.61323Z" fill="#FF4F4F"/>
</svg>
