<svg width="24" height="24" viewBox="0 0 24 24" fill="none" xmlns="http://www.w3.org/2000/svg">
<g clip-path="url(#clip0_26316_22631)">
<path d="M22.2547 0H2.15901C1.19637 0 0.417969 0.759979 0.417969 1.69959V21.8782C0.417969 22.8178 1.19637 23.5824 2.15901 23.5824H22.2547C23.2173 23.5824 24.0004 22.8178 24.0004 21.8828V1.69959C24.0004 0.759979 23.2173 0 22.2547 0ZM7.41438 20.0957H3.91387V8.83879H7.41438V20.0957ZM5.66413 7.30501C4.54028 7.30501 3.63291 6.39764 3.63291 5.2784C3.63291 4.15916 4.54028 3.25179 5.66413 3.25179C6.78337 3.25179 7.69074 4.15916 7.69074 5.2784C7.69074 6.39304 6.78337 7.30501 5.66413 7.30501ZM20.5137 20.0957H17.0178V14.6238C17.0178 13.3204 16.9947 11.6392 15.1984 11.6392C13.3791 11.6392 13.1027 13.0624 13.1027 14.5317V20.0957H9.61141V8.83879H12.9645V10.3772H13.0106C13.4758 9.49283 14.6181 8.55783 16.3177 8.55783C19.8596 8.55783 20.5137 10.8884 20.5137 13.9191V20.0957Z" fill="#2A2A2A"/>
</g>
<defs>
<clipPath id="clip0_26316_22631">
<rect width="23.5824" height="23.5824" fill="white" transform="translate(0.417969)"/>
</clipPath>
</defs>
</svg>
