<svg width="30" height="29" viewBox="0 0 30 29" fill="none" xmlns="http://www.w3.org/2000/svg">
<g id="car-svgrepo-com 2">
<path id="Vector" fill-rule="evenodd" clip-rule="evenodd" d="M6.91032 9.70399C7.79536 7.45885 8.85994 5.91016 11.2699 5.91016H17.7299C20.1375 5.91016 21.2033 7.45885 22.0895 9.70399L22.9745 12.1061C23.634 12.1143 24.2398 12.4804 24.5662 13.0681C24.7582 13.4029 24.8588 13.7845 24.8574 14.173V17.2704C24.866 17.9936 24.51 18.6701 23.916 19.0599C23.6334 19.2404 23.3074 19.336 22.9745 19.3361H6.02413C5.69132 19.336 5.36519 19.2404 5.0827 19.0599C4.48862 18.6701 4.13269 17.9936 4.14126 17.2704V14.173C4.14001 13.785 4.2406 13.4037 4.43244 13.0693C4.75887 12.4816 5.36467 12.1154 6.02413 12.1073L6.91032 9.70399Z" stroke="#EA3639" stroke-width="1.90681" stroke-linecap="round" stroke-linejoin="round"/>
<path id="Vector_2" d="M8.7934 19.3362C8.7934 18.8473 8.39704 18.4509 7.90809 18.4509C7.41915 18.4509 7.02279 18.8473 7.02279 19.3362H8.7934ZM7.90809 20.8861H7.02279C7.02279 20.8953 7.02293 20.9045 7.02322 20.9137L7.90809 20.8861ZM6.49479 22.4348L6.46315 23.3195C6.48401 23.3203 6.50488 23.3203 6.52573 23.3196L6.49479 22.4348ZM5.08264 20.8849L5.96749 20.9132C5.9678 20.9038 5.96795 20.8943 5.96795 20.8849H5.08264ZM5.96795 19.0588C5.96795 18.5699 5.57158 18.1735 5.08264 18.1735C4.5937 18.1735 4.19734 18.5699 4.19734 19.0588H5.96795ZM6.02408 11.2197C5.53513 11.2197 5.13877 11.6161 5.13877 12.105C5.13877 12.5939 5.53513 12.9903 6.02408 12.9903V11.2197ZM22.9745 12.9903C23.4634 12.9903 23.8598 12.5939 23.8598 12.105C23.8598 11.6161 23.4634 11.2197 22.9745 11.2197V12.9903ZM21.9769 19.335C21.9769 18.8461 21.5805 18.4497 21.0916 18.4497C20.6027 18.4497 20.2063 18.8461 20.2063 19.335H21.9769ZM21.0916 20.8849L21.9753 20.9399C21.9763 20.9216 21.9769 20.9033 21.9769 20.8849H21.0916ZM23.917 20.8849H23.0317C23.0317 20.9033 23.0323 20.9216 23.0335 20.9399L23.917 20.8849ZM24.8023 19.0588C24.8023 18.5699 24.4061 18.1735 23.917 18.1735C23.4281 18.1735 23.0317 18.5699 23.0317 19.0588H24.8023ZM7.5939 15.0572C7.10495 15.0572 6.7086 15.4536 6.7086 15.9425C6.7086 16.4314 7.10495 16.8278 7.5939 16.8278V15.0572ZM8.7448 16.8278C9.23374 16.8278 9.63011 16.4314 9.63011 15.9425C9.63011 15.4536 9.23374 15.0572 8.7448 15.0572V16.8278ZM20.2538 15.0572C19.7648 15.0572 19.3684 15.4536 19.3684 15.9425C19.3684 16.4314 19.7648 16.8278 20.2538 16.8278V15.0572ZM21.4047 16.8278C21.8936 16.8278 22.29 16.4314 22.29 15.9425C22.29 15.4536 21.8936 15.0572 21.4047 15.0572V16.8278ZM7.02279 19.3362V20.8861H8.7934V19.3362H7.02279ZM7.02322 20.9137C7.03451 21.275 6.76254 21.5395 6.46385 21.55L6.52573 23.3196C7.84078 23.2736 8.83339 22.1524 8.79297 20.8584L7.02322 20.9137ZM6.52642 21.55C6.22771 21.5394 5.95592 21.2745 5.96749 20.9132L4.19779 20.8566C4.15633 22.1505 5.14811 23.2725 6.46315 23.3195L6.52642 21.55ZM5.96795 20.8849V19.0588H4.19734V20.8849H5.96795ZM6.02408 12.9903H22.9745V11.2197H6.02408V12.9903ZM20.2063 19.335V20.8849H21.9769V19.335H20.2063ZM20.2081 20.8299C20.1547 21.6872 20.5694 22.5148 21.3033 22.971L22.238 21.4672C22.07 21.3628 21.9613 21.1622 21.9753 20.9399L20.2081 20.8299ZM21.3033 22.971C22.0404 23.4291 22.9682 23.4291 23.7054 22.971L22.7707 21.4672C22.606 21.5696 22.4028 21.5696 22.238 21.4672L21.3033 22.971ZM23.7054 22.971C24.4394 22.5148 24.854 21.6872 24.8007 20.8299L23.0335 20.9399C23.0473 21.1622 22.9387 21.3628 22.7707 21.4672L23.7054 22.971ZM24.8023 20.8849V19.0588H23.0317V20.8849H24.8023ZM7.5939 16.8278H8.7448V15.0572H7.5939V16.8278ZM20.2538 16.8278H21.4047V15.0572H20.2538V16.8278Z" fill="#EA3639"/>
</g>
</svg>
