<svg width="26" height="26" viewBox="0 0 26 26" fill="none" xmlns="http://www.w3.org/2000/svg">
<g id="clipboard">
<path id="Icon" d="M8.72918 4.63589H7.71401C6.29264 4.63589 5.58195 4.63589 5.03905 4.89923C4.56151 5.13088 4.17326 5.50051 3.92994 5.95513C3.65332 6.47198 3.65332 7.14857 3.65332 8.50175V18.2872C3.65332 19.6404 3.65332 20.317 3.92994 20.8338C4.17326 21.2884 4.56151 21.6581 5.03905 21.8897C5.58195 22.1531 6.29264 22.1531 7.71401 22.1531H17.9926C19.414 22.1531 20.1247 22.1531 20.6676 21.8897C21.1451 21.6581 21.5334 21.2884 21.7767 20.8338C22.0533 20.317 22.0533 19.6404 22.0533 18.2872V8.50175C22.0533 7.14857 22.0533 6.47198 21.7767 5.95513C21.5334 5.50051 21.1451 5.13088 20.6676 4.89923C20.1247 4.63589 19.414 4.63589 17.9926 4.63589H16.9775M10.7595 7.05205H14.9471C15.6578 7.05205 16.0131 7.05205 16.2846 6.92038C16.5234 6.80455 16.7175 6.61974 16.8391 6.39243C16.9775 6.134 16.9775 5.79571 16.9775 5.11912V4.15266C16.9775 3.47607 16.9775 3.13777 16.8391 2.87935C16.7175 2.65204 16.5234 2.46722 16.2846 2.3514C16.0131 2.21973 15.6578 2.21973 14.9471 2.21973H10.7595C10.0488 2.21973 9.6935 2.21973 9.42205 2.3514C9.18328 2.46722 8.98915 2.65204 8.86749 2.87935C8.72918 3.13777 8.72918 3.47607 8.72918 4.15266V5.11912C8.72918 5.79571 8.72918 6.134 8.86749 6.39243C8.98915 6.61974 9.18328 6.80455 9.42205 6.92038C9.6935 7.05205 10.0488 7.05205 10.7595 7.05205Z" stroke="#EA3639" stroke-width="1.85136" stroke-linejoin="round"/>
</g>
</svg>
