<svg width="23" height="23" viewBox="0 0 23 23" fill="none" xmlns="http://www.w3.org/2000/svg">
<g id="suitcase">
<path id="Icon" d="M18.5818 15.2591V17.9752C18.5818 18.6065 18.5818 18.9221 18.4648 19.1632C18.3619 19.3753 18.1977 19.5478 17.9958 19.6558C17.7663 19.7787 17.4658 19.7787 16.8648 19.7787H4.73879C4.13779 19.7787 3.8373 19.7787 3.60775 19.6558C3.40583 19.5478 3.24167 19.3753 3.13879 19.1632C3.02183 18.9221 3.02183 18.6065 3.02183 17.9752V15.2591M14.2894 6.81611V5.23806C14.2894 4.60678 14.2894 4.29114 14.1724 4.05002C14.0695 3.83793 13.9054 3.66549 13.7034 3.55743C13.4739 3.43457 13.1734 3.43457 12.5724 3.43457H9.03118C8.43019 3.43457 8.12969 3.43457 7.90014 3.55743C7.69823 3.66549 7.53406 3.83793 7.43118 4.05002C7.31422 4.29114 7.31422 4.60678 7.31422 5.23806V6.81611M13.2163 13.5792V16.3971M8.38732 13.5792V16.3971M3.66569 15.27H17.9379C18.5389 15.27 18.8394 15.27 19.0689 15.1471C19.2708 15.039 19.435 14.8666 19.5379 14.6545C19.6549 14.4134 19.6549 14.0978 19.6549 13.4665V8.6196C19.6549 7.98832 19.6549 7.67268 19.5379 7.43156C19.435 7.21947 19.2708 7.04703 19.0689 6.93897C18.8394 6.81611 18.5389 6.81611 17.9379 6.81611H3.66569C3.0647 6.81611 2.7642 6.81611 2.53465 6.93897C2.33274 7.04703 2.16857 7.21947 2.06569 7.43156C1.94873 7.67268 1.94873 7.98832 1.94873 8.6196V13.4665C1.94873 14.0978 1.94873 14.4134 2.06569 14.6545C2.16857 14.8666 2.33274 15.039 2.53465 15.1471C2.7642 15.27 3.0647 15.27 3.66569 15.27Z" stroke="#EA3639" stroke-width="1.6445" stroke-linecap="round" stroke-linejoin="round"/>
</g>
</svg>
