<svg width="23" height="23" viewBox="0 0 23 23" fill="none" xmlns="http://www.w3.org/2000/svg">
<path d="M21.0199 9.83997C21.0368 10.5065 21.0199 10.8063 21.0199 11.6733C21.0199 15.1302 21.0199 16.8588 19.9459 17.9327C18.872 19.0066 17.1435 19.0066 13.6865 19.0066H10.0199C6.56289 19.0066 4.83441 19.0066 3.76046 17.9327C2.68652 16.8588 2.68652 15.1302 2.68652 11.6733C2.68652 8.21633 2.68652 6.48785 3.76046 5.4139C4.83441 4.33997 6.56289 4.33997 10.0199 4.33997H12.7699" stroke="#FF4F4F" stroke-width="1.9" stroke-linecap="round"/>
<path d="M6.35352 8.00659L8.33251 9.65575C10.0161 11.0587 10.8579 11.7602 11.8535 11.7602C12.8491 11.7602 13.691 11.0587 15.3745 9.65575" stroke="#FF4F4F" stroke-width="1.9" stroke-linecap="round"/>
<path d="M18.2705 8.00659C19.7893 8.00659 21.0205 6.77537 21.0205 5.25659C21.0205 3.73781 19.7893 2.50659 18.2705 2.50659C16.7517 2.50659 15.5205 3.73781 15.5205 5.25659C15.5205 6.77537 16.7517 8.00659 18.2705 8.00659Z" stroke="#FF4F4F" stroke-width="1.9"/>
</svg>
