<svg width="26" height="26" viewBox="0 0 26 26" fill="none" xmlns="http://www.w3.org/2000/svg">
<path d="M12.8529 14.6559V10.4893M14.9362 12.5726H10.7695" stroke="#FF4F4F" stroke-width="1.85" stroke-linecap="round" stroke-linejoin="round"/>
<path d="M20.1445 5.2806C20.4208 5.2806 20.6858 5.39035 20.8811 5.5857C21.0765 5.78105 21.1862 6.046 21.1862 6.32227V10.0098C21.1867 12.5484 20.4337 15.0301 19.0225 17.1404C17.6113 19.2507 15.6055 20.8947 13.2591 21.8639C13.1306 21.9184 12.9924 21.9464 12.8529 21.9464C12.7133 21.9464 12.5751 21.9184 12.4466 21.8639C10.1003 20.8947 8.09443 19.2507 6.68323 17.1404C5.27204 15.0301 4.519 12.5484 4.51953 10.0098V6.32227C4.51953 6.046 4.62928 5.78105 4.82463 5.5857C5.01998 5.39035 5.28493 5.2806 5.5612 5.2806C8.1438 5.31875 10.6802 4.59405 12.8529 3.19727C15.0255 4.59405 17.5619 5.31875 20.1445 5.2806Z" stroke="#FF4F4F" stroke-width="1.85" stroke-linecap="round" stroke-linejoin="round"/>
</svg>
