<svg width="30" height="30" viewBox="0 0 30 30" fill="none" xmlns="http://www.w3.org/2000/svg">
<g id="AccountBook">
<path id="Vector" d="M27.3212 4.02009H21.6962V1.87723C21.6962 1.72991 21.5757 1.60938 21.4284 1.60938H19.5534C19.406 1.60938 19.2855 1.72991 19.2855 1.87723V4.02009H10.7141V1.87723C10.7141 1.72991 10.5935 1.60938 10.4462 1.60938H8.57122C8.4239 1.60938 8.30336 1.72991 8.30336 1.87723V4.02009H2.67836C2.08573 4.02009 1.60693 4.49888 1.60693 5.09152V27.3237C1.60693 27.9163 2.08573 28.3951 2.67836 28.3951H27.3212C27.9139 28.3951 28.3927 27.9163 28.3927 27.3237V5.09152C28.3927 4.49888 27.9139 4.02009 27.3212 4.02009ZM25.9819 25.9844H4.01765V6.4308H8.30336V8.03795C8.30336 8.18527 8.4239 8.3058 8.57122 8.3058H10.4462C10.5935 8.3058 10.7141 8.18527 10.7141 8.03795V6.4308H19.2855V8.03795C19.2855 8.18527 19.406 8.3058 19.5534 8.3058H21.4284C21.5757 8.3058 21.6962 8.18527 21.6962 8.03795V6.4308H25.9819V25.9844ZM19.2688 11.721H17.7621C17.6616 11.721 17.5679 11.7779 17.5243 11.8683L15.0668 16.7366H14.973L12.5154 11.8683C12.4932 11.8242 12.4593 11.7872 12.4173 11.7612C12.3754 11.7352 12.327 11.7213 12.2777 11.721H10.7375C10.694 11.721 10.6471 11.731 10.6103 11.7545C10.4797 11.8248 10.4328 11.9888 10.5031 12.1194L13.4931 17.6105H11.8659C11.7185 17.6105 11.598 17.731 11.598 17.8784V18.5915C11.598 18.7388 11.7185 18.8594 11.8659 18.8594H14.0456V19.9877H11.8659C11.7185 19.9877 11.598 20.1083 11.598 20.2556V20.9688C11.598 21.1161 11.7185 21.2366 11.8659 21.2366H14.0456V23.0379C14.0456 23.1853 14.1661 23.3058 14.3134 23.3058H15.6962C15.8435 23.3058 15.9641 23.1853 15.9641 23.0379V21.2366H18.1538C18.3011 21.2366 18.4217 21.1161 18.4217 20.9688V20.2556C18.4217 20.1083 18.3011 19.9877 18.1538 19.9877H15.9641V18.8594H18.1538C18.3011 18.8594 18.4217 18.7388 18.4217 18.5915V17.8784C18.4217 17.731 18.3011 17.6105 18.1538 17.6105H16.5098L19.4998 12.1161C19.5199 12.0759 19.5333 12.0324 19.5333 11.9888C19.5366 11.8415 19.4194 11.721 19.2688 11.721Z" fill="#FF3A3A"/>
</g>
</svg>
