<svg width="106" height="88" viewBox="0 0 106 88" fill="none" xmlns="http://www.w3.org/2000/svg">
<circle cx="12.5274" cy="9.6358" r="3.85455" fill="#F2F4F7"/>
<circle cx="95.3997" cy="60.7112" r="2.89091" fill="#F2F4F7"/>
<circle cx="12.0457" cy="66.4901" r="4.81818" fill="#F2F4F7"/>
<circle cx="101.181" cy="18.3104" r="4.81818" fill="#F2F4F7"/>
<circle cx="92.027" cy="5.2946" r="3.37273" fill="#F2F4F7"/>
<g filter="url(#filter0_b_8781_19808)">
<rect x="39.5088" y="42.3984" width="26.9818" height="26.9818" rx="13.4909" fill="url(#paint0_linear_8781_19808)"/>
<g clip-path="url(#clip0_8781_19808)">
<path d="M55.2483 58.1343L52.9998 55.8858M52.9998 55.8858L50.7513 58.1343M52.9998 55.8858V60.9449M57.716 59.4778C58.2643 59.1789 58.6974 58.7059 58.947 58.1335C59.1966 57.5612 59.2485 56.922 59.0944 56.3168C58.9404 55.7117 58.5893 55.175 58.0964 54.7916C57.6035 54.4082 56.997 54.1999 56.3725 54.1995H55.6643C55.4941 53.5414 55.177 52.9304 54.7367 52.4125C54.2965 51.8946 53.7445 51.4832 53.1224 51.2093C52.5003 50.9354 51.8242 50.8061 51.1449 50.8312C50.4656 50.8562 49.8008 51.0349 49.2005 51.3538C48.6002 51.6728 48.0801 52.1236 47.6791 52.6725C47.2782 53.2214 47.0069 53.8541 46.8856 54.5229C46.7643 55.1918 46.7963 55.8794 46.979 56.5341C47.1618 57.1888 47.4906 57.7936 47.9407 58.303" stroke="white" stroke-width="1.12424" stroke-linecap="round" stroke-linejoin="round"/>
</g>
</g>
<g clip-path="url(#clip1_8781_19808)">
<path d="M89.3573 22.75H27.3418C26.5051 22.7505 25.7029 23.0831 25.1112 23.6747C24.5196 24.2663 24.187 25.0686 24.1865 25.9052V82.8051C24.187 83.6417 24.5196 84.444 25.1112 85.0356C25.7029 85.6272 26.5051 85.9598 27.3418 85.9603H89.3573C90.194 85.9599 90.9964 85.6273 91.588 85.0357C92.1797 84.4441 92.5124 83.6418 92.5129 82.8051V25.9052C92.5124 25.0685 92.1797 24.2662 91.588 23.6746C90.9964 23.083 90.194 22.7504 89.3573 22.75Z" fill="#C6C6C6"/>
<path d="M85.2746 66.186H31.4248C29.6823 66.186 28.2695 64.7733 28.2695 63.0308V12.7568C28.2695 11.0143 29.6823 9.60156 31.4248 9.60156H85.2746C87.0171 9.60156 88.4299 11.0143 88.4299 12.7568V63.0308C88.4299 64.7733 87.0171 66.186 85.2746 66.186Z" fill="#F9F9F9"/>
<path d="M29.2685 64.0294V13.7558C29.2685 12.0133 30.6812 10.6005 32.4237 10.6005H86.2736C86.8891 10.6005 87.4612 10.7794 87.9463 11.084C87.3885 10.1946 86.402 9.60156 85.2746 9.60156H31.4248C29.6823 9.60156 28.2695 11.0143 28.2695 12.7568V63.0308C28.2695 64.1584 28.8625 65.1447 29.752 65.7028C29.4474 65.2174 29.2685 64.6452 29.2685 64.0297V64.0294Z" fill="url(#paint1_linear_8781_19808)"/>
<path d="M78.6489 20.2344H38.0508V22.548H78.6489V20.2344ZM78.6489 29.0686H38.0508V31.3823H78.6489V29.0686ZM78.6489 37.9049H38.0508V40.2185H78.6489V37.9049ZM78.6489 46.7392H38.0508V49.0531H78.6489V46.7392Z" fill="white"/>
<path d="M42.8887 39.2656L53.0904 49.4677H42.8887V39.2656Z" fill="url(#paint2_linear_8781_19808)"/>
<path d="M92.5135 50.3062V26.8332L88.4307 22.75V50.3059H92.5135V50.3062Z" fill="#C6C6C6"/>
<path d="M97.2955 52.4326L92.8966 83.5718C92.6767 85.1286 91.3444 86.2856 89.7723 86.2856H26.9276C25.3555 86.2856 24.0232 85.1286 23.8033 83.5718L17.8587 41.4952C17.5906 39.5956 19.0646 37.8984 20.983 37.8984H40.3908C41.9629 37.8984 43.2951 39.0554 43.5151 40.6119L44.2941 46.1221C44.514 47.6789 45.8463 48.8359 47.4184 48.8359H94.1719C96.0897 48.8359 97.564 50.5331 97.2958 52.4326H97.2955Z" fill="url(#paint3_linear_8781_19808)"/>
<path d="M81.7098 72.3952H34.9908C34.7347 72.3951 34.4875 72.3016 34.2954 72.1323C34.1032 71.963 33.9795 71.7294 33.9472 71.4754L33.3627 66.8474C33.3441 66.6994 33.3572 66.5491 33.4012 66.4065C33.4451 66.2639 33.5189 66.1323 33.6176 66.0204C33.7163 65.9085 33.8376 65.8188 33.9736 65.7574C34.1096 65.696 34.2571 65.6641 34.4063 65.6641H82.2943C82.4435 65.6641 82.591 65.696 82.7269 65.7574C82.8629 65.8188 82.9843 65.9085 83.083 66.0204C83.1817 66.1323 83.2554 66.2639 83.2994 66.4065C83.3433 66.5491 83.3564 66.6994 83.3379 66.8474L82.7534 71.4754C82.7211 71.7294 82.5973 71.963 82.4052 72.1323C82.2131 72.3016 81.9658 72.3951 81.7098 72.3952Z" fill="#D5D5D5"/>
</g>
<defs>
<filter id="filter0_b_8781_19808" x="31.5088" y="34.3984" width="42.9814" height="42.9844" filterUnits="userSpaceOnUse" color-interpolation-filters="sRGB">
<feFlood flood-opacity="0" result="BackgroundImageFix"/>
<feGaussianBlur in="BackgroundImageFix" stdDeviation="4"/>
<feComposite in2="SourceAlpha" operator="in" result="effect1_backgroundBlur_8781_19808"/>
<feBlend mode="normal" in="SourceGraphic" in2="effect1_backgroundBlur_8781_19808" result="shape"/>
</filter>
<linearGradient id="paint0_linear_8781_19808" x1="52.9997" y1="28.9075" x2="26.0179" y2="55.8893" gradientUnits="userSpaceOnUse">
<stop stop-color="#FF8960"/>
<stop offset="1" stop-color="#FF62A5"/>
</linearGradient>
<linearGradient id="paint1_linear_8781_19808" x1="60.1999" y1="39.7405" x2="20.2967" y2="-0.162928" gradientUnits="userSpaceOnUse">
<stop stop-color="white"/>
</linearGradient>
<linearGradient id="paint2_linear_8781_19808" x1="49.6289" y1="51.1046" x2="37.2976" y2="38.7736" gradientUnits="userSpaceOnUse">
<stop stop-color="#C2CECE" stop-opacity="0"/>
<stop offset="0.179" stop-color="#AFBCBC" stop-opacity="0.179"/>
<stop offset="1" stop-color="#5B6A6A"/>
</linearGradient>
<linearGradient id="paint3_linear_8781_19808" x1="57.5771" y1="37.8984" x2="57.5771" y2="86.2856" gradientUnits="userSpaceOnUse">
<stop stop-color="#EEF0F4"/>
<stop offset="0.927" stop-color="#E4E4E4"/>
</linearGradient>
<clipPath id="clip0_8781_19808">
<rect width="13.4909" height="13.4909" fill="white" transform="translate(46.2539 49.1406)"/>
</clipPath>
<clipPath id="clip1_8781_19808">
<rect width="79.5" height="79.5" fill="white" transform="translate(17.8271 8.19531)"/>
</clipPath>
</defs>
</svg>
