<svg width="30" height="30" viewBox="0 0 30 30" fill="none" xmlns="http://www.w3.org/2000/svg">
<g id="FileSearch">
<path id="Vector" d="M20.8928 8.29632V6.68917C20.8928 6.54185 20.7723 6.42132 20.6249 6.42132H7.76779C7.62047 6.42132 7.49993 6.54185 7.49993 6.68917V8.29632C7.49993 8.44364 7.62047 8.56417 7.76779 8.56417H20.6249C20.7723 8.56417 20.8928 8.44364 20.8928 8.29632ZM7.76779 11.2427C7.62047 11.2427 7.49993 11.3633 7.49993 11.5106V13.1177C7.49993 13.2651 7.62047 13.3856 7.76779 13.3856H13.9285C14.0758 13.3856 14.1964 13.2651 14.1964 13.1177V11.5106C14.1964 11.3633 14.0758 11.2427 13.9285 11.2427H7.76779ZM12.5892 26.3767H4.82136V2.80525H23.5714V14.3231C23.5714 14.4704 23.6919 14.591 23.8392 14.591H25.7142C25.8615 14.591 25.9821 14.4704 25.9821 14.3231V1.46596C25.9821 0.873326 25.5033 0.394531 24.9106 0.394531H3.48207C2.88944 0.394531 2.41064 0.873326 2.41064 1.46596V27.716C2.41064 28.3086 2.88944 28.7874 3.48207 28.7874H12.5892C12.7365 28.7874 12.8571 28.6669 12.8571 28.5195V26.6445C12.8571 26.4972 12.7365 26.3767 12.5892 26.3767ZM27.5122 28.101L24.3883 24.9771C25.135 23.9894 25.5803 22.7573 25.5803 21.4213C25.5803 18.1669 22.9419 15.5285 19.6874 15.5285C16.433 15.5285 13.7946 18.1669 13.7946 21.4213C13.7946 24.6758 16.433 27.3142 19.6874 27.3142C20.8861 27.3142 21.9977 26.9559 22.9285 26.3432L26.0993 29.514C26.1528 29.5675 26.2198 29.591 26.2868 29.591C26.3537 29.591 26.424 29.5642 26.4743 29.514L27.5122 28.476C27.5369 28.4514 27.5565 28.4222 27.5699 28.39C27.5833 28.3579 27.5901 28.3234 27.5901 28.2885C27.5901 28.2537 27.5833 28.2192 27.5699 28.187C27.5565 28.1548 27.5369 28.1256 27.5122 28.101ZM19.6874 25.1713C17.6149 25.1713 15.9374 23.4939 15.9374 21.4213C15.9374 19.3488 17.6149 17.6713 19.6874 17.6713C21.76 17.6713 23.4374 19.3488 23.4374 21.4213C23.4374 23.4939 21.76 25.1713 19.6874 25.1713Z" fill="#FF3A3A"/>
</g>
</svg>
