<svg width="30" height="30" viewBox="0 0 30 30" fill="none" xmlns="http://www.w3.org/2000/svg">
<g id="FundProjectionScreen" clip-path="url(#clip0_1409_17214)">
<g id="Vector">
<path d="M8.30841 17.6597C8.41221 17.7635 8.58296 17.7635 8.68676 17.6597L12.0952 14.2512L14.9781 17.1373C15.0818 17.2411 15.2526 17.2411 15.3564 17.1373L22.9334 9.55363C23.0372 9.44984 23.0372 9.27908 22.9334 9.17529L21.7013 7.94314C21.6509 7.89329 21.5829 7.86533 21.5121 7.86533C21.4412 7.86533 21.3733 7.89329 21.3229 7.94314L15.1689 14.1039L12.2861 11.2177C12.2357 11.1678 12.1678 11.1399 12.0969 11.1399C12.0261 11.1399 11.9581 11.1678 11.9077 11.2177L7.07627 16.0492C7.02642 16.0995 6.99845 16.1675 6.99845 16.2383C6.99845 16.3092 7.02642 16.3772 7.07627 16.4275L8.30841 17.6597Z" fill="#FF3A3A"/>
<path d="M28.1237 3.2154H16.204V1.07254C16.204 0.925223 16.0835 0.804688 15.9362 0.804688H14.0612C13.9139 0.804688 13.7933 0.925223 13.7933 1.07254V3.2154H1.87367C1.28104 3.2154 0.802246 3.6942 0.802246 4.28683V21.6975C0.802246 22.2902 1.28104 22.769 1.87367 22.769H13.8067V23.8404L8.28885 27.4598C8.25952 27.4789 8.23425 27.5035 8.21449 27.5324C8.19473 27.5612 8.18087 27.5937 8.17371 27.6279C8.16655 27.6622 8.16624 27.6975 8.17278 27.7318C8.17933 27.7662 8.1926 27.7989 8.21184 27.8281L9.22635 29.4085V29.4118C9.30671 29.5357 9.47412 29.5692 9.59801 29.4888L14.9987 25.9464L20.3993 29.4888C20.5232 29.5692 20.6906 29.5357 20.771 29.4118V29.4085L21.7855 27.8281C21.8237 27.7689 21.837 27.6971 21.8226 27.6282C21.8081 27.5592 21.7672 27.4988 21.7085 27.4598L16.204 23.8504V22.769H28.1237C28.7163 22.769 29.1951 22.2902 29.1951 21.6975V4.28683C29.1951 3.6942 28.7163 3.2154 28.1237 3.2154ZM26.7844 20.3583H3.21296V5.62612H26.7844V20.3583Z" fill="#FF3A3A"/>
</g>
</g>
<defs>
<clipPath id="clip0_1409_17214">
<rect width="30" height="30" fill="white"/>
</clipPath>
</defs>
</svg>
