<svg width="30" height="30" viewBox="0 0 30 30" fill="none" xmlns="http://www.w3.org/2000/svg">
<g id="PieChart" clip-path="url(#clip0_1409_17184)">
<path id="Vector" d="M26.7855 15.1997H14.7989V3.21307C14.7989 3.06575 14.6783 2.94521 14.531 2.94521H13.6605C11.9016 2.94233 10.1596 3.28725 8.53459 3.96013C6.90957 4.63301 5.43364 5.62056 4.19171 6.86597C2.96863 8.08526 1.99411 9.53057 1.32229 11.1216C0.623196 12.7717 0.264467 14.546 0.267598 16.3381C0.264718 18.0969 0.609639 19.8389 1.28252 21.4639C1.95539 23.089 2.94295 24.5649 4.18836 25.8068C5.41715 27.0356 6.85019 28.0033 8.44394 28.6762C10.0941 29.3753 11.8684 29.7341 13.6605 29.7309C15.4193 29.7338 17.1613 29.3889 18.7863 28.716C20.4113 28.0431 21.8873 27.0556 23.1292 25.8102C24.358 24.5814 25.3256 23.1483 25.9986 21.5546C26.6977 19.9045 27.0564 18.1302 27.0533 16.3381V15.4675C27.0533 15.3202 26.9328 15.1997 26.7855 15.1997ZM21.4852 24.2332C20.4485 25.2619 19.2189 26.0759 17.867 26.6286C16.5151 27.1813 15.0674 27.4619 13.6069 27.4541C10.6571 27.4408 7.88479 26.2856 5.79885 24.1997C3.69952 22.1003 2.54438 19.3079 2.54438 16.3381C2.54438 13.3682 3.69952 10.5758 5.79885 8.47646C7.62697 6.64834 9.98077 5.53338 12.5221 5.27892V17.4765H24.7196C24.4618 20.0312 23.3368 22.3983 21.4852 24.2332ZM29.7319 13.3381L29.6448 12.3939C29.3602 9.31017 27.9908 6.40057 25.7877 4.20414C23.583 2.00368 20.6794 0.641861 17.5779 0.353695L16.6303 0.266642C16.473 0.253249 16.339 0.373785 16.339 0.531151V13.3916C16.339 13.539 16.4596 13.6595 16.6069 13.6595L29.464 13.626C29.6214 13.626 29.7453 13.4921 29.7319 13.3381ZM18.6091 11.3894V2.79789C20.7183 3.23935 22.6538 4.28389 24.1805 5.80459C25.7107 7.33137 26.7587 9.27334 27.1939 11.366L18.6091 11.3894Z" fill="#FF3A3A"/>
</g>
<defs>
<clipPath id="clip0_1409_17184">
<rect width="30" height="30" fill="white"/>
</clipPath>
</defs>
</svg>
