<svg width="30" height="30" viewBox="0 0 30 30" fill="none" xmlns="http://www.w3.org/2000/svg">
<g id="Rocket">
<path id="Vector" d="M26.7858 22.5022C26.7858 18.7656 24.5961 15.5379 21.4286 14.0346V8.48326C21.4286 7.97768 21.2512 7.48884 20.9231 7.1038L15.8204 1.05357C15.6061 0.799107 15.3014 0.671875 15.0001 0.671875C14.6987 0.671875 14.394 0.799107 14.1798 1.05357L9.07708 7.1038C8.75118 7.48963 8.57212 7.97821 8.5715 8.48326V14.0346C5.40409 15.5379 3.21436 18.7656 3.21436 22.5022H8.45431C8.3773 22.7433 8.33712 23.0045 8.33712 23.2991C8.33712 24.0391 8.59159 24.7623 9.05364 25.3348C9.43079 25.8031 9.93029 26.1577 10.4967 26.3594C11.2702 28.1674 13.028 29.3326 15.0001 29.3326C15.9744 29.3326 16.9186 29.0446 17.7255 28.5022C18.5157 27.9732 19.1284 27.2333 19.5001 26.3594C20.0663 26.159 20.5658 25.8055 20.9432 25.3382C21.4058 24.7604 21.6585 24.0426 21.6597 23.3025C21.6597 23.0212 21.6228 22.7533 21.5559 22.5056H26.7858V22.5022ZM23.3807 18.6652C23.6954 19.154 23.9498 19.6797 24.134 20.2254H21.2947V16.5659C22.1301 17.111 22.8409 17.8264 23.3807 18.6652ZM10.8483 14.0346V8.53348L15.0001 3.61161L19.1519 8.53348V20.2254H10.8483V14.0346ZM5.86614 20.2254C6.05029 19.6797 6.30476 19.154 6.61949 18.6652C7.16525 17.8214 7.87507 17.1083 8.70543 16.5659V20.2254H5.86614ZM18.8873 24.1161C18.7132 24.2165 18.5123 24.2567 18.3148 24.2299L17.6619 24.1496L17.5682 24.7991C17.3873 26.0681 16.2824 27.0257 15.0001 27.0257C13.7177 27.0257 12.6128 26.0681 12.432 24.7991L12.3382 24.1462L11.6853 24.2299C11.4868 24.2536 11.286 24.2125 11.1128 24.1127C10.8215 23.9453 10.6407 23.6339 10.6407 23.2958C10.6407 22.9409 10.8382 22.6462 11.1295 22.4989H18.874C19.1686 22.6496 19.3628 22.9442 19.3628 23.2958C19.3594 23.6373 19.1786 23.952 18.8873 24.1161ZM13.3929 11.2522C13.3929 11.6785 13.5623 12.0873 13.8636 12.3887C14.165 12.6901 14.5738 12.8594 15.0001 12.8594C15.4263 12.8594 15.8351 12.6901 16.1365 12.3887C16.4379 12.0873 16.6072 11.6785 16.6072 11.2522C16.6072 10.826 16.4379 10.4172 16.1365 10.1158C15.8351 9.81441 15.4263 9.64509 15.0001 9.64509C14.5738 9.64509 14.165 9.81441 13.8636 10.1158C13.5623 10.4172 13.3929 10.826 13.3929 11.2522Z" fill="#FF3A3A"/>
</g>
</svg>
