<svg width="33" height="32" viewBox="0 0 33 32" fill="none" xmlns="http://www.w3.org/2000/svg">
<g id="icons8-airplane-take-off 3">
<path id="Vector" d="M28.2814 4.87562C27.9001 4.88382 27.5214 4.97396 27.1671 5.13235C27.1283 5.1377 27.0904 5.14874 27.0548 5.16512L18.2192 9.23839L8.85849 5.66297C8.80851 5.6437 8.75517 5.63468 8.70164 5.63644C8.64837 5.63827 8.596 5.65074 8.54763 5.67312C8.49925 5.6955 8.45584 5.72734 8.41995 5.76675L7.07468 7.24389C7.03745 7.28479 7.00911 7.33297 6.99147 7.38538C6.97382 7.43779 6.96724 7.4933 6.97216 7.54838C6.97707 7.60347 6.99337 7.65693 7.02002 7.70539C7.04666 7.75385 7.08308 7.79625 7.12696 7.82991L12.4316 11.9071L7.25727 14.2925L4.44266 12.4182C4.37441 12.3728 4.29385 12.3495 4.21191 12.3515C4.12998 12.3534 4.05062 12.3805 3.98461 12.4291L2.34438 13.6363C2.2593 13.6987 2.20237 13.7922 2.18599 13.8964C2.16962 14.0007 2.19514 14.1072 2.25698 14.1926L5.54447 18.7388C5.56283 18.7638 5.58404 18.7866 5.60768 18.8067C5.70628 18.9352 5.81051 19.0614 5.93541 19.175C6.74239 19.9101 7.86389 20.0691 8.82103 19.7001H8.82181C8.86608 19.6959 8.90934 19.6843 8.94979 19.6658L8.9849 19.6494C8.98804 19.6482 8.99116 19.6469 8.99426 19.6455L15.7604 16.5266L15.7573 25.4292C15.7573 25.4842 15.7686 25.5385 15.7905 25.5889C15.8124 25.6392 15.8444 25.6845 15.8846 25.7219C15.9248 25.7594 15.9723 25.7881 16.0241 25.8063C16.0759 25.8246 16.1309 25.8319 16.1857 25.828L18.1942 25.6828C18.2753 25.6769 18.3527 25.6464 18.416 25.5954C18.4793 25.5444 18.5255 25.4752 18.5485 25.3972L22.0022 13.648L29.3505 10.2606C29.4008 10.2373 29.4457 10.2039 29.4823 10.1623C29.8042 10.0113 30.1191 9.82994 30.3742 9.54974C31.4114 8.41126 31.3278 6.63569 30.1893 5.59898C29.7487 5.19812 29.2137 4.96479 28.663 4.89513C28.5362 4.87909 28.4085 4.87289 28.2814 4.87562ZM28.2635 5.67077C28.3622 5.66839 28.461 5.67332 28.5592 5.6856C28.9523 5.73469 29.3348 5.90136 29.6517 6.18968C30.4709 6.93565 30.5298 8.19213 29.7835 9.01132L29.7828 9.0121C29.5696 9.24617 29.315 9.4142 29.036 9.52399C28.987 9.54326 28.9422 9.57205 28.9043 9.60869C28.8665 9.64532 28.8362 9.68909 28.8153 9.73746C28.7944 9.78584 28.7833 9.83787 28.7826 9.89056C28.7819 9.94324 28.7917 9.99555 28.8113 10.0445L28.6708 9.6941L21.5028 12.9988C21.451 13.0226 21.405 13.0572 21.3677 13.1002C21.3304 13.1433 21.3028 13.1938 21.2866 13.2485L17.8603 24.9056L16.5563 25.0001L16.5595 15.9023C16.5594 15.8353 16.5426 15.7694 16.5104 15.7107C16.4782 15.6519 16.4318 15.6022 16.3754 15.566C16.319 15.5299 16.2544 15.5085 16.1876 15.5039C16.1207 15.4992 16.0538 15.5115 15.993 15.5395L8.67589 18.912L8.96929 18.7794L9.14096 19.1219C9.09513 19.0302 9.01578 18.9596 8.91934 18.9247C8.82289 18.8898 8.71673 18.8934 8.62283 18.9346C7.92247 19.2427 7.07774 19.1351 6.47305 18.5843C6.36785 18.4887 6.27532 18.3833 6.19448 18.2706C6.18691 18.2601 6.17884 18.2499 6.17029 18.2402L6.16951 18.2394L3.1364 14.0452L4.23275 13.2383L7.00055 15.0814C7.0574 15.1191 7.12296 15.1417 7.19099 15.1468C7.25901 15.152 7.32723 15.1397 7.38915 15.1111L18.2481 10.1053L18.2972 10.1241L18.3167 10.0733L27.3521 5.90799C27.3694 5.90214 27.3864 5.8951 27.4028 5.88692C27.6723 5.75062 27.9672 5.67789 28.2635 5.67077ZM8.82727 6.50649L17.204 9.70658L13.2509 11.5294L7.958 7.46082L8.82727 6.50649ZM27.1999 8.13658L27.0633 8.17169L27.0274 8.18808L26.8027 8.46665L26.8917 8.8139L27.2225 8.94967L27.3591 8.91456L27.3958 8.89817L27.6197 8.6196L27.5308 8.27236L27.1999 8.13658ZM25.7103 8.81702L25.5737 8.85213L25.537 8.86852L25.3131 9.14787L25.402 9.49434L25.7329 9.63011L25.8695 9.59578L25.9053 9.57861L26.1301 9.30004L26.0411 8.95357L25.7103 8.81702ZM24.2199 9.49746L24.0833 9.53257L24.0474 9.54896L23.8227 9.82831L23.9116 10.1748L24.2425 10.3113L24.379 10.2762L24.4157 10.259L24.6405 9.98047L24.5507 9.63401L24.2199 9.49746ZM22.7302 10.1779L22.5937 10.213L22.557 10.2302L22.333 10.5088L22.422 10.8552L22.7529 10.9918L22.8894 10.9567L22.9253 10.9403L23.15 10.6609L23.0611 10.3145L22.7302 10.1779ZM21.2398 10.8591L21.104 10.8934L21.0674 10.9106L20.8426 11.1892L20.9316 11.5357L21.2632 11.6722L21.399 11.6371L21.4357 11.6207L21.6604 11.3421L21.5715 10.9949L21.2398 10.8591ZM19.7502 11.5396L19.6136 11.5747L19.5777 11.5911L19.353 11.8696L19.442 12.2169L19.7728 12.3526L19.9094 12.3175L19.946 12.3011L20.17 12.0226L20.081 11.6753L19.7502 11.5396ZM18.2598 12.22L18.124 12.2551L18.0873 12.2715L17.8626 12.5501L17.9523 12.8973L18.2832 13.0331L18.4197 12.9988L18.4556 12.9816L18.6804 12.703L18.5914 12.3565L18.2598 12.22ZM16.7701 12.9004L16.6336 12.9355L16.5977 12.9519L16.373 13.2313L16.4619 13.5777L16.7928 13.7143L16.9293 13.6792L16.966 13.662L17.19 13.3834L17.101 13.037L16.7701 12.9004ZM15.2805 13.5809L15.144 13.616L15.1073 13.6332L14.8833 13.9117L14.9723 14.2582L15.3031 14.3947L15.4397 14.3596L15.4756 14.3432L15.7003 14.0639L15.6114 13.7174L15.2805 13.5809ZM13.7901 14.2621L13.6536 14.2964L13.6177 14.3136L13.3929 14.5922L13.4819 14.9386L13.8127 15.0752L13.9493 15.0401L13.986 15.0237L14.2107 14.7443L14.121 14.3979L13.7901 14.2621ZM12.3005 14.9425L12.1639 14.9776L12.1272 14.994L11.9033 15.2726L11.9923 15.6198L12.3231 15.7556L12.4597 15.7205L12.4956 15.7041L12.7203 15.4255L12.6313 15.0783L12.3005 14.9425ZM10.8101 15.623L10.6743 15.6581L10.6376 15.6745L10.4129 15.953L10.5018 16.3003L10.8335 16.4361L10.9693 16.4017L11.0059 16.3846L11.2307 16.106L11.1417 15.7595L10.8101 15.623Z" fill="#9C9C9C"/>
</g>
</svg>
