<svg width="24" height="24" viewBox="0 0 24 24" fill="none" xmlns="http://www.w3.org/2000/svg">
<g id="icons8-hotel-2 1" clip-path="url(#clip0_9075_13264)">
<path id="Vector" d="M9.03865 0.863281C8.65857 0.863281 8.29406 1.01427 8.02531 1.28302C7.75656 1.55177 7.60557 1.91628 7.60557 2.29636V3.72943H7.2473C6.86723 3.72943 6.50272 3.88041 6.23397 4.14917C5.96521 4.41792 5.81423 4.78243 5.81423 5.1625V23.0759H1.87328V10.1783C1.87328 9.98823 1.94877 9.80597 2.08314 9.67159C2.21752 9.53722 2.39977 9.46173 2.58981 9.46173H5.09769C5.19271 9.46173 5.28384 9.42398 5.35103 9.35679C5.41821 9.2896 5.45596 9.19848 5.45596 9.10346C5.45596 9.00844 5.41821 8.91731 5.35103 8.85012C5.28384 8.78293 5.19271 8.74519 5.09769 8.74519H2.58981C2.20974 8.74519 1.84523 8.89617 1.57648 9.16493C1.30772 9.43368 1.15674 9.79819 1.15674 10.1783V23.4342C1.15674 23.5292 1.19448 23.6203 1.26167 23.6875C1.32886 23.7547 1.41999 23.7925 1.51501 23.7925H16.9206C17.0156 23.7925 17.1067 23.7547 17.1739 23.6875C17.2411 23.6203 17.2788 23.5292 17.2788 23.4342V9.46173H20.5032C20.6933 9.46173 20.8755 9.53722 21.0099 9.67159C21.1443 9.80597 21.2198 9.98823 21.2198 10.1783V23.0759H17.9954C17.9003 23.0759 17.8092 23.1137 17.742 23.1809C17.6748 23.2481 17.6371 23.3392 17.6371 23.4342C17.6371 23.5292 17.6748 23.6203 17.742 23.6875C17.8092 23.7547 17.9003 23.7925 17.9954 23.7925H21.578C21.6731 23.7925 21.7642 23.7547 21.8314 23.6875C21.8986 23.6203 21.9363 23.5292 21.9363 23.4342V10.1783C21.9363 9.79819 21.7853 9.43368 21.5166 9.16493C21.2478 8.89617 20.8833 8.74519 20.5032 8.74519H17.2788V5.1625C17.2788 4.78243 17.1278 4.41792 16.8591 4.14917C16.5903 3.88041 16.2258 3.72943 15.8457 3.72943H8.32211V2.29636C8.32211 2.10632 8.3976 1.92406 8.53198 1.78969C8.66635 1.65531 8.84861 1.57982 9.03865 1.57982H14.0544C14.2444 1.57982 14.4267 1.65531 14.5611 1.78969C14.6954 1.92406 14.7709 2.10632 14.7709 2.29636V3.01289C14.7709 3.10791 14.8087 3.19904 14.8759 3.26623C14.9431 3.33341 15.0342 3.37116 15.1292 3.37116C15.2242 3.37116 15.3154 3.33341 15.3825 3.26623C15.4497 3.19904 15.4875 3.10791 15.4875 3.01289V2.29636C15.4875 1.91628 15.3365 1.55177 15.0677 1.28302C14.799 1.01427 14.4345 0.863281 14.0544 0.863281H9.03865ZM7.2473 4.44597H15.8457C16.0358 4.44597 16.218 4.52146 16.3524 4.65584C16.4868 4.79021 16.5623 4.97247 16.5623 5.1625V23.0759H6.53077V5.1625C6.53077 4.97247 6.60626 4.79021 6.74063 4.65584C6.87501 4.52146 7.05727 4.44597 7.2473 4.44597ZM8.32211 5.87904C8.22709 5.87904 8.13596 5.91679 8.06877 5.98397C8.00159 6.05116 7.96384 6.14229 7.96384 6.23731V8.74519C7.96384 8.84021 8.00159 8.93133 8.06877 8.99852C8.13596 9.06571 8.22709 9.10346 8.32211 9.10346H10.83C10.925 9.10346 11.0161 9.06571 11.0833 8.99852C11.1505 8.93133 11.1883 8.84021 11.1883 8.74519V6.23731C11.1883 6.14229 11.1505 6.05116 11.0833 5.98397C11.0161 5.91679 10.925 5.87904 10.83 5.87904H8.32211ZM12.2631 5.87904C12.168 5.87904 12.0769 5.91679 12.0097 5.98397C11.9425 6.05116 11.9048 6.14229 11.9048 6.23731V8.74519C11.9048 8.84021 11.9425 8.93133 12.0097 8.99852C12.0769 9.06571 12.168 9.10346 12.2631 9.10346H14.7709C14.866 9.10346 14.9571 9.06571 15.0243 8.99852C15.0915 8.93133 15.1292 8.84021 15.1292 8.74519V6.23731C15.1292 6.14229 15.0915 6.05116 15.0243 5.98397C14.9571 5.91679 14.866 5.87904 14.7709 5.87904H12.2631ZM8.68038 6.59558H10.4717V8.38692H8.68038V6.59558ZM12.6213 6.59558H14.4127V8.38692H12.6213V6.59558ZM8.32211 9.81999C8.22709 9.81999 8.13596 9.85774 8.06877 9.92493C8.00159 9.99212 7.96384 10.0832 7.96384 10.1783V12.6861C7.96384 12.7812 8.00159 12.8723 8.06877 12.9395C8.13596 13.0067 8.22709 13.0444 8.32211 13.0444H10.83C10.925 13.0444 11.0161 13.0067 11.0833 12.9395C11.1505 12.8723 11.1883 12.7812 11.1883 12.6861V10.1783C11.1883 10.0832 11.1505 9.99212 11.0833 9.92493C11.0161 9.85774 10.925 9.81999 10.83 9.81999H8.32211ZM12.2631 9.81999C12.168 9.81999 12.0769 9.85774 12.0097 9.92493C11.9425 9.99212 11.9048 10.0832 11.9048 10.1783V12.6861C11.9048 12.7812 11.9425 12.8723 12.0097 12.9395C12.0769 13.0067 12.168 13.0444 12.2631 13.0444H14.7709C14.866 13.0444 14.9571 13.0067 15.0243 12.9395C15.0915 12.8723 15.1292 12.7812 15.1292 12.6861V10.1783C15.1292 10.0832 15.0915 9.99212 15.0243 9.92493C14.9571 9.85774 14.866 9.81999 14.7709 9.81999H12.2631ZM8.68038 10.5365H10.4717V12.3279H8.68038V10.5365ZM12.6213 10.5365H14.4127V12.3279H12.6213V10.5365ZM8.32211 13.7609C8.22709 13.7609 8.13596 13.7987 8.06877 13.8659C8.00159 13.9331 7.96384 14.0242 7.96384 14.1192V16.6271C7.96384 16.7221 8.00159 16.8132 8.06877 16.8804C8.13596 16.9476 8.22709 16.9854 8.32211 16.9854H10.83C10.925 16.9854 11.0161 16.9476 11.0833 16.8804C11.1505 16.8132 11.1883 16.7221 11.1883 16.6271V14.1192C11.1883 14.0242 11.1505 13.9331 11.0833 13.8659C11.0161 13.7987 10.925 13.7609 10.83 13.7609H8.32211ZM12.2631 13.7609C12.168 13.7609 12.0769 13.7987 12.0097 13.8659C11.9425 13.9331 11.9048 14.0242 11.9048 14.1192V16.6271C11.9048 16.7221 11.9425 16.8132 12.0097 16.8804C12.0769 16.9476 12.168 16.9854 12.2631 16.9854H14.7709C14.866 16.9854 14.9571 16.9476 15.0243 16.8804C15.0915 16.8132 15.1292 16.7221 15.1292 16.6271V14.1192C15.1292 14.0242 15.0915 13.9331 15.0243 13.8659C14.9571 13.7987 14.866 13.7609 14.7709 13.7609H12.2631ZM8.68038 14.4775H10.4717V16.2688H8.68038V14.4775ZM12.6213 14.4775H14.4127V16.2688H12.6213V14.4775ZM8.32211 18.0602C8.22709 18.0602 8.13596 18.0979 8.06877 18.1651C8.00159 18.2323 7.96384 18.3234 7.96384 18.4184V19.8515C7.96384 19.9465 8.00159 20.0377 8.06877 20.1048C8.13596 20.172 8.22709 20.2098 8.32211 20.2098H9.03865V22.3594C9.03865 22.4544 9.07639 22.5455 9.14358 22.6127C9.21077 22.6799 9.3019 22.7177 9.39691 22.7177C9.49193 22.7177 9.58306 22.6799 9.65025 22.6127C9.71744 22.5455 9.75518 22.4544 9.75518 22.3594V20.2098H11.1883V22.3594C11.1883 22.4544 11.226 22.5455 11.2932 22.6127C11.3604 22.6799 11.4515 22.7177 11.5465 22.7177C11.6415 22.7177 11.7327 22.6799 11.7999 22.6127C11.867 22.5455 11.9048 22.4544 11.9048 22.3594V20.2098H13.3379V22.3594C13.3379 22.4544 13.3756 22.5455 13.4428 22.6127C13.51 22.6799 13.6011 22.7177 13.6961 22.7177C13.7912 22.7177 13.8823 22.6799 13.9495 22.6127C14.0167 22.5455 14.0544 22.4544 14.0544 22.3594V20.2098H14.7709C14.866 20.2098 14.9571 20.172 15.0243 20.1048C15.0915 20.0377 15.1292 19.9465 15.1292 19.8515V18.4184C15.1292 18.3234 15.0915 18.2323 15.0243 18.1651C14.9571 18.0979 14.866 18.0602 14.7709 18.0602H8.32211ZM8.68038 18.7767H14.4127V19.4932H8.68038V18.7767Z" fill="#9C9C9C"/>
</g>
<defs>
<clipPath id="clip0_9075_13264">
<rect width="22.9292" height="22.9292" fill="white" transform="translate(0.0820312 0.863281)"/>
</clipPath>
</defs>
</svg>
