<svg width="70" height="64" viewBox="0 0 70 64" fill="none" xmlns="http://www.w3.org/2000/svg">
<g clip-path="url(#clip0_4806_19142)">
<path d="M43.0964 21.5219C42.6584 21.2969 40.4767 20.2282 40.0709 20.0835C39.6651 19.9309 39.3678 19.8585 39.0745 20.3085C38.7772 20.7545 37.9334 21.7469 37.6682 22.0483C37.4111 22.3456 37.1499 22.3818 36.712 22.1608C34.1084 20.859 32.4008 19.8384 30.6852 16.8934C30.2312 16.1099 31.1392 16.1661 31.987 14.4746C32.1316 14.1773 32.0593 13.9242 31.9468 13.6992C31.8343 13.4742 30.9504 11.2965 30.5807 10.4085C30.2231 9.5447 29.8535 9.66523 29.5843 9.64916C29.3272 9.63309 29.0339 9.63309 28.7365 9.63309C28.4392 9.63309 27.9611 9.74559 27.5553 10.1835C27.1495 10.6295 26.0044 11.7023 26.0044 13.88C26.0044 16.0576 27.5914 18.167 27.8084 18.4643C28.0334 18.7617 30.9303 23.2295 35.3781 25.1541C38.1906 26.3675 39.2914 26.4719 40.6977 26.263C41.5535 26.1344 43.3173 25.1943 43.683 24.1536C44.0486 23.117 44.0486 22.2291 43.9401 22.0443C43.8316 21.8474 43.5343 21.7349 43.0964 21.5219Z" fill="#595959"/>
<path d="M51.602 11.025C50.694 8.86741 49.3922 6.9308 47.7328 5.26741C46.0851 3.61365 44.1289 2.29911 41.9752 1.39821C39.7654 0.470089 37.419 0 35.0002 0H34.9199C32.4851 0.0120536 30.1266 0.494196 27.9087 1.44241C25.7734 2.35254 23.8357 3.66942 22.2034 5.31964C20.56 6.97902 19.2703 8.90759 18.3784 11.0571C17.4542 13.283 16.9882 15.6496 17.0002 18.0844C17.0139 20.8747 17.674 23.6238 18.9288 26.1161V32.2232C18.9288 32.7134 19.1235 33.1835 19.4701 33.5301C19.8167 33.8767 20.2868 34.0714 20.777 34.0714H26.8882C29.3804 35.3262 32.1296 35.9864 34.9199 36H35.0042C37.4109 36 39.7453 35.5339 41.9431 34.6219C44.0859 33.7317 46.0347 32.4325 47.6806 30.7969C49.34 29.1536 50.6458 27.233 51.5578 25.0915C52.506 22.8737 52.9882 20.5152 53.0002 18.0804C53.0123 15.6335 52.5382 13.2589 51.602 11.025ZM45.531 28.6232C42.7145 31.4116 38.9779 32.9464 35.0002 32.9464H34.9319C32.5092 32.9344 30.1025 32.3317 27.977 31.1987L27.6395 31.0179H21.9824V25.3607L21.8016 25.0232C20.6685 22.8978 20.0659 20.4911 20.0538 18.0683C20.0377 14.0625 21.5685 10.3018 24.377 7.4692C27.1815 4.63661 30.9301 3.06964 34.9359 3.05357H35.0042C37.0132 3.05357 38.9618 3.4433 40.798 4.21473C42.59 4.96607 44.1971 6.04687 45.5792 7.42902C46.9574 8.80714 48.0422 10.4183 48.7935 12.2103C49.573 14.0665 49.9627 16.0353 49.9547 18.0683C49.9306 22.0701 48.3596 25.8188 45.531 28.6232Z" fill="#595959"/>
</g>
<path d="M4.04297 56.7773L6.15967 49.3359H7.18506L6.5918 52.229L4.31396 60H3.2959L4.04297 56.7773ZM1.85303 49.3359L3.5376 56.6309L4.04297 60H3.03223L0.446777 49.3359H1.85303ZM9.92432 56.6235L11.5723 49.3359H12.9858L10.4077 60H9.39697L9.92432 56.6235ZM7.33887 49.3359L9.39697 56.7773L10.144 60H9.12598L6.92871 52.229L6.32812 49.3359H7.33887ZM15.7031 48.75V60H14.3481V48.75H15.7031ZM15.3809 55.7373L14.8169 55.7153C14.8218 55.1733 14.9023 54.6729 15.0586 54.2139C15.2148 53.75 15.4346 53.3472 15.7178 53.0054C16.001 52.6636 16.3379 52.3999 16.7285 52.2144C17.124 52.0239 17.561 51.9287 18.0396 51.9287C18.4302 51.9287 18.7817 51.9824 19.0942 52.0898C19.4067 52.1924 19.6729 52.3584 19.8926 52.5879C20.1172 52.8174 20.2881 53.1152 20.4053 53.4814C20.5225 53.8428 20.5811 54.2847 20.5811 54.8071V60H19.2188V54.7925C19.2188 54.3774 19.1577 54.0454 19.0356 53.7964C18.9136 53.5425 18.7354 53.3594 18.501 53.2471C18.2666 53.1299 17.9785 53.0713 17.6367 53.0713C17.2998 53.0713 16.9922 53.1421 16.7139 53.2837C16.4404 53.4253 16.2036 53.6206 16.0034 53.8696C15.8081 54.1187 15.6543 54.4043 15.542 54.7266C15.4346 55.0439 15.3809 55.3809 15.3809 55.7373ZM27.2827 58.645V54.5654C27.2827 54.2529 27.2192 53.9819 27.0923 53.7524C26.9702 53.5181 26.7847 53.3374 26.5356 53.2104C26.2866 53.0835 25.979 53.02 25.6128 53.02C25.271 53.02 24.9707 53.0786 24.7119 53.1958C24.458 53.313 24.2578 53.4668 24.1113 53.6572C23.9697 53.8477 23.8989 54.0527 23.8989 54.2725H22.5439C22.5439 53.9893 22.6172 53.7085 22.7637 53.4302C22.9102 53.1519 23.1201 52.9004 23.3936 52.6758C23.6719 52.4463 24.0039 52.2656 24.3896 52.1338C24.7803 51.9971 25.2148 51.9287 25.6934 51.9287C26.2695 51.9287 26.7773 52.0264 27.2168 52.2217C27.6611 52.417 28.0078 52.7124 28.2568 53.1079C28.5107 53.4985 28.6377 53.9893 28.6377 54.5801V58.2715C28.6377 58.5352 28.6597 58.8159 28.7036 59.1138C28.7524 59.4116 28.8232 59.668 28.916 59.8828V60H27.5024C27.4341 59.8438 27.3804 59.6362 27.3413 59.3774C27.3022 59.1138 27.2827 58.8696 27.2827 58.645ZM27.5171 55.1953L27.5317 56.1475H26.1621C25.7764 56.1475 25.4321 56.1792 25.1294 56.2427C24.8267 56.3013 24.5728 56.3916 24.3677 56.5137C24.1626 56.6357 24.0063 56.7896 23.8989 56.9751C23.7915 57.1558 23.7378 57.3682 23.7378 57.6123C23.7378 57.8613 23.7939 58.0884 23.9062 58.2935C24.0186 58.4985 24.187 58.6621 24.4116 58.7842C24.6411 58.9014 24.9219 58.96 25.2539 58.96C25.6689 58.96 26.0352 58.8721 26.3525 58.6963C26.6699 58.5205 26.9214 58.3057 27.1069 58.0518C27.2974 57.7979 27.3999 57.5513 27.4146 57.312L27.9932 57.9639C27.959 58.1689 27.8662 58.396 27.7148 58.645C27.5635 58.894 27.3608 59.1333 27.1069 59.3628C26.8579 59.5874 26.5601 59.7754 26.2134 59.9268C25.8716 60.0732 25.4858 60.1465 25.0562 60.1465C24.519 60.1465 24.0479 60.0415 23.6426 59.8315C23.2422 59.6216 22.9297 59.3408 22.7051 58.9893C22.4854 58.6328 22.3755 58.2349 22.3755 57.7954C22.3755 57.3706 22.4585 56.9971 22.6245 56.6748C22.7905 56.3477 23.0298 56.0767 23.3423 55.8618C23.6548 55.6421 24.0308 55.4761 24.4702 55.3638C24.9097 55.2515 25.4004 55.1953 25.9424 55.1953H27.5171ZM34.0869 52.0752V53.1152H29.8022V52.0752H34.0869ZM31.2524 50.1489H32.6074V58.0371C32.6074 58.3057 32.6489 58.5083 32.7319 58.645C32.8149 58.7817 32.9224 58.8721 33.0542 58.916C33.186 58.96 33.3276 58.9819 33.479 58.9819C33.5913 58.9819 33.7085 58.9722 33.8306 58.9526C33.9575 58.9282 34.0527 58.9087 34.1162 58.894L34.1235 60C34.0161 60.0342 33.8745 60.0659 33.6987 60.0952C33.5278 60.1294 33.3203 60.1465 33.0762 60.1465C32.7441 60.1465 32.439 60.0806 32.1606 59.9487C31.8823 59.8169 31.6602 59.5972 31.4941 59.2896C31.333 58.9771 31.2524 58.5571 31.2524 58.0298V50.1489ZM40.2905 57.8979C40.2905 57.7026 40.2466 57.522 40.1587 57.356C40.0757 57.1851 39.9023 57.0312 39.6387 56.8945C39.3799 56.7529 38.9893 56.6309 38.4668 56.5283C38.0273 56.4355 37.6294 56.3257 37.2729 56.1987C36.9214 56.0718 36.6211 55.918 36.3721 55.7373C36.1279 55.5566 35.9399 55.3442 35.8081 55.1001C35.6763 54.856 35.6104 54.5703 35.6104 54.2432C35.6104 53.9307 35.6787 53.6353 35.8154 53.3569C35.957 53.0786 36.1548 52.832 36.4087 52.6172C36.6675 52.4023 36.9775 52.2339 37.3389 52.1118C37.7002 51.9897 38.103 51.9287 38.5474 51.9287C39.1821 51.9287 39.7241 52.041 40.1733 52.2656C40.6226 52.4902 40.9668 52.7905 41.2061 53.1665C41.4453 53.5376 41.5649 53.9502 41.5649 54.4043H40.21C40.21 54.1846 40.144 53.9722 40.0122 53.7671C39.8853 53.5571 39.6973 53.3838 39.4482 53.2471C39.2041 53.1104 38.9038 53.042 38.5474 53.042C38.1714 53.042 37.8662 53.1006 37.6318 53.2178C37.4023 53.3301 37.2339 53.4741 37.1265 53.6499C37.0239 53.8257 36.9727 54.0112 36.9727 54.2065C36.9727 54.353 36.9971 54.4849 37.0459 54.6021C37.0996 54.7144 37.1924 54.8193 37.3242 54.917C37.4561 55.0098 37.6416 55.0977 37.8809 55.1807C38.1201 55.2637 38.4253 55.3467 38.7964 55.4297C39.4458 55.5762 39.9805 55.752 40.4004 55.957C40.8203 56.1621 41.1328 56.4136 41.3379 56.7114C41.543 57.0093 41.6455 57.3706 41.6455 57.7954C41.6455 58.1421 41.5723 58.4595 41.4258 58.7476C41.2842 59.0356 41.0767 59.2847 40.8032 59.4946C40.5347 59.6997 40.2124 59.8608 39.8364 59.978C39.4653 60.0903 39.0479 60.1465 38.584 60.1465C37.8857 60.1465 37.2949 60.022 36.8115 59.7729C36.3281 59.5239 35.9619 59.2017 35.7129 58.8062C35.4639 58.4106 35.3394 57.9932 35.3394 57.5537H36.7017C36.7212 57.9248 36.8286 58.2202 37.0239 58.4399C37.2192 58.6548 37.4585 58.8086 37.7417 58.9014C38.0249 58.9893 38.3057 59.0332 38.584 59.0332C38.9551 59.0332 39.2651 58.9844 39.5142 58.8867C39.7681 58.7891 39.9609 58.6548 40.0928 58.4839C40.2246 58.313 40.2905 58.1177 40.2905 57.8979ZM47.5781 50.2808L44.0479 60H42.605L46.6699 49.3359H47.6001L47.5781 50.2808ZM50.5371 60L46.9995 50.2808L46.9775 49.3359H47.9077L51.9873 60H50.5371ZM50.354 56.0522V57.2095H44.3628V56.0522H50.354ZM54.5654 53.5986V63.0469H53.2031V52.0752H54.4482L54.5654 53.5986ZM59.9048 55.9717V56.1255C59.9048 56.7017 59.8364 57.2363 59.6997 57.7295C59.563 58.2178 59.3628 58.6426 59.0991 59.0039C58.8403 59.3652 58.5205 59.646 58.1396 59.8462C57.7588 60.0464 57.3218 60.1465 56.8286 60.1465C56.3257 60.1465 55.8813 60.0635 55.4956 59.8975C55.1099 59.7314 54.7827 59.4897 54.5142 59.1724C54.2456 58.855 54.0308 58.4741 53.8696 58.0298C53.7134 57.5854 53.606 57.085 53.5474 56.5283V55.708C53.606 55.1221 53.7158 54.5972 53.877 54.1333C54.0381 53.6694 54.2505 53.2739 54.5142 52.9468C54.7827 52.6147 55.1074 52.3633 55.4883 52.1924C55.8691 52.0166 56.3086 51.9287 56.8066 51.9287C57.3047 51.9287 57.7466 52.0264 58.1323 52.2217C58.5181 52.4121 58.8428 52.6855 59.1064 53.042C59.3701 53.3984 59.5679 53.8257 59.6997 54.3237C59.8364 54.8169 59.9048 55.3662 59.9048 55.9717ZM58.5425 56.1255V55.9717C58.5425 55.5762 58.501 55.2051 58.418 54.8584C58.335 54.5068 58.2056 54.1992 58.0298 53.9355C57.8589 53.667 57.6392 53.457 57.3706 53.3057C57.1021 53.1494 56.7822 53.0713 56.4111 53.0713C56.0693 53.0713 55.7715 53.1299 55.5176 53.2471C55.2686 53.3643 55.0562 53.5229 54.8804 53.7231C54.7046 53.9185 54.5605 54.1431 54.4482 54.397C54.3408 54.646 54.2603 54.9048 54.2065 55.1733V57.0703C54.3042 57.4121 54.4409 57.7344 54.6167 58.0371C54.7925 58.335 55.0269 58.5767 55.3198 58.7622C55.6128 58.9429 55.9814 59.0332 56.4258 59.0332C56.792 59.0332 57.1069 58.9575 57.3706 58.8062C57.6392 58.6499 57.8589 58.4375 58.0298 58.1689C58.2056 57.9004 58.335 57.5928 58.418 57.2461C58.501 56.8945 58.5425 56.521 58.5425 56.1255ZM62.9883 53.5986V63.0469H61.626V52.0752H62.8711L62.9883 53.5986ZM68.3276 55.9717V56.1255C68.3276 56.7017 68.2593 57.2363 68.1226 57.7295C67.9858 58.2178 67.7856 58.6426 67.522 59.0039C67.2632 59.3652 66.9434 59.646 66.5625 59.8462C66.1816 60.0464 65.7446 60.1465 65.2515 60.1465C64.7485 60.1465 64.3042 60.0635 63.9185 59.8975C63.5327 59.7314 63.2056 59.4897 62.937 59.1724C62.6685 58.855 62.4536 58.4741 62.2925 58.0298C62.1362 57.5854 62.0288 57.085 61.9702 56.5283V55.708C62.0288 55.1221 62.1387 54.5972 62.2998 54.1333C62.4609 53.6694 62.6733 53.2739 62.937 52.9468C63.2056 52.6147 63.5303 52.3633 63.9111 52.1924C64.292 52.0166 64.7314 51.9287 65.2295 51.9287C65.7275 51.9287 66.1694 52.0264 66.5552 52.2217C66.9409 52.4121 67.2656 52.6855 67.5293 53.042C67.793 53.3984 67.9907 53.8257 68.1226 54.3237C68.2593 54.8169 68.3276 55.3662 68.3276 55.9717ZM66.9653 56.1255V55.9717C66.9653 55.5762 66.9238 55.2051 66.8408 54.8584C66.7578 54.5068 66.6284 54.1992 66.4526 53.9355C66.2817 53.667 66.062 53.457 65.7935 53.3057C65.5249 53.1494 65.2051 53.0713 64.834 53.0713C64.4922 53.0713 64.1943 53.1299 63.9404 53.2471C63.6914 53.3643 63.479 53.5229 63.3032 53.7231C63.1274 53.9185 62.9834 54.1431 62.8711 54.397C62.7637 54.646 62.6831 54.9048 62.6294 55.1733V57.0703C62.7271 57.4121 62.8638 57.7344 63.0396 58.0371C63.2153 58.335 63.4497 58.5767 63.7427 58.7622C64.0356 58.9429 64.4043 59.0332 64.8486 59.0332C65.2148 59.0332 65.5298 58.9575 65.7935 58.8062C66.062 58.6499 66.2817 58.4375 66.4526 58.1689C66.6284 57.9004 66.7578 57.5928 66.8408 57.2461C66.9238 56.8945 66.9653 56.521 66.9653 56.1255Z" fill="#595959"/>
<defs>
<clipPath id="clip0_4806_19142">
<rect width="36" height="36" fill="white" transform="translate(17)"/>
</clipPath>
</defs>
</svg>
