<?xml version="1.0" encoding="utf-8"?>
<!-- Generator: Adobe Illustrator 28.1.0, SVG Export Plug-In . SVG Version: 6.00 Build 0)  -->
<svg version="1.1" id="Layer_1" xmlns="http://www.w3.org/2000/svg" xmlns:xlink="http://www.w3.org/1999/xlink" x="0px" y="0px"
	 viewBox="0 0 140 54.34" style="enable-background:new 0 0 140 54.34;" xml:space="preserve">
<style type="text/css">
	.st0{fill:url(#SVGID_1_);}
	.st1{fill:#010101;}
	.st2{font-family:'MyriadPro-Regular';}
	.st3{font-size:12px;}
</style>
<g>
	<g>
		<g>
			<linearGradient id="SVGID_1_" gradientUnits="userSpaceOnUse" x1="22.9116" y1="36.7739" x2="33.8119" y2="30.4806">
				<stop  offset="0" style="stop-color:#010101"/>
				<stop  offset="1" style="stop-color:#000000;stop-opacity:0"/>
			</linearGradient>
			<path class="st0" d="M34.24,32.39v6.03H23.86V28.04h6.03C32.29,28.04,34.24,29.99,34.24,32.39z"/>
			<path class="st1" d="M45.64,16.64v17.96h-7.57v-5.6c0-2.64-2.14-4.77-4.78-4.77h-5.6v-7.58H45.64z"/>
		</g>
		<g>
			<path class="st1" d="M57.41,16.72c3.58,0,5.02,0.52,6.25,1.46c1.55,1.26,2.41,3.32,2.41,5.42s-0.89,4.27-2.24,5.36
				c-1.43,1.18-2.87,1.69-5.96,1.69h-2.61v7.28h-4.27V16.72H57.41z M55.26,26.9h2.52c0.97,0,1.92-0.09,2.78-0.54
				c0.77-0.4,1.4-1.35,1.4-2.69c0-1.35-0.63-2.24-1.46-2.64c-0.86-0.46-1.83-0.54-2.89-0.54h-2.35V26.9z"/>
			<path class="st1" d="M70.22,31.31c0.17,2.52,2.41,3.93,4.56,3.9c1.83,0,3.07-0.83,3.78-2.12h3.87c-0.75,1.75-1.86,3.07-3.18,3.96
				c-1.32,0.92-2.87,1.38-4.5,1.38c-4.84,0-8.31-3.93-8.31-8.31c0-4.47,3.5-8.4,8.25-8.4c2.35,0,4.41,0.89,5.88,2.41
				c1.92,1.98,2.64,4.44,2.32,7.19H70.22z M79.19,28.44c-0.14-1.49-1.72-3.58-4.47-3.55c-2.78,0-4.3,2.01-4.44,3.55H79.19z"/>
			<path class="st1" d="M85.58,16.72h3.75v11.47l5.42-5.99h4.5l-6.54,6.94l6.56,8.8h-4.3l-5.65-7.85v7.85h-3.75V16.72z"/>
			<path class="st1" d="M99.28,30.02c0-4.01,2.95-8.28,8.43-8.28s8.43,4.27,8.43,8.31c0,4.07-2.95,8.34-8.43,8.34
				s-8.43-4.27-8.43-8.34V30.02z M103.04,30.08c0,2.75,2.09,4.79,4.67,4.79c2.58,0,4.64-2.04,4.64-4.82c0-2.78-2.06-4.82-4.64-4.82
				c-2.58,0-4.67,2.04-4.67,4.82V30.08z"/>
		</g>
	</g>
	<text transform="matrix(1 0 0 1 116.1378 24.8904)" class="st2 st3">®</text>
</g>
</svg>
