<svg width="5" height="20" viewBox="0 0 5 20" fill="none" xmlns="http://www.w3.org/2000/svg">
<path d="M2.165 11.4201C2.75745 11.4201 3.23772 10.9398 3.23772 10.3474C3.23772 9.75493 2.75745 9.27466 2.165 9.27466C1.57256 9.27466 1.09229 9.75493 1.09229 10.3474C1.09229 10.9398 1.57256 11.4201 2.165 11.4201Z" stroke="#344054" stroke-width="2.14544" stroke-linecap="round" stroke-linejoin="round"/>
<path d="M2.165 3.91106C2.75745 3.91106 3.23772 3.43079 3.23772 2.83834C3.23772 2.2459 2.75745 1.76562 2.165 1.76562C1.57256 1.76562 1.09229 2.2459 1.09229 2.83834C1.09229 3.43079 1.57256 3.91106 2.165 3.91106Z" stroke="#344054" stroke-width="2.14544" stroke-linecap="round" stroke-linejoin="round"/>
<path d="M2.165 18.9291C2.75745 18.9291 3.23772 18.4489 3.23772 17.8564C3.23772 17.264 2.75745 16.7837 2.165 16.7837C1.57256 16.7837 1.09229 17.264 1.09229 17.8564C1.09229 18.4489 1.57256 18.9291 2.165 18.9291Z" stroke="#344054" stroke-width="2.14544" stroke-linecap="round" stroke-linejoin="round"/>
</svg>
