<svg width="56" height="28" viewBox="0 0 56 28" fill="none" xmlns="http://www.w3.org/2000/svg">
<rect x="0.907471" y="0.617188" width="54.1532" height="26.6952" rx="3.56137" fill="white"/>
<path d="M18.4817 12.1292C18.3275 12.1292 18.1704 12.0914 18.0253 12.0098C17.5735 11.7574 17.4133 11.1862 17.6656 10.7344L20.5913 5.50568C21.3061 4.23175 22.6389 3.44141 24.0716 3.44141H30.1541C30.6709 3.44141 31.0909 3.86 31.0909 4.37834C31.0909 4.89667 30.6724 5.31527 30.1541 5.31527H24.0716C23.3159 5.31527 22.6087 5.73991 22.2264 6.42146L19.3007 11.6502C19.1285 11.9569 18.8111 12.1292 18.4832 12.1292H18.4817Z" fill="#121212"/>
<path d="M31.3133 24.711H25.5104C24.9936 24.711 24.5735 24.2924 24.5735 23.774C24.5735 23.2557 24.9921 22.8371 25.5104 22.8371H31.3133C32.0553 22.8371 32.755 22.4261 33.1388 21.7642L36.2836 16.3602C36.5435 15.9129 37.1163 15.7618 37.5636 16.0217C38.0109 16.2816 38.162 16.8559 37.9021 17.3017L34.7588 22.7057C34.041 23.9418 32.7203 24.711 31.3133 24.711Z" fill="#121212"/>
<path d="M18.2774 17.1539L23.1434 8.46308C23.5756 7.69086 24.375 7.21484 25.2379 7.21484H35.0968C36.9646 7.21484 38.1268 9.30328 37.1868 10.9656L32.2739 19.6564C31.8402 20.4241 31.0438 20.8956 30.184 20.8956H20.3734C18.5101 20.8956 17.3465 18.8162 18.2789 17.1524L18.2774 17.1539Z" fill="#121212"/>
</svg>
