<svg width="31" height="31" viewBox="0 0 31 31" fill="none" xmlns="http://www.w3.org/2000/svg">
<path d="M27.6099 7.84545V14.2459C27.6099 15.8398 27.0828 17.1826 26.1416 18.1113C25.2129 19.0526 23.87 19.5796 22.2762 19.5796V21.8512C22.2762 22.7046 21.3224 23.2192 20.6196 22.7423L19.4022 21.939C19.5152 21.55 19.5654 21.1233 19.5654 20.6715V15.5637C19.5654 13.0035 17.8586 11.2967 15.2984 11.2967H6.77695C6.60125 11.2967 6.43811 11.3093 6.27496 11.3218V7.84545C6.27496 4.64521 8.40846 2.51172 11.6087 2.51172H22.2762C25.4764 2.51172 27.6099 4.64521 27.6099 7.84545Z" stroke="#9C9DA1" stroke-width="1.88249" stroke-miterlimit="10" stroke-linecap="round" stroke-linejoin="round"/>
<path d="M19.5654 15.5639V20.6717C19.5654 21.1235 19.5152 21.5502 19.4023 21.9392C18.9379 23.7841 17.4068 24.9387 15.2984 24.9387H11.8848L8.09474 27.4612C7.52999 27.8503 6.77699 27.4361 6.77699 26.7584V24.9387C5.49689 24.9387 4.43016 24.512 3.68971 23.7715C2.93671 23.0185 2.51001 21.9518 2.51001 20.6717V15.5639C2.51001 13.1794 3.99091 11.5353 6.275 11.322C6.43815 11.3094 6.60129 11.2969 6.77699 11.2969H15.2984C17.8586 11.2969 19.5654 13.0037 19.5654 15.5639Z" stroke="#9C9DA1" stroke-width="1.88249" stroke-miterlimit="10" stroke-linecap="round" stroke-linejoin="round"/>
</svg>
