<svg width="313" height="165" viewBox="0 0 313 165" fill="none" xmlns="http://www.w3.org/2000/svg">
<g clip-path="url(#clip0_180_691)">
<path d="M254.686 157.24C254.386 157.24 254.144 156.997 254.144 156.697V107.717C254.144 107.417 254.386 107.174 254.686 107.174C254.986 107.174 255.228 107.417 255.228 107.717V156.697C255.228 156.997 254.986 157.24 254.686 157.24Z" fill="#222433"/>
<path d="M275.903 104.036L285.692 63.3366C286.664 59.3432 284.219 55.3178 280.23 54.3432C279.654 54.2023 279.063 54.1313 278.47 54.1313H262.85C259.85 54.1313 257.194 56.0713 256.277 58.931L243.983 97.3164" fill="white"/>
<path d="M275.902 104.579C275.86 104.579 275.818 104.575 275.775 104.564C275.485 104.494 275.305 104.201 275.375 103.909L285.164 63.2094C286.064 59.5114 283.793 55.7712 280.1 54.8699C279.567 54.7393 279.017 54.674 278.468 54.6729H262.849C260.074 54.6729 257.64 56.4503 256.792 59.0957L244.498 97.48C244.406 97.7651 244.102 97.9232 243.816 97.8316C243.531 97.74 243.374 97.4342 243.466 97.149L255.759 58.7648C256.752 55.6681 259.6 53.5884 262.849 53.5884H278.468C279.104 53.5884 279.739 53.6651 280.356 53.8163C284.629 54.8596 287.258 59.1885 286.216 63.4659L276.428 104.165C276.368 104.413 276.146 104.58 275.901 104.58L275.902 104.579Z" fill="#222433"/>
<path d="M275.913 104.005C275.261 106.105 273.304 107.629 270.992 107.629H237.618C235.152 107.629 232.872 106.311 231.641 104.172L229.31 100.123C228.601 98.8921 229.466 97.3231 230.886 97.314H265.604" fill="white"/>
<path d="M270.992 108.172H237.618C234.965 108.172 232.496 106.743 231.171 104.443L228.84 100.395C228.404 99.6376 228.404 98.7318 228.84 97.9713C229.267 97.2258 230.031 96.778 230.882 96.7734H265.604C265.904 96.7734 266.147 97.0162 266.147 97.3163C266.147 97.6163 265.904 97.8591 265.604 97.8591H230.916L230.885 97.3163L230.888 97.8591C230.427 97.8614 230.013 98.1065 229.779 98.5119C229.538 98.9333 229.537 99.4349 229.778 99.8541L232.109 103.902C233.241 105.868 235.351 107.087 237.617 107.087H270.991C273.022 107.087 274.791 105.784 275.394 103.845C275.484 103.559 275.787 103.4 276.073 103.488C276.359 103.577 276.518 103.881 276.43 104.167C275.685 106.563 273.499 108.172 270.991 108.172H270.992Z" fill="#222433"/>
<path d="M246.877 156.698V107.718H254.686L254.683 156.903H263.401C267.014 156.903 269.941 159.836 269.94 163.451V163.631H231.621V163.451C231.621 159.836 234.548 156.904 238.16 156.903H246.878" fill="white"/>
<path d="M269.941 164.173H231.623C231.323 164.173 231.08 163.93 231.08 163.63V163.45C231.08 159.542 234.256 156.36 238.161 156.359H246.336V107.717C246.336 107.417 246.578 107.174 246.878 107.174H254.687C254.831 107.174 254.969 107.232 255.07 107.333C255.172 107.435 255.229 107.573 255.229 107.717L255.227 156.359H263.402C265.294 156.359 267.072 157.098 268.41 158.437C269.748 159.776 270.484 161.556 270.484 163.45V163.63C270.484 163.93 270.241 164.173 269.941 164.173ZM232.175 163.087H269.389C269.303 161.62 268.691 160.253 267.643 159.204C266.511 158.07 265.005 157.445 263.402 157.444H254.685C254.541 157.444 254.403 157.386 254.301 157.284C254.2 157.183 254.142 157.045 254.142 156.901L254.145 108.259H247.419V156.696C247.419 156.729 247.416 156.762 247.41 156.793C247.417 156.828 247.42 156.863 247.42 156.9C247.42 157.2 247.178 157.442 246.878 157.442H238.16C236.558 157.442 235.052 158.068 233.919 159.203C232.872 160.251 232.26 161.619 232.174 163.086L232.175 163.087Z" fill="#222433"/>
<path d="M174.937 4.13525H34.5352V118.877H174.937V4.13525Z" fill="white"/>
<path d="M174.937 119.349H34.535C34.274 119.349 34.0635 119.138 34.0635 118.877V4.1354C34.0635 3.87429 34.2752 3.66357 34.535 3.66357H174.937C175.198 3.66357 175.409 3.87429 175.409 4.1354V118.877C175.409 119.138 175.197 119.349 174.937 119.349ZM35.0076 118.405H174.466V4.60723H35.0064V118.404L35.0076 118.405Z" fill="#222433"/>
<path d="M174.937 4.13525H34.5352V10.7214H174.937V4.13525Z" fill="white"/>
<path d="M174.937 11.1934H34.535C34.274 11.1934 34.0635 10.9827 34.0635 10.7215V4.1354C34.0635 3.87429 34.2752 3.66357 34.535 3.66357H174.937C175.198 3.66357 175.409 3.87429 175.409 4.1354V10.7215C175.409 10.9827 175.197 11.1934 174.937 11.1934ZM35.0076 10.2497H174.466V4.60723H35.0064V10.2497H35.0076Z" fill="#222433"/>
<path d="M39.5363 8.93872C40.3699 8.93872 41.0457 8.26294 41.0457 7.42932C41.0457 6.5957 40.3699 5.91992 39.5363 5.91992C38.7026 5.91992 38.0269 6.5957 38.0269 7.42932C38.0269 8.26294 38.7026 8.93872 39.5363 8.93872Z" fill="white"/>
<path d="M39.5361 9.40923C38.4421 9.40923 37.5552 8.52283 37.5552 7.428C37.5552 6.33318 38.4421 5.44678 39.5361 5.44678C40.6301 5.44678 41.5169 6.33318 41.5169 7.428C41.5158 8.52169 40.6301 9.40808 39.5361 9.40923ZM39.5361 6.39158C38.9627 6.39158 38.4981 6.85539 38.4981 7.42915C38.4981 8.0029 38.9627 8.46672 39.5349 8.46672C40.1071 8.46672 40.5728 8.0029 40.5728 7.42915C40.5728 6.85654 40.1082 6.39273 39.5361 6.39158Z" fill="#222433"/>
<path d="M43.9952 8.93872C44.8289 8.93872 45.5047 8.26294 45.5047 7.42932C45.5047 6.5957 44.8289 5.91992 43.9952 5.91992C43.1616 5.91992 42.4858 6.5957 42.4858 7.42932C42.4858 8.26294 43.1616 8.93872 43.9952 8.93872Z" fill="white"/>
<path d="M43.995 9.40923C42.901 9.40923 42.0142 8.52283 42.0142 7.428C42.0142 6.33318 42.901 5.44678 43.995 5.44678C45.089 5.44678 45.9759 6.33318 45.9759 7.428C45.9748 8.52169 45.089 9.40808 43.995 9.40923ZM43.995 6.39158C43.4217 6.39158 42.9571 6.85539 42.9571 7.42915C42.9571 8.0029 43.4217 8.46672 43.9939 8.46672C44.5661 8.46672 45.0318 8.0029 45.0318 7.42915C45.0318 6.85654 44.5672 6.39273 43.995 6.39158Z" fill="#222433"/>
<path d="M48.5348 8.93872C49.3684 8.93872 50.0442 8.26294 50.0442 7.42932C50.0442 6.5957 49.3684 5.91992 48.5348 5.91992C47.7012 5.91992 47.0254 6.5957 47.0254 7.42932C47.0254 8.26294 47.7012 8.93872 48.5348 8.93872Z" fill="white"/>
<path d="M48.5346 9.40923C47.4406 9.40923 46.5537 8.52283 46.5537 7.428C46.5537 6.33432 47.4406 5.44678 48.5346 5.44678C49.6286 5.44678 50.5155 6.33318 50.5155 7.428C50.5143 8.52169 49.6286 9.40808 48.5346 9.40923ZM48.5346 6.39158C47.9613 6.39158 47.4967 6.85539 47.4967 7.42915C47.4967 8.00176 47.9613 8.46672 48.5334 8.46672C49.1068 8.46672 49.5714 8.0029 49.5714 7.42915C49.5714 6.85654 49.1068 6.39273 48.5346 6.39158Z" fill="#222433"/>
<path d="M237.932 16.5414L235.141 30.8418L248.747 31.8885L251.855 26.459L251.538 17.4141L250.666 16.0181L237.932 16.5414Z" fill="white"/>
<path d="M229.316 147.676C229.249 150.421 227.939 152.723 224.515 154.073L219.221 155.311C215.359 156.296 212.776 159.928 213.115 163.898H234.049L256.148 157.897L249.752 135.516" fill="#F9DCC7"/>
<path d="M171.158 141.889C169.214 144.133 166.339 145.584 163.152 145.943C160.892 146.197 156.375 146.918 154.21 147.611C151.701 148.415 146.94 150.781 146.442 154.736L166.917 159.096L178.677 161.605L189.395 163.905L192.376 149.896" fill="#F9DCC7"/>
<path d="M206.243 115.579L193.419 150.144L167.252 140.44L183.692 96.1238C185.181 92.1121 188.416 89.0315 192.435 87.7168" fill="white"/>
<path d="M193.421 150.667C193.359 150.667 193.297 150.657 193.239 150.634L167.072 140.93C166.801 140.83 166.663 140.528 166.763 140.258L183.203 95.9417C184.748 91.7788 188.054 88.5997 192.274 87.2197C192.549 87.1292 192.844 87.2793 192.934 87.5541C193.025 87.829 192.875 88.1244 192.6 88.2138C188.685 89.4941 185.618 92.4431 184.185 96.3059L167.927 140.132L193.113 149.471L205.755 115.398C205.855 115.126 206.156 114.989 206.427 115.089C206.699 115.189 206.836 115.491 206.736 115.761L193.913 150.326C193.865 150.456 193.766 150.562 193.64 150.619C193.571 150.651 193.496 150.667 193.422 150.667H193.421Z" fill="#222433"/>
<path d="M268.234 48.4917C268.234 48.4917 268.245 48.4996 268.25 48.5042C268.265 48.5166 268.281 48.5279 268.297 48.5393L268.236 48.4917H268.234Z" fill="#B5E7EA"/>
<path d="M272.892 61.679C273.623 57.0981 271.536 50.9895 268.25 48.5032C266.569 47.1759 264.524 46.2643 262.249 45.9505C261.552 45.8543 260.847 45.8177 260.143 45.8406L257.096 45.9368C257.096 45.9368 257.098 52.7474 250.376 53.0326C243.773 53.312 243.284 46.372 243.284 46.372L240.72 46.4533C237.041 46.5724 233.787 48.2776 231.593 50.891L223.57 61.7156L241.616 71.7133L248.583 63.0818C248.583 63.0818 253.858 57.8917 260.676 62.5963C267.414 67.2447 263.783 74.8135 263.783 74.8135L270.395 74.7642L272.773 62.2985C272.817 62.1004 272.855 61.8988 272.888 61.6938L272.89 61.6801L272.892 61.679Z" fill="#B5E7EA"/>
<path d="M231.46 66.4946C231.17 66.4946 230.937 66.2598 230.937 65.9712V61.0834C230.937 60.7948 231.172 60.5601 231.46 60.5601C231.748 60.5601 231.983 60.7948 231.983 61.0834V65.9701C231.983 66.2587 231.748 66.4934 231.46 66.4934V66.4946Z" fill="#222433"/>
<path d="M243.15 42.5382L243.28 46.3117C243.383 50.1264 246.559 53.1349 250.375 53.0329C254.123 52.9322 257.106 49.863 257.101 46.1147L256.944 31.9907" fill="white"/>
<path d="M250.186 53.5584C246.177 53.5584 242.864 50.3552 242.757 46.3252L242.626 42.5563C242.616 42.2677 242.843 42.0249 243.131 42.0158C243.421 42.0032 243.662 42.2322 243.672 42.5208L243.803 46.2943C243.898 49.8181 246.84 52.6067 250.36 52.5105C253.851 52.4166 256.582 49.6074 256.576 46.1168L256.419 31.9974C256.416 31.7088 256.648 31.4717 256.937 31.4683C257.223 31.4649 257.463 31.6962 257.465 31.9859L257.622 46.1099C257.629 50.1777 254.451 53.4473 250.387 53.5573C250.32 53.5595 250.252 53.5595 250.185 53.5595L250.186 53.5584Z" fill="#222433"/>
<path d="M235.064 32.493C234.774 32.493 234.541 32.2582 234.541 31.9696C234.542 30.2907 234.9 28.6725 235.603 27.1608C235.724 26.8986 236.036 26.7852 236.298 26.9066C236.56 27.028 236.673 27.3395 236.552 27.6017C235.913 28.9749 235.588 30.4453 235.587 31.9707C235.587 32.2593 235.352 32.493 235.064 32.493Z" fill="#222433"/>
<path d="M236.972 20.7741C236.966 20.7741 236.959 20.7741 236.953 20.7741C236.665 20.7638 236.438 20.5222 236.449 20.2336C236.502 18.6578 236.877 17.1358 237.559 15.7088C237.683 15.4477 237.996 15.3378 238.257 15.4626C238.518 15.5874 238.627 15.9001 238.503 16.16C237.884 17.4553 237.544 18.8387 237.495 20.2691C237.484 20.552 237.252 20.7741 236.972 20.7741Z" fill="#222433"/>
<path d="M246.193 27.3821C248.163 27.3821 249.759 25.7859 249.759 23.817C249.759 21.8481 248.163 20.252 246.193 20.252C244.224 20.252 242.627 21.8481 242.627 23.817C242.627 25.7859 244.224 27.3821 246.193 27.3821Z" fill="white"/>
<path d="M246.193 27.9041C243.939 27.9041 242.104 26.0706 242.104 23.8168C242.104 21.563 243.939 19.7295 246.193 19.7295C248.448 19.7295 250.282 21.563 250.282 23.8168C250.282 26.0706 248.448 27.9041 246.193 27.9041ZM246.193 20.7751C244.516 20.7751 243.15 22.139 243.15 23.8168C243.15 25.4945 244.516 26.8585 246.193 26.8585C247.871 26.8585 249.236 25.4945 249.236 23.8168C249.236 22.139 247.871 20.7751 246.193 20.7751Z" fill="#222433"/>
<path d="M236.992 27.3821C238.961 27.3821 240.558 25.7859 240.558 23.817C240.558 21.8481 238.961 20.252 236.992 20.252C235.023 20.252 233.426 21.8481 233.426 23.817C233.426 25.7859 235.023 27.3821 236.992 27.3821Z" fill="white"/>
<path d="M236.992 27.9041C234.738 27.9041 232.903 26.0706 232.903 23.8168C232.903 21.563 234.738 19.7295 236.992 19.7295C239.246 19.7295 241.081 21.563 241.081 23.8168C241.081 26.0706 239.246 27.9041 236.992 27.9041ZM236.992 20.7751C235.314 20.7751 233.949 22.139 233.949 23.8168C233.949 25.4945 235.314 26.8585 236.992 26.8585C238.67 26.8585 240.035 25.4945 240.035 23.8168C240.035 22.139 238.67 20.7751 236.992 20.7751Z" fill="#222433"/>
<path d="M263.584 74.7642H269.872L268.813 86.1167C268.103 93.7393 261.703 99.5684 254.045 99.5684H249.157L228.447 97.3101L250.402 134.808L226.488 149.199L194.401 95.9117C190.426 89.3107 192.557 80.7376 199.16 76.7637C201.333 75.4559 203.821 74.7653 206.358 74.7653L215.427 74.7905" fill="white"/>
<path d="M226.488 149.721C226.446 149.721 226.403 149.716 226.362 149.706C226.227 149.673 226.112 149.587 226.039 149.468L193.953 96.181C189.835 89.3429 192.05 80.4308 198.89 76.3149C201.144 74.9578 203.726 74.2409 206.356 74.2409L215.427 74.2661C215.716 74.2661 215.95 74.502 215.948 74.7906C215.948 75.0792 215.714 75.3128 215.426 75.3128H215.424L206.355 75.2876C203.916 75.2876 201.52 75.953 199.429 77.2116C193.083 81.0309 191.028 89.2982 194.848 95.6416L226.664 148.481L249.686 134.626L227.993 97.5736C227.893 97.4029 227.898 97.191 228.005 97.025C228.113 96.8589 228.304 96.7685 228.501 96.7891L249.182 99.044H254.042C261.474 99.044 267.599 93.4657 268.289 86.0675L269.294 75.2865H263.58C263.291 75.2865 263.057 75.0517 263.057 74.7631C263.057 74.4745 263.292 74.2397 263.58 74.2397H269.868C270.016 74.2397 270.156 74.3016 270.255 74.4104C270.355 74.5192 270.403 74.6646 270.389 74.8112L269.33 86.1638C268.975 89.9808 267.218 93.5046 264.383 96.0859C261.549 98.6672 257.877 100.09 254.042 100.09H249.153C249.134 100.09 249.115 100.09 249.096 100.086L229.42 97.94L250.849 134.541C250.994 134.789 250.913 135.106 250.667 135.254L226.754 149.644C226.671 149.694 226.577 149.72 226.483 149.72L226.488 149.721Z" fill="#222433"/>
<path d="M247.794 64.3566C247.681 64.3566 247.567 64.32 247.471 64.2455C247.244 64.0669 247.204 63.7382 247.382 63.5115L252.48 57.0101C252.659 56.7822 252.987 56.7432 253.215 56.9207C253.443 57.0994 253.483 57.4281 253.304 57.6548L248.206 64.1562C248.103 64.2879 247.95 64.3566 247.794 64.3566Z" fill="#222433"/>
<path d="M213.508 73.2197C214.555 73.3938 214.555 74.0912 215.857 75.2044C215.916 75.2548 237.808 92.78 237.93 92.8751C241.843 95.9408 247.5 95.256 250.567 91.3462C250.567 91.3462 262.225 76.4733 262.312 76.3588C265.485 72.1169 264.618 66.1056 260.374 62.9334C256.131 59.7611 250.117 60.6281 246.944 64.87L241.314 72.0493C241.314 72.0493 230.101 65.9934 225.918 63.5621C219.573 59.8734 218.582 59.6959 215.961 59.0683C215.069 58.8541 213.915 58.6388 212.602 58.4418C212.602 58.4418 207.244 57.7914 205.274 57.4764C200.297 56.661 186.283 58.0616 186.837 61.4561C187.174 63.5186 190.757 62.4249 197.625 62.142C191.597 63.4533 187.267 64.8562 187.858 66.921C188.448 68.987 194.541 67.6253 199.171 66.5798C196.539 68.5942 192.896 71.1893 193.594 72.6998C194.617 74.8792 197.835 72.7765 200.095 71.6256C205.111 69.0454 206.937 71.1045 210.209 72.5498C211.11 72.9495 213.507 73.2186 213.507 73.2186L213.508 73.2197Z" fill="white"/>
<path d="M243.472 95.3119C241.416 95.3119 239.346 94.6511 237.606 93.2872C237.443 93.1589 215.559 75.6382 215.516 75.6016C214.972 75.1366 214.646 74.7438 214.383 74.4289C214.021 73.9948 213.87 73.8139 213.435 73.7383C213.119 73.7028 210.929 73.4417 209.999 73.0294C209.404 72.766 208.862 72.4877 208.338 72.2174C205.949 70.9852 204.222 70.0942 200.337 72.0926C200.058 72.2346 199.767 72.3904 199.467 72.5507C197.73 73.4772 195.762 74.5273 194.346 74.0567C193.803 73.8757 193.391 73.4955 193.123 72.9252C192.419 71.402 194.529 69.5044 196.979 67.6011C191.781 68.7016 187.949 69.138 187.356 67.0674C187.21 66.5543 187.279 66.0562 187.561 65.5843C188.112 64.6636 189.464 63.8688 191.945 63.0672C188.62 63.3386 186.622 63.3718 186.322 61.5417C186.254 61.126 186.308 60.495 186.953 59.8525C189.628 57.1796 201.084 56.2611 205.36 56.962C207.296 57.2712 212.612 57.9171 212.666 57.924C214.001 58.1244 215.178 58.3443 216.083 58.5619L216.29 58.6111C218.797 59.2101 219.941 59.4838 226.182 63.1118C229.872 65.2568 239.163 70.2923 241.176 71.3814L246.534 64.5491C249.867 60.0919 256.22 59.1757 260.689 62.5163C262.853 64.1345 264.258 66.4982 264.644 69.1723C265.03 71.8464 264.351 74.5102 262.733 76.6746C262.646 76.7903 252.175 90.1493 250.982 91.6712C249.105 94.0636 246.305 95.313 243.476 95.313L243.472 95.3119ZM204.355 69.8675C206.066 69.8675 207.384 70.5477 208.818 71.2875C209.328 71.5509 209.856 71.8223 210.422 72.0731C211.1 72.3732 212.923 72.6274 213.567 72.7007C213.576 72.7007 213.585 72.703 213.594 72.7042C214.423 72.8416 214.776 73.2676 215.187 73.76C215.437 74.0601 215.721 74.4002 216.197 74.8079C216.355 74.9362 238.006 92.2702 238.253 92.466C241.931 95.3485 247.269 94.7026 250.154 91.0242C250.27 90.8765 261.729 76.2578 261.893 76.0436C263.342 74.107 263.951 71.7181 263.605 69.32C263.259 66.922 261.999 64.8033 260.06 63.3523C256.055 60.3576 250.358 61.1787 247.362 65.1835L241.725 72.3732C241.568 72.5736 241.289 72.632 241.065 72.5106C240.952 72.4499 229.796 66.4238 225.654 64.0154C219.545 60.4641 218.449 60.2018 216.044 59.6269L215.837 59.5777C214.961 59.3681 213.814 59.1539 212.523 58.9593C212.484 58.9547 207.147 58.3065 205.19 57.9938C200.739 57.2643 189.9 58.3844 187.69 60.5923C187.29 60.9909 187.337 61.2783 187.352 61.3734C187.512 62.3514 189.098 62.2586 192.67 61.9563C194.093 61.836 195.707 61.6986 197.602 61.6207C197.873 61.6127 198.108 61.8074 198.142 62.0765C198.176 62.3457 197.999 62.5965 197.735 62.6537C194.179 63.4279 189.349 64.6281 188.456 66.1203C188.325 66.3402 188.295 66.5486 188.36 66.7788C188.461 67.1315 189.062 67.6801 191.948 67.3984C194.12 67.1865 196.856 66.5681 199.054 66.0722C199.294 66.0184 199.539 66.1375 199.643 66.3608C199.748 66.583 199.682 66.8487 199.488 66.9975C199.282 67.1556 199.07 67.3171 198.854 67.4808C196.889 68.9742 193.601 71.473 194.068 72.4831C194.212 72.7889 194.405 72.9744 194.672 73.0638C195.662 73.3936 197.497 72.4144 198.971 71.6277C199.277 71.4639 199.574 71.3058 199.856 71.1615C201.684 70.2213 203.119 69.8686 204.352 69.8686L204.355 69.8675Z" fill="#222433"/>
<path d="M252.916 23.1493H249.556C249.267 23.1493 249.033 22.9145 249.033 22.6259C249.033 22.3373 249.268 22.1025 249.556 22.1025H252.916C253.206 22.1025 253.439 22.3373 253.439 22.6259C253.439 22.9145 253.204 23.1493 252.916 23.1493Z" fill="#222433"/>
<path d="M239.91 28.9177C239.764 28.9177 239.623 28.8559 239.523 28.7471C239.417 28.6303 239.369 28.4734 239.392 28.3176L239.969 24.4457C240.011 24.1594 240.278 23.9624 240.564 24.0048C240.85 24.0471 241.047 24.314 241.004 24.5991L240.521 27.8355L242.975 27.6946C243.261 27.6786 243.51 27.8985 243.528 28.1871C243.544 28.4757 243.324 28.7231 243.035 28.7391L239.939 28.9166C239.929 28.9166 239.918 28.9166 239.909 28.9166L239.91 28.9177Z" fill="#222433"/>
<path d="M242.832 23.1493H240.557C240.267 23.1493 240.034 22.9145 240.034 22.6259C240.034 22.3373 240.268 22.1025 240.557 22.1025H242.832C243.121 22.1025 243.355 22.3373 243.355 22.6259C243.355 22.9145 243.12 23.1493 242.832 23.1493Z" fill="#222433"/>
<path d="M258.823 19.8143V12.8651C258.823 9.40771 256.021 6.60422 252.563 6.60308H240.228C238.983 6.59506 237.967 7.59827 237.959 8.84197V16.0672L249.439 16.3809C250.666 16.4119 251.638 17.4311 251.612 18.6588L251.495 24.189C251.48 24.8956 251.71 25.5576 252.113 26.0855" fill="white"/>
<path d="M252.113 26.6078C251.955 26.6078 251.799 26.5368 251.696 26.4016C251.212 25.7661 250.955 24.977 250.972 24.1776L251.089 18.6474C251.109 17.7106 250.362 16.9284 249.425 16.9044L237.946 16.5906C237.662 16.5826 237.437 16.3512 237.437 16.0672V8.85577C237.446 7.30744 238.699 6.06259 240.231 6.07977H252.563C256.304 6.08206 259.346 9.12604 259.346 12.8652V19.8144C259.346 20.103 259.112 20.3377 258.823 20.3377C258.535 20.3377 258.3 20.103 258.3 19.8144V12.8652C258.3 9.70209 255.727 7.12764 252.563 7.12535H240.228C239.266 7.11504 238.489 7.89035 238.484 8.84432V15.5576L249.453 15.8576C250.965 15.8966 252.168 17.1575 252.136 18.6691L252.019 24.1994C252.008 24.7628 252.188 25.3194 252.529 25.7672C252.705 25.9974 252.66 26.3249 252.43 26.5001C252.335 26.5723 252.224 26.6066 252.113 26.6066V26.6078Z" fill="#222433"/>
<path d="M252.113 26.0282L248.795 31.5756C246.964 29.9093 242.237 29.662 240.259 29.8074C237.697 29.9964 235.104 31.1485 235.104 31.1485C235.086 31.4027 235.075 31.6581 235.074 31.9135C235.053 37.9499 239.931 42.8617 245.97 42.8835C252.008 42.9053 256.921 38.0278 256.943 31.9913V31.9009C257.317 31.9742 257.703 32.012 258.098 32.012C261.404 32.012 264.083 29.3333 264.083 26.0282C264.083 22.7231 261.403 20.0444 258.098 20.0444C254.793 20.0444 252.113 22.7231 252.113 26.0282Z" fill="white"/>
<path d="M246.01 43.4058H245.969C242.909 43.3944 240.035 42.193 237.878 40.0217C235.722 37.8504 234.54 34.9701 234.551 31.9101C234.551 31.6444 234.563 31.3753 234.582 31.1085C234.596 30.9161 234.715 30.7466 234.891 30.6687C235 30.6206 237.598 29.4765 240.221 29.2841C241.744 29.1719 246.303 29.2418 248.648 30.8004L251.591 25.8794C251.67 22.359 254.558 19.52 258.098 19.52C261.637 19.52 264.607 22.4392 264.607 26.0271C264.607 29.6151 261.687 32.5343 258.098 32.5343C257.883 32.5343 257.667 32.524 257.453 32.5022C257.318 35.371 256.132 38.0439 254.082 40.079C251.92 42.2251 249.055 43.4047 246.01 43.4047V43.4058ZM235.608 31.5047C235.602 31.6421 235.598 31.7784 235.598 31.9147C235.588 34.6941 236.663 37.3121 238.622 39.2853C240.581 41.2585 243.192 42.3499 245.973 42.3602H246.011C248.778 42.3602 251.381 41.2883 253.345 39.338C255.318 37.3797 256.411 34.7697 256.42 31.9891V31.901C256.42 31.7452 256.49 31.5963 256.611 31.4967C256.731 31.3971 256.89 31.357 257.044 31.3868C257.388 31.4543 257.743 31.4887 258.098 31.4887C261.11 31.4887 263.56 29.0391 263.56 26.0283C263.56 23.0175 261.11 20.5679 258.098 20.5679C255.086 20.5679 252.636 23.0175 252.636 26.0283C252.636 26.1233 252.61 26.2161 252.561 26.2974L249.244 31.8449C249.164 31.98 249.026 32.0716 248.871 32.0934C248.716 32.1163 248.558 32.0682 248.442 31.9628C246.743 30.4168 242.137 30.1946 240.296 30.3297C238.344 30.4729 236.34 31.2127 235.606 31.5059L235.608 31.5047Z" fill="#222433"/>
<path d="M241.859 36.5081C240.256 36.5081 238.589 35.2346 238.471 32.3853C238.465 32.2456 238.515 32.1104 238.61 32.0085C238.705 31.9066 238.837 31.8459 238.976 31.8413L245.023 31.6352C245.171 31.6294 245.309 31.6856 245.411 31.7886C245.513 31.8917 245.569 32.0326 245.563 32.1769C245.46 35.0147 243.626 36.5035 241.866 36.5081H241.859ZM239.561 32.8686C239.807 34.7708 240.92 35.4625 241.859 35.4625H241.864C243.009 35.4602 244.203 34.5131 244.467 32.7025L239.561 32.8697V32.8686Z" fill="#222433"/>
<path d="M258.971 27.8673C258.911 27.8673 258.852 27.857 258.793 27.8364L254.957 26.453C254.753 26.3797 254.615 26.1861 254.612 25.9685C254.608 25.751 254.74 25.554 254.943 25.4738L260.162 23.4147C260.431 23.3082 260.735 23.4411 260.841 23.709C260.946 23.977 260.814 24.2816 260.547 24.3881L256.616 25.9388L259.148 26.8515C259.42 26.95 259.561 27.2489 259.463 27.5215C259.386 27.7345 259.185 27.8673 258.971 27.8673Z" fill="#222433"/>
<path d="M245.147 25.3548C245.784 25.3548 246.3 24.8385 246.3 24.2016C246.3 23.5647 245.784 23.0483 245.147 23.0483C244.51 23.0483 243.993 23.5647 243.993 24.2016C243.993 24.8385 244.51 25.3548 245.147 25.3548Z" fill="#222433"/>
<path d="M237.098 25.3182C237.735 25.3182 238.251 24.8019 238.251 24.165C238.251 23.528 237.735 23.0117 237.098 23.0117C236.461 23.0117 235.944 23.528 235.944 24.165C235.944 24.8019 236.461 25.3182 237.098 25.3182Z" fill="#222433"/>
<path d="M206.799 74.5354H152.801L148.627 47.1589C148.595 46.9482 148.579 46.7352 148.579 46.5222C148.579 44.1917 150.474 42.3032 152.81 42.3032H189.097C191.189 42.3021 192.968 43.8264 193.281 45.8889L197.193 71.5624H206.498L206.799 74.5342V74.5354Z" fill="white"/>
<path d="M206.799 75.0611H152.801C152.541 75.0611 152.319 74.871 152.28 74.6145L148.107 47.2381C148.071 47.0021 148.053 46.7617 148.053 46.5223C148.053 45.2545 148.548 44.0635 149.447 43.168C150.345 42.2724 151.54 41.7788 152.81 41.7788H189.101C191.47 41.7788 193.447 43.4737 193.803 45.8111L197.647 71.038H206.5C206.77 71.038 206.996 71.2418 207.024 71.5109L207.324 74.4828C207.338 74.6305 207.29 74.7782 207.19 74.8882C207.09 74.9981 206.948 75.0611 206.799 75.0611ZM153.254 74.0098H206.217L206.022 72.0881H197.193C196.932 72.0881 196.711 71.898 196.672 71.6415L192.759 45.968C192.482 44.1483 190.942 42.829 189.099 42.829H152.808C151.819 42.829 150.888 43.2126 150.189 43.9101C149.49 44.6075 149.104 45.5351 149.104 46.5223C149.104 46.709 149.118 46.8956 149.147 47.08L153.253 74.0098H153.254Z" fill="#222433"/>
<path d="M225.884 30.8274C225.884 31.0129 225.804 31.1904 225.663 31.3141L221.883 34.6352C221.61 34.8746 221.194 34.8505 220.951 34.5814C220.708 34.3123 220.734 33.9011 221.006 33.6618L224.787 30.3407C225.059 30.1013 225.476 30.1254 225.718 30.3945C225.826 30.5136 225.885 30.6682 225.885 30.8274H225.884Z" fill="#222433"/>
<path d="M225.532 26.8316V26.8579C225.518 27.2175 225.212 27.4969 224.848 27.4832L220.297 27.3091C219.933 27.2954 219.649 26.9919 219.663 26.6323C219.676 26.2727 219.983 25.9921 220.348 26.0059L224.899 26.1799C225.254 26.1937 225.533 26.4811 225.533 26.8316H225.532Z" fill="#222433"/>
<path d="M226.368 23.358C226.368 23.7176 226.072 24.0085 225.708 24.0085C225.567 24.0085 225.431 23.9638 225.318 23.8814L221.646 21.2107C221.349 21.0023 221.279 20.5958 221.49 20.3026C221.7 20.0094 222.112 19.9395 222.41 20.148C222.417 20.1526 222.422 20.1571 222.429 20.1617L226.1 22.8324C226.27 22.9549 226.369 23.1496 226.369 23.3569L226.368 23.358Z" fill="#222433"/>
<path d="M259.321 16.244L264.046 20.5717L267.249 19.6762L267.722 17.7396C269.574 10.1514 264.58 2.41889 256.554 0.455989C248.527 -1.50691 240.533 3.04876 238.68 10.637" fill="#F9DCC7"/>
<path d="M239.859 8.87318L259.571 13.6934C260.735 13.982 261.449 15.1558 261.168 16.3228L260.652 18.4357C260.363 19.6004 259.189 20.3139 258.024 20.0322L238.312 15.212C237.148 14.9234 236.434 13.7495 236.715 12.5825L237.231 10.4696C237.513 9.30493 238.685 8.58917 239.848 8.87089C239.852 8.87089 239.855 8.87203 239.859 8.87318Z" fill="white"/>
<path d="M257.894 20.5604L238.181 15.7401C236.725 15.3817 235.832 13.9124 236.186 12.4534L236.702 10.3404C237.06 8.88257 238.529 7.99045 239.987 8.34546L259.7 13.1657C261.157 13.5241 262.049 14.9935 261.696 16.4525L261.18 18.5654C260.821 20.0232 259.352 20.9154 257.894 20.5604ZM239.73 9.40135C238.856 9.18834 237.973 9.7243 237.759 10.5981L237.243 12.711C237.03 13.586 237.566 14.4678 238.44 14.6831L258.153 19.5033C259.027 19.7163 259.909 19.1804 260.123 18.3066L260.64 16.1936C260.852 15.3187 260.317 14.4369 259.442 14.2216L239.73 9.40135Z" fill="#222433"/>
<path d="M268.476 21.4674C268.88 19.8146 267.867 18.1472 266.214 17.7431C264.561 17.339 262.894 18.3512 262.491 20.004C262.087 21.6567 263.1 23.3242 264.753 23.7283C266.406 24.1324 268.073 23.1202 268.476 21.4674Z" fill="white"/>
<path d="M264.638 24.2607C262.693 23.7854 261.502 21.8237 261.977 19.8791C262.452 17.9345 264.413 16.7435 266.356 17.2187C268.299 17.694 269.492 19.6558 269.017 21.6003C268.54 23.5438 266.581 24.7337 264.638 24.2607ZM266.099 18.2746C264.738 17.9414 263.365 18.7751 263.033 20.1368C262.701 21.4984 263.534 22.8715 264.895 23.2036C266.256 23.5358 267.629 22.7032 267.961 21.3415C268.291 19.981 267.458 18.6079 266.099 18.2746Z" fill="#222433"/>
<path d="M312.422 164.427H0.5779C0.250614 164.427 0 164.151 0 163.791C0 163.432 0.250614 163.156 0.5779 163.156H312.423C312.751 163.156 313.001 163.432 313.001 163.791C313.001 164.151 312.751 164.427 312.423 164.427H312.422Z" fill="#222433"/>
<path d="M157.887 146.612C157.596 146.612 157.361 146.378 157.361 146.091V74.5089C157.361 74.2203 157.597 73.9878 157.887 73.9878C158.176 73.9878 158.412 74.2214 158.412 74.5089V146.091C158.412 146.379 158.176 146.612 157.887 146.612Z" fill="#222433"/>
<path d="M157.887 164.442C157.596 164.442 157.361 164.215 157.361 163.936V157.614C157.361 157.335 157.597 157.108 157.887 157.108C158.176 157.108 158.412 157.335 158.412 157.614V163.936C158.412 164.215 158.176 164.442 157.887 164.442Z" fill="#222433"/>
<path d="M234.426 164.442C234.135 164.442 233.9 164.207 233.9 163.917V89.8961C233.9 89.6063 234.136 89.3716 234.426 89.3716C234.715 89.3716 234.951 89.6063 234.951 89.8961V163.917C234.951 164.207 234.715 164.442 234.426 164.442Z" fill="#222433"/>
<path d="M215.221 75.0368H152.868C152.577 75.0368 152.343 74.802 152.343 74.5123C152.343 74.2226 152.579 73.9878 152.868 73.9878H215.221C215.511 73.9878 215.746 74.2226 215.746 74.5123C215.746 74.802 215.51 75.0368 215.221 75.0368Z" fill="#222433"/>
<path d="M43.8779 43.6885L36.1558 28.1216L50.6994 27.707L43.8779 43.6885Z" fill="#B5E7EA"/>
<g opacity="0.98">
<path d="M60.8096 41.8195L50.5962 27.7574L64.8675 24.9253L60.8096 41.8195Z" fill="#C3E8C1"/>
</g>
<path d="M76.5801 37.4424L64.6147 24.8359L78.3928 20.1646L76.5801 37.4424Z" fill="#B5E7EA"/>
<g opacity="0.98">
<path d="M91.6501 31.2001L78.3149 20.0491L91.4648 13.8271L91.6501 31.2001Z" fill="#C3E8C1"/>
</g>
<path d="M105.841 22.027L91.4033 13.8914L97.1823 9.72396L102.49 4.98047L105.841 22.027Z" fill="#B5E7EA"/>
<path d="M40.673 28.6267C38.5731 28.6267 36.5739 28.526 34.6995 28.3221C34.4752 28.2981 34.3138 28.0965 34.339 27.8732C34.363 27.6499 34.5656 27.4895 34.7887 27.5124C43.9676 28.5134 56.2111 26.9902 68.3791 23.3347C82.4226 19.1157 94.816 12.5364 101.535 5.73269L103.279 3.80186C103.43 3.63466 103.687 3.62206 103.854 3.77208C104.021 3.92325 104.035 4.17978 103.884 4.34698L102.134 6.28354C102.134 6.28354 102.126 6.29271 102.122 6.29614C95.3138 13.1938 82.7877 19.8544 68.6148 24.1123C58.8237 27.0532 48.9731 28.6244 40.6753 28.6244L40.673 28.6267Z" fill="#222433"/>
<path d="M72.0429 138.628L72.8016 141.138C72.9344 141.574 73.2754 141.915 73.7114 142.047L76.2198 142.807C76.3835 142.857 76.4761 143.029 76.4269 143.193C76.3972 143.293 76.3194 143.37 76.2198 143.401L73.7114 144.161C73.2754 144.293 72.9332 144.634 72.8016 145.07L72.0429 147.579C71.9948 147.743 71.8232 147.837 71.6584 147.789C71.5577 147.759 71.4787 147.68 71.449 147.579L70.6891 145.07C70.5575 144.634 70.2165 144.293 69.7805 144.161L67.2721 143.401C67.1084 143.351 67.0157 143.178 67.065 143.015C67.0947 142.915 67.1725 142.838 67.2721 142.807L69.7805 142.047C70.2165 141.915 70.5575 141.574 70.6891 141.138L71.449 138.628C71.497 138.465 71.6687 138.371 71.8335 138.419C71.9342 138.449 72.0132 138.528 72.0429 138.628Z" fill="#F9DCC7"/>
<path d="M305.527 29.1226L306.307 31.704C306.443 32.1529 306.794 32.5033 307.243 32.6385L309.823 33.4195C309.991 33.4699 310.086 33.6485 310.036 33.8157C310.005 33.9177 309.925 33.9978 309.823 34.0288L307.243 34.8098C306.794 34.9449 306.443 35.2965 306.307 35.7443L305.527 38.3256C305.478 38.494 305.301 38.5913 305.133 38.5409C305.028 38.51 304.947 38.4287 304.917 38.3256L304.136 35.7443C304.001 35.2954 303.649 34.9449 303.201 34.8098L300.62 34.0288C300.452 33.9784 300.357 33.7997 300.408 33.6325C300.438 33.5306 300.519 33.4504 300.62 33.4195L303.201 32.6385C303.649 32.5033 304.001 32.1517 304.136 31.704L304.917 29.1226C304.967 28.9543 305.144 28.857 305.312 28.9073C305.416 28.9383 305.498 29.0196 305.527 29.1226Z" fill="#F9DCC7"/>
<path d="M292.629 118.343L293.345 120.714C293.47 121.126 293.793 121.448 294.205 121.573L296.573 122.291C296.728 122.338 296.815 122.501 296.769 122.655C296.74 122.749 296.667 122.822 296.573 122.851L294.205 123.569C293.793 123.694 293.47 124.016 293.345 124.428L292.629 126.799C292.583 126.953 292.42 127.043 292.266 126.997C292.171 126.969 292.097 126.894 292.068 126.799L291.35 124.428C291.227 124.016 290.904 123.694 290.492 123.569L288.123 122.851C287.969 122.804 287.882 122.641 287.928 122.487C287.956 122.393 288.03 122.32 288.123 122.291L290.492 121.573C290.904 121.449 291.226 121.126 291.35 120.714L292.068 118.343C292.114 118.189 292.276 118.1 292.431 118.145C292.526 118.173 292.6 118.248 292.629 118.343Z" fill="white"/>
<path d="M292.349 127.401C292.284 127.401 292.219 127.392 292.155 127.372C291.929 127.306 291.755 127.132 291.689 126.906L290.973 124.539C290.887 124.253 290.665 124.031 290.379 123.945L288.009 123.227C287.834 123.174 287.688 123.055 287.603 122.893C287.516 122.732 287.497 122.545 287.55 122.37C287.616 122.149 287.788 121.977 288.009 121.911L290.378 121.193C290.664 121.107 290.886 120.885 290.973 120.598L291.69 118.228C291.795 117.867 292.179 117.659 292.542 117.765C292.766 117.832 292.94 118.005 293.006 118.229L293.721 120.598C293.808 120.885 294.032 121.107 294.318 121.193L296.688 121.911C296.863 121.964 297.008 122.083 297.094 122.244C297.181 122.406 297.199 122.592 297.147 122.767C297.08 122.989 296.908 123.16 296.688 123.227L294.319 123.945C294.033 124.032 293.81 124.254 293.723 124.54L293.007 126.91C292.957 127.083 292.839 127.228 292.678 127.316C292.575 127.372 292.463 127.401 292.349 127.401ZM292.251 126.683C292.251 126.683 292.251 126.683 292.251 126.684V126.683ZM288.563 122.568L290.608 123.188C291.147 123.35 291.567 123.771 291.729 124.31L292.349 126.358L292.967 124.31C293.131 123.77 293.551 123.35 294.091 123.188L296.136 122.568L294.091 121.949C293.552 121.786 293.132 121.367 292.968 120.826L292.349 118.779L291.729 120.826C291.567 121.366 291.147 121.786 290.606 121.949L288.562 122.568H288.563Z" fill="#222433"/>
<path d="M5.09203 117.504L5.76835 119.743C5.88622 120.132 6.19062 120.436 6.5797 120.554L8.81692 121.232C8.96339 121.276 9.04579 121.43 9.00116 121.575C8.97484 121.663 8.90503 121.733 8.81692 121.759L6.5797 122.437C6.19062 122.555 5.88622 122.859 5.76835 123.248L5.09203 125.487C5.04855 125.634 4.8952 125.717 4.74987 125.674C4.65947 125.647 4.58966 125.576 4.56334 125.487L3.88588 123.248C3.76916 122.859 3.46476 122.554 3.07568 122.437L0.838458 121.759C0.69198 121.715 0.609586 121.561 0.654216 121.416C0.680536 121.328 0.750342 121.258 0.838458 121.232L3.07568 120.554C3.46476 120.437 3.76916 120.132 3.88588 119.743L4.56334 117.504C4.60683 117.357 4.76017 117.274 4.9055 117.317C4.99591 117.344 5.06571 117.415 5.09203 117.504Z" fill="white"/>
<path d="M4.82915 126.058C4.76735 126.058 4.70556 126.049 4.64491 126.032C4.43206 125.969 4.26727 125.805 4.20547 125.592L3.52916 123.357C3.44791 123.087 3.23735 122.877 2.96842 122.795L0.73006 122.117C0.564129 122.066 0.42795 121.955 0.345556 121.802C0.263163 121.649 0.245997 121.473 0.296349 121.307C0.359289 121.099 0.521787 120.936 0.73006 120.873L2.96728 120.195C3.23735 120.114 3.44791 119.904 3.52916 119.634L4.20662 117.395C4.30618 117.055 4.66779 116.857 5.0111 116.957C5.22395 117.02 5.38759 117.183 5.45053 117.396L6.12685 119.634C6.20924 119.904 6.4198 120.114 6.68987 120.195L8.92824 120.873C9.09417 120.923 9.23035 121.034 9.31274 121.188C9.39513 121.34 9.4123 121.517 9.36195 121.683C9.29901 121.891 9.13651 122.054 8.92824 122.117L6.69102 122.795C6.42095 122.876 6.21039 123.087 6.12799 123.357L5.45168 125.595C5.40362 125.758 5.29261 125.896 5.14041 125.978C5.04314 126.031 4.93786 126.058 4.83029 126.058H4.82915ZM4.73531 125.381C4.73531 125.381 4.73531 125.381 4.73531 125.382V125.381ZM1.25189 121.494L3.18356 122.079C3.6928 122.232 4.08875 122.629 4.24324 123.139L4.828 125.072L5.41163 123.139C5.56611 122.63 5.96321 122.233 6.47245 122.079L8.40298 121.494L6.4713 120.908C5.96206 120.755 5.56497 120.359 5.41048 119.849L4.82572 117.915L4.24095 119.849C4.0876 120.359 3.69166 120.755 3.18127 120.91L1.25074 121.495L1.25189 121.494Z" fill="#222433"/>
<path d="M17.7383 47.106L18.5176 49.6874C18.6538 50.1363 19.0051 50.4867 19.4537 50.6219L22.0342 51.4029C22.2025 51.4533 22.2974 51.6319 22.2471 51.7991C22.2162 51.9011 22.1361 51.9812 22.0342 52.0122L19.4537 52.7932C19.0051 52.9283 18.6538 53.2799 18.5176 53.7277L17.7383 56.309C17.6891 56.4774 17.5117 56.5747 17.3435 56.5243C17.2394 56.4934 17.1581 56.4121 17.1284 56.309L16.3468 53.7277C16.2117 53.2788 15.8604 52.9283 15.4118 52.7932L12.8313 52.0122C12.6631 51.9618 12.5681 51.7831 12.6185 51.6159C12.6494 51.514 12.7295 51.4338 12.8313 51.4029L15.4118 50.6219C15.8604 50.4867 16.2117 50.1351 16.3468 49.6874L17.1284 47.106C17.1776 46.9377 17.355 46.8404 17.5232 46.8907C17.6273 46.9217 17.7086 47.003 17.7383 47.106Z" fill="#F9DCC7"/>
<path fill-rule="evenodd" clip-rule="evenodd" d="M131.096 69.478H74.1177V100.195C74.1177 104.383 77.5107 107.779 81.6956 107.779H123.518C127.703 107.779 131.096 104.383 131.096 100.195V69.478Z" fill="white"/>
<path fill-rule="evenodd" clip-rule="evenodd" d="M135.302 42.8908C131.068 42.9171 127.635 46.3528 127.608 50.5901V50.6405C127.608 46.3631 124.139 42.8908 119.863 42.8908C124.137 42.8908 127.608 39.4185 127.608 35.1411V35.1915C127.635 39.446 131.095 42.8908 135.351 42.8908H135.301H135.302Z" fill="#222222"/>
<path d="M135.302 42.8908C131.068 42.9171 127.635 46.3528 127.608 50.5901V50.6405C127.608 46.3631 124.139 42.8908 119.863 42.8908C124.137 42.8908 127.608 39.4185 127.608 35.1411V35.1915C127.635 39.446 131.095 42.8908 135.351 42.8908H135.301H135.302Z" fill="#F9DCC7"/>
<path fill-rule="evenodd" clip-rule="evenodd" d="M106.53 30.2233C104.663 30.2348 103.149 31.7499 103.137 33.6177V33.6395C103.137 31.7533 101.608 30.2233 99.7231 30.2233C101.608 30.2233 103.137 28.6922 103.137 26.8071V26.8289C103.149 28.7048 104.675 30.2233 106.55 30.2233H106.529H106.53Z" fill="#222222"/>
<path d="M106.53 30.2233C104.663 30.2348 103.149 31.7499 103.137 33.6177V33.6395C103.137 31.7533 101.608 30.2233 99.7231 30.2233C101.608 30.2233 103.137 28.6922 103.137 26.8071V26.8289C103.149 28.7048 104.675 30.2233 106.55 30.2233H106.529H106.53Z" fill="#F9DCC7"/>
<path fill-rule="evenodd" clip-rule="evenodd" d="M97.882 45.5911C95.1229 45.6094 92.8869 47.8472 92.8697 50.6071V50.6392C92.8697 47.8529 90.6096 45.5911 87.8242 45.5911C90.6084 45.5911 92.8697 43.3281 92.8697 40.543V40.575C92.8869 43.3465 95.1412 45.5911 97.9152 45.5911H97.882Z" fill="#222222"/>
<path d="M97.882 45.5911C95.1229 45.6094 92.8869 47.8472 92.8697 50.6071V50.6392C92.8697 47.8529 90.6096 45.5911 87.8242 45.5911C90.6084 45.5911 92.8697 43.3281 92.8697 40.543V40.575C92.8869 43.3465 95.1412 45.5911 97.9152 45.5911H97.882Z" fill="#F9DCC7"/>
<path fill-rule="evenodd" clip-rule="evenodd" d="M131.096 69.478H74.1177C74.1177 70.3014 74.445 71.0905 75.0263 71.6723C75.6076 72.254 76.3961 72.5816 77.2189 72.5816H127.996C128.819 72.5816 129.608 72.254 130.188 71.6723C130.77 71.0905 131.096 70.3014 131.096 69.478Z" fill="white"/>
<path fill-rule="evenodd" clip-rule="evenodd" d="M131.096 81.749H118.639C115.829 81.749 113.551 84.028 113.551 86.8395C113.551 89.651 115.829 91.93 118.639 91.93H131.096V81.749Z" fill="white"/>
<path fill-rule="evenodd" clip-rule="evenodd" d="M118.755 85.0508C119.741 85.0508 120.541 85.8524 120.541 86.8396C120.541 87.8268 119.741 88.6284 118.755 88.6284C117.768 88.6284 116.967 87.8268 116.967 86.8396C116.967 85.8524 117.768 85.0508 118.755 85.0508Z" fill="white"/>
<path d="M124.401 157.269C124.401 157.269 137.836 151.255 144.806 161.478" stroke="#222222" stroke-width="1.86866" stroke-linecap="round" stroke-linejoin="round"/>
</g>
<defs>
<clipPath id="clip0_180_691">
<rect width="313" height="164.442" fill="white"/>
</clipPath>
</defs>
</svg>
