<svg width="289" height="184" viewBox="0 0 289 184" fill="none" xmlns="http://www.w3.org/2000/svg">
<g clip-path="url(#clip0_3961_26611)">
<path d="M174.926 0.492188H239.41C244.848 0.492188 249.257 4.90275 249.257 10.3442V145.628C249.257 151.07 244.848 155.48 239.41 155.48H174.926C169.487 155.48 165.078 151.07 165.078 145.628V10.3442C165.078 4.90275 169.487 0.492188 174.926 0.492188Z" fill="white"/>
<path d="M239.409 155.98H174.925C169.215 155.974 164.588 151.344 164.582 145.632V10.3481C164.588 4.63614 169.215 0.00612436 174.925 0H239.409C245.119 0.00612436 249.746 4.63614 249.752 10.3481V145.632C249.746 151.344 245.119 155.974 239.409 155.98ZM174.925 0.992147C169.763 0.998271 165.58 5.18325 165.574 10.3481V145.632C165.58 150.797 169.763 154.982 174.925 154.988H239.409C244.571 154.982 248.754 150.797 248.76 145.632V10.3481C248.754 5.18325 244.571 0.998271 239.409 0.992147H174.925Z" fill="#222433"/>
<path d="M248.881 135.648H165.454C165.18 135.648 164.959 135.426 164.959 135.152C164.959 134.879 165.181 134.656 165.454 134.656H248.881C249.155 134.656 249.376 134.879 249.376 135.152C249.376 135.426 249.154 135.648 248.881 135.648Z" fill="#222433"/>
<path opacity="0.61" d="M197.673 143.5H219.369C220.488 143.5 221.395 144.407 221.395 145.527C221.395 146.647 220.488 147.554 219.369 147.554H197.673C196.554 147.554 195.647 146.647 195.647 145.527C195.647 144.407 196.554 143.5 197.673 143.5Z" fill="#F9DCC7"/>
<path d="M204.514 3.9375H213.583C214.019 3.9375 214.372 4.29169 214.372 4.72754C214.372 5.16339 214.019 5.51759 213.583 5.51759H204.514C204.078 5.51759 203.725 5.16339 203.725 4.72754C203.725 4.29169 204.078 3.9375 204.514 3.9375Z" fill="#222433"/>
<path d="M200.761 5.52406C201.201 5.52406 201.558 5.16715 201.558 4.72688C201.558 4.2866 201.201 3.92969 200.761 3.92969C200.321 3.92969 199.965 4.2866 199.965 4.72688C199.965 5.16715 200.321 5.52406 200.761 5.52406Z" fill="#222433"/>
<path d="M207.648 102.642C224.418 102.642 238.012 89.0857 238.012 72.3638C238.012 55.6418 224.418 42.0859 207.648 42.0859C190.879 42.0859 177.284 55.6418 177.284 72.3638C177.284 89.0857 190.879 102.642 207.648 102.642Z" fill="#0C0C0C"/>
<path d="M207.647 103.824C190.25 103.824 176.099 89.7113 176.099 72.365C176.099 55.0188 190.251 40.9062 207.647 40.9062C225.043 40.9062 239.196 55.0188 239.196 72.365C239.196 89.7113 225.043 103.824 207.647 103.824ZM207.647 43.2672C191.531 43.2672 178.466 56.2947 178.466 72.365C178.466 88.4354 191.531 101.463 207.647 101.463C223.763 101.463 236.828 88.4354 236.828 72.365C236.81 56.3029 223.756 43.2856 207.647 43.2672Z" fill="#0C0C0C"/>
<path d="M194.111 72.0497L196.905 69.1641C197.845 68.1923 199.407 68.1495 200.395 69.0681L210.448 78.4159C211.436 79.3336 211.474 80.8657 210.533 81.8374L207.74 84.723C206.799 85.6947 205.237 85.7376 204.249 84.819L194.196 75.4711C193.208 74.5535 193.17 73.0214 194.111 72.0497Z" fill="white"/>
<path d="M204.265 84.7748L201.331 82.0464C200.343 81.1288 200.305 79.5967 201.246 78.6249L219.904 59.3516C220.844 58.3798 222.407 58.337 223.394 59.2556L226.328 61.984C227.316 62.9017 227.354 64.4338 226.413 65.4055L207.755 84.6789C206.814 85.6506 205.252 85.6935 204.265 84.7748Z" fill="white"/>
<path opacity="0.98" d="M248.847 161.24L254.362 145.55C254.969 143.818 254.046 141.927 252.299 141.324C252.261 141.311 252.223 141.299 252.185 141.288C250.422 140.746 248.55 141.721 248.001 143.468L246.832 147.199V141.222C246.834 139.595 245.504 138.275 243.862 138.273H243.851C242.209 138.272 240.877 139.59 240.876 141.217V150.81L239.95 149.562C238.948 148.215 237.09 147.82 235.619 148.641C234.012 149.537 233.441 151.554 234.345 153.146C234.345 153.148 234.347 153.15 234.348 153.152L238.949 161.241H248.847V161.24Z" fill="#C3E8C1"/>
<path d="M27.8344 181.1C27.5949 181.1 27.4004 180.905 27.4004 180.665V114.927C27.4004 114.686 27.5949 114.492 27.8344 114.492C28.0739 114.492 28.2684 114.687 28.2684 114.927V180.665C28.2684 180.906 28.0739 181.1 27.8344 181.1Z" fill="#222433"/>
<path opacity="0.98" d="M34.1683 103.109C33.2941 103.109 32.5857 103.818 32.5847 104.694C32.5847 103.82 31.8763 103.109 31.0021 103.109H31.0011C30.1269 103.109 29.4186 103.82 29.4186 104.695C29.4186 103.819 28.7102 103.109 27.836 103.109H27.835C26.9608 103.109 26.2525 103.818 26.2514 104.694C26.2514 103.821 25.5451 103.111 24.672 103.109C23.7978 103.103 23.0853 103.809 23.0792 104.685V104.696C23.0792 103.82 22.3708 103.11 21.4967 103.11C20.6225 103.11 19.9141 103.819 19.9131 104.695V111.336C19.9131 115.717 23.4559 119.27 27.8278 119.271H27.8309C32.2039 119.271 35.7477 115.718 35.7477 111.336V104.697C35.7477 103.822 35.0414 103.112 34.1683 103.111V103.109Z" fill="#C3E8C1"/>
<path d="M32.6147 111.163C32.3752 111.163 32.1807 110.968 32.1807 110.728V104.49C32.1807 104.249 32.3752 104.055 32.6147 104.055C32.8542 104.055 33.0487 104.25 33.0487 104.49V110.728C33.0487 110.969 32.8542 111.163 32.6147 111.163Z" fill="#222433"/>
<path d="M29.4301 111.163C29.1906 111.163 28.9961 110.968 28.9961 110.728V104.49C28.9961 104.249 29.1906 104.055 29.4301 104.055C29.6696 104.055 29.8641 104.25 29.8641 104.49V110.728C29.8641 110.969 29.6696 111.163 29.4301 111.163Z" fill="#222433"/>
<path d="M26.2446 111.163C26.005 111.163 25.8105 110.968 25.8105 110.728V104.49C25.8105 104.249 26.005 104.055 26.2446 104.055C26.4841 104.055 26.6786 104.25 26.6786 104.49V110.728C26.6786 110.969 26.4841 111.163 26.2446 111.163Z" fill="#222433"/>
<path d="M23.06 111.163C22.8205 111.163 22.626 110.968 22.626 110.728V104.49C22.626 104.249 22.8205 104.055 23.06 104.055C23.2995 104.055 23.494 104.25 23.494 104.49V110.728C23.494 110.969 23.2995 111.163 23.06 111.163Z" fill="#222433"/>
<path d="M13.1772 122.647C12.3624 122.741 11.78 123.478 11.8762 124.293C11.7666 123.479 11.0184 122.907 10.2056 123.014C9.40614 123.119 8.83802 123.843 8.9281 124.645L9.81252 132.141L6.00255 125.613C5.62073 124.886 4.72095 124.603 3.99417 124.982C3.26739 125.361 2.98691 126.259 3.36975 126.986C3.39534 127.02 3.41479 127.058 3.4281 127.099C3.03502 126.375 2.13115 126.105 1.40949 126.495C0.686801 126.885 0.420655 127.788 0.812708 128.511C0.816803 128.519 0.821921 128.528 0.826015 128.535C0.83011 128.548 0.846488 128.557 0.849559 128.571L1.34807 129.43L4.70867 135.227C5.89097 137.28 8.17368 138.445 10.526 138.196L10.5301 138.209C11.3623 138.102 12.1648 137.837 12.8978 137.429L12.8937 137.416C14.9205 136.204 16.0424 133.913 15.7599 131.564L14.9481 124.927L14.8263 123.939C14.7434 123.142 14.0299 122.56 13.2315 122.64C13.2141 122.642 13.1967 122.644 13.1782 122.646L13.1772 122.647Z" fill="white"/>
<path d="M13.0961 137.789C12.3192 138.223 11.4654 138.504 10.582 138.617C10.5431 138.622 10.5032 138.621 10.4643 138.615C7.98405 138.836 5.59693 137.592 4.35219 135.433L0.502288 128.793C0.483862 128.768 0.468508 128.742 0.4552 128.714C-0.045358 127.795 0.292442 126.649 1.20962 126.152C1.69994 125.887 2.28239 125.852 2.8024 126.056C2.81673 125.942 2.84232 125.828 2.87713 125.719C3.02555 125.243 3.36028 124.846 3.80454 124.618C4.25392 124.384 4.77802 124.34 5.26118 124.495C5.73512 124.644 6.13127 124.976 6.36159 125.417L9.17454 130.235L8.52044 124.692C8.40579 123.653 9.15611 122.721 10.1951 122.61C10.7591 122.55 11.3211 122.746 11.7265 123.144C12.0254 122.653 12.53 122.322 13.1002 122.245C13.1258 122.24 13.1514 122.237 13.177 122.236C13.6704 122.188 14.1637 122.334 14.5517 122.642C14.9417 122.952 15.1884 123.408 15.2334 123.903L15.3542 124.878L16.166 131.517C16.4639 133.991 15.302 136.409 13.1872 137.719C13.1606 137.746 13.1299 137.77 13.0971 137.789H13.0961ZM10.5739 137.789C11.2884 137.686 11.9783 137.459 12.6119 137.117C12.6324 137.097 12.6549 137.08 12.6795 137.065C14.5671 135.935 15.6122 133.801 15.3501 131.614L14.4166 123.989C14.393 123.711 14.2569 123.454 14.0378 123.281C13.8106 123.098 13.5178 123.016 13.2292 123.054C12.6396 123.122 12.2168 123.652 12.2823 124.242C12.3099 124.467 12.1503 124.672 11.9251 124.699C11.7039 124.725 11.5013 124.571 11.4685 124.35C11.3835 123.762 10.839 123.349 10.2494 123.429C9.67612 123.506 9.26974 124.026 9.33423 124.602L10.2186 132.094C10.2453 132.319 10.0846 132.522 9.85935 132.549C9.6966 132.567 9.53895 132.489 9.45604 132.347L5.64606 125.819L5.63583 125.801C5.50685 125.55 5.28267 125.361 5.01243 125.275C4.73707 125.186 4.43817 125.212 4.18226 125.345C3.93147 125.473 3.74312 125.698 3.65816 125.966C3.57217 126.235 3.59469 126.528 3.72163 126.78C3.76564 126.845 3.79942 126.917 3.82092 126.992C3.87927 127.212 3.74926 127.436 3.53021 127.493C3.34902 127.541 3.15863 127.461 3.0665 127.297C2.77783 126.776 2.12168 126.586 1.60065 126.872C1.08678 127.154 0.895364 127.797 1.17072 128.317C1.18505 128.337 1.19836 128.358 1.20962 128.38L5.0585 135.02C6.15993 136.932 8.285 138.018 10.4766 137.786C10.5083 137.783 10.5401 137.783 10.5708 137.786L10.5739 137.789Z" fill="#222433"/>
<path d="M3.37207 127L6.31196 132.072L3.37207 127Z" fill="white"/>
<path d="M6.51408 132.429C6.31857 132.539 6.07084 132.469 5.95824 132.275L3.01836 127.203C2.90474 127.007 2.97127 126.756 3.16679 126.643C3.35923 126.529 3.60797 126.592 3.72262 126.785C3.72467 126.788 3.72569 126.791 3.72774 126.794L6.66763 131.866C6.78125 132.062 6.71471 132.313 6.5192 132.426L6.51408 132.429Z" fill="#222433"/>
<path d="M11.873 124.18L12.5783 129.996L11.873 124.18Z" fill="white"/>
<path d="M12.7808 130.357C12.5832 130.467 12.3324 130.396 12.2219 130.196C12.1952 130.15 12.1789 130.098 12.1727 130.045L11.4674 124.228C11.4378 124.004 11.5964 123.798 11.8206 123.769C12.0458 123.74 12.2515 123.9 12.2812 124.124C12.2812 124.127 12.2812 124.129 12.2812 124.132L12.9865 129.949C13.007 130.115 12.9251 130.276 12.7797 130.357H12.7808Z" fill="#222433"/>
<path d="M26.737 183.628C26.7135 183.641 26.6889 183.651 26.6633 183.659C26.4474 183.729 26.216 183.61 26.1454 183.395L10.3445 135.026C10.2759 134.809 10.3957 134.58 10.6117 134.511C10.8256 134.444 11.0539 134.561 11.1256 134.774L26.9274 183.143C26.9889 183.329 26.909 183.533 26.7381 183.629L26.737 183.628Z" fill="#222433"/>
<g opacity="0.98">
<path d="M278.4 121.426C280.458 121.426 282.127 119.736 282.127 117.651C282.127 115.565 280.458 113.875 278.4 113.875C276.342 113.875 274.673 115.565 274.673 117.651C274.673 119.736 276.342 121.426 278.4 121.426Z" fill="#C3E8C1"/>
<path d="M273.245 128.754C275.303 128.754 276.972 127.064 276.972 124.979C276.972 122.894 275.303 121.203 273.245 121.203C271.186 121.203 269.518 122.894 269.518 124.979C269.518 127.064 271.186 128.754 273.245 128.754Z" fill="#C3E8C1"/>
<path d="M280.573 130.153C282.631 130.153 284.3 128.462 284.3 126.377C284.3 124.292 282.631 122.602 280.573 122.602C278.514 122.602 276.846 124.292 276.846 126.377C276.846 128.462 278.514 130.153 280.573 130.153Z" fill="#C3E8C1"/>
<path d="M271.713 137.004C273.772 137.004 275.44 135.314 275.44 133.229C275.44 131.144 273.772 129.453 271.713 129.453C269.655 129.453 267.986 131.144 267.986 133.229C267.986 135.314 269.655 137.004 271.713 137.004Z" fill="#C3E8C1"/>
<path d="M279.041 138.395C281.099 138.395 282.768 136.705 282.768 134.619C282.768 132.534 281.099 130.844 279.041 130.844C276.982 130.844 275.313 132.534 275.313 134.619C275.313 136.705 276.982 138.395 279.041 138.395Z" fill="#C3E8C1"/>
</g>
<path d="M270.115 162.68C270.317 162.68 270.49 162.534 270.528 162.333L278.813 117.731C278.856 117.501 278.706 117.278 278.477 117.234C278.249 117.19 278.03 117.342 277.987 117.574L269.702 162.176C269.659 162.406 269.809 162.629 270.036 162.672C270.062 162.677 270.089 162.679 270.115 162.68Z" fill="#222433"/>
<path d="M150.06 159.331C149.851 159.331 149.681 159.163 149.681 158.957C149.681 158.922 149.686 158.888 149.695 158.854L152.632 148.743C152.688 148.544 152.897 148.427 153.099 148.482C153.301 148.538 153.419 148.743 153.364 148.942C153.364 148.944 153.363 148.946 153.362 148.948L150.425 159.059C150.379 159.219 150.229 159.33 150.059 159.331H150.06Z" fill="#222433"/>
<path opacity="0.98" d="M152.997 150.8C154.095 150.8 154.985 149.925 154.985 148.845C154.985 147.766 154.095 146.891 152.997 146.891C151.899 146.891 151.009 147.766 151.009 148.845C151.009 149.925 151.899 150.8 152.997 150.8Z" fill="#C3E8C1"/>
<path d="M150.059 159.331C149.904 159.331 149.764 159.237 149.706 159.094L146.605 151.323C146.528 151.132 146.624 150.914 146.819 150.839C147.014 150.763 147.234 150.857 147.311 151.049L150.412 158.82C150.489 159.012 150.393 159.229 150.199 159.305C150.155 159.322 150.106 159.331 150.059 159.33V159.331Z" fill="#222433"/>
<path opacity="0.98" d="M146.958 152.729C147.825 152.729 148.528 152.038 148.528 151.185C148.528 150.332 147.825 149.641 146.958 149.641C146.091 149.641 145.388 150.332 145.388 151.185C145.388 152.038 146.091 152.729 146.958 152.729Z" fill="#C3E8C1"/>
<path d="M149.744 97.2106C148.44 95.5591 146.775 92.1958 144.121 90.1237C139.937 79.0733 132.08 68.4577 132.08 68.4577L131.09 62.4375L120.339 63.3531L122.168 75.2895L131.675 90.2441C131.945 90.6647 132.065 91.1597 132.035 91.6558C131.495 98.953 134.389 103.412 134.389 103.412C134.389 103.412 135.559 105.649 137.524 104.958C137.973 104.793 138.723 104.253 138.723 104.253C140.388 105.378 141.917 104.808 142.577 103.817C143.297 104.298 144.407 104.508 145.261 104.372C146.656 104.146 147.33 103.036 147.51 101.895L147.571 100.138L147.451 99.7777C149.835 100.948 151.17 99.0275 149.745 97.2106H149.744Z" fill="white"/>
<path d="M136.789 105.572C135.395 105.572 134.39 104.416 133.986 103.665C133.746 103.29 131.031 98.8455 131.572 91.6239C131.602 91.234 131.497 90.843 131.287 90.5133L121.781 75.5587C121.751 75.4984 121.72 75.4382 121.706 75.378L119.877 63.4416C119.862 63.3069 119.892 63.1711 119.967 63.066C120.042 62.9609 120.177 62.9006 120.297 62.8853L131.033 61.9697C131.272 61.9544 131.513 62.1198 131.542 62.375L132.517 68.2901C133.297 69.371 140.554 79.4609 144.513 89.8509C146.387 91.3524 147.752 93.4398 148.861 95.1209C149.326 95.8415 149.731 96.457 150.106 96.9225C150.916 97.9432 151.035 99.115 150.391 99.9102C149.971 100.436 149.161 100.811 148.036 100.51L147.976 101.922V101.967C147.751 103.543 146.761 104.625 145.337 104.849C144.482 104.984 143.478 104.82 142.698 104.444C142.293 104.88 141.739 105.194 141.139 105.315C140.584 105.42 139.729 105.42 138.739 104.849C138.455 105.044 138.02 105.315 137.675 105.435C137.375 105.511 137.075 105.57 136.79 105.57L136.789 105.572ZM122.635 75.1228L132.096 89.9866C132.411 90.497 132.576 91.0972 132.531 91.6831C132.111 97.3134 133.835 101.637 134.811 103.154C134.826 103.169 134.826 103.184 134.826 103.199C134.871 103.274 135.83 105.061 137.375 104.505C137.66 104.4 138.185 104.055 138.455 103.859C138.62 103.739 138.845 103.739 139.01 103.844C139.67 104.294 140.345 104.46 140.959 104.339C141.468 104.234 141.918 103.949 142.188 103.529C142.338 103.303 142.637 103.244 142.848 103.394C143.448 103.799 144.438 103.994 145.203 103.875C146.597 103.649 146.957 102.388 147.047 101.833L147.108 100.197L147.002 99.9122C146.942 99.7315 146.987 99.5223 147.137 99.4018C147.287 99.2671 147.498 99.2518 147.663 99.3263C148.533 99.7468 149.282 99.7315 149.657 99.2814C150.002 98.8608 149.882 98.1402 149.357 97.4798C148.951 96.9694 148.532 96.3386 148.053 95.6027C146.973 93.9511 145.608 91.8791 143.81 90.4827C143.735 90.4225 143.674 90.348 143.645 90.2571C139.536 79.417 131.739 68.8321 131.664 68.7269C131.619 68.6667 131.589 68.5922 131.574 68.5167L130.659 62.9313L120.882 63.757L122.637 75.1228H122.635Z" fill="#222433"/>
<path d="M132.352 96.8804C133.101 93.7723 135.89 94.8981 136.31 96.22C136.715 93.7876 139.444 93.4875 140.449 95.4698C140.988 93.1874 143.987 92.8424 144.512 96.7314C144.662 97.8572 145.562 101.191 145.562 101.191" fill="white"/>
<path d="M145.56 101.653C145.35 101.653 145.154 101.519 145.095 101.293C145.065 101.158 144.195 97.9144 144.03 96.7732C143.776 94.941 142.981 94.2663 142.321 94.2204C141.676 94.1908 141.092 94.7307 140.896 95.5412C140.851 95.7361 140.686 95.8862 140.491 95.9015C140.295 95.9168 140.101 95.826 140.011 95.6463C139.561 94.7603 138.796 94.5358 138.226 94.6256C137.477 94.746 136.937 95.3462 136.787 96.2618C136.757 96.4721 136.577 96.6374 136.352 96.667C136.142 96.6824 135.932 96.5466 135.858 96.3363C135.693 95.8413 134.988 95.3156 134.268 95.3452C133.384 95.3748 132.978 96.2465 132.813 96.9671C132.753 97.2223 132.498 97.3877 132.229 97.3121C131.974 97.2519 131.809 96.9967 131.869 96.7416C132.363 94.6695 133.682 94.399 134.223 94.3847C134.913 94.3551 135.632 94.6552 136.142 95.1206C136.532 94.3398 137.222 93.8141 138.077 93.6794C138.916 93.5446 139.726 93.8447 140.326 94.4449C140.791 93.6794 141.541 93.2139 142.38 93.2435C143.43 93.2884 144.66 94.204 144.99 96.6221C145.139 97.7031 146.009 100.991 146.024 101.021C146.099 101.277 145.934 101.532 145.679 101.607C145.634 101.652 145.605 101.652 145.56 101.652V101.653Z" fill="#222433"/>
<path d="M140.448 95.4531C140.448 95.4531 140.373 97.4497 141.842 101.564L140.448 95.4531Z" fill="white"/>
<path d="M141.842 102.042C141.648 102.042 141.468 101.921 141.393 101.726C139.909 97.5821 139.968 95.5254 139.968 95.4498C139.983 95.1946 140.193 94.9844 140.448 94.9844H140.464C140.734 94.9997 140.928 95.21 140.928 95.4794C140.928 95.509 140.899 97.476 142.293 101.41C142.383 101.665 142.248 101.936 142.008 102.025C141.948 102.025 141.888 102.041 141.843 102.041L141.842 102.042Z" fill="#222433"/>
<path d="M136.309 96.2188C136.309 96.2188 136.683 99.8372 137.779 102.014L136.309 96.2188Z" fill="white"/>
<path d="M137.779 102.495C137.599 102.495 137.434 102.405 137.344 102.224C136.219 99.9866 135.844 96.4131 135.83 96.263C135.8 95.9925 135.995 95.768 136.25 95.7374C136.52 95.7077 136.744 95.9027 136.775 96.1579C136.775 96.1875 137.15 99.7161 138.185 101.788C138.304 102.028 138.2 102.314 137.975 102.434C137.93 102.479 137.855 102.495 137.78 102.495H137.779Z" fill="#222433"/>
<path d="M144.541 96.8906C144.541 96.8906 146.16 98.9627 147.465 99.7732L144.541 96.8906Z" fill="white"/>
<path d="M147.45 100.253C147.36 100.253 147.27 100.224 147.195 100.178C145.846 99.3368 144.227 97.2647 144.151 97.1902C143.986 96.98 144.031 96.6799 144.241 96.5145C144.451 96.3492 144.751 96.3941 144.915 96.6043C144.931 96.6196 146.49 98.6162 147.705 99.3674C147.93 99.5022 148.005 99.8033 147.854 100.028C147.78 100.163 147.615 100.253 147.449 100.253H147.45Z" fill="#222433"/>
<path d="M123.714 30.9618C125.089 30.9618 126.204 29.8458 126.204 28.4692C126.204 27.0925 125.089 25.9766 123.714 25.9766C122.339 25.9766 121.225 27.0925 121.225 28.4692C121.225 29.8458 122.339 30.9618 123.714 30.9618Z" fill="white"/>
<path d="M123.713 32.9047C121.269 32.9047 119.29 30.9225 119.29 28.4758C119.29 26.0291 121.27 24.0469 123.713 24.0469C126.157 24.0469 128.136 26.0291 128.136 28.4758C128.136 30.9225 126.157 32.9047 123.713 32.9047ZM123.713 24.9472C121.764 24.9472 120.19 26.5232 120.19 28.4758C120.19 30.4285 121.764 32.0045 123.713 32.0045C125.662 32.0045 127.237 30.4131 127.237 28.4758C127.237 26.5385 125.647 24.9472 123.713 24.9472Z" fill="#222433"/>
<path d="M102.196 102.266L102.136 136.753H118.045L123.863 106.5L124.389 103.767L102.196 102.266Z" fill="white"/>
<path d="M102.121 137.208C101.866 137.208 101.672 137.013 101.672 136.758L101.732 102.27C101.732 102.015 101.927 101.82 102.182 101.82H102.211L124.404 103.322C124.659 103.337 124.839 103.547 124.823 103.803V103.863L124.298 106.595L118.466 136.834C118.421 137.045 118.24 137.195 118.031 137.195L102.121 137.21V137.208ZM102.646 102.75L102.586 136.307H117.67L123.428 106.428L123.863 104.19L102.646 102.749V102.75Z" fill="#222433"/>
<path d="M118.676 135.837C118.286 140.402 121.345 144.245 125.679 145.701C127.508 146.317 131.002 147.999 132.817 148.674C136.116 149.92 138.29 152.608 138.005 155.985H101.657L101.673 135.881L118.676 135.836V135.837Z" fill="#F9DCC7"/>
<path d="M106.021 110.495C105.526 111.381 103.382 113.813 103.382 113.813L82.4199 137.701L66.9609 130.54L84.6545 102.719L106.022 110.496L106.021 110.495Z" fill="white"/>
<path d="M82.4183 138.153C82.3579 138.153 82.2832 138.138 82.2238 138.108L66.7649 130.947C66.5397 130.842 66.4353 130.571 66.5397 130.347C66.555 130.331 66.555 130.317 66.5694 130.302L84.2476 102.481C84.3827 102.27 84.6529 102.21 84.8628 102.346C85.0726 102.482 85.133 102.751 84.9979 102.961L67.5889 130.348L82.2689 137.149L103.007 113.516C103.591 112.855 105.211 110.978 105.601 110.273C105.72 110.063 105.991 109.973 106.216 110.092C106.426 110.213 106.516 110.482 106.396 110.708C105.886 111.623 103.787 113.996 103.697 114.101L82.7346 137.989C82.6742 138.094 82.5545 138.154 82.4193 138.154L82.4183 138.153Z" fill="#222433"/>
<path d="M113.443 89.0289L106.395 110.635L84.248 102.692L93.6798 81.1315C93.6051 80.6957 93.5601 80.2455 93.5304 79.7954C93.1854 74.6908 95.6145 70.0965 99.4378 67.6794L103.337 67.6641L123.714 68.4745L124.973 104.508H108.389L113.442 89.0289H113.443Z" fill="#B5E7EA"/>
<path d="M83.3029 137.413C75.8201 145.131 81.3386 148.658 81.3386 148.658C84.6224 149.499 86.8263 152.592 86.5264 155.97H73.346L56.3721 143.042L66.7487 129.875L83.3029 137.412V137.413Z" fill="#F9DCC7"/>
<path d="M135.365 150.101C135.29 150.161 135.2 150.19 135.11 150.19H101.672V149.289H134.135C134.571 149.529 134.975 149.799 135.365 150.1V150.101Z" fill="#222433"/>
<path d="M126.803 149.739C126.803 149.994 126.608 150.189 126.353 150.189H119.876C116.532 150.174 113.818 147.472 113.803 144.108C113.803 143.088 112.978 142.276 111.958 142.276H101.657V141.375H111.958C113.472 141.375 114.687 142.606 114.687 144.107C114.687 146.96 116.996 149.272 119.845 149.272H126.383C126.638 149.302 126.803 149.498 126.803 149.738V149.739Z" fill="#222433"/>
<path d="M85.6884 152.028C85.6136 152.073 85.5389 152.088 85.4632 152.088H80.7698C79.5701 152.088 78.4011 151.668 77.4563 150.902L71.7884 146.248L69.1198 144.055L60.8877 137.299L61.4425 136.594H61.4579L67.8607 141.848L69.6899 143.35L72.3586 145.542V145.558L78.0111 150.197C78.7911 150.828 79.7503 151.173 80.7555 151.173H85.1192C85.3588 151.458 85.5389 151.743 85.6894 152.028H85.6884Z" fill="#222433"/>
<path d="M72.4469 146.201C72.3568 146.306 72.237 146.366 72.1019 146.366C71.9965 146.366 71.8921 146.337 71.8173 146.261L69.1487 144.069C67.6788 142.867 67.4096 140.705 68.5642 139.188C69.4343 138.018 69.1938 136.351 68.0248 135.465L64.4861 132.822C64.4861 132.822 64.4707 132.822 64.4707 132.807L65.0255 132.102L68.5642 134.729C70.1386 135.9 70.4682 138.122 69.2992 139.699C68.1292 141.275 69.2838 139.714 69.2838 139.714C68.4291 140.855 68.6236 142.462 69.7332 143.362L72.4018 145.555C72.5666 145.72 72.5963 146.005 72.4469 146.201Z" fill="#222433"/>
<path d="M99.4534 67.6888C98.7788 65.2717 97.3989 59.281 97.8493 55.2573C98.9886 44.9572 106.906 41.1886 108.946 39.4922L120.342 40.2424C120.342 40.2424 121.991 40.9927 123.941 42.9453C126.415 45.4226 129.683 53.6803 129.683 53.6803L123.79 67.7337L99.4544 67.6888H99.4534Z" fill="white"/>
<path d="M123.79 68.1821L99.4536 68.1525C99.2591 68.1525 99.079 68.0178 99.0186 67.8218C98.7934 67.0257 96.8741 59.9245 97.3992 55.225C98.4034 46.2467 104.492 42.0577 107.431 40.0458C107.941 39.7008 108.376 39.3997 108.66 39.1598C108.75 39.0843 108.855 39.0547 108.975 39.0547L120.372 39.8049C120.432 39.8049 120.477 39.8202 120.521 39.8498C120.596 39.8794 122.26 40.6603 124.254 42.6425C126.773 45.1648 129.967 53.1979 130.102 53.5276C130.147 53.6327 130.147 53.7532 130.102 53.8726L124.195 67.8963C124.135 68.0617 123.97 68.1811 123.79 68.1811V68.1821ZM99.7986 67.2359L123.49 67.2655L129.203 53.6776C128.722 52.4915 125.813 45.4495 123.625 43.258C121.976 41.6065 120.551 40.841 120.221 40.6756L109.08 39.9397C108.78 40.1795 108.376 40.45 107.925 40.7654C104.881 42.8528 99.2284 46.7408 98.2836 55.2996C97.8342 59.458 99.3636 65.6293 99.7976 67.2359H99.7986Z" fill="#222433"/>
<path d="M159.236 51.1164C157.407 51.7626 154.798 52.1821 152.519 52.5577C155.219 53.3079 158.892 54.1939 158.817 55.6056C158.697 57.6328 155.533 57.002 153.388 56.807C148.65 56.3711 147.87 58.5637 145.756 60.7256C144.121 62.3475 141.708 62.8722 139.549 62.0923L112.649 72.7528C109.41 74.044 105.751 72.4976 104.387 69.2997L104.252 68.9843L101.403 62.2281C99.9483 58.7903 101.552 54.8258 104.987 53.3692C108.421 51.9126 112.379 53.5192 113.834 56.9581H113.819L114.344 58.2197L136.97 51.734C137.3 51.6442 137.66 51.5686 138.005 51.539C140.24 49.9477 142.563 48.7167 144.857 47.3347C148.486 45.1278 159.912 41.7941 160.541 44.6318C160.751 45.5474 159.957 46.0434 158.338 46.614L155.399 47.5449C154.484 47.8297 153.45 48.1604 152.309 48.5656C153.599 48.3401 154.664 48.1757 155.743 48.0553L159.761 47.8154C161.261 47.7256 161.816 49.7528 160.466 50.4428L159.236 51.1185V51.1164Z" fill="white"/>
<path d="M110.294 73.663C107.55 73.663 105.061 72.0115 103.981 69.4739L103.846 69.1585L100.997 62.4023C99.4528 58.7389 101.162 54.505 104.821 52.9586C108.479 51.4122 112.708 53.1239 114.253 56.7873C114.268 56.8169 114.268 56.8322 114.282 56.8629L114.627 57.6733L136.879 51.307C137.209 51.2172 137.539 51.1417 137.869 51.1121C139.398 50.0311 141.003 49.1002 142.547 48.1989C143.237 47.7937 143.956 47.3732 144.646 46.9526C147.781 45.0459 157.047 42.1481 159.971 43.4097C160.675 43.7098 160.916 44.1905 160.991 44.5355C161.306 45.9319 159.926 46.5474 158.501 47.0424L156.897 47.5528L159.761 47.3874C160.781 47.3272 161.636 48.1081 161.696 49.1145C161.741 49.8351 161.351 50.5262 160.706 50.8559L159.447 51.502C159.432 51.5173 159.417 51.5173 159.387 51.5316C158.052 51.997 156.313 52.3574 154.603 52.6575C157.107 53.3781 159.342 54.2039 159.267 55.6155C159.252 56.1106 159.042 56.576 158.667 56.8914C157.693 57.7172 155.818 57.5069 154.154 57.3273C153.884 57.2977 153.614 57.2671 153.36 57.2375C149.701 56.8925 148.636 58.1388 147.152 59.8495C146.823 60.2251 146.478 60.6304 146.088 61.0203C144.378 62.7167 141.859 63.3026 139.565 62.5514L112.814 73.1669C112.02 73.4976 111.15 73.662 110.295 73.662L110.294 73.663ZM107.626 53.3036C104.147 53.3036 101.328 56.1412 101.342 59.6249C101.342 60.466 101.507 61.2918 101.837 62.0726L104.821 69.1442C106.065 72.1319 109.499 73.5732 112.498 72.3575L139.383 61.6521C139.488 61.6072 139.593 61.6072 139.698 61.6521C141.692 62.3727 143.927 61.8777 145.441 60.3905C145.801 60.0149 146.145 59.6402 146.46 59.2646C147.99 57.4926 149.309 55.9769 153.432 56.3515C153.687 56.3811 153.957 56.4117 154.242 56.4413C155.651 56.5913 157.406 56.7863 158.081 56.2157C158.261 56.0504 158.365 55.8258 158.365 55.5696C158.38 55.4042 158.245 54.9694 156.82 54.3539C155.756 53.9038 154.317 53.5128 153.057 53.1678C152.831 53.1076 152.607 53.0474 152.396 52.9872C152.157 52.9269 152.022 52.6717 152.081 52.4319C152.126 52.2665 152.276 52.1318 152.441 52.1012L152.622 52.0716C154.811 51.7112 157.3 51.306 159.054 50.6905L160.299 50.0597C160.764 49.8198 160.944 49.2635 160.704 48.7981C160.539 48.4674 160.179 48.2724 159.82 48.2877L155.801 48.5276C154.842 48.6327 153.866 48.7828 152.412 49.0226C152.172 49.0676 151.932 48.9022 151.887 48.647C151.857 48.4368 151.977 48.2265 152.171 48.152C153.386 47.7161 154.465 47.3711 155.275 47.1159L158.214 46.185C159.938 45.5848 160.223 45.1939 160.118 44.7284C160.088 44.5937 159.998 44.3977 159.623 44.2334C157.209 43.1974 148.362 45.7502 145.108 47.7171C144.404 48.1377 143.683 48.5582 142.994 48.9634C141.435 49.879 139.816 50.8099 138.285 51.9062C138.225 51.9511 138.136 51.9817 138.06 51.9817C137.745 52.0113 137.431 52.0716 137.115 52.1624L114.489 58.6481C114.264 58.7083 114.04 58.6032 113.95 58.3929L113.424 57.1313C113.409 57.1017 113.409 57.0864 113.395 57.0558C112.391 54.7734 110.126 53.3026 107.621 53.3026L107.626 53.3036Z" fill="#222433"/>
<path d="M112.708 59.1469C112.453 59.1469 112.259 58.952 112.259 58.6968C112.259 58.4865 112.394 58.3212 112.588 58.2609L114.253 57.7955C114.492 57.7353 114.747 57.871 114.808 58.1109C114.868 58.3508 114.733 58.5916 114.492 58.6662L112.828 59.1316C112.783 59.1469 112.738 59.1469 112.708 59.1469Z" fill="#222433"/>
<path d="M124.388 55.6176C124.133 55.6176 123.938 55.4226 123.938 55.1674V49.9423C123.938 49.6871 124.133 49.4922 124.388 49.4922C124.643 49.4922 124.837 49.6871 124.837 49.9423V55.1674C124.837 55.4073 124.627 55.6176 124.388 55.6176Z" fill="#222433"/>
<path d="M114.358 58.682C114.178 58.682 114.013 58.5769 113.938 58.3972L110.309 49.3291C110.219 49.1035 110.325 48.834 110.564 48.7432C110.804 48.6523 111.059 48.7585 111.149 48.9984L114.777 58.0665C114.868 58.2921 114.762 58.5616 114.523 58.6524C114.478 58.6677 114.417 58.682 114.358 58.682Z" fill="#222433"/>
<path d="M105.944 111.127C105.69 111.127 105.495 110.932 105.495 110.677C105.495 110.632 105.51 110.572 105.525 110.527L113.472 87.1041C113.547 86.8642 113.802 86.7438 114.042 86.8193C114.283 86.8948 114.403 87.15 114.327 87.3899L106.38 110.812C106.305 111.007 106.14 111.128 105.944 111.128V111.127Z" fill="#222433"/>
<path d="M114.252 26.4722C113.337 24.4001 110.923 23.4692 108.854 24.3848C106.785 25.3004 105.855 27.7174 106.77 29.7895C107.55 31.5615 109.469 32.5373 111.358 32.1321L108.809 40.7654C108.015 43.453 109.558 46.2753 112.242 47.0714C114.881 47.8523 117.671 46.3804 118.51 43.7388L119.89 39.4599C123.968 38.8597 126.802 35.0759 126.203 30.9766C125.993 29.52 125.348 28.1543 124.358 27.0581C124.373 27.0131 124.388 26.9682 124.403 26.9233C124.433 26.8335 124.463 26.7426 124.493 26.6681C124.943 25.2116 124.943 23.6498 124.478 22.1943L124.238 21.3389L120.79 18.3359L114.252 26.4732V26.4722Z" fill="white"/>
<path d="M113.682 47.7382C110.638 47.7382 108.164 45.2609 108.164 42.1977C108.164 41.672 108.239 41.1463 108.389 40.6513L110.743 32.6784C109.409 32.7386 108.12 32.2282 107.205 31.2524C105.495 29.4202 105.585 26.553 107.399 24.8259C108.148 24.1206 109.124 23.6848 110.158 23.6102C112.077 23.4755 113.877 24.5411 114.656 26.2978C114.761 26.5234 114.656 26.7929 114.431 26.898C114.205 27.0031 113.936 26.898 113.831 26.6724V26.6571C113.021 24.8106 110.862 23.9848 109.033 24.7953C107.788 25.3506 106.964 26.5367 106.874 27.8881C106.739 29.9 108.268 31.627 110.263 31.7618C110.338 31.7618 110.428 31.7771 110.503 31.7771C110.758 31.7771 111.013 31.7475 111.267 31.7015C111.507 31.6566 111.748 31.8067 111.807 32.0466C111.822 32.1221 111.822 32.1966 111.792 32.2721L109.243 40.9054C108.523 43.3531 109.933 45.9356 112.377 46.6562C114.791 47.3615 117.31 46.0254 118.075 43.6236L119.455 39.3294C119.5 39.1641 119.649 39.0447 119.815 39.014C123.654 38.4588 126.308 34.8852 125.753 31.0564C125.558 29.6897 124.959 28.3985 124.028 27.3624C123.908 27.242 123.879 27.0623 123.938 26.897C123.953 26.8674 123.968 26.8214 123.983 26.7765C124.013 26.701 124.044 26.6112 124.073 26.5367C124.493 25.1699 124.493 23.699 124.058 22.3323L123.833 21.5963L120.488 18.6689C120.308 18.5035 120.294 18.2188 120.459 18.0381C120.624 17.8574 120.894 17.8431 121.088 17.9932L124.537 20.9962C124.597 21.0564 124.642 21.1309 124.672 21.2064L124.942 22.0771C125.422 23.6235 125.437 25.275 124.942 26.8214C124.927 26.8817 124.913 26.9266 124.882 26.9868C127.686 30.3348 127.251 35.3343 123.907 38.1423C122.858 39.0283 121.584 39.6285 120.234 39.8694L118.944 43.8931C118.209 46.1908 116.08 47.7372 113.68 47.7372L113.682 47.7382Z" fill="#222433"/>
<path d="M121.989 29.7779C121.825 29.7779 121.495 29.7626 120.76 29.733C120.505 29.733 120.311 29.5227 120.325 29.2675C120.325 29.0123 120.535 28.8174 120.79 28.8317H120.805C121.285 28.847 121.84 28.8766 122.005 28.8766C122.065 28.847 122.11 28.7867 122.095 28.7112L121.046 25.6633C120.971 25.4234 121.091 25.1683 121.33 25.0927C121.57 25.0172 121.825 25.1376 121.9 25.3775L122.965 28.455C122.965 28.4703 122.98 28.4846 122.98 28.4999C123.115 29.0705 122.77 29.6411 122.2 29.7758C122.126 29.7758 122.065 29.7911 121.99 29.7758L121.989 29.7779Z" fill="#222433"/>
<path d="M110.07 29.7639C109.815 29.7639 109.621 29.5689 109.621 29.3137C109.621 29.133 109.74 28.9534 109.905 28.8932L111.509 28.293L108.886 27.3019C108.646 27.212 108.541 26.9569 108.615 26.716C108.706 26.4761 108.96 26.371 109.2 26.4455L112.933 27.8571C113.173 27.947 113.278 28.2021 113.188 28.443C113.143 28.5635 113.053 28.6533 112.933 28.6982L110.22 29.7189C110.19 29.7485 110.129 29.7639 110.07 29.7639Z" fill="#222433"/>
<path d="M121.045 34.2825C119.755 34.2825 118.406 33.2016 118.331 31.1295C118.316 30.8743 118.511 30.6641 118.766 30.6641H118.796L123.099 30.7988C123.354 30.7988 123.548 31.0091 123.534 31.2643C123.459 33.3363 122.23 34.2672 121.045 34.2825ZM119.29 31.5654C119.5 32.7515 120.294 33.3669 121.06 33.3669C121.689 33.3669 122.424 32.9168 122.605 31.6705L119.291 31.5654H119.29Z" fill="#222433"/>
<path d="M118.316 26.8059C118.622 26.8059 118.87 26.5573 118.87 26.2506C118.87 25.9439 118.622 25.6953 118.316 25.6953C118.009 25.6953 117.761 25.9439 117.761 26.2506C117.761 26.5573 118.009 26.8059 118.316 26.8059Z" fill="#222433" stroke="#222433" stroke-width="2.61152" stroke-miterlimit="10"/>
<path d="M123.729 26.6574C124.035 26.6574 124.283 26.4088 124.283 26.1022C124.283 25.7955 124.035 25.5469 123.729 25.5469C123.422 25.5469 123.174 25.7955 123.174 26.1022C123.174 26.4088 123.422 26.6574 123.729 26.6574Z" fill="#222433" stroke="#222433" stroke-width="2.61152" stroke-miterlimit="10"/>
<path d="M114.641 27.0472C117.7 25.6958 121.479 18.9845 121.479 18.9845L124.313 21.3414C123.143 17.483 120.594 16.056 118.6 15.3507C113.817 13.639 108.554 16.1469 106.845 20.9361C106.755 21.176 106.68 21.4312 106.62 21.6721C105.84 17.9332 102.542 15.2456 98.7327 15.2456H94.1744C89.7513 15.2456 86.0478 18.7742 86.0027 23.2032C85.9423 27.6627 89.4964 31.3261 93.9502 31.3863H98.7337C102.302 31.3863 105.436 29.0438 106.456 25.6213C106.501 25.9061 106.576 26.1919 106.65 26.4766L106.666 26.5216C108.346 22.6928 113.294 23.1429 114.493 27.0472C114.508 27.0921 114.642 27.0472 114.642 27.0472H114.641Z" fill="white"/>
<path d="M98.7341 31.8362H94.056C89.3627 31.8362 85.5537 28.0228 85.5537 23.3234V23.2029C85.6141 18.5637 89.4824 14.7952 94.1758 14.7952H98.7341C102.228 14.8105 105.362 16.9418 106.651 20.1999C108.676 15.5301 113.953 13.2182 118.751 14.9146C121.825 16.0109 123.79 18.0676 124.734 21.2054C124.809 21.4452 124.674 21.7004 124.435 21.7606C124.285 21.8055 124.135 21.7759 124.015 21.6708L121.601 19.6436C120.672 21.2196 117.537 26.2498 114.824 27.4359C114.808 27.4359 114.794 27.4512 114.779 27.4512C114.629 27.5114 114.449 27.5114 114.298 27.4359C114.179 27.3757 114.104 27.2705 114.059 27.1511C113.549 25.5149 112.245 24.4186 110.655 24.3288C109.126 24.239 107.746 25.1546 107.072 26.701C106.966 26.9265 106.711 27.0317 106.472 26.9265C106.456 26.9265 106.442 26.9112 106.427 26.9112C105.033 29.8989 102.033 31.8209 98.7341 31.8362ZM94.1758 15.6955C89.9625 15.6955 86.4985 19.0741 86.4535 23.2172C86.3931 27.4216 89.7527 30.8747 93.966 30.9349H98.7494C102.108 30.9196 105.062 28.7128 106.037 25.4853C106.111 25.2454 106.352 25.1096 106.592 25.1852C106.682 25.2148 106.772 25.275 106.817 25.3505C107.701 24.0746 109.171 23.354 110.716 23.4285C112.515 23.5336 114.06 24.7197 114.78 26.4764C117.614 24.9004 121.063 18.8189 121.092 18.7587C121.212 18.5484 121.482 18.4586 121.708 18.5933C121.737 18.6086 121.753 18.6229 121.782 18.6382L123.267 19.8692C121.977 17.3021 119.967 16.311 118.469 15.77C113.926 14.1481 108.917 16.5202 107.298 21.0849C107.223 21.3105 107.148 21.5504 107.088 21.7902C107.028 22.0301 106.773 22.1802 106.533 22.1056C106.368 22.0607 106.249 21.925 106.204 21.7606C105.454 18.232 102.35 15.7098 98.7515 15.6945H94.1779L94.1758 15.6955Z" fill="#222433"/>
<path d="M106.514 26.0245C106.289 26.0245 106.109 25.8592 106.065 25.6489C105.99 25.1079 105.945 24.568 105.945 24.0423C105.945 23.0961 106.051 22.1509 106.261 21.2343C106.321 20.9944 106.561 20.8443 106.8 20.9035C107.04 20.9627 107.19 21.2036 107.13 21.4445C106.935 22.2999 106.845 23.1716 106.845 24.0423C106.845 24.523 106.89 25.0181 106.965 25.4989C107.01 25.7387 106.845 25.9796 106.59 26.0092C106.561 26.0092 106.53 26.0245 106.515 26.0245H106.514Z" fill="#222433"/>
<path d="M132.356 96.8645C133.098 93.7544 135.899 94.8792 136.33 96.1949C136.737 93.7544 139.465 93.4675 140.47 95.4529C141.021 93.1562 144.013 92.8214 144.539 96.7206C144.682 97.8454 145.592 101.17 145.592 101.17C145.592 101.17 137.023 105.165 134.342 102.582C132.283 100.668 132.355 96.8635 132.355 96.8635L132.356 96.8645Z" fill="white"/>
<path d="M142.577 103.802C140.998 106.003 138.58 104.257 138.58 104.257C133.458 108.036 132.356 96.8645 132.356 96.8645C133.099 93.7544 135.899 94.8792 136.33 96.1949C136.738 93.7544 139.466 93.4675 140.471 95.4529C141.022 93.1562 144.014 92.8214 144.54 96.7206C144.683 97.8454 145.593 101.17 145.593 101.17" fill="white"/>
<path d="M136.593 105.525C136.234 105.525 135.874 105.454 135.54 105.31C134.271 104.76 133.265 103.157 132.548 100.549C132.045 98.6836 131.854 96.9851 131.854 96.9126V96.7452C132.356 94.6874 133.673 94.4006 134.2 94.3771C134.894 94.3536 135.612 94.6405 136.115 95.1192C136.522 94.3302 137.192 93.8035 138.054 93.6841C138.891 93.5646 139.706 93.8514 140.304 94.4496C140.758 93.6841 141.525 93.2053 142.362 93.2533C143.415 93.3013 144.637 94.2107 144.971 96.6268C145.115 97.7037 146.001 101.005 146.001 101.028C146.073 101.292 145.93 101.555 145.666 101.602C145.403 101.673 145.14 101.53 145.092 101.267C145.044 101.123 144.182 97.8935 144.039 96.7452C143.799 94.9273 142.986 94.2332 142.34 94.2097C141.694 94.1862 141.118 94.7364 140.927 95.5499C140.879 95.7408 140.712 95.8847 140.52 95.9092C140.327 95.9337 140.137 95.8378 140.041 95.6459C139.586 94.7609 138.819 94.5455 138.245 94.617C137.503 94.7364 136.952 95.3346 136.809 96.2675C136.785 96.4829 136.594 96.6503 136.378 96.6738C136.162 96.6972 135.947 96.5543 135.875 96.339C135.708 95.8368 135.013 95.3101 134.296 95.3346C133.434 95.358 133.051 96.1716 132.86 96.8891C133.051 98.755 133.961 103.54 135.972 104.401C136.642 104.712 137.431 104.52 138.318 103.85C138.486 103.731 138.701 103.731 138.892 103.85C139.107 103.994 140.974 105.238 142.243 103.491C142.387 103.276 142.698 103.228 142.914 103.372C143.13 103.516 143.177 103.826 143.034 104.041C142.077 105.382 140.832 105.453 139.945 105.286C139.395 105.166 138.94 104.951 138.653 104.783C137.91 105.31 137.24 105.525 136.594 105.525H136.593Z" fill="#222433"/>
<path d="M140.448 95.4531C140.448 95.4531 140.376 97.4384 141.836 101.554L140.448 95.4531Z" fill="white"/>
<path d="M141.834 102.034C141.643 102.034 141.451 101.914 141.38 101.723C139.895 97.5835 139.943 95.5267 139.967 95.4308C139.967 95.1674 140.182 94.9766 140.446 94.9766H140.47C140.733 94.9766 140.949 95.2154 140.924 95.4788C140.924 95.5022 140.901 97.4641 142.289 101.411C142.385 101.65 142.241 101.938 142.001 102.033H141.833L141.834 102.034Z" fill="#222433"/>
<path d="M136.305 96.2188C136.305 96.2188 136.688 99.8311 137.764 102.008L136.305 96.2188Z" fill="white"/>
<path d="M137.766 102.491C137.598 102.491 137.431 102.395 137.335 102.228C136.21 99.9793 135.827 96.4149 135.827 96.271C135.804 96.0076 135.995 95.7688 136.258 95.7443C136.521 95.7198 136.761 95.9117 136.784 96.175C136.784 96.1985 137.167 99.7394 138.197 101.821C138.317 102.06 138.22 102.347 137.982 102.467C137.934 102.467 137.839 102.49 137.767 102.49L137.766 102.491Z" fill="#222433"/>
<path d="M42.713 137.867C43.028 135.698 41.5421 133.688 39.3942 133.378C37.2463 133.068 35.2497 134.575 34.9347 136.744C34.6196 138.913 36.1055 140.923 38.2534 141.233C40.4014 141.544 42.398 140.037 42.713 137.867Z" fill="white"/>
<path d="M38.1869 141.67C35.8028 141.326 34.1486 139.086 34.4977 136.678C34.8467 134.27 37.0711 132.591 39.4551 132.935C41.8392 133.279 43.4934 135.519 43.1443 137.927C42.7942 140.335 40.5709 142.014 38.1869 141.67ZM39.3272 133.814C37.4222 133.54 35.6452 134.88 35.3667 136.804C35.0873 138.727 36.4098 140.516 38.3148 140.791C40.2198 141.065 41.9968 139.724 42.2753 137.801C42.5547 135.878 41.2322 134.089 39.3272 133.814Z" fill="#222433"/>
<path d="M38.3239 170.724C38.11 170.693 37.9462 170.506 37.9493 170.28L38.3833 137.299C38.3864 137.054 38.586 136.857 38.8286 136.859C39.0712 136.861 39.2646 137.063 39.2616 137.307L38.8275 170.288C38.8245 170.533 38.6249 170.73 38.3823 170.728C38.3628 170.728 38.3434 170.726 38.3239 170.724Z" fill="#222433"/>
<path d="M142.839 103.995C141.229 106.227 138.766 104.462 138.766 104.462C133.564 108.309 132.438 96.9542 132.438 96.9542C133.202 93.8033 136.029 94.9373 136.464 96.2785C136.876 93.8043 139.648 93.5021 140.665 95.513C141.219 93.1878 144.256 92.8499 144.797 96.794C144.953 97.9372 145.859 101.322 145.859 101.322" fill="white"/>
<path d="M136.755 105.747C136.389 105.747 136.033 105.671 135.69 105.519C134.404 104.95 133.384 103.324 132.658 100.686C132.137 98.7915 131.963 97.0767 131.955 97.0042C131.95 96.9501 131.953 96.895 131.967 96.8419C132.475 94.7413 133.809 94.4657 134.359 94.4452C135.067 94.4187 135.794 94.7198 136.309 95.1965C136.711 94.4003 137.407 93.8665 138.267 93.7348C139.117 93.6032 139.945 93.9032 140.549 94.5187C141.014 93.7379 141.79 93.2663 142.634 93.3071C143.695 93.3592 144.946 94.285 145.282 96.7307C145.433 97.831 146.323 101.165 146.332 101.198C146.402 101.458 146.247 101.724 145.989 101.793C145.73 101.863 145.462 101.709 145.393 101.449C145.356 101.31 144.478 98.0229 144.318 96.8623C144.063 95.0066 143.256 94.3105 142.586 94.2778C141.939 94.2462 141.338 94.8005 141.141 95.6273C141.093 95.8253 140.927 95.9733 140.724 95.9968C140.523 96.0213 140.325 95.9161 140.233 95.7334C139.777 94.8321 138.992 94.6055 138.414 94.6953C137.648 94.8117 137.099 95.4343 136.946 96.3601C136.909 96.5806 136.726 96.748 136.502 96.7654C136.28 96.7858 136.073 96.6439 136.004 96.4306C135.841 95.9294 135.117 95.3853 134.396 95.417C133.526 95.4496 133.12 96.2734 132.933 96.992C133.135 98.8946 134.063 103.737 136.085 104.631C136.775 104.936 137.558 104.755 138.478 104.074C138.648 103.948 138.879 103.946 139.051 104.07C139.262 104.22 141.166 105.49 142.446 103.714C142.603 103.497 142.907 103.447 143.124 103.604C143.342 103.761 143.392 104.065 143.235 104.282C142.252 105.644 140.991 105.721 140.106 105.545C139.547 105.433 139.074 105.208 138.784 105.045C138.079 105.513 137.4 105.748 136.755 105.748V105.747Z" fill="#222433"/>
<path d="M140.667 95.5156C140.667 95.5156 140.596 97.5397 142.083 101.713L140.667 95.5156Z" fill="white"/>
<path d="M142.083 102.202C141.883 102.202 141.695 102.078 141.624 101.879C140.122 97.6652 140.177 95.5869 140.18 95.5002C140.189 95.2317 140.404 95.0204 140.683 95.0317C140.951 95.0409 141.161 95.2654 141.152 95.5329C141.152 95.5655 141.117 97.557 142.54 101.552C142.63 101.805 142.498 102.083 142.245 102.173C142.191 102.192 142.137 102.201 142.083 102.201V102.202Z" fill="#222433"/>
<path d="M136.466 96.2812C136.466 96.2812 136.845 99.9497 137.954 102.17L136.466 96.2812Z" fill="white"/>
<path d="M137.954 102.656C137.776 102.656 137.604 102.558 137.518 102.388C136.382 100.115 135.996 96.4849 135.981 96.3318C135.953 96.0644 136.148 95.8266 136.415 95.799C136.684 95.7745 136.922 95.9654 136.949 96.2318C136.954 96.2675 137.333 99.839 138.39 101.954C138.51 102.194 138.412 102.486 138.172 102.606C138.102 102.641 138.028 102.657 137.955 102.657L137.954 102.656Z" fill="#222433"/>
<path d="M287.606 156.203H0.531268C0.230318 156.203 0 155.957 0 155.637C0 155.316 0.230318 155.07 0.531268 155.07H287.606C287.907 155.07 288.137 155.316 288.137 155.637C288.137 155.957 287.907 156.203 287.606 156.203Z" fill="#222433"/>
<path d="M43.0972 62.291L43.3132 60.4884C43.4114 59.6647 44.1617 59.0767 44.9868 59.1747C45.2192 59.2023 45.4423 59.2839 45.6378 59.4126L49.8562 62.1838L45.1014 63.8844C44.3184 64.1651 43.4565 63.7598 43.1739 62.979C43.0941 62.7585 43.0675 62.5227 43.0961 62.291H43.0972Z" fill="#F9DCC7"/>
<path d="M49.7479 55.4413L51.5567 55.6566C52.3828 55.7536 52.9734 56.5008 52.8751 57.3245C52.8475 57.5572 52.7656 57.7798 52.6366 57.9747L49.8574 62.1811L48.15 57.4399C47.8695 56.658 48.278 55.7975 49.0621 55.5178C49.2822 55.4392 49.5166 55.4127 49.7479 55.4403V55.4413Z" fill="#F9DCC7"/>
<path d="M262.965 95.888L263.625 98.0611C263.739 98.4388 264.036 98.7338 264.416 98.8481L266.596 99.5064C266.739 99.5493 266.818 99.6994 266.775 99.8402C266.75 99.926 266.682 99.9933 266.596 100.019L264.416 100.677C264.037 100.792 263.74 101.087 263.625 101.464L262.965 103.637C262.923 103.779 262.774 103.861 262.632 103.819C262.544 103.793 262.475 103.725 262.449 103.637L261.789 101.464C261.675 101.087 261.379 100.791 261 100.677L258.82 100.019C258.677 99.976 258.598 99.8259 258.641 99.6851C258.666 99.5993 258.734 99.532 258.82 99.5064L261 98.8481C261.379 98.7338 261.676 98.4388 261.789 98.0611L262.449 95.888C262.491 95.7461 262.641 95.6644 262.783 95.7063C262.871 95.7318 262.94 95.8002 262.965 95.888Z" fill="#F9DCC7"/>
</g>
<defs>
<clipPath id="clip0_3961_26611">
<rect width="288.137" height="183.677" fill="white"/>
</clipPath>
</defs>
</svg>
