<svg width="289" height="184" viewBox="0 0 289 184" fill="none" xmlns="http://www.w3.org/2000/svg">
<g clip-path="url(#clip0_56_539)">
<path d="M174.926 0.496094H239.41C244.848 0.496094 249.257 4.90665 249.257 10.3481V145.632C249.257 151.074 244.848 155.484 239.41 155.484H174.926C169.487 155.484 165.078 151.074 165.078 145.632V10.3481C165.078 4.90665 169.487 0.496094 174.926 0.496094Z" fill="white"/>
<path d="M239.409 155.98H174.925C169.215 155.974 164.588 151.344 164.582 145.632V10.3481C164.588 4.63614 169.215 0.00612436 174.925 0H239.409C245.119 0.00612436 249.746 4.63614 249.752 10.3481V145.632C249.746 151.344 245.119 155.974 239.409 155.98ZM174.925 0.992147C169.763 0.998271 165.58 5.18325 165.574 10.3481V145.632C165.58 150.797 169.763 154.982 174.925 154.988H239.409C244.571 154.982 248.754 150.797 248.76 145.632V10.3481C248.754 5.18325 244.571 0.998271 239.409 0.992147H174.925Z" fill="#222433"/>
<path d="M248.881 135.646H165.454C165.18 135.646 164.959 135.424 164.959 135.15C164.959 134.877 165.181 134.654 165.454 134.654H248.881C249.155 134.654 249.376 134.877 249.376 135.15C249.376 135.424 249.154 135.646 248.881 135.646Z" fill="#222433"/>
<path opacity="0.61" d="M197.673 143.497H219.369C220.488 143.497 221.395 144.404 221.395 145.524C221.395 146.644 220.488 147.551 219.369 147.551H197.673C196.554 147.551 195.647 146.644 195.647 145.524C195.647 144.404 196.554 143.497 197.673 143.497Z" fill="#F9DCC7"/>
<path d="M204.514 3.93701H213.583C214.019 3.93701 214.372 4.2912 214.372 4.72705C214.372 5.1629 214.019 5.5171 213.583 5.5171H204.514C204.078 5.5171 203.725 5.1629 203.725 4.72705C203.725 4.2912 204.078 3.93701 204.514 3.93701Z" fill="#222433"/>
<path d="M200.761 5.52406C201.201 5.52406 201.558 5.16715 201.558 4.72688C201.558 4.2866 201.201 3.92969 200.761 3.92969C200.321 3.92969 199.965 4.2866 199.965 4.72688C199.965 5.16715 200.321 5.52406 200.761 5.52406Z" fill="#222433"/>
<path d="M207.648 102.645C224.418 102.645 238.012 89.0896 238.012 72.3677C238.012 55.6457 224.418 42.0898 207.648 42.0898C190.879 42.0898 177.284 55.6457 177.284 72.3677C177.284 89.0896 190.879 102.645 207.648 102.645Z" fill="#0C0C0C"/>
<path d="M207.647 103.827C190.25 103.827 176.099 89.7147 176.099 72.3685C176.099 55.0222 190.251 40.9097 207.647 40.9097C225.043 40.9097 239.196 55.0222 239.196 72.3685C239.196 89.7147 225.043 103.827 207.647 103.827ZM207.647 43.2706C191.531 43.2706 178.466 56.2981 178.466 72.3685C178.466 88.4388 191.531 101.466 207.647 101.466C223.763 101.466 236.828 88.4388 236.828 72.3685C236.81 56.3063 223.756 43.289 207.647 43.2706Z" fill="#0C0C0C"/>
<path d="M194.111 72.0492L196.905 69.1636C197.845 68.1919 199.407 68.149 200.395 69.0676L210.448 78.4155C211.436 79.3331 211.474 80.8652 210.533 81.8369L207.74 84.7225C206.799 85.6943 205.237 85.7371 204.249 84.8185L194.196 75.4707C193.208 74.553 193.17 73.0209 194.111 72.0492Z" fill="white"/>
<path d="M204.265 84.7714L201.331 82.043C200.343 81.1254 200.305 79.5933 201.246 78.6215L219.904 59.3482C220.844 58.3764 222.407 58.3336 223.394 59.2522L226.328 61.9806C227.316 62.8982 227.354 64.4304 226.413 65.4021L207.755 84.6755C206.814 85.6472 205.252 85.6901 204.265 84.7714Z" fill="white"/>
<path opacity="0.98" d="M248.847 161.243L254.362 145.554C254.969 143.821 254.046 141.93 252.299 141.328C252.261 141.315 252.223 141.302 252.185 141.291C250.422 140.749 248.55 141.725 248.001 143.471L246.832 147.202V141.226C246.834 139.599 245.504 138.279 243.862 138.277H243.851C242.209 138.276 240.877 139.594 240.876 141.221V150.813L239.95 149.565C238.948 148.219 237.09 147.824 235.619 148.644C234.012 149.541 233.441 151.558 234.345 153.15C234.345 153.152 234.347 153.153 234.348 153.155L238.949 161.244H248.847V161.243Z" fill="#C3E8C1"/>
<path d="M27.8344 181.099C27.5949 181.099 27.4004 180.904 27.4004 180.664V114.927C27.4004 114.686 27.5949 114.492 27.8344 114.492C28.0739 114.492 28.2684 114.687 28.2684 114.927V180.664C28.2684 180.905 28.0739 181.099 27.8344 181.099Z" fill="#222433"/>
<path opacity="0.98" d="M34.1683 103.11C33.2941 103.11 32.5857 103.818 32.5847 104.694C32.5847 103.82 31.8763 103.11 31.0021 103.11H31.0011C30.1269 103.11 29.4186 103.82 29.4186 104.695C29.4186 103.819 28.7102 103.11 27.836 103.11H27.835C26.9608 103.11 26.2525 103.818 26.2514 104.694C26.2514 103.821 25.5451 103.112 24.672 103.11C23.7978 103.104 23.0853 103.809 23.0792 104.686V104.696C23.0792 103.82 22.3708 103.111 21.4967 103.111C20.6225 103.111 19.9141 103.819 19.9131 104.695V111.337C19.9131 115.718 23.4559 119.27 27.8278 119.271H27.8309C32.2039 119.271 35.7477 115.719 35.7477 111.337V104.697C35.7477 103.822 35.0414 103.113 34.1683 103.112V103.11Z" fill="#C3E8C1"/>
<path d="M32.6147 111.16C32.3752 111.16 32.1807 110.965 32.1807 110.725V104.487C32.1807 104.246 32.3752 104.052 32.6147 104.052C32.8542 104.052 33.0487 104.247 33.0487 104.487V110.725C33.0487 110.966 32.8542 111.16 32.6147 111.16Z" fill="#222433"/>
<path d="M29.4301 111.16C29.1906 111.16 28.9961 110.965 28.9961 110.725V104.487C28.9961 104.246 29.1906 104.052 29.4301 104.052C29.6696 104.052 29.8641 104.247 29.8641 104.487V110.725C29.8641 110.966 29.6696 111.16 29.4301 111.16Z" fill="#222433"/>
<path d="M26.2446 111.16C26.005 111.16 25.8105 110.965 25.8105 110.725V104.487C25.8105 104.246 26.005 104.052 26.2446 104.052C26.4841 104.052 26.6786 104.247 26.6786 104.487V110.725C26.6786 110.966 26.4841 111.16 26.2446 111.16Z" fill="#222433"/>
<path d="M23.06 111.16C22.8205 111.16 22.626 110.965 22.626 110.725V104.487C22.626 104.246 22.8205 104.052 23.06 104.052C23.2995 104.052 23.494 104.247 23.494 104.487V110.725C23.494 110.966 23.2995 111.16 23.06 111.16Z" fill="#222433"/>
<path d="M13.1772 122.644C12.3624 122.738 11.78 123.475 11.8762 124.29C11.7666 123.476 11.0184 122.904 10.2056 123.011C9.40614 123.116 8.83802 123.84 8.9281 124.642L9.81252 132.138L6.00255 125.611C5.62073 124.883 4.72095 124.6 3.99417 124.979C3.26739 125.358 2.98691 126.256 3.36975 126.983C3.39534 127.017 3.41479 127.055 3.4281 127.096C3.03502 126.372 2.13115 126.103 1.40949 126.492C0.686801 126.882 0.420655 127.785 0.812708 128.508C0.816803 128.517 0.821921 128.525 0.826015 128.532C0.83011 128.545 0.846488 128.554 0.849559 128.568L1.34807 129.427L4.70867 135.224C5.89097 137.277 8.17368 138.442 10.526 138.193L10.5301 138.206C11.3623 138.099 12.1648 137.834 12.8978 137.426L12.8937 137.413C14.9205 136.201 16.0424 133.91 15.7599 131.561L14.9481 124.924L14.8263 123.937C14.7434 123.139 14.0299 122.558 13.2315 122.637C13.2141 122.639 13.1967 122.641 13.1782 122.643L13.1772 122.644Z" fill="white"/>
<path d="M13.0961 137.787C12.3192 138.221 11.4654 138.501 10.582 138.615C10.5431 138.62 10.5032 138.619 10.4643 138.613C7.98405 138.833 5.59693 137.59 4.35219 135.43L0.502288 128.79C0.483862 128.766 0.468508 128.739 0.4552 128.712C-0.045358 127.793 0.292442 126.647 1.20962 126.15C1.69994 125.884 2.28239 125.85 2.8024 126.054C2.81673 125.939 2.84232 125.826 2.87713 125.717C3.02555 125.24 3.36028 124.843 3.80454 124.615C4.25392 124.382 4.77802 124.338 5.26118 124.493C5.73512 124.642 6.13127 124.974 6.36159 125.415L9.17454 130.233L8.52044 124.69C8.40579 123.651 9.15611 122.719 10.1951 122.608C10.7591 122.547 11.3211 122.743 11.7265 123.142C12.0254 122.651 12.53 122.32 13.1002 122.242C13.1258 122.237 13.1514 122.234 13.177 122.233C13.6704 122.185 14.1637 122.331 14.5517 122.639C14.9417 122.95 15.1884 123.406 15.2334 123.901L15.3542 124.876L16.166 131.515C16.4639 133.989 15.302 136.407 13.1872 137.716C13.1606 137.744 13.1299 137.768 13.0971 137.787H13.0961ZM10.5739 137.787C11.2884 137.684 11.9783 137.456 12.6119 137.114C12.6324 137.095 12.6549 137.078 12.6795 137.062C14.5671 135.932 15.6122 133.799 15.3501 131.612L14.4166 123.987C14.393 123.709 14.2569 123.452 14.0378 123.278C13.8106 123.096 13.5178 123.014 13.2292 123.052C12.6396 123.119 12.2168 123.65 12.2823 124.24C12.3099 124.464 12.1503 124.67 11.9251 124.696C11.7039 124.723 11.5013 124.569 11.4685 124.348C11.3835 123.759 10.839 123.347 10.2494 123.426C9.67612 123.504 9.26974 124.023 9.33423 124.599L10.2186 132.091C10.2453 132.317 10.0846 132.52 9.85935 132.547C9.6966 132.565 9.53895 132.486 9.45604 132.344L5.64606 125.817L5.63583 125.798C5.50685 125.547 5.28267 125.359 5.01243 125.273C4.73707 125.184 4.43817 125.21 4.18226 125.342C3.93147 125.471 3.74312 125.695 3.65816 125.964C3.57217 126.232 3.59469 126.525 3.72163 126.777C3.76564 126.843 3.79942 126.914 3.82092 126.99C3.87927 127.209 3.74926 127.434 3.53021 127.491C3.34902 127.539 3.15863 127.458 3.0665 127.295C2.77783 126.773 2.12168 126.583 1.60065 126.869C1.08678 127.152 0.895364 127.795 1.17072 128.315C1.18505 128.335 1.19836 128.355 1.20962 128.378L5.0585 135.018C6.15993 136.93 8.285 138.016 10.4766 137.784C10.5083 137.781 10.5401 137.781 10.5708 137.784L10.5739 137.787Z" fill="#222433"/>
<path d="M3.37207 126.998L6.31196 132.07L3.37207 126.998Z" fill="white"/>
<path d="M6.51408 132.429C6.31857 132.539 6.07084 132.469 5.95824 132.275L3.01836 127.203C2.90474 127.007 2.97127 126.756 3.16679 126.643C3.35923 126.529 3.60797 126.592 3.72262 126.785C3.72467 126.788 3.72569 126.791 3.72774 126.794L6.66763 131.866C6.78125 132.062 6.71471 132.313 6.5192 132.426L6.51408 132.429Z" fill="#222433"/>
<path d="M11.873 124.178L12.5783 129.994L11.873 124.178Z" fill="white"/>
<path d="M12.7808 130.353C12.5832 130.464 12.3324 130.392 12.2219 130.193C12.1952 130.146 12.1789 130.095 12.1727 130.042L11.4674 124.225C11.4378 124 11.5964 123.794 11.8206 123.766C12.0458 123.737 12.2515 123.896 12.2812 124.121C12.2812 124.124 12.2812 124.126 12.2812 124.129L12.9865 129.946C13.007 130.111 12.9251 130.273 12.7797 130.353H12.7808Z" fill="#222433"/>
<path d="M26.737 183.626C26.7135 183.639 26.6889 183.65 26.6633 183.658C26.4474 183.727 26.216 183.609 26.1454 183.393L10.3445 135.024C10.2759 134.808 10.3957 134.578 10.6117 134.51C10.8256 134.442 11.0539 134.56 11.1256 134.772L26.9274 183.141C26.9889 183.328 26.909 183.531 26.7381 183.627L26.737 183.626Z" fill="#222433"/>
<g opacity="0.98">
<path d="M278.4 121.427C280.458 121.427 282.127 119.736 282.127 117.651C282.127 115.566 280.458 113.875 278.4 113.875C276.342 113.875 274.673 115.566 274.673 117.651C274.673 119.736 276.342 121.427 278.4 121.427Z" fill="#C3E8C1"/>
<path d="M273.245 128.758C275.303 128.758 276.972 127.067 276.972 124.982C276.972 122.897 275.303 121.207 273.245 121.207C271.186 121.207 269.518 122.897 269.518 124.982C269.518 127.067 271.186 128.758 273.245 128.758Z" fill="#C3E8C1"/>
<path d="M280.573 130.155C282.631 130.155 284.3 128.465 284.3 126.38C284.3 124.294 282.631 122.604 280.573 122.604C278.514 122.604 276.846 124.294 276.846 126.38C276.846 128.465 278.514 130.155 280.573 130.155Z" fill="#C3E8C1"/>
<path d="M271.713 137.002C273.772 137.002 275.44 135.312 275.44 133.226C275.44 131.141 273.772 129.451 271.713 129.451C269.655 129.451 267.986 131.141 267.986 133.226C267.986 135.312 269.655 137.002 271.713 137.002Z" fill="#C3E8C1"/>
<path d="M279.041 138.399C281.099 138.399 282.768 136.708 282.768 134.623C282.768 132.538 281.099 130.847 279.041 130.847C276.982 130.847 275.313 132.538 275.313 134.623C275.313 136.708 276.982 138.399 279.041 138.399Z" fill="#C3E8C1"/>
</g>
<path d="M270.115 162.678C270.317 162.678 270.49 162.532 270.528 162.331L278.813 117.73C278.856 117.499 278.706 117.277 278.477 117.233C278.249 117.189 278.03 117.341 277.987 117.573L269.702 162.174C269.659 162.405 269.809 162.627 270.036 162.67C270.062 162.675 270.089 162.677 270.115 162.678Z" fill="#222433"/>
<path d="M150.06 159.329C149.851 159.329 149.681 159.162 149.681 158.956C149.681 158.921 149.686 158.886 149.695 158.853L152.632 148.741C152.688 148.542 152.897 148.426 153.099 148.481C153.301 148.536 153.419 148.741 153.364 148.94C153.364 148.942 153.363 148.944 153.362 148.946L150.425 159.058C150.379 159.218 150.229 159.328 150.059 159.329H150.06Z" fill="#222433"/>
<path opacity="0.98" d="M152.997 150.799C154.095 150.799 154.985 149.924 154.985 148.844C154.985 147.765 154.095 146.89 152.997 146.89C151.899 146.89 151.009 147.765 151.009 148.844C151.009 149.924 151.899 150.799 152.997 150.799Z" fill="#C3E8C1"/>
<path d="M150.059 159.329C149.904 159.329 149.764 159.235 149.706 159.092L146.605 151.321C146.528 151.13 146.624 150.912 146.819 150.837C147.014 150.761 147.234 150.855 147.311 151.047L150.412 158.818C150.489 159.01 150.393 159.227 150.199 159.303C150.155 159.32 150.106 159.329 150.059 159.328V159.329Z" fill="#222433"/>
<path opacity="0.98" d="M146.958 152.729C147.825 152.729 148.528 152.038 148.528 151.185C148.528 150.332 147.825 149.641 146.958 149.641C146.091 149.641 145.388 150.332 145.388 151.185C145.388 152.038 146.091 152.729 146.958 152.729Z" fill="#C3E8C1"/>
<path d="M149.744 97.2062C148.44 95.5547 146.775 92.1914 144.121 90.1193C139.937 79.0689 132.08 68.4534 132.08 68.4534L131.09 62.4331L120.339 63.3487L122.168 75.2851L131.675 90.2397C131.945 90.6603 132.065 91.1553 132.035 91.6514C131.495 98.9486 134.389 103.407 134.389 103.407C134.389 103.407 135.559 105.645 137.524 104.954C137.973 104.788 138.723 104.248 138.723 104.248C140.388 105.374 141.917 104.803 142.577 103.812C143.297 104.293 144.407 104.503 145.261 104.368C146.656 104.142 147.33 103.031 147.51 101.89L147.571 100.134L147.451 99.7733C149.835 100.944 151.17 99.0231 149.745 97.2062H149.744Z" fill="white"/>
<path d="M136.789 105.569C135.395 105.569 134.39 104.413 133.986 103.662C133.746 103.287 131.031 98.8426 131.572 91.621C131.602 91.231 131.497 90.8401 131.287 90.5104L121.781 75.5557C121.751 75.4955 121.72 75.4353 121.706 75.3751L119.877 63.4387C119.862 63.304 119.892 63.1682 119.967 63.0631C120.042 62.9579 120.177 62.8977 120.297 62.8824L131.033 61.9668C131.272 61.9515 131.513 62.1168 131.542 62.372L132.517 68.2871C133.297 69.3681 140.554 79.458 144.513 89.848C146.387 91.3494 147.752 93.4368 148.861 95.118C149.326 95.8386 149.731 96.4541 150.106 96.9196C150.916 97.9403 151.035 99.1121 150.391 99.9072C149.971 100.433 149.161 100.809 148.036 100.507L147.976 101.919V101.964C147.751 103.54 146.761 104.622 145.337 104.847C144.482 104.981 143.478 104.817 142.698 104.441C142.293 104.877 141.739 105.192 141.139 105.312C140.584 105.417 139.729 105.417 138.739 104.847C138.455 105.041 138.02 105.312 137.675 105.432C137.375 105.508 137.075 105.567 136.79 105.567L136.789 105.569ZM122.635 75.1199L132.096 89.9837C132.411 90.4941 132.576 91.0943 132.531 91.6802C132.111 97.3105 133.835 101.634 134.811 103.151C134.826 103.166 134.826 103.181 134.826 103.196C134.871 103.272 135.83 105.058 137.375 104.503C137.66 104.397 138.185 104.052 138.455 103.856C138.62 103.736 138.845 103.736 139.01 103.841C139.67 104.291 140.345 104.457 140.959 104.336C141.468 104.231 141.918 103.946 142.188 103.526C142.338 103.3 142.637 103.241 142.848 103.391C143.448 103.796 144.438 103.991 145.203 103.872C146.597 103.646 146.957 102.386 147.047 101.83L147.108 100.194L147.002 99.9093C146.942 99.7286 146.987 99.5193 147.137 99.3989C147.287 99.2642 147.498 99.2489 147.663 99.3234C148.533 99.7439 149.282 99.7286 149.657 99.2785C150.002 98.8579 149.882 98.1373 149.357 97.4769C148.951 96.9665 148.532 96.3357 148.053 95.5998C146.973 93.9482 145.608 91.8761 143.81 90.4798C143.735 90.4196 143.674 90.3451 143.645 90.2542C139.536 79.4141 131.739 68.8291 131.664 68.724C131.619 68.6638 131.589 68.5893 131.574 68.5137L130.659 62.9283L120.882 63.7541L122.637 75.1199H122.635Z" fill="#222433"/>
<path d="M132.352 96.8765C133.101 93.7684 135.89 94.8942 136.31 96.2161C136.715 93.7837 139.444 93.4836 140.449 95.4658C140.988 93.1835 143.987 92.8385 144.512 96.7275C144.662 97.8533 145.562 101.187 145.562 101.187" fill="white"/>
<path d="M145.56 101.651C145.35 101.651 145.154 101.516 145.095 101.291C145.065 101.156 144.195 97.9119 144.03 96.7708C143.776 94.9385 142.981 94.2638 142.321 94.2179C141.676 94.1883 141.092 94.7283 140.896 95.5387C140.851 95.7337 140.686 95.8837 140.491 95.8991C140.295 95.9144 140.101 95.8235 140.011 95.6439C139.561 94.7579 138.796 94.5333 138.226 94.6231C137.477 94.7436 136.937 95.3438 136.787 96.2594C136.757 96.4696 136.577 96.635 136.352 96.6646C136.142 96.6799 135.932 96.5442 135.858 96.3339C135.693 95.8388 134.988 95.3132 134.268 95.3428C133.384 95.3724 132.978 96.2441 132.813 96.9647C132.753 97.2199 132.498 97.3852 132.229 97.3097C131.974 97.2495 131.809 96.9943 131.869 96.7391C132.363 94.667 133.682 94.3965 134.223 94.3823C134.913 94.3527 135.632 94.6527 136.142 95.1182C136.532 94.3373 137.222 93.8117 138.077 93.6769C138.916 93.5422 139.726 93.8423 140.326 94.4425C140.791 93.6769 141.541 93.2115 142.38 93.2411C143.43 93.286 144.66 94.2016 144.99 96.6197C145.139 97.7006 146.009 100.988 146.024 101.019C146.099 101.274 145.934 101.529 145.679 101.605C145.634 101.65 145.605 101.65 145.56 101.65V101.651Z" fill="#222433"/>
<path d="M140.448 95.4497C140.448 95.4497 140.373 97.4462 141.842 101.561L140.448 95.4497Z" fill="white"/>
<path d="M141.842 102.041C141.648 102.041 141.468 101.921 141.393 101.726C139.909 97.5816 139.968 95.5249 139.968 95.4493C139.983 95.1942 140.193 94.9839 140.448 94.9839H140.464C140.734 94.9992 140.928 95.2095 140.928 95.4789C140.928 95.5085 140.899 97.4755 142.293 101.409C142.383 101.665 142.248 101.935 142.008 102.025C141.948 102.025 141.888 102.04 141.843 102.04L141.842 102.041Z" fill="#222433"/>
<path d="M136.309 96.2148C136.309 96.2148 136.683 99.8333 137.779 102.011L136.309 96.2148Z" fill="white"/>
<path d="M137.779 102.491C137.599 102.491 137.434 102.401 137.344 102.221C136.219 99.9832 135.844 96.4096 135.83 96.2596C135.8 95.9891 135.995 95.7646 136.25 95.7339C136.52 95.7043 136.744 95.8993 136.775 96.1545C136.775 96.1841 137.15 99.7127 138.185 101.785C138.304 102.025 138.2 102.31 137.975 102.431C137.93 102.476 137.855 102.491 137.78 102.491H137.779Z" fill="#222433"/>
<path d="M144.541 96.8911C144.541 96.8911 146.16 98.9632 147.465 99.7736L144.541 96.8911Z" fill="white"/>
<path d="M147.45 100.254C147.36 100.254 147.27 100.224 147.195 100.178C145.846 99.3373 144.227 97.2652 144.151 97.1907C143.986 96.9804 144.031 96.6804 144.241 96.515C144.451 96.3496 144.751 96.3946 144.915 96.6048C144.931 96.6201 146.49 98.6167 147.705 99.3679C147.93 99.5027 148.005 99.8038 147.854 100.028C147.78 100.163 147.615 100.254 147.449 100.254H147.45Z" fill="#222433"/>
<path d="M123.714 30.9642C125.089 30.9642 126.204 29.8483 126.204 28.4716C126.204 27.095 125.089 25.979 123.714 25.979C122.339 25.979 121.225 27.095 121.225 28.4716C121.225 29.8483 122.339 30.9642 123.714 30.9642Z" fill="white"/>
<path d="M123.713 32.9003C121.269 32.9003 119.29 30.9181 119.29 28.4714C119.29 26.0247 121.27 24.0425 123.713 24.0425C126.157 24.0425 128.136 26.0247 128.136 28.4714C128.136 30.9181 126.157 32.9003 123.713 32.9003ZM123.713 24.9428C121.764 24.9428 120.19 26.5188 120.19 28.4714C120.19 30.4241 121.764 32.0001 123.713 32.0001C125.662 32.0001 127.237 30.4088 127.237 28.4714C127.237 26.5341 125.647 24.9428 123.713 24.9428Z" fill="#222433"/>
<path d="M102.196 102.266L102.136 136.753H118.045L123.863 106.5L124.389 103.768L102.196 102.266Z" fill="white"/>
<path d="M102.121 137.204C101.866 137.204 101.672 137.01 101.672 136.754L101.732 102.267C101.732 102.012 101.927 101.817 102.182 101.817H102.211L124.404 103.318C124.659 103.334 124.839 103.544 124.823 103.799V103.859L124.298 106.592L118.466 136.831C118.421 137.041 118.24 137.191 118.031 137.191L102.121 137.207V137.204ZM102.646 102.747L102.586 136.303H117.67L123.428 106.424L123.863 104.187L102.646 102.746V102.747Z" fill="#222433"/>
<path d="M118.676 135.837C118.286 140.402 121.345 144.245 125.679 145.702C127.508 146.317 131.002 147.999 132.817 148.674C136.116 149.92 138.29 152.608 138.005 155.986H101.657L101.673 135.881L118.676 135.836V135.837Z" fill="#F9DCC7"/>
<path d="M106.021 110.494C105.526 111.38 103.382 113.813 103.382 113.813L82.4199 137.701L66.9609 130.539L84.6545 102.718L106.022 110.495L106.021 110.494Z" fill="white"/>
<path d="M82.4183 138.151C82.3579 138.151 82.2832 138.135 82.2238 138.106L66.7649 130.944C66.5397 130.839 66.4353 130.569 66.5397 130.344C66.555 130.329 66.555 130.315 66.5694 130.299L84.2476 102.478C84.3827 102.268 84.6529 102.208 84.8628 102.344C85.0726 102.479 85.133 102.749 84.9979 102.959L67.5889 130.345L82.2689 137.146L103.007 113.513C103.591 112.853 105.211 110.976 105.601 110.271C105.72 110.06 105.991 109.97 106.216 110.09C106.426 110.21 106.516 110.48 106.396 110.705C105.886 111.621 103.787 113.993 103.697 114.098L82.7346 137.986C82.6742 138.091 82.5545 138.152 82.4193 138.152L82.4183 138.151Z" fill="#222433"/>
<path d="M113.443 89.024L106.395 110.63L84.248 102.687L93.6798 81.1267C93.6051 80.6908 93.5601 80.2407 93.5304 79.7905C93.1854 74.6859 95.6145 70.0916 99.4378 67.6745L103.337 67.6592L123.714 68.4696L124.973 104.503H108.389L113.442 89.024H113.443Z" fill="#B5E7EA"/>
<path d="M83.3029 137.415C75.8201 145.132 81.3386 148.66 81.3386 148.66C84.6224 149.501 86.8263 152.594 86.5264 155.971H73.346L56.3721 143.044L66.7487 129.876L83.3029 137.414V137.415Z" fill="#F9DCC7"/>
<path d="M135.365 150.101C135.29 150.161 135.2 150.191 135.11 150.191H101.672V149.29H134.135C134.571 149.529 134.975 149.8 135.365 150.1V150.101Z" fill="#222433"/>
<path d="M126.803 149.741C126.803 149.996 126.608 150.191 126.353 150.191H119.876C116.532 150.176 113.818 147.474 113.803 144.111C113.803 143.09 112.978 142.279 111.958 142.279H101.657V141.377H111.958C113.472 141.377 114.687 142.608 114.687 144.11C114.687 146.963 116.996 149.275 119.845 149.275H126.383C126.638 149.304 126.803 149.5 126.803 149.74V149.741Z" fill="#222433"/>
<path d="M85.6884 152.023C85.6136 152.068 85.5389 152.083 85.4632 152.083H80.7698C79.5701 152.083 78.4011 151.663 77.4563 150.897L71.7884 146.243L69.1198 144.05L60.8877 137.294L61.4425 136.589H61.4579L67.8607 141.844L69.6899 143.345L72.3586 145.538V145.553L78.0111 150.192C78.7911 150.823 79.7503 151.168 80.7555 151.168H85.1192C85.3588 151.453 85.5389 151.738 85.6894 152.023H85.6884Z" fill="#222433"/>
<path d="M72.4469 146.198C72.3568 146.303 72.237 146.363 72.1019 146.363C71.9965 146.363 71.8921 146.334 71.8173 146.258L69.1487 144.066C67.6788 142.864 67.4096 140.702 68.5642 139.186C69.4343 138.015 69.1938 136.348 68.0248 135.462L64.4861 132.819C64.4861 132.819 64.4707 132.819 64.4707 132.804L65.0255 132.099L68.5642 134.726C70.1386 135.897 70.4682 138.119 69.2992 139.696C68.1292 141.272 69.2838 139.711 69.2838 139.711C68.4291 140.852 68.6236 142.459 69.7332 143.359L72.4018 145.552C72.5666 145.717 72.5963 146.002 72.4469 146.198Z" fill="#222433"/>
<path d="M99.4534 67.6888C98.7788 65.2717 97.3989 59.281 97.8493 55.2573C98.9886 44.9572 106.906 41.1886 108.946 39.4922L120.342 40.2424C120.342 40.2424 121.991 40.9927 123.941 42.9453C126.415 45.4226 129.683 53.6803 129.683 53.6803L123.79 67.7337L99.4544 67.6888H99.4534Z" fill="white"/>
<path d="M123.79 68.1841L99.4536 68.1545C99.2591 68.1545 99.079 68.0198 99.0186 67.8238C98.7934 67.0276 96.8741 59.9264 97.3992 55.227C98.4034 46.2487 104.492 42.0596 107.431 40.0478C107.941 39.7028 108.376 39.4016 108.66 39.1618C108.75 39.0862 108.855 39.0566 108.975 39.0566L120.372 39.8069C120.432 39.8069 120.477 39.8222 120.521 39.8518C120.596 39.8814 122.26 40.6622 124.254 42.6445C126.773 45.1667 129.967 53.1998 130.102 53.5295C130.147 53.6347 130.147 53.7551 130.102 53.8745L124.195 67.8983C124.135 68.0637 123.97 68.1831 123.79 68.1831V68.1841ZM99.7986 67.2379L123.49 67.2675L129.203 53.6796C128.722 52.4935 125.813 45.4515 123.625 43.26C121.976 41.6085 120.551 40.8429 120.221 40.6776L109.08 39.9416C108.78 40.1815 108.376 40.452 107.925 40.7674C104.881 42.8548 99.2284 46.7427 98.2836 55.3015C97.8342 59.46 99.3636 65.6313 99.7976 67.2379H99.7986Z" fill="#222433"/>
<path d="M159.236 51.1125C157.407 51.7587 154.798 52.1782 152.519 52.5538C155.219 53.304 158.892 54.19 158.817 55.6017C158.697 57.6289 155.533 56.998 153.388 56.8031C148.65 56.3672 147.87 58.5598 145.756 60.7217C144.121 62.3436 141.708 62.8683 139.549 62.0884L112.649 72.7489C109.41 74.0401 105.751 72.4937 104.387 69.2958L104.252 68.9804L101.403 62.2242C99.9483 58.7864 101.552 54.8219 104.987 53.3653C108.421 51.9087 112.379 53.5153 113.834 56.9542H113.819L114.344 58.2158L136.97 51.7301C137.3 51.6403 137.66 51.5647 138.005 51.5351C140.24 49.9438 142.563 48.7128 144.857 47.3307C148.486 45.1239 159.912 41.7902 160.541 44.6279C160.751 45.5435 159.957 46.0395 158.338 46.6101L155.399 47.541C154.484 47.8258 153.45 48.1565 152.309 48.5617C153.599 48.3362 154.664 48.1718 155.743 48.0514L159.761 47.8115C161.261 47.7217 161.816 49.7488 160.466 50.4389L159.236 51.1146V51.1125Z" fill="white"/>
<path d="M110.294 73.664C107.55 73.664 105.061 72.0124 103.981 69.4749L103.846 69.1595L100.997 62.4033C99.4528 58.7399 101.162 54.506 104.821 52.9595C108.479 51.4131 112.708 53.1249 114.253 56.7883C114.268 56.8179 114.268 56.8332 114.282 56.8638L114.627 57.6743L136.879 51.308C137.209 51.2182 137.539 51.1427 137.869 51.1131C139.398 50.0321 141.003 49.1012 142.547 48.1999C143.237 47.7947 143.956 47.3741 144.646 46.9536C147.781 45.0469 157.047 42.149 159.971 43.4106C160.675 43.7107 160.916 44.1915 160.991 44.5365C161.306 45.9329 159.926 46.5484 158.501 47.0434L156.897 47.5538L159.761 47.3884C160.781 47.3282 161.636 48.1091 161.696 49.1155C161.741 49.8361 161.351 50.5272 160.706 50.8568L159.447 51.503C159.432 51.5183 159.417 51.5183 159.387 51.5326C158.052 51.998 156.313 52.3583 154.603 52.6584C157.107 53.3791 159.342 54.2048 159.267 55.6165C159.252 56.1116 159.042 56.577 158.667 56.8924C157.693 57.7182 155.818 57.5079 154.154 57.3283C153.884 57.2987 153.614 57.268 153.36 57.2384C149.701 56.8934 148.636 58.1397 147.152 59.8505C146.823 60.2261 146.478 60.6313 146.088 61.0212C144.378 62.7177 141.859 63.3036 139.565 62.5523L112.814 73.1679C112.02 73.4986 111.15 73.663 110.295 73.663L110.294 73.664ZM107.626 53.3045C104.147 53.3045 101.328 56.1422 101.342 59.6259C101.342 60.467 101.507 61.2928 101.837 62.0736L104.821 69.1452C106.065 72.1329 109.499 73.5742 112.498 72.3585L139.383 61.6531C139.488 61.6082 139.593 61.6082 139.698 61.6531C141.692 62.3737 143.927 61.8787 145.441 60.3915C145.801 60.0158 146.145 59.6412 146.46 59.2656C147.99 57.4936 149.309 55.9778 153.432 56.3524C153.687 56.382 153.957 56.4127 154.242 56.4423C155.651 56.5923 157.406 56.7873 158.081 56.2167C158.261 56.0513 158.365 55.8268 158.365 55.5706C158.38 55.4052 158.245 54.9704 156.82 54.3549C155.756 53.9047 154.317 53.5138 153.057 53.1688C152.831 53.1086 152.607 53.0483 152.396 52.9881C152.157 52.9279 152.022 52.6727 152.081 52.4329C152.126 52.2675 152.276 52.1328 152.441 52.1021L152.622 52.0725C154.811 51.7122 157.3 51.307 159.054 50.6915L160.299 50.0607C160.764 49.8208 160.944 49.2645 160.704 48.7991C160.539 48.4683 160.179 48.2734 159.82 48.2887L155.801 48.5286C154.842 48.6337 153.866 48.7838 152.412 49.0236C152.172 49.0685 151.932 48.9032 151.887 48.648C151.857 48.4377 151.977 48.2275 152.171 48.1529C153.386 47.7171 154.465 47.3721 155.275 47.1169L158.214 46.186C159.938 45.5858 160.223 45.1949 160.118 44.7294C160.088 44.5947 159.998 44.3987 159.623 44.2344C157.209 43.1983 148.362 45.7512 145.108 47.7181C144.404 48.1387 143.683 48.5592 142.994 48.9644C141.435 49.88 139.816 50.8109 138.285 51.9072C138.225 51.9521 138.136 51.9827 138.06 51.9827C137.745 52.0123 137.431 52.0725 137.115 52.1634L114.489 58.6491C114.264 58.7093 114.04 58.6042 113.95 58.3939L113.424 57.1323C113.409 57.1027 113.409 57.0874 113.395 57.0567C112.391 54.7744 110.126 53.3035 107.621 53.3035L107.626 53.3045Z" fill="#222433"/>
<path d="M112.708 59.1455C112.453 59.1455 112.259 58.9505 112.259 58.6953C112.259 58.4851 112.394 58.3197 112.588 58.2595L114.253 57.794C114.492 57.7338 114.747 57.8695 114.808 58.1094C114.868 58.3493 114.733 58.5902 114.492 58.6647L112.828 59.1301C112.783 59.1455 112.738 59.1455 112.708 59.1455Z" fill="#222433"/>
<path d="M124.388 55.6166C124.133 55.6166 123.938 55.4216 123.938 55.1665V49.9414C123.938 49.6862 124.133 49.4912 124.388 49.4912C124.643 49.4912 124.837 49.6862 124.837 49.9414V55.1665C124.837 55.4063 124.627 55.6166 124.388 55.6166Z" fill="#222433"/>
<path d="M114.358 58.68C114.178 58.68 114.013 58.5749 113.938 58.3953L110.309 49.3271C110.219 49.1015 110.325 48.8321 110.564 48.7412C110.804 48.6504 111.059 48.7565 111.149 48.9964L114.777 58.0645C114.868 58.2901 114.762 58.5596 114.523 58.6504C114.478 58.6658 114.417 58.68 114.358 58.68Z" fill="#222433"/>
<path d="M105.944 111.125C105.69 111.125 105.495 110.93 105.495 110.675C105.495 110.63 105.51 110.57 105.525 110.525L113.472 87.1021C113.547 86.8623 113.802 86.7418 114.042 86.8173C114.283 86.8929 114.403 87.1481 114.327 87.3879L106.38 110.811C106.305 111.006 106.14 111.126 105.944 111.126V111.125Z" fill="#222433"/>
<path d="M114.252 26.4741C113.337 24.402 110.923 23.4711 108.854 24.3867C106.785 25.3023 105.855 27.7194 106.77 29.7915C107.55 31.5634 109.469 32.5393 111.358 32.134L108.809 40.7673C108.015 43.4549 109.558 46.2772 112.242 47.0734C114.881 47.8543 117.671 46.3824 118.51 43.7407L119.89 39.4618C123.968 38.8616 126.802 35.0778 126.203 30.9786C125.993 29.522 125.348 28.1563 124.358 27.06C124.373 27.0151 124.388 26.9702 124.403 26.9253C124.433 26.8354 124.463 26.7446 124.493 26.6701C124.943 25.2135 124.943 23.6518 124.478 22.1962L124.238 21.3409L120.79 18.3379L114.252 26.4751V26.4741Z" fill="white"/>
<path d="M113.682 47.7348C110.638 47.7348 108.164 45.2575 108.164 42.1943C108.164 41.6686 108.239 41.1429 108.389 40.6479L110.743 32.675C109.409 32.7352 108.12 32.2248 107.205 31.249C105.495 29.4168 105.585 26.5496 107.399 24.8225C108.148 24.1172 109.124 23.6813 110.158 23.6068C112.077 23.4721 113.877 24.5377 114.656 26.2944C114.761 26.52 114.656 26.7894 114.431 26.8946C114.205 26.9997 113.936 26.8946 113.831 26.669V26.6537C113.021 24.8072 110.862 23.9814 109.033 24.7919C107.788 25.3472 106.964 26.5332 106.874 27.8847C106.739 29.8965 108.268 31.6236 110.263 31.7583C110.338 31.7583 110.428 31.7737 110.503 31.7737C110.758 31.7737 111.013 31.7441 111.267 31.6981C111.507 31.6532 111.748 31.8033 111.807 32.0431C111.822 32.1187 111.822 32.1932 111.792 32.2687L109.243 40.902C108.523 43.3497 109.933 45.9322 112.377 46.6528C114.791 47.3581 117.31 46.022 118.075 43.6202L119.455 39.326C119.5 39.1607 119.649 39.0412 119.815 39.0106C123.654 38.4553 126.308 34.8818 125.753 31.053C125.558 29.6863 124.959 28.3951 124.028 27.359C123.908 27.2386 123.879 27.0589 123.938 26.8936C123.953 26.864 123.968 26.818 123.983 26.7731C124.013 26.6976 124.044 26.6078 124.073 26.5332C124.493 25.1665 124.493 23.6956 124.058 22.3289L123.833 21.5929L120.488 18.6655C120.308 18.5001 120.294 18.2153 120.459 18.0347C120.624 17.854 120.894 17.8397 121.088 17.9898L124.537 20.9927C124.597 21.053 124.642 21.1275 124.672 21.203L124.942 22.0737C125.422 23.6201 125.437 25.2716 124.942 26.818C124.927 26.8783 124.913 26.9232 124.882 26.9834C127.686 30.3314 127.251 35.3309 123.907 38.1389C122.858 39.0249 121.584 39.6251 120.234 39.866L118.944 43.8897C118.209 46.1873 116.08 47.7337 113.68 47.7337L113.682 47.7348Z" fill="#222433"/>
<path d="M121.989 29.7774C121.825 29.7774 121.495 29.7621 120.76 29.7325C120.505 29.7325 120.311 29.5222 120.325 29.267C120.325 29.0118 120.535 28.8169 120.79 28.8312H120.805C121.285 28.8465 121.84 28.8761 122.005 28.8761C122.065 28.8465 122.11 28.7862 122.095 28.7107L121.046 25.6628C120.971 25.423 121.091 25.1678 121.33 25.0922C121.57 25.0167 121.825 25.1372 121.9 25.377L122.965 28.4545C122.965 28.4698 122.98 28.4841 122.98 28.4994C123.115 29.07 122.77 29.6406 122.2 29.7753C122.126 29.7753 122.065 29.7906 121.99 29.7753L121.989 29.7774Z" fill="#222433"/>
<path d="M110.07 29.7624C109.815 29.7624 109.621 29.5674 109.621 29.3123C109.621 29.1316 109.74 28.9519 109.905 28.8917L111.509 28.2915L108.886 27.3004C108.646 27.2106 108.541 26.9554 108.615 26.7145C108.706 26.4746 108.96 26.3695 109.2 26.444L112.933 27.8557C113.173 27.9455 113.278 28.2007 113.188 28.4416C113.143 28.562 113.053 28.6518 112.933 28.6968L110.22 29.7175C110.19 29.7471 110.129 29.7624 110.07 29.7624Z" fill="#222433"/>
<path d="M121.045 34.2816C119.755 34.2816 118.406 33.2006 118.331 31.1285C118.316 30.8734 118.511 30.6631 118.766 30.6631H118.796L123.099 30.7978C123.354 30.7978 123.548 31.0081 123.534 31.2633C123.459 33.3353 122.23 34.2663 121.045 34.2816ZM119.29 31.5644C119.5 32.7505 120.294 33.366 121.06 33.366C121.689 33.366 122.424 32.9158 122.605 31.6695L119.291 31.5644H119.29Z" fill="#222433"/>
<path d="M118.316 26.8049C118.622 26.8049 118.87 26.5563 118.87 26.2496C118.87 25.9429 118.622 25.6943 118.316 25.6943C118.009 25.6943 117.761 25.9429 117.761 26.2496C117.761 26.5563 118.009 26.8049 118.316 26.8049Z" fill="#222433" stroke="#222433" stroke-width="2.61152" stroke-miterlimit="10"/>
<path d="M123.729 26.6545C124.035 26.6545 124.283 26.4059 124.283 26.0992C124.283 25.7926 124.035 25.5439 123.729 25.5439C123.422 25.5439 123.174 25.7926 123.174 26.0992C123.174 26.4059 123.422 26.6545 123.729 26.6545Z" fill="#222433" stroke="#222433" stroke-width="2.61152" stroke-miterlimit="10"/>
<path d="M114.641 27.0448C117.7 25.6933 121.479 18.9821 121.479 18.9821L124.313 21.3389C123.143 17.4806 120.594 16.0536 118.6 15.3483C113.817 13.6365 108.554 16.1444 106.845 20.9337C106.755 21.1736 106.68 21.4287 106.62 21.6696C105.84 17.9307 102.542 15.2431 98.7327 15.2431H94.1744C89.7513 15.2431 86.0478 18.7718 86.0027 23.2007C85.9423 27.6603 89.4964 31.3237 93.9502 31.3839H98.7337C102.302 31.3839 105.436 29.0413 106.456 25.6188C106.501 25.9036 106.576 26.1894 106.65 26.4742L106.666 26.5191C108.346 22.6904 113.294 23.1405 114.493 27.0448C114.508 27.0897 114.642 27.0448 114.642 27.0448H114.641Z" fill="white"/>
<path d="M98.7341 31.8348H94.056C89.3627 31.8348 85.5537 28.0213 85.5537 23.3219V23.2015C85.6141 18.5623 89.4824 14.7937 94.1758 14.7937H98.7341C102.228 14.809 105.362 16.9403 106.651 20.1985C108.676 15.5287 113.953 13.2167 118.751 14.9132C121.825 16.0094 123.79 18.0662 124.734 21.2039C124.809 21.4438 124.674 21.6989 124.435 21.7592C124.285 21.8041 124.135 21.7745 124.015 21.6693L121.601 19.6422C120.672 21.2182 117.537 26.2483 114.824 27.4344C114.808 27.4344 114.794 27.4497 114.779 27.4497C114.629 27.5099 114.449 27.5099 114.298 27.4344C114.179 27.3742 114.104 27.2691 114.059 27.1496C113.549 25.5134 112.245 24.4171 110.655 24.3273C109.126 24.2375 107.746 25.1531 107.072 26.6995C106.966 26.9251 106.711 27.0302 106.472 26.9251C106.456 26.9251 106.442 26.9098 106.427 26.9098C105.033 29.8974 102.033 31.8195 98.7341 31.8348ZM94.1758 15.694C89.9625 15.694 86.4985 19.0726 86.4535 23.2157C86.3931 27.4201 89.7527 30.8732 93.966 30.9335H98.7494C102.108 30.9182 105.062 28.7113 106.037 25.4838C106.111 25.2439 106.352 25.1082 106.592 25.1837C106.682 25.2133 106.772 25.2735 106.817 25.3491C107.701 24.0732 109.171 23.3525 110.716 23.427C112.515 23.5322 114.06 24.7183 114.78 26.4749C117.614 24.8989 121.063 18.8174 121.092 18.7572C121.212 18.5469 121.482 18.4571 121.708 18.5919C121.737 18.6072 121.753 18.6215 121.782 18.6368L123.267 19.8678C121.977 17.3006 119.967 16.3095 118.469 15.7685C113.926 14.1466 108.917 16.5188 107.298 21.0834C107.223 21.309 107.148 21.5489 107.088 21.7888C107.028 22.0286 106.773 22.1787 106.533 22.1042C106.368 22.0593 106.249 21.9235 106.204 21.7592C105.454 18.2305 102.35 15.7083 98.7515 15.693H94.1779L94.1758 15.694Z" fill="#222433"/>
<path d="M106.514 26.024C106.289 26.024 106.109 25.8587 106.065 25.6484C105.99 25.1074 105.945 24.5675 105.945 24.0418C105.945 23.0956 106.051 22.1504 106.261 21.2338C106.321 20.9939 106.561 20.8439 106.8 20.9031C107.04 20.9623 107.19 21.2032 107.13 21.444C106.935 22.2994 106.845 23.1711 106.845 24.0418C106.845 24.5226 106.89 25.0176 106.965 25.4984C107.01 25.7382 106.845 25.9791 106.59 26.0087C106.561 26.0087 106.53 26.024 106.515 26.024H106.514Z" fill="#222433"/>
<path d="M132.356 96.8655C133.098 93.7553 135.899 94.8802 136.33 96.1959C136.737 93.7553 139.465 93.4685 140.47 95.4538C141.021 93.1572 144.013 92.8224 144.539 96.7216C144.682 97.8464 145.592 101.171 145.592 101.171C145.592 101.171 137.023 105.166 134.342 102.583C132.283 100.669 132.355 96.8645 132.355 96.8645L132.356 96.8655Z" fill="white"/>
<path d="M142.577 103.803C140.998 106.004 138.58 104.258 138.58 104.258C133.458 108.037 132.356 96.8655 132.356 96.8655C133.099 93.7553 135.899 94.8802 136.33 96.1959C136.738 93.7553 139.466 93.4685 140.471 95.4538C141.022 93.1572 144.014 92.8224 144.54 96.7216C144.683 97.8464 145.593 101.171 145.593 101.171" fill="white"/>
<path d="M136.593 105.526C136.234 105.526 135.874 105.455 135.54 105.311C134.271 104.76 133.265 103.158 132.548 100.55C132.045 98.6841 131.854 96.9856 131.854 96.9131V96.7457C132.356 94.6879 133.673 94.4011 134.2 94.3776C134.894 94.3541 135.612 94.641 136.115 95.1197C136.522 94.3307 137.192 93.804 138.054 93.6845C138.891 93.5651 139.706 93.8519 140.304 94.4501C140.758 93.6845 141.525 93.2058 142.362 93.2538C143.415 93.3018 144.637 94.2112 144.971 96.6273C145.115 97.7042 146.001 101.005 146.001 101.029C146.073 101.292 145.93 101.555 145.666 101.602C145.403 101.674 145.14 101.531 145.092 101.268C145.044 101.124 144.182 97.894 144.039 96.7457C143.799 94.9278 142.986 94.2337 142.34 94.2102C141.694 94.1867 141.118 94.7369 140.927 95.5504C140.879 95.7413 140.712 95.8852 140.52 95.9097C140.327 95.9342 140.137 95.8383 140.041 95.6464C139.586 94.7614 138.819 94.546 138.245 94.6175C137.503 94.7369 136.952 95.3351 136.809 96.268C136.785 96.4834 136.594 96.6508 136.378 96.6742C136.162 96.6977 135.947 96.5548 135.875 96.3395C135.708 95.8373 135.013 95.3106 134.296 95.3351C133.434 95.3585 133.051 96.172 132.86 96.8896C133.051 98.7555 133.961 103.541 135.972 104.401C136.642 104.712 137.431 104.521 138.318 103.851C138.486 103.732 138.701 103.732 138.892 103.851C139.107 103.995 140.974 105.238 142.243 103.492C142.387 103.276 142.698 103.228 142.914 103.372C143.13 103.516 143.177 103.826 143.034 104.042C142.077 105.382 140.832 105.454 139.945 105.286C139.395 105.167 138.94 104.951 138.653 104.784C137.91 105.311 137.24 105.526 136.594 105.526H136.593Z" fill="#222433"/>
<path d="M140.448 95.4546C140.448 95.4546 140.376 97.4399 141.836 101.555L140.448 95.4546Z" fill="white"/>
<path d="M141.834 102.033C141.643 102.033 141.451 101.913 141.38 101.722C139.895 97.5825 139.943 95.5258 139.967 95.4298C139.967 95.1665 140.182 94.9756 140.446 94.9756H140.47C140.733 94.9756 140.949 95.2144 140.924 95.4778C140.924 95.5013 140.901 97.4631 142.289 101.41C142.385 101.649 142.241 101.937 142.001 102.032H141.833L141.834 102.033Z" fill="#222433"/>
<path d="M136.305 96.2202C136.305 96.2202 136.688 99.8326 137.764 102.01L136.305 96.2202Z" fill="white"/>
<path d="M137.766 102.487C137.598 102.487 137.431 102.391 137.335 102.224C136.21 99.9754 135.827 96.411 135.827 96.2671C135.804 96.0037 135.995 95.7649 136.258 95.7404C136.521 95.7159 136.761 95.9078 136.784 96.1711C136.784 96.1946 137.167 99.7355 138.197 101.817C138.317 102.056 138.22 102.343 137.982 102.463C137.934 102.463 137.839 102.486 137.767 102.486L137.766 102.487Z" fill="#222433"/>
<path d="M42.713 137.875C43.028 135.706 41.5421 133.696 39.3942 133.386C37.2463 133.075 35.2497 134.582 34.9347 136.752C34.6196 138.921 36.1055 140.931 38.2534 141.241C40.4014 141.551 42.398 140.044 42.713 137.875Z" fill="white"/>
<path d="M38.1869 141.675C35.8028 141.331 34.1486 139.092 34.4977 136.684C34.8467 134.276 37.0711 132.597 39.4551 132.941C41.8392 133.285 43.4934 135.524 43.1443 137.932C42.7942 140.34 40.5709 142.019 38.1869 141.675ZM39.3272 133.82C37.4222 133.545 35.6452 134.885 35.3667 136.809C35.0873 138.732 36.4098 140.522 38.3148 140.796C40.2198 141.071 41.9968 139.73 42.2753 137.806C42.5547 135.883 41.2322 134.094 39.3272 133.82Z" fill="#222433"/>
<path d="M38.3239 170.729C38.11 170.698 37.9462 170.51 37.9493 170.285L38.3833 137.304C38.3864 137.059 38.586 136.862 38.8286 136.864C39.0712 136.866 39.2646 137.067 39.2616 137.312L38.8275 170.293C38.8245 170.538 38.6249 170.735 38.3823 170.733C38.3628 170.733 38.3434 170.731 38.3239 170.729Z" fill="#222433"/>
<path d="M142.839 103.994C141.229 106.225 138.766 104.46 138.766 104.46C133.564 108.307 132.438 96.9528 132.438 96.9528C133.202 93.8018 136.029 94.9358 136.464 96.2771C136.876 93.8028 139.648 93.5007 140.665 95.5115C141.219 93.1863 144.256 92.8484 144.797 96.7925C144.953 97.9357 145.859 101.32 145.859 101.32" fill="white"/>
<path d="M136.755 105.743C136.389 105.743 136.033 105.668 135.69 105.516C134.404 104.946 133.384 103.32 132.658 100.683C132.137 98.7881 131.963 97.0733 131.955 97.0008C131.95 96.9467 131.953 96.8916 131.967 96.8385C132.475 94.7378 133.809 94.4622 134.359 94.4418C135.067 94.4153 135.794 94.7164 136.309 95.1931C136.711 94.3969 137.407 93.8631 138.267 93.7314C139.117 93.5997 139.945 93.8998 140.549 94.5153C141.014 93.7345 141.79 93.2629 142.634 93.3037C143.695 93.3558 144.946 94.2816 145.282 96.7272C145.433 97.8276 146.323 101.161 146.332 101.195C146.402 101.454 146.247 101.721 145.989 101.79C145.73 101.859 145.462 101.705 145.393 101.446C145.356 101.306 144.478 98.0195 144.318 96.8589C144.063 95.0032 143.256 94.3071 142.586 94.2744C141.939 94.2428 141.338 94.797 141.141 95.6238C141.093 95.8219 140.927 95.9699 140.724 95.9933C140.523 96.0178 140.325 95.9127 140.233 95.73C139.777 94.8287 138.992 94.6021 138.414 94.6919C137.648 94.8083 137.099 95.4309 136.946 96.3567C136.909 96.5772 136.726 96.7446 136.502 96.7619C136.28 96.7824 136.073 96.6405 136.004 96.4271C135.841 95.926 135.117 95.3819 134.396 95.4136C133.526 95.4462 133.12 96.27 132.933 96.9885C133.135 98.8912 134.063 103.734 136.085 104.628C136.775 104.933 137.558 104.751 138.478 104.07C138.648 103.945 138.879 103.943 139.051 104.066C139.262 104.216 141.166 105.486 142.446 103.711C142.603 103.494 142.907 103.444 143.124 103.601C143.342 103.758 143.392 104.061 143.235 104.279C142.252 105.64 140.991 105.718 140.106 105.541C139.547 105.43 139.074 105.204 138.784 105.042C138.079 105.51 137.4 105.744 136.755 105.744V105.743Z" fill="#222433"/>
<path d="M140.667 95.5107C140.667 95.5107 140.596 97.5348 142.083 101.709L140.667 95.5107Z" fill="white"/>
<path d="M142.083 102.195C141.883 102.195 141.695 102.071 141.624 101.872C140.122 97.6583 140.177 95.5801 140.18 95.4934C140.189 95.2249 140.404 95.0136 140.683 95.0248C140.951 95.034 141.161 95.2586 141.152 95.526C141.152 95.5587 141.117 97.5501 142.54 101.545C142.63 101.798 142.498 102.076 142.245 102.166C142.191 102.185 142.137 102.194 142.083 102.194V102.195Z" fill="#222433"/>
<path d="M136.466 96.2764C136.466 96.2764 136.845 99.9449 137.954 102.165L136.466 96.2764Z" fill="white"/>
<path d="M137.954 102.651C137.776 102.651 137.604 102.553 137.518 102.382C136.382 100.109 135.996 96.4796 135.981 96.3264C135.953 96.059 136.148 95.8212 136.415 95.7936C136.684 95.7691 136.922 95.96 136.949 96.2264C136.954 96.2621 137.333 99.8337 138.39 101.949C138.51 102.188 138.412 102.48 138.172 102.601C138.102 102.636 138.028 102.652 137.955 102.652L137.954 102.651Z" fill="#222433"/>
<path d="M287.606 156.207H0.531268C0.230318 156.207 0 155.961 0 155.641C0 155.32 0.230318 155.074 0.531268 155.074H287.606C287.907 155.074 288.137 155.32 288.137 155.641C288.137 155.961 287.907 156.207 287.606 156.207Z" fill="#222433"/>
<path d="M43.0972 62.2891L43.3132 60.4865C43.4114 59.6627 44.1617 59.0748 44.9868 59.1728C45.2192 59.2003 45.4423 59.282 45.6378 59.4106L49.8562 62.1819L45.1014 63.8824C44.3184 64.1631 43.4565 63.7579 43.1739 62.977C43.0941 62.7565 43.0675 62.5208 43.0961 62.2891H43.0972Z" fill="#F9DCC7"/>
<path d="M49.7479 55.4408L51.5567 55.6562C52.3828 55.7531 52.9734 56.5003 52.8751 57.324C52.8475 57.5567 52.7656 57.7793 52.6366 57.9742L49.8574 62.1806L48.15 57.4394C47.8695 56.6575 48.278 55.797 49.0621 55.5173C49.2822 55.4387 49.5166 55.4122 49.7479 55.4398V55.4408Z" fill="#F9DCC7"/>
<path d="M262.965 95.886L263.625 98.0591C263.739 98.4368 264.036 98.7318 264.416 98.8461L266.596 99.5045C266.739 99.5474 266.818 99.6974 266.775 99.8383C266.75 99.924 266.682 99.9914 266.596 100.017L264.416 100.675C264.037 100.79 263.74 101.085 263.625 101.462L262.965 103.635C262.923 103.777 262.774 103.859 262.632 103.817C262.544 103.792 262.475 103.723 262.449 103.635L261.789 101.462C261.675 101.085 261.379 100.789 261 100.675L258.82 100.017C258.677 99.974 258.598 99.824 258.641 99.6831C258.666 99.5974 258.734 99.53 258.82 99.5045L261 98.8461C261.379 98.7318 261.676 98.4368 261.789 98.0591L262.449 95.886C262.491 95.7441 262.641 95.6625 262.783 95.7043C262.871 95.7298 262.94 95.7982 262.965 95.886Z" fill="#F9DCC7"/>
</g>
<defs>
<clipPath id="clip0_56_539">
<rect width="288.137" height="183.677" fill="white"/>
</clipPath>
</defs>
</svg>
