<svg width="14" height="15" viewBox="0 0 14 15" fill="none" xmlns="http://www.w3.org/2000/svg">
<path d="M12.4679 6.66848C12.6555 6.62025 12.8218 6.51112 12.9407 6.3582C13.0596 6.20529 13.1245 6.01723 13.125 5.82352V4.8724C13.1245 4.48576 12.9707 4.1151 12.6974 3.84171C12.424 3.56832 12.0533 3.41453 11.6667 3.41406H2.33333C1.9467 3.41453 1.57604 3.56832 1.30265 3.84171C1.02926 4.1151 0.875463 4.48576 0.875 4.8724V5.82352C0.875356 6.01738 0.940084 6.20564 1.05902 6.35873C1.17796 6.51182 1.34437 6.62108 1.53212 6.66935C1.84536 6.75003 2.12289 6.93255 2.32105 7.18821C2.51921 7.44386 2.62675 7.75814 2.62675 8.0816C2.62675 8.40507 2.51921 8.71935 2.32105 8.975C2.12289 9.23066 1.84536 9.41318 1.53212 9.49385C1.34466 9.54205 1.17846 9.65105 1.05955 9.80379C0.940648 9.95652 0.875743 10.1444 0.875 10.3379V11.2891C0.875463 11.6757 1.02926 12.0464 1.30265 12.3197C1.57604 12.5931 1.9467 12.7469 2.33333 12.7474H11.6667C12.0533 12.7469 12.424 12.5931 12.6974 12.3197C12.9707 12.0464 13.1245 11.6757 13.125 11.2891V10.3379C13.1246 10.1441 13.0599 9.95582 12.941 9.80273C12.822 9.64964 12.6556 9.54038 12.4679 9.49211C12.1546 9.41143 11.8771 9.22891 11.6789 8.97325C11.4808 8.7176 11.3733 8.40332 11.3733 8.07985C11.3733 7.75639 11.4808 7.44211 11.6789 7.18646C11.8771 6.9308 12.1546 6.74915 12.4679 6.66848Z" fill="#FF4F4F"/>
<path d="M5.76426 9.60894C5.70658 9.60892 5.6502 9.59181 5.60225 9.55976C5.5543 9.52771 5.51693 9.48217 5.49485 9.42888C5.47278 9.37559 5.46701 9.31696 5.47826 9.26039C5.48951 9.20382 5.51727 9.15185 5.55805 9.11106L8.03255 6.63656C8.08756 6.58343 8.16124 6.55403 8.23771 6.5547C8.31419 6.55536 8.38734 6.58604 8.44142 6.64011C8.49549 6.69419 8.52617 6.76735 8.52683 6.84382C8.5275 6.92029 8.4981 6.99397 8.44497 7.04898L5.97047 9.52348C5.94346 9.55065 5.91133 9.5722 5.87593 9.58687C5.84053 9.60154 5.80258 9.60904 5.76426 9.60894Z" fill="#F4F4F4"/>
<path d="M5.6888 7.79167C5.4869 7.79167 5.28953 7.7318 5.12166 7.61963C4.95378 7.50745 4.82294 7.34802 4.74568 7.16149C4.66841 6.97496 4.6482 6.7697 4.68758 6.57168C4.72697 6.37366 4.8242 6.19176 4.96696 6.049C5.10973 5.90623 5.29163 5.809 5.48965 5.76962C5.68767 5.73023 5.89293 5.75044 6.07946 5.82771C6.26599 5.90497 6.42542 6.03581 6.53759 6.20369C6.64976 6.37156 6.70964 6.56893 6.70964 6.77083C6.70964 7.04158 6.60208 7.30123 6.41064 7.49267C6.2192 7.68412 5.95954 7.79167 5.6888 7.79167ZM5.6888 6.33333C5.60227 6.33333 5.51769 6.35899 5.44574 6.40707C5.37379 6.45514 5.31772 6.52347 5.28461 6.60341C5.25149 6.68335 5.24283 6.77132 5.25971 6.85619C5.27659 6.94105 5.31826 7.01901 5.37944 7.08019C5.44063 7.14138 5.51858 7.18305 5.60345 7.19993C5.68832 7.21681 5.77628 7.20814 5.85623 7.17503C5.93617 7.14192 6.0045 7.08584 6.05257 7.0139C6.10064 6.94195 6.1263 6.85736 6.1263 6.77083C6.1263 6.6548 6.08021 6.54352 5.99816 6.46147C5.91611 6.37943 5.80483 6.33333 5.6888 6.33333Z" fill="#F4F4F4"/>
<path d="M8.3138 10.4167C8.1119 10.4167 7.91453 10.3568 7.74666 10.2446C7.57878 10.1325 7.44794 9.97302 7.37068 9.78649C7.29341 9.59996 7.2732 9.3947 7.31258 9.19668C7.35197 8.99866 7.4492 8.81676 7.59196 8.674C7.73473 8.53123 7.91663 8.434 8.11465 8.39462C8.31267 8.35523 8.51793 8.37544 8.70446 8.45271C8.89099 8.52997 9.05042 8.66081 9.16259 8.82869C9.27476 8.99656 9.33464 9.19393 9.33464 9.39583C9.33464 9.66658 9.22708 9.92623 9.03564 10.1177C8.8442 10.3091 8.58454 10.4167 8.3138 10.4167ZM8.3138 8.95833C8.22727 8.95833 8.14269 8.98399 8.07074 9.03207C7.99879 9.08014 7.94272 9.14847 7.90961 9.22841C7.87649 9.30835 7.86783 9.39632 7.88471 9.48119C7.90159 9.56605 7.94326 9.64401 8.00444 9.70519C8.06563 9.76638 8.14358 9.80805 8.22845 9.82493C8.31332 9.84181 8.40128 9.83314 8.48123 9.80003C8.56117 9.76692 8.6295 9.71084 8.67757 9.6389C8.72564 9.56695 8.7513 9.48236 8.7513 9.39583C8.7513 9.2798 8.70521 9.16852 8.62316 9.08647C8.54111 9.00443 8.42983 8.95833 8.3138 8.95833Z" fill="#F4F4F4"/>
</svg>
