<svg width="80" height="80" viewBox="0 0 80 80" fill="none" xmlns="http://www.w3.org/2000/svg">
<path d="M74.6641 66.875L42.1641 10.625C41.6797 9.78906 40.8438 9.375 40 9.375C39.1563 9.375 38.3125 9.78906 37.836 10.625L5.33596 66.875C4.37503 68.5469 5.57815 70.625 7.50003 70.625H72.5C74.4219 70.625 75.625 68.5469 74.6641 66.875ZM37.5 32.5C37.5 32.1562 37.7813 31.875 38.125 31.875H41.875C42.2188 31.875 42.5 32.1562 42.5 32.5V46.875C42.5 47.2188 42.2188 47.5 41.875 47.5H38.125C37.7813 47.5 37.5 47.2188 37.5 46.875V32.5ZM40 60C39.0187 59.98 38.0844 59.5761 37.3974 58.875C36.7105 58.1739 36.3258 57.2315 36.3258 56.25C36.3258 55.2685 36.7105 54.3261 37.3974 53.625C38.0844 52.9239 39.0187 52.52 40 52.5C40.9813 52.52 41.9157 52.9239 42.6026 53.625C43.2895 54.3261 43.6743 55.2685 43.6743 56.25C43.6743 57.2315 43.2895 58.1739 42.6026 58.875C41.9157 59.5761 40.9813 59.98 40 60Z" fill="#FFC53D"/>
</svg>
