<svg width="141" height="44" viewBox="0 0 141 44" fill="none" xmlns="http://www.w3.org/2000/svg">
<path d="M16.8277 8.01318H16.8244C16.3238 8.01318 15.918 8.419 15.918 8.9196V19.5179C15.918 20.0185 16.3238 20.4243 16.8244 20.4243H16.8277C17.3283 20.4243 17.7342 20.0185 17.7342 19.5179V8.9196C17.7342 8.419 17.3283 8.01318 16.8277 8.01318Z" fill="#3D462F"/>
<path d="M16.8257 0C7.54674 0 0 9.80942 0 21.8614C0 33.9133 7.54674 43.7228 16.8257 43.7228C26.1047 43.7228 33.6515 33.9133 33.6515 21.8614C33.6515 9.80942 26.1047 0 16.8257 0ZM17.7322 40.8424V32.4094C17.7322 32.1542 17.8396 31.9125 18.0276 31.7413L25.9436 24.49C26.3129 24.1509 26.3397 23.5769 26.0007 23.2076C25.6616 22.8349 25.0875 22.8114 24.7183 23.1505L19.2563 28.1559C18.6755 28.6897 17.7355 28.2768 17.7355 27.4879V25.1278C17.7355 24.8928 17.8262 24.6645 17.9906 24.4967L26.0175 16.2382C26.3666 15.879 26.3599 15.305 26.0007 14.9558C25.6415 14.6067 25.0674 14.6134 24.7183 14.9726L17.4535 22.4489C17.101 22.8114 16.5236 22.8148 16.1644 22.4623L8.55387 14.9491C8.19802 14.5966 7.62395 14.6 7.27146 14.9558C6.91897 15.3117 6.92232 15.8891 7.27817 16.2416L15.6508 24.5101C15.822 24.6813 15.9193 24.913 15.9193 25.1547V40.8524C15.9193 41.4131 15.4158 41.8461 14.8652 41.7488C7.51317 40.463 1.81619 32.0401 1.81619 21.8715C1.81619 10.8166 8.55051 1.82626 16.8257 1.82626C25.101 1.82626 31.8353 10.8199 31.8353 21.8715C31.8353 32.0367 26.1383 40.4597 18.7863 41.7488C18.2357 41.8461 17.7322 41.4131 17.7322 40.8524V40.8424Z" fill="#3D462F"/>
<path d="M7.2683 23.2004L7.26593 23.2028C6.91196 23.5568 6.91196 24.1307 7.26593 24.4847L13.5756 30.7943C13.9295 31.1483 14.5034 31.1483 14.8574 30.7943L14.8598 30.7919C15.2138 30.4379 15.2138 29.864 14.8598 29.5101L8.55017 23.2004C8.1962 22.8465 7.62228 22.8465 7.2683 23.2004Z" fill="#3D462F"/>
<path d="M47.6284 36.7405V15.3994H50.3375L50.549 19.5052C50.9989 18.5182 51.6065 17.6856 52.3686 17.0075C53.1306 16.3294 54.0471 15.809 55.1214 15.4397C56.1923 15.0738 57.4076 14.8892 58.7638 14.8892V17.981H57.6191C56.716 17.981 55.8398 18.1019 54.9938 18.3403C54.1478 18.5786 53.3992 18.9815 52.7513 19.5488C52.1 20.1128 51.5797 20.8749 51.1835 21.835C50.7874 22.7951 50.5893 23.9936 50.5893 25.4338V36.7405H47.625H47.6284Z" fill="#3D462F"/>
<path d="M69.3088 37.247C67.5866 37.247 66.1531 36.9348 65.0117 36.317C63.8669 35.696 63.0209 34.8903 62.4704 33.9033C61.9198 32.9163 61.6445 31.8286 61.6445 30.6436C61.6445 29.1765 62.0172 27.9344 62.7658 26.9172C63.5144 25.9 64.5719 25.1379 65.9416 24.631C67.3113 24.1241 68.8858 23.8689 70.6617 23.8689H76.4191C76.4191 22.4858 76.2076 21.3142 75.7846 20.3541C75.3616 19.394 74.7473 18.6688 73.9416 18.172C73.1359 17.6785 72.1119 17.43 70.8732 17.43C69.4061 17.43 68.1472 17.796 67.1032 18.5312C66.0591 19.2664 65.4078 20.3373 65.1561 21.7506H62.0642C62.232 20.2534 62.749 18.9978 63.6084 17.9806C64.4678 16.9634 65.5421 16.1946 66.8279 15.6743C68.1136 15.1506 69.4598 14.8921 70.8732 14.8921C72.8203 14.8921 74.4216 15.2681 75.6805 16.0134C76.9361 16.762 77.866 17.7859 78.4736 19.0817C79.0813 20.3809 79.3834 21.8782 79.3834 23.5702V36.74H76.6742L76.5467 32.8458C76.2647 33.44 75.9054 34.004 75.4657 34.5412C75.0292 35.0783 74.519 35.5449 73.9416 35.9377C73.3641 36.3338 72.6927 36.6494 71.9307 36.8911C71.1686 37.1295 70.2924 37.2503 69.3054 37.2503L69.3088 37.247ZM69.6478 34.6217C70.7187 34.6217 71.6654 34.4102 72.4846 33.9872C73.3037 33.5642 74.0087 33.0002 74.6029 32.2919C75.1971 31.5869 75.647 30.7812 75.9592 29.8781C76.268 28.9751 76.4258 28.0586 76.4258 27.1253V26.3633H70.8799C69.3826 26.3633 68.1841 26.5479 67.2811 26.9138C66.378 27.2798 65.7268 27.7766 65.334 28.3943C64.9378 29.0154 64.7398 29.7372 64.7398 30.5529C64.7398 31.3687 64.9311 32.0838 65.3105 32.6914C65.6932 33.299 66.2471 33.7724 66.9823 34.1081C67.7175 34.4471 68.6038 34.615 69.6512 34.615L69.6478 34.6217Z" fill="#3D462F"/>
<path d="M84.5508 36.7402V8.14111H87.5151V19.2094C88.2503 17.8532 89.2709 16.7957 90.5835 16.0336C91.8961 15.2716 93.3162 14.8889 94.8403 14.8889C96.4483 14.8889 97.8516 15.2145 99.0534 15.8624C100.252 16.5103 101.185 17.5007 101.847 18.8267C102.508 20.1528 102.84 21.8481 102.84 23.906V36.7368H99.9196V24.2451C99.9196 21.9589 99.4462 20.2569 98.5029 19.1423C97.5562 18.0278 96.1663 17.4705 94.3334 17.4705C93.0644 17.4705 91.9129 17.7827 90.8823 18.4004C89.8516 19.0214 89.0325 19.9178 88.4249 21.0894C87.8172 22.261 87.5151 23.7079 87.5151 25.4301V36.7368H84.5508V36.7402Z" fill="#3D462F"/>
<path d="M114.828 37.247C113.106 37.247 111.673 36.9348 110.531 36.317C109.386 35.696 108.54 34.8903 107.99 33.9033C107.439 32.9163 107.164 31.8286 107.164 30.6436C107.164 29.1765 107.537 27.9344 108.285 26.9172C109.034 25.9 110.091 25.1379 111.461 24.631C112.831 24.1241 114.405 23.8689 116.181 23.8689H121.939C121.939 22.4858 121.727 21.3142 121.304 20.3541C120.881 19.394 120.267 18.6688 119.461 18.172C118.655 17.6785 117.631 17.43 116.393 17.43C114.926 17.43 113.667 17.796 112.623 18.5312C111.579 19.2664 110.927 20.3373 110.676 21.7506H107.584C107.752 20.2534 108.269 18.9978 109.128 17.9806C109.987 16.9634 111.062 16.1946 112.347 15.6743C113.633 15.1506 114.979 14.8921 116.393 14.8921C118.34 14.8921 119.941 15.2681 121.2 16.0134C122.456 16.762 123.386 17.7859 123.993 19.0817C124.601 20.3809 124.903 21.8782 124.903 23.5702V36.74H122.194L122.066 32.8458C121.784 33.44 121.425 34.004 120.985 34.5412C120.549 35.0783 120.039 35.5449 119.461 35.9377C118.884 36.3338 118.212 36.6494 117.45 36.8911C116.688 37.1295 115.812 37.2503 114.825 37.2503L114.828 37.247ZM115.167 34.6217C116.238 34.6217 117.185 34.4102 118.004 33.9872C118.823 33.5642 119.528 33.0002 120.122 32.2919C120.717 31.5869 121.166 30.7812 121.479 29.8781C121.788 28.9751 121.945 28.0586 121.945 27.1253V26.3633H116.399C114.902 26.3633 113.704 26.5479 112.801 26.9138C111.898 27.2798 111.246 27.7766 110.854 28.3943C110.457 29.0154 110.259 29.7372 110.259 30.5529C110.259 31.3687 110.451 32.0838 110.83 32.6914C111.213 33.299 111.767 33.7724 112.502 34.1081C113.237 34.4471 114.123 34.615 115.171 34.615L115.167 34.6217Z" fill="#3D462F"/>
<path d="M137.482 36.7402C136.267 36.7402 135.222 36.5488 134.35 36.1695C133.473 35.7868 132.805 35.1523 132.339 34.2626C131.872 33.373 131.64 32.1544 131.64 30.6001V17.9405H127.914V15.3991H131.64L131.684 8.14111H134.605V15.4394H141V17.9371H134.605V30.5967C134.605 32.01 134.887 32.9601 135.451 33.4569C136.015 33.9504 137.018 34.1989 138.459 34.1989H140.661V36.7402H137.485H137.482Z" fill="#3D462F"/>
</svg>
