<svg width="55" height="55" viewBox="0 0 55 55" fill="none" xmlns="http://www.w3.org/2000/svg">
<g id="truck-thin-svgrepo-com 1">
<path id="Vector" d="M52.4215 25.7773C52.4209 25.7265 52.4158 25.6759 52.4062 25.626C52.4042 25.6147 52.4021 25.6035 52.3995 25.5923C52.39 25.5479 52.3769 25.5044 52.3604 25.4621L52.3546 25.4476L52.3541 25.4462L49.3551 17.9487C49.1652 17.4693 48.8352 17.0583 48.4082 16.7692C47.9812 16.4802 47.477 16.3264 46.9614 16.3281H38.6719V13.75C38.6719 13.5221 38.5813 13.3035 38.4202 13.1423C38.259 12.9812 38.0404 12.8906 37.8125 12.8906H5.15625C4.47272 12.8914 3.81739 13.1632 3.33406 13.6466C2.85073 14.1299 2.57887 14.7852 2.57812 15.4688V39.5312C2.57887 40.2148 2.85073 40.8701 3.33406 41.3534C3.81739 41.8368 4.47272 42.1086 5.15625 42.1094H8.65611C8.86259 43.541 9.57808 44.8504 10.6715 45.7974C11.7649 46.7444 13.1629 47.2656 14.6094 47.2656C16.0559 47.2656 17.4539 46.7444 18.5473 45.7974C19.6407 44.8504 20.3561 43.541 20.5626 42.1094H34.4374C34.6438 43.541 35.3593 44.8504 36.4527 45.7974C37.5461 46.7444 38.9441 47.2656 40.3906 47.2656C41.8371 47.2656 43.2351 46.7444 44.3285 45.7974C45.4219 44.8504 46.1374 43.541 46.3439 42.1094H49.8437C50.5273 42.1086 51.1826 41.8367 51.6659 41.3534C52.1492 40.8701 52.4211 40.2148 52.4219 39.5312V25.7812L52.4215 25.7773ZM46.9614 18.0469C47.1333 18.0463 47.3013 18.0976 47.4437 18.1939C47.586 18.2903 47.696 18.4273 47.7593 18.5871L50.2932 24.9219H38.6719V18.0469H46.9614ZM5.15625 14.6094H36.9531V30.0781H4.29688V15.4688C4.29712 15.2409 4.38774 15.0225 4.54885 14.8613C4.70996 14.7002 4.92841 14.6096 5.15625 14.6094ZM4.29688 39.5312V31.7969H36.9531V36.3175C36.2776 36.7883 35.7058 37.3927 35.273 38.0933C34.8403 38.7939 34.5559 39.5758 34.4374 40.3906H20.5626C20.3562 38.959 19.6407 37.6496 18.5473 36.7026C17.4539 35.7556 16.0559 35.2343 14.6094 35.2343C13.1629 35.2343 11.7648 35.7556 10.6715 36.7026C9.57808 37.6496 8.86258 38.959 8.65611 40.3906H5.15625C4.92841 40.3904 4.70996 40.2998 4.54885 40.1387C4.38774 39.9775 4.29712 39.7591 4.29688 39.5312ZM14.6094 45.5469C13.7595 45.5469 12.9288 45.2949 12.2222 44.8227C11.5155 44.3506 10.9648 43.6795 10.6396 42.8943C10.3144 42.1092 10.2293 41.2452 10.3951 40.4117C10.5609 39.5782 10.9701 38.8126 11.571 38.2117C12.172 37.6107 12.9376 37.2015 13.7711 37.0357C14.6046 36.8699 15.4686 36.955 16.2537 37.2802C17.0389 37.6054 17.71 38.1562 18.1821 38.8628C18.6542 39.5694 18.9062 40.4002 18.9062 41.25C18.905 42.3892 18.4519 43.4814 17.6463 44.2869C16.8408 45.0925 15.7486 45.5456 14.6094 45.5469ZM40.3906 45.5469C39.5408 45.5469 38.71 45.2949 38.0034 44.8227C37.2968 44.3506 36.746 43.6795 36.4208 42.8943C36.0956 42.1092 36.0105 41.2452 36.1763 40.4117C36.3421 39.5782 36.7513 38.8126 37.3523 38.2117C37.9532 37.6107 38.7188 37.2015 39.5523 37.0357C40.3859 36.8699 41.2498 36.955 42.035 37.2802C42.8201 37.6054 43.4912 38.1562 43.9633 38.8628C44.4355 39.5694 44.6875 40.4002 44.6875 41.25C44.6862 42.3892 44.2331 43.4814 43.4276 44.2869C42.622 45.0925 41.5298 45.5456 40.3906 45.5469ZM50.7031 39.5312C50.7029 39.7591 50.6123 39.9775 50.4512 40.1387C50.29 40.2998 50.0716 40.3904 49.8438 40.3906H46.3439C46.2208 39.5352 45.9148 38.7164 45.4467 37.99C44.9786 37.2635 44.3594 36.6466 43.6313 36.1811C42.9031 35.7156 42.0832 35.4125 41.2274 35.2926C40.3716 35.1726 39.4999 35.2386 38.6719 35.4859V26.6406H50.7031V39.5312Z" fill="#FF3A3A"/>
</g>
</svg>
