<svg width="49" height="49" viewBox="0 0 49 49" fill="none" xmlns="http://www.w3.org/2000/svg">
<g id="bag-4-svgrepo-com 1">
<path id="Vector" d="M32.2531 18.6852C32.2531 19.7884 31.3586 20.6828 30.2555 20.6828C29.1522 20.6828 28.2578 19.7884 28.2578 18.6852C28.2578 17.5819 29.1522 16.6875 30.2555 16.6875C31.3586 16.6875 32.2531 17.5819 32.2531 18.6852Z" fill="#FF3A3A"/>
<path id="Vector_2" d="M20.2669 18.6852C20.2669 19.7884 19.3724 20.6828 18.2691 20.6828C17.1659 20.6828 16.2715 19.7884 16.2715 18.6852C16.2715 17.5819 17.1659 16.6875 18.2691 16.6875C19.3724 16.6875 20.2669 17.5819 20.2669 18.6852Z" fill="#FF3A3A"/>
<path id="Vector_3" fill-rule="evenodd" clip-rule="evenodd" d="M24.2654 6.19961C21.783 6.19961 19.7706 8.21196 19.7706 10.6943V11.2027C20.6047 11.1937 21.5051 11.1937 22.4779 11.1937H26.0527C27.0258 11.1937 27.9261 11.1937 28.7602 11.2027V10.6943C28.7602 8.21196 26.7477 6.19961 24.2654 6.19961ZM31.7566 11.3075V10.6943C31.7566 6.55705 28.4026 3.20312 24.2654 3.20312C20.1281 3.20312 16.7742 6.55705 16.7742 10.6943V11.3075C16.5045 11.3272 16.2442 11.3502 15.993 11.3773C14.2384 11.5664 12.771 11.9626 11.468 12.8557C11.0198 13.1629 10.5988 13.508 10.2097 13.8872C9.0784 14.9898 8.40215 16.351 7.8726 18.0345C7.35844 19.6689 6.94293 21.7467 6.42078 24.3575L6.38268 24.5481C5.63029 28.3098 5.03738 31.2742 4.8671 33.6354C4.69311 36.0478 4.93624 38.0772 6.07898 39.8361C6.46025 40.4228 6.90527 40.9656 7.40592 41.4546C8.90642 42.9201 10.8488 43.5565 13.2485 43.859C15.5972 44.155 18.6202 44.155 22.4566 44.155H26.0741C29.9106 44.155 32.9337 44.155 35.2821 43.859C37.6819 43.5565 39.6244 42.9201 41.1248 41.4546C41.6255 40.9656 42.0705 40.4228 42.4517 39.8361C43.5946 38.0772 43.8377 36.0478 43.6637 33.6354C43.4935 31.2744 42.9006 28.31 42.148 24.5483L42.1099 24.3575C41.5879 21.7467 41.1724 19.669 40.6582 18.0345C40.1286 16.351 39.4524 14.9898 38.3209 13.8872C37.932 13.508 37.5109 13.1629 37.0628 12.8557C35.7597 11.9626 34.2923 11.5664 32.5377 11.3773C32.2864 11.3502 32.0263 11.3272 31.7566 11.3075ZM16.3141 14.3565C14.8225 14.5173 13.9009 14.8209 13.162 15.3274C12.8554 15.5375 12.5674 15.7737 12.3012 16.0331C11.6596 16.6584 11.1812 17.5025 10.731 18.9336C10.2709 20.3962 9.88507 22.3151 9.34211 25.0299C8.56394 28.9207 8.01093 31.7003 7.85582 33.8509C7.70281 35.9722 7.96115 37.233 8.59167 38.2034C8.85254 38.605 9.15703 38.9763 9.49956 39.3109C10.3275 40.1194 11.5131 40.62 13.6233 40.8861C15.7626 41.1558 18.5965 41.1586 22.5644 41.1586H25.9662C29.9342 41.1586 32.7681 41.1558 34.9073 40.8861C37.0177 40.62 38.2033 40.1194 39.0311 39.3109C39.3737 38.9763 39.6782 38.605 39.939 38.2034C40.5695 37.233 40.828 35.9722 40.675 33.8509C40.5198 31.7003 39.9668 28.9207 39.1887 25.0299C38.6458 22.3153 38.2598 20.3962 37.7998 18.9336C37.3495 17.5025 36.871 16.6584 36.2296 16.0331C35.9633 15.7737 35.6754 15.5375 35.3686 15.3274C34.6299 14.8209 33.7084 14.5173 32.2165 14.3565C30.6923 14.1922 28.7348 14.1902 25.9662 14.1902H22.5644C19.7959 14.1902 17.8385 14.1922 16.3141 14.3565Z" fill="#FF3A3A"/>
</g>
</svg>
