<svg width="22" height="22" viewBox="0 0 22 22" fill="none" xmlns="http://www.w3.org/2000/svg">
<g id="mailbox-svgrepo-com 1">
<path id="Vector" fill-rule="evenodd" clip-rule="evenodd" d="M16.8412 2.77517C16.4489 2.62399 16.022 2.586 15.6091 2.66555L15.3548 2.71454V4.23182C16.0187 4.10504 16.7049 4.16664 17.3356 4.40972C17.7271 4.56059 18.1524 4.59849 18.5632 4.5202V3.00009C18.0074 3.07284 17.4402 3.00604 16.9137 2.80314L16.8412 2.77517ZM15.3548 5.63211L15.6091 5.58311C16.022 5.50357 16.4489 5.54154 16.8412 5.69274C17.5267 5.95691 18.2763 6.00627 18.9906 5.83424L19.0516 5.81954C19.5717 5.69428 19.9382 5.22903 19.9382 4.69412V2.65776C19.9382 1.95255 19.2786 1.43299 18.5929 1.59812C18.1993 1.69295 17.7861 1.66574 17.4081 1.52012L17.3356 1.49215C16.703 1.24836 16.0146 1.18711 15.349 1.31539L14.9034 1.40124C14.3672 1.50455 13.9798 1.97376 13.9798 2.51975V5.7273H6.41732C6.37459 5.7273 6.33277 5.73119 6.29221 5.73865C6.18211 5.73112 6.07099 5.7273 5.95898 5.7273C3.30111 5.7273 1.14648 7.88192 1.14648 10.5398V15.3683C1.14648 16.8782 2.37055 18.1023 3.8805 18.1023H8.93815V20.1648C8.93815 20.5445 9.24597 20.8523 9.62565 20.8523C10.0053 20.8523 10.3132 20.5445 10.3132 20.1648V18.1023H12.6048V20.1648C12.6048 20.5445 12.9126 20.8523 13.2923 20.8523C13.672 20.8523 13.9798 20.5445 13.9798 20.1648V18.1023H18.1443C19.6412 18.1023 20.8548 16.8888 20.8548 15.3918V10.5398C20.8548 7.88192 18.7002 5.7273 16.0423 5.7273H15.3548V5.63211ZM13.9798 7.1023V10.0815C13.9798 10.4612 14.2876 10.769 14.6673 10.769C15.047 10.769 15.3548 10.4612 15.3548 10.0815V7.1023H16.0423C17.9408 7.1023 19.4798 8.64132 19.4798 10.5398V15.3918C19.4798 16.1294 18.8819 16.7273 18.1443 16.7273H10.7715V10.5398C10.7715 9.19316 10.2184 7.97578 9.327 7.1023H13.9798ZM9.39648 16.7273V10.5398C9.39648 8.64132 7.85746 7.1023 5.95898 7.1023C4.0605 7.1023 2.52148 8.64132 2.52148 10.5398V15.3683C2.52148 16.1188 3.12993 16.7273 3.8805 16.7273H9.39648ZM3.89648 14.6648C3.89648 14.2851 4.20429 13.9773 4.58398 13.9773H7.33398C7.71368 13.9773 8.02148 14.2851 8.02148 14.6648C8.02148 15.0445 7.71368 15.3523 7.33398 15.3523H4.58398C4.20429 15.3523 3.89648 15.0445 3.89648 14.6648Z" fill="black"/>
</g>
</svg>
