<svg width="26" height="26" viewBox="0 0 26 26" fill="none" xmlns="http://www.w3.org/2000/svg">
<g id="delivery-svgrepo-com 1">
<path id="Vector" fill-rule="evenodd" clip-rule="evenodd" d="M19.5978 2.76117C18.9994 2.42608 18.3623 2.39234 17.6889 2.4765C17.0492 2.55645 16.271 2.75872 15.3358 3.00181L13.1493 3.57002C12.2145 3.81293 11.4361 4.0152 10.8405 4.25632C10.2143 4.50984 9.67287 4.85047 9.32169 5.44045C8.96827 6.03415 8.93319 6.66883 9.02126 7.33175C9.1043 7.95679 9.31388 8.71529 9.56357 9.61893L10.1513 11.7465C10.4011 12.6506 10.6106 13.409 10.8607 13.9901C11.1262 14.6071 11.481 15.1324 12.0829 15.4695C12.6813 15.8045 13.3184 15.8383 13.9919 15.7542C14.6315 15.6742 15.4097 15.472 16.3449 15.2289L18.5315 14.6606C19.4663 14.4177 20.2447 14.2154 20.8402 13.9744C21.4663 13.7207 22.0078 13.3801 22.359 12.7902C22.7124 12.1965 22.7475 11.5618 22.6594 10.8989C22.5763 10.2738 22.3668 9.51535 22.1171 8.6117L21.5293 6.48414C21.2796 5.58003 21.0701 4.82166 20.82 4.24054C20.5544 3.6235 20.1997 3.09822 19.5978 2.76117ZM15.6914 4.58835C16.6934 4.32795 17.3685 4.15418 17.8904 4.08896C18.3904 4.02646 18.6298 4.08157 18.8038 4.179C18.9743 4.27448 19.1371 4.44092 19.3274 4.88295C19.528 5.34915 19.7092 5.99824 19.9782 6.97177L20.5354 8.989C20.8045 9.96278 20.9821 10.6125 21.0486 11.1129C21.1117 11.5882 21.0552 11.8036 20.9627 11.959C20.8679 12.1182 20.6961 12.2795 20.2304 12.4681C19.7454 12.6645 19.0714 12.8413 18.0691 13.1017L15.9893 13.6423C14.9872 13.9027 14.3121 14.0765 13.7903 14.1417C13.2902 14.2042 13.0509 14.1491 12.8768 14.0516C12.7064 13.9562 12.5436 13.7898 12.3533 13.3476C12.1527 12.8815 11.9715 12.2324 11.7025 11.2589L11.1452 9.24164C10.8762 8.26786 10.6986 7.61819 10.6321 7.11774C10.569 6.64244 10.6255 6.42708 10.718 6.27165C10.8128 6.11246 10.9845 5.95112 11.4503 5.76255C11.9354 5.56617 12.6093 5.38932 13.6115 5.12887L15.6914 4.58835Z" fill="black"/>
<path id="Vector_2" fill-rule="evenodd" clip-rule="evenodd" d="M3.46743 5.11571C3.03503 4.99576 2.58725 5.24903 2.46728 5.68142C2.34731 6.11382 2.60059 6.56161 3.03299 6.68156L4.87866 7.19365C5.33973 7.32157 5.68308 7.66986 5.80037 8.09443L7.91429 15.7462C7.83308 15.7621 7.7519 15.7806 7.67087 15.8017C5.52906 16.3583 4.22027 18.5129 4.80822 20.6411C5.39335 22.759 7.61816 23.9806 9.75149 23.4261C11.6184 22.941 12.8525 21.2417 12.749 19.404L21.8712 17.0334C22.3055 16.9205 22.5662 16.4769 22.4533 16.0426C22.3404 15.6082 21.8968 15.3477 21.4625 15.4606L12.3212 17.8362C11.7705 16.7667 10.7591 16.0227 9.60579 15.7665L7.3667 7.6617C7.09248 6.66912 6.3064 5.90338 5.3131 5.6278L3.46743 5.11571ZM8.0796 17.3744C9.39229 17.0333 10.7096 17.7952 11.0478 19.0194C11.3832 20.2335 10.647 21.5145 9.34275 21.8533C8.03005 22.1945 6.71278 21.4326 6.37455 20.2083C6.03915 18.9943 6.77537 17.7134 8.0796 17.3744Z" fill="black"/>
</g>
</svg>
