<svg width="24" height="24" viewBox="0 0 24 24" fill="none" xmlns="http://www.w3.org/2000/svg">
<path d="M11.9997 2C17.5237 2 22.0017 6.478 22.0017 12.002C22.0017 17.525 17.5237 22.003 11.9997 22.003C6.47574 22.003 1.99774 17.525 1.99774 12.002C1.99774 6.478 6.47574 2 11.9997 2ZM11.9997 3.5C10.8756 3.48781 9.7601 3.6987 8.71796 4.12047C7.67582 4.54224 6.72767 5.16652 5.9284 5.95717C5.12913 6.74781 4.49461 7.68913 4.06156 8.72664C3.62851 9.76415 3.40554 10.8772 3.40554 12.0015C3.40554 13.1258 3.62851 14.2389 4.06156 15.2764C4.49461 16.3139 5.12913 17.2552 5.9284 18.0458C6.72767 18.8365 7.67582 19.4608 8.71796 19.8825C9.7601 20.3043 10.8756 20.5152 11.9997 20.503C14.2318 20.4688 16.3608 19.5581 17.9271 17.9675C19.4934 16.377 20.3713 14.2343 20.3713 12.002C20.3713 9.76972 19.4934 7.62698 17.9271 6.03646C16.3608 4.44594 14.2318 3.53524 11.9997 3.501V3.5ZM8.46174 14.785C8.88249 15.321 9.4197 15.7542 10.0327 16.0519C10.6456 16.3496 11.3183 16.5038 11.9997 16.503C12.6803 16.5038 13.3522 16.3499 13.9646 16.0529C14.5769 15.756 15.1139 15.3238 15.5347 14.789C15.6581 14.6329 15.8383 14.5322 16.0359 14.5091C16.2335 14.4859 16.4322 14.5422 16.5882 14.6655C16.7443 14.7888 16.845 14.9691 16.8682 15.1667C16.8913 15.3642 16.8351 15.5629 16.7117 15.719C16.1505 16.4316 15.4347 17.0074 14.6185 17.4031C13.8022 17.7987 12.9068 18.0038 11.9997 18.003C11.0915 18.0037 10.195 17.798 9.37796 17.4012C8.56094 17.0045 7.84482 16.4272 7.28374 15.713C7.16594 15.5564 7.11413 15.3598 7.13942 15.1655C7.16471 14.9711 7.26507 14.7944 7.41903 14.6731C7.573 14.5518 7.76832 14.4956 7.9632 14.5165C8.15808 14.5374 8.33703 14.6338 8.46174 14.785ZM8.99974 8.751C9.1668 8.74627 9.33312 8.7751 9.48884 8.83576C9.64457 8.89643 9.78655 8.98771 9.90639 9.1042C10.0262 9.2207 10.1215 9.36004 10.1865 9.51399C10.2516 9.66794 10.2851 9.83337 10.2851 10.0005C10.2851 10.1676 10.2516 10.3331 10.1865 10.487C10.1215 10.641 10.0262 10.7803 9.90639 10.8968C9.78655 11.0133 9.64457 11.1046 9.48884 11.1652C9.33312 11.2259 9.1668 11.2547 8.99974 11.25C8.67447 11.2408 8.36561 11.1051 8.1388 10.8718C7.91198 10.6385 7.78509 10.3259 7.78509 10.0005C7.78509 9.6751 7.91198 9.36253 8.1388 9.12921C8.36561 8.89588 8.67447 8.7602 8.99974 8.751ZM14.9997 8.751C15.1668 8.74627 15.3331 8.7751 15.4888 8.83576C15.6446 8.89643 15.7866 8.98771 15.9064 9.1042C16.0262 9.2207 16.1215 9.36004 16.1865 9.51399C16.2516 9.66794 16.2851 9.83337 16.2851 10.0005C16.2851 10.1676 16.2516 10.3331 16.1865 10.487C16.1215 10.641 16.0262 10.7803 15.9064 10.8968C15.7866 11.0133 15.6446 11.1046 15.4888 11.1652C15.3331 11.2259 15.1668 11.2547 14.9997 11.25C14.6745 11.2408 14.3656 11.1051 14.1388 10.8718C13.912 10.6385 13.7851 10.3259 13.7851 10.0005C13.7851 9.6751 13.912 9.36253 14.1388 9.12921C14.3656 8.89588 14.6745 8.7602 14.9997 8.751Z" fill="#707991"/>
</svg>
