<svg width="17" height="19" viewBox="0 0 17 19" fill="none" xmlns="http://www.w3.org/2000/svg">
<path d="M1.43869 8.7416C1.29186 8.59477 1.20938 8.39563 1.20938 8.18798C1.20938 7.98034 1.29186 7.78119 1.43869 7.63436L6.97369 2.10289C7.47987 1.58371 8.08409 1.17021 8.75131 0.886355C9.41853 0.602503 10.1355 0.453956 10.8605 0.44933C11.5856 0.444705 12.3044 0.584093 12.9752 0.859409C13.646 1.13473 14.2554 1.54049 14.7682 2.05317C15.2809 2.56584 15.6868 3.17523 15.9622 3.84598C16.2376 4.51672 16.3771 5.23548 16.3726 5.96055C16.3681 6.68563 16.2197 7.40259 15.9359 8.06986C15.6522 8.73712 15.2387 9.34141 14.7196 9.84766L7.52672 17.0406C6.78981 17.7591 5.79944 18.1584 4.77021 18.1518C3.74097 18.1452 2.7558 17.7333 2.02816 17.0053C1.30052 16.2774 0.889042 15.292 0.882883 14.2628C0.876723 13.2336 1.27638 12.2433 1.99525 11.5067L8.08093 5.42107C8.52304 4.98951 9.11743 4.74961 9.73524 4.7534C10.353 4.75718 10.9445 5.00434 11.3812 5.44128C11.818 5.87822 12.065 6.46972 12.0685 7.08753C12.0721 7.70534 11.832 8.29965 11.4003 8.7416L6.97369 13.167C6.82702 13.3137 6.62809 13.3961 6.42067 13.3961C6.21324 13.3961 6.01431 13.3137 5.86764 13.167C5.72096 13.0203 5.63856 12.8214 5.63856 12.614C5.63856 12.4066 5.72096 12.2076 5.86764 12.061L10.293 7.63436C10.3657 7.56174 10.4233 7.47552 10.4626 7.38063C10.5019 7.28574 10.5221 7.18404 10.5221 7.08133C10.5221 6.97863 10.5019 6.87692 10.4626 6.78204C10.4233 6.68715 10.3657 6.60093 10.293 6.5283C10.2204 6.45568 10.1342 6.39807 10.0393 6.35877C9.94443 6.31946 9.84273 6.29923 9.74002 6.29923C9.63731 6.29923 9.53561 6.31946 9.44072 6.35877C9.34583 6.39807 9.25961 6.45568 9.18699 6.5283L3.10131 12.614C2.66114 13.0542 2.41385 13.6512 2.41385 14.2737C2.41385 14.5819 2.47456 14.8871 2.59252 15.1719C2.71047 15.4566 2.88336 15.7154 3.10131 15.9333C3.31926 16.1513 3.57801 16.3242 3.86278 16.4421C4.14755 16.5601 4.45276 16.6208 4.76099 16.6208C5.38349 16.6208 5.98049 16.3735 6.42067 15.9333L13.6136 8.74042C13.9912 8.38042 14.293 7.94852 14.5012 7.47016C14.7094 6.99179 14.8199 6.4766 14.8261 5.95492C14.8322 5.43323 14.734 4.91558 14.5371 4.43242C14.3403 3.94926 14.0488 3.51035 13.6798 3.14152C13.3108 2.77268 12.8718 2.48137 12.3885 2.28473C11.9053 2.08808 11.3876 1.99007 10.8659 1.99646C10.3442 2.00286 9.8291 2.11352 9.35082 2.32195C8.87254 2.53038 8.44077 2.83236 8.08093 3.21013L2.54828 8.7416C2.4015 8.88806 2.20261 8.97031 1.99525 8.97031C1.7879 8.97031 1.58901 8.88806 1.44222 8.7416" fill="black" fill-opacity="0.45"/>
</svg>
