<svg width="27" height="27" viewBox="0 0 27 27" fill="none" xmlns="http://www.w3.org/2000/svg">
<path d="M13.547 26.4388C6.34952 26.4388 0.515137 20.6044 0.515137 13.4069C0.515137 6.20938 6.34952 0.375 13.547 0.375C20.7446 0.375 26.5789 6.20938 26.5789 13.4069C26.5789 20.6044 20.7446 26.4388 13.547 26.4388ZM13.547 23.8324C16.3121 23.8324 18.9638 22.734 20.919 20.7789C22.8742 18.8237 23.9726 16.1719 23.9726 13.4069C23.9726 10.6419 22.8742 7.99011 20.919 6.03494C18.9638 4.07978 16.3121 2.98138 13.547 2.98138C10.782 2.98138 8.13025 4.07978 6.17508 6.03494C4.21992 7.99011 3.12152 10.6419 3.12152 13.4069C3.12152 16.1719 4.21992 18.8237 6.17508 20.7789C8.13025 22.734 10.782 23.8324 13.547 23.8324ZM12.2438 6.89095H14.8502V9.49733H12.2438V6.89095ZM12.2438 12.1037H14.8502V19.9228H12.2438V12.1037Z" fill="black" fill-opacity="0.45"/>
</svg>
