<svg width="27" height="19" viewBox="0 0 27 19" fill="none" xmlns="http://www.w3.org/2000/svg">
<path d="M4.37664 18.4301C3.40207 18.4293 2.46762 18.042 1.77836 17.353C1.0891 16.664 0.701346 15.7297 0.700195 14.7551V4.06316C0.700962 3.08834 1.08855 2.15367 1.77785 1.46437C2.46715 0.77507 3.40182 0.387486 4.37664 0.386719L16.4051 0.386719C17.355 0.387822 18.2677 0.75611 18.9523 1.41457C19.6369 2.07303 20.0405 2.97068 20.0786 3.91981L23.5538 2.52829C24.1299 2.29806 24.7738 2.306 25.344 2.55037C25.9142 2.79475 26.364 3.25555 26.5946 3.83148C26.7059 4.1076 26.7629 4.40258 26.7625 4.70028V14.1122C26.7628 14.4946 26.6692 14.8713 26.4901 15.2092C26.3109 15.547 26.0516 15.8358 25.7349 16.0502C25.4182 16.2646 25.0537 16.398 24.6735 16.4388C24.2932 16.4796 23.9088 16.4265 23.5538 16.2842L20.0786 14.8941C20.0405 15.8432 19.6369 16.7409 18.9523 17.3994C18.2677 18.0578 17.355 18.4261 16.4051 18.4272L4.37664 18.4301ZM2.70421 4.06316V14.7551C2.70498 15.1983 2.88147 15.6231 3.19499 15.9363C3.50851 16.2496 3.93345 16.4257 4.37664 16.4261H16.4051C16.8481 16.4257 17.2729 16.2495 17.5862 15.9362C17.8995 15.623 18.0757 15.1982 18.0761 14.7551V4.06316C18.0757 3.61998 17.8996 3.19503 17.5863 2.88151C17.2731 2.568 16.8483 2.3915 16.4051 2.39074H4.37664C3.93332 2.3915 3.50838 2.56795 3.1949 2.88142C2.88143 3.1949 2.70498 3.61984 2.70421 4.06316ZM24.3024 14.4322C24.3531 14.4523 24.4078 14.4596 24.462 14.4537C24.5161 14.4478 24.568 14.4287 24.6131 14.3981C24.6581 14.3676 24.6951 14.3265 24.7207 14.2785C24.7463 14.2304 24.7598 14.1768 24.76 14.1223V4.71041C24.7598 4.65595 24.7463 4.60236 24.7207 4.5543C24.6951 4.50623 24.6581 4.46515 24.6131 4.43461C24.568 4.40407 24.5161 4.385 24.462 4.37907C24.4078 4.37313 24.3531 4.3805 24.3024 4.40054L20.0815 6.07732V12.7381L24.3024 14.4322Z" fill="#FF4F4F"/>
</svg>
