<svg width="36" height="35" viewBox="0 0 36 35" fill="none" xmlns="http://www.w3.org/2000/svg">
<path opacity="0.2" d="M27.7529 20.708L22.7695 25.6914C22.6336 25.8184 22.4691 25.9106 22.2898 25.9601C22.1106 26.0097 21.922 26.015 21.7403 25.9758L13.886 24.0122C13.7425 23.9722 13.6089 23.9031 13.4933 23.8091L6.08594 18.0267L10.5006 9.72559L17.4475 7.69432C17.6944 7.62353 17.9583 7.64273 18.1923 7.74849L22.8778 9.87455H20.0746C19.934 9.87406 19.7946 9.90131 19.6644 9.95476C19.5343 10.0082 19.416 10.0868 19.3163 10.186L14.0079 15.4809C13.8995 15.5921 13.816 15.7252 13.7629 15.8711C13.7098 16.0171 13.6882 16.1727 13.6998 16.3276C13.7113 16.4825 13.7556 16.6332 13.8297 16.7697C13.9038 16.9062 14.0061 17.0254 14.1298 17.1194L14.861 17.6746C15.612 18.2351 16.524 18.5379 17.4611 18.5379C18.3981 18.5379 19.3101 18.2351 20.0611 17.6746L21.7944 16.3746L27.7529 20.708Z" fill="#2DB224"/>
<path d="M33.2642 16.4939L29.9193 18.1595L25.5859 9.87191L28.9714 8.17918C29.223 8.05094 29.5151 8.02737 29.784 8.11362C30.0529 8.19987 30.2768 8.38894 30.4068 8.63961L33.7381 15.0178C33.8057 15.1455 33.847 15.2854 33.8597 15.4293C33.8724 15.5732 33.8562 15.7181 33.812 15.8557C33.7679 15.9932 33.6966 16.1205 33.6025 16.2301C33.5085 16.3397 33.3934 16.4294 33.2642 16.4939V16.4939Z" stroke="#2DB224" stroke-width="2.16669" stroke-linecap="round" stroke-linejoin="round"/>
<path d="M6.08445 18.0251L2.73962 16.3459C2.61083 16.2828 2.49605 16.1944 2.4021 16.0861C2.30815 15.9777 2.23695 15.8515 2.19273 15.7151C2.14852 15.5787 2.13219 15.4347 2.14471 15.2919C2.15724 15.149 2.19837 15.0101 2.26566 14.8834L5.59694 8.50522C5.72726 8.25474 5.95022 8.06503 6.21833 7.9765C6.48645 7.88797 6.77853 7.90762 7.03238 8.03126L10.4178 9.72398L6.08445 18.0251Z" stroke="#2DB224" stroke-width="2.16669" stroke-linecap="round" stroke-linejoin="round"/>
<path d="M29.9195 18.1589L27.7529 20.7047L22.7695 25.6881C22.6336 25.8151 22.4691 25.9073 22.2898 25.9569C22.1106 26.0064 21.922 26.0117 21.7403 25.9725L13.886 24.0089C13.7425 23.9689 13.6089 23.8998 13.4933 23.8058L6.08594 18.0234" stroke="#2DB224" stroke-width="2.16669" stroke-linecap="round" stroke-linejoin="round"/>
<path d="M27.7514 20.7046L21.793 16.3712L20.0597 17.6712C19.3087 18.2317 18.3967 18.5345 17.4596 18.5345C16.5226 18.5345 15.6106 18.2317 14.8596 17.6712L14.1283 17.116C14.0047 17.022 13.9024 16.9028 13.8283 16.7663C13.7541 16.6297 13.7099 16.4791 13.6983 16.3241C13.6868 16.1692 13.7083 16.0136 13.7614 15.8677C13.8146 15.7217 13.8981 15.5887 14.0065 15.4774L19.3149 10.1826C19.4146 10.0833 19.5329 10.0048 19.663 9.95131C19.7931 9.89786 19.9325 9.87061 20.0732 9.8711H25.5847" stroke="#2DB224" stroke-width="2.16669" stroke-linecap="round" stroke-linejoin="round"/>
<path d="M10.5 9.72559L17.447 7.69432C17.6938 7.62353 17.9578 7.64273 18.1918 7.74849L22.8772 9.87455" stroke="#2DB224" stroke-width="2.16669" stroke-linecap="round" stroke-linejoin="round"/>
<path d="M15.8334 28.8316L11.7573 27.8024C11.5912 27.7649 11.4374 27.6856 11.3105 27.5722L8.25 24.918" stroke="#2DB224" stroke-width="2.16669" stroke-linecap="round" stroke-linejoin="round"/>
</svg>
