<svg width="36" height="35" viewBox="0 0 36 35" fill="none" xmlns="http://www.w3.org/2000/svg">
<path opacity="0.2" d="M24.5029 19.5H2.83594V24.9167C2.83594 25.204 2.95008 25.4796 3.15324 25.6828C3.35641 25.8859 3.63196 26.0001 3.91928 26.0001H6.62765C6.62765 25.1381 6.97006 24.3115 7.57956 23.702C8.18906 23.0925 9.01572 22.75 9.87768 22.75C10.7396 22.75 11.5663 23.0925 12.1758 23.702C12.7853 24.3115 13.1277 25.1381 13.1277 26.0001H22.8778C22.8775 25.4292 23.0275 24.8683 23.3127 24.3739C23.598 23.8794 24.0085 23.4688 24.5029 23.1834V19.5Z" fill="#A4A4A4"/>
<path opacity="0.2" d="M29.3751 26.0001C29.3754 25.4294 29.2255 24.8687 28.9404 24.3744C28.6553 23.88 28.2451 23.4694 27.7509 23.1839C27.2568 22.8984 26.6962 22.7481 26.1255 22.748C25.5549 22.7479 24.9942 22.8981 24.5 23.1834V16.25H33.1668V24.9168C33.1668 25.2041 33.0526 25.4796 32.8495 25.6828C32.6463 25.886 32.3707 26.0001 32.0834 26.0001H29.3751Z" fill="#A4A4A4"/>
<path d="M24.5 10.8321H30.2688C30.4847 10.8306 30.6959 10.8946 30.8747 11.0154C31.0536 11.1363 31.1917 11.3084 31.2709 11.5091L33.1668 16.2488" stroke="#A4A4A4" stroke-width="2.16669" stroke-linecap="round" stroke-linejoin="round"/>
<path d="M2.83594 19.5H24.5029" stroke="#A4A4A4" stroke-width="2.16669" stroke-linecap="round" stroke-linejoin="round"/>
<path d="M26.125 29.2501C27.92 29.2501 29.3751 27.795 29.3751 26C29.3751 24.2051 27.92 22.75 26.125 22.75C24.3301 22.75 22.875 24.2051 22.875 26C22.875 27.795 24.3301 29.2501 26.125 29.2501Z" stroke="#A4A4A4" stroke-width="2.16669" stroke-miterlimit="10"/>
<path d="M9.87504 29.2501C11.67 29.2501 13.1251 27.795 13.1251 26C13.1251 24.2051 11.67 22.75 9.87504 22.75C8.08009 22.75 6.625 24.2051 6.625 26C6.625 27.795 8.08009 29.2501 9.87504 29.2501Z" stroke="#A4A4A4" stroke-width="2.16669" stroke-miterlimit="10"/>
<path d="M22.8751 26H13.125" stroke="#A4A4A4" stroke-width="2.16669" stroke-linecap="round" stroke-linejoin="round"/>
<path d="M6.62765 26.0015H3.91928C3.63196 26.0015 3.35641 25.8874 3.15324 25.6842C2.95008 25.481 2.83594 25.2055 2.83594 24.9182V9.75131C2.83594 9.46399 2.95008 9.18844 3.15324 8.98527C3.35641 8.78211 3.63196 8.66797 3.91928 8.66797H24.5029V23.1848" stroke="#A4A4A4" stroke-width="2.16669" stroke-linecap="round" stroke-linejoin="round"/>
<path d="M24.5 16.25H33.1668V24.9168C33.1668 25.2041 33.0526 25.4796 32.8495 25.6828C32.6463 25.886 32.3707 26.0001 32.0834 26.0001H29.3751" stroke="#A4A4A4" stroke-width="2.16669" stroke-linecap="round" stroke-linejoin="round"/>
</svg>
