<svg width="65" height="65" viewBox="0 0 65 65" fill="none" xmlns="http://www.w3.org/2000/svg">
<g id="icons8-book-2 1">
<path id="Vector" d="M17.2327 7.36328C13.7034 7.36328 10.8428 10.2239 10.8428 13.7533V52.0931C10.8428 52.3738 10.8983 52.6517 11.0062 52.9109C11.114 53.17 11.2719 53.4053 11.471 53.6032C12.2225 56.2955 14.3154 58.4831 17.2327 58.4831H51.3126C51.5949 58.4871 51.8751 58.4349 52.137 58.3297C52.3989 58.2244 52.6373 58.0682 52.8383 57.87C53.0393 57.6718 53.199 57.4356 53.3079 57.1752C53.4168 56.9148 53.4729 56.6354 53.4729 56.3531C53.4729 56.0708 53.4168 55.7913 53.3079 55.5309C53.199 55.2705 53.0393 55.0344 52.8383 54.8362C52.6373 54.638 52.3989 54.4818 52.137 54.3765C51.8751 54.2712 51.5949 54.2191 51.3126 54.2231H17.2327C16.0292 54.2231 15.1028 53.2966 15.1028 52.0931C15.1028 50.8896 16.0292 49.9631 17.2327 49.9631H49.1826C51.5363 49.9631 53.4426 48.0568 53.4426 45.7031V11.6233C53.4426 9.26962 51.5363 7.36328 49.1826 7.36328H17.2327ZM25.7527 20.1432H40.6627C41.8384 20.1432 42.7926 21.0975 42.7926 22.2732C42.7926 23.449 41.8384 24.4032 40.6627 24.4032H25.7527C24.577 24.4032 23.6227 23.449 23.6227 22.2732C23.6227 21.0975 24.577 20.1432 25.7527 20.1432Z" fill="#FF3A3A"/>
</g>
</svg>
