<svg width="32" height="32" viewBox="0 0 32 32" fill="none" xmlns="http://www.w3.org/2000/svg">
<g id="icons8-cost 1">
<path id="Vector" d="M5 4C4.448 4 4 4.448 4 5V24.3333C4 26.3547 5.64533 28 7.66667 28H16.0299C15.1673 26.6527 14.6667 25.0513 14.6667 23.3333C14.6667 18.5467 18.5467 14.6667 23.3333 14.6667C25.0513 14.6667 26.6527 15.1673 28 16.0299V5C28 4.448 27.552 4 27 4H5ZM13.6667 8H18.3333C18.8853 8 19.3333 8.448 19.3333 9C19.3333 9.552 18.8853 10 18.3333 10H13.6667C13.1147 10 12.6667 9.552 12.6667 9C12.6667 8.448 13.1147 8 13.6667 8ZM23.3333 16C19.2833 16 16 19.2833 16 23.3333C16 27.3833 19.2833 30.6667 23.3333 30.6667C27.3833 30.6667 30.6667 27.3833 30.6667 23.3333C30.6667 19.2833 27.3833 16 23.3333 16ZM23.3333 18C23.702 18 24 18.2987 24 18.6667V19.3438C25.0293 19.3958 25.6859 19.9834 25.8932 20.3047C26.0932 20.614 26.0046 21.0272 25.6953 21.2266C25.3853 21.4246 24.9721 21.338 24.7734 21.0286C24.7714 21.0286 24.4841 20.6667 23.8581 20.6667H22.8333C22.282 20.6667 21.8333 21.1153 21.8333 21.6667C21.8333 22.218 22.282 22.6667 22.8333 22.6667H24C25.2867 22.6667 26.3333 23.7133 26.3333 25C26.3333 26.2867 25.2867 27.3333 24 27.3333V28C24 28.368 23.702 28.6667 23.3333 28.6667C22.9647 28.6667 22.6667 28.368 22.6667 28V27.3307C21.8373 27.3247 21.0786 27.0214 20.5286 26.4714C20.268 26.2107 20.268 25.7906 20.5286 25.5299C20.7893 25.2693 21.2107 25.2693 21.4714 25.5299C21.686 25.7439 22.0721 26 22.6914 26H24C24.5513 26 25 25.5513 25 25C25 24.4487 24.5513 24 24 24H22.8333C21.5467 24 20.5 22.9533 20.5 21.6667C20.5 20.4373 21.4593 19.4376 22.6667 19.3503V18.6667C22.6667 18.2987 22.9647 18 23.3333 18Z" fill="black"/>
</g>
</svg>
