<svg width="42" height="42" viewBox="0 0 42 42" fill="none" xmlns="http://www.w3.org/2000/svg">
<g id="icons8-search-bar 1" clip-path="url(#clip0_2213_17109)">
<path id="Vector" d="M2.95612 9.83008C1.60696 9.83008 0.495605 10.9414 0.495605 12.2906V30.3344C0.495605 31.6835 1.60696 32.7949 2.95612 32.7949H39.0437C40.3928 32.7949 41.5042 31.6835 41.5042 30.3344V12.2906C41.5042 10.9414 40.3928 9.83008 39.0437 9.83008H2.95612ZM2.95612 11.4704H39.0437C39.5071 11.4704 39.8638 11.8272 39.8638 12.2906V30.3344C39.8638 30.7978 39.5071 31.1545 39.0437 31.1545H2.95612C2.4927 31.1545 2.13595 30.7978 2.13595 30.3344V12.2906C2.13595 11.8272 2.4927 11.4704 2.95612 11.4704ZM28.7915 15.5713C26.3099 15.5713 24.2806 17.6006 24.2806 20.0822C24.2806 22.5638 26.3099 24.5932 28.7915 24.5932C29.7373 24.5932 30.6163 24.296 31.3434 23.7938L34.568 27.0184L35.7277 25.8587L32.5031 22.634C33.0053 21.907 33.3025 21.0279 33.3025 20.0822C33.3025 17.6006 31.2731 15.5713 28.7915 15.5713ZM28.7915 17.2116C30.3866 17.2116 31.6621 18.4871 31.6621 20.0822C31.6621 21.6773 30.3866 22.9528 28.7915 22.9528C27.1964 22.9528 25.9209 21.6773 25.9209 20.0822C25.9209 18.4871 27.1964 17.2116 28.7915 17.2116Z" fill="#FF3A3A"/>
</g>
<defs>
<clipPath id="clip0_2213_17109">
<rect width="41.0086" height="41.0086" fill="white" transform="translate(0.495605 0.808594)"/>
</clipPath>
</defs>
</svg>
