<svg width="37" height="37" viewBox="0 0 37 37" fill="none" xmlns="http://www.w3.org/2000/svg">
<g id="icons8-audit 1">
<path id="Vector" d="M18.1966 0.728516C16.5958 0.728516 15.2851 2.03923 15.2851 3.63996V4.36782H8.73437C7.53737 4.36782 6.55078 5.35442 6.55078 6.55141V33.4823C6.55078 34.6793 7.53737 35.6659 8.73437 35.6659H27.6588C28.8558 35.6659 29.8423 34.6793 29.8423 33.4823V6.55141C29.8423 5.35442 28.8558 4.36782 27.6588 4.36782H21.108V3.63996C21.108 2.03923 19.7973 0.728516 18.1966 0.728516ZM18.1966 2.18424C19.0097 2.18424 19.6523 2.8268 19.6523 3.63996V4.97343C19.6381 5.05304 19.6381 5.13265 19.6523 5.20941V6.55141H16.7408V5.21794C16.7551 5.13833 16.7551 5.05872 16.7408 4.98196V3.63996C16.7408 2.8268 17.3834 2.18424 18.1966 2.18424ZM18.1966 2.9121C17.7957 2.9121 17.4687 3.23907 17.4687 3.63996C17.4687 4.04085 17.7957 4.36782 18.1966 4.36782C18.5975 4.36782 18.9244 4.04085 18.9244 3.63996C18.9244 3.23907 18.5975 2.9121 18.1966 2.9121ZM8.73437 5.82355H15.2851V7.27927C15.2851 7.68016 15.6121 8.00713 16.013 8.00713H20.3801C20.781 8.00713 21.108 7.68016 21.108 7.27927V5.82355H27.6588C28.071 5.82355 28.3866 6.13914 28.3866 6.55141V33.4823C28.3866 33.8945 28.071 34.2101 27.6588 34.2101H8.73437C8.3221 34.2101 8.0065 33.8945 8.0065 33.4823V6.55141C8.0065 6.13914 8.3221 5.82355 8.73437 5.82355ZM24.2327 15.499L16.013 23.7187L12.1604 19.8662L11.1312 20.8954L16.013 25.7772L25.2619 16.5282L24.2327 15.499Z" fill="#FF3A3A"/>
</g>
</svg>
