<svg width="39" height="38" viewBox="0 0 39 38" fill="none" xmlns="http://www.w3.org/2000/svg">
<g id="icons8-management 1">
<path id="Vector" d="M11.3283 2.29297C9.28796 2.29297 7.61802 3.96292 7.61802 6.00327C7.61802 8.04362 9.28796 9.71357 11.3283 9.71357C13.3687 9.71357 15.0386 8.04362 15.0386 6.00327C15.0386 3.96292 13.3687 2.29297 11.3283 2.29297ZM11.3283 3.77709C12.5666 3.77709 13.5545 4.76499 13.5545 6.00327C13.5545 7.24154 12.5666 8.22945 11.3283 8.22945C10.09 8.22945 9.10214 7.24154 9.10214 6.00327C9.10214 4.76499 10.09 3.77709 11.3283 3.77709ZM7.98905 10.4556C5.74389 10.4556 3.90771 12.2918 3.90771 14.537V23.8127C3.90771 25.0334 4.91323 26.0389 6.13389 26.0389C6.39498 26.0389 6.64229 25.984 6.87596 25.8998V33.8305C6.87596 35.2562 8.04753 36.4277 9.47317 36.4277C10.2029 36.4277 10.8635 36.1185 11.337 35.6277C11.807 36.1154 12.4572 36.4277 13.1835 36.4277C14.6091 36.4277 15.7807 35.2562 15.7807 33.8305V14.908H23.9433C25.164 14.908 26.1695 13.9025 26.1695 12.6818C26.1695 11.4611 25.164 10.4556 23.9433 10.4556H7.98905ZM7.98905 11.9397H23.9433C24.3626 11.9397 24.6854 12.2625 24.6854 12.6818C24.6854 13.1011 24.3626 13.4239 23.9433 13.4239H15.0386C14.8418 13.4239 14.6531 13.5021 14.5139 13.6412C14.3748 13.7804 14.2966 13.9691 14.2966 14.1659V33.8305C14.2966 34.4544 13.8074 34.9436 13.1835 34.9436C12.5595 34.9436 12.0704 34.4544 12.0704 33.8305V26.0389C12.0717 25.9396 12.0532 25.8411 12.0157 25.7491C11.9783 25.6571 11.9228 25.5736 11.8526 25.5035C11.7823 25.4333 11.6987 25.378 11.6066 25.3408C11.5146 25.3035 11.416 25.2851 11.3167 25.2867C11.1202 25.2898 10.9329 25.3707 10.7959 25.5117C10.659 25.6527 10.5836 25.8423 10.5863 26.0389V33.8305C10.5863 34.4544 10.0971 34.9436 9.47317 34.9436C8.84923 34.9436 8.36007 34.4544 8.36007 33.8305V16.3921C8.36143 16.2928 8.34286 16.1943 8.30545 16.1023C8.26804 16.0103 8.21255 15.9268 8.14227 15.8567C8.072 15.7865 7.98836 15.7312 7.89632 15.694C7.80428 15.6567 7.7057 15.6384 7.60642 15.6399C7.40987 15.643 7.22256 15.7239 7.08561 15.8649C6.94867 16.006 6.87326 16.1955 6.87596 16.3921V23.8127C6.87596 24.232 6.55318 24.5548 6.13389 24.5548C5.71461 24.5548 5.39183 24.232 5.39183 23.8127V14.537C5.39183 13.0941 6.54617 11.9397 7.98905 11.9397ZM28.3957 13.4239C28.2974 13.4225 28.1997 13.4406 28.1085 13.4773C28.0172 13.514 27.9342 13.5684 27.8642 13.6375C27.7941 13.7065 27.7385 13.7888 27.7006 13.8795C27.6626 13.9702 27.6431 14.0676 27.6431 14.1659C27.6431 14.2643 27.6626 14.3616 27.7006 14.4524C27.7385 14.5431 27.7941 14.6253 27.8642 14.6944C27.9342 14.7634 28.0172 14.8179 28.1085 14.8545C28.1997 14.8912 28.2974 14.9094 28.3957 14.908H34.3322C34.4305 14.9094 34.5281 14.8912 34.6194 14.8545C34.7106 14.8179 34.7937 14.7634 34.8637 14.6944C34.9337 14.6253 34.9894 14.5431 35.0273 14.4524C35.0653 14.3616 35.0848 14.2643 35.0848 14.1659C35.0848 14.0676 35.0653 13.9702 35.0273 13.8795C34.9894 13.7888 34.9337 13.7065 34.8637 13.6375C34.7937 13.5684 34.7106 13.514 34.6194 13.4773C34.5281 13.4406 34.4305 13.4225 34.3322 13.4239H28.3957ZM18.7489 18.6183C18.6506 18.6169 18.553 18.6351 18.4617 18.6717C18.3705 18.7084 18.2874 18.7628 18.2174 18.8319C18.1473 18.9009 18.0917 18.9832 18.0538 19.0739C18.0158 19.1646 17.9963 19.262 17.9963 19.3603C17.9963 19.4587 18.0158 19.5561 18.0538 19.6468C18.0917 19.7375 18.1473 19.8198 18.2174 19.8888C18.2874 19.9579 18.3705 20.0123 18.4617 20.049C18.553 20.0856 18.6506 20.1038 18.7489 20.1024H34.3322C34.4305 20.1038 34.5281 20.0856 34.6194 20.049C34.7106 20.0123 34.7937 19.9579 34.8637 19.8888C34.9337 19.8198 34.9894 19.7375 35.0273 19.6468C35.0653 19.5561 35.0848 19.4587 35.0848 19.3603C35.0848 19.262 35.0653 19.1646 35.0273 19.0739C34.9894 18.9832 34.9337 18.9009 34.8637 18.8319C34.7937 18.7628 34.7106 18.7084 34.6194 18.6717C34.5281 18.6351 34.4305 18.6169 34.3322 18.6183H18.7489ZM18.7489 23.8127C18.6506 23.8113 18.553 23.8295 18.4617 23.8662C18.3705 23.9028 18.2874 23.9573 18.2174 24.0263C18.1473 24.0953 18.0917 24.1776 18.0538 24.2683C18.0158 24.3591 17.9963 24.4564 17.9963 24.5548C17.9963 24.6531 18.0158 24.7505 18.0538 24.8412C18.0917 24.9319 18.1473 25.0142 18.2174 25.0832C18.2874 25.1523 18.3705 25.2067 18.4617 25.2434C18.553 25.2801 18.6506 25.2982 18.7489 25.2968H34.3322C34.4305 25.2982 34.5281 25.2801 34.6194 25.2434C34.7106 25.2067 34.7937 25.1523 34.8637 25.0832C34.9337 25.0142 34.9894 24.9319 35.0273 24.8412C35.0653 24.7505 35.0848 24.6531 35.0848 24.5548C35.0848 24.4564 35.0653 24.3591 35.0273 24.2683C34.9894 24.1776 34.9337 24.0953 34.8637 24.0263C34.7937 23.9573 34.7106 23.9028 34.6194 23.8662C34.5281 23.8295 34.4305 23.8113 34.3322 23.8127H18.7489ZM18.7489 29.0071C18.6506 29.0057 18.553 29.0239 18.4617 29.0606C18.3705 29.0972 18.2874 29.1517 18.2174 29.2207C18.1473 29.2898 18.0917 29.372 18.0538 29.4628C18.0158 29.5535 17.9963 29.6508 17.9963 29.7492C17.9963 29.8475 18.0158 29.9449 18.0538 30.0356C18.0917 30.1263 18.1473 30.2086 18.2174 30.2777C18.2874 30.3467 18.3705 30.4011 18.4617 30.4378C18.553 30.4745 18.6506 30.4926 18.7489 30.4912H34.3322C34.4305 30.4926 34.5281 30.4745 34.6194 30.4378C34.7106 30.4011 34.7937 30.3467 34.8637 30.2777C34.9337 30.2086 34.9894 30.1263 35.0273 30.0356C35.0653 29.9449 35.0848 29.8475 35.0848 29.7492C35.0848 29.6508 35.0653 29.5535 35.0273 29.4628C34.9894 29.372 34.9337 29.2898 34.8637 29.2207C34.7937 29.1517 34.7106 29.0972 34.6194 29.0606C34.5281 29.0239 34.4305 29.0057 34.3322 29.0071H18.7489ZM18.7489 34.2015C18.6506 34.2002 18.553 34.2183 18.4617 34.255C18.3705 34.2917 18.2874 34.3461 18.2174 34.4151C18.1473 34.4842 18.0917 34.5665 18.0538 34.6572C18.0158 34.7479 17.9963 34.8453 17.9963 34.9436C17.9963 35.0419 18.0158 35.1393 18.0538 35.23C18.0917 35.3208 18.1473 35.403 18.2174 35.4721C18.2874 35.5411 18.3705 35.5956 18.4617 35.6322C18.553 35.6689 18.6506 35.6871 18.7489 35.6857H34.3322C34.4305 35.6871 34.5281 35.6689 34.6194 35.6322C34.7106 35.5956 34.7937 35.5411 34.8637 35.4721C34.9337 35.403 34.9894 35.3208 35.0273 35.23C35.0653 35.1393 35.0848 35.0419 35.0848 34.9436C35.0848 34.8453 35.0653 34.7479 35.0273 34.6572C34.9894 34.5665 34.9337 34.4842 34.8637 34.4151C34.7937 34.3461 34.7106 34.2917 34.6194 34.255C34.5281 34.2183 34.4305 34.2002 34.3322 34.2015H18.7489Z" fill="#FF3A3A"/>
</g>
</svg>
