<svg width="32" height="32" viewBox="0 0 32 32" fill="none" xmlns="http://www.w3.org/2000/svg">
<g id="icons8-asset-2 1">
<path id="Vector" d="M15.8877 1.94141C15.7778 1.94141 15.668 1.9707 15.5703 2.02928L6.51428 7.35307V8.80546L8.38896 7.70214V17.5637C8.38896 17.9079 8.66967 18.1886 9.01385 18.1886H22.7615C23.1057 18.1886 23.3864 17.9079 23.3864 17.5637V7.70214L25.2611 8.80546V7.35307L16.205 2.02928C16.1074 1.9707 15.9975 1.94141 15.8877 1.94141ZM15.8877 3.29127L22.1366 6.9674V16.9388H9.63874V6.9674L15.8877 3.29127ZM3.38981 10.6899C2.86988 10.6899 2.42074 10.9316 2.08877 11.2635C1.75679 11.5955 1.51514 12.0447 1.51514 12.5646V20.7321C1.51514 21.8989 1.64695 22.6361 1.92034 23.2073C2.19617 23.7785 2.57208 24.1056 2.91626 24.4839C3.60462 25.3041 7.91052 30.4619 7.91052 30.4619C8.02769 30.6035 8.20344 30.6865 8.38896 30.6865C8.6477 30.6889 8.88448 30.5302 8.97723 30.2886C9.07243 30.0469 9.00653 29.7711 8.81613 29.5978C8.72581 29.4904 4.52976 24.462 3.85604 23.6613C3.85116 23.654 3.84384 23.6491 3.83896 23.6418C3.45084 23.2146 3.20674 22.9974 3.04808 22.6629C2.88697 22.331 2.76492 21.8037 2.76492 20.7321V12.5646C2.76492 12.4596 2.83571 12.2839 2.97241 12.1472C3.1091 12.0105 3.28485 11.9397 3.38981 11.9397C3.49478 11.9397 3.67053 12.0105 3.80722 12.1472C3.94392 12.2839 4.01471 12.4596 4.01471 12.5646V20.0633C4.01471 20.2293 4.08061 20.3879 4.19778 20.5051L4.81047 21.1178C4.84708 21.5914 5.09118 22.0234 5.44757 22.3798C5.64285 22.5751 7.90808 24.811 9.19204 26.1243C9.34826 26.2878 9.57772 26.3562 9.79741 26.3C10.0171 26.2463 10.1904 26.0779 10.249 25.8606C10.3076 25.6409 10.2465 25.4091 10.0854 25.2504C8.7844 23.9201 6.47766 21.6426 6.3312 21.4962C6.09199 21.2569 6.04561 21.1056 6.04561 21.0006C6.04561 20.8957 6.09199 20.7443 6.3312 20.5051C6.57042 20.2659 6.72176 20.2195 6.82672 20.2195C6.93169 20.2195 7.08303 20.2659 7.32224 20.5051C7.61028 20.7931 10.7592 23.9347 11.0667 24.2496C11.0692 24.252 11.074 24.2569 11.0765 24.2593C12.3287 25.4847 12.7632 26.61 12.7632 28.8118V30.0616C12.7608 30.2861 12.8779 30.4961 13.0732 30.6108C13.2685 30.7231 13.5077 30.7231 13.703 30.6108C13.8983 30.4961 14.0154 30.2861 14.013 30.0616V28.8118C14.013 26.4196 13.3979 24.7817 11.9504 23.3659C11.5696 22.9778 8.4866 19.9022 8.20588 19.6215C7.82021 19.2358 7.34665 18.9697 6.82672 18.9697C6.30679 18.9697 5.83324 19.2358 5.44757 19.6215C5.38654 19.6825 5.33284 19.7508 5.27914 19.8192L5.26449 19.8045V12.5646C5.26449 12.0447 5.02283 11.5955 4.69086 11.2635C4.35889 10.9316 3.90974 10.6899 3.38981 10.6899ZM28.3855 10.6899C27.8656 10.6899 27.4164 10.9316 27.0845 11.2635C26.7525 11.5955 26.5108 12.0447 26.5108 12.5646V19.8045L26.4986 19.8192C26.4425 19.7508 26.3888 19.6825 26.3278 19.6215C25.9421 19.2358 25.4685 18.9697 24.9486 18.9697C24.4287 18.9697 23.9551 19.2358 23.5695 19.6215C23.2887 19.9022 20.2058 22.9778 19.825 23.3659C18.3775 24.7817 17.7623 26.4196 17.7623 28.8118V30.0616C17.7599 30.2861 17.8771 30.4961 18.0724 30.6108C18.2676 30.7231 18.5068 30.7231 18.7021 30.6108C18.8974 30.4961 19.0146 30.2861 19.0121 30.0616V28.8118C19.0121 26.61 19.4466 25.4847 20.6989 24.2593C20.7013 24.2569 20.7062 24.252 20.7086 24.2496C21.0162 23.9347 24.1651 20.7931 24.4531 20.5051C24.6923 20.2659 24.8436 20.2195 24.9486 20.2195C25.0536 20.2195 25.2049 20.2659 25.4441 20.5051C25.6833 20.7443 25.7297 20.8957 25.7297 21.0006C25.7297 21.1056 25.6833 21.2569 25.4441 21.4962C25.2977 21.6426 22.9909 23.9201 21.6899 25.2504C21.5288 25.4091 21.4678 25.6409 21.5263 25.8606C21.5849 26.0779 21.7582 26.2463 21.9779 26.3C22.1976 26.3562 22.4271 26.2878 22.5833 26.1243C23.8673 24.811 26.1325 22.5751 26.3278 22.3798C26.6842 22.0234 26.9283 21.5914 26.9649 21.1178L27.5776 20.5051C27.6947 20.3879 27.7606 20.2293 27.7606 20.0633V12.5646C27.7606 12.4596 27.8314 12.2839 27.9681 12.1472C28.1048 12.0105 28.2806 11.9397 28.3855 11.9397C28.4905 11.9397 28.6662 12.0105 28.8029 12.1472C28.9396 12.2839 29.0104 12.4596 29.0104 12.5646V20.7321C29.0104 21.8037 28.8884 22.331 28.7273 22.6629C28.5686 22.9974 28.3245 23.2146 27.9364 23.6418C27.9315 23.6491 27.9242 23.654 27.9193 23.6613C27.2383 24.4717 22.9079 29.6613 22.9079 29.6613C22.7517 29.8468 22.7176 30.1055 22.8201 30.3252C22.9226 30.5449 23.1447 30.6865 23.3864 30.6865C23.6061 30.6889 23.8111 30.5766 23.9258 30.3911C24.0259 30.2691 28.178 25.2943 28.8615 24.4839C29.2033 24.1056 29.5792 23.7785 29.8526 23.2073C30.1284 22.6361 30.2602 21.8989 30.2602 20.7321V12.5646C30.2602 12.0447 30.0185 11.5955 29.6866 11.2635C29.3546 10.9316 28.9055 10.6899 28.3855 10.6899Z" fill="#FF3A3A"/>
</g>
</svg>
