<svg width="26" height="26" viewBox="0 0 26 26" fill="none" xmlns="http://www.w3.org/2000/svg">
<g id="icons8-purchase-order 1">
<path id="Vector" d="M6.771 2.70898C5.43443 2.70898 4.3335 3.80992 4.3335 5.14648V17.8757H3.521C3.30551 17.8757 3.09886 17.9613 2.9465 18.1137C2.79413 18.266 2.70852 18.4727 2.7085 18.6882V19.7715C2.7085 21.7063 4.29453 23.2923 6.22933 23.2923H18.146C20.0808 23.2923 21.6668 21.7063 21.6668 19.7715V5.14648C21.6668 3.80992 20.5659 2.70898 19.2293 2.70898H6.771ZM8.93766 7.04232C9.38616 7.04232 9.75016 7.40632 9.75016 7.85482C9.75016 8.30332 9.38616 8.66732 8.93766 8.66732C8.48916 8.66732 8.12516 8.30332 8.12516 7.85482C8.12516 7.40632 8.48916 7.04232 8.93766 7.04232ZM11.646 7.04232H17.0627C17.5117 7.04232 17.8752 7.40578 17.8752 7.85482C17.8752 8.30386 17.5117 8.66732 17.0627 8.66732H11.646C11.197 8.66732 10.8335 8.30386 10.8335 7.85482C10.8335 7.40578 11.197 7.04232 11.646 7.04232ZM8.93766 10.2923C9.38616 10.2923 9.75016 10.6563 9.75016 11.1048C9.75016 11.5533 9.38616 11.9173 8.93766 11.9173C8.48916 11.9173 8.12516 11.5533 8.12516 11.1048C8.12516 10.6563 8.48916 10.2923 8.93766 10.2923ZM11.646 10.2923H17.0627C17.5117 10.2923 17.8752 10.6558 17.8752 11.1048C17.8752 11.5539 17.5117 11.9173 17.0627 11.9173H11.646C11.197 11.9173 10.8335 11.5539 10.8335 11.1048C10.8335 10.6558 11.197 10.2923 11.646 10.2923ZM8.93766 13.5423C9.38616 13.5423 9.75016 13.9063 9.75016 14.3548C9.75016 14.8033 9.38616 15.1673 8.93766 15.1673C8.48916 15.1673 8.12516 14.8033 8.12516 14.3548C8.12516 13.9063 8.48916 13.5423 8.93766 13.5423ZM11.646 13.5423H17.0627C17.5117 13.5423 17.8752 13.9058 17.8752 14.3548C17.8752 14.8039 17.5117 15.1673 17.0627 15.1673H11.646C11.197 15.1673 10.8335 14.8039 10.8335 14.3548C10.8335 13.9058 11.197 13.5423 11.646 13.5423ZM4.3335 19.5007H14.6252V19.7715C14.6252 20.4838 14.8928 21.1113 15.261 21.6673H6.22933C5.17305 21.6673 4.3335 20.8278 4.3335 19.7715V19.5007Z" fill="black"/>
</g>
</svg>
