<svg width="28" height="28" viewBox="0 0 28 28" fill="none" xmlns="http://www.w3.org/2000/svg">
<g id="icons8-receipt-approved 1">
<path id="Vector" d="M11.0832 2.91475C10.9723 2.91475 10.8612 2.93594 10.7562 2.97969L8.18359 4.00622L5.89697 2.99222C5.62864 2.86972 5.31382 2.89852 5.06299 3.05602C4.81799 3.21936 4.6665 3.49339 4.6665 3.79089V21.8742C4.6665 23.6417 6.10734 25.0826 7.87484 25.0826H14.443C13.4339 23.7992 12.8332 22.1776 12.8332 20.4159H8.45817C7.974 20.4159 7.58317 20.0251 7.58317 19.5409C7.58317 19.0567 7.974 18.6659 8.45817 18.6659H13.0428C13.1886 18.0476 13.4052 17.4642 13.6911 16.9159H8.45817C7.974 16.9159 7.58317 16.5251 7.58317 16.0409C7.58317 15.5567 7.974 15.1659 8.45817 15.1659H14.8748C14.8982 15.1659 14.921 15.1716 14.9443 15.1716C16.3268 13.7307 18.264 12.8326 20.4165 12.8326C21.449 12.8326 22.4348 13.0426 23.3332 13.4159V3.79089C23.3332 3.49339 23.1817 3.21936 22.9367 3.05602C22.6859 2.89269 22.371 2.86972 22.1027 2.99222L19.8161 4.00622L17.2435 2.97969C17.0335 2.89219 16.7995 2.89219 16.5895 2.97969L13.9998 4.01305L11.4102 2.97969C11.3052 2.93594 11.194 2.91475 11.0832 2.91475ZM8.45817 8.74922H19.5415C20.0257 8.74922 20.4165 9.14005 20.4165 9.62422C20.4165 10.1084 20.0257 10.4992 19.5415 10.4992H8.45817C7.974 10.4992 7.58317 10.1084 7.58317 9.62422C7.58317 9.14005 7.974 8.74922 8.45817 8.74922ZM20.4165 13.9992C16.8728 13.9992 13.9998 16.8721 13.9998 20.4159C13.9998 23.9596 16.8728 26.8326 20.4165 26.8326C23.9603 26.8326 26.8332 23.9596 26.8332 20.4159C26.8332 16.8721 23.9603 13.9992 20.4165 13.9992ZM23.9165 17.4992C24.0657 17.4992 24.2149 17.5561 24.3289 17.6701C24.557 17.8982 24.557 18.2669 24.3289 18.495L19.6623 23.1617C19.5485 23.2754 19.3992 23.3326 19.2498 23.3326C19.1005 23.3326 18.9512 23.2754 18.8374 23.1617L16.5041 20.8283C16.276 20.6002 16.276 20.2315 16.5041 20.0035C16.7322 19.7754 17.1009 19.7754 17.3289 20.0035L19.2498 21.9243L23.5041 17.6701C23.6181 17.5561 23.7673 17.4992 23.9165 17.4992Z" fill="black"/>
</g>
</svg>
