<svg width="36" height="37" viewBox="0 0 36 37" fill="none" xmlns="http://www.w3.org/2000/svg">
<g id="icons8-success 1">
<path id="Vector" d="M18.0418 2.24805C9.07664 2.24805 1.79346 9.53123 1.79346 18.4964C1.79346 27.4616 9.07664 34.7448 18.0418 34.7448C27.007 34.7448 34.2902 27.4616 34.2902 18.4964C34.2902 9.53123 27.007 2.24805 18.0418 2.24805ZM18.0418 3.66095C26.2434 3.66095 32.8773 10.2949 32.8773 18.4964C32.8773 26.698 26.2434 33.3319 18.0418 33.3319C9.84027 33.3319 3.20636 26.698 3.20636 18.4964C3.20636 10.2949 9.84027 3.66095 18.0418 3.66095ZM25.0981 11.4236C24.9833 11.4259 24.8708 11.4561 24.7703 11.5116C24.6698 11.5672 24.5843 11.6464 24.5213 11.7424L17.3147 22.3654L12.1639 17.5858C12.0963 17.5207 12.0163 17.4697 11.9287 17.4359C11.8412 17.402 11.7477 17.386 11.6538 17.3886C11.56 17.3913 11.4676 17.4127 11.3821 17.4515C11.2966 17.4903 11.2197 17.5458 11.1559 17.6146C11.092 17.6835 11.0426 17.7644 11.0104 17.8526C10.9782 17.9408 10.9639 18.0345 10.9683 18.1283C10.9728 18.2221 10.9959 18.3141 11.0363 18.3989C11.0767 18.4836 11.1336 18.5595 11.2036 18.622L17.5589 24.5192L25.6914 12.5344C25.766 12.4275 25.8096 12.302 25.8173 12.1719C25.825 12.0418 25.7966 11.9121 25.7352 11.7971C25.6738 11.6822 25.5818 11.5864 25.4693 11.5205C25.3569 11.4546 25.2284 11.4211 25.0981 11.4236Z" fill="#05BE63"/>
</g>
</svg>
