<svg width="39" height="42" viewBox="0 0 39 42" fill="none" xmlns="http://www.w3.org/2000/svg">
<g id="Layer_1" clip-path="url(#clip0_1946_22802)">
<g id="2">
<path id="Vector" d="M28.3919 22.8421C28.4905 28.4425 24.0065 33.0591 18.3761 33.1572C12.7484 33.2526 8.1044 28.7952 8.00843 23.1948C7.90979 17.5971 12.3938 12.9778 18.0242 12.8824C23.6546 12.7869 28.2959 17.247 28.3946 22.8448L28.3919 22.8421Z" stroke="#B3B3B3" stroke-width="0.600723" stroke-miterlimit="10"/>
<path id="Vector_2" d="M33.0173 22.714C33.1586 30.8255 26.6645 37.5131 18.5095 37.6563C10.3545 37.7968 3.6311 31.3346 3.48981 23.2231C3.34852 15.1116 9.84531 8.42404 17.9976 8.2835C26.1526 8.14296 32.8787 14.6051 33.0173 22.714Z" stroke="#B3B3B3" stroke-width="0.600723" stroke-miterlimit="10"/>
<path id="Vector_3" d="M35.6617 23.0175C35.6617 23.3782 35.4458 23.6725 35.1792 23.6725H1.37828C1.11169 23.6725 0.895752 23.3808 0.895752 23.0175C0.895752 22.6569 1.11169 22.3652 1.37828 22.3652H35.1792C35.4458 22.3652 35.6617 22.6569 35.6617 23.0175Z" fill="#F7F6FF" stroke="#0C79EC" stroke-width="0.600723" stroke-miterlimit="10"/>
<path id="Vector_4" d="M18.2002 6.37891C18.5628 6.37891 18.856 6.59369 18.856 6.85886V40.4796C18.856 40.7448 18.5628 40.9596 18.2002 40.9596C17.8377 40.9596 17.5417 40.7448 17.5417 40.4796V6.85886C17.5417 6.59369 17.8377 6.37891 18.2002 6.37891Z" fill="#F7F6FF" stroke="#0C79EC" stroke-width="0.600723" stroke-miterlimit="10"/>
<path id="Vector_5" d="M23.9505 22.9181C24.0065 26.0789 21.4739 28.6855 18.2962 28.7386C15.1184 28.7943 12.5005 26.2751 12.4445 23.1143C12.3885 19.9535 14.9211 17.3496 18.0962 17.2939C21.274 17.2382 23.8945 19.7573 23.9479 22.9181H23.9505Z" fill="#0C79EC"/>
<path id="Vector_6" d="M32.0228 0.578125L27.2295 6.40919L29.6315 9.89086L34.3314 4.17382L32.0228 0.578125Z" fill="#A6F01F"/>
<path id="Vector_7" d="M38.4664 5.81923L33.6731 11.6529L29.7649 10.0009L34.4649 4.28125L38.4664 5.81923Z" fill="#A6F01F"/>
<path id="Vector_8" d="M19.2931 23.2932C19.1011 23.5266 18.7572 23.561 18.5226 23.3701C18.288 23.1792 18.2534 22.8371 18.4453 22.6038L33.6969 4.04989C33.8889 3.81654 34.2328 3.78207 34.4674 3.97299C34.702 4.16392 34.7366 4.50598 34.5447 4.73933L19.2931 23.2932Z" fill="#F7F6FF" stroke="#B3B3B3" stroke-width="0.600723" stroke-miterlimit="10"/>
</g>
</g>
<defs>
<clipPath id="clip0_1946_22802">
<rect width="37.9704" height="40.783" fill="white" transform="translate(0.49585 0.578125)"/>
</clipPath>
</defs>
</svg>
