<svg width="163" height="119" viewBox="0 0 163 119" fill="none" xmlns="http://www.w3.org/2000/svg">
<g clip-path="url(#clip0_477_9186)">
<path d="M54.7754 118.655C54.8691 110.748 58.0757 103.197 63.6999 97.6396C69.324 92.0817 76.9124 88.9648 84.8194 88.9648C92.7264 88.9648 100.315 92.0817 105.939 97.6396C111.563 103.197 114.77 110.748 114.863 118.655H54.7754Z" fill="#FF9595"/>
<path d="M50.794 64.5996L50.3335 116.057" stroke="black" stroke-width="0.245033" stroke-miterlimit="10"/>
<path d="M50.5253 57.8984C50.5253 57.8984 55.3098 60.2432 54.9929 60.3361C54.543 60.5009 52.9144 59.8207 52.9144 59.8207C52.9144 59.8207 52.2004 60.5051 51.8307 60.4164C51.3664 60.3092 50.9173 60.1446 50.4937 59.9263" stroke="black" stroke-width="0.329527" stroke-miterlimit="10"/>
<path d="M49.0469 59.3906C49.0469 59.3906 53.3645 61.3445 53.0477 61.4396C52.5977 61.6022 50.9713 60.9221 50.9713 60.9221C50.9713 60.9221 50.2551 61.6065 49.8855 61.5178C49.4211 61.4118 48.9718 61.2478 48.5483 61.0298" stroke="black" stroke-width="0.329527" stroke-miterlimit="10"/>
<path d="M62.2108 61.3887H49.2642V62.1301H62.2108V61.3887Z" fill="black"/>
<path d="M61.3936 61.4088L65.7534 51.5547L66.2646 51.7237L62.1139 61.3877L61.3936 61.4088Z" stroke="black" stroke-width="0.211235" stroke-miterlimit="10"/>
<path d="M11.8484 75.1192L8.65662 53.362C8.60791 52.8012 8.70693 52.2375 8.94387 51.727C9.01068 51.5782 9.09814 51.4395 9.20369 51.3151C9.50476 50.9766 9.87602 50.7077 10.2916 50.5272L16.8082 47.7051" stroke="black" stroke-width="0.245033" stroke-miterlimit="10"/>
<path d="M18.0525 38.528C18.8974 38.4667 19.3198 36.0565 20.5049 35.5517C21.6899 35.0468 23.6523 37.9006 25.1119 37.8752C26.5716 37.8499 26.9222 34.8969 26.9222 34.8969C17.8602 30.3278 16.1788 34.6582 16.0267 35.1546C15.8746 35.651 14.9515 38.4879 17.0829 40.1313C17.0829 40.1271 17.2054 38.5871 18.0525 38.528Z" fill="black"/>
<path d="M16.3053 38.957C15.4054 41.6207 17.3171 42.2481 17.3171 42.2481L17.4206 46.5361C17.4265 46.7984 17.3528 47.0563 17.2091 47.2758C17.0654 47.4953 16.8585 47.666 16.6158 47.7655" stroke="black" stroke-width="0.245033" stroke-miterlimit="10"/>
<path d="M18.6968 44.7284L22.349 46.2345L24.0833 44.2426L24.5057 43.2244L24.6093 42.088C24.6093 42.088 24.962 39.682 25.1077 37.8633" stroke="black" stroke-width="0.245033" stroke-miterlimit="10"/>
<path d="M23.1283 45.2988C23.1135 45.9093 23.2888 46.1923 23.6923 46.6486C24.0957 47.1049 24.6724 47.5358 25.2808 47.5949" stroke="black" stroke-width="0.245033" stroke-miterlimit="10"/>
<path d="M16.8164 47.6951C21.2291 51.8289 24.8624 48.1175 25.3588 47.543" stroke="black" stroke-width="0.245033" stroke-miterlimit="10"/>
<path d="M25.1306 39.2226C25.8277 39.3049 26.3621 39.6028 26.2797 40.3019C26.24 40.6358 26.0692 40.9403 25.805 41.1483C25.5408 41.3563 25.2047 41.4507 24.8708 41.4109C24.5369 41.3712 24.2325 41.2004 24.0245 40.9362C23.8166 40.6719 23.7221 40.3359 23.7618 40.002C23.8442 39.3049 24.4378 39.1402 25.1306 39.2226Z" fill="white" stroke="black" stroke-width="0.183775" stroke-miterlimit="10"/>
<path d="M21.6601 38.8103C22.3551 38.8927 22.8916 39.1926 22.8092 39.8897C22.7546 40.21 22.579 40.4971 22.3188 40.6917C22.0585 40.8863 21.7335 40.9735 21.4108 40.9353C21.0877 40.8975 20.7915 40.737 20.5835 40.4869C20.3755 40.2369 20.2716 39.9164 20.2934 39.5919C20.3757 38.8948 20.963 38.7279 21.6601 38.8103Z" stroke="black" stroke-width="0.183775" stroke-miterlimit="10"/>
<path d="M20.2868 39.5912L16.6155 39.2934L16.5142 38.9766L20.4621 39.0906" stroke="black" stroke-width="0.122516" stroke-miterlimit="10"/>
<path d="M22.6128 39.2059C23.745 39.0285 24.1125 39.3834 24.1125 39.3834" stroke="black" stroke-width="0.122516" stroke-miterlimit="10"/>
<path d="M25.2091 47.5921C20.8471 51.7535 17.1821 47.8625 17.1821 47.8625C20.319 49.8038 23.5657 47.8625 23.9058 46.9141L25.2091 47.5921Z" fill="black"/>
<path d="M25.8111 49.0615C25.2021 49.6543 24.4907 50.1317 23.7114 50.4705C22.9236 50.794 22.068 50.9173 21.2209 50.8295C20.3837 50.7273 19.5728 50.4701 18.8297 50.0712L18.2784 49.767L17.7567 49.4185C17.5811 49.3046 17.4118 49.1812 17.2497 49.0488L16.7554 48.6602L17.2581 49.0383C17.4226 49.1672 17.5939 49.2871 17.7714 49.3974L18.2995 49.7332L18.853 50.0247C19.595 50.4046 20.4019 50.6418 21.2315 50.7239C22.0576 50.7928 22.8879 50.6557 23.648 50.3247C24.4001 49.9781 25.0835 49.4986 25.6653 48.9094L25.8111 49.0615Z" fill="#231F20"/>
<path d="M84.8194 62.6085L45.35 62.1016L45.3184 64.5476L84.7876 65.0525" stroke="black" stroke-width="0.245033" stroke-miterlimit="10"/>
<path d="M11.7085 75.1035C15.1157 74.2691 44.1479 67.7102 44.1479 67.7102C45.297 67.4863 71.0022 97.2832 71.0022 97.2832L68.4674 97.4374L41.2561 78.1031C30.7493 85.5428 15.1833 87.9593 11.7085 75.1035Z" fill="black"/>
<path d="M23.3436 115.845C28.1704 115.906 32.3275 116.796 34.0638 118.006L12.5728 117.729C14.3408 116.565 18.5148 115.784 23.3436 115.845Z" stroke="black" stroke-width="0.329527" stroke-miterlimit="10"/>
<path d="M23.3435 115.845L22.4985 86.3945" stroke="black" stroke-width="0.329527" stroke-miterlimit="10"/>
<path d="M47.6931 117.735L47.2495 116.018L50.7877 116.062C52.0699 116.079 53.3331 116.484 54.5055 117.063C54.5692 117.093 54.6209 117.144 54.6519 117.207C54.683 117.271 54.6916 117.342 54.6764 117.411C54.6611 117.48 54.6229 117.542 54.5681 117.586C54.5132 117.63 54.4449 117.654 54.3745 117.655L47.6931 117.735Z" stroke="black" stroke-width="0.211235" stroke-miterlimit="10"/>
<path d="M68.7722 99.0064L68.3286 97.2891L71.8668 97.3334C73.149 97.3503 74.4016 97.7559 75.5825 98.3368C75.645 98.3674 75.6955 98.4183 75.7257 98.4811C75.7559 98.5439 75.7641 98.615 75.749 98.683C75.7339 98.7511 75.6963 98.8121 75.6423 98.8562C75.5884 98.9002 75.5211 98.9249 75.4515 98.9261L68.7722 99.0064Z" stroke="black" stroke-width="0.211235" stroke-miterlimit="10"/>
<path d="M36.1505 78.2778L47.2362 115.99L50.3434 116.201L44.1923 67.752L11.7085 75.1051L36.1505 78.2778Z" fill="black"/>
<path d="M10.57 86.1334L32.7711 86.4163C33.5224 86.4258 34.1391 85.8251 34.1487 85.0744C34.1582 84.3237 33.557 83.7074 32.8058 83.6979L10.6046 83.415C9.85334 83.4054 9.2366 84.0062 9.22704 84.7569C9.21747 85.5075 9.81871 86.1238 10.57 86.1334Z" stroke="black" stroke-width="0.211235" stroke-miterlimit="10"/>
<path d="M25.209 47.5918L28.3163 48.2382C28.9459 48.3685 29.5197 48.6904 29.9592 49.1597C30.3987 49.629 30.6822 50.2228 30.7708 50.8597L32.0953 60.8574" stroke="black" stroke-width="0.245033" stroke-miterlimit="10"/>
<path d="M15.845 54.291L20.1373 62.5672L46.4256 58.9572L46.7656 61.5638L17.4842 68.3698C16.9074 68.504 16.302 68.4386 15.7672 68.1842C15.2323 67.9298 14.7995 67.5015 14.5396 66.9693L8.9292 55.4654" stroke="black" stroke-width="0.245033" stroke-miterlimit="10"/>
<path d="M31.6113 57.7344L50.4662 57.8611L50.6141 60.0854" stroke="black" stroke-width="0.245033" stroke-miterlimit="10"/>
<path d="M0 117.984H154.878" stroke="black" stroke-width="0.329527" stroke-miterlimit="10"/>
<path d="M46.457 59.0005C46.531 58.9857 49.032 59.2984 49.032 59.2984L48.6095 61.134L46.7274 61.4339" stroke="black" stroke-width="0.245033" stroke-miterlimit="10"/>
<path d="M32.3716 64.8027L32.925 70.411" stroke="black" stroke-width="0.245033" stroke-miterlimit="10"/>
<path d="M9.56494 56.9062L14.2121 68.9847C14.44 69.5748 14.8855 70.0552 15.4568 70.3267C16.0282 70.5982 16.6819 70.6404 17.2834 70.4443L32.4037 65.0452L32.2326 64.9353L17.2687 68.4502C16.7712 68.5673 16.2487 68.5129 15.7859 68.2959C15.3232 68.0789 14.9472 67.712 14.7191 67.2547L9.56494 56.9062Z" fill="black"/>
<path d="M33.2906 60.7661L32.1985 57.832L31.6831 57.8447L32.0549 60.9773L33.2906 60.7661Z" fill="black"/>
<path d="M102.999 104.006H117.223L115.808 118.026H104.089L102.999 104.006Z" stroke="black" stroke-width="0.211235" stroke-miterlimit="10"/>
<path d="M95.5718 117.798C95.8612 117.798 104.049 114.984 104.049 114.984L104.26 117.942L95.5718 117.798Z" fill="black"/>
<path d="M103.803 86.7422L109.766 91.7865C109.766 91.7865 109.676 101.562 109.686 102.219" stroke="black" stroke-width="0.211235" stroke-miterlimit="10"/>
<path d="M108.262 90.5145L109.861 79.8451L118.919 74.4902" stroke="black" stroke-width="0.211235" stroke-miterlimit="10" stroke-linecap="round"/>
<path d="M113.59 77.638L106.067 63.2656L98.3447 59.043" stroke="black" stroke-width="0.211235" stroke-miterlimit="10" stroke-linecap="round"/>
<path d="M106.746 86.8206C106.535 87.0783 105.981 86.9706 105.981 86.9706C105.981 86.9706 105.749 86.4488 105.952 86.1932C105.989 86.1297 106.039 86.0749 106.1 86.0327C106.16 85.9904 106.228 85.9615 106.301 85.9481C106.373 85.9346 106.448 85.9369 106.519 85.9548C106.59 85.9726 106.657 86.0056 106.715 86.0515C106.772 86.0974 106.819 86.1552 106.852 86.2208C106.886 86.2865 106.905 86.3585 106.907 86.4321C106.91 86.5056 106.898 86.5789 106.87 86.6471C106.842 86.7152 106.8 86.7765 106.746 86.8269V86.8206Z" fill="black"/>
<path d="M105.939 87.9722C105.728 87.7208 105.949 87.1948 105.949 87.1948C105.949 87.1948 106.509 87.0744 106.718 87.3258C106.775 87.3746 106.82 87.4351 106.85 87.503C106.881 87.571 106.897 87.6448 106.896 87.7194C106.895 87.7939 106.878 87.8674 106.846 87.9347C106.814 88.002 106.768 88.0616 106.71 88.1092C106.653 88.1568 106.586 88.1913 106.514 88.2103C106.442 88.2294 106.366 88.2325 106.293 88.2194C106.219 88.2064 106.15 88.1775 106.089 88.1348C106.027 88.0921 105.976 88.0367 105.939 87.9722Z" fill="black"/>
<path d="M105.066 87.2835C105.364 87.4166 105.814 87.0723 105.814 87.0723C105.814 87.0723 105.78 86.5019 105.482 86.3667C105.421 86.3263 105.351 86.2998 105.278 86.2889C105.205 86.2779 105.13 86.2829 105.059 86.3034C104.988 86.3239 104.922 86.3595 104.867 86.4078C104.811 86.456 104.766 86.5158 104.735 86.5829C104.704 86.6501 104.688 86.7231 104.688 86.7969C104.689 86.8708 104.705 86.9438 104.735 87.0109C104.766 87.078 104.811 87.1376 104.867 87.1858C104.923 87.2339 104.989 87.2694 105.06 87.2899L105.066 87.2835Z" fill="black"/>
<path d="M102.87 85.122C103.115 85.3332 102.977 85.8929 102.977 85.8929C102.977 85.8929 102.443 86.1042 102.198 85.8781C102.136 85.8379 102.084 85.7849 102.045 85.7228C102.006 85.6606 101.981 85.5908 101.971 85.518C101.962 85.4452 101.968 85.3712 101.989 85.301C102.011 85.2308 102.047 85.166 102.096 85.1111C102.145 85.0562 102.205 85.0125 102.272 84.9829C102.339 84.9533 102.412 84.9385 102.485 84.9395C102.559 84.9405 102.631 84.9573 102.697 84.9888C102.764 85.0203 102.822 85.0657 102.87 85.122Z" fill="black"/>
<path d="M103.968 85.9929C103.704 86.1873 103.191 85.938 103.191 85.938C103.191 85.938 103.104 85.3719 103.366 85.1776C103.418 85.1245 103.481 85.0833 103.551 85.0569C103.62 85.0305 103.694 85.0195 103.769 85.0247C103.843 85.0298 103.915 85.0511 103.98 85.0868C104.045 85.1226 104.102 85.1721 104.146 85.2319C104.19 85.2917 104.221 85.3603 104.236 85.4331C104.251 85.5059 104.25 85.5811 104.233 85.6534C104.216 85.7258 104.184 85.7936 104.138 85.8522C104.092 85.9109 104.034 85.9589 103.968 85.9929Z" fill="black"/>
<path d="M103.235 86.8247C103.387 86.5353 103.059 86.0664 103.059 86.0664C103.059 86.0664 102.489 86.0664 102.337 86.3558C102.292 86.4153 102.261 86.4839 102.245 86.5567C102.23 86.6295 102.23 86.7049 102.246 86.7776C102.263 86.8502 102.295 86.9184 102.34 86.9775C102.386 87.0365 102.444 87.0849 102.51 87.1194C102.576 87.1539 102.648 87.1736 102.723 87.1772C102.797 87.1807 102.871 87.1681 102.94 87.14C103.009 87.112 103.072 87.0692 103.122 87.0148C103.173 86.9604 103.212 86.8955 103.235 86.8247Z" fill="black"/>
<path d="M104.933 90.2774C105.121 90.0112 105.687 90.083 105.687 90.083C105.687 90.083 105.949 90.59 105.761 90.8583C105.728 90.9239 105.682 90.9816 105.624 91.0275C105.567 91.0735 105.501 91.1065 105.429 91.1245C105.358 91.1424 105.284 91.1448 105.212 91.1314C105.14 91.1181 105.071 91.0894 105.011 91.0472C104.951 91.0051 104.901 90.9504 104.864 90.8871C104.826 90.8237 104.803 90.7531 104.796 90.6801C104.789 90.607 104.797 90.5332 104.821 90.4637C104.844 90.3943 104.883 90.3307 104.933 90.2774Z" fill="black"/>
<path d="M105.67 89.0827C105.894 89.3214 105.704 89.8601 105.704 89.8601C105.704 89.8601 105.155 90.0122 104.931 89.7735C104.874 89.7277 104.827 89.67 104.794 89.6045C104.761 89.5391 104.742 89.4672 104.74 89.3939C104.737 89.3207 104.75 89.2476 104.778 89.1798C104.806 89.112 104.848 89.051 104.901 89.001C104.955 88.9509 105.019 88.9129 105.088 88.8897C105.158 88.8664 105.232 88.8584 105.305 88.8662C105.377 88.8739 105.448 88.8973 105.511 88.9346C105.574 88.972 105.628 89.0225 105.67 89.0827Z" fill="black"/>
<path d="M106.583 89.7215C106.276 89.6053 105.85 89.9813 105.85 89.9813C105.85 89.9813 105.915 90.5495 106.221 90.6657C106.285 90.702 106.357 90.7239 106.43 90.7302C106.503 90.7364 106.577 90.7268 106.646 90.7019C106.715 90.677 106.778 90.6374 106.831 90.5859C106.884 90.5344 106.924 90.4722 106.951 90.4035C106.977 90.3348 106.988 90.2612 106.983 90.1878C106.979 90.1143 106.958 90.0428 106.923 89.9781C106.888 89.9133 106.84 89.8569 106.781 89.8126C106.722 89.7683 106.654 89.7372 106.583 89.7215Z" fill="black"/>
<path d="M111.15 87.8065C110.825 87.7685 110.62 87.2362 110.62 87.2362C110.62 87.2362 110.941 86.763 111.266 86.801C111.341 86.7971 111.415 86.8094 111.484 86.8373C111.554 86.8651 111.616 86.9076 111.667 86.9621C111.718 87.0165 111.757 87.0814 111.78 87.1523C111.804 87.2232 111.812 87.2983 111.803 87.3725C111.794 87.4467 111.77 87.5181 111.731 87.5817C111.692 87.6454 111.639 87.6998 111.577 87.7411C111.515 87.7825 111.445 87.8097 111.371 87.821C111.297 87.8323 111.222 87.8273 111.15 87.8065Z" fill="black"/>
<path d="M109.741 87.7295C109.845 87.4189 110.409 87.3281 110.409 87.3281C110.409 87.3281 110.804 87.74 110.7 88.0505C110.687 88.1229 110.659 88.1916 110.617 88.252C110.575 88.3124 110.521 88.3631 110.458 88.4006C110.395 88.4381 110.324 88.4616 110.251 88.4694C110.178 88.4772 110.104 88.4691 110.034 88.4458C109.965 88.4225 109.901 88.3844 109.847 88.3342C109.794 88.284 109.752 88.2228 109.724 88.1549C109.696 88.0869 109.683 88.0137 109.686 87.9403C109.689 87.8669 109.708 87.7949 109.741 87.7295Z" fill="black"/>
<path d="M109.868 86.6218C109.91 86.9449 110.447 87.1435 110.447 87.1435C110.447 87.1435 110.913 86.814 110.869 86.4908C110.87 86.4175 110.855 86.3449 110.826 86.2778C110.796 86.2107 110.752 86.1507 110.698 86.102C110.643 86.0532 110.578 86.0168 110.508 85.9953C110.438 85.9737 110.364 85.9675 110.292 85.977C110.219 85.9865 110.149 86.0115 110.087 86.0503C110.025 86.0891 109.972 86.1409 109.931 86.202C109.891 86.2632 109.864 86.3323 109.853 86.4047C109.841 86.4772 109.846 86.5512 109.866 86.6218H109.868Z" fill="black"/>
<path d="M111.598 81.9742C111.275 81.9383 111.068 81.4039 111.068 81.4039C111.068 81.4039 111.391 80.9328 111.714 80.9688C111.789 80.9648 111.863 80.9772 111.933 81.005C112.002 81.0328 112.064 81.0754 112.115 81.1299C112.167 81.1843 112.205 81.2492 112.229 81.3201C112.252 81.3909 112.26 81.4661 112.251 81.5403C112.243 81.6144 112.218 81.6859 112.179 81.7495C112.14 81.8132 112.088 81.8676 112.025 81.9089C111.963 81.9502 111.893 81.9775 111.819 81.9888C111.745 82.0001 111.67 81.9951 111.598 81.9742Z" fill="black"/>
<path d="M110.195 81.8955C110.299 81.585 110.863 81.4941 110.863 81.4941C110.863 81.4941 111.258 81.9061 111.154 82.2166C111.141 82.2889 111.113 82.3576 111.071 82.418C111.029 82.4784 110.975 82.5292 110.912 82.5667C110.849 82.6042 110.778 82.6276 110.705 82.6354C110.632 82.6432 110.558 82.6352 110.489 82.6118C110.419 82.5885 110.355 82.5505 110.301 82.5002C110.248 82.45 110.206 82.3889 110.178 82.3209C110.15 82.2529 110.137 82.1797 110.14 82.1063C110.143 82.0329 110.162 81.961 110.195 81.8955Z" fill="black"/>
<path d="M110.322 80.7898C110.364 81.113 110.901 81.3115 110.901 81.3115C110.901 81.3115 111.367 80.982 111.323 80.6588C111.324 80.5855 111.309 80.5128 111.28 80.4457C111.25 80.3787 111.207 80.3187 111.152 80.27C111.097 80.2212 111.033 80.1849 110.962 80.1633C110.892 80.1417 110.818 80.1354 110.746 80.1449C110.673 80.1544 110.603 80.1794 110.541 80.2183C110.479 80.2571 110.426 80.3089 110.385 80.37C110.345 80.4312 110.318 80.5003 110.307 80.5727C110.296 80.6451 110.3 80.7192 110.32 80.7898H110.322Z" fill="black"/>
<path d="M111.91 92.1012C111.606 92.2216 111.175 91.8476 111.175 91.8476C111.175 91.8476 111.234 91.2794 111.539 91.1611C111.602 91.1241 111.673 91.1013 111.746 91.0942C111.82 91.0871 111.893 91.0959 111.963 91.12C112.033 91.1441 112.096 91.1829 112.149 91.2338C112.202 91.2848 112.244 91.3465 112.271 91.415C112.298 91.4834 112.31 91.5569 112.306 91.6304C112.302 91.7039 112.282 91.7757 112.248 91.8408C112.214 91.906 112.166 91.9629 112.108 92.0079C112.049 92.0528 111.982 92.0846 111.91 92.1012Z" fill="black"/>
<path d="M110.634 92.6929C110.581 92.3718 111.035 92.0254 111.035 92.0254C111.035 92.0254 111.578 92.2029 111.633 92.5239C111.657 92.5943 111.666 92.669 111.658 92.743C111.65 92.817 111.626 92.8884 111.588 92.9523C111.55 93.0162 111.499 93.071 111.437 93.113C111.376 93.155 111.306 93.1832 111.233 93.1956C111.16 93.208 111.085 93.2044 111.013 93.1849C110.941 93.1654 110.874 93.1305 110.817 93.0827C110.76 93.0348 110.715 92.9752 110.683 92.9079C110.651 92.8406 110.635 92.7672 110.634 92.6929Z" fill="black"/>
<path d="M110.227 91.6562C110.417 91.9223 110.983 91.8441 110.983 91.8441C110.983 91.8441 111.239 91.333 111.049 91.0668C111.015 91.0014 110.968 90.9441 110.91 90.8986C110.852 90.8531 110.785 90.8207 110.714 90.8034C110.642 90.7861 110.568 90.7844 110.496 90.7985C110.424 90.8126 110.356 90.842 110.296 90.8849C110.236 90.9277 110.186 90.9829 110.15 91.0467C110.113 91.1105 110.091 91.1815 110.085 91.2547C110.078 91.3279 110.087 91.4017 110.112 91.471C110.136 91.5403 110.176 91.6034 110.227 91.6562Z" fill="black"/>
<path d="M107.874 96.6267C108.197 96.6753 108.383 97.2161 108.383 97.2161C108.383 97.2161 108.043 97.6766 107.719 97.6259C107.646 97.6256 107.573 97.6095 107.506 97.5785C107.44 97.5476 107.38 97.5027 107.332 97.4468C107.285 97.3908 107.25 97.3252 107.229 97.2545C107.209 97.1837 107.205 97.1094 107.216 97.0367C107.227 96.964 107.254 96.8946 107.294 96.8332C107.335 96.7718 107.388 96.7198 107.451 96.6809C107.513 96.642 107.583 96.617 107.656 96.6077C107.729 96.5983 107.803 96.6048 107.874 96.6267Z" fill="black"/>
<path d="M109.274 96.7568C109.158 97.0631 108.592 97.1328 108.592 97.1328C108.592 97.1328 108.211 96.7104 108.326 96.3998C108.34 96.327 108.371 96.2582 108.415 96.1982C108.459 96.1382 108.515 96.0885 108.58 96.0525C108.645 96.0165 108.717 95.9951 108.791 95.9896C108.865 95.9842 108.94 95.995 109.01 96.0212C109.079 96.0473 109.142 96.0884 109.194 96.1413C109.246 96.1943 109.287 96.2579 109.312 96.3279C109.337 96.3979 109.347 96.4724 109.34 96.5465C109.333 96.6206 109.311 96.6923 109.274 96.7568Z" fill="black"/>
<path d="M109.105 97.8593C109.076 97.534 108.545 97.3164 108.545 97.3164C108.545 97.3164 108.068 97.629 108.098 97.9501C108.094 98.0233 108.106 98.0963 108.133 98.1643C108.161 98.2324 108.202 98.2938 108.255 98.3444C108.308 98.395 108.371 98.4335 108.44 98.4576C108.51 98.4816 108.583 98.4905 108.656 98.4836C108.729 98.4767 108.8 98.4543 108.863 98.4177C108.927 98.3812 108.982 98.3314 109.024 98.2718C109.067 98.2122 109.096 98.1441 109.11 98.0722C109.124 98.0003 109.122 97.9263 109.105 97.8551V97.8593Z" fill="black"/>
<path d="M107.717 81.7017C107.967 81.9129 107.844 82.4685 107.844 82.4685C107.844 82.4685 107.314 82.6797 107.065 82.4685C107.002 82.4297 106.949 82.378 106.909 82.3168C106.868 82.2557 106.841 82.1866 106.83 82.1141C106.819 82.0417 106.823 81.9677 106.843 81.8971C106.862 81.8264 106.897 81.7609 106.944 81.7049C106.992 81.6488 107.05 81.6036 107.117 81.5723C107.183 81.541 107.255 81.5244 107.329 81.5235C107.402 81.5226 107.475 81.5374 107.542 81.5671C107.609 81.5968 107.669 81.6405 107.717 81.6954V81.7017Z" fill="black"/>
<path d="M108.843 82.5422C108.586 82.7429 108.066 82.5063 108.066 82.5063C108.066 82.5063 107.962 81.9444 108.22 81.7437C108.271 81.6889 108.332 81.6458 108.401 81.6172C108.47 81.5887 108.544 81.5755 108.619 81.5786C108.693 81.5816 108.766 81.6008 108.832 81.6348C108.899 81.6688 108.957 81.7169 109.002 81.7756C109.048 81.8343 109.081 81.9023 109.098 81.9749C109.115 82.0474 109.116 82.1228 109.1 82.1958C109.085 82.2687 109.054 82.3375 109.01 82.3973C108.966 82.4571 108.909 82.5066 108.843 82.5422Z" fill="black"/>
<path d="M108.127 83.3967C108.271 83.103 107.931 82.6426 107.931 82.6426C107.931 82.6426 107.361 82.6595 107.217 82.9531C107.174 83.0138 107.144 83.0832 107.131 83.1565C107.117 83.2297 107.12 83.3051 107.138 83.3773C107.156 83.4495 107.19 83.5168 107.237 83.5746C107.284 83.6324 107.344 83.6793 107.411 83.7119C107.478 83.7445 107.551 83.7622 107.625 83.7636C107.7 83.7651 107.774 83.7503 107.842 83.7203C107.91 83.6903 107.971 83.6458 108.02 83.5899C108.07 83.534 108.106 83.4681 108.127 83.3967Z" fill="black"/>
<path d="M96.9698 56.9973C97.2191 57.2085 97.0965 57.7662 97.0965 57.7662C97.0965 57.7662 96.5684 57.9774 96.3171 57.7662C96.2533 57.728 96.1985 57.6764 96.1566 57.615C96.1147 57.5536 96.0867 57.4838 96.0744 57.4105C96.0622 57.3372 96.0659 57.2621 96.0856 57.1904C96.1052 57.1187 96.1402 57.052 96.188 56.9952C96.2359 56.9383 96.2956 56.8925 96.3629 56.861C96.4302 56.8294 96.5036 56.8129 96.5779 56.8125C96.6523 56.8121 96.7258 56.8278 96.7935 56.8587C96.8611 56.8895 96.9213 56.9346 96.9698 56.9909V56.9973Z" fill="black"/>
<path d="M98.0952 57.8386C97.8375 58.0499 97.3179 57.8049 97.3179 57.8049C97.3179 57.8049 97.2144 57.243 97.4721 57.0423C97.5227 56.9889 97.5841 56.9471 97.6523 56.9197C97.7205 56.8923 97.7939 56.8799 97.8673 56.8834C97.9407 56.8869 98.0125 56.9062 98.0778 56.9399C98.1431 56.9737 98.2004 57.0211 98.2457 57.0789C98.291 57.1368 98.3232 57.2038 98.3403 57.2753C98.3574 57.3468 98.3588 57.4212 98.3445 57.4933C98.3303 57.5654 98.3006 57.6336 98.2576 57.6932C98.2146 57.7528 98.1592 57.8024 98.0952 57.8386Z" fill="black"/>
<path d="M97.3793 58.6896C97.523 58.396 97.185 57.9355 97.185 57.9355C97.185 57.9355 96.6146 57.9524 96.471 58.2461C96.4292 58.3066 96.4009 58.3755 96.3881 58.448C96.3754 58.5204 96.3784 58.5948 96.397 58.6661C96.4156 58.7373 96.4494 58.8036 96.4961 58.8605C96.5427 58.9175 96.6011 58.9637 96.6672 58.996C96.7334 59.0283 96.8057 59.0459 96.8793 59.0477C96.9529 59.0494 97.026 59.0353 97.0936 59.0062C97.1612 58.9771 97.2217 58.9338 97.271 58.8791C97.3203 58.8245 97.3573 58.7598 97.3793 58.6896Z" fill="black"/>
<path d="M98.5771 61.5123C98.7504 61.2335 99.3207 61.2757 99.3207 61.2757C99.3207 61.2757 99.6101 61.7679 99.4369 62.0468C99.4073 62.1137 99.3637 62.1735 99.3091 62.2222C99.2544 62.2709 99.19 62.3072 99.12 62.3288C99.0501 62.3504 98.9764 62.3567 98.9038 62.3473C98.8312 62.3379 98.7615 62.3131 98.6993 62.2745C98.6372 62.2359 98.584 62.1843 98.5435 62.1234C98.503 62.0625 98.476 61.9935 98.4645 61.9213C98.4529 61.849 98.4569 61.7751 98.4764 61.7045C98.4958 61.634 98.5302 61.5685 98.5771 61.5123Z" fill="black"/>
<path d="M99.2489 60.278C99.4855 60.504 99.325 61.0532 99.325 61.0532C99.325 61.0532 98.7842 61.2348 98.5477 61.0088C98.4862 60.9667 98.4347 60.9117 98.3967 60.8477C98.3587 60.7836 98.335 60.7121 98.3274 60.638C98.3198 60.5639 98.3284 60.4891 98.3526 60.4186C98.3768 60.3482 98.4161 60.2839 98.4676 60.2302C98.5192 60.1765 98.5818 60.1346 98.6512 60.1075C98.7206 60.0804 98.795 60.0687 98.8694 60.0732C98.9437 60.0778 99.0161 60.0985 99.0817 60.1338C99.1472 60.1692 99.2043 60.2183 99.2489 60.278Z" fill="black"/>
<path d="M100.195 60.8635C99.8826 60.7642 99.4771 61.1635 99.4771 61.1635C99.4771 61.1635 99.5742 61.7275 99.8847 61.8268C99.9506 61.8589 100.023 61.8765 100.096 61.8784C100.169 61.8803 100.242 61.8664 100.309 61.8377C100.377 61.8091 100.437 61.7662 100.486 61.7121C100.536 61.658 100.573 61.594 100.596 61.5242C100.618 61.4545 100.625 61.3808 100.617 61.308C100.608 61.2352 100.584 61.1652 100.546 61.1025C100.508 61.0398 100.457 60.9861 100.397 60.9448C100.336 60.9036 100.267 60.8759 100.195 60.8635Z" fill="black"/>
<path d="M103.882 59.9355C103.729 60.2249 103.159 60.2291 103.159 60.2291C103.159 60.2291 102.832 59.7602 102.982 59.4708C103.005 59.3999 103.043 59.3348 103.093 59.2801C103.144 59.2254 103.206 59.1824 103.275 59.154C103.343 59.1256 103.418 59.1125 103.492 59.1157C103.567 59.1189 103.639 59.1383 103.706 59.1725C103.772 59.2067 103.83 59.2548 103.876 59.3137C103.921 59.3725 103.954 59.4407 103.97 59.5133C103.987 59.5859 103.988 59.6612 103.972 59.7341C103.957 59.8071 103.926 59.8758 103.882 59.9355Z" fill="black"/>
<path d="M103.309 61.2191C103.055 61.0079 103.172 60.4524 103.172 60.4524C103.172 60.4524 103.695 60.2285 103.949 60.4355C104.016 60.471 104.074 60.5208 104.119 60.5815C104.165 60.6421 104.196 60.712 104.211 60.7862C104.226 60.8604 104.225 60.937 104.207 61.0105C104.189 61.084 104.155 61.1527 104.107 61.2115C104.06 61.2704 104 61.318 103.931 61.3509C103.863 61.3838 103.789 61.4013 103.713 61.402C103.637 61.4027 103.562 61.3868 103.494 61.3551C103.425 61.3235 103.364 61.2771 103.315 61.2191H103.309Z" fill="black"/>
<path d="M102.32 60.7085C102.637 60.7846 103.011 60.3515 103.011 60.3515C103.011 60.3515 102.869 59.7981 102.553 59.7178C102.484 59.6907 102.411 59.6786 102.338 59.6823C102.264 59.686 102.193 59.7056 102.128 59.7395C102.062 59.7734 102.005 59.821 101.96 59.8789C101.915 59.9369 101.883 60.004 101.866 60.0754C101.849 60.1469 101.848 60.2211 101.862 60.2932C101.877 60.3652 101.907 60.4333 101.95 60.4927C101.993 60.5522 102.048 60.6017 102.112 60.6379C102.176 60.674 102.247 60.6959 102.32 60.7022V60.7085Z" fill="black"/>
<path d="M108.062 62.7175C107.806 62.9288 107.282 62.6922 107.282 62.6922C107.282 62.6922 107.175 62.1324 107.43 61.9275C107.48 61.8745 107.541 61.8327 107.609 61.8052C107.677 61.7777 107.749 61.765 107.822 61.768C107.895 61.771 107.967 61.7896 108.032 61.8225C108.097 61.8554 108.155 61.9019 108.2 61.9589C108.246 62.0159 108.279 62.082 108.297 62.1528C108.315 62.2236 108.318 62.2974 108.305 62.3693C108.292 62.4412 108.264 62.5094 108.222 62.5695C108.181 62.6296 108.127 62.6801 108.064 62.7175H108.062Z" fill="black"/>
<path d="M107.018 63.6605C106.871 63.3669 107.202 62.9043 107.202 62.9043C107.202 62.9043 107.775 62.9043 107.923 63.2043C107.967 63.2644 107.997 63.3334 108.012 63.4065C108.026 63.4796 108.025 63.555 108.008 63.6274C107.99 63.6999 107.957 63.7677 107.911 63.8261C107.865 63.8846 107.806 63.9323 107.74 63.9658C107.673 63.9994 107.6 64.0181 107.526 64.0206C107.451 64.0231 107.377 64.0093 107.308 63.9803C107.24 63.9512 107.178 63.9076 107.128 63.8524C107.078 63.7972 107.041 63.7317 107.018 63.6605Z" fill="black"/>
<path d="M106.321 62.7889C106.581 62.9874 107.098 62.7445 107.098 62.7445C107.098 62.7445 107.193 62.1826 106.934 61.9841C106.882 61.9315 106.82 61.8907 106.752 61.8643C106.683 61.8379 106.61 61.8265 106.536 61.831C106.463 61.8356 106.392 61.8558 106.327 61.8904C106.262 61.925 106.206 61.9732 106.161 62.0317C106.117 62.0901 106.085 62.1574 106.069 62.2291C106.053 62.3007 106.052 62.375 106.068 62.4469C106.083 62.5187 106.113 62.5864 106.157 62.6455C106.201 62.7045 106.257 62.7534 106.321 62.7889Z" fill="black"/>
<path d="M111.361 69.1073C111.105 69.3186 110.582 69.082 110.582 69.082C110.582 69.082 110.472 68.5222 110.727 68.3173C110.777 68.2618 110.838 68.2178 110.907 68.1883C110.975 68.1589 111.049 68.1446 111.124 68.1467C111.198 68.1487 111.271 68.1669 111.338 68.2001C111.405 68.2332 111.463 68.2805 111.51 68.3386C111.557 68.3967 111.59 68.4643 111.608 68.5367C111.626 68.609 111.628 68.6843 111.614 68.7575C111.599 68.8306 111.569 68.8998 111.526 68.9603C111.482 69.0207 111.426 69.0709 111.361 69.1073Z" fill="black"/>
<path d="M110.305 70.0492C110.157 69.7577 110.489 69.293 110.489 69.293C110.489 69.293 111.061 69.293 111.207 69.593C111.25 69.6529 111.279 69.7214 111.293 69.7937C111.307 69.866 111.305 69.9405 111.287 70.0119C111.269 70.0834 111.236 70.1502 111.191 70.2078C111.145 70.2654 111.087 70.3124 111.021 70.3456C110.956 70.3789 110.884 70.3975 110.81 70.4003C110.736 70.4031 110.663 70.39 110.595 70.3618C110.527 70.3337 110.466 70.2912 110.416 70.2372C110.366 70.1833 110.328 70.1191 110.305 70.0492Z" fill="black"/>
<path d="M109.612 69.1775C109.872 69.3761 110.39 69.1331 110.39 69.1331C110.39 69.1331 110.485 68.5713 110.225 68.3727C110.174 68.3202 110.112 68.2793 110.043 68.2529C109.975 68.2265 109.901 68.2152 109.828 68.2197C109.755 68.2242 109.683 68.2445 109.618 68.2791C109.554 68.3137 109.497 68.3619 109.453 68.4203C109.408 68.4788 109.377 68.5461 109.361 68.6177C109.344 68.6894 109.344 68.7637 109.359 68.8355C109.374 68.9074 109.405 68.9751 109.449 69.0341C109.492 69.0931 109.548 69.1421 109.612 69.1775Z" fill="black"/>
<path d="M103.29 64.2438C103.501 63.9946 104.057 64.115 104.057 64.115C104.057 64.115 104.268 64.6431 104.057 64.8945C104.019 64.9582 103.967 65.013 103.906 65.055C103.845 65.0969 103.775 65.1251 103.702 65.1375C103.628 65.1499 103.553 65.1463 103.482 65.1268C103.41 65.1074 103.343 65.0727 103.286 65.025C103.229 64.9774 103.184 64.9179 103.152 64.8507C103.12 64.7836 103.103 64.7104 103.103 64.6361C103.102 64.5618 103.117 64.4883 103.148 64.4206C103.178 64.3529 103.223 64.2925 103.279 64.2438H103.29Z" fill="black"/>
<path d="M104.126 63.1149C104.337 63.3726 104.095 63.8944 104.095 63.8944C104.095 63.8944 103.533 64 103.33 63.7423C103.277 63.6915 103.236 63.6301 103.209 63.5622C103.182 63.4943 103.17 63.4214 103.173 63.3484C103.177 63.2754 103.196 63.2039 103.229 63.1388C103.263 63.0738 103.309 63.0165 103.367 62.971C103.424 62.9255 103.49 62.8927 103.561 62.8749C103.632 62.8571 103.706 62.8546 103.778 62.8676C103.849 62.8806 103.918 62.9088 103.978 62.9504C104.038 62.992 104.089 63.0459 104.126 63.1086V63.1149Z" fill="black"/>
<path d="M104.982 63.8274C104.686 63.6859 104.228 64.026 104.228 64.026C104.228 64.026 104.247 64.5963 104.54 64.74C104.601 64.7825 104.67 64.8112 104.744 64.8243C104.817 64.8374 104.892 64.8344 104.964 64.8156C105.035 64.7969 105.102 64.7627 105.16 64.7156C105.217 64.6684 105.264 64.6094 105.296 64.5426C105.328 64.4757 105.346 64.4026 105.347 64.3284C105.348 64.2541 105.334 64.1805 105.304 64.1125C105.274 64.0445 105.23 63.9838 105.174 63.9346C105.118 63.8854 105.053 63.8488 104.982 63.8274Z" fill="black"/>
<path d="M108.934 73.9821C109.146 73.7307 109.703 73.8511 109.703 73.8511C109.703 73.8511 109.914 74.3792 109.703 74.6305C109.666 74.695 109.614 74.7504 109.553 74.7931C109.492 74.8357 109.422 74.8645 109.349 74.8774C109.275 74.8903 109.2 74.887 109.127 74.8677C109.055 74.8485 108.988 74.8138 108.931 74.7659C108.874 74.7181 108.828 74.6584 108.796 74.5909C108.764 74.5234 108.747 74.4498 108.747 74.3752C108.746 74.3006 108.762 74.2268 108.793 74.1589C108.824 74.091 108.869 74.0306 108.926 73.9821H108.934Z" fill="black"/>
<path d="M109.771 72.8545C109.982 73.1101 109.739 73.6319 109.739 73.6319C109.739 73.6319 109.177 73.7375 108.977 73.4798C108.926 73.4289 108.886 73.3679 108.861 73.3007C108.835 73.2335 108.824 73.1616 108.828 73.0898C108.832 73.018 108.851 72.9479 108.884 72.884C108.917 72.8201 108.963 72.7639 109.019 72.7191C109.076 72.6742 109.141 72.6417 109.21 72.6237C109.28 72.6057 109.353 72.6026 109.424 72.6146C109.494 72.6266 109.562 72.6534 109.622 72.6933C109.682 72.7332 109.732 72.7852 109.771 72.8461V72.8545Z" fill="black"/>
<path d="M110.626 73.5657C110.333 73.4242 109.872 73.7643 109.872 73.7643C109.872 73.7643 109.891 74.3346 110.185 74.4782C110.246 74.5207 110.315 74.5495 110.388 74.5626C110.461 74.5757 110.536 74.5727 110.608 74.5539C110.68 74.5352 110.747 74.501 110.804 74.4539C110.862 74.4067 110.908 74.3477 110.94 74.2808C110.973 74.2139 110.99 74.1409 110.992 74.0666C110.993 73.9924 110.978 73.9187 110.948 73.8507C110.918 73.7828 110.874 73.722 110.819 73.6728C110.763 73.6236 110.697 73.5871 110.626 73.5657Z" fill="black"/>
<path d="M106.036 67.2819C106.355 67.208 106.725 67.641 106.725 67.641C106.725 67.641 106.581 68.1945 106.262 68.2747C106.193 68.3034 106.119 68.3167 106.044 68.3136C105.969 68.3106 105.896 68.2912 105.83 68.257C105.764 68.2228 105.705 68.1745 105.66 68.1155C105.614 68.0565 105.581 67.9882 105.565 67.9154C105.548 67.8426 105.547 67.7669 105.563 67.6939C105.579 67.6208 105.61 67.5521 105.655 67.4923C105.7 67.4326 105.757 67.3834 105.823 67.3481C105.889 67.3129 105.961 67.2924 106.036 67.2882V67.2819Z" fill="black"/>
<path d="M107.384 66.886C107.384 67.2135 106.889 67.486 106.889 67.486C106.889 67.486 106.378 67.2304 106.372 66.903C106.36 66.8306 106.364 66.7566 106.384 66.686C106.403 66.6153 106.437 66.5497 106.485 66.4935C106.532 66.4373 106.59 66.3919 106.656 66.3603C106.722 66.3288 106.795 66.3118 106.868 66.3106C106.941 66.3094 107.014 66.3239 107.081 66.3532C107.148 66.3825 107.208 66.426 107.257 66.4805C107.306 66.5351 107.343 66.5996 107.364 66.6696C107.386 66.7395 107.393 66.8133 107.384 66.886Z" fill="black"/>
<path d="M107.635 67.9717C107.485 67.6801 106.914 67.6738 106.914 67.6738C106.914 67.6738 106.583 68.1386 106.733 68.4301C106.756 68.4995 106.794 68.5631 106.845 68.6165C106.895 68.67 106.956 68.712 107.024 68.7397C107.092 68.7674 107.165 68.7801 107.238 68.7771C107.312 68.7741 107.383 68.7553 107.449 68.7221C107.514 68.6888 107.571 68.6419 107.617 68.5845C107.663 68.5271 107.696 68.4606 107.713 68.3894C107.731 68.3182 107.733 68.2441 107.719 68.172C107.706 68.0999 107.677 68.0316 107.635 67.9717Z" fill="black"/>
<path d="M120.636 74.2439C120.332 74.3664 119.897 73.9946 119.897 73.9946C119.897 73.9946 119.954 73.4264 120.256 73.3039C120.32 73.2656 120.391 73.2416 120.465 73.2335C120.538 73.2254 120.613 73.2334 120.683 73.2569C120.754 73.2805 120.818 73.319 120.872 73.3698C120.926 73.4206 120.969 73.4825 120.996 73.5513C121.024 73.62 121.037 73.6941 121.033 73.7682C121.03 73.8423 121.01 73.9148 120.976 73.9806C120.942 74.0464 120.894 74.104 120.835 74.1495C120.776 74.1949 120.709 74.2271 120.636 74.2439Z" fill="black"/>
<path d="M119.367 74.8455C119.308 74.5224 119.76 74.1738 119.76 74.1738C119.76 74.1738 120.305 74.3449 120.362 74.6681C120.386 74.7379 120.394 74.8119 120.387 74.8852C120.379 74.9585 120.356 75.0293 120.318 75.0927C120.281 75.1562 120.23 75.2108 120.17 75.2528C120.109 75.2948 120.04 75.3233 119.968 75.3362C119.895 75.3491 119.821 75.3463 119.75 75.3277C119.678 75.3092 119.612 75.2755 119.555 75.2289C119.498 75.1823 119.451 75.1239 119.419 75.0578C119.387 74.9916 119.369 74.9192 119.367 74.8455Z" fill="black"/>
<path d="M118.948 73.8125C119.141 74.0766 119.705 73.992 119.705 73.992C119.705 73.992 119.958 73.4809 119.766 73.2168C119.732 73.1518 119.684 73.0949 119.626 73.0501C119.568 73.0052 119.501 72.9733 119.429 72.9567C119.358 72.94 119.284 72.939 119.212 72.9536C119.14 72.9682 119.072 72.9981 119.012 73.0414C118.953 73.0846 118.904 73.1401 118.868 73.2041C118.832 73.2682 118.81 73.3392 118.804 73.4123C118.798 73.4855 118.808 73.5591 118.833 73.6282C118.858 73.6972 118.897 73.7601 118.948 73.8125Z" fill="black"/>
<path d="M117.812 77.9721C117.497 77.8855 117.377 77.3257 117.377 77.3257C117.377 77.3257 117.768 76.9033 118.082 76.9983C118.156 77.0071 118.226 77.0315 118.289 77.07C118.352 77.1085 118.405 77.1601 118.446 77.2213C118.487 77.2824 118.515 77.3518 118.526 77.4245C118.538 77.4972 118.534 77.5717 118.514 77.6426C118.495 77.7136 118.46 77.7795 118.412 77.8357C118.365 77.892 118.306 77.9373 118.239 77.9686C118.172 77.9999 118.1 78.0164 118.026 78.017C117.952 78.0176 117.879 78.0023 117.812 77.9721Z" fill="black"/>
<path d="M116.431 77.6783C116.583 77.3867 117.153 77.3867 117.153 77.3867C117.153 77.3867 117.481 77.8536 117.331 78.1451C117.307 78.2156 117.269 78.2801 117.218 78.3343C117.167 78.3885 117.105 78.4311 117.037 78.459C116.968 78.487 116.894 78.4997 116.82 78.4963C116.745 78.4928 116.673 78.4734 116.607 78.4392C116.541 78.405 116.483 78.3569 116.438 78.2982C116.392 78.2396 116.36 78.1717 116.343 78.0994C116.327 78.027 116.326 77.9519 116.341 77.8792C116.356 77.8065 116.387 77.7379 116.431 77.6783Z" fill="black"/>
<path d="M116.737 76.6021C116.737 76.9274 117.227 77.2063 117.227 77.2063C117.227 77.2063 117.741 76.9549 117.749 76.6275C117.763 76.5542 117.762 76.4786 117.744 76.4061C117.726 76.3336 117.692 76.2659 117.646 76.2076C117.599 76.1494 117.54 76.102 117.473 76.0689C117.406 76.0358 117.333 76.0177 117.258 76.0158C117.183 76.0139 117.109 76.0283 117.041 76.0581C116.972 76.0878 116.911 76.1322 116.862 76.188C116.812 76.2438 116.775 76.3098 116.754 76.3813C116.732 76.4528 116.727 76.5282 116.737 76.6021Z" fill="black"/>
<path d="M115.586 74.3555C115.567 74.6808 115.047 74.9173 115.047 74.9173C115.047 74.9173 114.557 74.6216 114.576 74.2963C114.57 74.2232 114.579 74.1495 114.604 74.0803C114.628 74.0111 114.668 73.948 114.719 73.8953C114.77 73.8426 114.832 73.8016 114.9 73.775C114.969 73.7484 115.042 73.7368 115.115 73.7411C115.189 73.7454 115.26 73.7654 115.325 73.7998C115.39 73.8343 115.447 73.8823 115.491 73.9406C115.536 73.9989 115.567 74.0661 115.584 74.1377C115.6 74.2093 115.601 74.2836 115.586 74.3555Z" fill="black"/>
<path d="M115.586 75.7602C115.271 75.6757 115.149 75.1159 115.149 75.1159C115.149 75.1159 115.538 74.6934 115.854 74.7843C115.929 74.7917 116.001 74.8153 116.065 74.8534C116.129 74.8914 116.184 74.9431 116.227 75.0047C116.269 75.0663 116.297 75.1363 116.309 75.2099C116.322 75.2836 116.318 75.3591 116.298 75.4311C116.278 75.5031 116.243 75.5699 116.195 75.6269C116.147 75.6839 116.086 75.7296 116.019 75.761C115.951 75.7923 115.877 75.8085 115.802 75.8083C115.728 75.8082 115.654 75.7918 115.586 75.7602Z" fill="black"/>
<path d="M114.466 75.6979C114.787 75.6367 114.954 75.0896 114.954 75.0896C114.954 75.0896 114.6 74.6418 114.278 74.703C114.204 74.7046 114.131 74.7224 114.064 74.7552C113.997 74.7879 113.938 74.8349 113.891 74.8929C113.844 74.9508 113.81 75.0182 113.792 75.0905C113.773 75.1628 113.771 75.2382 113.785 75.3115C113.799 75.3848 113.828 75.4542 113.872 75.5149C113.915 75.5755 113.971 75.626 114.036 75.6628C114.101 75.6995 114.173 75.7217 114.247 75.7278C114.322 75.7339 114.396 75.7237 114.466 75.6979Z" fill="black"/>
<path d="M101.855 102.219H118.331C118.388 102.219 118.445 102.231 118.496 102.256C118.548 102.281 118.593 102.316 118.628 102.361C118.664 102.405 118.689 102.457 118.702 102.513C118.715 102.568 118.716 102.626 118.703 102.681L118.492 103.704C118.474 103.789 118.427 103.865 118.359 103.919C118.291 103.974 118.207 104.004 118.12 104.004H102.263C102.185 104.004 102.11 103.981 102.046 103.937C101.982 103.893 101.933 103.831 101.906 103.759L101.519 102.734C101.498 102.678 101.491 102.618 101.497 102.558C101.504 102.499 101.524 102.442 101.557 102.392C101.59 102.342 101.634 102.3 101.686 102.27C101.737 102.24 101.795 102.222 101.855 102.219V102.219Z" stroke="black" stroke-width="0.211235" stroke-miterlimit="10"/>
<path d="M103.165 105.615C103.347 105.615 117.223 104.006 117.223 104.006H102.999L103.165 105.615Z" fill="black"/>
<path d="M0.518067 118.006V17.3016C0.517789 15.0443 0.962194 12.8089 1.82586 10.7233C2.68952 8.63771 3.95551 6.74267 5.55161 5.14637C7.14772 3.55007 9.04265 2.28381 11.1282 1.41989C13.2137 0.555973 15.4489 0.111328 17.7063 0.111328H36.4112" stroke="black" stroke-width="0.211235" stroke-miterlimit="10"/>
<path d="M54.68 5.14433H15.3374L28.7868 1.00415C33.2584 -0.372824 38.0472 -0.327088 42.4917 1.13509L54.68 5.14433Z" fill="black"/>
<path d="M162.218 28.1951C123.18 64.7514 27.1292 -22.3261 7.271 40.9156" stroke="black" stroke-width="0.211235" stroke-miterlimit="10"/>
</g>
<defs>
<clipPath id="clip0_477_9186">
<rect width="162.29" height="118.653" fill="white"/>
</clipPath>
</defs>
</svg>
