<svg width="36" height="36" viewBox="0 0 36 36" fill="none" xmlns="http://www.w3.org/2000/svg">
<path d="M25.8266 0.257812C25.2104 0.257812 24.4839 0.384301 23.4914 0.647008C20.9941 1.3054 6.35058 5.35628 6.13328 5.42114C3.96027 6.23845 2.58511 7.04279 1.72239 7.98983C2.7343 7.3055 3.94081 6.87414 5.30299 6.87414H28.551V4.09788C28.551 2.75515 28.5412 0.257812 25.8266 0.257812ZM5.30299 8.53471C2.21537 8.53471 0.321289 11.4375 0.321289 13.5164V31.2637C0.321289 33.8357 2.4197 35.9341 4.99164 35.9341H30.5229C33.0948 35.9341 35.1932 33.8357 35.1932 31.2637V13.3867C35.1932 10.8472 32.8191 8.53471 30.2115 8.53471H5.30299ZM28.9661 20.1587C30.111 20.1587 31.0418 21.0863 31.0418 22.2344C31.0418 23.3825 30.111 24.3101 28.9661 24.3101C27.818 24.3101 26.8904 23.3825 26.8904 22.2344C26.8904 21.0863 27.818 20.1587 28.9661 20.1587Z" fill="white"/>
</svg>
