<svg width="28" height="28" viewBox="0 0 28 28" fill="none" xmlns="http://www.w3.org/2000/svg">
<g id="system-uicons:coffee">
<path id="Vector" d="M19.3066 13.9797C19.3066 13.2734 19.0261 12.5961 18.5267 12.0967C18.0273 11.5973 17.35 11.3168 16.6437 11.3168H8.65508C7.94883 11.3168 7.27152 11.5973 6.77213 12.0967C6.27274 12.5961 5.99219 13.2734 5.99219 13.9797V17.3083C5.99219 18.8973 6.62343 20.4213 7.74706 21.5449C8.87068 22.6685 10.3946 23.2998 11.9837 23.2998H13.3151C14.9042 23.2998 16.4281 22.6685 17.5518 21.5449C18.6754 20.4213 19.3066 18.8973 19.3066 17.3083V13.9797ZM19.3066 13.9797H20.6381C21.3443 13.9797 22.0216 14.2602 22.521 14.7596C23.0204 15.259 23.301 15.9363 23.301 16.6426C23.301 17.3488 23.0204 18.0261 22.521 18.5255C22.0216 19.0249 21.3443 19.3055 20.6381 19.3055H19.3066M11.318 8.6539V3.32812M13.9809 8.6539V5.99101" stroke="#212121" stroke-width="1.33144" stroke-linecap="round" stroke-linejoin="round"/>
</g>
</svg>
