<svg width="18" height="18" viewBox="0 0 18 18" fill="none" xmlns="http://www.w3.org/2000/svg">
<g id="Calendar" clip-path="url(#clip0_1475_13549)">
<path id="Vector" d="M16.3932 2.41127H13.0182V1.12556C13.0182 1.03717 12.9459 0.964844 12.8575 0.964844H11.7325C11.6441 0.964844 11.5717 1.03717 11.5717 1.12556V2.41127H6.42889V1.12556C6.42889 1.03717 6.35656 0.964844 6.26817 0.964844H5.14317C5.05478 0.964844 4.98246 1.03717 4.98246 1.12556V2.41127H1.60746C1.25188 2.41127 0.9646 2.69855 0.9646 3.05413V16.3934C0.9646 16.749 1.25188 17.0363 1.60746 17.0363H16.3932C16.7488 17.0363 17.036 16.749 17.036 16.3934V3.05413C17.036 2.69855 16.7488 2.41127 16.3932 2.41127ZM15.5896 15.5898H2.41103V7.95592H15.5896V15.5898ZM2.41103 6.58984V3.8577H4.98246V4.82199C4.98246 4.91038 5.05478 4.9827 5.14317 4.9827H6.26817C6.35656 4.9827 6.42889 4.91038 6.42889 4.82199V3.8577H11.5717V4.82199C11.5717 4.91038 11.6441 4.9827 11.7325 4.9827H12.8575C12.9459 4.9827 13.0182 4.91038 13.0182 4.82199V3.8577H15.5896V6.58984H2.41103Z" fill="black" fill-opacity="0.85"/>
</g>
<defs>
<clipPath id="clip0_1475_13549">
<rect width="18" height="18" fill="white"/>
</clipPath>
</defs>
</svg>
