<svg width="24" height="25" viewBox="0 0 24 25" fill="none" xmlns="http://www.w3.org/2000/svg">
<g id="droplets-03">
<path id="Icon" d="M12.56 7.04094C13.2478 5.94206 13.7353 4.72998 14 3.46094C14.5 5.96094 16 8.36094 18 9.96094C20 11.5609 21 13.4609 21 15.4609C21.0057 16.8432 20.6009 18.1961 19.8368 19.348C19.0727 20.5 17.9838 21.3991 16.7081 21.9314C15.4324 22.4638 14.0274 22.6053 12.6712 22.3382C11.3149 22.0711 10.0685 21.4073 9.09 20.4309M7 16.7409C9.2 16.7409 11 14.9109 11 12.6909C11 11.5309 10.43 10.4309 9.29 9.50094C8.15 8.57094 7.29 7.19094 7 5.74094C6.71 7.19094 5.86 8.58094 4.71 9.50094C3.56 10.4209 3 11.5409 3 12.6909C3 14.9109 4.8 16.7409 7 16.7409Z" stroke="#212121" stroke-width="2" stroke-linecap="round" stroke-linejoin="round"/>
</g>
</svg>
