<svg width="12" height="14" viewBox="0 0 16 18" fill="none" xmlns="http://www.w3.org/2000/svg">
<path id="Vector" d="M3.82397 1.80004C3.54708 1.80004 3.28152 1.89486 3.08573 2.06365C2.88994 2.23244 2.77994 2.46136 2.77994 2.70006V16.2004L5.88905 13.755C6.46607 13.3012 7.21897 13.0496 8.00007 13.0496C8.78116 13.0496 9.53407 13.3012 10.1111 13.755L13.2202 16.2004V2.70006C13.2202 2.46136 13.1102 2.23244 12.9144 2.06365C12.7186 1.89486 12.4531 1.80004 12.1762 1.80004H3.82397ZM3.82397 0H12.1762C13.0068 0 13.8035 0.28447 14.3909 0.79083C14.9783 1.29719 15.3082 1.98396 15.3082 2.70006V16.2004C15.3081 16.5493 15.1904 16.8908 14.9693 17.1831C14.7482 17.4754 14.4333 17.706 14.063 17.8469C13.6926 17.9877 13.2828 18.0327 12.8833 17.9764C12.4838 17.9201 12.1119 17.7649 11.8128 17.5297L8.70374 15.0843C8.5114 14.9331 8.26043 14.8492 8.00007 14.8492C7.7397 14.8492 7.48873 14.9331 7.29639 15.0843L4.18729 17.5297C3.88825 17.7649 3.51636 17.9201 3.11687 17.9764C2.71737 18.0327 2.30751 17.9877 1.93715 17.8469C1.56679 17.706 1.25191 17.4754 1.03083 17.1831C0.809742 16.8908 0.691988 16.5493 0.691895 16.2004V2.70006C0.691895 1.98396 1.02188 1.29719 1.60926 0.79083C2.19664 0.28447 2.99329 0 3.82397 0V0ZM4.86799 7.20017H11.1321C11.409 7.20017 11.6746 7.29499 11.8704 7.46378C12.0662 7.63256 12.1762 7.86149 12.1762 8.10019C12.1762 8.33889 12.0662 8.56781 11.8704 8.7366C11.6746 8.90538 11.409 9.00021 11.1321 9.00021H4.86799C4.5911 9.00021 4.32555 8.90538 4.12976 8.7366C3.93396 8.56781 3.82397 8.33889 3.82397 8.10019C3.82397 7.86149 3.93396 7.63256 4.12976 7.46378C4.32555 7.29499 4.5911 7.20017 4.86799 7.20017Z" fill="black"/>
</svg>
