<svg width="16" height="16" viewBox="0 0 16 16" fill="none" xmlns="http://www.w3.org/2000/svg">
<g id="&#60;Group&#62;">
<path id="&#60;Compound Path&#62;" d="M12.1959 11.6248C13.3363 10.3486 13.9661 8.69648 13.9649 6.98469C13.9649 3.13149 10.8304 0 6.98246 0C3.13049 0 0 3.13557 0 6.98469C0 10.8379 3.13457 13.9694 6.98246 13.9694C8.69369 13.9706 10.3453 13.3405 11.6211 12.1998L15.3019 15.8817C15.3397 15.9198 15.3849 15.95 15.4346 15.9703C15.4843 15.9906 15.5376 16.0007 15.5913 16C15.6994 15.9995 15.8032 15.9571 15.8807 15.8817C15.9185 15.844 15.9485 15.7992 15.9689 15.7499C15.9894 15.7005 15.9999 15.6477 15.9999 15.5943C15.9999 15.5409 15.9894 15.488 15.9689 15.4386C15.9485 15.3893 15.9185 15.3445 15.8807 15.3068L12.1959 11.6248ZM0.811155 6.98469C0.811155 3.58409 3.57887 0.815493 6.97838 0.815493C10.3779 0.815493 13.1456 3.58409 13.1456 6.98469C13.1456 10.3853 10.3779 13.1539 6.97838 13.1539C3.57887 13.1539 0.811155 10.3853 0.811155 6.98469Z" fill="#CCCCCC"/>
</g>
</svg>
