<svg width="19" height="19" viewBox="0 0 19 19" fill="none" xmlns="http://www.w3.org/2000/svg">
<circle cx="9.33627" cy="9.33627" r="9.33627" fill="#212121"/>
<path d="M9.21239 12.7229C11.1514 12.7229 12.7232 11.151 12.7232 9.21204C12.7232 7.27305 11.1514 5.70119 9.21239 5.70119C7.2734 5.70119 5.70154 7.27305 5.70154 9.21204C5.70154 11.151 7.2734 12.7229 9.21239 12.7229Z" stroke="white" stroke-width="0.468114" stroke-linecap="round" stroke-linejoin="round"/>
<path d="M5.70154 9.21101H12.7232" stroke="white" stroke-width="0.468114" stroke-linecap="round" stroke-linejoin="round"/>
<path d="M9.21281 5.70119C10.091 6.66258 10.59 7.91023 10.6172 9.21204C10.59 10.5139 10.091 11.7615 9.21281 12.7229C8.33465 11.7615 7.83559 10.5139 7.80847 9.21204C7.83559 7.91023 8.33465 6.66258 9.21281 5.70119Z" stroke="white" stroke-width="0.468114" stroke-linecap="round" stroke-linejoin="round"/>
</svg>
