<svg width="17" height="16" viewBox="0 0 17 16" fill="none" xmlns="http://www.w3.org/2000/svg">
<path d="M8.19434 1C4.32871 1 1.19434 4.13438 1.19434 8C1.19434 11.8656 4.32871 15 8.19434 15C12.06 15 15.1943 11.8656 15.1943 8C15.1943 4.13438 12.06 1 8.19434 1ZM11.2178 5.71406L7.92715 10.2766C7.88116 10.3408 7.82053 10.3931 7.75028 10.4291C7.68004 10.4652 7.60221 10.4841 7.52324 10.4841C7.44427 10.4841 7.36644 10.4652 7.2962 10.4291C7.22596 10.3931 7.16533 10.3408 7.11934 10.2766L5.1709 7.57656C5.11152 7.49375 5.1709 7.37813 5.27246 7.37813H6.00527C6.16465 7.37813 6.31621 7.45469 6.40996 7.58594L7.52246 9.12969L9.97871 5.72344C10.0725 5.59375 10.2225 5.51562 10.3834 5.51562H11.1162C11.2178 5.51562 11.2771 5.63125 11.2178 5.71406Z" fill="#F0F0F0"/>
</svg>
