<svg width="55" height="56" viewBox="0 0 65 66" fill="none" xmlns="http://www.w3.org/2000/svg">
<path fill-rule="evenodd" clip-rule="evenodd" d="M19.7969 17.0571C19.7969 10.0228 25.4993 4.32031 32.5336 4.32031C39.568 4.32031 45.2704 10.0228 45.2704 17.0571C45.2704 24.0914 39.568 29.7939 32.5336 29.7939C25.4993 29.7939 19.7969 24.0914 19.7969 17.0571ZM32.5336 8.34245C27.7207 8.34245 23.819 12.2441 23.819 17.0571C23.819 21.8701 27.7207 25.7717 32.5336 25.7717C37.3467 25.7717 41.2482 21.8701 41.2482 17.0571C41.2482 12.2441 37.3467 8.34245 32.5336 8.34245Z" fill="#FF4F4F"/>
<path d="M48.6219 38.2812C49.7326 38.2812 50.633 39.1814 50.633 40.2923V41.8564H52.1968C53.3074 41.8564 54.2079 42.7568 54.2079 43.8675C54.2079 44.9781 53.3074 45.8785 52.1968 45.8785H50.633V47.4426C50.633 48.5533 49.7326 49.4537 48.6219 49.4537C47.5113 49.4537 46.6108 48.5533 46.6108 47.4426V45.8785H45.0462C43.9356 45.8785 43.0352 44.9781 43.0352 43.8675C43.0352 42.7568 43.9356 41.8564 45.0462 41.8564H46.6108V40.2923C46.6108 39.1814 47.5113 38.2812 48.6219 38.2812Z" fill="#FF4F4F"/>
<path fill-rule="evenodd" clip-rule="evenodd" d="M39.9732 34.5192C37.6331 34.0612 35.13 33.8142 32.5331 33.8142C26.3295 33.8142 20.614 35.2244 16.3788 37.6066C12.2066 39.9536 9.07066 43.5106 9.07066 47.8917L9.07049 48.1652C9.06746 51.2805 9.06366 55.1906 12.4933 57.9833C14.1812 59.3578 16.5424 60.3352 19.7326 60.9811C22.9317 61.6284 27.1012 61.9692 32.5331 61.9692C40.2237 61.9692 45.4305 61.2884 48.9423 59.9809C52.1035 58.8043 53.9772 57.0799 54.9777 54.9096C58.7915 52.7092 61.3584 48.5892 61.3584 43.8696C61.3584 36.8351 55.6561 31.1328 48.6216 31.1328C45.283 31.1328 42.2444 32.4175 39.9732 34.5192ZM18.3507 41.1123C14.759 43.1325 13.0928 45.609 13.0928 47.8917C13.0928 51.3985 13.2009 53.3726 15.0331 54.8645C16.0266 55.6738 17.6875 56.4635 20.5305 57.0389C23.3646 57.6124 27.2394 57.9471 32.5331 57.9471C39.4458 57.9471 43.9026 57.3749 46.7739 56.4734C40.6152 55.5783 35.8849 50.2763 35.8849 43.8696C35.8849 41.8108 36.3734 39.866 37.2408 38.1447C35.7347 37.9436 34.1583 37.8364 32.5331 37.8364C26.8895 37.8364 21.8793 39.1275 18.3507 41.1123ZM39.907 43.8696C39.907 39.0567 43.8087 35.155 48.6216 35.155C53.4348 35.155 57.3363 39.0567 57.3363 43.8696C57.3363 48.6825 53.4348 52.5842 48.6216 52.5842C43.8087 52.5842 39.907 48.6825 39.907 43.8696Z" fill="#FF4F4F"/>
</svg>
