<svg width="51" height="56" viewBox="0 0 61 66" fill="none" xmlns="http://www.w3.org/2000/svg">
<path fill-rule="evenodd" clip-rule="evenodd" d="M27.8287 4.32031H33.1793C37.8334 4.32026 41.5197 4.32023 44.4046 4.73095C47.3737 5.15359 49.777 6.04415 51.6723 8.05082C53.5673 10.0575 54.4084 12.6021 54.8077 15.7458C55.1955 18.8005 55.1955 22.7037 55.1955 27.6315V38.6597C55.1955 43.5877 55.1955 47.4908 54.8077 50.5454C54.4084 53.6891 53.5673 56.2338 51.6723 58.2406C49.777 60.2471 47.3737 61.1376 44.4046 61.5605C41.5197 61.971 37.8334 61.971 33.1793 61.971H27.8287C23.1746 61.971 19.4883 61.971 16.6033 61.5605C13.6342 61.1376 11.231 60.2471 9.33576 58.2406C7.44057 56.2338 6.59949 53.6891 6.20032 50.5454C5.81243 47.4908 5.81245 43.5877 5.8125 38.6597V27.6315C5.81245 22.7037 5.81243 18.8005 6.20032 15.7458C6.59949 12.6021 7.44057 10.0575 9.33576 8.05082C11.231 6.04415 13.6342 5.15359 16.6033 4.73095C19.4883 4.32023 23.1746 4.32026 27.8287 4.32031ZM17.1094 8.71721C14.5615 9.0799 13.0936 9.7601 12.0218 10.8949C10.9501 12.0297 10.3077 13.584 9.96513 16.2818C9.61522 19.0374 9.61119 22.6698 9.61119 27.7828V38.5085C9.61119 43.6215 9.61522 47.254 9.96513 50.0097C10.3077 52.7072 10.9501 54.2616 12.0218 55.3964C13.0936 56.5312 14.5615 57.2115 17.1094 57.574C19.7119 57.9446 23.1426 57.9489 27.9715 57.9489H33.0364C37.8653 57.9489 41.2961 57.9446 43.8987 57.574C46.4463 57.2115 47.9144 56.5312 48.9861 55.3964C50.0579 54.2616 50.7003 52.7072 51.0427 50.0097C51.3927 47.254 51.3968 43.6215 51.3968 38.5085V27.7828C51.3968 22.6698 51.3927 19.0374 51.0427 16.2818C50.7003 13.584 50.0579 12.0297 48.9861 10.8949C47.9144 9.7601 46.4463 9.0799 43.8987 8.71721C41.2961 8.34672 37.8653 8.34245 33.0364 8.34245H27.9715C23.1426 8.34245 19.7119 8.34672 17.1094 8.71721ZM18.4748 27.7828C18.4748 26.6721 19.3252 25.7717 20.3741 25.7717H40.6338C41.6828 25.7717 42.5332 26.6721 42.5332 27.7828C42.5332 28.8934 41.6828 29.7939 40.6338 29.7939H20.3741C19.3252 29.7939 18.4748 28.8934 18.4748 27.7828ZM18.4748 38.5085C18.4748 37.3979 19.3252 36.4974 20.3741 36.4974H33.0364C34.0854 36.4974 34.9358 37.3979 34.9358 38.5085C34.9358 39.6192 34.0854 40.5196 33.0364 40.5196H20.3741C19.3252 40.5196 18.4748 39.6192 18.4748 38.5085Z" fill="#FF4F4F"/>
</svg>
