<svg width="331" height="211" viewBox="0 0 331 211" fill="none" xmlns="http://www.w3.org/2000/svg">
<g clip-path="url(#clip0_23098_19244)">
<path d="M200.423 0.554688H274.307C280.538 0.554688 285.59 5.60814 285.59 11.8428V166.846C285.59 173.081 280.538 178.134 274.307 178.134H200.423C194.192 178.134 189.141 173.081 189.141 166.846V11.8428C189.141 5.60814 194.192 0.554688 200.423 0.554688Z" fill="white"/>
<path d="M274.306 178.709H200.423C193.881 178.702 188.579 173.397 188.572 166.852V11.8487C188.579 5.30411 193.881 -0.000795435 200.423 -0.0078125H274.306C280.848 -0.000795435 286.149 5.30411 286.157 11.8487V166.852C286.149 173.397 280.848 178.702 274.306 178.709ZM200.423 1.12895C194.508 1.13597 189.716 5.93096 189.709 11.8487V166.852C189.716 172.77 194.508 177.565 200.423 177.572H274.306C280.221 177.565 285.013 172.77 285.02 166.852V11.8487C285.013 5.93096 280.221 1.13597 274.306 1.12895H200.423Z" fill="#222433"/>
<path d="M285.157 155.41H189.57C189.255 155.41 189.002 155.155 189.002 154.842C189.002 154.528 189.256 154.273 189.57 154.273H285.157C285.471 154.273 285.724 154.528 285.724 154.842C285.724 155.155 285.47 155.41 285.157 155.41Z" fill="#222433"/>
<path opacity="0.61" d="M226.487 164.406H251.346C252.627 164.406 253.667 165.446 253.667 166.729C253.667 168.012 252.627 169.052 251.346 169.052H226.487C225.205 169.052 224.166 168.012 224.166 166.729C224.166 165.446 225.205 164.406 226.487 164.406Z" fill="#FFA2A2"/>
<path d="M234.324 4.50781H244.716C245.215 4.50781 245.62 4.91363 245.62 5.41301C245.62 5.9124 245.215 6.31822 244.716 6.31822H234.324C233.825 6.31822 233.42 5.9124 233.42 5.41301C233.42 4.91363 233.825 4.50781 234.324 4.50781Z" fill="#222433"/>
<path d="M230.024 6.32678C230.528 6.32678 230.936 5.91784 230.936 5.41339C230.936 4.90894 230.528 4.5 230.024 4.5C229.52 4.5 229.111 4.90894 229.111 5.41339C229.111 5.91784 229.52 6.32678 230.024 6.32678Z" fill="#222433"/>
<path d="M237.917 117.601C257.131 117.601 272.707 102.069 272.707 82.91C272.707 63.7505 257.131 48.2188 237.917 48.2188C218.703 48.2188 203.127 63.7505 203.127 82.91C203.127 102.069 218.703 117.601 237.917 117.601Z" fill="#60CB96"/>
<path d="M237.915 118.948C217.982 118.948 201.768 102.778 201.768 82.9037C201.768 63.029 217.983 46.8594 237.915 46.8594C257.846 46.8594 274.062 63.029 274.062 82.9037C274.062 102.778 257.846 118.948 237.915 118.948ZM237.915 49.5645C219.449 49.5645 204.48 64.4909 204.48 82.9037C204.48 101.316 219.449 116.243 237.915 116.243C256.38 116.243 271.349 101.316 271.349 82.9037C271.328 64.5003 256.372 49.5855 237.915 49.5645Z" fill="#BBFBDC"/>
<path d="M222.406 82.5495L225.606 79.2433C226.684 78.1299 228.474 78.0808 229.606 79.1334L241.124 89.8437C242.256 90.8951 242.3 92.6506 241.222 93.7639L238.021 97.0701C236.943 98.1835 235.153 98.2326 234.022 97.1801L222.503 86.4697C221.371 85.4183 221.328 83.6629 222.406 82.5495Z" fill="white"/>
<path d="M234.04 97.1301L230.679 94.004C229.547 92.9526 229.504 91.1972 230.582 90.0838L251.959 68.0011C253.037 66.8877 254.827 66.8386 255.958 67.8912L259.32 71.0173C260.452 72.0687 260.495 73.8241 259.417 74.9375L238.04 97.0202C236.962 98.1336 235.172 98.1827 234.04 97.1301Z" fill="white"/>
<path opacity="0.98" d="M285.121 184.744L291.44 166.767C292.136 164.782 291.078 162.615 289.076 161.925C289.033 161.91 288.989 161.896 288.946 161.883C286.926 161.262 284.781 162.38 284.151 164.381L282.812 168.656V161.808C282.814 159.944 281.291 158.432 279.409 158.43H279.396C277.515 158.429 275.989 159.938 275.988 161.803V172.794L274.927 171.363C273.779 169.821 271.65 169.368 269.964 170.308C268.123 171.335 267.47 173.646 268.505 175.471C268.505 175.473 268.508 175.474 268.509 175.476L273.78 184.745H285.121V184.744Z" fill="#C3E8C1"/>
<path d="M31.8957 207.48C31.6213 207.48 31.3984 207.257 31.3984 206.982V131.662C31.3984 131.386 31.6213 131.164 31.8957 131.164C32.1702 131.164 32.393 131.387 32.393 131.662V206.982C32.393 207.258 32.1702 207.48 31.8957 207.48Z" fill="#222433"/>
<path opacity="0.98" d="M39.1514 118.125C38.1498 118.125 37.3382 118.937 37.337 119.94C37.337 118.939 36.5254 118.125 35.5238 118.125H35.5226C34.521 118.125 33.7094 118.939 33.7094 119.941C33.7094 118.938 32.8978 118.125 31.8962 118.125H31.895C30.8934 118.125 30.0818 118.937 30.0806 119.94C30.0806 118.94 29.2714 118.127 28.2709 118.125C27.2693 118.118 26.453 118.926 26.446 119.931V119.942C26.446 118.939 25.6344 118.126 24.6328 118.126C23.6311 118.126 22.8195 118.938 22.8184 119.941V127.551C22.8184 132.571 26.8776 136.641 31.8868 136.642H31.8903C36.9007 136.642 40.9611 132.572 40.9611 127.551V119.944C40.9611 118.941 40.1518 118.129 39.1514 118.127V118.125Z" fill="#C3E8C1"/>
<path d="M37.3742 127.355C37.0998 127.355 36.877 127.132 36.877 126.857V119.709C36.877 119.433 37.0998 119.211 37.3742 119.211C37.6487 119.211 37.8715 119.434 37.8715 119.709V126.857C37.8715 127.133 37.6487 127.355 37.3742 127.355Z" fill="#222433"/>
<path d="M33.7219 127.355C33.4474 127.355 33.2246 127.132 33.2246 126.857V119.709C33.2246 119.433 33.4474 119.211 33.7219 119.211C33.9963 119.211 34.2192 119.434 34.2192 119.709V126.857C34.2192 127.133 33.9963 127.355 33.7219 127.355Z" fill="#222433"/>
<path d="M30.0735 127.355C29.799 127.355 29.5762 127.132 29.5762 126.857V119.709C29.5762 119.433 29.799 119.211 30.0735 119.211C30.3479 119.211 30.5707 119.434 30.5707 119.709V126.857C30.5707 127.133 30.3479 127.355 30.0735 127.355Z" fill="#222433"/>
<path d="M26.425 127.355C26.1506 127.355 25.9277 127.132 25.9277 126.857V119.709C25.9277 119.433 26.1506 119.211 26.425 119.211C26.6995 119.211 26.9223 119.434 26.9223 119.709V126.857C26.9223 127.133 26.6995 127.355 26.425 127.355Z" fill="#222433"/>
<path d="M15.0986 140.517C14.1651 140.624 13.4977 141.469 13.608 142.402C13.4825 141.47 12.6251 140.814 11.6939 140.936C10.7779 141.057 10.127 141.886 10.2302 142.805L11.2435 151.394L6.87817 143.915C6.4407 143.081 5.40977 142.757 4.57705 143.191C3.74433 143.626 3.42297 144.654 3.86161 145.488C3.89093 145.527 3.91322 145.57 3.92847 145.617C3.47809 144.788 2.44247 144.479 1.61561 144.926C0.787586 145.372 0.482646 146.406 0.931846 147.235C0.936537 147.245 0.942402 147.254 0.947093 147.262C0.951784 147.277 0.97055 147.288 0.974069 147.303L1.54524 148.288L5.39569 154.93C6.75033 157.283 9.36577 158.617 12.061 158.332L12.0657 158.347C13.0192 158.224 13.9387 157.92 14.7785 157.453L14.7738 157.438C17.096 156.049 18.3814 153.424 18.0577 150.733L17.1277 143.128L16.9881 141.997C16.8931 141.084 16.0756 140.417 15.1608 140.508C15.1409 140.511 15.1209 140.513 15.0998 140.515L15.0986 140.517Z" fill="white"/>
<path d="M15.0046 157.863C14.1145 158.36 13.1363 158.681 12.1241 158.811C12.0796 158.817 12.0338 158.816 11.9893 158.809C9.14746 159.061 6.41238 157.637 4.9862 155.162L0.575132 147.554C0.554021 147.526 0.536428 147.496 0.521181 147.464C-0.0523403 146.412 0.334698 145.098 1.38557 144.529C1.94736 144.225 2.61471 144.185 3.21051 144.419C3.22693 144.288 3.25626 144.158 3.29613 144.033C3.46619 143.487 3.84971 143.032 4.35873 142.771C4.87361 142.503 5.47411 142.453 6.02769 142.631C6.57072 142.802 7.02461 143.182 7.2885 143.687L10.5115 149.207L9.76203 142.857C9.63067 141.666 10.4904 140.598 11.6808 140.471C12.327 140.402 12.9709 140.626 13.4354 141.082C13.7778 140.52 14.3561 140.141 15.0093 140.052C15.0387 140.046 15.068 140.043 15.0973 140.042C15.6626 139.987 16.2279 140.154 16.6724 140.507C17.1193 140.863 17.4019 141.385 17.4535 141.952L17.5919 143.069L18.522 150.676C18.8633 153.511 17.5321 156.281 15.109 157.782C15.0785 157.813 15.0433 157.84 15.0058 157.863H15.0046ZM12.1148 157.863C12.9334 157.744 13.7239 157.484 14.4499 157.092C14.4733 157.07 14.4991 157.05 14.5273 157.032C16.69 155.738 17.8875 153.293 17.5872 150.787L16.5176 142.051C16.4906 141.733 16.3346 141.438 16.0837 141.239C15.8233 141.03 15.4879 140.936 15.1571 140.979C14.4816 141.057 13.9972 141.665 14.0722 142.341C14.1039 142.598 13.9209 142.833 13.6629 142.864C13.4096 142.894 13.1774 142.717 13.1398 142.465C13.0425 141.79 12.4185 141.317 11.743 141.409C11.0862 141.498 10.6205 142.093 10.6944 142.752L11.7078 151.337C11.7383 151.595 11.5541 151.828 11.2961 151.858C11.1096 151.879 10.929 151.789 10.834 151.627L6.46868 144.148L6.45695 144.127C6.30917 143.839 6.05232 143.623 5.74269 143.524C5.42719 143.423 5.08472 143.452 4.79151 143.604C4.50416 143.751 4.28836 144.009 4.19101 144.316C4.09249 144.624 4.1183 144.959 4.26373 145.248C4.31416 145.323 4.35287 145.405 4.3775 145.491C4.44435 145.743 4.2954 146 4.04441 146.066C3.83681 146.121 3.61866 146.028 3.51311 145.841C3.18237 145.243 2.43057 145.026 1.83359 145.353C1.24483 145.677 1.0255 146.414 1.341 147.009C1.35742 147.033 1.37267 147.056 1.38557 147.082L5.79546 154.69C7.05745 156.88 9.49227 158.124 12.0033 157.859C12.0397 157.856 12.076 157.856 12.1112 157.859L12.1148 157.863Z" fill="#222433"/>
<path d="M3.86328 145.492L7.23169 151.303L3.86328 145.492Z" fill="white"/>
<path d="M7.4614 151.726C7.23739 151.852 6.95356 151.772 6.82454 151.55L3.45613 145.739C3.32595 145.514 3.40218 145.226 3.62619 145.096C3.84669 144.965 4.13169 145.038 4.26305 145.259C4.2654 145.263 4.26657 145.266 4.26891 145.27L7.63733 151.081C7.76751 151.305 7.69128 151.593 7.46726 151.723L7.4614 151.726Z" fill="#222433"/>
<path d="M13.6016 142.266L14.4097 148.929L13.6016 142.266Z" fill="white"/>
<path d="M14.6417 149.341C14.4153 149.467 14.128 149.385 14.0013 149.157C13.9708 149.103 13.952 149.045 13.945 148.984L13.1369 142.319C13.1029 142.062 13.2847 141.826 13.5415 141.793C13.7996 141.76 14.0353 141.943 14.0693 142.2C14.0693 142.203 14.0693 142.206 14.0693 142.209L14.8774 148.874C14.9009 149.064 14.807 149.249 14.6405 149.341H14.6417Z" fill="#222433"/>
<path d="M30.6322 210.376C30.6052 210.391 30.5771 210.403 30.5478 210.412C30.3003 210.491 30.0352 210.356 29.9543 210.109L11.8503 154.689C11.7717 154.441 11.9089 154.178 12.1564 154.1C12.4015 154.023 12.6631 154.157 12.7452 154.4L30.8504 209.82C30.9207 210.034 30.8292 210.267 30.6334 210.377L30.6322 210.376Z" fill="#222433"/>
<g opacity="0.98">
<path d="M318.979 139.113C321.338 139.113 323.25 137.176 323.25 134.787C323.25 132.398 321.338 130.461 318.979 130.461C316.621 130.461 314.709 132.398 314.709 134.787C314.709 137.176 316.621 139.113 318.979 139.113Z" fill="#C3E8C1"/>
<path d="M313.069 147.511C315.428 147.511 317.339 145.575 317.339 143.185C317.339 140.796 315.428 138.859 313.069 138.859C310.711 138.859 308.799 140.796 308.799 143.185C308.799 145.575 310.711 147.511 313.069 147.511Z" fill="#C3E8C1"/>
<path d="M321.468 149.121C323.826 149.121 325.738 147.184 325.738 144.795C325.738 142.406 323.826 140.469 321.468 140.469C319.109 140.469 317.197 142.406 317.197 144.795C317.197 147.184 319.109 149.121 321.468 149.121Z" fill="#C3E8C1"/>
<path d="M311.315 156.957C313.674 156.957 315.586 155.02 315.586 152.631C315.586 150.242 313.674 148.305 311.315 148.305C308.957 148.305 307.045 150.242 307.045 152.631C307.045 155.02 308.957 156.957 311.315 156.957Z" fill="#C3E8C1"/>
<path d="M319.71 158.558C322.068 158.558 323.98 156.621 323.98 154.232C323.98 151.843 322.068 149.906 319.71 149.906C317.351 149.906 315.439 151.843 315.439 154.232C315.439 156.621 317.351 158.558 319.71 158.558Z" fill="#C3E8C1"/>
</g>
<path d="M309.486 186.383C309.717 186.383 309.915 186.216 309.959 185.986L319.452 134.883C319.501 134.619 319.329 134.364 319.067 134.313C318.806 134.263 318.555 134.437 318.505 134.703L309.012 185.806C308.963 186.07 309.135 186.325 309.396 186.374C309.425 186.38 309.456 186.382 309.486 186.383Z" fill="#222433"/>
<path d="M171.933 182.555C171.693 182.555 171.498 182.363 171.498 182.127C171.498 182.087 171.504 182.047 171.514 182.008L174.879 170.423C174.944 170.195 175.183 170.062 175.414 170.125C175.646 170.188 175.781 170.423 175.718 170.651C175.718 170.654 175.717 170.656 175.716 170.658L172.351 182.244C172.298 182.427 172.127 182.553 171.932 182.555H171.933Z" fill="#222433"/>
<path opacity="0.98" d="M175.299 172.776C176.557 172.776 177.577 171.773 177.577 170.536C177.577 169.3 176.557 168.297 175.299 168.297C174.041 168.297 173.021 169.3 173.021 170.536C173.021 171.773 174.041 172.776 175.299 172.776Z" fill="#C3E8C1"/>
<path d="M171.932 182.557C171.754 182.557 171.593 182.45 171.527 182.286L167.974 173.382C167.886 173.162 167.996 172.913 168.219 172.827C168.443 172.74 168.695 172.848 168.783 173.068L172.337 181.971C172.425 182.191 172.314 182.44 172.092 182.527C172.041 182.547 171.986 182.557 171.932 182.556V182.557Z" fill="#222433"/>
<path opacity="0.98" d="M168.379 174.984C169.373 174.984 170.178 174.192 170.178 173.215C170.178 172.238 169.373 171.445 168.379 171.445C167.386 171.445 166.58 172.238 166.58 173.215C166.58 174.192 167.386 174.984 168.379 174.984Z" fill="#C3E8C1"/>
<path d="M171.576 111.373C170.082 109.481 168.175 105.627 165.133 103.253C160.34 90.5919 151.337 78.429 151.337 78.429L150.203 71.5312L137.885 72.5803L139.981 86.2566L150.873 103.391C151.182 103.873 151.32 104.44 151.286 105.008C150.668 113.369 153.983 118.478 153.983 118.478C153.983 118.478 155.324 121.041 157.574 120.25C158.089 120.06 158.949 119.441 158.949 119.441C160.856 120.731 162.608 120.078 163.365 118.942C164.189 119.493 165.461 119.734 166.44 119.578C168.037 119.32 168.81 118.047 169.017 116.74L169.086 114.727L168.949 114.314C171.68 115.656 173.21 113.455 171.577 111.373H171.576Z" fill="white"/>
<path d="M156.734 120.951C155.136 120.951 153.985 119.626 153.521 118.767C153.247 118.336 150.136 113.244 150.756 104.97C150.79 104.523 150.67 104.075 150.43 103.698L139.537 86.563C139.503 86.494 139.468 86.425 139.452 86.356L137.356 72.6797C137.338 72.5254 137.374 72.3698 137.459 72.2494C137.545 72.1289 137.7 72.0599 137.837 72.0424L150.138 70.9933C150.412 70.9758 150.688 71.1652 150.722 71.4576L151.838 78.2349C152.732 79.4734 161.047 91.034 165.583 102.938C167.73 104.659 169.294 107.05 170.565 108.977C171.098 109.802 171.562 110.508 171.991 111.041C172.919 112.21 173.056 113.553 172.317 114.464C171.836 115.066 170.909 115.497 169.62 115.152L169.551 116.769V116.821C169.293 118.626 168.158 119.866 166.527 120.123C165.548 120.278 164.397 120.089 163.503 119.659C163.039 120.158 162.404 120.519 161.717 120.657C161.081 120.777 160.102 120.777 158.968 120.123C158.642 120.347 158.143 120.657 157.748 120.795C157.405 120.881 157.061 120.949 156.735 120.949L156.734 120.951ZM140.516 86.0636L151.356 103.094C151.717 103.679 151.906 104.366 151.855 105.038C151.374 111.489 153.349 116.443 154.467 118.181C154.484 118.198 154.484 118.215 154.484 118.232C154.536 118.319 155.635 120.365 157.405 119.729C157.731 119.609 158.332 119.213 158.642 118.989C158.831 118.851 159.089 118.851 159.278 118.971C160.034 119.487 160.807 119.677 161.511 119.539C162.095 119.418 162.61 119.092 162.919 118.61C163.091 118.351 163.434 118.284 163.676 118.456C164.363 118.92 165.497 119.143 166.373 119.006C167.971 118.748 168.384 117.304 168.487 116.667L168.556 114.793L168.435 114.466C168.366 114.259 168.418 114.02 168.59 113.882C168.761 113.727 169.003 113.71 169.192 113.795C170.189 114.277 171.047 114.259 171.476 113.744C171.872 113.262 171.734 112.436 171.133 111.679C170.668 111.095 170.187 110.372 169.639 109.529C168.401 107.636 166.838 105.262 164.777 103.662C164.691 103.593 164.622 103.508 164.588 103.404C159.88 90.9838 150.947 78.8559 150.861 78.7355C150.81 78.6665 150.776 78.5811 150.758 78.4945L149.71 72.095L138.508 73.0411L140.518 86.0636H140.516Z" fill="#222433"/>
<path d="M151.646 110.997C152.505 107.436 155.701 108.726 156.182 110.241C156.646 107.454 159.773 107.11 160.924 109.381C161.542 106.766 164.978 106.371 165.58 110.827C165.751 112.117 166.782 115.936 166.782 115.936" fill="white"/>
<path d="M166.783 116.465C166.542 116.465 166.318 116.311 166.25 116.052C166.216 115.898 165.219 112.181 165.031 110.874C164.738 108.775 163.828 108.002 163.072 107.949C162.333 107.915 161.663 108.534 161.439 109.462C161.388 109.686 161.199 109.858 160.975 109.875C160.751 109.893 160.528 109.789 160.425 109.583C159.91 108.568 159.033 108.31 158.38 108.413C157.522 108.551 156.903 109.239 156.731 110.288C156.697 110.529 156.491 110.718 156.233 110.752C155.993 110.77 155.752 110.614 155.666 110.373C155.478 109.806 154.67 109.204 153.845 109.238C152.832 109.272 152.367 110.27 152.178 111.096C152.109 111.388 151.817 111.578 151.509 111.491C151.217 111.422 151.028 111.13 151.096 110.838C151.662 108.463 153.174 108.154 153.793 108.137C154.584 108.103 155.408 108.447 155.993 108.98C156.439 108.086 157.23 107.483 158.209 107.329C159.171 107.175 160.099 107.518 160.786 108.206C161.318 107.329 162.178 106.796 163.14 106.83C164.342 106.881 165.752 107.93 166.129 110.701C166.301 111.939 167.298 115.706 167.315 115.741C167.401 116.034 167.212 116.326 166.92 116.413C166.868 116.464 166.834 116.464 166.783 116.464V116.465Z" fill="#222433"/>
<path d="M160.925 109.352C160.925 109.352 160.839 111.639 162.522 116.353L160.925 109.352Z" fill="white"/>
<path d="M162.523 116.906C162.3 116.906 162.094 116.768 162.008 116.545C160.307 111.797 160.375 109.44 160.375 109.354C160.393 109.061 160.633 108.82 160.925 108.82H160.943C161.253 108.838 161.476 109.079 161.476 109.388C161.476 109.421 161.441 111.675 163.039 116.182C163.142 116.475 162.987 116.785 162.713 116.888C162.644 116.888 162.576 116.905 162.524 116.905L162.523 116.906Z" fill="#222433"/>
<path d="M156.184 110.234C156.184 110.234 156.613 114.38 157.868 116.875L156.184 110.234Z" fill="white"/>
<path d="M157.867 117.425C157.661 117.425 157.472 117.322 157.369 117.115C156.08 114.552 155.651 110.457 155.634 110.285C155.6 109.975 155.823 109.718 156.115 109.683C156.425 109.649 156.682 109.873 156.717 110.165C156.717 110.199 157.146 114.242 158.332 116.616C158.469 116.891 158.349 117.218 158.091 117.356C158.04 117.408 157.954 117.425 157.869 117.425H157.867Z" fill="#222433"/>
<path d="M165.615 111C165.615 111 167.471 113.374 168.965 114.303L165.615 111Z" fill="white"/>
<path d="M168.947 114.86C168.844 114.86 168.741 114.826 168.655 114.773C167.11 113.81 165.254 111.436 165.167 111.35C164.978 111.109 165.03 110.765 165.271 110.576C165.511 110.387 165.855 110.438 166.043 110.679C166.061 110.696 167.847 112.984 169.239 113.845C169.497 113.999 169.583 114.344 169.411 114.601C169.325 114.756 169.136 114.86 168.946 114.86H168.947Z" fill="#222433"/>
<path d="M141.751 35.4697C143.326 35.4697 144.603 34.1911 144.603 32.6138C144.603 31.0365 143.326 29.7578 141.751 29.7578C140.175 29.7578 138.898 31.0365 138.898 32.6138C138.898 34.1911 140.175 35.4697 141.751 35.4697Z" fill="white"/>
<path d="M141.749 37.6959C138.949 37.6959 136.682 35.4247 136.682 32.6214C136.682 29.8181 138.95 27.5469 141.749 27.5469C144.549 27.5469 146.817 29.8181 146.817 32.6214C146.817 35.4247 144.549 37.6959 141.749 37.6959ZM141.749 28.5784C139.516 28.5784 137.713 30.3841 137.713 32.6214C137.713 34.8587 139.516 36.6644 141.749 36.6644C143.983 36.6644 145.786 34.8411 145.786 32.6214C145.786 30.4017 143.965 28.5784 141.749 28.5784Z" fill="#222433"/>
<path d="M117.097 117.164L117.027 156.678H135.256L141.922 122.015L142.524 118.884L117.097 117.164Z" fill="white"/>
<path d="M117.013 157.202C116.721 157.202 116.498 156.979 116.498 156.686L116.567 117.172C116.567 116.88 116.79 116.656 117.082 116.656H117.116L142.543 118.377C142.835 118.394 143.042 118.635 143.024 118.927V118.996L142.423 122.127L135.74 156.774C135.688 157.015 135.482 157.187 135.241 157.187L117.013 157.204V157.202ZM117.615 117.722L117.545 156.169H134.828L141.426 121.935L141.924 119.372L117.615 117.721V117.722Z" fill="#222433"/>
<path d="M135.978 155.626C135.531 160.856 139.036 165.259 144.002 166.928C146.098 167.634 150.1 169.561 152.18 170.334C155.96 171.762 158.451 174.841 158.124 178.711H116.479L116.496 155.676L135.978 155.625V155.626Z" fill="#FFA2A2"/>
<path d="M121.478 126.589C120.912 127.604 118.454 130.391 118.454 130.391L94.4369 157.761L76.7246 149.556L96.9972 117.68L121.479 126.59L121.478 126.589Z" fill="white"/>
<path d="M94.437 158.281C94.3678 158.281 94.2822 158.264 94.2142 158.23L76.5019 150.025C76.2438 149.904 76.1242 149.594 76.2438 149.337C76.2614 149.319 76.2614 149.303 76.2779 149.286L96.5329 117.409C96.6877 117.168 96.9973 117.099 97.2378 117.255C97.4782 117.411 97.5474 117.719 97.3926 117.96L77.446 149.338L94.2658 157.131L118.026 130.053C118.696 129.296 120.552 127.146 120.998 126.337C121.136 126.097 121.445 125.994 121.703 126.13C121.944 126.268 122.047 126.577 121.91 126.836C121.326 127.885 118.92 130.603 118.817 130.723L94.7994 158.093C94.7302 158.214 94.593 158.283 94.4382 158.283L94.437 158.281Z" fill="#222433"/>
<path d="M129.984 102.002L121.909 126.758L96.5332 117.658L107.34 92.954C107.254 92.4546 107.203 91.9388 107.169 91.4231C106.773 85.5744 109.556 80.3104 113.937 77.541L118.404 77.5234L141.752 78.452L143.195 119.738H124.194L129.983 102.002H129.984Z" fill="#B5E7EA"/>
<path d="M95.4501 157.434C86.8766 166.276 93.1994 170.318 93.1994 170.318C96.9619 171.282 99.4871 174.826 99.1434 178.695H84.0419L64.5938 163.884L76.4829 148.797L95.4501 157.433V157.434Z" fill="#FFA2A2"/>
<path d="M155.102 171.977C155.017 172.046 154.913 172.08 154.81 172.08H116.498V171.047H153.694C154.192 171.322 154.655 171.632 155.102 171.975V171.977Z" fill="#222433"/>
<path d="M145.289 171.552C145.289 171.844 145.067 172.067 144.775 172.067H137.353C133.521 172.05 130.412 168.954 130.394 165.101C130.394 163.931 129.449 163.001 128.281 163.001H116.479V161.969H128.281C130.015 161.969 131.408 163.379 131.408 165.1C131.408 168.368 134.054 171.017 137.318 171.017H144.809C145.101 171.051 145.289 171.276 145.289 171.551V171.552Z" fill="#222433"/>
<path d="M98.1833 174.184C98.0977 174.236 98.012 174.253 97.9252 174.253H92.5477C91.1732 174.253 89.8338 173.771 88.7512 172.894L82.2572 167.561L79.1996 165.049L69.7676 157.308L70.4033 156.5H70.4209L77.757 162.521L79.8529 164.241L82.9105 166.753V166.771L89.3869 172.086C90.2806 172.809 91.3796 173.204 92.5313 173.204H97.5312C97.8056 173.53 98.012 173.858 98.1844 174.184H98.1833Z" fill="#222433"/>
<path d="M83.0119 167.506C82.9086 167.626 82.7714 167.695 82.6166 167.695C82.4958 167.695 82.3762 167.662 82.2906 167.575L79.233 165.063C77.5487 163.686 77.2403 161.209 78.5633 159.471C79.5602 158.13 79.2846 156.22 77.9452 155.205L73.8906 152.177C73.8906 152.177 73.873 152.177 73.873 152.16L74.5087 151.352L78.5633 154.362C80.3671 155.703 80.7447 158.249 79.4054 160.056C78.0648 161.862 79.3878 160.074 79.3878 160.074C78.4084 161.381 78.6313 163.222 79.9026 164.254L82.9602 166.766C83.1491 166.955 83.1831 167.281 83.0119 167.506Z" fill="#222433"/>
<path d="M113.953 77.541C113.18 74.7715 111.599 67.9077 112.115 63.2975C113.421 51.4959 122.493 47.1781 124.829 45.2344L137.886 46.094C137.886 46.094 139.776 46.9536 142.01 49.1908C144.845 52.0292 148.589 61.4906 148.589 61.4906L141.837 77.5924L113.954 77.541H113.953Z" fill="white"/>
<path d="M141.837 78.1075L113.954 78.0736C113.731 78.0736 113.525 77.9192 113.455 77.6947C113.197 76.7825 110.998 68.6462 111.6 63.2618C112.75 52.9747 119.727 48.1751 123.094 45.87C123.678 45.4747 124.176 45.1297 124.502 44.8548C124.606 44.7683 124.725 44.7344 124.864 44.7344L137.921 45.594C137.99 45.594 138.042 45.6115 138.092 45.6454C138.178 45.6793 140.085 46.574 142.369 48.8452C145.256 51.7351 148.915 60.9391 149.07 61.3169C149.122 61.4373 149.122 61.5753 149.07 61.7122L142.301 77.7801C142.232 77.9695 142.043 78.1064 141.837 78.1064V78.1075ZM114.349 77.0234L141.493 77.0573L148.039 61.4888C147.489 60.1298 144.156 52.0614 141.648 49.5504C139.759 47.6582 138.126 46.781 137.748 46.5916L124.983 45.7483C124.64 46.0232 124.176 46.3331 123.66 46.6945C120.172 49.0861 113.696 53.5408 112.613 63.3471C112.098 68.1117 113.851 75.1826 114.348 77.0234H114.349Z" fill="#222433"/>
<path d="M182.451 58.5569C180.355 59.2972 177.365 59.7779 174.754 60.2082C177.847 61.0678 182.056 62.083 181.97 63.7004C181.832 66.023 178.207 65.3003 175.75 65.0769C170.321 64.5775 169.427 67.0896 167.005 69.5667C165.132 71.425 162.367 72.0261 159.893 71.1326L129.072 83.347C125.361 84.8264 121.169 83.0546 119.606 79.3906L119.451 79.0292L116.187 71.2882C114.521 67.3493 116.358 62.8069 120.293 61.138C124.228 59.4691 128.764 61.3099 130.43 65.25H130.413L131.014 66.6955L156.939 59.2644C157.316 59.1615 157.729 59.075 158.125 59.0411C160.685 57.2178 163.347 55.8074 165.976 54.2238C170.133 51.6954 183.225 47.8757 183.946 51.127C184.186 52.176 183.276 52.7444 181.421 53.3982L178.054 54.4648C177.005 54.7911 175.82 55.17 174.514 55.6343C175.992 55.3758 177.211 55.1875 178.448 55.0495L183.052 54.7747C184.77 54.6718 185.406 56.9944 183.859 57.785L182.451 58.5592V58.5569Z" fill="white"/>
<path d="M126.378 84.3912C123.233 84.3912 120.382 82.4989 119.145 79.5915L118.99 79.2301L115.726 71.4891C113.956 67.2917 115.915 62.4406 120.106 60.6688C124.298 58.897 129.143 60.8583 130.913 65.0556C130.931 65.0895 130.931 65.1071 130.947 65.1422L131.342 66.0708L156.838 58.7765C157.215 58.6736 157.594 58.5871 157.972 58.5531C159.724 57.3146 161.563 56.248 163.332 55.2154C164.122 54.7511 164.947 54.2692 165.737 53.7874C169.328 51.6027 179.945 48.2825 183.296 49.728C184.103 50.0719 184.378 50.6227 184.464 51.018C184.825 52.6179 183.244 53.3231 181.612 53.8903L179.774 54.4751L183.055 54.2856C184.224 54.2166 185.203 55.1113 185.272 56.2644C185.324 57.0901 184.877 57.8818 184.138 58.2596L182.695 58.9999C182.678 59.0174 182.661 59.0174 182.626 59.0338C181.097 59.5671 179.104 59.98 177.145 60.3238C180.014 61.1495 182.575 62.0956 182.489 63.713C182.471 64.2802 182.231 64.8135 181.802 65.1749C180.685 66.1211 178.538 65.8801 176.631 65.6743C176.321 65.6404 176.012 65.6053 175.72 65.5714C171.529 65.1761 170.309 66.6041 168.608 68.5642C168.231 68.9945 167.835 69.4588 167.389 69.9056C165.43 71.8493 162.543 72.5206 159.915 71.6599L129.265 83.8228C128.355 84.2017 127.358 84.39 126.379 84.39L126.378 84.3912ZM123.32 61.0641C119.335 61.0641 116.105 64.3153 116.121 68.3069C116.121 69.2706 116.31 70.2167 116.688 71.1114L120.106 79.2137C121.533 82.6369 125.466 84.2882 128.903 82.8954L159.706 70.6295C159.827 70.5781 159.947 70.5781 160.068 70.6295C162.352 71.4552 164.913 70.888 166.647 69.184C167.06 68.7536 167.454 68.3244 167.815 67.894C169.568 65.8638 171.079 64.127 175.804 64.5563C176.096 64.5902 176.405 64.6253 176.731 64.6592C178.346 64.8311 180.357 65.0545 181.13 64.4007C181.336 64.2112 181.456 63.9539 181.456 63.6604C181.473 63.4709 181.318 62.9727 179.686 62.2675C178.466 61.7518 176.817 61.3038 175.373 60.9085C175.115 60.8395 174.858 60.7705 174.617 60.7015C174.342 60.6325 174.188 60.3402 174.256 60.0653C174.307 59.8759 174.478 59.7215 174.668 59.6864L174.875 59.6525C177.384 59.2397 180.235 58.7754 182.245 58.0701L183.671 57.3474C184.204 57.0725 184.41 56.4352 184.136 55.9019C183.947 55.5229 183.534 55.2996 183.122 55.3171L178.518 55.5919C177.419 55.7124 176.301 55.8843 174.634 56.1592C174.36 56.2106 174.084 56.0212 174.033 55.7288C173.999 55.4879 174.136 55.2469 174.359 55.1616C175.751 54.6622 176.987 54.2669 177.915 53.9745L181.282 52.9079C183.258 52.2202 183.584 51.7723 183.464 51.239C183.43 51.0846 183.326 50.8601 182.897 50.6718C180.131 49.4848 169.995 52.4097 166.266 54.6634C165.459 55.1452 164.634 55.627 163.844 56.0913C162.058 57.1404 160.202 58.207 158.449 59.463C158.38 59.5145 158.278 59.5496 158.191 59.5496C157.83 59.5835 157.47 59.6525 157.109 59.7566L131.184 67.1877C130.926 67.2567 130.669 67.1362 130.566 66.8953L129.964 65.4498C129.947 65.4158 129.947 65.3983 129.93 65.3632C128.78 62.7482 126.185 61.0629 123.315 61.0629L123.32 61.0641Z" fill="#222433"/>
<path d="M129.142 67.7601C128.85 67.7601 128.627 67.5367 128.627 67.2443C128.627 67.0034 128.782 66.8139 129.005 66.7449L130.912 66.2116C131.186 66.1426 131.478 66.2982 131.547 66.573C131.617 66.8478 131.462 67.1238 131.186 67.2092L129.279 67.7425C129.227 67.76 129.176 67.7601 129.142 67.7601Z" fill="#222433"/>
<path d="M142.523 63.7135C142.231 63.7135 142.008 63.4902 142.008 63.1978V57.2111C142.008 56.9187 142.231 56.6953 142.523 56.6953C142.815 56.6953 143.038 56.9187 143.038 57.2111V63.1978C143.038 63.4726 142.797 63.7135 142.523 63.7135Z" fill="#222433"/>
<path d="M131.031 67.2292C130.824 67.2292 130.635 67.1087 130.55 66.9029L126.392 56.5129C126.289 56.2545 126.41 55.9457 126.684 55.8416C126.959 55.7375 127.251 55.8592 127.354 56.134L131.512 66.5239C131.615 66.7824 131.494 67.0912 131.219 67.1952C131.168 67.2128 131.099 67.2292 131.031 67.2292Z" fill="#222433"/>
<path d="M121.394 127.322C121.102 127.322 120.879 127.098 120.879 126.806C120.879 126.755 120.897 126.686 120.913 126.634L130.019 99.7973C130.105 99.5225 130.397 99.3845 130.672 99.471C130.948 99.5575 131.085 99.8499 130.998 100.125L121.892 126.962C121.807 127.185 121.618 127.323 121.394 127.323V127.322Z" fill="#222433"/>
<path d="M130.911 30.3222C129.863 27.9481 127.097 26.8815 124.727 27.9305C122.356 28.9796 121.29 31.749 122.339 34.1231C123.233 36.1534 125.432 37.2714 127.595 36.8071L124.675 46.6988C123.765 49.7782 125.534 53.0119 128.609 53.9241C131.632 54.8187 134.828 53.1323 135.79 50.1056L137.371 45.203C142.044 44.5154 145.291 40.18 144.604 35.4832C144.364 33.8143 143.625 32.2495 142.491 30.9935C142.508 30.942 142.525 30.8906 142.542 30.8391C142.576 30.7362 142.611 30.6321 142.645 30.5467C143.16 28.8778 143.16 27.0885 142.628 25.4208L142.353 24.4407L138.402 21L130.911 30.3233V30.3222Z" fill="white"/>
<path d="M130.258 54.6826C126.77 54.6826 123.935 51.8442 123.935 48.3345C123.935 47.7322 124.021 47.1299 124.194 46.5627L126.891 37.4276C125.362 37.4966 123.885 36.9119 122.837 35.7938C120.878 33.6946 120.981 30.4094 123.059 28.4306C123.918 27.6225 125.036 27.1231 126.22 27.0377C128.419 26.8833 130.481 28.1043 131.374 30.117C131.494 30.3755 131.374 30.6842 131.116 30.8047C130.858 30.9252 130.549 30.8047 130.428 30.5462V30.5287C129.501 28.413 127.027 27.4669 124.931 28.3955C123.505 29.0317 122.561 30.3907 122.458 31.9391C122.303 34.2442 124.055 36.223 126.341 36.3774C126.427 36.3774 126.53 36.395 126.615 36.395C126.907 36.395 127.2 36.361 127.492 36.3084C127.766 36.257 128.042 36.4289 128.11 36.7037C128.127 36.7903 128.127 36.8756 128.092 36.9622L125.172 46.8539C124.347 49.6584 125.962 52.6172 128.763 53.4429C131.528 54.251 134.415 52.7202 135.291 49.9683L136.872 45.0482C136.924 44.8587 137.095 44.7219 137.285 44.6868C141.683 44.0506 144.724 39.9561 144.088 35.5693C143.866 34.0033 143.178 32.5239 142.112 31.3368C141.975 31.1988 141.941 30.993 142.009 30.8035C142.027 30.7696 142.043 30.717 142.061 30.6655C142.095 30.579 142.13 30.4761 142.164 30.3907C142.645 28.8247 142.645 27.1394 142.146 25.5735L141.888 24.7303L138.057 21.3761C137.85 21.1866 137.834 20.8603 138.023 20.6533C138.211 20.4463 138.521 20.43 138.744 20.6019L142.695 24.0426C142.764 24.1116 142.816 24.197 142.85 24.2835L143.16 25.2811C143.71 27.0529 143.726 28.9452 143.16 30.717C143.142 30.786 143.126 30.8374 143.09 30.9064C146.303 34.7424 145.804 40.4707 141.974 43.688C140.772 44.7032 139.311 45.3908 137.765 45.6668L136.287 50.277C135.445 52.9096 133.005 54.6814 130.256 54.6814L130.258 54.6826Z" fill="#222433"/>
<path d="M139.777 34.1047C139.588 34.1047 139.211 34.0871 138.368 34.0532C138.076 34.0532 137.854 33.8123 137.87 33.5199C137.87 33.2275 138.11 33.0042 138.402 33.0205H138.42C138.97 33.0381 139.606 33.072 139.795 33.072C139.864 33.0381 139.915 32.9691 139.898 32.8825L138.696 29.3904C138.61 29.1155 138.747 28.8232 139.022 28.7366C139.296 28.6501 139.588 28.7881 139.675 29.0629L140.895 32.589C140.895 32.6065 140.912 32.6229 140.912 32.6404C141.067 33.2942 140.672 33.948 140.019 34.1023C139.933 34.1023 139.864 34.1199 139.778 34.1023L139.777 34.1047Z" fill="#222433"/>
<path d="M126.121 34.0947C125.829 34.0947 125.607 33.8714 125.607 33.579C125.607 33.372 125.744 33.1661 125.933 33.0971L127.77 32.4095L124.764 31.2739C124.49 31.171 124.369 30.8786 124.455 30.6026C124.558 30.3277 124.85 30.2073 125.125 30.2927L129.402 31.9101C129.676 32.013 129.797 32.3054 129.694 32.5814C129.642 32.7194 129.539 32.8223 129.402 32.8738L126.293 34.0433C126.259 34.0772 126.189 34.0947 126.121 34.0947Z" fill="#222433"/>
<path d="M138.694 39.2631C137.216 39.2631 135.671 38.0246 135.585 35.6505C135.567 35.3581 135.791 35.1172 136.083 35.1172H136.117L141.048 35.2716C141.34 35.2716 141.563 35.5125 141.547 35.8049C141.461 38.179 140.052 39.2456 138.694 39.2631ZM136.684 36.1499C136.924 37.5088 137.834 38.2141 138.712 38.2141C139.433 38.2141 140.275 37.6983 140.482 36.2703L136.685 36.1499H136.684Z" fill="#222433"/>
<path d="M135.567 30.6943C135.918 30.6943 136.203 30.4095 136.203 30.0581C136.203 29.7067 135.918 29.4219 135.567 29.4219C135.216 29.4219 134.932 29.7067 134.932 30.0581C134.932 30.4095 135.216 30.6943 135.567 30.6943Z" fill="#222433" stroke="#222433" stroke-width="2.99218" stroke-miterlimit="10"/>
<path d="M141.768 30.5224C142.12 30.5224 142.404 30.2376 142.404 29.8862C142.404 29.5348 142.12 29.25 141.768 29.25C141.417 29.25 141.133 29.5348 141.133 29.8862C141.133 30.2376 141.417 30.5224 141.768 30.5224Z" fill="#222433" stroke="#222433" stroke-width="2.99218" stroke-miterlimit="10"/>
<path d="M131.355 30.979C134.859 29.4306 139.189 21.7411 139.189 21.7411L142.437 24.4415C141.096 20.0207 138.176 18.3857 135.891 17.5776C130.41 15.6163 124.381 18.4898 122.422 23.9772C122.319 24.252 122.233 24.5444 122.164 24.8204C121.27 20.5365 117.492 17.4571 113.127 17.4571H107.905C102.837 17.4571 98.5935 21.5001 98.5419 26.5747C98.4727 31.6842 102.545 35.8816 107.648 35.9506H113.129C117.217 35.9506 120.808 33.2666 121.977 29.3452C122.028 29.6715 122.114 29.999 122.199 30.3253L122.217 30.3767C124.142 25.9899 129.811 26.5057 131.185 30.979C131.202 31.0305 131.356 30.979 131.356 30.979H131.355Z" fill="white"/>
<path d="M113.131 36.4696H107.771C102.393 36.4696 98.0293 32.1004 98.0293 26.7159V26.5779C98.0985 21.2625 102.531 16.9447 107.908 16.9447H113.131C117.134 16.9622 120.725 19.4041 122.202 23.1372C124.522 17.7867 130.569 15.1378 136.066 17.0815C139.588 18.3375 141.839 20.6941 142.921 24.2892C143.007 24.564 142.852 24.8564 142.577 24.9254C142.406 24.9769 142.234 24.9429 142.097 24.8225L139.331 22.4998C138.266 24.3056 134.675 30.0689 131.566 31.4279C131.548 31.4279 131.532 31.4454 131.514 31.4454C131.343 31.5144 131.136 31.5144 130.964 31.4279C130.827 31.3589 130.741 31.2384 130.69 31.1016C130.105 29.2269 128.611 27.9708 126.79 27.8679C125.038 27.765 123.457 28.814 122.684 30.5858C122.563 30.8443 122.271 30.9648 121.996 30.8443C121.979 30.8443 121.962 30.8268 121.945 30.8268C120.347 34.2499 116.911 36.4521 113.131 36.4696ZM107.908 17.9762C103.081 17.9762 99.1118 21.8472 99.0602 26.5943C98.991 31.4115 102.84 35.368 107.668 35.437H113.148C116.997 35.4194 120.381 32.8909 121.498 29.1929C121.584 28.9181 121.859 28.7626 122.134 28.8491C122.237 28.883 122.34 28.952 122.392 29.0386C123.405 27.5767 125.089 26.751 126.859 26.8364C128.921 26.9568 130.691 28.3158 131.515 30.3285C134.763 28.5228 138.714 21.5549 138.748 21.4859C138.885 21.2449 139.195 21.142 139.453 21.2964C139.487 21.314 139.505 21.3303 139.539 21.3479L141.239 22.7583C139.761 19.817 137.459 18.6814 135.742 18.0615C130.537 16.2032 124.798 18.9211 122.943 24.1512C122.857 24.4096 122.772 24.6845 122.702 24.9593C122.633 25.2342 122.341 25.4061 122.067 25.3207C121.878 25.2692 121.741 25.1137 121.689 24.9254C120.831 20.8824 117.273 17.9925 113.151 17.975H107.911L107.908 17.9762Z" fill="#222433"/>
<path d="M122.047 29.8119C121.789 29.8119 121.582 29.6225 121.532 29.3815C121.446 28.7617 121.395 28.143 121.395 27.5407C121.395 26.4566 121.515 25.3736 121.756 24.3234C121.825 24.0486 122.099 23.8767 122.374 23.9445C122.648 24.0123 122.821 24.2883 122.752 24.5643C122.529 25.5444 122.425 26.5431 122.425 27.5407C122.425 28.0916 122.477 28.6588 122.563 29.2096C122.614 29.4845 122.425 29.7605 122.133 29.7944C122.099 29.7944 122.064 29.8119 122.048 29.8119H122.047Z" fill="#222433"/>
<path d="M151.652 110.983C152.502 107.419 155.711 108.708 156.205 110.215C156.672 107.419 159.797 107.09 160.949 109.365C161.58 106.734 165.008 106.35 165.611 110.818C165.775 112.106 166.818 115.916 166.818 115.916C166.818 115.916 156.999 120.493 153.927 117.533C151.569 115.34 151.651 110.981 151.651 110.981L151.652 110.983Z" fill="white"/>
<path d="M163.363 118.932C161.553 121.453 158.783 119.452 158.783 119.452C152.914 123.783 151.652 110.983 151.652 110.983C152.503 107.419 155.712 108.708 156.205 110.215C156.672 107.419 159.798 107.09 160.949 109.365C161.58 106.734 165.009 106.35 165.612 110.818C165.776 112.106 166.818 115.916 166.818 115.916" fill="white"/>
<path d="M156.506 120.901C156.095 120.901 155.683 120.819 155.3 120.654C153.846 120.024 152.694 118.187 151.871 115.199C151.295 113.062 151.076 111.115 151.076 111.032V110.841C151.652 108.483 153.16 108.154 153.764 108.127C154.56 108.1 155.383 108.429 155.959 108.978C156.426 108.074 157.193 107.47 158.18 107.333C159.139 107.196 160.073 107.525 160.758 108.21C161.279 107.333 162.157 106.785 163.117 106.84C164.323 106.895 165.723 107.937 166.106 110.705C166.27 111.939 167.286 115.721 167.286 115.748C167.368 116.05 167.204 116.351 166.903 116.405C166.601 116.487 166.3 116.323 166.245 116.022C166.189 115.857 165.202 112.156 165.038 110.841C164.763 108.758 163.831 107.962 163.091 107.936C162.351 107.909 161.692 108.539 161.472 109.471C161.417 109.69 161.226 109.855 161.005 109.883C160.785 109.911 160.567 109.801 160.457 109.581C159.936 108.567 159.057 108.32 158.399 108.402C157.549 108.539 156.918 109.224 156.754 110.293C156.727 110.54 156.508 110.732 156.26 110.759C156.013 110.786 155.766 110.622 155.684 110.375C155.492 109.8 154.697 109.196 153.875 109.224C152.887 109.251 152.448 110.183 152.229 111.006C152.448 113.143 153.491 118.626 155.795 119.612C156.563 119.969 157.467 119.749 158.483 118.982C158.675 118.845 158.921 118.845 159.141 118.982C159.387 119.146 161.526 120.571 162.981 118.57C163.145 118.323 163.501 118.268 163.749 118.433C163.996 118.598 164.05 118.954 163.886 119.2C162.789 120.736 161.363 120.818 160.348 120.626C159.717 120.489 159.196 120.242 158.866 120.051C158.016 120.654 157.248 120.901 156.508 120.901H156.506Z" fill="#222433"/>
<path d="M160.921 109.359C160.921 109.359 160.838 111.634 162.511 116.35L160.921 109.359Z" fill="white"/>
<path d="M162.511 116.906C162.291 116.906 162.072 116.769 161.99 116.55C160.289 111.807 160.344 109.451 160.371 109.341C160.371 109.039 160.618 108.82 160.92 108.82H160.947C161.249 108.82 161.496 109.094 161.468 109.396C161.468 109.423 161.441 111.67 163.031 116.193C163.142 116.467 162.976 116.796 162.702 116.905H162.509L162.511 116.906Z" fill="#222433"/>
<path d="M156.174 110.242C156.174 110.242 156.612 114.381 157.846 116.876L156.174 110.242Z" fill="white"/>
<path d="M157.851 117.42C157.658 117.42 157.467 117.31 157.357 117.119C156.068 114.542 155.629 110.458 155.629 110.293C155.602 109.992 155.822 109.718 156.123 109.69C156.424 109.662 156.699 109.882 156.726 110.183C156.726 110.21 157.164 114.267 158.344 116.652C158.482 116.926 158.371 117.255 158.098 117.392C158.043 117.392 157.934 117.419 157.852 117.419L157.851 117.42Z" fill="#222433"/>
<path d="M48.9387 157.959C49.2997 155.473 47.5972 153.17 45.1362 152.815C42.6752 152.46 40.3875 154.186 40.0266 156.672C39.6656 159.157 41.3681 161.46 43.8291 161.815C46.2901 162.171 48.5778 160.444 48.9387 157.959Z" fill="white"/>
<path d="M43.7529 162.309C41.0213 161.915 39.126 159.349 39.5259 156.59C39.9259 153.831 42.4745 151.907 45.206 152.301C47.9376 152.695 49.8329 155.261 49.433 158.02C49.0318 160.779 46.4844 162.703 43.7529 162.309ZM45.0594 153.308C42.8767 152.994 40.8407 154.529 40.5217 156.734C40.2015 158.937 41.7168 160.987 43.8995 161.302C46.0821 161.616 48.1182 160.08 48.4372 157.876C48.7574 155.673 47.2421 153.623 45.0594 153.308Z" fill="#222433"/>
<path d="M43.9098 195.598C43.6647 195.563 43.477 195.347 43.4805 195.089L43.9778 157.301C43.9813 157.02 44.21 156.795 44.488 156.797C44.766 156.799 44.9876 157.03 44.9841 157.31L44.4868 195.098C44.4833 195.379 44.2546 195.605 43.9766 195.602C43.9543 195.602 43.9321 195.6 43.9098 195.598Z" fill="#222433"/>
<path d="M163.66 119.147C161.817 121.704 158.994 119.681 158.994 119.681C153.034 124.089 151.744 111.08 151.744 111.08C152.619 107.469 155.858 108.769 156.357 110.305C156.828 107.471 160.004 107.124 161.17 109.428C161.805 106.764 165.285 106.377 165.904 110.896C166.083 112.206 167.121 116.084 167.121 116.084" fill="white"/>
<path d="M156.69 121.154C156.27 121.154 155.862 121.068 155.469 120.893C153.996 120.241 152.827 118.378 151.995 115.356C151.398 113.185 151.198 111.22 151.19 111.137C151.184 111.075 151.188 111.012 151.203 110.951C151.786 108.544 153.314 108.229 153.944 108.205C154.756 108.175 155.588 108.52 156.178 109.066C156.639 108.154 157.437 107.542 158.422 107.391C159.395 107.24 160.344 107.584 161.036 108.289C161.569 107.395 162.458 106.854 163.425 106.901C164.64 106.961 166.075 108.022 166.459 110.824C166.632 112.085 167.652 115.904 167.663 115.943C167.743 116.24 167.565 116.545 167.269 116.625C166.972 116.704 166.666 116.527 166.586 116.23C166.544 116.07 165.538 112.304 165.355 110.975C165.063 108.848 164.138 108.051 163.37 108.013C162.629 107.977 161.94 108.612 161.714 109.56C161.66 109.786 161.469 109.956 161.237 109.983C161.007 110.011 160.779 109.891 160.674 109.681C160.152 108.648 159.252 108.389 158.59 108.492C157.712 108.625 157.084 109.339 156.908 110.399C156.866 110.652 156.656 110.844 156.4 110.864C156.145 110.887 155.907 110.724 155.829 110.48C155.642 109.906 154.813 109.282 153.986 109.319C152.989 109.356 152.525 110.3 152.31 111.123C152.541 113.303 153.605 118.851 155.921 119.876C156.712 120.225 157.609 120.017 158.664 119.237C158.858 119.093 159.123 119.091 159.32 119.233C159.562 119.404 161.743 120.859 163.209 118.826C163.39 118.576 163.738 118.519 163.987 118.699C164.237 118.879 164.293 119.227 164.114 119.476C162.988 121.036 161.543 121.125 160.528 120.923C159.888 120.795 159.346 120.537 159.014 120.351C158.206 120.886 157.429 121.155 156.69 121.155V121.154Z" fill="#222433"/>
<path d="M161.172 109.438C161.172 109.438 161.092 111.757 162.796 116.539L161.172 109.438Z" fill="white"/>
<path d="M162.795 117.091C162.566 117.091 162.35 116.949 162.269 116.721C160.549 111.893 160.611 109.512 160.614 109.412C160.625 109.105 160.871 108.863 161.191 108.875C161.499 108.886 161.739 109.143 161.729 109.45C161.729 109.487 161.689 111.769 163.319 116.346C163.422 116.636 163.271 116.954 162.981 117.057C162.919 117.08 162.857 117.09 162.795 117.09V117.091Z" fill="#222433"/>
<path d="M156.359 110.305C156.359 110.305 156.793 114.508 158.065 117.052L156.359 110.305Z" fill="white"/>
<path d="M158.062 117.609C157.858 117.609 157.661 117.497 157.562 117.302C156.262 114.697 155.819 110.538 155.802 110.363C155.77 110.057 155.993 109.784 156.299 109.752C156.608 109.724 156.88 109.943 156.911 110.248C156.916 110.289 157.351 114.381 158.562 116.805C158.699 117.079 158.587 117.414 158.312 117.552C158.232 117.592 158.148 117.61 158.063 117.61L158.062 117.609Z" fill="#222433"/>
<path d="M329.528 178.97H0.608707C0.26389 178.97 0 178.688 0 178.321C0 177.954 0.26389 177.672 0.608707 177.672H329.528C329.873 177.672 330.137 177.954 330.137 178.321C330.137 178.688 329.873 178.97 329.528 178.97Z" fill="#222433"/>
<path d="M49.3753 71.3718L49.6228 69.3064C49.7354 68.3627 50.5951 67.689 51.5404 67.8013C51.8066 67.8329 52.0623 67.9264 52.2863 68.0738L57.1196 71.249L51.6717 73.1974C50.7745 73.519 49.787 73.0547 49.4633 72.16C49.3718 71.9074 49.3413 71.6373 49.3741 71.3718H49.3753Z" fill="#FFA2A2"/>
<path d="M56.9947 63.5211L59.0671 63.7679C60.0136 63.879 60.6903 64.735 60.5777 65.6788C60.5461 65.9455 60.4522 66.2004 60.3045 66.4238L57.1202 71.2434L55.1639 65.811C54.8425 64.9151 55.3105 63.9292 56.2089 63.6088C56.4611 63.5187 56.7296 63.4883 56.9947 63.5199V63.5211Z" fill="#FFA2A2"/>
<path d="M301.295 109.861L302.05 112.351C302.181 112.784 302.522 113.122 302.957 113.253L305.455 114.007C305.618 114.056 305.709 114.228 305.66 114.39C305.631 114.488 305.553 114.565 305.455 114.594L302.957 115.349C302.523 115.48 302.183 115.818 302.05 116.25L301.295 118.74C301.247 118.903 301.075 118.996 300.912 118.948C300.812 118.919 300.733 118.841 300.704 118.74L299.947 116.25C299.816 115.818 299.477 115.479 299.043 115.349L296.545 114.594C296.382 114.545 296.29 114.373 296.339 114.212C296.369 114.114 296.446 114.037 296.545 114.007L299.043 113.253C299.477 113.122 299.817 112.784 299.947 112.351L300.704 109.861C300.752 109.699 300.923 109.605 301.086 109.653C301.187 109.682 301.265 109.761 301.295 109.861Z" fill="#FFA2A2"/>
</g>
<defs>
<clipPath id="clip0_23098_19244">
<rect width="330.137" height="210.45" fill="white"/>
</clipPath>
</defs>
</svg>
