<svg width="37" height="37" viewBox="0 0 37 37" fill="none" xmlns="http://www.w3.org/2000/svg">
<g id="Download">
<path id="Vector" d="M18.2468 24.6588C18.2769 24.6972 18.3153 24.7283 18.3591 24.7496C18.403 24.771 18.4511 24.7821 18.4999 24.7821C18.5487 24.7821 18.5969 24.771 18.6407 24.7496C18.6846 24.7283 18.723 24.6972 18.7531 24.6588L23.2531 18.9655C23.4178 18.7565 23.2691 18.4472 22.9999 18.4472H20.0227V4.85073C20.0227 4.67394 19.8781 4.5293 19.7013 4.5293H17.2906C17.1138 4.5293 16.9691 4.67394 16.9691 4.85073V18.4431H13.9999C13.7307 18.4431 13.5821 18.7525 13.7468 18.9614L18.2468 24.6588ZM33.2053 23.2525H30.7946C30.6178 23.2525 30.4731 23.3972 30.4731 23.5739V29.7614H6.52672V23.5739C6.52672 23.3972 6.38207 23.2525 6.20529 23.2525H3.79457C3.61779 23.2525 3.47314 23.3972 3.47314 23.5739V31.5293C3.47314 32.2405 4.0477 32.815 4.75886 32.815H32.241C32.9522 32.815 33.5267 32.2405 33.5267 31.5293V23.5739C33.5267 23.3972 33.3821 23.2525 33.2053 23.2525Z" fill="#52C41A"/>
</g>
</svg>
