<svg width="37" height="36" viewBox="0 0 37 36" fill="none" xmlns="http://www.w3.org/2000/svg">
<g id="Download">
<path id="Vector" d="M17.9407 23.9791C17.9707 24.0175 18.0091 24.0486 18.053 24.0699C18.0968 24.0913 18.145 24.1024 18.1938 24.1024C18.2426 24.1024 18.2907 24.0913 18.3346 24.0699C18.3784 24.0486 18.4168 24.0175 18.4469 23.9791L22.9469 18.2858C23.1116 18.0768 22.963 17.7675 22.6938 17.7675H19.7165V4.17104C19.7165 3.99425 19.5719 3.84961 19.3951 3.84961H16.9844C16.8076 3.84961 16.663 3.99425 16.663 4.17104V17.7634H13.6938C13.4246 17.7634 13.2759 18.0728 13.4407 18.2818L17.9407 23.9791ZM32.8991 22.5728H30.4884C30.3116 22.5728 30.167 22.7175 30.167 22.8943V29.0818H6.22056V22.8943C6.22056 22.7175 6.07592 22.5728 5.89914 22.5728H3.48842C3.31164 22.5728 3.16699 22.7175 3.16699 22.8943V30.8496C3.16699 31.5608 3.74155 32.1353 4.45271 32.1353H31.9349C32.646 32.1353 33.2206 31.5608 33.2206 30.8496V22.8943C33.2206 22.7175 33.0759 22.5728 32.8991 22.5728Z" fill="#8C8C8C"/>
</g>
</svg>
