<svg width="26" height="26" viewBox="0 0 26 26" fill="none" xmlns="http://www.w3.org/2000/svg">
<circle cx="13" cy="13" r="13" fill="#FFC700"/>
<path d="M13 4.75C8.45068 4.75 4.75 8.45068 4.75 13C4.75 17.5493 8.45068 21.25 13 21.25C17.5493 21.25 21.25 17.5493 21.25 13C21.25 8.45068 17.5493 4.75 13 4.75ZM13 6.125C16.8054 6.125 19.875 9.19458 19.875 13C19.875 16.8054 16.8054 19.875 13 19.875C9.19458 19.875 6.125 16.8054 6.125 13C6.125 9.19458 9.19458 6.125 13 6.125ZM12.3125 7.5V13.6875H17.125V12.3125H13.6875V7.5H12.3125Z" fill="white"/>
</svg>
