<svg width="38" height="39" viewBox="0 0 38 39" fill="none" xmlns="http://www.w3.org/2000/svg">
<circle cx="19.1823" cy="19.6803" r="18.8209" fill="white"/>
<g clip-path="url(#clip0_18080_19831)">
<path d="M10.125 10C9.50781 10 9 10.5078 9 11.125V12.8H26.6V11.125C26.6 10.5078 26.0922 10 25.475 10H10.125ZM9 13.6V26C9 26.2219 9.17969 26.4 9.4 26.4H21.025C21.2266 28.4188 22.9297 30 25 30C27.2063 30 29 28.2063 29 26C29 24.3625 28.0109 22.9563 26.6 22.3375V13.6H9ZM11.8 16H13.4V16.8H11.8V16ZM14.6 16H23.8V16.8H14.6V16ZM11.8 18H13.4V18.8H11.8V18ZM14.6 18H23.8V18.8H14.6V18ZM11.8 20H13.4V20.8H11.8V20ZM14.6 20H23.8V20.8H14.6V20ZM11.8 22H13.4V22.8H11.8V22ZM14.6 22H21V22.8H14.6V22ZM25 22.8C26.7641 22.8 28.2 24.2359 28.2 26C28.2 27.7641 26.7641 29.2 25 29.2C23.2406 29.2 21.8078 27.7703 21.8 26.0125C21.8 26.0078 21.8 26.0047 21.8 26C21.8 25.9953 21.8 25.9922 21.8 25.9875C21.8078 24.2297 23.2406 22.8 25 22.8ZM23.6 24.2C23.4984 24.2 23.3906 24.2344 23.3125 24.3125C23.1562 24.4688 23.1562 24.7312 23.3125 24.8875L24.425 26L23.3125 27.1125C23.1562 27.2688 23.1562 27.5312 23.3125 27.6875C23.3906 27.7656 23.4969 27.8 23.6 27.8C23.7031 27.8 23.8094 27.7656 23.8875 27.6875L25 26.575L26.1125 27.6875C26.1906 27.7656 26.2969 27.8 26.4 27.8C26.5031 27.8 26.6094 27.7656 26.6875 27.6875C26.8438 27.5312 26.8438 27.2688 26.6875 27.1125L25.575 26L26.6875 24.8875C26.8438 24.7312 26.8438 24.4688 26.6875 24.3125C26.5312 24.1562 26.2688 24.1562 26.1125 24.3125L25 25.425L23.8875 24.3125C23.8094 24.2344 23.7016 24.2 23.6 24.2Z" fill="black"/>
</g>
<defs>
<clipPath id="clip0_18080_19831">
<rect width="20" height="20" fill="white" transform="translate(9 10)"/>
</clipPath>
</defs>
</svg>
