<svg width="37" height="37" viewBox="0 0 37 37" fill="none" xmlns="http://www.w3.org/2000/svg">
<g id="Picture" clip-path="url(#clip0_625_36534)">
<path id="Vector" d="M35.2143 4.5293H1.78571C1.07455 4.5293 0.5 5.10385 0.5 5.81501V31.5293C0.5 32.2405 1.07455 32.815 1.78571 32.815H35.2143C35.9254 32.815 36.5 32.2405 36.5 31.5293V5.81501C36.5 5.10385 35.9254 4.5293 35.2143 4.5293ZM33.6071 29.9222H3.39286V28.319L8.95759 21.7177L14.9884 28.8695L24.3701 17.748L33.6071 28.7007V29.9222ZM33.6071 24.707L24.6152 14.0436C24.4866 13.8909 24.2536 13.8909 24.125 14.0436L14.9884 24.8757L9.20268 18.0172C9.07411 17.8646 8.84107 17.8646 8.7125 18.0172L3.39286 24.3253V7.42215H33.6071V24.707ZM10.1429 16.4222C10.6072 16.4222 11.0669 16.3307 11.4959 16.153C11.9249 15.9753 12.3147 15.7149 12.643 15.3866C12.9713 15.0582 13.2317 14.6685 13.4094 14.2395C13.5871 13.8105 13.6786 13.3508 13.6786 12.8864C13.6786 12.4221 13.5871 11.9624 13.4094 11.5334C13.2317 11.1044 12.9713 10.7146 12.643 10.3863C12.3147 10.058 11.9249 9.79755 11.4959 9.61987C11.0669 9.44218 10.6072 9.35073 10.1429 9.35073C9.20513 9.35073 8.3058 9.72324 7.64273 10.3863C6.97965 11.0494 6.60714 11.9487 6.60714 12.8864C6.60714 13.8242 6.97965 14.7235 7.64273 15.3866C8.3058 16.0496 9.20513 16.4222 10.1429 16.4222ZM10.1429 11.7614C10.7656 11.7614 11.2679 12.2637 11.2679 12.8864C11.2679 13.5092 10.7656 14.0114 10.1429 14.0114C9.52009 14.0114 9.01786 13.5092 9.01786 12.8864C9.01786 12.2637 9.52009 11.7614 10.1429 11.7614Z" fill="#52C41A"/>
</g>
<defs>
<clipPath id="clip0_625_36534">
<rect width="36" height="36" fill="white" transform="translate(0.5 0.679688)"/>
</clipPath>
</defs>
</svg>
