<svg width="41" height="41" viewBox="0 0 41 41" fill="none" xmlns="http://www.w3.org/2000/svg">
<circle cx="20.6567" cy="20.0961" r="20.0336" fill="white"/>
<path d="M30.5324 11.3359H11.4658C10.5081 11.3359 9.73242 12.1116 9.73242 13.0693V26.9359C9.73242 27.8936 10.5081 28.6693 11.4658 28.6693H30.5324C31.4901 28.6693 32.2658 27.8936 32.2658 26.9359V13.0693C32.2658 12.1116 31.4901 11.3359 30.5324 11.3359ZM19.2658 25.2026H14.9324C14.454 25.2026 14.0658 24.8152 14.0658 24.3359C14.0658 23.8567 14.454 23.4693 14.9324 23.4693H19.2658C19.7442 23.4693 20.1324 23.8567 20.1324 24.3359C20.1324 24.8152 19.7442 25.2026 19.2658 25.2026ZM21.8658 21.7359H14.9324C14.454 21.7359 14.0658 21.3485 14.0658 20.8693C14.0658 20.39 14.454 20.0026 14.9324 20.0026H21.8658C22.3442 20.0026 22.7324 20.39 22.7324 20.8693C22.7324 21.3485 22.3442 21.7359 21.8658 21.7359ZM27.0658 25.2026H26.1991C25.7207 25.2026 25.3324 24.8152 25.3324 24.3359C25.3324 23.8567 25.7207 23.4693 26.1991 23.4693H27.0658C27.5442 23.4693 27.9324 23.8567 27.9324 24.3359C27.9324 24.8152 27.5442 25.2026 27.0658 25.2026ZM27.0658 21.7359H26.1991C25.7207 21.7359 25.3324 21.3485 25.3324 20.8693C25.3324 20.39 25.7207 20.0026 26.1991 20.0026H27.0658C27.5442 20.0026 27.9324 20.39 27.9324 20.8693C27.9324 21.3485 27.5442 21.7359 27.0658 21.7359ZM27.0658 16.5359H14.9324C14.454 16.5359 14.0658 16.1485 14.0658 15.6693C14.0658 15.19 14.454 14.8026 14.9324 14.8026H27.0658C27.5442 14.8026 27.9324 15.19 27.9324 15.6693C27.9324 16.1485 27.5442 16.5359 27.0658 16.5359Z" fill="black"/>
</svg>
