<svg width="44" height="43" viewBox="0 0 44 43" fill="none" xmlns="http://www.w3.org/2000/svg">
<path d="M37.2493 18.6918L37.2409 18.6583L32.5416 6.71735C32.3322 6.04303 31.7081 5.57812 31.0003 5.57812H11.9517C11.2397 5.57812 10.6073 6.05141 10.4062 6.73411L6.01265 18.5536L6.00008 18.5829L5.99171 18.6164C5.93726 18.8217 5.9205 19.0311 5.94982 19.2363C5.94563 19.3033 5.94145 19.3703 5.94145 19.4373V34.7625C5.94255 35.4375 6.2112 36.0846 6.68852 36.5619C7.16585 37.0392 7.81292 37.3079 8.48796 37.309H34.7572C36.1603 37.309 37.3037 36.1656 37.3079 34.7625V19.4373C37.3079 19.3829 37.3079 19.3284 37.3037 19.2824C37.3205 19.0771 37.3037 18.8803 37.2493 18.6918ZM24.8602 16.8908L24.8476 17.5484C24.8141 19.429 23.5157 20.6938 21.6184 20.6938C20.6928 20.6938 19.897 20.3965 19.3232 19.831C18.7494 19.2656 18.4353 18.4782 18.4185 17.5484L18.4059 16.8908H9.78634L13.1161 8.79477H29.8359L33.2578 16.8908H24.8602ZM9.1539 20.1075H15.7422C16.7599 22.499 18.9253 23.9105 21.6226 23.9105C23.0341 23.9105 24.345 23.5168 25.4047 22.7713C26.3345 22.1179 27.059 21.2048 27.5281 20.1075H34.0829V34.0923H9.1539V20.1075Z" fill="black"/>
</svg>
