<svg width="20" height="20" viewBox="0 0 20 20" fill="none" xmlns="http://www.w3.org/2000/svg">
<path d="M15.1373 0.0402748C14.9873 0.0668372 14.867 0.176212 14.8248 0.321525C14.7826 0.4684 14.8264 0.62465 14.9373 0.727775L18.6123 4.40277H0.399805C0.387305 4.40277 0.374805 4.40277 0.362305 4.40277C0.141992 4.41371 -0.0298828 4.60121 -0.0189453 4.82152C-0.00800782 5.04184 0.179492 5.21371 0.399805 5.20277H18.6123L14.9373 8.87777C14.8186 8.97465 14.7639 9.12934 14.7982 9.27934C14.8326 9.42777 14.9498 9.54496 15.0982 9.57934C15.2482 9.61371 15.4029 9.55902 15.4998 9.44027L19.8623 5.09027L20.1373 4.80277L19.8623 4.51527L15.4998 0.165275C15.417 0.0762124 15.2967 0.0308998 15.1748 0.0402748C15.1623 0.0402748 15.1498 0.0402748 15.1373 0.0402748ZM4.7248 10.4403C4.6373 10.4559 4.55918 10.4996 4.4998 10.5653L0.137305 14.9153L-0.137695 15.2028L0.137305 15.4903L4.4998 19.8403C4.59668 19.959 4.75137 20.0137 4.90137 19.9793C5.0498 19.945 5.16699 19.8278 5.20137 19.6793C5.23574 19.5293 5.18105 19.3746 5.0623 19.2778L1.3873 15.6028H19.5998C19.7436 15.6043 19.8779 15.5293 19.9514 15.4043C20.0232 15.2793 20.0232 15.1262 19.9514 15.0012C19.8779 14.8762 19.7436 14.8012 19.5998 14.8028H1.3873L5.0623 11.1278C5.19199 11.0075 5.22637 10.8168 5.14824 10.659C5.07168 10.4996 4.89824 10.4121 4.7248 10.4403Z" fill="black"/>
</svg>
