<svg width="17" height="18" viewBox="0 0 17 18" fill="none" xmlns="http://www.w3.org/2000/svg">
<g clip-path="url(#clip0_29340_34644)">
<path d="M12.6902 0.418985C12.5644 0.441257 12.4636 0.532963 12.4282 0.6548C12.3928 0.777948 12.4295 0.908957 12.5225 0.995422L15.6038 4.07674H0.333481C0.323001 4.07674 0.31252 4.07674 0.302039 4.07674C0.117318 4.08591 -0.0267917 4.24312 -0.0176211 4.42784C-0.00845053 4.61256 0.14876 4.75667 0.333481 4.7475H15.6038L12.5225 7.82882C12.4229 7.91005 12.3771 8.03974 12.4059 8.16551C12.4347 8.28997 12.533 8.38823 12.6574 8.41705C12.7832 8.44587 12.9129 8.40002 12.9941 8.30045L16.6519 4.65318L16.8825 4.41212L16.6519 4.17107L12.9941 0.523792C12.9247 0.449117 12.8238 0.411125 12.7216 0.418985C12.7112 0.418985 12.7007 0.418985 12.6902 0.418985ZM3.95979 9.13891C3.88643 9.15201 3.82093 9.18869 3.77114 9.24371L0.113387 12.891L-0.117188 13.132L0.113387 13.3731L3.77114 17.0204C3.85237 17.1199 3.98207 17.1658 4.10783 17.137C4.23229 17.1081 4.33055 17.0099 4.35937 16.8854C4.38819 16.7597 4.34234 16.63 4.24277 16.5487L1.16145 13.4674H16.4318C16.5523 13.4687 16.665 13.4058 16.7266 13.301C16.7868 13.1962 16.7868 13.0678 16.7266 12.963C16.665 12.8582 16.5523 12.7954 16.4318 12.7967H1.16145L4.24277 9.71534C4.35151 9.61447 4.38033 9.45464 4.31483 9.32232C4.25063 9.18869 4.10521 9.11532 3.95979 9.13891Z" fill="#ACACAC"/>
</g>
<defs>
<clipPath id="clip0_29340_34644">
<rect width="16.7691" height="16.7691" fill="white" transform="translate(0 0.395508)"/>
</clipPath>
</defs>
</svg>
