<svg width="19" height="22" viewBox="0 0 19 22" fill="none" xmlns="http://www.w3.org/2000/svg">
<path d="M13.9483 0.337891C12.6125 0.337891 11.4437 1.1165 10.8215 2.25718C10.3926 2.18864 9.95852 2.14645 9.53846 2.14118V2.13767H9.44882C4.22877 2.13767 0 6.36643 0 11.5865C0 16.8065 4.22877 21.0353 9.44882 21.0353C14.6689 21.0353 18.8976 16.8065 18.8976 11.5865C18.8976 9.56701 18.2122 7.58972 17.0258 5.99031C17.3387 5.27321 17.5478 4.61236 17.5478 4.11847C17.5478 2.04803 15.9273 0.337891 13.9483 0.337891ZM13.9483 1.23778C15.4334 1.23778 16.6479 2.54191 16.6479 4.11847C16.6479 5.19763 15.2084 7.71627 13.9483 9.56174C12.6881 7.71627 11.2486 5.19763 11.2486 4.11847C11.2486 2.54191 12.4631 1.23778 13.9483 1.23778ZM13.9483 2.13767C12.9587 2.13767 12.1485 2.94792 12.1485 3.93744C12.1485 4.92697 12.9587 5.73722 13.9483 5.73722C14.9378 5.73722 15.748 4.92697 15.748 3.93744C15.748 2.94792 14.9378 2.13767 13.9483 2.13767ZM13.9483 3.03755C14.4509 3.03755 14.8481 3.43477 14.8481 3.93744C14.8481 4.44011 14.4509 4.83733 13.9483 4.83733C13.4456 4.83733 13.0484 4.44011 13.0484 3.93744C13.0484 3.43477 13.4456 3.03755 13.9483 3.03755ZM9.89876 3.05864C10.0903 3.06743 10.2872 3.08501 10.484 3.10786C10.3997 3.43125 10.3487 3.76871 10.3487 4.11847C10.3487 4.75824 10.695 5.6757 11.1713 6.6371H9.89876V3.05864ZM8.99887 3.09731V6.6371H6.17267C6.83001 4.72308 7.84589 3.37853 8.99887 3.09731ZM6.92843 3.41544C6.22012 4.19756 5.63308 5.30309 5.21302 6.6371H2.48524C3.56264 5.12557 5.11284 3.97435 6.92843 3.41544ZM16.5829 6.91305C17.4283 8.15566 17.9011 9.6215 17.9802 11.1365H14.3947C14.3929 10.9309 14.3841 10.7323 14.3718 10.5284C14.8921 9.77792 15.8201 8.38767 16.5829 6.91305ZM1.91929 7.53699H4.96344C4.6998 8.63197 4.54162 9.84471 4.51174 11.1365H0.922736C0.989525 9.83944 1.33577 8.61791 1.91929 7.53699ZM5.89848 7.53699H8.99887V11.1365H5.41163C5.44502 9.84823 5.61375 8.62318 5.89848 7.53699ZM9.89876 7.53699H11.6528C12.3014 8.70227 12.9921 9.75507 13.4544 10.4265C13.4684 10.6585 13.4772 10.8975 13.4843 11.1365H9.89876V7.53699ZM0.922736 12.0364H4.51174C4.54162 13.3283 4.6998 14.541 4.96344 15.636H1.91929C1.33577 14.5551 0.989525 13.3335 0.922736 12.0364ZM5.41163 12.0364H8.99887V15.636H5.89848C5.61375 14.5498 5.44502 13.3247 5.41163 12.0364ZM9.89876 12.0364H13.486C13.4526 13.3247 13.2839 14.5498 12.9992 15.636H9.89876V12.0364ZM14.3859 12.0364H17.9749C17.9081 13.3335 17.5619 14.5551 16.9783 15.636H13.9342C14.1978 14.541 14.356 13.3283 14.3859 12.0364ZM2.48524 16.5359H5.21302C5.63308 17.8699 6.22012 18.9754 6.92843 19.7575C5.11284 19.1986 3.56264 18.0474 2.48524 16.5359ZM6.17267 16.5359H8.99887V20.0774C7.84765 19.7944 6.83001 18.4499 6.17267 16.5359ZM9.89876 16.5359H12.725C12.0676 18.4499 11.05 19.7944 9.89876 20.0774V16.5359ZM13.6846 16.5359H16.4124C15.335 18.0474 13.7848 19.1986 11.9692 19.7575C12.6775 18.9754 13.2646 17.8699 13.6846 16.5359Z" fill="#ACACAC"/>
</svg>
