<svg width="40" height="40" viewBox="0 0 40 40" fill="none" xmlns="http://www.w3.org/2000/svg">
<path d="M20.0001 1.59375C9.84753 1.59375 1.6001 9.84119 1.6001 19.9937C1.6001 30.1463 9.84753 38.3937 20.0001 38.3937C30.1527 38.3937 38.4001 30.1463 38.4001 19.9937C38.4001 9.84119 30.1527 1.59375 20.0001 1.59375ZM20.0001 3.19375C29.288 3.19375 36.8001 10.7059 36.8001 19.9937C36.8001 29.2816 29.288 36.7938 20.0001 36.7938C10.7122 36.7938 3.2001 29.2816 3.2001 19.9937C3.2001 10.7059 10.7122 3.19375 20.0001 3.19375ZM20.2313 10C17.2473 10 15.2688 11.8081 14.8376 14.5625C14.8096 14.7353 14.8945 14.8493 15.0673 14.8781L16.8751 15.1953C17.0479 15.2241 17.1619 15.1376 17.1907 14.9656C17.5347 13.2152 18.5671 12.2391 20.1735 12.2391C21.8095 12.2391 22.9563 13.2726 22.9563 14.9078C22.9563 15.8838 22.6127 16.5435 21.6095 17.9203L19.686 20.5594C19.0836 21.3922 18.8267 21.995 18.8267 23.1438V24.3188C18.8267 24.4908 18.9406 24.6063 19.1126 24.6031H21.0063C21.1783 24.6031 21.2923 24.4892 21.2923 24.3172V23.4C21.2923 22.4248 21.4656 22.0228 22.0392 21.2484L23.961 18.6078C24.937 17.259 25.4235 16.2557 25.4235 14.8781C25.4235 12.0373 23.3289 10 20.2313 10ZM18.9704 26.7875C18.7976 26.7875 18.6829 26.903 18.6829 27.075V29.5422C18.6829 29.7142 18.7968 29.8281 18.9704 29.8281H21.1517C21.3229 29.8281 21.4376 29.715 21.4376 29.5422V27.075C21.4376 26.9038 21.3237 26.7875 21.1517 26.7875H18.9704Z" fill="black"/>
</svg>
