<svg width="36" height="35" viewBox="0 0 36 35" fill="none" xmlns="http://www.w3.org/2000/svg">
<g id="Duotone/Handshake">
<path id="Vector" opacity="0.2" d="M27.5014 20.7041L22.518 25.6875C22.3822 25.8145 22.2176 25.9067 22.0384 25.9562C21.8591 26.0058 21.6706 26.0111 21.4888 25.9719L13.6346 24.0083C13.4911 23.9683 13.3574 23.8992 13.2418 23.8052L5.83447 18.0228L10.2491 9.72169L17.1961 7.69041C17.4429 7.61963 17.7069 7.63882 17.9409 7.74458L22.6263 9.87065H19.8232C19.6825 9.87015 19.5431 9.89741 19.413 9.95085C19.2829 10.0043 19.1645 10.0829 19.0648 10.1821L13.7564 15.477C13.648 15.5882 13.5645 15.7213 13.5114 15.8672C13.4583 16.0132 13.4368 16.1688 13.4483 16.3237C13.4598 16.4786 13.5041 16.6293 13.5782 16.7658C13.6524 16.9023 13.7547 17.0215 13.8783 17.1155L14.6096 17.6707C15.3605 18.2312 16.2725 18.534 17.2096 18.534C18.1467 18.534 19.0587 18.2312 19.8096 17.6707L21.543 16.3707L27.5014 20.7041Z" fill="#A4A4A4"/>
<path id="Vector_2" d="M33.0132 16.4939L29.6683 18.1595L25.335 9.87191L28.7204 8.17918C28.972 8.05094 29.2641 8.02737 29.533 8.11362C29.8019 8.19987 30.0258 8.38894 30.1559 8.63961L33.4871 15.0178C33.5547 15.1455 33.596 15.2854 33.6087 15.4293C33.6214 15.5732 33.6052 15.7181 33.561 15.8557C33.5169 15.9932 33.4457 16.1205 33.3516 16.2301C33.2575 16.3397 33.1424 16.4294 33.0132 16.4939V16.4939Z" stroke="#A4A4A4" stroke-width="2.16669" stroke-linecap="round" stroke-linejoin="round"/>
<path id="Vector_3" d="M5.83445 18.0251L2.48962 16.3459C2.36083 16.2828 2.24605 16.1944 2.1521 16.0861C2.05815 15.9777 1.98695 15.8515 1.94273 15.7151C1.89852 15.5787 1.88219 15.4347 1.89471 15.2919C1.90724 15.149 1.94837 15.0101 2.01566 14.8834L5.34694 8.50522C5.47726 8.25474 5.70022 8.06503 5.96833 7.9765C6.23645 7.88797 6.52853 7.90762 6.78238 8.03126L10.1678 9.72398L5.83445 18.0251Z" stroke="#A4A4A4" stroke-width="2.16669" stroke-linecap="round" stroke-linejoin="round"/>
<path id="Vector_4" d="M29.6681 18.1667L27.5014 20.7125L22.518 25.6959C22.3822 25.8229 22.2176 25.9151 22.0384 25.9647C21.8591 26.0142 21.6706 26.0196 21.4888 25.9803L13.6346 24.0167C13.4911 23.9767 13.3574 23.9076 13.2418 23.8136L5.83447 18.0312" stroke="#A4A4A4" stroke-width="2.16669" stroke-linecap="round" stroke-linejoin="round"/>
<path id="Vector_5" d="M27.5019 20.7006L21.5435 16.3673L19.8102 17.6673C19.0592 18.2278 18.1472 18.5306 17.2101 18.5306C16.273 18.5306 15.3611 18.2278 14.6101 17.6673L13.8788 17.1121C13.7552 17.0181 13.6529 16.8989 13.5788 16.7623C13.5046 16.6258 13.4603 16.4751 13.4488 16.3202C13.4373 16.1653 13.4588 16.0097 13.5119 15.8638C13.5651 15.7178 13.6486 15.5848 13.757 15.4735L19.0654 10.1787C19.1651 10.0794 19.2834 10.0008 19.4135 9.9474C19.5436 9.89396 19.683 9.8667 19.8237 9.86719H25.3352" stroke="#A4A4A4" stroke-width="2.16669" stroke-linecap="round" stroke-linejoin="round"/>
<path id="Vector_6" d="M10.2495 9.72169L17.1965 7.69041C17.4433 7.61963 17.7073 7.63882 17.9413 7.74458L22.6267 9.87065" stroke="#A4A4A4" stroke-width="2.16669" stroke-linecap="round" stroke-linejoin="round"/>
<path id="Vector_7" d="M15.5849 28.8276L11.5088 27.7985C11.3427 27.7609 11.1889 27.6817 11.0619 27.5683L8.00146 24.9141" stroke="#A4A4A4" stroke-width="2.16669" stroke-linecap="round" stroke-linejoin="round"/>
</g>
</svg>
