<svg width="38" height="38" viewBox="0 0 38 38" fill="none" xmlns="http://www.w3.org/2000/svg">
<path d="M18.9013 3.17188C14.7501 3.17188 11.3538 6.56825 11.3538 10.7194C11.3538 14.8705 14.7501 18.2669 18.9013 18.2669C23.0524 18.2669 26.4488 14.8705 26.4488 10.7194C26.4488 6.56825 23.0524 3.17188 18.9013 3.17188ZM6.03071 3.92073C5.87403 3.9271 5.72323 3.98212 5.59925 4.07812C5.47527 4.17413 5.38427 4.30636 5.33888 4.45646C5.2935 4.60655 5.29598 4.76706 5.346 4.91567C5.39601 5.06429 5.49106 5.19364 5.61796 5.28577L8.63696 7.55002C8.71633 7.60948 8.80663 7.65272 8.90271 7.67728C8.99879 7.70183 9.09877 7.70722 9.19694 7.69313C9.2951 7.67904 9.38953 7.64576 9.47483 7.59517C9.56013 7.54458 9.63462 7.47768 9.69406 7.3983C9.7535 7.31892 9.79672 7.2286 9.82125 7.13251C9.84578 7.03642 9.85115 6.93644 9.83703 6.83828C9.82292 6.74012 9.7896 6.6457 9.73899 6.56042C9.68838 6.47513 9.62147 6.40066 9.54207 6.34124L6.52307 4.07699C6.38243 3.96862 6.2081 3.91329 6.03071 3.92073ZM31.7497 3.92073C31.5798 3.91841 31.4142 3.97347 31.2795 4.07699L28.2605 6.34124C28.1811 6.40066 28.1142 6.47513 28.0635 6.56042C28.0129 6.6457 27.9796 6.74012 27.9655 6.83828C27.9514 6.93644 27.9568 7.03642 27.9813 7.13251C28.0058 7.2286 28.049 7.31892 28.1085 7.3983C28.1679 7.47768 28.2424 7.54458 28.3277 7.59517C28.413 7.64576 28.5074 7.67904 28.6056 7.69313C28.7038 7.70722 28.8037 7.70183 28.8998 7.67728C28.9959 7.65272 29.0862 7.60948 29.1656 7.55002L32.1846 5.28577C32.3128 5.19246 32.4083 5.06116 32.4577 4.91049C32.507 4.75982 32.5077 4.59744 32.4596 4.44637C32.4114 4.29531 32.317 4.16323 32.1896 4.06888C32.0621 3.97453 31.9082 3.92269 31.7497 3.92073ZM19.5057 7.70038H19.656V13.7384H18.1465V9.28506L16.637 9.66243V8.60549L19.5057 7.70038ZM4.56101 9.96463C4.461 9.96321 4.3617 9.98169 4.26889 10.019C4.17608 10.0563 4.09161 10.1116 4.02038 10.1819C3.94916 10.2521 3.8926 10.3358 3.854 10.4281C3.81539 10.5203 3.79551 10.6194 3.79551 10.7194C3.79551 10.8194 3.81539 10.9184 3.854 11.0107C3.8926 11.103 3.94916 11.1867 4.02038 11.2569C4.09161 11.3271 4.17608 11.3825 4.26889 11.4198C4.3617 11.4571 4.461 11.4755 4.56101 11.4741H8.33476C8.43478 11.4755 8.53407 11.4571 8.62688 11.4198C8.71969 11.3825 8.80417 11.3271 8.87539 11.2569C8.94662 11.1867 9.00318 11.103 9.04178 11.0107C9.08038 10.9184 9.10026 10.8194 9.10026 10.7194C9.10026 10.6194 9.08038 10.5203 9.04178 10.4281C9.00318 10.3358 8.94662 10.2521 8.87539 10.1819C8.80417 10.1116 8.71969 10.0563 8.62688 10.019C8.53407 9.98169 8.43478 9.96321 8.33476 9.96463H4.56101ZM29.4678 9.96463C29.3678 9.96321 29.2685 9.98169 29.1757 10.019C29.0828 10.0563 28.9984 10.1116 28.9271 10.1819C28.8559 10.2521 28.7994 10.3358 28.7608 10.4281C28.7222 10.5203 28.7023 10.6194 28.7023 10.7194C28.7023 10.8194 28.7222 10.9184 28.7608 11.0107C28.7994 11.103 28.8559 11.1867 28.9271 11.2569C28.9984 11.3271 29.0828 11.3825 29.1757 11.4198C29.2685 11.4571 29.3678 11.4755 29.4678 11.4741H33.2415C33.3415 11.4755 33.4408 11.4571 33.5336 11.4198C33.6265 11.3825 33.7109 11.3271 33.7822 11.2569C33.8534 11.1867 33.9099 11.103 33.9485 11.0107C33.9871 10.9184 34.007 10.8194 34.007 10.7194C34.007 10.6194 33.9871 10.5203 33.9485 10.4281C33.9099 10.3358 33.8534 10.2521 33.7822 10.1819C33.7109 10.1116 33.6265 10.0563 33.5336 10.019C33.4408 9.98169 33.3415 9.96321 33.2415 9.96463H29.4678ZM9.1072 13.7325C8.93734 13.7302 8.77166 13.7852 8.63696 13.8887L5.61796 16.153C5.45766 16.273 5.35161 16.4518 5.32314 16.65C5.29467 16.8482 5.3461 17.0496 5.46612 17.2099C5.58615 17.3702 5.76493 17.4763 5.96315 17.5048C6.16137 17.5332 6.36277 17.4818 6.52307 17.3618L9.54207 15.0975C9.67025 15.0042 9.7658 14.8729 9.81516 14.7222C9.86452 14.5716 9.86518 14.4092 9.81706 14.2581C9.76893 14.1071 9.67446 13.975 9.54704 13.8806C9.41963 13.7863 9.26574 13.7344 9.1072 13.7325ZM28.6732 13.7325C28.5165 13.7389 28.3657 13.7939 28.2418 13.8899C28.1178 13.9859 28.0268 14.1181 27.9814 14.2682C27.936 14.4183 27.9385 14.5788 27.9885 14.7274C28.0385 14.876 28.1336 15.0054 28.2605 15.0975L31.2795 17.3618C31.4398 17.4818 31.6412 17.5332 31.8394 17.5048C32.0376 17.4763 32.2164 17.3702 32.3364 17.2099C32.4564 17.0496 32.5079 16.8482 32.4794 16.65C32.4509 16.4518 32.3449 16.273 32.1846 16.153L29.1656 13.8887C29.0249 13.7804 28.8506 13.725 28.6732 13.7325ZM33.4995 19.7779C32.9523 19.7598 32.3954 19.8993 31.9001 20.2112L24.8435 24.5614C25.3786 25.1071 25.6911 25.847 25.6911 26.6266C25.6911 28.2644 24.36 29.597 22.7222 29.597C22.4912 29.597 22.2608 29.5695 22.0397 29.5174C21.4593 29.38 14.0461 27.1603 13.2023 26.9082C12.8031 26.7882 12.576 26.367 12.6952 25.9677C12.8152 25.5684 13.2372 25.3428 13.6357 25.4621C16.9309 26.4493 21.9822 27.954 22.389 28.0506C22.497 28.0763 22.609 28.089 22.7222 28.089C23.5275 28.089 24.1816 27.4334 24.1816 26.6281C24.1816 26.1081 23.9113 25.6407 23.4593 25.378C23.2396 25.2505 15.7899 21.9934 14.2917 21.336C11.9444 20.305 9.23937 20.2795 6.87096 21.2652L2.00341 23.2922C1.61849 23.4507 1.53906 23.8006 1.53906 24.2783V33.3693C1.53906 33.7859 1.87719 34.124 2.29381 34.124C2.52401 34.124 2.70809 34 2.73752 33.9781L5.36736 32.0484C6.70779 31.065 8.49471 30.8488 10.0669 31.4956L18.8939 34.6252C19.3898 34.8011 19.9035 34.8876 20.4137 34.8876C21.3881 34.8876 22.3481 34.5738 23.1497 33.9663L35.0282 24.9653C36.2893 24.0958 36.6357 22.4005 35.8183 21.1046C35.2956 20.2753 34.4115 19.8079 33.4995 19.7779Z" fill="#FF4F4F"/>
</svg>
