<svg width="36" height="35" viewBox="0 0 36 35" fill="none" xmlns="http://www.w3.org/2000/svg">
<g id="Duotone/Notebook">
<path id="Vector" opacity="0.2" d="M11.4997 29.2477H7.16635C6.87903 29.2477 6.60348 29.1335 6.40031 28.9304C6.19715 28.7272 6.08301 28.4516 6.08301 28.1643V6.49741C6.08301 6.21009 6.19715 5.93453 6.40031 5.73137C6.60348 5.5282 6.87903 5.41406 7.16635 5.41406H11.4997V29.2477Z" fill="#8B8B8B"/>
<path id="Vector_2" d="M15.8335 15.1641H24.5003" stroke="#8B8B8B" stroke-width="2.16669" stroke-linecap="round" stroke-linejoin="round"/>
<path id="Vector_3" d="M15.8335 19.5H24.5003" stroke="#8B8B8B" stroke-width="2.16669" stroke-linecap="round" stroke-linejoin="round"/>
<path id="Vector_4" d="M28.8333 5.41406H7.16635C6.56804 5.41406 6.08301 5.89909 6.08301 6.49741V28.1643C6.08301 28.7626 6.56804 29.2477 7.16635 29.2477H28.8333C29.4316 29.2477 29.9166 28.7626 29.9166 28.1643V6.49741C29.9166 5.89909 29.4316 5.41406 28.8333 5.41406Z" stroke="#8B8B8B" stroke-width="2.16669" stroke-linecap="round" stroke-linejoin="round"/>
<path id="Vector_5" d="M11.5 5.41406V29.2477" stroke="#8B8B8B" stroke-width="2.16669" stroke-linecap="round" stroke-linejoin="round"/>
</g>
</svg>
