<svg width="38" height="38" viewBox="0 0 38 38" fill="none" xmlns="http://www.w3.org/2000/svg">
<g id="icons8-progress 3">
<path id="Vector" d="M19 1.52344C18.3275 1.52344 17.6761 1.56803 17.0436 1.63922L17.3835 4.65992C17.9259 4.59887 18.4625 4.56344 19 4.56344C26.993 4.56344 33.44 11.0104 33.44 19.0034C33.44 26.9965 26.993 33.4434 19 33.4434C18.4654 33.4434 17.932 33.4082 17.3924 33.3484L17.0569 36.3706C17.6847 36.4401 18.3322 36.4834 19 36.4834C28.6359 36.4834 36.48 28.6394 36.48 19.0034C36.48 9.36749 28.6359 1.52344 19 1.52344ZM13.2287 2.51648C11.9838 2.95255 10.8039 3.52418 9.70482 4.21609L11.3243 6.78852C12.2316 6.21731 13.2047 5.74619 14.2337 5.38578L13.2287 2.51648ZM6.63811 6.64453C5.70546 7.57718 4.90112 8.61464 4.20967 9.71273L6.78209 11.3322C7.36744 10.4026 8.03445 9.54694 8.78748 8.79391L6.63811 6.64453ZM25.3353 10.5603L17.1846 22.7871L11.6494 17.8679L9.63061 20.139L17.7754 27.3798L27.8647 12.2466L25.3353 10.5603ZM2.51154 13.2381C2.08784 14.448 1.78243 15.7236 1.63428 17.0545L4.65498 17.3899C4.77586 16.304 5.0263 15.2554 5.38084 14.243L2.51154 13.2381ZM4.65795 20.6259L1.63725 20.9643C1.78625 22.2953 2.09257 23.5701 2.516 24.7791L5.38529 23.7742C5.03048 22.7611 4.77951 21.7117 4.65795 20.6259ZM6.78803 26.6821L4.21709 28.3045C4.9097 29.4031 5.71425 30.4378 6.64701 31.3698L8.7949 29.2189C8.04046 28.4651 7.37374 27.6112 6.78803 26.6821ZM11.3332 31.2228L9.71521 33.7967C10.8144 34.4878 11.9947 35.0581 13.2406 35.4934L14.244 32.6241C13.2145 32.2644 12.2404 31.7933 11.3332 31.2228Z" fill="#A8E18C"/>
</g>
</svg>
