<svg width="31" height="40" viewBox="0 0 31 40" fill="none" xmlns="http://www.w3.org/2000/svg">
<path d="M10.6885 22.3645C10.6885 23.6995 9.59532 24.7817 8.24683 24.7817C6.89835 24.7817 5.80518 23.6995 5.80518 22.3645C5.80518 21.0295 6.89835 19.9473 8.24683 19.9473C9.59532 19.9473 10.6885 21.0295 10.6885 22.3645ZM10.6885 29.6162C10.6885 30.9512 9.59532 32.0335 8.24683 32.0335C6.89835 32.0335 5.80518 30.9512 5.80518 29.6162C5.80518 28.2812 6.89835 27.199 8.24683 27.199C9.59532 27.199 10.6885 28.2812 10.6885 29.6162ZM22.8968 24.7817C24.2452 24.7817 25.3384 23.6995 25.3384 22.3645C25.3384 21.0295 24.2452 19.9473 22.8968 19.9473C21.5483 19.9473 20.4551 21.0295 20.4551 22.3645C20.4551 23.6995 21.5483 24.7817 22.8968 24.7817ZM25.3384 29.6162C25.3384 30.9512 24.2452 32.0335 22.8968 32.0335C21.5483 32.0335 20.4551 30.9512 20.4551 29.6162C20.4551 28.2812 21.5483 27.199 22.8968 27.199C24.2452 27.199 25.3384 28.2812 25.3384 29.6162ZM15.5718 24.7817C16.9203 24.7817 18.0134 23.6995 18.0134 22.3645C18.0134 21.0295 16.9203 19.9473 15.5718 19.9473C14.2233 19.9473 13.1301 21.0295 13.1301 22.3645C13.1301 23.6995 14.2233 24.7817 15.5718 24.7817ZM18.0134 29.6162C18.0134 30.9512 16.9203 32.0335 15.5718 32.0335C14.2233 32.0335 13.1301 30.9512 13.1301 29.6162C13.1301 28.2812 14.2233 27.199 15.5718 27.199C16.9203 27.199 18.0134 28.2812 18.0134 29.6162ZM9.46766 5.44385C7.44493 5.44385 5.80518 7.0672 5.80518 9.0697V11.4869C5.80518 13.4894 7.44493 15.1128 9.46766 15.1128H21.6759C23.6987 15.1128 25.3384 13.4894 25.3384 11.4869V9.0697C25.3384 7.0672 23.6987 5.44385 21.6759 5.44385H9.46766ZM8.24683 9.0697C8.24683 8.4022 8.79342 7.86108 9.46766 7.86108H21.6759C22.3502 7.86108 22.8968 8.4022 22.8968 9.0697V11.4869C22.8968 12.1544 22.3502 12.6956 21.6759 12.6956H9.46766C8.79342 12.6956 8.24683 12.1544 8.24683 11.4869V9.0697ZM30.2217 33.2421C30.2217 36.5796 27.4888 39.2852 24.1176 39.2852H7.02601C3.65479 39.2852 0.921875 36.5796 0.921875 33.2421V6.65247C0.921875 3.31496 3.65479 0.609375 7.02601 0.609375H24.1176C27.4888 0.609375 30.2217 3.31496 30.2217 6.65247V33.2421ZM27.7801 6.65247C27.7801 4.64996 26.1403 3.02661 24.1176 3.02661H7.02601C5.00328 3.02661 3.36353 4.64996 3.36353 6.65247V33.2421C3.36353 35.2446 5.00328 36.8679 7.02601 36.8679H24.1176C26.1403 36.8679 27.7801 35.2446 27.7801 33.2421V6.65247Z" fill="#FF4F4F"/>
</svg>
