<svg width="34" height="34" viewBox="0 0 34 34" fill="none" xmlns="http://www.w3.org/2000/svg">
<path d="M15.9987 26.9154C15.9987 27.4676 16.4464 27.9154 16.9987 27.9154C17.551 27.9154 17.9987 27.4676 17.9987 26.9154H15.9987ZM17.9987 7.08203C17.9987 6.52975 17.551 6.08203 16.9987 6.08203C16.4464 6.08203 15.9987 6.52975 15.9987 7.08203H17.9987ZM20.5063 11.9408C20.7824 12.4191 21.394 12.5829 21.8723 12.3068C22.3506 12.0306 22.5145 11.4191 22.2383 10.9408L20.5063 11.9408ZM20.8403 10.5192L19.9742 11.0192L20.8403 10.5192ZM15.7663 16.5453L16.1115 15.6068L16.1115 15.6068L15.7663 16.5453ZM18.2314 17.4521L18.5766 16.5135L18.5766 16.5135L18.2314 17.4521ZM13.1575 23.4782L12.2914 23.9782L13.1575 23.4782ZM13.4914 22.0566C13.2153 21.5784 12.6037 21.4145 12.1254 21.6906C11.6471 21.9668 11.4832 22.5784 11.7594 23.0566L13.4914 22.0566ZM18.8799 25.0115L18.3799 24.1455L18.8799 25.0115ZM15.1178 8.98591L15.6178 9.85193L15.1178 8.98591ZM30.1654 16.9987C30.1654 24.2704 24.2704 30.1654 16.9987 30.1654V32.1654C25.375 32.1654 32.1654 25.375 32.1654 16.9987H30.1654ZM16.9987 30.1654C9.72695 30.1654 3.83203 24.2704 3.83203 16.9987H1.83203C1.83203 25.375 8.62238 32.1654 16.9987 32.1654V30.1654ZM3.83203 16.9987C3.83203 9.72695 9.72695 3.83203 16.9987 3.83203V1.83203C8.62238 1.83203 1.83203 8.62238 1.83203 16.9987H3.83203ZM16.9987 3.83203C24.2704 3.83203 30.1654 9.72695 30.1654 16.9987H32.1654C32.1654 8.62238 25.375 1.83203 16.9987 1.83203V3.83203ZM22.2383 10.9408L21.7063 10.0192L19.9742 11.0192L20.5063 11.9408L22.2383 10.9408ZM14.0235 22.9782L13.4914 22.0566L11.7594 23.0566L12.2914 23.9782L14.0235 22.9782ZM17.8862 18.3906C20.4238 19.324 20.7215 22.7936 18.3799 24.1455L19.3799 25.8775C23.1899 23.6778 22.7057 18.0323 18.5766 16.5135L17.8862 18.3906ZM14.6178 8.11988C10.8078 10.3196 11.292 15.9651 15.4211 17.4839L16.1115 15.6068C13.5739 14.6734 13.2763 11.2039 15.6178 9.85193L14.6178 8.11988ZM17.9987 26.9154V25.5682H15.9987V26.9154H17.9987ZM17.9987 25.5682V16.9987H15.9987V25.5682H17.9987ZM18.3799 24.1455C17.9254 24.4079 17.4359 24.545 16.9486 24.5694L17.0488 26.5669C17.8455 26.5269 18.6444 26.3021 19.3799 25.8775L18.3799 24.1455ZM16.9486 24.5694C15.7886 24.6276 14.6419 24.0493 14.0235 22.9782L12.2914 23.9782C13.2996 25.7243 15.1687 26.6613 17.0488 26.5669L16.9486 24.5694ZM15.421 17.4839L16.6535 17.9372L17.3439 16.0602L16.1115 15.6068L15.421 17.4839ZM16.6535 17.9372L17.8863 18.3906L18.5766 16.5135L17.3439 16.0602L16.6535 17.9372ZM17.9987 16.9987L17.9987 8.42924H15.9987L15.9987 16.9987H17.9987ZM17.9987 8.42924V7.08203H15.9987V8.42924H17.9987ZM21.7063 10.0192C20.6981 8.27294 18.8288 7.33601 16.9485 7.4305L17.0489 9.42798C18.209 9.36969 19.3558 9.948 19.9742 11.0192L21.7063 10.0192ZM16.9485 7.4305C16.1519 7.47053 15.3532 7.69535 14.6178 8.11988L15.6178 9.85193C16.0722 9.58959 16.5616 9.45247 17.0489 9.42798L16.9485 7.4305Z" fill="#FF4F4F"/>
</svg>
