<svg width="236" height="224" viewBox="0 0 236 224" fill="none" xmlns="http://www.w3.org/2000/svg">
<g clip-path="url(#clip0_23429_23253)">
<path d="M172.073 183.639C175.342 178.583 179.266 174.68 181.439 166.741C183.432 159.458 187.134 158.689 189.121 160.354C191.503 162.349 192.064 171.575 172.073 183.639Z" fill="#282828"/>
<path d="M171.233 183.281C171.512 183.401 171.793 183.519 172.074 183.635H172.075C176.125 185.311 183.46 187.919 187.674 189.225L191.105 183.314C191.105 183.314 191.617 178.309 190.803 176.903C183.259 172.622 178.902 169.272 178.893 169.266C178.893 169.266 172.697 178.088 171.233 183.281Z" fill="white"/>
<path d="M179.771 186.556C182.639 187.583 185.533 188.565 187.674 189.228L191.105 183.318L190.803 176.907C189.391 176.106 187.994 175.281 186.612 174.434L179.771 186.556Z" fill="#FFBABA"/>
<mask id="mask0_23429_23253" style="mask-type:luminance" maskUnits="userSpaceOnUse" x="177" y="175" width="16" height="15">
<path d="M177.971 183.453C179.92 185.641 181.916 187.801 183.424 189.344L189.44 185.645L192.486 179.839C191.679 178.5 190.896 177.147 190.139 175.78L177.971 183.453Z" fill="white"/>
</mask>
<g mask="url(#mask0_23429_23253)">
<path d="M189.055 176.18L188.282 175.778L181.802 186.97L182.575 187.372L189.055 176.18Z" fill="white"/>
</g>
<path d="M179.023 170.018C177.779 171.841 173.287 178.593 171.884 182.993C172.001 183.043 172.129 183.096 172.274 183.156C172.28 183.158 172.286 183.16 172.292 183.163C176.037 184.712 182.97 187.203 187.416 188.602L190.576 183.159C190.753 181.342 190.844 178.303 190.386 177.267C184.342 173.828 180.366 171.005 179.023 170.018ZM178.893 169.266C178.902 169.272 183.259 172.622 190.803 176.903C191.617 178.309 191.105 183.314 191.105 183.314L187.674 189.225C183.46 187.919 176.125 185.311 172.075 183.635H172.074C171.793 183.519 171.512 183.401 171.233 183.281C172.697 178.088 178.893 169.266 178.893 169.266Z" fill="#282828"/>
<path d="M186.68 210.74C188.019 210.566 190.203 209.83 192.514 206.939C196.772 201.611 207.757 184.44 207.757 184.44C205.595 183.604 204.187 183.06 202.952 182.561C202.963 182.557 202.975 182.554 202.985 182.551C191.27 177.403 194.33 178.728 191.023 177.272C191.013 177.268 191.004 177.263 190.995 177.26C190.526 177.053 190.26 176.94 190.256 176.946C189.072 179.068 190.405 181.102 189.941 183.129C189.926 183.195 189.91 183.262 189.893 183.329C189.447 185.028 187.878 188.37 186.687 190.722C182.792 198.419 183.83 206.895 186.654 210.707L186.655 210.707C186.663 210.719 186.671 210.729 186.68 210.74Z" fill="white"/>
<path d="M185.889 209.406C192.754 206.724 194.62 199.865 195.253 196.313C195.799 193.25 197.702 193.266 198.351 190.89C198.894 188.906 197.991 187.642 199.128 185.382C199.774 184.098 201.625 182.927 202.987 182.551C192.517 177.951 190.263 176.937 190.257 176.945C189.041 179.127 190.479 181.129 189.894 183.329C189.449 185.028 187.879 188.37 186.689 190.722C183.329 197.361 183.498 204.795 185.889 209.406Z" fill="#282828"/>
<path d="M190.352 186.522C190.392 186.522 190.431 186.514 190.468 186.498C190.504 186.482 190.536 186.458 190.561 186.429C192.088 184.685 192.813 184.435 194.258 183.936C194.646 183.802 195.087 183.65 195.603 183.448C198.09 182.473 198.89 180.995 198.923 180.932C198.954 180.871 198.959 180.801 198.936 180.737C198.913 180.673 198.864 180.62 198.8 180.59C198.736 180.559 198.663 180.554 198.595 180.575C198.527 180.596 198.471 180.641 198.438 180.701C198.425 180.725 197.673 182.079 195.396 182.972C194.891 183.17 194.456 183.32 194.072 183.452C192.584 183.966 191.765 184.249 190.144 186.1C190.111 186.138 190.09 186.183 190.083 186.232C190.077 186.28 190.085 186.33 190.107 186.374C190.129 186.418 190.163 186.456 190.207 186.482C190.25 186.508 190.301 186.522 190.352 186.522Z" fill="white"/>
<path d="M186.681 210.996C186.693 210.996 186.705 210.995 186.718 210.993C189.39 210.645 191.463 208.68 192.731 207.093C196.949 201.815 207.88 184.744 207.99 184.572C208.011 184.54 208.024 184.504 208.028 184.467C208.032 184.43 208.028 184.393 208.016 184.357C208.004 184.322 207.983 184.289 207.957 184.262C207.93 184.235 207.897 184.214 207.861 184.2C205.681 183.357 204.361 182.846 203.182 182.371C203.159 182.348 203.132 182.329 203.101 182.315C196.988 179.63 193.794 178.214 192.078 177.454C191.391 177.149 190.966 176.961 190.711 176.85C190.622 176.81 190.531 176.771 190.441 176.733C190.37 176.704 190.153 176.616 190.027 176.807C190.024 176.812 190.02 176.817 190.017 176.823C189.284 178.137 189.46 179.403 189.631 180.627C189.749 181.474 189.86 182.275 189.678 183.072C189.23 185.02 187.09 189.333 186.444 190.609C184.239 194.966 183.401 199.887 184.083 204.465L184.086 204.483L184.095 204.536C184.315 206.361 185.307 209.333 186.433 210.853L186.439 210.861C186.448 210.873 186.458 210.886 186.467 210.896C186.492 210.927 186.525 210.952 186.562 210.97C186.599 210.987 186.64 210.996 186.681 210.996ZM207.361 184.563C205.968 186.732 196.216 201.881 192.299 206.781C190.198 209.411 188.179 210.24 186.807 210.459C185.756 208.974 184.84 206.195 184.633 204.472C184.633 204.467 184.632 204.461 184.631 204.456L184.619 204.385C183.953 199.914 184.774 195.098 186.933 190.832C187.585 189.543 189.748 185.184 190.208 183.182C190.41 182.296 190.287 181.413 190.168 180.559C190.012 179.435 189.864 178.369 190.387 177.275C190.633 177.382 191.103 177.59 191.848 177.92C193.553 178.676 196.717 180.078 202.75 182.729C202.776 182.758 202.809 182.781 202.847 182.796C204.007 183.265 205.279 183.758 207.361 184.563Z" fill="#282828"/>
<path d="M185.887 209.666C185.927 209.666 185.967 209.657 186.004 209.641C189.05 208.447 191.452 206.317 193.145 203.309C194.247 201.352 195.046 199.013 195.519 196.358C195.817 194.687 196.515 193.903 197.19 193.145C197.713 192.558 198.254 191.951 198.546 190.976C198.82 190.06 198.762 189.341 198.706 188.646C198.637 187.79 198.572 186.982 199.112 185.8C200.033 183.781 202.827 182.769 202.855 182.759C202.921 182.734 202.975 182.686 203.004 182.624C203.033 182.563 203.035 182.493 203.01 182.429C202.985 182.366 202.935 182.315 202.871 182.286C202.806 182.257 202.733 182.254 202.666 182.276C202.542 182.32 199.629 183.372 198.614 185.595C198.021 186.894 198.094 187.805 198.165 188.685C198.22 189.365 198.272 190.008 198.024 190.835C197.764 191.703 197.284 192.242 196.775 192.813C196.087 193.586 195.306 194.462 194.984 196.273C194.521 198.872 193.741 201.158 192.667 203.066C191.032 205.97 188.716 208.024 185.784 209.17C185.726 209.192 185.678 209.234 185.648 209.286C185.619 209.339 185.609 209.399 185.621 209.458C185.633 209.516 185.666 209.569 185.715 209.607C185.763 209.645 185.824 209.666 185.887 209.666Z" fill="#282828"/>
<path d="M201.369 189.848C201.668 189.848 201.993 189.766 202.328 189.602C202.911 189.317 203.465 188.812 203.889 188.179C204.312 187.547 204.558 186.856 204.582 186.234C204.607 185.562 204.373 185.042 203.921 184.769C203.47 184.497 202.875 184.516 202.245 184.824C201.662 185.108 201.108 185.613 200.684 186.246C200.261 186.879 200.015 187.57 199.991 188.192C199.965 188.864 200.2 189.384 200.651 189.656C200.863 189.784 201.106 189.848 201.369 189.848ZM203.202 185.094C203.364 185.094 203.509 185.13 203.63 185.204C203.913 185.374 204.058 185.733 204.04 186.215C204.019 186.747 203.803 187.347 203.431 187.903C203.058 188.46 202.578 188.9 202.08 189.144C201.629 189.364 201.224 189.392 200.942 189.222C200.66 189.051 200.515 188.692 200.533 188.21C200.554 187.679 200.77 187.079 201.142 186.523C201.515 185.966 201.994 185.525 202.493 185.282C202.749 185.157 202.99 185.094 203.202 185.094Z" fill="#282828"/>
<path d="M184.651 194.903C184.816 194.903 184.975 194.846 185.099 194.742C188.022 192.293 191.536 192.62 191.571 192.624C191.75 192.642 191.929 192.593 192.069 192.486C192.209 192.379 192.299 192.224 192.319 192.054C192.36 191.701 192.093 191.384 191.722 191.344C191.555 191.326 187.589 190.938 184.202 193.776C184.098 193.863 184.025 193.977 183.992 194.104C183.959 194.231 183.967 194.365 184.016 194.487C184.065 194.609 184.152 194.715 184.265 194.789C184.378 194.863 184.513 194.903 184.651 194.903ZM184.047 198.222C184.225 198.222 184.396 198.156 184.523 198.037C187.316 195.433 190.891 195.709 190.927 195.712C191.3 195.744 191.63 195.484 191.665 195.13C191.7 194.777 191.428 194.463 191.056 194.429C190.885 194.413 186.83 194.081 183.572 197.118C183.444 197.238 183.371 197.401 183.369 197.572C183.368 197.742 183.437 197.907 183.563 198.029C183.626 198.09 183.702 198.139 183.785 198.172C183.868 198.205 183.957 198.222 184.047 198.222ZM183.77 201.447C183.859 201.447 183.948 201.43 184.03 201.398C184.113 201.365 184.188 201.317 184.251 201.257C186.726 198.893 189.801 199.058 189.832 199.06C190.011 199.072 190.188 199.016 190.323 198.903C190.459 198.791 190.542 198.633 190.554 198.462C190.58 198.108 190.301 197.801 189.928 197.775C189.778 197.765 186.217 197.552 183.289 200.349C183.194 200.439 183.13 200.554 183.104 200.679C183.078 200.803 183.092 200.933 183.143 201.05C183.195 201.168 183.282 201.268 183.393 201.339C183.505 201.409 183.636 201.447 183.77 201.447Z" fill="#FFBABA"/>
<path d="M150.401 190.824C155.819 191.001 161.352 190.672 170.859 183.727C175.717 180.179 180.294 179.558 180.948 182.84C181.989 188.062 171.233 194.55 150.401 190.824Z" fill="#282828"/>
<path d="M150.4 190.91C151.655 194.929 152.839 198.474 154.612 202.293L161.61 202.354L166.748 198.184C166.395 194.146 166.061 185.839 166.001 184.523L150.4 190.91Z" fill="white"/>
<path d="M151.492 194.327C152.23 196.51 153.282 199.403 154.466 201.979C154.514 202.084 154.563 202.188 154.612 202.292L161.61 202.353L166.748 198.184C166.635 196.894 166.522 195.133 166.42 193.305L151.492 194.327Z" fill="#FFBABA"/>
<mask id="mask1_23429_23253" style="mask-type:luminance" maskUnits="userSpaceOnUse" x="151" y="193" width="16" height="10">
<path d="M151.491 194.327C152.229 196.51 153.282 199.403 154.465 201.979C154.513 202.084 154.563 202.188 154.611 202.292L161.61 202.353L166.748 198.184C166.635 196.894 166.522 195.133 166.419 193.305L151.491 194.327Z" fill="white"/>
</mask>
<g mask="url(#mask1_23429_23253)">
<path d="M152.703 197.155C156.383 196.904 163.044 196.456 166.311 196.279L166.26 195.422C162.987 195.599 156.321 196.047 152.638 196.298L152.703 197.155Z" fill="white"/>
</g>
<path d="M165.488 185.201L150.524 189.325L150.923 190.772C152.271 195.09 153.376 198.307 154.968 201.781L161.412 201.837L166.185 197.964C165.882 194.348 165.601 187.82 165.493 185.325L165.488 185.201ZM166.001 184.523C166.061 185.839 166.395 194.146 166.748 198.184L161.61 202.354L154.612 202.293C152.839 198.474 151.655 194.929 150.4 190.91L149.865 188.97L166.001 184.523Z" fill="#282828"/>
<path d="M134.437 213.204C135.305 214.187 137.123 215.553 140.931 215.872C147.947 216.461 169.102 216.157 169.102 216.157C168.697 213.974 168.434 212.552 168.222 211.294C168.23 211.3 168.239 211.308 168.248 211.315C167.968 209.249 167.678 207.095 167.415 205.14C167.047 202.404 166.746 200.055 166.59 198.888C166.589 198.878 166.588 198.869 166.586 198.859C166.52 198.372 166.48 198.098 166.473 198.098C163.951 198.275 162.846 200.429 160.792 201.135C160.725 201.158 160.657 201.181 160.588 201.202C158.836 201.748 155.021 202.264 152.29 202.559C148.935 202.921 145.947 203.982 144.44 204.614C144.207 204.71 143.977 204.811 143.75 204.918C143.432 205.069 143.116 205.225 142.804 205.387C142.704 205.439 142.605 205.492 142.506 205.545C142.353 205.627 142.201 205.711 142.053 205.795C142.007 205.821 141.962 205.845 141.917 205.871C140.878 206.464 139.972 207.079 139.184 207.69C139.112 207.745 139.042 207.801 138.972 207.856C138.947 207.876 138.921 207.896 138.897 207.916C138.873 207.935 138.848 207.955 138.823 207.974C138.817 207.981 138.809 207.986 138.803 207.991C138.791 208.002 138.778 208.012 138.765 208.022C138.761 208.026 138.757 208.029 138.752 208.033C138.689 208.084 138.626 208.137 138.565 208.188C138.548 208.202 138.531 208.216 138.514 208.23C138.48 208.258 138.446 208.288 138.411 208.318C138.397 208.329 138.383 208.342 138.369 208.354C138.324 208.392 138.281 208.43 138.237 208.468C138.233 208.471 138.228 208.475 138.225 208.478L138.18 208.518C138.164 208.532 138.148 208.546 138.132 208.56C138.102 208.586 138.072 208.613 138.042 208.64C138.026 208.653 138.011 208.667 137.996 208.682C137.989 208.688 137.982 208.694 137.975 208.7C137.968 208.706 137.96 208.713 137.953 208.72C137.909 208.761 137.865 208.801 137.822 208.84C137.761 208.896 137.702 208.951 137.644 209.006C137.618 209.03 137.593 209.054 137.569 209.078C137.537 209.107 137.507 209.138 137.476 209.167C137.421 209.22 137.367 209.273 137.314 209.327C137.279 209.361 137.245 209.395 137.21 209.429C137.192 209.448 137.174 209.466 137.157 209.484C137.124 209.516 137.091 209.55 137.06 209.583C137.035 209.609 137.011 209.633 136.987 209.659C136.91 209.738 136.836 209.817 136.765 209.894C136.732 209.931 136.697 209.967 136.665 210.002C136.61 210.063 136.557 210.122 136.505 210.182L136.377 210.326L136.316 210.398C136.295 210.421 136.276 210.445 136.256 210.469C136.216 210.516 136.177 210.562 136.138 210.609C136.059 210.703 135.982 210.798 135.907 210.895C135.881 210.927 135.857 210.957 135.834 210.988C135.682 211.181 135.546 211.366 135.423 211.541C135.397 211.576 135.372 211.611 135.349 211.645C135.306 211.706 135.266 211.765 135.227 211.824C135.169 211.91 135.112 211.997 135.056 212.085C135.03 212.124 135.006 212.162 134.983 212.2C134.839 212.43 134.705 212.665 134.58 212.904C134.568 212.927 134.557 212.949 134.546 212.97C134.514 213.034 134.483 213.1 134.453 213.166V213.167C134.447 213.177 134.445 213.186 134.442 213.191C134.441 213.196 134.439 213.2 134.437 213.204Z" fill="white"/>
<path d="M135.204 211.857C141.248 215.949 148.356 213.801 151.86 212.419C154.882 211.228 155.88 212.767 158.344 212.025C160.402 211.406 161.049 210.007 163.669 209.718C165.158 209.555 167.187 210.42 168.246 211.315C166.687 199.777 166.499 198.098 166.472 198.098C163.879 198.28 162.859 200.502 160.586 201.202C158.835 201.748 155.02 202.264 152.289 202.559C144.467 203.402 138.032 207.498 135.204 211.857Z" fill="#282828"/>
<path d="M167.339 207.193C167.45 207.193 167.515 207.188 167.528 207.187C167.599 207.18 167.665 207.147 167.711 207.094C167.757 207.041 167.778 206.973 167.771 206.905C167.765 206.837 167.729 206.775 167.674 206.731C167.618 206.688 167.547 206.667 167.475 206.674C167.449 206.676 165.841 206.793 163.832 205.436C163.387 205.135 163.022 204.865 162.7 204.627C161.45 203.704 160.762 203.196 158.248 202.878C158.213 202.873 158.177 202.875 158.142 202.883C158.107 202.892 158.075 202.907 158.046 202.927C158.017 202.948 157.993 202.973 157.975 203.003C157.957 203.032 157.945 203.065 157.941 203.099C157.936 203.132 157.938 203.167 157.948 203.2C157.957 203.232 157.973 203.263 157.995 203.29C158.017 203.317 158.044 203.34 158.076 203.357C158.107 203.373 158.141 203.384 158.177 203.388C160.545 203.688 161.153 204.138 162.367 205.034C162.693 205.275 163.063 205.548 163.518 205.856C165.323 207.075 166.824 207.193 167.339 207.193Z" fill="white"/>
<path d="M157.395 216.487C163.609 216.487 169.001 216.412 169.108 216.41C169.147 216.41 169.186 216.401 169.221 216.385C169.257 216.369 169.288 216.345 169.313 216.317C169.338 216.288 169.356 216.254 169.366 216.218C169.376 216.182 169.378 216.145 169.371 216.108C168.962 213.908 168.716 212.575 168.512 211.374C168.52 211.343 168.522 211.31 168.518 211.278C168.239 209.212 167.948 207.058 167.686 205.103C167.459 203.418 167.261 201.906 167.102 200.69C167.019 200.05 166.935 199.41 166.849 198.77C166.818 198.541 166.793 198.363 166.775 198.242C166.744 198.033 166.715 197.836 166.474 197.836C166.467 197.836 166.461 197.836 166.454 197.837C164.899 197.946 163.88 198.747 162.895 199.521C162.147 200.109 161.441 200.665 160.505 200.953C158.426 201.601 153.669 202.147 152.261 202.299C146.988 202.867 143.003 204.831 140.589 206.377C137.545 208.328 135.217 210.765 134.204 213.062C134.203 213.065 134.201 213.068 134.2 213.071C134.194 213.084 134.189 213.097 134.184 213.111C134.167 213.153 134.163 213.199 134.171 213.244C134.179 213.288 134.2 213.33 134.23 213.365C135.962 215.328 138.818 215.949 140.908 216.124C144.357 216.414 151.274 216.487 157.395 216.487ZM168.781 215.899C166.106 215.934 147.409 216.153 140.956 215.611C137.493 215.321 135.679 214.139 134.754 213.152C135.752 210.977 137.982 208.67 140.893 206.805C143.257 205.29 147.158 203.368 152.322 202.811C153.743 202.657 158.546 202.106 160.673 201.443C161.707 201.124 162.487 200.511 163.241 199.918C164.145 199.208 165.001 198.535 166.247 198.375C166.305 198.775 166.423 199.677 166.563 200.754C166.723 201.969 166.92 203.482 167.147 205.169C167.418 207.185 167.69 209.201 167.962 211.216C167.951 211.253 167.948 211.292 167.955 211.33C168.154 212.513 168.391 213.798 168.781 215.899Z" fill="#282828"/>
<path d="M143.282 214.484C143.69 214.484 144.098 214.47 144.505 214.443C146.837 214.287 149.347 213.685 151.966 212.653C153.615 212.003 154.685 212.147 155.72 212.286C156.522 212.394 157.351 212.506 158.376 212.222C159.338 211.956 159.949 211.527 160.539 211.112C161.265 210.601 161.951 210.118 163.292 209.923C165.585 209.59 167.983 211.257 168.007 211.274C168.036 211.294 168.068 211.309 168.103 211.317C168.137 211.325 168.173 211.327 168.209 211.322C168.244 211.317 168.278 211.305 168.308 211.288C168.339 211.271 168.366 211.248 168.387 211.221C168.408 211.194 168.423 211.163 168.432 211.13C168.441 211.097 168.443 211.063 168.437 211.029C168.432 210.996 168.42 210.964 168.402 210.935C168.384 210.906 168.359 210.88 168.331 210.86C168.226 210.786 165.73 209.047 163.21 209.414C161.736 209.628 160.963 210.172 160.216 210.697C159.638 211.103 159.093 211.487 158.224 211.728C157.312 211.98 156.576 211.881 155.796 211.776C154.74 211.634 153.544 211.473 151.758 212.177C149.194 213.187 146.741 213.777 144.467 213.929C141.008 214.159 137.945 213.39 135.363 211.642C135.334 211.621 135.3 211.607 135.265 211.599C135.229 211.591 135.192 211.591 135.156 211.597C135.12 211.603 135.086 211.615 135.055 211.634C135.025 211.653 134.999 211.678 134.978 211.707C134.958 211.735 134.944 211.768 134.937 211.802C134.93 211.836 134.93 211.871 134.938 211.905C134.946 211.938 134.961 211.971 134.982 211.999C135.002 212.027 135.029 212.051 135.06 212.07C137.435 213.674 140.197 214.484 143.282 214.484ZM163.739 215.027C165.436 215.027 166.766 214.245 166.771 213.239C166.774 212.731 166.439 212.263 165.83 211.92C165.266 211.603 164.521 211.426 163.732 211.422H163.705C162.008 211.422 160.678 212.205 160.673 213.21C160.671 213.718 161.005 214.187 161.614 214.529C162.178 214.847 162.923 215.023 163.713 215.027H163.739ZM163.707 211.937H163.729C164.423 211.941 165.071 212.092 165.554 212.363C165.99 212.609 166.23 212.919 166.228 213.236C166.225 213.93 165.086 214.512 163.738 214.512H163.715C163.021 214.509 162.373 214.357 161.891 214.086C161.454 213.84 161.214 213.53 161.216 213.213C161.219 212.519 162.358 211.937 163.707 211.937Z" fill="#282828"/>
<path d="M154.288 208.189C154.375 208.189 154.465 208.172 154.551 208.138C154.716 208.072 154.847 207.946 154.915 207.788C154.983 207.63 154.982 207.453 154.912 207.296C154.847 207.149 153.27 203.673 149.008 202.249C148.923 202.22 148.834 202.208 148.744 202.212C148.655 202.216 148.567 202.237 148.486 202.273C148.405 202.31 148.333 202.361 148.273 202.424C148.213 202.487 148.167 202.561 148.137 202.641C148.107 202.722 148.095 202.807 148.1 202.892C148.105 202.976 148.128 203.06 148.167 203.136C148.206 203.213 148.26 203.281 148.328 203.337C148.395 203.394 148.473 203.437 148.558 203.464C152.234 204.692 153.648 207.765 153.662 207.796C153.714 207.912 153.802 208.012 153.913 208.081C154.024 208.151 154.154 208.189 154.288 208.189ZM151.13 209.152C151.243 209.152 151.354 209.126 151.453 209.075C151.552 209.024 151.636 208.95 151.698 208.86C151.76 208.771 151.797 208.668 151.806 208.561C151.815 208.454 151.796 208.347 151.751 208.249C151.682 208.1 150.01 204.577 145.628 203.358C145.543 203.334 145.453 203.327 145.365 203.336C145.276 203.345 145.19 203.371 145.112 203.411C145.034 203.452 144.965 203.507 144.909 203.572C144.854 203.638 144.812 203.714 144.787 203.795C144.736 203.959 144.756 204.135 144.843 204.285C144.929 204.435 145.074 204.546 145.247 204.594C149.028 205.646 150.494 208.736 150.509 208.767C150.562 208.882 150.649 208.979 150.759 209.048C150.869 209.116 150.998 209.152 151.13 209.152ZM147.511 209.863C147.611 209.863 147.709 209.842 147.799 209.802C148.137 209.65 148.283 209.269 148.125 208.947C148.062 208.818 146.52 205.762 142.52 204.699C142.434 204.677 142.345 204.67 142.256 204.68C142.168 204.69 142.082 204.717 142.005 204.758C141.927 204.8 141.859 204.855 141.804 204.922C141.749 204.988 141.708 205.065 141.684 205.146C141.636 205.311 141.658 205.487 141.746 205.636C141.835 205.784 141.981 205.894 142.155 205.94C145.535 206.838 146.884 209.468 146.897 209.494C146.952 209.605 147.039 209.698 147.148 209.763C147.257 209.828 147.383 209.863 147.511 209.863Z" fill="#FFBABA"/>
<path d="M138.021 151.747C139.536 156.88 142.407 161.733 146.301 166.119C146.662 172.017 147.877 183.637 150.399 190.911C158.9 191.976 165.394 187.69 170.577 183.904C175.435 180.355 180.106 179.468 180.946 182.839C180.293 178.581 179.639 176.807 178.518 174.146C179.545 171.662 180.378 170.62 181.273 167.36C183.842 158.001 187.953 159.332 189.12 160.352C185.524 156.848 177.116 156.582 173.829 156.688C173.52 145.804 179.031 137.11 182.955 127.264C185.931 119.795 186.715 112.728 186.075 107.288C185.887 105.684 185.575 104.221 185.158 102.931C184.996 102.426 184.809 101.929 184.598 101.441C182.207 95.9501 152.921 99.0105 152.921 99.0105C152.921 99.0105 152.476 100.521 151.328 103.207C150.177 105.9 148.024 109.625 145.495 114.49C140.03 125.002 134.238 138.929 138.021 151.747Z" fill="#313030"/>
<path d="M151.329 103.208C151.818 103.453 152.313 103.688 152.813 103.912C155.5 105.122 158.281 106.012 161.001 106.667C166.798 108.064 172.314 108.386 176.039 108.416C179.391 108.444 182.788 108.087 186.077 107.289C185.889 105.685 185.577 104.222 185.159 102.933C177.887 104.754 169.54 103.953 162.677 102.303C162.66 102.298 162.643 102.295 162.626 102.29C159.594 101.559 156.854 100.663 154.626 99.7542C154.548 99.7222 154.47 99.6903 154.393 99.6574C153.872 99.4427 153.382 99.2263 152.923 99.0117C152.923 99.0117 152.478 100.522 151.329 103.208Z" fill="#282828"/>
<mask id="mask2_23429_23253" style="mask-type:luminance" maskUnits="userSpaceOnUse" x="136" y="98" width="54" height="94">
<path d="M152.924 99.0105C152.924 99.0105 151.14 105.068 145.497 114.49C140.079 123.538 134.474 139.239 138.024 151.747C139.485 156.894 142.41 161.733 146.303 166.118C146.665 172.017 147.88 183.637 150.402 190.911C158.903 191.976 165.397 187.689 170.58 183.903C175.438 180.355 180.108 179.468 180.949 182.839C180.295 178.581 179.641 176.807 178.52 174.146C179.548 171.662 180.381 170.62 181.276 167.359C183.845 158.001 187.955 159.331 189.123 160.352C185.527 156.848 177.119 156.582 173.832 156.688C173.523 145.804 179.034 137.11 182.958 127.264C187.169 116.695 186.991 106.933 184.601 101.441C182.21 95.9501 152.924 99.0105 152.924 99.0105Z" fill="white"/>
</mask>
<g mask="url(#mask2_23429_23253)">
<path d="M146.12 168.064C146.157 168.064 146.194 168.056 146.228 168.042C146.262 168.028 146.293 168.008 146.318 167.982C146.344 167.956 146.363 167.926 146.376 167.893C146.388 167.86 146.393 167.824 146.391 167.789C146.12 163.827 146.231 158.683 146.696 153.678C147.304 147.124 148.456 141.007 150.118 135.499C155.025 119.233 154.721 112.963 154.705 112.704C154.703 112.67 154.694 112.637 154.679 112.607C154.664 112.576 154.642 112.549 154.615 112.526C154.589 112.504 154.558 112.486 154.524 112.475C154.49 112.464 154.455 112.459 154.419 112.461C154.347 112.465 154.28 112.496 154.232 112.547C154.184 112.598 154.159 112.665 154.163 112.733C154.167 112.796 154.471 119.199 149.596 135.357C147.925 140.897 146.767 147.046 146.155 153.633C145.688 158.663 145.577 163.835 145.85 167.823C145.854 167.888 145.884 167.949 145.935 167.994C145.985 168.039 146.051 168.063 146.12 168.064ZM179.679 175.783C179.726 175.783 179.773 175.771 179.814 175.749C179.855 175.726 179.889 175.694 179.913 175.655C179.937 175.616 179.949 175.572 179.95 175.527C179.95 175.482 179.938 175.437 179.914 175.398C177.005 170.544 175.184 165.444 174.344 159.807C173.536 154.379 173.581 148.355 174.486 140.85C174.49 140.816 174.487 140.782 174.478 140.75C174.468 140.717 174.451 140.687 174.429 140.66C174.407 140.634 174.379 140.612 174.348 140.595C174.317 140.579 174.283 140.568 174.247 140.564C174.176 140.557 174.104 140.577 174.048 140.619C173.992 140.662 173.956 140.723 173.947 140.791C173.037 148.341 172.992 154.407 173.807 159.879C174.656 165.581 176.499 170.741 179.442 175.653C179.466 175.693 179.5 175.726 179.542 175.748C179.583 175.771 179.631 175.783 179.679 175.783Z" fill="white"/>
</g>
<path d="M192.391 99.9414C186.926 100.341 173.941 104.066 166.655 108.679C159.368 113.292 157.593 117.372 156.846 119.235C156.099 121.098 156.939 121.719 158.621 120.034C160.711 117.939 161.797 116.84 161.797 116.84C161.797 116.84 159.929 120.3 160.116 124.292C160.302 128.283 161.797 127.485 162.077 125.888C162.077 125.888 162.638 129.171 164.6 124.913C164.6 124.913 163.946 128.106 167.122 124.735C173.203 118.282 178.145 115.687 194.913 115.147C212.001 114.596 214.951 110.986 214.951 110.986L192.391 99.9414Z" fill="white"/>
<path d="M116.861 51.8181C119.595 59.0052 122.004 70.1681 126.296 79.18C127.213 81.1067 128.216 82.9349 129.328 84.6052C131.147 87.3401 133.254 89.6518 135.745 91.276C139.229 80.0279 143.32 69.2783 143.447 68.9448C143.448 68.942 143.449 68.9394 143.45 68.9368C143.451 68.9345 143.452 68.9321 143.453 68.9297C143.24 68.6423 133.794 56.0431 131.354 51.0888C128.973 46.2552 129.82 44.0455 131.184 42.3449C132.548 40.6444 136.64 37.7303 134.082 37.6487C131.44 37.5662 128.364 39.9293 125.045 38.4586C121.162 36.7376 118.567 32.4709 116.312 30.3897C114.155 28.3991 113.329 29.0138 114.352 31.1997C115.393 33.4253 116.69 36.4351 116.69 36.4351C116.69 36.4351 116.349 36.5975 116.263 37.0011C116.263 37.0011 115.241 37.0011 114.729 38.5393C113.535 38.7834 112.474 40.2862 116.861 51.8181Z" fill="white"/>
<path d="M135.744 91.5347C135.802 91.5347 135.859 91.5167 135.906 91.4833C135.953 91.45 135.988 91.4031 136.004 91.3498C139.455 80.2111 143.529 69.4846 143.701 69.0335C143.702 69.0309 143.703 69.0283 143.704 69.0257C143.708 69.0144 143.71 69.0077 143.71 69.0077C143.734 68.9325 143.721 68.8467 143.673 68.7826L143.62 68.7116C142.005 66.5466 133.833 55.5174 131.599 50.9808C129.258 46.2289 130.119 44.0976 131.399 42.5022C131.775 42.0335 132.387 41.4476 132.98 40.881C134.495 39.4309 135.396 38.5045 135.13 37.8665C134.943 37.4196 134.301 37.3992 134.09 37.3924C133.058 37.3611 132 37.6734 130.878 38.0049C129.044 38.5469 127.147 39.1073 125.159 38.2264C122.522 37.0581 120.501 34.7015 118.719 32.6225C117.939 31.7134 117.203 30.8548 116.5 30.2063C115.304 29.1026 114.446 28.7094 113.949 29.0383C113.496 29.3386 113.549 30.1226 114.102 31.3056C114.982 33.1863 116.058 35.6574 116.357 36.3479C116.222 36.4651 116.117 36.6102 116.051 36.772C115.69 36.8503 114.953 37.1535 114.517 38.327C114.161 38.4325 113.898 38.6377 113.715 38.9507C113.326 39.6169 113.311 40.818 113.668 42.6228C114.096 44.7874 115.084 47.9109 116.604 51.9067C117.628 54.5977 118.615 57.8754 119.659 61.3457C121.393 67.1097 123.359 73.6427 126.047 79.2871C127.017 81.3242 128.044 83.1602 129.098 84.7439C131.082 87.7281 133.206 89.9346 135.59 91.4895C135.636 91.5193 135.69 91.5347 135.744 91.5347ZM143.148 68.97C142.68 70.2059 138.876 80.3021 135.59 90.8597C133.392 89.3576 131.415 87.2632 129.556 84.4686C128.516 82.9049 127.502 81.0903 126.542 79.0748C123.87 73.4648 121.91 66.951 120.181 61.2041C119.134 57.7252 118.145 54.4391 117.115 51.7316C114.434 44.6842 113.45 40.4681 114.19 39.2004C114.321 38.9755 114.504 38.8497 114.785 38.7924C114.832 38.7829 114.875 38.7617 114.91 38.7311C114.946 38.7005 114.972 38.6615 114.986 38.6182C115.425 37.2998 116.232 37.261 116.266 37.26C116.392 37.2563 116.503 37.1707 116.528 37.0534C116.585 36.7844 116.804 36.67 116.814 36.6652C116.936 36.6027 116.992 36.461 116.94 36.3388C116.927 36.3087 115.63 33.2999 114.598 31.0963C114.056 29.9374 114.175 29.5168 114.26 29.4609C114.366 29.3908 114.907 29.454 116.122 30.5758C116.802 31.2034 117.529 32.0507 118.298 32.9478C120.118 35.0698 122.18 37.475 124.929 38.6933C127.107 39.6585 129.197 39.0414 131.039 38.4969C132.117 38.1786 133.134 37.8778 134.072 37.9074C134.439 37.9191 134.6 37.9951 134.625 38.0565C134.78 38.427 133.412 39.736 132.594 40.518C131.99 41.0964 131.365 41.6945 130.967 42.19C129.584 43.9142 128.644 46.199 131.107 51.1991C133.348 55.7483 141.461 66.7075 143.148 68.97Z" fill="#282828"/>
<mask id="mask3_23429_23253" style="mask-type:luminance" maskUnits="userSpaceOnUse" x="113" y="29" width="31" height="63">
<path d="M116.856 51.8213C117.379 52.9999 123.976 70.688 126.57 77.9673C126.593 78.0303 127.638 80.7774 128 81.52C130.991 87.671 135.741 91.2792 135.741 91.2792L143.449 68.933C143.236 68.6457 133.79 56.0468 131.35 51.092C128.969 46.2581 129.816 44.0487 131.18 42.3484C132.544 40.648 136.636 37.7338 134.079 37.6523C131.436 37.5691 128.36 39.9327 125.041 38.4621C121.158 36.7409 118.696 32.3361 116.308 30.393C113.922 28.4499 113.324 29.017 114.348 31.2029C115.389 33.4283 116.686 36.4384 116.686 36.4384C116.686 36.4384 116.345 36.6005 116.259 37.0046C116.259 37.0046 115.237 37.0046 114.725 38.5428C113.531 38.7866 112.073 41.0321 116.856 51.8213Z" fill="white"/>
</mask>
<g mask="url(#mask3_23429_23253)">
<path d="M123.492 43.7658C123.618 43.7658 123.734 43.741 123.841 43.6909C124.417 43.4216 124.472 42.5235 123.988 41.2884C122.89 38.4916 121.492 36.7583 119.83 36.1368C118.13 35.5008 116.631 36.2125 116.139 36.4464C116.075 36.4775 116.027 36.5311 116.005 36.5954C115.983 36.6598 115.989 36.7298 116.021 36.7904C116.053 36.8509 116.108 36.8971 116.176 36.919C116.243 36.9408 116.317 36.9366 116.381 36.9072C116.82 36.6988 118.156 36.0644 119.631 36.6162C121.143 37.1818 122.438 38.8143 123.479 41.4682C123.918 42.5871 123.787 43.1418 123.602 43.2285C123.45 43.2996 123.056 43.1975 122.447 42.6769C121.744 42.0768 120.912 41.059 120.04 39.7337C120.021 39.705 119.996 39.6801 119.967 39.6605C119.938 39.6408 119.905 39.6268 119.871 39.6192C119.836 39.6116 119.8 39.6106 119.765 39.6162C119.73 39.6217 119.696 39.6338 119.666 39.6518C119.636 39.6697 119.609 39.6931 119.589 39.7207C119.568 39.7482 119.553 39.7794 119.545 39.8123C119.537 39.8453 119.536 39.8794 119.542 39.9128C119.548 39.9462 119.561 39.9781 119.58 40.0068C121.178 42.4345 122.572 43.7657 123.492 43.7658Z" fill="#282828"/>
</g>
<mask id="mask4_23429_23253" style="mask-type:luminance" maskUnits="userSpaceOnUse" x="113" y="29" width="31" height="63">
<path d="M116.856 51.8213C117.379 52.9999 123.976 70.688 126.57 77.9673C126.593 78.0303 127.638 80.7774 128 81.52C130.991 87.671 135.741 91.2792 135.741 91.2792L143.449 68.933C143.236 68.6457 133.79 56.0468 131.35 51.092C128.969 46.2581 129.816 44.0487 131.18 42.3484C132.544 40.648 136.636 37.7338 134.079 37.6523C131.436 37.5691 128.36 39.9327 125.041 38.4621C121.158 36.7409 118.696 32.3361 116.308 30.393C113.922 28.4499 113.324 29.017 114.348 31.2029C115.389 33.4283 116.686 36.4384 116.686 36.4384C116.686 36.4384 116.345 36.6005 116.259 37.0046C116.259 37.0046 115.237 37.0046 114.725 38.5428C113.531 38.7866 112.073 41.0321 116.856 51.8213Z" fill="white"/>
</mask>
<g mask="url(#mask4_23429_23253)">
<path d="M121.32 45.7563C121.433 45.7563 121.54 45.7325 121.638 45.681C122.3 45.3337 122.08 43.9499 120.982 41.5684C119.641 38.6575 118.533 37.1309 116.199 36.8649C116.127 36.8574 116.056 36.8768 116 36.9191C115.944 36.9613 115.908 37.0228 115.899 37.0902C115.891 37.1577 115.911 37.2256 115.955 37.2792C115.998 37.3328 116.063 37.3677 116.134 37.3764C117.991 37.5881 119.049 38.6569 120.485 41.7749C121.673 44.3534 121.522 45.1531 121.376 45.23C121.178 45.3337 120.067 44.8202 118.23 42.2554C118.189 42.1997 118.127 42.1616 118.056 42.1493C117.986 42.137 117.914 42.1515 117.855 42.1896C117.796 42.2278 117.755 42.2865 117.741 42.353C117.727 42.4196 117.742 42.4886 117.781 42.5451C118.354 43.3454 120.177 45.7562 121.32 45.7563Z" fill="#282828"/>
</g>
<mask id="mask5_23429_23253" style="mask-type:luminance" maskUnits="userSpaceOnUse" x="113" y="29" width="31" height="63">
<path d="M116.856 51.8213C117.379 52.9999 123.976 70.688 126.57 77.9673C126.593 78.0303 127.638 80.7774 128 81.52C130.991 87.671 135.741 91.2792 135.741 91.2792L143.449 68.933C143.236 68.6457 133.79 56.0468 131.35 51.092C128.969 46.2581 129.816 44.0487 131.18 42.3484C132.544 40.648 136.636 37.7338 134.079 37.6523C131.436 37.5691 128.36 39.9327 125.041 38.4621C121.158 36.7409 118.696 32.3361 116.308 30.393C113.922 28.4499 113.324 29.017 114.348 31.2029C115.389 33.4283 116.686 36.4384 116.686 36.4384C116.686 36.4384 116.345 36.6005 116.259 37.0046C116.259 37.0046 115.237 37.0046 114.725 38.5428C113.531 38.7866 112.073 41.0321 116.856 51.8213Z" fill="white"/>
</mask>
<g mask="url(#mask5_23429_23253)">
<path d="M118.261 46.5358C118.333 46.5362 118.405 46.5247 118.474 46.5019C119.092 46.2929 119.134 45.3289 118.609 43.4682C117.769 40.4977 116.767 38.4992 114.605 38.4014C114.569 38.3997 114.534 38.4047 114.5 38.4162C114.466 38.4276 114.435 38.4452 114.409 38.468C114.383 38.4907 114.361 38.5182 114.346 38.5489C114.331 38.5795 114.322 38.6127 114.321 38.6465C114.317 38.7148 114.343 38.7815 114.391 38.8321C114.439 38.8826 114.507 38.9129 114.579 38.9161C116.169 38.988 117.152 40.3017 118.084 43.6016C118.708 45.808 118.296 46.0149 118.292 46.0164C117.886 46.1542 116.227 44.5381 115.013 41.972C114.998 41.9412 114.978 41.9134 114.952 41.8902C114.926 41.8669 114.895 41.8488 114.862 41.8368C114.829 41.8248 114.793 41.8191 114.758 41.8201C114.722 41.8211 114.687 41.8288 114.654 41.8426C114.622 41.8565 114.593 41.8763 114.568 41.9009C114.544 41.9255 114.525 41.9545 114.512 41.9861C114.499 42.0178 114.493 42.0514 114.494 42.0853C114.495 42.1191 114.503 42.1524 114.518 42.1832C115.424 44.0988 117.161 46.5357 118.261 46.5358ZM123.05 47.6471C123.088 47.6471 123.126 47.6395 123.161 47.6246C123.196 47.6098 123.227 47.5881 123.253 47.5609C123.278 47.5338 123.298 47.5018 123.309 47.4672C123.321 47.4325 123.324 47.3959 123.32 47.3597C123.204 46.4067 123.009 41.5049 130.586 38.5889C130.652 38.5626 130.704 38.5128 130.732 38.4503C130.759 38.3877 130.759 38.3174 130.733 38.2546C130.706 38.1918 130.654 38.1416 130.588 38.1148C130.523 38.088 130.449 38.0868 130.382 38.1114C122.441 41.1676 122.657 46.4009 122.781 47.419C122.788 47.4817 122.82 47.5396 122.87 47.5817C122.919 47.6237 122.984 47.647 123.05 47.6471Z" fill="#282828"/>
</g>
<path d="M127.607 83.718C132.384 76.9792 139.378 70.8021 143.768 68.7618C144.603 68.3738 145.42 68.4678 145.917 68.9392C149.186 62.5523 161.237 49.601 173.848 53.4154C173.848 53.4154 175.343 52.5284 176.744 52.4397C178.546 52.3256 190.757 53.859 190.757 53.859C192.812 56.5202 194.774 58.2943 194.774 58.2943C194.774 58.2943 208.319 98.2127 185.899 103.18C174.183 105.776 159.162 102.072 153.09 98.8786C152.367 97.6033 151.161 96.0748 150.868 92.2693C149.235 93.9389 142.073 96.2096 135.425 92.4539C131.624 90.4952 128.858 87.6668 127.643 86.0485C127.121 85.3536 127.106 84.4259 127.607 83.718Z" fill="white"/>
<path d="M177.215 104.315C180.065 104.315 183.056 104.074 185.96 103.431C190.333 102.462 193.666 100.098 195.866 96.4054C197.635 93.4366 198.69 89.5763 199.001 84.932C199.249 81.2303 199.029 77.0225 198.345 72.4255C197.183 64.6061 195.053 58.278 195.032 58.2149C195.018 58.174 194.993 58.137 194.96 58.1074C194.941 58.0898 192.991 56.3163 190.975 53.7062C190.954 53.6782 190.926 53.6546 190.895 53.6369C190.863 53.6192 190.828 53.6077 190.792 53.6032C190.292 53.5405 178.53 52.067 176.726 52.1822C175.478 52.2611 174.192 52.9249 173.813 53.1346C169.921 51.9898 163.743 51.7848 156.216 57.1454C151.398 60.5768 147.573 65.2764 145.824 68.5378C145.234 68.1751 144.433 68.1655 143.649 68.53C138.886 70.7433 131.892 77.2108 127.382 83.5738C126.822 84.3647 126.837 85.4192 127.422 86.1976C128.856 88.1083 131.676 90.8136 135.291 92.6775C139.017 94.7811 142.659 94.9121 145.058 94.6516C146.913 94.4501 149.32 93.7997 150.644 92.8099C150.961 95.8411 151.878 97.3712 152.558 98.5046C152.662 98.6778 152.761 98.8414 152.851 99.0003C152.875 99.0437 152.913 99.0796 152.958 99.1035C156.303 100.863 161.811 102.53 167.331 103.454C170.05 103.909 173.513 104.315 177.215 104.315ZM194.535 58.4337C194.756 59.1011 196.715 65.1372 197.809 72.5057C198.487 77.0668 198.706 81.2383 198.46 84.9039C198.153 89.4681 197.122 93.2525 195.394 96.1522C193.271 99.7143 190.056 101.994 185.837 102.929C174.636 105.411 159.778 102.07 153.29 98.689C153.205 98.5418 153.118 98.3953 153.03 98.2495C152.299 97.0313 151.389 95.5152 151.138 92.25C151.134 92.2001 151.115 92.1522 151.083 92.1124C151.051 92.0726 151.007 92.0426 150.957 92.026C150.907 92.0094 150.854 92.0069 150.802 92.0189C150.751 92.0309 150.705 92.0568 150.669 92.0935C149.915 92.8641 147.819 93.833 144.996 94.1397C142.679 94.3913 139.162 94.2647 135.563 92.232C135.56 92.2303 135.557 92.2286 135.554 92.2269C132.014 90.4029 129.199 87.6778 127.863 85.8985C127.409 85.2939 127.397 84.4753 127.832 83.8615C131.628 78.5062 138.545 71.4751 143.887 68.9928C144.592 68.6653 145.296 68.7142 145.724 69.121C145.755 69.15 145.792 69.1717 145.834 69.1842C145.875 69.1967 145.919 69.1997 145.961 69.1929C146.004 69.1861 146.044 69.1697 146.079 69.1451C146.113 69.1205 146.141 69.0883 146.16 69.0514C147.804 65.8394 151.652 61.0397 156.542 57.5575C160.636 54.6415 166.948 51.5983 173.765 53.6605C173.803 53.6718 173.843 53.6753 173.882 53.6706C173.921 53.666 173.958 53.6533 173.991 53.6336C174.006 53.6251 175.447 52.7796 176.762 52.6963C178.423 52.5921 189.361 53.9446 190.606 54.0996C192.445 56.4654 194.216 58.1378 194.535 58.4337Z" fill="#282828"/>
<path d="M208.651 110.697C212.055 113.203 214.671 116.042 214.064 116.53C213.457 117.018 206.917 116.574 192.391 99.9414C192.391 99.9413 200.428 104.645 208.651 110.697Z" fill="#282828"/>
<path d="M213.535 116.896C213.797 116.896 214.074 116.859 214.238 116.726C214.325 116.656 214.427 116.527 214.422 116.306C214.398 115.232 211.553 112.507 208.816 110.493C200.676 104.502 192.613 99.7689 192.533 99.7217C192.478 99.6898 192.413 99.6773 192.35 99.6866C192.286 99.6958 192.228 99.7262 192.186 99.7723C192.144 99.8183 192.12 99.8771 192.119 99.9381C192.119 99.9992 192.141 100.058 192.182 100.106C197.492 106.186 202.285 110.742 206.428 113.648C210.321 116.378 212.506 116.821 213.265 116.885C213.35 116.892 213.441 116.896 213.535 116.896ZM213.88 116.337C213.797 116.376 213.37 116.455 212.45 116.212C211.684 116.009 210.375 115.526 208.484 114.372C205.574 112.597 200.697 108.853 193.718 101.043C196.413 102.684 202.427 106.443 208.484 110.901C209.994 112.012 211.456 113.275 212.494 114.366C213.711 115.644 213.906 116.211 213.88 116.337Z" fill="#282828"/>
<path d="M158.621 120.034C160.711 117.939 161.797 116.84 161.797 116.84C161.797 116.84 159.929 120.3 160.116 124.292C160.302 128.284 161.797 127.485 162.077 125.888C162.077 125.888 162.638 129.171 164.6 124.913C164.6 124.913 163.946 128.106 167.122 124.735C173.202 118.282 178.145 115.687 194.913 115.147C199.899 114.985 206.481 114.462 211.177 112.914C214.172 111.927 214.942 110.99 214.951 110.986C191.221 99.3691 192.512 100 192.391 99.9414C186.926 100.341 173.941 104.066 166.655 108.679C159.368 113.292 157.593 117.372 156.846 119.235C156.099 121.098 156.94 121.719 158.621 120.034Z" fill="white"/>
<path d="M161.157 127.454C161.513 127.454 161.845 127.188 162.075 126.75C162.228 127.043 162.458 127.308 162.797 127.348C163.285 127.407 163.785 126.977 164.342 126.008C164.406 126.209 164.521 126.382 164.716 126.474C165.257 126.729 166.062 126.246 167.323 124.907C170.199 121.855 172.964 119.506 177.108 117.963C181.201 116.44 186.529 115.675 194.922 115.404C199.741 115.248 206.489 114.732 211.265 113.157C213.981 112.262 214.923 111.404 215.148 111.162C215.177 111.133 215.198 111.098 215.21 111.06C215.222 111.022 215.225 110.981 215.218 110.942C215.211 110.903 215.194 110.865 215.169 110.833C215.145 110.801 215.112 110.775 215.075 110.756C200.698 103.718 192.69 99.7984 192.527 99.7183L192.515 99.7122C192.47 99.6904 192.42 99.6807 192.37 99.6843C186.971 100.079 173.901 103.782 166.504 108.465C158.96 113.24 157.239 117.529 156.592 119.143C156.177 120.178 156.202 120.9 156.664 121.175C157.281 121.544 158.175 120.854 158.817 120.211C159.53 119.496 160.242 118.781 160.953 118.066C160.413 119.45 159.725 121.758 159.844 124.303C159.963 126.853 160.601 127.423 161.115 127.453C161.129 127.454 161.143 127.454 161.157 127.454ZM162.077 125.631C162.012 125.631 161.95 125.652 161.901 125.692C161.852 125.731 161.82 125.786 161.809 125.846C161.687 126.54 161.345 126.949 161.148 126.939C160.927 126.926 160.483 126.354 160.386 124.28C160.205 120.407 162.019 116.992 162.038 116.958C162.068 116.902 162.076 116.839 162.06 116.778C162.044 116.718 162.006 116.665 161.953 116.629C161.899 116.594 161.834 116.577 161.769 116.584C161.704 116.59 161.643 116.618 161.599 116.664C161.588 116.675 160.489 117.786 158.423 119.856C157.616 120.666 157.101 120.828 156.953 120.739C156.822 120.661 156.745 120.208 157.099 119.327C157.73 117.754 159.405 113.577 166.805 108.893C174.096 104.277 186.946 100.623 192.335 100.204C193.083 100.57 200.892 104.393 214.488 111.049C214.066 111.384 213.088 112.011 211.087 112.67C206.375 114.224 199.685 114.734 194.903 114.889C178.383 115.421 173.21 117.886 166.919 124.563C165.414 126.16 164.999 126.032 164.957 126.012C164.798 125.937 164.777 125.395 164.865 124.961C164.878 124.899 164.866 124.834 164.832 124.78C164.797 124.726 164.743 124.685 164.679 124.666C164.616 124.647 164.547 124.652 164.486 124.678C164.425 124.704 164.377 124.751 164.35 124.809C163.433 126.799 162.952 126.847 162.865 126.837C162.634 126.809 162.41 126.234 162.344 125.847C162.334 125.786 162.302 125.732 162.253 125.692C162.204 125.652 162.141 125.63 162.077 125.63C162.077 125.631 162.077 125.631 162.077 125.631Z" fill="#282828"/>
<mask id="mask6_23429_23253" style="mask-type:luminance" maskUnits="userSpaceOnUse" x="156" y="99" width="59" height="29">
<path d="M158.62 120.034C160.709 117.939 161.796 116.84 161.796 116.84C161.796 116.84 159.927 120.3 160.114 124.292C160.301 128.284 161.796 127.485 162.076 125.888C162.076 125.888 162.637 129.171 164.598 124.913C164.598 124.913 163.944 128.106 167.121 124.735C173.201 118.282 178.144 115.687 194.912 115.147C200.34 114.971 204.34 114.489 207.273 113.909C207.319 113.9 207.363 113.892 207.407 113.883C208.944 113.575 210.183 113.241 211.176 112.914C211.529 112.798 211.878 112.673 212.224 112.538C214.368 111.698 214.95 110.985 214.95 110.985L200.713 104.016L198.48 102.923L192.404 99.9476C192.394 99.9432 192.39 99.9414 192.39 99.9414C186.925 100.341 173.94 104.066 166.653 108.679C159.367 113.292 157.592 117.372 156.845 119.235C156.097 121.098 156.938 121.719 158.62 120.034Z" fill="white"/>
</mask>
<g mask="url(#mask6_23429_23253)">
<path d="M164.446 126.454C164.518 126.454 164.587 126.427 164.638 126.379C164.689 126.331 164.717 126.265 164.717 126.197C164.717 123.586 167.655 119.475 169.507 117.497C169.531 117.472 169.549 117.443 169.562 117.41C169.574 117.378 169.579 117.344 169.577 117.31C169.575 117.276 169.566 117.243 169.551 117.212C169.535 117.181 169.513 117.154 169.486 117.131C169.46 117.108 169.428 117.091 169.394 117.08C169.36 117.069 169.324 117.064 169.288 117.067C169.253 117.069 169.218 117.078 169.185 117.093C169.153 117.108 169.125 117.129 169.101 117.155C167.731 118.619 164.175 123.096 164.175 126.197C164.175 126.231 164.182 126.264 164.195 126.295C164.209 126.327 164.229 126.355 164.254 126.379C164.279 126.403 164.309 126.422 164.342 126.435C164.375 126.448 164.41 126.454 164.446 126.454ZM162.11 127.253L162.119 127.253C162.191 127.251 162.259 127.222 162.308 127.172C162.358 127.122 162.384 127.056 162.382 126.987C162.245 122.712 163.602 118.907 166.528 115.356C166.55 115.329 166.566 115.299 166.576 115.266C166.585 115.234 166.588 115.2 166.584 115.166C166.579 115.132 166.568 115.1 166.551 115.071C166.533 115.041 166.51 115.015 166.482 114.994C166.454 114.973 166.421 114.958 166.387 114.949C166.353 114.94 166.317 114.937 166.282 114.941C166.246 114.946 166.212 114.956 166.181 114.973C166.15 114.989 166.123 115.012 166.101 115.038C163.093 118.688 161.699 122.602 161.839 127.003C161.842 127.07 161.871 127.133 161.922 127.18C161.972 127.227 162.04 127.253 162.11 127.253ZM160.802 118.826C160.851 118.826 160.899 118.813 160.941 118.79C160.983 118.766 161.018 118.732 161.041 118.691C161.258 118.311 161.474 117.93 161.687 117.548C162.518 116.068 163.235 114.79 164.19 113.674C164.212 113.648 164.229 113.618 164.239 113.585C164.249 113.553 164.253 113.519 164.249 113.485C164.245 113.451 164.235 113.419 164.218 113.389C164.201 113.359 164.178 113.333 164.15 113.312C164.122 113.29 164.091 113.274 164.056 113.265C164.022 113.255 163.986 113.252 163.951 113.255C163.916 113.259 163.881 113.269 163.85 113.285C163.818 113.301 163.791 113.323 163.768 113.349C162.781 114.503 162.052 115.802 161.208 117.306C161.002 117.674 160.788 118.055 160.564 118.445C160.542 118.484 160.531 118.528 160.531 118.573C160.532 118.617 160.545 118.661 160.569 118.699C160.593 118.738 160.627 118.77 160.668 118.792C160.709 118.814 160.755 118.826 160.802 118.826Z" fill="#282828"/>
</g>
<path d="M193.792 98.2546C190.055 89.4725 184.264 60.4652 194.166 58.1588C204.068 55.8524 223.966 77.7631 219.295 106.771C219.295 106.771 220.556 107.791 219.669 109.875C218.735 112.067 215.979 115.153 214.064 116.528C215.231 115.153 200.658 104.065 192.391 99.94C192.391 99.94 191.97 98.9199 193.792 98.2546Z" fill="white"/>
<path d="M214.064 116.788C214.121 116.788 214.179 116.771 214.227 116.736C216.144 115.36 218.954 112.244 219.92 109.974C220.717 108.102 219.901 107.013 219.584 106.683C221.026 97.5886 220.148 88.3423 217.044 79.9345C214.404 72.7857 210.286 66.5338 205.448 62.3305C201.374 58.7911 197.238 57.1802 194.101 57.9109C192.487 58.287 191.194 59.3574 190.258 61.0926C188.887 63.6357 187.565 68.9928 189.052 80.0727C189.928 86.5974 191.721 93.9565 193.441 98.1168C192.81 98.3876 192.392 98.7375 192.196 99.1588C191.98 99.6237 192.121 99.9955 192.138 100.036C192.162 100.094 192.207 100.142 192.265 100.17C200.423 104.241 213.401 114.207 213.85 116.264C213.865 116.334 213.856 116.365 213.852 116.369C213.82 116.407 213.8 116.452 213.794 116.501C213.788 116.549 213.797 116.598 213.819 116.642C213.841 116.686 213.876 116.723 213.919 116.749C213.962 116.774 214.013 116.788 214.064 116.788ZM195.672 58.2519C198.413 58.2519 201.753 59.8188 205.081 62.7106C209.855 66.8576 213.921 73.035 216.532 80.1049C219.622 88.4731 220.484 97.6812 219.027 106.734C219.02 106.777 219.025 106.822 219.041 106.863C219.057 106.904 219.084 106.94 219.119 106.969C219.163 107.005 220.214 107.908 219.417 109.781C218.554 111.809 216.159 114.541 214.332 115.997C213.652 114.203 207.942 109.817 206.162 108.482C201.4 104.909 196.228 101.58 192.625 99.7683C192.595 99.5536 192.638 98.9543 193.889 98.4973C193.923 98.485 193.954 98.4665 193.98 98.4428C194.006 98.4191 194.026 98.3908 194.041 98.3594C194.055 98.3281 194.063 98.2943 194.063 98.2601C194.064 98.2259 194.057 98.192 194.044 98.1603C192.309 94.0833 190.478 86.6186 189.59 80.0075C188.444 71.4646 188.853 64.8305 190.741 61.3272C191.602 59.7311 192.776 58.75 194.23 58.4112C194.688 58.3046 195.17 58.2519 195.672 58.2519ZM183.013 116.177C182.064 112.348 179.951 107.747 177.386 104.059L178.717 103.225L182.453 100.882C182.676 101.202 182.894 101.525 183.107 101.851C185.895 106.113 188.087 111.147 189.063 115.457L183.013 116.177Z" fill="#282828"/>
<path d="M176.361 105.565C175.725 103.742 177.44 101.562 180.192 100.697C182.943 99.8322 185.689 100.609 186.325 102.433C186.961 104.256 185.245 106.436 182.494 107.301C179.742 108.166 176.997 107.389 176.361 105.565Z" fill="#282828"/>
<mask id="mask7_23429_23253" style="mask-type:luminance" maskUnits="userSpaceOnUse" x="177" y="100" width="13" height="19">
<path d="M183.447 118.428L189.475 117.732C188.831 112.7 186.076 106.085 182.456 100.879L177.389 104.056C180.482 108.504 182.917 114.28 183.447 118.428Z" fill="white"/>
</mask>
<g mask="url(#mask7_23429_23253)">
<path d="M180.199 108.083C180.98 108.083 181.807 107.96 182.633 107.7C184.086 107.244 185.323 106.437 186.116 105.428C186.928 104.397 187.182 103.277 186.833 102.274C186.483 101.272 185.575 100.517 184.276 100.15C183.005 99.79 181.505 99.8436 180.053 100.3C177.025 101.252 175.141 103.686 175.853 105.727C176.37 107.21 178.119 108.083 180.199 108.083ZM182.499 100.343C183.076 100.343 183.632 100.416 184.147 100.561C185.3 100.887 186.102 101.544 186.404 102.409C186.705 103.274 186.475 104.255 185.754 105.171C185.015 106.11 183.856 106.863 182.491 107.293C179.7 108.17 176.915 107.407 176.282 105.592C175.649 103.776 177.404 101.585 180.195 100.708C180.966 100.465 181.75 100.343 182.499 100.343Z" fill="white"/>
</g>
<path d="M176.331 105.003C175.786 103.439 177.51 101.491 180.181 100.651C182.852 99.8111 185.459 100.398 186.004 101.962C186.549 103.525 184.826 105.474 182.155 106.313C179.484 107.153 176.877 106.566 176.331 105.003Z" fill="white"/>
<path d="M179.771 106.951C180.551 106.951 181.392 106.825 182.237 106.559C185.045 105.676 186.849 103.578 186.258 101.882C185.667 100.185 182.9 99.524 180.091 100.407C178.753 100.828 177.597 101.533 176.838 102.391C176.048 103.284 175.776 104.241 176.07 105.085C176.484 106.271 177.96 106.951 179.771 106.951ZM182.595 100.523C184.155 100.523 185.404 101.072 185.743 102.044C186.24 103.47 184.591 105.276 182.066 106.07C179.541 106.864 177.083 106.349 176.585 104.923C176.352 104.255 176.59 103.473 177.254 102.722C177.949 101.936 179.017 101.288 180.262 100.897C181.067 100.643 181.865 100.523 182.595 100.523Z" fill="#282828"/>
<path d="M181.718 105.165C181.762 105.165 181.805 105.155 181.844 105.135C181.883 105.116 181.916 105.088 181.941 105.054C181.966 105.02 181.982 104.981 181.987 104.939C181.993 104.898 181.988 104.856 181.972 104.817L181.291 103.082C181.278 103.05 181.259 103.02 181.234 102.995C181.209 102.97 181.18 102.95 181.147 102.936C181.114 102.922 181.078 102.915 181.042 102.914C181.006 102.913 180.97 102.92 180.936 102.932L178.108 103.998C178.041 104.023 177.988 104.072 177.959 104.135C177.93 104.198 177.929 104.269 177.956 104.332C177.982 104.396 178.034 104.447 178.101 104.474C178.167 104.501 178.241 104.502 178.308 104.477L180.879 103.508L181.464 104.997C181.483 105.046 181.518 105.089 181.564 105.119C181.609 105.149 181.663 105.165 181.718 105.165Z" fill="#282828"/>
<mask id="mask8_23429_23253" style="mask-type:luminance" maskUnits="userSpaceOnUse" x="127" y="52" width="93" height="65">
<path d="M127.606 83.7141C132.383 76.9752 139.376 70.7981 143.767 68.7579C144.601 68.3699 145.419 68.4639 145.915 68.9353C149.185 62.5484 161.235 49.5971 173.847 53.4115C173.847 53.4115 175.341 52.5245 176.743 52.4357C178.544 52.3217 190.755 53.8551 190.755 53.8551C192.398 55.9821 193.98 57.5412 194.549 58.082C204.571 56.4119 223.905 78.1316 219.294 106.769C219.294 106.769 220.555 107.789 219.668 109.874C218.735 112.066 215.978 115.152 214.063 116.527C215.225 115.158 200.796 104.169 192.509 99.9982C190.767 101.476 188.593 102.579 185.898 103.176C174.181 105.772 159.16 102.068 153.088 98.8746C153.088 98.8746 150.773 96.4345 150.866 92.2653C149.234 93.9349 142.072 96.2055 135.424 92.4499C131.622 90.4912 128.856 87.6628 127.641 86.0445C127.12 85.3497 127.104 84.422 127.606 83.7141Z" fill="white"/>
</mask>
<g mask="url(#mask8_23429_23253)">
<path d="M175.269 62.7917C176.505 62.7917 178.353 61.7916 180.03 60.8844L180.147 60.8211C182.429 59.5866 188.23 56.6732 192.788 56.2853C192.86 56.2793 192.926 56.2464 192.972 56.194C193.018 56.1416 193.041 56.0739 193.034 56.0058C193.027 55.9378 192.993 55.8751 192.938 55.8313C192.882 55.7875 192.811 55.7663 192.74 55.7721C190.81 55.9363 186.572 56.7525 179.878 60.3733L179.761 60.4367C178.041 61.3673 175.443 62.7735 174.705 62.1076C174.199 61.6517 174.193 59.9856 177.032 54.6366C177.049 54.6063 177.059 54.5732 177.062 54.5391C177.065 54.505 177.061 54.4706 177.05 54.438C177.039 54.4054 177.022 54.3752 176.998 54.3491C176.975 54.3231 176.946 54.3017 176.914 54.2863C176.882 54.2709 176.847 54.2618 176.811 54.2594C176.775 54.257 176.739 54.2615 176.704 54.2725C176.67 54.2835 176.639 54.3009 176.612 54.3236C176.585 54.3463 176.563 54.3739 176.547 54.4048C173.306 60.5119 173.73 61.939 174.331 62.4811C174.572 62.6985 174.892 62.7917 175.269 62.7917ZM169.213 59.3823C169.263 59.3823 169.312 59.3694 169.354 59.3449C169.397 59.3204 169.431 59.2852 169.454 59.2433C173.032 52.7031 176.343 52.6404 176.401 52.6404H176.405C176.476 52.6404 176.544 52.6139 176.595 52.5667C176.646 52.5195 176.675 52.4553 176.677 52.3878C176.678 52.3199 176.652 52.2542 176.602 52.205C176.553 52.1558 176.485 52.1271 176.414 52.1252C176.266 52.1218 172.745 52.1106 168.973 59.0058C168.951 59.045 168.941 59.0889 168.942 59.1331C168.944 59.1773 168.957 59.2204 168.981 59.2582C169.006 59.296 169.04 59.3273 169.08 59.349C169.121 59.3708 169.167 59.3822 169.213 59.3823ZM135.299 93.6323C135.363 93.6323 135.426 93.6103 135.475 93.5705C135.524 93.5307 135.556 93.4756 135.566 93.4151C136.495 87.8588 140.084 76.7836 146.165 69.0455C146.208 68.9908 146.226 68.9223 146.215 68.855C146.204 68.7878 146.166 68.7273 146.109 68.6866C146.052 68.6459 145.98 68.6284 145.909 68.6379C145.838 68.6474 145.774 68.6832 145.73 68.7373C139.591 76.5502 135.968 87.7275 135.03 93.3343C135.024 93.3712 135.027 93.4088 135.037 93.4447C135.048 93.4805 135.067 93.5138 135.092 93.5421C135.118 93.5704 135.149 93.5932 135.185 93.6088C135.221 93.6243 135.259 93.6324 135.299 93.6323ZM219.589 107.242C219.645 107.242 219.7 107.226 219.745 107.195C219.791 107.164 219.826 107.121 219.845 107.071C219.864 107.021 219.866 106.967 219.851 106.915C219.836 106.864 219.805 106.819 219.761 106.785C216.577 104.306 212.085 102.044 207.112 100.417C203.092 99.101 199.055 98.2844 195.521 98.0594C203.675 96.5434 212.485 98.9859 212.58 99.0129C212.649 99.0324 212.724 99.0251 212.787 98.9925C212.85 98.96 212.897 98.9049 212.918 98.8395C212.938 98.774 212.931 98.7034 212.896 98.6433C212.862 98.5832 212.804 98.5385 212.735 98.519C212.709 98.5117 210.085 97.7769 206.419 97.3497C203.03 96.9549 198.028 96.7483 193.436 98.006C193.373 98.0232 193.319 98.0614 193.283 98.1135C193.248 98.1656 193.233 98.2282 193.242 98.2897C193.251 98.3512 193.284 98.4074 193.333 98.4482C193.382 98.4889 193.446 98.5113 193.511 98.5113C193.534 98.5093 193.564 98.5111 193.59 98.5112C197.482 98.5112 202.217 99.3598 206.935 100.904C211.848 102.512 216.281 104.742 219.417 107.183C219.466 107.221 219.526 107.242 219.589 107.242Z" fill="#282828"/>
</g>
<mask id="mask9_23429_23253" style="mask-type:luminance" maskUnits="userSpaceOnUse" x="127" y="52" width="93" height="65">
<path d="M127.606 83.7141C132.383 76.9752 139.376 70.7981 143.767 68.7579C144.601 68.3699 145.419 68.4639 145.915 68.9353C149.185 62.5484 161.235 49.5971 173.847 53.4115C173.847 53.4115 175.341 52.5245 176.743 52.4357C178.544 52.3217 190.755 53.8551 190.755 53.8551C192.398 55.9821 193.98 57.5412 194.549 58.082C204.571 56.4119 223.905 78.1316 219.294 106.769C219.294 106.769 220.555 107.789 219.668 109.874C218.735 112.066 215.978 115.152 214.063 116.527C215.225 115.158 200.796 104.169 192.509 99.9982C190.767 101.476 188.593 102.579 185.898 103.176C174.181 105.772 159.16 102.068 153.088 98.8746C153.088 98.8746 150.773 96.4345 150.866 92.2653C149.234 93.9349 142.072 96.2055 135.424 92.4499C131.622 90.4912 128.856 87.6628 127.641 86.0445C127.12 85.3497 127.104 84.422 127.606 83.7141Z" fill="white"/>
</mask>
<g mask="url(#mask9_23429_23253)">
<path d="M142.026 84.0512C142.093 84.0511 142.157 84.0277 142.206 83.9855C142.256 83.9432 142.288 83.8851 142.295 83.8222C143.215 76.0523 146.171 69.0571 146.201 68.9873C146.215 68.9559 146.222 68.922 146.222 68.8878C146.222 68.8536 146.215 68.8197 146.202 68.7881C146.188 68.7565 146.168 68.7278 146.142 68.7037C146.116 68.6796 146.086 68.6606 146.053 68.6478C146.019 68.6349 145.984 68.6285 145.948 68.6289C145.912 68.6293 145.876 68.6365 145.843 68.6501C145.81 68.6637 145.78 68.6835 145.755 68.7081C145.73 68.7328 145.711 68.7619 145.698 68.7939C145.668 68.8643 142.684 75.9252 141.756 83.7647C141.752 83.8008 141.756 83.8373 141.767 83.8718C141.779 83.9064 141.798 83.9383 141.823 83.9653C141.849 83.9924 141.88 84.014 141.915 84.0288C141.95 84.0436 141.988 84.0512 142.026 84.0512Z" fill="#282828"/>
</g>
<path d="M171.108 26.5453C171.995 26.1318 173.346 26.0251 174.554 26.6684C175.845 23.082 180.874 23.8601 181.475 26.6322C185.048 24.1974 189.218 28.0331 187.69 31.0251C187.129 32.1235 186.279 34.098 186.749 36.0005C185.02 36.688 181.619 40.8909 181.619 40.8909C181.619 40.8909 176.016 33.0691 172.993 32.7276C168.239 32.1907 168.769 27.6361 171.108 26.5453Z" fill="#282828"/>
<mask id="mask10_23429_23253" style="mask-type:luminance" maskUnits="userSpaceOnUse" x="169" y="24" width="20" height="17">
<path d="M171.108 26.5453C171.994 26.1318 173.346 26.0251 174.553 26.6684C175.845 23.082 180.873 23.8601 181.475 26.6322C185.048 24.1974 189.218 28.0331 187.69 31.0251C187.129 32.1235 186.236 34.0245 186.706 35.927C184.977 36.6145 181.618 40.8909 181.618 40.8909C181.618 40.8909 176.016 33.0691 172.993 32.7276C168.239 32.1907 168.769 27.6361 171.108 26.5453Z" fill="white"/>
</mask>
<g mask="url(#mask10_23429_23253)">
<path d="M176.268 28.3663C176.314 28.3663 176.359 28.3551 176.399 28.334C176.439 28.3128 176.473 28.2822 176.498 28.2452C176.522 28.2082 176.536 28.1659 176.539 28.1223C176.541 28.0787 176.532 28.0352 176.512 27.9959C175.574 26.1649 173.947 25.8001 173.291 25.7282C173.22 25.7205 173.148 25.7401 173.092 25.7825C173.036 25.8249 172.999 25.8868 172.991 25.9547C172.987 25.9883 172.99 26.0223 172.999 26.0549C173.009 26.0874 173.026 26.1178 173.048 26.1443C173.07 26.1708 173.097 26.1929 173.129 26.2094C173.16 26.2258 173.194 26.2363 173.229 26.2401C173.796 26.3022 175.203 26.6196 176.024 28.2214C176.046 28.2649 176.081 28.3015 176.124 28.3272C176.167 28.3528 176.217 28.3664 176.268 28.3663Z" fill="white"/>
</g>
<path d="M168.151 43.3949C168.011 44.3907 168.513 45.4599 169.586 46.1058C172.382 47.7874 176.214 47.1427 176.214 47.1427C176.214 47.1427 177.117 49.8668 176.556 54.4796C176.556 54.4796 182.088 56.0979 190.756 53.8587C190.756 53.8587 187.766 49.8668 186.312 43.0312C188.359 42.8747 190.739 41.0371 190.387 38.3965C190.186 36.8902 188.565 35.7904 186.931 35.9517C185.252 36.1172 184.083 37.3586 182.732 38.6107C181.204 40.0263 180.84 38.7625 180.351 37.1681C180.036 36.144 179.671 34.9838 178.913 34.3097C177.199 32.7853 172.994 32.7305 172.994 32.7305C172.994 32.7305 172.944 33.2483 172.834 33.8959C172.689 34.752 172.435 35.8339 172.048 36.2437C171.369 36.9626 170.748 36.7947 170.694 37.2892C170.648 37.7131 171.115 38.2586 171.39 38.4998C171.001 41.389 168.479 41.0707 168.151 43.3949Z" fill="white"/>
<path d="M181.845 55.3062C184.193 55.3062 187.237 55.031 190.828 54.1033C190.87 54.0924 190.909 54.072 190.941 54.0438C190.973 54.0156 190.998 53.9805 191.012 53.9415C191.027 53.9024 191.032 53.8606 191.026 53.8195C191.02 53.7784 191.003 53.7393 190.978 53.7054C190.949 53.6665 188.084 49.7809 186.639 43.2497C187.781 43.0792 188.928 42.4474 189.692 41.5545C190.241 40.9123 190.855 39.8368 190.658 38.36C190.441 36.734 188.722 35.5121 186.904 35.6913C185.287 35.8508 184.135 36.931 182.916 38.0745C182.793 38.1897 182.669 38.3059 182.544 38.4223C182.109 38.825 181.762 39.0083 181.541 38.9534C181.154 38.8566 180.887 37.988 180.63 37.1479L180.612 37.0919C180.306 36.0932 179.924 34.8504 179.1 34.1175C177.329 32.543 173.175 32.4711 172.999 32.4688C172.93 32.4673 172.864 32.4908 172.813 32.5343C172.762 32.5779 172.731 32.6382 172.725 32.7031C172.724 32.7082 172.675 33.2204 172.568 33.8507C172.376 34.9779 172.114 35.7859 171.848 36.0677C171.555 36.3771 171.284 36.4971 171.045 36.6031C170.775 36.723 170.469 36.8588 170.426 37.2587C170.374 37.7372 170.788 38.2806 171.103 38.5886C170.887 39.9215 170.191 40.4713 169.455 41.0523C168.766 41.5967 168.052 42.1598 167.884 43.3567C167.721 44.5082 168.319 45.6435 169.442 46.3195C171.916 47.8071 175.108 47.5418 176.016 47.4275C176.205 48.1466 176.748 50.664 176.288 54.4462C176.281 54.5059 176.296 54.5662 176.33 54.6166C176.365 54.667 176.417 54.7042 176.478 54.7219C176.611 54.7611 178.539 55.3062 181.845 55.3062ZM190.323 53.698C182.98 55.5216 177.932 54.539 176.853 54.284C177.36 49.804 176.511 47.1729 176.474 47.0613C176.454 47.0016 176.412 46.9508 176.356 46.9183C176.3 46.8859 176.233 46.874 176.168 46.885C176.131 46.8913 172.404 47.4911 169.733 45.8843C168.79 45.3171 168.288 44.3749 168.422 43.4251C168.562 42.4274 169.137 41.9738 169.802 41.4486C170.571 40.8419 171.441 40.1543 171.66 38.5284C171.666 38.4877 171.661 38.4463 171.646 38.4077C171.631 38.3692 171.607 38.3345 171.575 38.3066C171.303 38.0676 170.934 37.6009 170.965 37.3117C170.975 37.2187 170.999 37.1924 171.275 37.0701C171.533 36.9559 171.885 36.7996 172.252 36.4118C172.6 36.0427 172.886 35.2088 173.104 33.933C173.157 33.6206 173.202 33.307 173.239 32.9926C174.151 33.0331 177.343 33.2618 178.729 34.4938C179.445 35.1302 179.804 36.2979 180.092 37.2363L180.109 37.2921C180.436 38.3592 180.719 39.2809 181.404 39.4519C181.837 39.5599 182.32 39.35 182.923 38.7912C183.049 38.6742 183.174 38.5573 183.297 38.4413C184.497 37.3163 185.533 36.3447 186.96 36.204C188.466 36.0557 189.941 37.0932 190.119 38.4249C190.292 39.721 189.753 40.6655 189.271 41.2298C188.529 42.0963 187.388 42.6867 186.292 42.7705C186.253 42.7735 186.216 42.7841 186.183 42.8016C186.149 42.8192 186.12 42.8433 186.097 42.8724C186.074 42.9015 186.057 42.9348 186.049 42.9703C186.041 43.0058 186.04 43.0426 186.048 43.0783C187.271 48.8309 189.608 52.6317 190.323 53.698Z" fill="#282828"/>
<mask id="mask11_23429_23253" style="mask-type:luminance" maskUnits="userSpaceOnUse" x="168" y="32" width="23" height="24">
<path d="M168.155 43.391C168.015 44.3868 168.516 45.456 169.59 46.1019C172.386 47.7835 176.217 47.1387 176.217 47.1387C176.217 47.1387 177.12 49.8629 176.56 54.4757C176.56 54.4757 182.092 56.094 190.759 53.8548C190.759 53.8548 187.77 49.8629 186.316 43.0273C188.363 42.8708 190.743 41.0332 190.391 38.3926C190.19 36.8863 188.568 35.7865 186.934 35.9477C185.256 36.1133 184.087 37.3547 182.736 38.6068C181.208 40.0224 180.844 38.7586 180.354 37.1641C180.04 36.1401 179.675 34.9799 178.917 34.3058C177.202 32.7814 172.998 32.7266 172.998 32.7266C172.998 32.7266 172.948 33.2444 172.838 33.892C172.692 34.7481 172.439 35.83 172.052 36.2398C171.373 36.9587 170.752 36.7908 170.698 37.2853C170.652 37.7092 171.119 38.2547 171.394 38.4959C171.005 41.3851 168.483 41.0668 168.155 43.391Z" fill="white"/>
</mask>
<g mask="url(#mask11_23429_23253)">
<path d="M185.884 43.2705C186.593 43.2705 187.085 43.1752 187.124 43.1674C187.195 43.1533 187.256 43.1133 187.296 43.0561C187.335 42.9988 187.349 42.9291 187.334 42.8622C187.319 42.7954 187.277 42.7368 187.217 42.6995C187.156 42.6621 187.083 42.649 187.013 42.6631C186.996 42.6665 185.294 42.9924 183.689 42.3781C183.656 42.3655 183.621 42.3591 183.585 42.3594C183.549 42.3597 183.514 42.3667 183.481 42.3799C183.449 42.3932 183.419 42.4124 183.394 42.4366C183.369 42.4608 183.349 42.4894 183.336 42.5208C183.309 42.5841 183.31 42.6551 183.338 42.7179C183.366 42.7808 183.419 42.8305 183.486 42.8561C184.344 43.1845 185.211 43.2705 185.884 43.2705ZM176.026 46.9214C176.026 46.9214 178.331 46.4521 179.825 45.0329C180.311 45.3397 180.541 48.0072 177.732 49.1121C174.797 50.2671 176.026 46.9214 176.026 46.9214Z" fill="#282828"/>
</g>
<path d="M178.438 34.6336C178.036 32.9506 176.022 32.2208 174.949 33.0504C174.681 33.2577 174.702 33.6531 174.99 33.8345C175.441 34.1186 176.023 34.3731 176.931 35.0165C177.08 35.1241 177.588 35.4996 177.65 35.5131L177.994 35.5882C178.045 35.5994 178.098 35.6009 178.15 35.5926C178.202 35.5843 178.252 35.5664 178.297 35.5399C178.341 35.5133 178.38 35.4787 178.41 35.4379C178.441 35.3972 178.463 35.3511 178.475 35.3024C178.497 35.2087 178.503 34.9187 178.438 34.6336ZM176.306 36.5464C175.866 36.3495 174.798 35.9003 173.888 35.1683C173.858 35.1439 173.823 35.1254 173.785 35.1139C173.747 35.1024 173.707 35.0982 173.667 35.1015C173.628 35.1048 173.589 35.1155 173.554 35.133C173.518 35.1505 173.487 35.1745 173.462 35.2036C173.185 35.5183 172.833 36.1014 173.521 36.5244C174.365 37.0442 175.922 37.1024 176.339 36.7934C176.429 36.727 176.409 36.5925 176.306 36.5464ZM172.001 41.2423C172.124 41.3803 172.285 41.4825 172.453 41.5566C172.621 41.6282 172.799 41.6745 172.982 41.6939C173.344 41.7336 173.716 41.6864 174.065 41.5273C174.232 41.4469 174.386 41.3445 174.522 41.2231C174.655 41.0993 174.774 40.9601 174.862 40.8036C175.042 40.4951 175.116 40.1244 175.034 39.7832C175.023 39.7384 174.996 39.6988 174.957 39.6713C174.918 39.6439 174.871 39.6304 174.823 39.6334C174.774 39.6364 174.729 39.6556 174.694 39.6876C174.66 39.7196 174.638 39.7622 174.634 39.8079L174.633 39.8183C174.608 40.0689 174.515 40.3091 174.363 40.5152C174.287 40.6147 174.203 40.7084 174.103 40.7865C174.006 40.8671 173.898 40.9355 173.783 40.9899C173.564 41.0951 173.29 41.1445 173.024 41.1444C172.756 41.142 172.492 41.0866 172.271 40.959L172.261 40.9531C172.22 40.9292 172.171 40.9201 172.123 40.9273C172.076 40.9345 172.032 40.9576 172.001 40.9924C171.97 41.0272 171.952 41.0715 171.952 41.1173C171.952 41.1631 171.969 41.2075 172.001 41.2423ZM184.598 40.7279C184.654 40.7279 184.708 40.7118 184.753 40.6816C184.799 40.6515 184.833 40.6089 184.853 40.5594C185.256 39.5211 185.921 38.8351 186.828 38.5205C187.5 38.2875 188.047 38.3533 188.053 38.354C188.124 38.3619 188.195 38.343 188.251 38.3016C188.307 38.2601 188.344 38.1993 188.353 38.1323C188.363 38.0653 188.344 37.9974 188.301 37.9434C188.259 37.8893 188.195 37.8533 188.125 37.8432C188.098 37.84 185.449 37.5374 184.344 40.3808C184.328 40.4198 184.323 40.4616 184.329 40.5029C184.334 40.5441 184.35 40.5834 184.375 40.6175C184.4 40.6516 184.434 40.6794 184.473 40.6987C184.511 40.7179 184.554 40.7279 184.598 40.7279Z" fill="#282828"/>
<path d="M152.811 103.91C155.499 105.12 158.28 106.011 160.999 106.666L162.783 101.993C159.565 101.217 156.631 100.173 154.616 99.3203L152.811 103.91Z" fill="white"/>
<path d="M154.924 100.011L153.495 103.644C155.693 104.6 158.098 105.408 160.657 106.049L162.07 102.349C159.664 101.738 157.118 100.905 154.924 100.011ZM154.616 99.3203C156.631 100.173 159.565 101.217 162.783 101.993L160.999 106.666C158.28 106.011 155.499 105.12 152.811 103.91L154.616 99.3203Z" fill="#282828"/>
<path d="M176.556 54.4768C176.556 54.4768 172.072 54.388 169.27 58.0251C169.27 58.0251 154.885 74.4777 150.346 91.4164C150.255 91.7571 150.23 92.1102 150.268 92.4599C150.413 93.8082 151.053 96.5814 152.553 98.932C152.681 99.132 152.964 99.1991 153.178 99.0836L160.525 95.5769C160.737 95.4625 160.915 95.2978 161.04 95.0989C161.166 94.9 161.235 94.6736 161.24 94.4419C161.323 91.1016 162.219 76.5543 172.636 59.1697C172.636 59.1697 174.352 59.3366 174.501 58.9121C175.155 57.0493 176.556 54.4768 176.556 54.4768Z" fill="#FFBABA"/>
<path d="M172.681 59.6596C172.75 59.6596 172.816 59.6348 172.867 59.5902C172.917 59.5456 172.948 59.4845 172.952 59.4193C172.957 59.3541 172.935 59.2897 172.892 59.2391C172.848 59.1884 172.786 59.1554 172.718 59.1467C170.756 58.8926 169.299 57.957 169.285 57.9476C169.225 57.9089 169.152 57.8942 169.082 57.9067C169.011 57.9191 168.948 57.9578 168.907 58.0141C168.867 58.0705 168.851 58.1398 168.864 58.207C168.877 58.2742 168.918 58.3337 168.977 58.3724C169.041 58.4136 170.549 59.386 172.644 59.6573C172.657 59.6588 172.669 59.6596 172.681 59.6596Z" fill="white"/>
</g>
<g clip-path="url(#clip1_23429_23253)">
<path d="M69.3765 30.0716C73.7306 26.0859 79.0207 24.5867 81.1915 26.7227L84.5327 30.0104C86.703 32.1462 84.9331 37.1094 80.5789 41.0944C76.2246 45.0794 70.9345 46.5792 68.7638 44.4431L65.4225 41.1554C63.2522 39.0196 65.0219 34.057 69.3765 30.0716Z" fill="#FFBABA"/>
<mask id="mask12_23429_23253" style="mask-type:luminance" maskUnits="userSpaceOnUse" x="64" y="25" width="22" height="21">
<path d="M69.3755 30.0677C73.7296 26.082 79.0198 24.5828 81.1906 26.7188L84.5318 30.0065C86.7021 32.1422 84.9322 37.1055 80.5779 41.0905C76.2237 45.0755 70.9335 46.5753 68.7629 44.4392L65.4215 41.1515C63.2512 39.0157 65.0209 34.0531 69.3755 30.0677Z" fill="white"/>
</mask>
<g mask="url(#mask12_23429_23253)">
<path d="M81.9924 32.3731C82.0996 32.1212 82.1976 31.8658 82.2864 31.6075C83.0941 29.2507 82.9746 27.1692 81.7354 25.9492L81.1771 26.4601C82.2078 27.4745 82.2635 29.2942 81.5488 31.3793C80.8068 33.5448 79.2054 35.8293 77.0383 37.8121C74.8712 39.7948 72.4079 41.2319 70.1014 41.8578C67.8793 42.4601 66.0878 42.2331 65.057 41.2189L64.4987 41.7299C65.7379 42.9499 67.8035 43.2462 70.3145 42.5655C72.741 41.9078 75.3201 40.408 77.5774 38.343C79.5815 36.507 81.1256 34.4137 81.9924 32.3731Z" fill="#282828"/>
<path d="M67.8456 43.0922C68.6188 43.0922 69.4634 42.9716 70.3627 42.7278C72.8162 42.0626 75.4221 40.5486 77.7 38.4644C79.7304 36.6045 81.2714 34.52 82.1565 32.4363C82.2651 32.1808 82.3645 31.9218 82.4546 31.6599C83.3213 29.1311 83.111 27.0615 81.8627 25.8323L81.7393 25.7109L80.9251 26.4561L81.0485 26.5774C81.993 27.5069 82.1104 29.1937 81.3791 31.3274C80.6457 33.4675 79.0601 35.7275 76.9142 37.6908C74.767 39.6553 72.3299 41.0776 70.0517 41.6957C67.8959 42.2801 66.1673 42.0691 65.1842 41.102L65.0609 40.9806L64.2468 41.7256L64.3701 41.847C65.2079 42.6718 66.4025 43.0922 67.8456 43.0922ZM81.8268 32.3103C80.9727 34.3213 79.4195 36.4206 77.4533 38.2217C75.2165 40.2681 72.6636 41.7533 70.2649 42.4035C67.9044 43.0434 65.9561 42.8039 64.7523 41.7314L65.0555 41.454C66.1493 42.4147 67.9486 42.6167 70.1494 42.0199C72.4825 41.3868 74.9725 39.9356 77.1608 37.9335C79.348 35.9325 80.966 33.6234 81.717 31.4316C82.4603 29.2632 82.3546 27.5104 81.4235 26.4685L81.7265 26.191C82.7713 27.3411 82.9113 29.2367 82.1166 31.5555C82.029 31.8101 81.9324 32.0619 81.8268 32.3103Z" fill="#282828"/>
<path d="M80.9591 40.8269L77.733 37.6523L77.1811 38.1575L80.4072 41.3319L80.9591 40.8269Z" fill="#282828"/>
<path d="M80.4048 41.5696L81.2124 40.8304L77.7397 37.4134L76.9321 38.1526L80.4048 41.5696ZM80.7099 40.8217L80.4139 41.0927L77.4346 38.1611L77.7306 37.8901L80.7099 40.8217ZM85.8483 33.8367L82.4494 30.4922L81.8976 30.9971L85.2966 34.3417L85.8483 33.8367Z" fill="#282828"/>
<path d="M85.2913 34.5802L86.0989 33.841L82.4534 30.2539L81.6458 30.993L85.2913 34.5802ZM85.5964 33.8324L85.3004 34.1033L82.1482 31.0016L82.4442 30.7308L85.5964 33.8324ZM83.8933 37.8134L80.5522 34.5257L80.0003 35.0306L83.3415 38.3185L83.8933 37.8134Z" fill="#282828"/>
<path d="M83.3378 38.5549L84.1454 37.8157L80.5574 34.2852L79.7498 35.0244L83.3378 38.5549ZM83.643 37.8071L83.3469 38.0781L80.2523 35.0329L80.5484 34.762L83.643 37.8071ZM75.6672 44.5051L72.326 41.2174L71.7741 41.7225L75.1154 45.0102L75.6672 44.5051Z" fill="#282828"/>
<path d="M75.1104 45.25L75.918 44.5108L72.3301 40.9805L71.5225 41.7197L75.1104 45.25ZM75.4155 44.5021L75.1195 44.773L72.0249 41.7281L72.3209 41.4572L75.4155 44.5021Z" fill="#282828"/>
</g>
<path d="M75.1701 31.2615C75.1701 30.8405 75.1518 30.3847 75.1149 29.8939C75.1093 29.8195 75.0729 29.7503 75.0135 29.7015C74.9541 29.6527 74.8768 29.6282 74.7984 29.6335C74.7201 29.6388 74.6472 29.6735 74.5957 29.7298C74.5443 29.7861 74.5185 29.8595 74.5241 29.9339C74.7412 32.8214 74.2543 34.0574 73.7264 34.2512C73.3925 34.3736 72.9091 34.1035 72.4331 33.5287C71.8121 32.7786 71.2791 32.8835 71.0164 33.0127C69.9174 33.554 69.6029 36.4876 70.1701 38.282C70.1932 38.3524 70.2446 38.4114 70.3132 38.4462C70.3818 38.481 70.462 38.4888 70.5366 38.4679C70.6112 38.447 70.6741 38.3991 70.7118 38.3346C70.7495 38.27 70.7589 38.194 70.7381 38.1229L70.7372 38.1204C70.1873 36.3806 70.6029 33.8497 71.2892 33.5115C71.5103 33.4027 71.78 33.6496 71.9674 33.876C72.6319 34.6786 73.3324 34.9981 73.9396 34.7753C74.7515 34.4773 75.1701 33.2717 75.1701 31.2615Z" fill="#282828"/>
<path d="M70.4532 38.6529C70.5269 38.6529 70.5996 38.6366 70.6656 38.6052C70.7315 38.5739 70.7888 38.5284 70.833 38.4724C70.8772 38.4164 70.907 38.3513 70.92 38.2825C70.9331 38.2136 70.9291 38.1428 70.9083 38.0757L70.9044 38.0642C70.6637 37.3021 70.5959 36.2703 70.7257 35.3125C70.8594 34.3259 71.1461 33.7725 71.371 33.6617C71.439 33.6284 71.6066 33.7137 71.8275 33.9806C72.5445 34.8466 73.3174 35.1846 74.0036 34.9331C74.8954 34.6057 75.3476 33.3706 75.3476 31.262C75.3476 30.8388 75.3288 30.3746 75.2919 29.8825C75.2876 29.8236 75.2711 29.766 75.2433 29.7132C75.2154 29.6603 75.1768 29.6133 75.1296 29.5747C75.0826 29.536 75.028 29.5065 74.969 29.4878C74.9099 29.4692 74.8476 29.4618 74.7855 29.466C74.6593 29.4744 74.5441 29.5292 74.4612 29.6199C74.3783 29.7106 74.3376 29.8267 74.3466 29.9465C74.5717 32.9399 74.0223 33.9623 73.6621 34.0944C73.4123 34.1856 72.985 33.9232 72.5727 33.4251C71.8464 32.5478 71.185 32.7401 70.9343 32.8637C69.7476 33.4481 69.4018 36.4393 69.9997 38.3309C70.0172 38.3875 70.0463 38.4403 70.0854 38.4861C70.1245 38.5319 70.1727 38.5699 70.2274 38.5979C70.2966 38.6339 70.3743 38.6528 70.4532 38.6529ZM71.4022 33.3169C71.3265 33.3169 71.2615 33.3358 71.2073 33.3626C70.3864 33.7669 70.0273 36.4624 70.5669 38.1695C70.5714 38.1836 70.5729 38.1985 70.5714 38.2131C70.5699 38.2278 70.5653 38.2421 70.558 38.2551C70.5507 38.2681 70.5407 38.2796 70.5287 38.289C70.5167 38.2983 70.5028 38.3054 70.4879 38.3096C70.4731 38.3139 70.4574 38.3154 70.442 38.3139C70.4265 38.3125 70.4115 38.3082 70.3978 38.3012C70.3841 38.2942 70.3719 38.2848 70.3621 38.2734C70.3522 38.262 70.3448 38.2488 70.3403 38.2347C69.7517 36.3726 70.1626 33.6237 71.098 33.1629C71.3591 33.0344 71.7786 33.0117 72.2932 33.6335C72.8279 34.2792 73.3737 34.5618 73.7904 34.409C74.551 34.1298 74.8914 32.4526 74.7012 29.9225C74.7 29.9078 74.7019 29.893 74.7068 29.8789C74.7117 29.8649 74.7195 29.8519 74.7297 29.8408C74.7399 29.8296 74.7523 29.8204 74.7662 29.8138C74.7802 29.8072 74.7953 29.8033 74.8109 29.8022C74.8264 29.8009 74.8421 29.8027 74.8569 29.8073C74.8718 29.812 74.8854 29.8195 74.8971 29.8294C74.9089 29.8391 74.9185 29.8508 74.9255 29.864C74.9324 29.8772 74.9365 29.8916 74.9376 29.9063C74.974 30.3907 74.9923 30.8468 74.9923 31.262C74.9923 33.1897 74.6062 34.3504 73.8755 34.6184C73.3474 34.8124 72.7192 34.5117 72.1071 33.7723C71.8162 33.421 71.5799 33.3169 71.4022 33.3169Z" fill="#282828"/>
<path d="M76.6133 30.6285C76.6133 30.5736 76.5963 30.5199 76.5644 30.474C76.5325 30.4281 76.4872 30.3921 76.434 30.3704C76.3808 30.3488 76.3221 30.3424 76.2651 30.352C76.2081 30.3617 76.1553 30.387 76.1133 30.4248L74.7666 31.6389C74.7089 31.6894 74.6747 31.7597 74.6715 31.8342C74.6684 31.9086 74.6965 31.9813 74.7498 32.036C74.8031 32.0908 74.8771 32.1233 74.9556 32.1263C75.034 32.1293 75.1106 32.1026 75.1683 32.052L75.1745 32.0465L76.5212 30.8325C76.5503 30.8062 76.5735 30.7746 76.5894 30.7395C76.6052 30.7044 76.6134 30.6667 76.6133 30.6285Z" fill="#282828"/>
<path d="M74.9677 32.2918C75.0868 32.292 75.2014 32.2494 75.2886 32.1726L75.2981 32.1641L76.6433 30.9514C76.6898 30.9094 76.7269 30.8587 76.7523 30.8027C76.7776 30.7466 76.7907 30.6862 76.7907 30.6252C76.7905 30.506 76.7405 30.3918 76.6516 30.3076C76.5628 30.2233 76.4424 30.1759 76.3168 30.1758C76.1954 30.1757 76.0786 30.22 75.9907 30.2995L74.6441 31.5135C74.5529 31.5933 74.499 31.7042 74.4939 31.8243C74.4888 31.9444 74.5334 32.059 74.6192 32.1473C74.6635 32.193 74.7174 32.2295 74.7774 32.2544C74.8374 32.2793 74.9023 32.2921 74.9677 32.2918ZM76.317 30.5129C76.3484 30.5129 76.3785 30.5248 76.4007 30.5459C76.4229 30.5669 76.4354 30.5955 76.4354 30.6253C76.4354 30.6559 76.4221 30.6857 76.3987 30.7067L75.0518 31.9209C74.9996 31.9668 74.9245 31.964 74.8802 31.9184C74.8589 31.8965 74.8477 31.8675 74.849 31.8377C74.8502 31.8079 74.8639 31.7799 74.887 31.7597L76.2354 30.5439C76.2574 30.5239 76.2866 30.5128 76.317 30.5129ZM70.4832 36.1517C70.4831 36.0969 70.4661 36.0432 70.4342 35.9975C70.4024 35.9517 70.3571 35.9158 70.304 35.8941C70.2509 35.8724 70.1922 35.866 70.1353 35.8756C70.0784 35.8852 70.0257 35.9104 69.9837 35.948L68.6279 37.1698C68.5709 37.2212 68.5378 37.2919 68.5358 37.3665C68.5338 37.441 68.5631 37.5132 68.6173 37.5673C68.6714 37.6213 68.7459 37.6527 68.8245 37.6546C68.903 37.6565 68.9791 37.6287 69.0361 37.5773L70.3909 36.3556C70.4201 36.3294 70.4434 36.2978 70.4592 36.2627C70.4751 36.2276 70.4832 36.1899 70.4832 36.1517Z" fill="#282828"/>
<path d="M68.8309 37.8238C68.9524 37.824 69.0693 37.7796 69.1571 37.6999L70.512 36.4782C70.5585 36.4361 70.5956 36.3855 70.621 36.3295C70.6464 36.2734 70.6595 36.213 70.6595 36.152C70.6596 36.0929 70.6473 36.0343 70.6234 35.9798C70.5994 35.9253 70.5643 35.8758 70.5201 35.8342C70.4763 35.7925 70.4242 35.7595 70.3668 35.737C70.3094 35.7145 70.2479 35.703 70.1859 35.7031H70.1848C70.0641 35.7033 69.9481 35.7472 69.8605 35.8259L68.5042 37.048C68.4131 37.1303 68.3602 37.2434 68.357 37.3626C68.3538 37.4819 68.4006 37.5974 68.4871 37.6839C68.5299 37.7269 68.5812 37.7613 68.6381 37.7853C68.695 37.8093 68.7563 37.8223 68.8185 37.8237L68.8309 37.8238ZM70.3042 36.1524C70.3042 36.183 70.2908 36.2126 70.2675 36.2337L68.9124 37.4556C68.8894 37.4764 68.8591 37.4868 68.8277 37.4865C68.8043 37.4859 68.7816 37.4787 68.7625 37.4658C68.7434 37.453 68.7287 37.4351 68.7203 37.4143C68.7119 37.3936 68.7101 37.3709 68.7152 37.3492C68.7203 37.3276 68.7321 37.3078 68.749 37.2924L70.1047 36.0707C70.1267 36.0512 70.1556 36.0403 70.1857 36.0402H70.186C70.2015 36.0402 70.2169 36.0431 70.2312 36.0487C70.2456 36.0544 70.2586 36.0626 70.2696 36.073C70.2806 36.0835 70.2893 36.0958 70.2953 36.1095C70.3012 36.1231 70.3042 36.1377 70.3042 36.1524Z" fill="#282828"/>
</g>
<g clip-path="url(#clip2_23429_23253)">
<path d="M51.6392 67.4251C54.8202 70.7057 55.934 74.6651 54.127 76.2688L51.3456 78.7371C49.5386 80.3408 45.4949 78.9813 42.3139 75.7007C39.1328 72.4201 38.0189 68.4607 39.826 66.857L42.6075 64.3887C44.4145 62.785 48.4581 64.1444 51.6392 67.4251Z" fill="#FFBABA"/>
<mask id="mask13_23429_23253" style="mask-type:luminance" maskUnits="userSpaceOnUse" x="38" y="63" width="17" height="17">
<path d="M51.6419 67.429C54.8229 70.7096 55.9367 74.669 54.1297 76.2727L51.3483 78.741C49.5413 80.3447 45.4977 78.9852 42.3166 75.7046C39.1355 72.424 38.0216 68.4646 39.8287 66.8609L42.6102 64.3926C44.4172 62.7889 48.4608 64.1484 51.6419 67.429Z" fill="white"/>
</mask>
<g mask="url(#mask13_23429_23253)">
<path d="M50.6021 77.2869C52.3088 77.7273 53.7509 77.5146 54.7003 76.6721C54.7369 76.6396 54.7666 76.6007 54.7876 76.5576C54.8087 76.5144 54.8207 76.4679 54.823 76.4207C54.8254 76.3735 54.8179 76.3264 54.8012 76.2823C54.7844 76.2382 54.7587 76.1978 54.7254 76.1635C54.6921 76.1291 54.6519 76.1015 54.6072 76.0822C54.5624 76.063 54.5139 76.0524 54.4645 76.051C54.4151 76.0497 54.3657 76.0577 54.3192 76.0746C54.2727 76.0915 54.2299 76.1168 54.1933 76.1493C53.3675 76.8824 52.0033 76.992 50.3505 76.458C48.618 75.898 46.8071 74.7059 45.251 73.1012C43.695 71.4964 42.5881 69.6795 42.1344 67.9848C41.7017 66.3687 41.9183 65.075 42.7442 64.342C42.7808 64.3095 42.8105 64.2706 42.8315 64.2274C42.8526 64.1843 42.8646 64.1378 42.867 64.0906C42.8693 64.0433 42.8619 63.9963 42.8451 63.9522C42.8283 63.908 42.8026 63.8677 42.7693 63.8333C42.736 63.799 42.6958 63.7714 42.6511 63.7521C42.6063 63.7328 42.5579 63.7222 42.5084 63.7209C42.459 63.7196 42.4097 63.7276 42.3631 63.7445C42.3166 63.7613 42.2738 63.7867 42.2372 63.8192C41.1955 64.7437 40.8996 66.2908 41.4045 68.1757C41.8881 69.982 43.0563 71.9068 44.6939 73.5955C46.3316 75.2844 48.2504 76.5431 50.097 77.14C50.2636 77.194 50.4321 77.2429 50.6021 77.2869Z" fill="#282828"/>
</g>
<mask id="mask14_23429_23253" style="mask-type:luminance" maskUnits="userSpaceOnUse" x="38" y="63" width="17" height="17">
<path d="M51.6419 67.429C54.8229 70.7096 55.9367 74.669 54.1297 76.2727L51.3483 78.741C49.5413 80.3447 45.4977 78.9852 42.3166 75.7046C39.1355 72.424 38.0216 68.4646 39.8287 66.8609L42.6102 64.3926C44.4172 62.7889 48.4608 64.1484 51.6419 67.429Z" fill="white"/>
</mask>
<g mask="url(#mask14_23429_23253)">
<path d="M42.217 76.1265C42.2789 76.1426 42.3443 76.1431 42.4071 76.1281C42.4699 76.113 42.5279 76.0829 42.5756 76.0406L45.2609 73.6573C45.2975 73.6248 45.3272 73.5859 45.3482 73.5428C45.3693 73.4997 45.3813 73.4532 45.3837 73.4059C45.386 73.3587 45.3785 73.3117 45.3618 73.2675C45.345 73.2234 45.3193 73.183 45.286 73.1487C45.2527 73.1144 45.2125 73.0868 45.1678 73.0675C45.123 73.0482 45.0746 73.0376 45.0251 73.0363C44.9757 73.035 44.9264 73.043 44.8798 73.0598C44.8333 73.0767 44.7905 73.1021 44.7539 73.1346L42.0685 75.5178C42.0189 75.5617 41.9823 75.6173 41.9624 75.6787C41.9425 75.7401 41.9399 75.8052 41.9551 75.8672C41.9702 75.9292 42.0024 75.9859 42.0485 76.0315C42.0945 76.0771 42.1527 76.1099 42.217 76.1265ZM47.858 79.8278C47.9199 79.8438 47.9854 79.8444 48.0482 79.8293C48.1109 79.8143 48.1689 79.7841 48.2166 79.7418L51.0459 77.2308C51.0825 77.1983 51.1121 77.1594 51.1332 77.1163C51.1542 77.0732 51.1663 77.0266 51.1686 76.9794C51.1709 76.9322 51.1635 76.8852 51.1467 76.841C51.13 76.7969 51.1042 76.7565 51.0709 76.7222C51.0376 76.6879 50.9975 76.6603 50.9527 76.641C50.9079 76.6217 50.8595 76.6111 50.8101 76.6098C50.7607 76.6085 50.7113 76.6165 50.6648 76.6333C50.6182 76.6502 50.5754 76.6756 50.5389 76.708L47.7095 79.2189C47.66 79.2629 47.6233 79.3184 47.6034 79.3798C47.5834 79.4413 47.5809 79.5064 47.596 79.5684C47.6112 79.6304 47.6434 79.6872 47.6895 79.7328C47.7355 79.7784 47.7937 79.8112 47.858 79.8278ZM44.6299 78.339C44.6918 78.355 44.7572 78.3555 44.82 78.3405C44.8828 78.3254 44.9408 78.2953 44.9885 78.253L47.7698 75.7845C47.8437 75.719 47.8879 75.6285 47.8925 75.5331C47.8972 75.4378 47.8621 75.3452 47.7949 75.2759C47.7276 75.2066 47.6338 75.1662 47.534 75.1635C47.4343 75.1609 47.3367 75.1962 47.2628 75.2618L44.4814 77.7301C44.4319 77.774 44.3952 77.8296 44.3753 77.891C44.3553 77.9524 44.3528 78.0175 44.3679 78.0796C44.383 78.1416 44.4153 78.1983 44.4613 78.2439C44.5074 78.2895 44.5656 78.3223 44.6299 78.339ZM38.2631 70.7607C38.325 70.7768 38.3905 70.7773 38.4533 70.7623C38.5161 70.7472 38.5741 70.7171 38.6218 70.6748L41.8826 67.7808C41.9565 67.7152 42.0006 67.6248 42.0053 67.5294C42.01 67.434 41.9749 67.3415 41.9076 67.2722C41.8404 67.2029 41.7466 67.1624 41.6468 67.1598C41.547 67.1571 41.4495 67.1925 41.3756 67.258L38.1148 70.152C38.0652 70.196 38.0286 70.2515 38.0087 70.3129C37.9888 70.3743 37.9862 70.4393 38.0014 70.5014C38.0165 70.5634 38.0487 70.6201 38.0947 70.6657C38.1407 70.7113 38.1989 70.7441 38.2631 70.7607ZM40.0045 73.5688C40.0664 73.5848 40.1319 73.5854 40.1947 73.5703C40.2575 73.5553 40.3155 73.5251 40.3632 73.4828L43.1446 71.0145C43.2185 70.9489 43.2626 70.8585 43.2673 70.7631C43.272 70.6677 43.2369 70.5752 43.1696 70.5059C43.1024 70.4366 43.0086 70.3961 42.9088 70.3935C42.809 70.3908 42.7115 70.4262 42.6376 70.4918L39.8561 72.9601C39.8066 73.004 39.77 73.0596 39.7501 73.121C39.7302 73.1824 39.7276 73.2474 39.7428 73.3094C39.7579 73.3714 39.7901 73.4281 39.8361 73.4737C39.8821 73.5193 39.9403 73.5521 40.0045 73.5688Z" fill="#282828"/>
</g>
<path d="M50.8133 73.6309C51.255 73.7449 51.7381 73.8507 52.2621 73.9479C52.3597 73.966 52.4617 73.9462 52.5455 73.8928C52.6293 73.8394 52.6881 73.7567 52.7089 73.6631C52.7195 73.6167 52.7204 73.5689 52.7116 73.5225C52.7027 73.4761 52.6843 73.432 52.6574 73.3928C52.6304 73.3536 52.5955 73.3201 52.5547 73.2941C52.5138 73.2681 52.4678 73.2502 52.4193 73.2414C48.4638 72.5075 48.1788 71.5467 48.162 71.3615C48.1328 71.0432 48.5509 70.6689 49.2529 70.3849C50.2675 69.9744 50.3111 69.3986 50.2468 69.0919C49.9891 67.8642 46.9558 66.7407 44.8793 66.7982C44.7794 66.801 44.684 66.8415 44.6141 66.9109C44.5442 66.9803 44.5054 67.0729 44.5064 67.1683C44.5074 67.2637 44.548 67.354 44.6193 67.4195C44.6906 67.485 44.7868 67.5202 44.8867 67.5175C46.9864 67.4592 49.3692 68.5845 49.508 69.2462C49.5516 69.4542 49.1899 69.6342 48.9704 69.723C47.9034 70.1547 47.3498 70.7636 47.4115 71.4376C47.4927 72.3267 48.6614 73.0756 50.8133 73.6309Z" fill="#282828"/>
<path d="M51.0562 75.1826C51.1269 75.2009 51.2021 75.1988 51.2725 75.1766C51.3428 75.1544 51.4052 75.1132 51.4519 75.0579C51.4986 75.0027 51.5276 74.9359 51.5353 74.8658C51.543 74.7957 51.529 74.7254 51.4951 74.6635L50.6068 73.0426C50.5846 73.0001 50.5537 72.9625 50.5159 72.9319C50.4781 72.9013 50.4341 72.8783 50.3865 72.8643C50.3389 72.8503 50.2887 72.8455 50.2389 72.8503C50.189 72.855 50.1404 72.8693 50.0959 72.8921C50.0515 72.9149 50.0121 72.9458 49.98 72.9831C49.948 73.0204 49.9239 73.0633 49.9092 73.1093C49.8945 73.1553 49.8895 73.2034 49.8945 73.2509C49.8994 73.2984 49.9143 73.3442 49.9382 73.3858L50.8265 75.0068C50.8499 75.0497 50.8824 75.0875 50.9219 75.1177C50.9614 75.1479 51.0071 75.17 51.0562 75.1826ZM47.0129 67.8042C47.0837 67.8224 47.1589 67.8203 47.2292 67.7982C47.2995 67.776 47.3619 67.7348 47.4086 67.6795C47.4553 67.6243 47.4843 67.5575 47.492 67.4874C47.4997 67.4173 47.4857 67.347 47.4519 67.2851L46.5579 65.6539C46.5358 65.6114 46.5048 65.5738 46.467 65.5432C46.4292 65.5125 46.3852 65.4896 46.3377 65.4755C46.2901 65.4615 46.2399 65.4568 46.19 65.4615C46.1401 65.4663 46.0915 65.4805 46.0471 65.5033C46.0026 65.5262 45.9632 65.5571 45.9312 65.5944C45.8991 65.6317 45.875 65.6746 45.8603 65.7206C45.8456 65.7666 45.8406 65.8147 45.8456 65.8622C45.8506 65.9096 45.8654 65.9555 45.8893 65.9971L46.7832 67.6284C46.8067 67.6713 46.8391 67.709 46.8786 67.7393C46.9181 67.7695 46.9638 67.7916 47.0129 67.8042Z" fill="#282828"/>
</g>
<g clip-path="url(#clip3_23429_23253)">
<path d="M24.2017 103.026L54.8218 94.456C59.3135 93.1988 64.0286 95.6351 65.3534 99.8975L87.7315 171.898C89.0563 176.161 86.489 180.635 81.9974 181.892L51.3773 190.462C46.8856 191.72 42.1704 189.283 40.8456 185.021L18.4675 113.02C17.1427 108.758 19.71 104.283 24.2017 103.026Z" fill="white"/>
<path d="M48.9611 193.48C50.0488 193.479 51.1307 193.33 52.1736 193.037L82.796 184.466C85.6691 183.659 88.0873 181.803 89.5201 179.305C90.9529 176.808 91.2834 173.873 90.4389 171.145L68.0595 99.1432C67.6396 97.7924 66.9435 96.5332 66.0108 95.4377C65.0781 94.3422 63.9271 93.4317 62.6236 92.7583C61.3201 92.0849 59.8896 91.6618 58.4138 91.5131C56.9379 91.3644 55.4457 91.493 54.0222 91.8916L23.4015 100.462C20.5284 101.269 18.1102 103.125 16.6774 105.623C15.2445 108.12 14.9141 111.055 15.7586 113.783L38.1368 185.785C38.8278 188.003 40.2544 189.949 42.2046 191.336C44.1548 192.722 46.5244 193.474 48.9611 193.48ZM57.2283 96.8088C58.4476 96.812 59.6333 97.1885 60.609 97.8823C61.5848 98.5761 62.2986 99.5503 62.6443 100.66L85.0229 172.661C85.4454 174.026 85.2799 175.495 84.5627 176.745C83.8456 177.995 82.6353 178.923 81.1974 179.328L50.5775 187.898C49.1386 188.301 47.5901 188.144 46.2726 187.464C44.9551 186.783 43.9765 185.634 43.552 184.268L21.1734 112.267C20.7509 110.902 20.9164 109.433 21.6335 108.183C22.3507 106.933 23.561 106.005 24.9989 105.6L55.6192 97.03C56.1416 96.8835 56.6835 96.809 57.2283 96.8088Z" fill="#282828"/>
<path d="M31.911 105.682C32.1431 105.681 32.374 105.649 32.5965 105.587L50.0193 100.71C50.6348 100.537 51.153 100.14 51.4599 99.6051C51.7667 99.0703 51.8371 98.4416 51.6556 97.8575C51.474 97.2734 51.0554 96.7817 50.4917 96.4905C49.9281 96.1993 49.2657 96.1325 48.6501 96.3048L31.2286 101.181C30.67 101.337 30.1892 101.678 29.8745 102.143C29.5598 102.608 29.4323 103.165 29.5153 103.712C29.5984 104.259 29.8864 104.759 30.3266 105.12C30.7667 105.482 31.3296 105.681 31.9118 105.68L31.911 105.682Z" fill="#282828"/>
</g>
<g clip-path="url(#clip4_23429_23253)">
<path d="M116.67 8.53922C123.009 10.9338 127.138 15.3976 125.892 18.5096L123.975 23.2995C122.73 26.4114 116.581 26.9929 110.242 24.5983C103.903 22.2037 99.774 17.7399 101.02 14.6279L102.937 9.83805C104.183 6.72609 110.331 6.14463 116.67 8.53922Z" fill="#FFBABA"/>
<mask id="mask15_23429_23253" style="mask-type:luminance" maskUnits="userSpaceOnUse" x="100" y="7" width="27" height="20">
<path d="M116.673 8.54703C123.012 10.9416 127.141 15.4054 125.896 18.5174L123.978 23.3073C122.733 26.4192 116.584 27.0007 110.245 24.6061C103.906 22.2115 99.7773 17.7477 101.023 14.6357L102.94 9.84586C104.186 6.7339 110.334 6.15244 116.673 8.54703Z" fill="white"/>
</mask>
<g mask="url(#mask15_23429_23253)">
<path d="M122.026 21.8564C124.531 21.4388 126.25 20.3317 126.904 18.6968C126.929 18.6338 126.941 18.5665 126.939 18.4987C126.937 18.4309 126.921 18.364 126.892 18.3017C126.863 18.2394 126.821 18.1831 126.77 18.1358C126.718 18.0886 126.657 18.0513 126.591 18.0263C126.524 18.0012 126.454 17.9889 126.383 17.9898C126.312 17.9908 126.242 18.0051 126.177 18.0319C126.113 18.0588 126.054 18.0976 126.006 18.1462C125.957 18.1948 125.919 18.2523 125.894 18.3153C125.325 19.7377 123.636 20.6668 121.138 20.9324C118.519 21.2106 115.369 20.7187 112.268 19.5473C109.168 18.376 106.503 16.6716 104.766 14.7477C103.109 12.913 102.51 11.1193 103.079 9.69685C103.104 9.63385 103.116 9.56653 103.114 9.49874C103.112 9.43095 103.096 9.36401 103.067 9.30175C103.038 9.23949 102.996 9.18313 102.944 9.13587C102.893 9.08862 102.832 9.05141 102.766 9.02636C102.699 9.00131 102.629 8.98891 102.558 8.98988C102.487 8.99085 102.417 9.00515 102.352 9.03199C102.288 9.05883 102.229 9.09766 102.181 9.14628C102.132 9.1949 102.094 9.25235 102.069 9.31535C101.351 11.1094 102.019 13.2757 103.952 15.4154C105.804 17.4659 108.621 19.2741 111.884 20.5067C115.148 21.7393 118.482 22.2549 121.274 21.9585C121.526 21.9319 121.777 21.8978 122.026 21.8564Z" fill="#282828"/>
</g>
<mask id="mask16_23429_23253" style="mask-type:luminance" maskUnits="userSpaceOnUse" x="100" y="7" width="27" height="20">
<path d="M116.673 8.54703C123.012 10.9416 127.141 15.4054 125.896 18.5174L123.978 23.3073C122.733 26.4192 116.584 27.0007 110.245 24.6061C103.906 22.2115 99.7773 17.7477 101.023 14.6357L102.94 9.84586C104.186 6.7339 110.334 6.15244 116.673 8.54703Z" fill="white"/>
</mask>
<g mask="url(#mask16_23429_23253)">
<path d="M110.406 25.207C110.497 25.192 110.582 25.1549 110.652 25.0992C110.723 25.0435 110.778 24.9712 110.811 24.8891L112.662 20.2644C112.687 20.2014 112.699 20.1341 112.697 20.0663C112.694 19.9985 112.678 19.9316 112.649 19.8693C112.62 19.807 112.579 19.7507 112.527 19.7034C112.475 19.6562 112.415 19.6189 112.348 19.5939C112.282 19.5688 112.211 19.5565 112.14 19.5574C112.07 19.5584 112 19.5727 111.935 19.5995C111.87 19.6264 111.812 19.6652 111.763 19.7138C111.715 19.7624 111.677 19.8199 111.651 19.8829L109.8 24.5076C109.766 24.5929 109.757 24.6856 109.773 24.7764C109.788 24.8671 109.829 24.9525 109.891 25.0237C109.953 25.095 110.033 25.1495 110.123 25.1817C110.214 25.214 110.311 25.2227 110.406 25.207ZM120.209 26.7237C120.3 26.7086 120.385 26.6715 120.456 26.6158C120.527 26.5602 120.581 26.4878 120.614 26.4057L122.564 21.5332C122.589 21.4702 122.601 21.4028 122.599 21.335C122.597 21.2672 122.581 21.2003 122.552 21.1381C122.523 21.0758 122.481 21.0194 122.43 20.9722C122.378 20.9249 122.317 20.8877 122.251 20.8627C122.185 20.8376 122.114 20.8252 122.043 20.8262C121.972 20.8271 121.902 20.8415 121.838 20.8683C121.773 20.8951 121.714 20.934 121.666 20.9826C121.617 21.0312 121.579 21.0886 121.554 21.1516L119.604 26.0241C119.569 26.1094 119.56 26.2022 119.576 26.2929C119.592 26.3837 119.633 26.4691 119.694 26.5404C119.756 26.6116 119.836 26.6662 119.927 26.6984C120.017 26.7306 120.115 26.7394 120.209 26.7237ZM115.026 26.6674C115.117 26.6523 115.202 26.6152 115.273 26.5595C115.344 26.5039 115.399 26.4315 115.431 26.3494L117.348 21.5594C117.399 21.4322 117.395 21.2901 117.336 21.1643C117.278 21.0386 117.169 20.9395 117.035 20.8889C116.901 20.8383 116.753 20.8404 116.622 20.8946C116.491 20.9487 116.389 21.0507 116.338 21.1779L114.421 25.9678C114.387 26.0531 114.377 26.1459 114.393 26.2366C114.409 26.3274 114.45 26.4128 114.512 26.4841C114.573 26.5553 114.654 26.6099 114.744 26.6421C114.835 26.6743 114.932 26.6831 115.026 26.6674ZM101.652 20.5691C101.743 20.5541 101.827 20.5169 101.898 20.4612C101.969 20.4056 102.024 20.3332 102.057 20.2511L104.304 14.6354C104.355 14.5082 104.351 14.3661 104.292 14.2403C104.233 14.1146 104.125 14.0155 103.991 13.9649C103.857 13.9143 103.708 13.9164 103.578 13.9706C103.447 14.0248 103.345 14.1267 103.294 14.2539L101.046 19.8696C101.012 19.9549 101.003 20.0477 101.019 20.1384C101.035 20.2291 101.076 20.3145 101.137 20.3857C101.199 20.457 101.279 20.5115 101.369 20.5437C101.46 20.576 101.557 20.5847 101.652 20.5691ZM105.809 23.1855C105.9 23.1704 105.985 23.1333 106.056 23.0776C106.127 23.022 106.182 22.9496 106.214 22.8675L108.132 18.0777C108.183 17.9504 108.178 17.8083 108.119 17.6826C108.061 17.5568 107.952 17.4578 107.818 17.4072C107.684 17.3566 107.536 17.3586 107.405 17.4128C107.274 17.467 107.172 17.5689 107.121 17.6962L105.204 22.486C105.17 22.5713 105.16 22.6641 105.176 22.7548C105.192 22.8455 105.233 22.9308 105.295 23.0021C105.357 23.0733 105.437 23.1279 105.527 23.1601C105.618 23.1924 105.715 23.2011 105.809 23.1855Z" fill="#282828"/>
</g>
<path d="M119.816 17.0226C120.464 16.9145 121.16 16.7721 121.903 16.5949C122.041 16.5619 122.16 16.4774 122.232 16.3601C122.304 16.2428 122.324 16.1023 122.287 15.9694C122.269 15.9035 122.238 15.8413 122.195 15.7866C122.152 15.7319 122.098 15.6857 122.037 15.6507C121.975 15.6156 121.907 15.5925 121.837 15.5826C121.766 15.5727 121.695 15.5762 121.626 15.5929C116.016 16.9302 114.996 15.8556 114.848 15.6264C114.594 15.2326 114.88 14.5084 115.594 13.7368C116.626 12.6214 116.292 11.8535 116 11.4951C114.833 10.0604 110.151 10.3628 107.506 11.636C107.379 11.6973 107.284 11.8046 107.24 11.9345C107.197 12.0644 107.21 12.2062 107.276 12.3287C107.342 12.4511 107.456 12.5442 107.593 12.5875C107.729 12.6308 107.877 12.6207 108.005 12.5595C110.678 11.2719 114.521 11.3474 115.15 12.1207C115.348 12.3638 115.003 12.8049 114.78 13.0461C113.694 14.2191 113.392 15.3242 113.93 16.1579C114.639 17.2578 116.658 17.5489 119.816 17.0226Z" fill="#282828"/>
<path d="M121.185 18.8854C121.289 18.868 121.385 18.8219 121.461 18.7527C121.536 18.6835 121.589 18.5943 121.612 18.496C121.635 18.3978 121.627 18.2949 121.589 18.2001C121.551 18.1052 121.486 18.0226 121.4 17.9624L119.151 16.3845C119.093 16.3426 119.028 16.3119 118.958 16.2943C118.888 16.2766 118.816 16.2724 118.745 16.2818C118.674 16.2912 118.606 16.314 118.545 16.349C118.483 16.3839 118.43 16.4303 118.388 16.4854C118.347 16.5405 118.317 16.6032 118.301 16.6698C118.284 16.7364 118.282 16.8057 118.295 16.8734C118.307 16.9412 118.333 17.0062 118.372 17.0646C118.411 17.1229 118.461 17.1735 118.52 17.2134L120.769 18.7912C120.828 18.833 120.896 18.863 120.968 18.8792C121.039 18.8954 121.113 18.8975 121.185 18.8854ZM110.948 11.7031C111.052 11.6858 111.148 11.6397 111.224 11.5705C111.3 11.5013 111.352 11.412 111.375 11.3138C111.398 11.2156 111.39 11.1127 111.352 11.0178C111.315 10.923 111.249 10.8403 111.163 10.7801L108.9 9.19223C108.842 9.1503 108.777 9.11961 108.707 9.10197C108.637 9.08432 108.565 9.08007 108.494 9.08946C108.423 9.09885 108.355 9.12169 108.294 9.15666C108.232 9.19162 108.179 9.238 108.137 9.29309C108.096 9.34818 108.066 9.41087 108.05 9.4775C108.033 9.54413 108.031 9.61335 108.044 9.68113C108.056 9.74891 108.082 9.81388 108.121 9.87225C108.16 9.93062 108.21 9.98121 108.269 10.0211L110.532 11.609C110.592 11.6508 110.659 11.6807 110.731 11.6969C110.802 11.7131 110.876 11.7152 110.948 11.7031Z" fill="#282828"/>
</g>
<g clip-path="url(#clip5_23429_23253)">
<path d="M51.2585 156.985L28.338 127.204C28.2555 127.097 28.206 126.97 28.1948 126.838C28.1836 126.706 28.2112 126.574 28.2746 126.456C28.338 126.338 28.4346 126.239 28.5539 126.17C28.6732 126.1 28.8104 126.063 28.9504 126.063L42.4955 126.036C42.9054 126.035 43.3098 126.126 43.6753 126.301C44.0409 126.477 44.3573 126.732 44.5986 127.045L51.9845 136.642C52.0793 136.765 52.2024 136.866 52.3447 136.937C52.487 137.009 52.6445 137.048 52.8055 137.053C52.9664 137.059 53.1265 137.029 53.2735 136.967C53.4205 136.905 53.5506 136.812 53.654 136.695L69.6573 118.604C69.9414 118.283 70.2968 118.025 70.6982 117.848C71.0996 117.672 71.5373 117.581 71.98 117.582L85.8431 117.625C86.0164 117.625 86.1859 117.672 86.3319 117.761C86.4779 117.849 86.5943 117.975 86.6674 118.124C86.7405 118.272 86.7673 118.437 86.7447 118.6C86.7221 118.762 86.6511 118.915 86.5399 119.041L52.928 157.038C52.8247 157.155 52.6945 157.248 52.5475 157.31C52.4005 157.372 52.2404 157.402 52.0795 157.396C51.9186 157.391 51.761 157.352 51.6187 157.28C51.4765 157.209 51.3533 157.108 51.2585 156.985Z" fill="#05BE63"/>
</g>
<g clip-path="url(#clip6_23429_23253)">
<path d="M98.1437 39.2511C98.1322 39.2567 98.1211 39.2629 98.1104 39.2696C91.9797 43.0923 85.1612 49.0725 78.9111 56.1086C73.0374 62.7211 68.456 69.3842 66.3414 74.3897C66.3048 74.4764 66.3061 74.5744 66.345 74.6619C66.3839 74.7495 66.4573 74.8194 66.5489 74.8565C66.6406 74.8935 66.7431 74.8946 66.8338 74.8594C66.9246 74.8242 66.9961 74.7557 67.0328 74.6689C69.1189 69.7294 73.6567 63.135 79.4826 56.5763C85.6891 49.5895 92.4524 43.6556 98.5265 39.8682C98.6056 39.819 98.6613 39.7422 98.6819 39.6537C98.7026 39.5651 98.6866 39.4716 98.6374 39.3924C98.5882 39.3132 98.5095 39.2544 98.4175 39.2282C98.3255 39.2019 98.2273 39.2102 98.1431 39.2513L98.1437 39.2511ZM95.9027 53.4203C95.8783 53.4322 95.8555 53.4467 95.8346 53.4636C90.2347 57.9603 84.2195 64.6828 78.8972 72.3924C73.896 79.6387 70.1807 86.7893 68.7043 92.0115C68.6799 92.1017 68.6939 92.1983 68.7433 92.2803C68.7927 92.3623 68.8736 92.423 68.9683 92.4494C69.063 92.4758 69.1639 92.4656 69.249 92.4211C69.3342 92.3766 69.3968 92.3013 69.4232 92.2117C70.8801 87.0582 74.5609 79.9807 79.5216 72.794C84.8066 65.1378 90.7727 58.4678 96.3215 54.0123C96.391 53.9567 96.436 53.8781 96.4479 53.7915C96.4597 53.7049 96.4376 53.6165 96.3858 53.5431C96.3339 53.4697 96.256 53.4166 96.1669 53.3939C96.0779 53.3712 95.9839 53.3805 95.9031 53.4201L95.9027 53.4203Z" fill="#282828"/>
</g>
<defs>
<clipPath id="clip0_23429_23253">
<rect width="106.856" height="192.232" fill="white" transform="matrix(-1 0 0 1 220.266 24.2617)"/>
</clipPath>
<clipPath id="clip1_23429_23253">
<rect width="21.8519" height="19.7001" fill="white" transform="matrix(-1 0 0 1 86.0974 25.7148)"/>
</clipPath>
<clipPath id="clip2_23429_23253">
<rect width="17.882" height="14.9705" fill="white" transform="matrix(-0.968452 -0.249871 -0.288545 0.957661 57.693 66.918)"/>
</clipPath>
<clipPath id="clip3_23429_23253">
<rect width="75.6074" height="102.026" fill="white" transform="matrix(-1 0 0 1 90.9026 91.4492)"/>
</clipPath>
<clipPath id="clip4_23429_23253">
<rect width="25.7607" height="21.3918" fill="white" transform="matrix(-0.986487 0.164468 0.194349 0.981052 124.149 4.38672)"/>
</clipPath>
<clipPath id="clip5_23429_23253">
<rect width="58.563" height="39.815" fill="white" transform="translate(28.1896 117.582)"/>
</clipPath>
<clipPath id="clip6_23429_23253">
<rect width="51.804" height="35.134" fill="white" transform="matrix(0.898671 -0.43898 -0.483692 -0.875429 68.9121 92.5898)"/>
</clipPath>
</defs>
</svg>
