<svg width="224" height="224" viewBox="0 0 224 224" fill="none" xmlns="http://www.w3.org/2000/svg">
<path d="M161.83 192.656H110.632H58.7699C47.5471 192.656 36.7366 188.423 28.4943 180.803L17.3467 170.496C1.94742 156.258 4.09842 131.192 21.4528 119.418C33.1337 111.494 38.3601 96.6788 34.071 83.2265C26.3673 59.0646 48.6273 35.9669 73.0103 42.9014C79.7618 44.8214 86.9586 44.4512 93.4776 41.8486L125.438 29.0883C155.801 16.9662 188.284 41.1001 185.463 73.6848L185.291 75.6619C184.175 88.5519 189.348 101.188 199.181 109.592C213.189 121.564 217.228 141.553 208.968 158.03L204.962 166.022C196.778 182.348 180.086 192.656 161.83 192.656Z" fill="#ECECEC"/>
<path fill-rule="evenodd" clip-rule="evenodd" d="M99.1033 139.886C99.3582 139.47 99.9027 139.333 100.319 139.58L102.792 141.046C103.209 141.293 103.34 141.831 103.085 142.246C102.877 142.587 102.927 143.018 103.179 143.322C103.888 144.174 104.418 145.144 104.756 146.175C104.88 146.551 105.219 146.824 105.62 146.829C106.109 146.835 106.496 147.232 106.483 147.717L106.41 150.584C106.398 151.068 105.992 151.456 105.503 151.449C105.103 151.444 104.75 151.707 104.608 152.079C104.413 152.585 104.17 153.082 103.875 153.563C103.58 154.043 103.248 154.487 102.883 154.892C102.616 155.19 102.544 155.62 102.735 155.965C102.969 156.387 102.81 156.921 102.381 157.158L99.8367 158.56C99.4068 158.797 98.8686 158.647 98.6347 158.224C98.4432 157.878 98.0399 157.71 97.6443 157.778C96.5592 157.965 95.4393 157.957 94.3425 157.739C93.9511 157.661 93.5399 157.818 93.3311 158.159C93.0763 158.575 92.5318 158.712 92.115 158.464L89.6423 156.998C89.2255 156.751 89.0943 156.214 89.3491 155.798C89.5579 155.457 89.5078 155.026 89.2551 154.722C88.5469 153.87 88.0167 152.9 87.6783 151.869C87.555 151.493 87.2153 151.221 86.8147 151.216C86.3254 151.21 85.9388 150.812 85.9511 150.328L86.0243 147.46C86.0366 146.977 86.4428 146.589 86.9315 146.595C87.3315 146.6 87.6842 146.337 87.8269 145.965C88.0213 145.459 88.2651 144.963 88.5596 144.482C88.8542 144.002 89.1868 143.558 89.5514 143.152C89.819 142.855 89.8908 142.425 89.6996 142.08C89.4659 141.657 89.6246 141.123 90.054 140.887L92.5979 139.484C93.0279 139.247 93.566 139.398 93.8 139.821C93.9915 140.167 94.3948 140.335 94.7904 140.267C95.8754 140.08 96.9952 140.088 98.092 140.306C98.4834 140.384 98.8946 140.226 99.1033 139.886ZM100.548 151.59C99.0854 153.976 95.9608 154.761 93.5691 153.343C91.1774 151.925 90.4242 148.841 91.8868 146.455C93.3495 144.069 96.474 143.284 98.8658 144.702C101.258 146.12 102.011 149.204 100.548 151.59Z" fill="white"/>
<path fill-rule="evenodd" clip-rule="evenodd" d="M78.8726 164.46C79.3043 163.739 80.2266 163.502 80.9326 163.93L85.1211 166.473C85.8271 166.902 86.0494 167.834 85.6177 168.556C85.264 169.146 85.349 169.894 85.777 170.422C86.9766 171.9 87.8749 173.583 88.4481 175.371C88.657 176.023 89.2323 176.495 89.9108 176.504C90.7396 176.515 91.3945 177.205 91.3735 178.045L91.2496 183.019C91.2287 183.858 90.5407 184.53 89.7129 184.52C89.0356 184.511 88.4382 184.967 88.1964 185.612C87.8671 186.491 87.4542 187.352 86.9553 188.185C86.4564 189.019 85.8929 189.789 85.2754 190.492C84.8221 191.009 84.7005 191.754 85.0244 192.353C85.4202 193.085 85.1514 194.012 84.424 194.423L80.1149 196.855C79.3867 197.266 78.4751 197.005 78.0788 196.272C77.7544 195.671 77.0712 195.38 76.4011 195.498C74.5632 195.822 72.6662 195.808 70.8083 195.43C70.1454 195.295 69.4488 195.568 69.0952 196.159C68.6635 196.88 67.7412 197.118 67.0353 196.689L62.8468 194.146C62.1408 193.717 61.9185 192.785 62.3502 192.064C62.7039 191.473 62.6189 190.725 62.1909 190.197C60.9914 188.719 60.0932 187.036 59.5201 185.248C59.3111 184.596 58.7358 184.124 58.0572 184.115C57.2284 184.105 56.5734 183.415 56.5944 182.574L56.7183 177.6C56.7392 176.761 57.4273 176.089 58.2551 176.099C58.9325 176.108 59.53 175.652 59.7718 175.007C60.1011 174.129 60.5139 173.267 61.0128 172.434C61.5118 171.6 62.0753 170.83 62.6927 170.127C63.1461 169.61 63.2677 168.865 62.9438 168.266C62.548 167.534 62.8168 166.607 63.5441 166.197L67.8532 163.764C68.5815 163.353 69.4931 163.614 69.8894 164.347C70.2138 164.948 70.897 165.24 71.5671 165.121C73.4049 164.797 75.3017 164.811 77.1595 165.19C77.8224 165.325 78.519 165.051 78.8726 164.46ZM81.3198 184.764C78.8422 188.903 73.5496 190.264 69.4983 187.804C65.447 185.345 64.1712 179.995 66.6487 175.856C69.1263 171.717 74.4189 170.355 78.4702 172.815C82.5215 175.275 83.7973 180.625 81.3198 184.764Z" fill="white"/>
<path d="M48.1372 49.6224C48.1372 47.5744 49.7975 45.9141 51.8456 45.9141H175.199C177.247 45.9141 178.907 47.5744 178.907 49.6224V137.891C178.907 139.939 177.247 141.6 175.199 141.6H51.8456C49.7975 141.6 48.1372 139.939 48.1372 137.891V49.6224Z" fill="white"/>
<path fill-rule="evenodd" clip-rule="evenodd" d="M47.5815 49.6226C47.5815 47.2675 49.4907 45.3584 51.8458 45.3584H175.199C177.554 45.3584 179.463 47.2676 179.463 49.6226V137.891C179.463 140.246 177.554 142.156 175.199 142.156H51.8458C49.4907 142.156 47.5815 140.246 47.5815 137.891V49.6226ZM51.8458 46.4701C50.1047 46.4701 48.6932 47.8815 48.6932 49.6226V137.891C48.6932 139.632 50.1047 141.044 51.8458 141.044H175.199C176.94 141.044 178.352 139.632 178.352 137.891V49.6226C178.352 47.8815 176.94 46.4701 175.199 46.4701H51.8458Z" fill="#032068"/>
<path d="M48.1372 49.6224C48.1372 47.5744 49.7975 45.9141 51.8456 45.9141H175.199C177.247 45.9141 178.907 47.5744 178.907 49.6224V56.3939H48.1372V49.6224Z" fill="#032068"/>
<path d="M57.7536 51.2289C57.7536 52.4868 56.7339 53.5065 55.4759 53.5065C54.218 53.5065 53.1982 52.4868 53.1982 51.2289C53.1982 49.9709 54.218 48.9512 55.4759 48.9512C56.7339 48.9512 57.7536 49.9709 57.7536 51.2289Z" fill="white"/>
<path d="M65.3459 51.2289C65.3459 52.4868 64.3261 53.5065 63.0682 53.5065C61.8103 53.5065 60.7905 52.4868 60.7905 51.2289C60.7905 49.9709 61.8103 48.9512 63.0682 48.9512C64.3261 48.9512 65.3459 49.9709 65.3459 51.2289Z" fill="white"/>
<path d="M72.9387 51.2289C72.9387 52.4868 71.9189 53.5065 70.661 53.5065C69.4031 53.5065 68.3833 52.4868 68.3833 51.2289C68.3833 49.9709 69.4031 48.9512 70.661 48.9512C71.9189 48.9512 72.9387 49.9709 72.9387 51.2289Z" fill="white"/>
<path d="M59.4595 66.2933C59.4595 65.668 59.9664 65.1611 60.5917 65.1611H71.3477C71.973 65.1611 72.4799 65.668 72.4799 66.2933C72.4799 66.9186 71.973 67.4256 71.3477 67.4256H60.5917C59.9664 67.4256 59.4595 66.9186 59.4595 66.2933Z" fill="#FF9F9F"/>
<path d="M59.4595 127.433C59.4595 126.808 59.9664 126.301 60.5917 126.301H71.3477C71.973 126.301 72.4799 126.808 72.4799 127.433C72.4799 128.058 71.973 128.565 71.3477 128.565H60.5917C59.9664 128.565 59.4595 128.058 59.4595 127.433Z" fill="#FF9F9F"/>
<path d="M82.6694 127.433C82.6694 126.808 83.1763 126.301 83.8016 126.301H94.5576C95.1829 126.301 95.6898 126.808 95.6898 127.433C95.6898 128.058 95.1829 128.565 94.5576 128.565H83.8016C83.1763 128.565 82.6694 128.058 82.6694 127.433Z" fill="#FF9F9F"/>
<path d="M105.879 127.433C105.879 126.808 106.386 126.301 107.012 126.301H117.768C118.393 126.301 118.9 126.808 118.9 127.433C118.9 128.058 118.393 128.565 117.768 128.565H107.012C106.386 128.565 105.879 128.058 105.879 127.433Z" fill="#FF9F9F"/>
<path d="M129.091 127.433C129.091 126.808 129.598 126.301 130.223 126.301H140.979C141.604 126.301 142.111 126.808 142.111 127.433C142.111 128.058 141.604 128.565 140.979 128.565H130.223C129.598 128.565 129.091 128.058 129.091 127.433Z" fill="#FF9F9F"/>
<path d="M59.4595 81.8132C59.4595 81.0583 60.0715 80.4463 60.8264 80.4463H79.9635C80.7184 80.4463 81.3304 81.0583 81.3304 81.8132C81.3304 82.5682 80.7184 83.1802 79.9635 83.1802H60.8264C60.0715 83.1802 59.4595 82.5682 59.4595 81.8132Z" fill="#FF9F9F"/>
<path d="M59.4595 92.2931C59.4595 91.7898 59.8675 91.3818 60.3708 91.3818H107.758C108.261 91.3818 108.669 91.7898 108.669 92.2931C108.669 92.7964 108.261 93.2044 107.758 93.2044H60.3708C59.8675 93.2044 59.4595 92.7964 59.4595 92.2931Z" fill="#ECECEC"/>
<path d="M59.4595 102.318C59.4595 101.814 59.8675 101.406 60.3708 101.406H107.758C108.261 101.406 108.669 101.814 108.669 102.318C108.669 102.821 108.261 103.229 107.758 103.229H60.3708C59.8675 103.229 59.4595 102.821 59.4595 102.318Z" fill="#ECECEC"/>
<path d="M59.4595 112.341C59.4595 111.838 59.8675 111.43 60.3708 111.43H107.758C108.261 111.43 108.669 111.838 108.669 112.341C108.669 112.844 108.261 113.252 107.758 113.252H60.3708C59.8675 113.252 59.4595 112.844 59.4595 112.341Z" fill="#ECECEC"/>
<path d="M124.561 97.975C124.561 97.361 125.058 96.8633 125.672 96.8633H129.676C130.29 96.8633 130.788 97.361 130.788 97.975V109.904C130.788 110.518 130.29 111.016 129.676 111.016H125.672C125.058 111.016 124.561 110.518 124.561 109.904V97.975Z" fill="#ECECEC"/>
<path d="M134.751 94.5785C134.751 93.9645 135.249 93.4668 135.863 93.4668H139.866C140.48 93.4668 140.978 93.9645 140.978 94.5785V109.904C140.978 110.518 140.48 111.016 139.866 111.016H135.863C135.249 111.016 134.751 110.518 134.751 109.904V94.5785Z" fill="#ECECEC"/>
<path d="M144.941 90.0502C144.941 89.4362 145.439 88.9385 146.053 88.9385H150.057C150.671 88.9385 151.169 89.4362 151.169 90.0502V109.905C151.169 110.519 150.671 111.017 150.057 111.017H146.053C145.439 111.017 144.941 110.519 144.941 109.905V90.0502Z" fill="#ECECEC"/>
<path d="M155.131 86.0873C155.131 85.4733 155.629 84.9756 156.243 84.9756H160.246C160.86 84.9756 161.358 85.4733 161.358 86.0873V109.905C161.358 110.519 160.86 111.016 160.246 111.016H156.243C155.629 111.016 155.131 110.519 155.131 109.905V86.0873Z" fill="#FF9F9F"/>
<path fill-rule="evenodd" clip-rule="evenodd" d="M118.062 114.727V83.8438H119.173V114.727C119.173 115.341 119.671 115.839 120.285 115.839H166.453V116.951H120.285C119.057 116.951 118.062 115.955 118.062 114.727Z" fill="#032068"/>
<path fill-rule="evenodd" clip-rule="evenodd" d="M148.896 83.9555C147.703 84.1291 146.717 84.3157 146.021 84.6323C145.328 84.947 144.553 85.5652 143.677 86.353C143.361 86.6368 143.03 86.945 142.689 87.2624C142.116 87.7957 141.515 88.3546 140.915 88.866C139.017 90.4826 136.738 91.9788 134.293 91.1639C132.754 90.651 130.6 90.8736 128.45 91.4228C126.324 91.9658 124.309 92.7997 123.112 93.3981L122.615 92.4038C123.871 91.7756 125.96 90.9112 128.175 90.3457C130.365 89.7862 132.786 89.4898 134.644 90.1092C136.445 90.7095 138.27 89.6583 140.194 88.0198C140.781 87.519 141.342 86.9969 141.898 86.4794C142.243 86.1579 142.587 85.8381 142.933 85.5263C143.808 84.7396 144.696 84.0133 145.561 83.6203C146.421 83.2293 147.558 83.0268 148.736 82.8554C149.037 82.8116 149.342 82.7696 149.65 82.7273C150.578 82.5998 151.531 82.4688 152.47 82.2731C154.982 81.7497 157.128 80.8134 158.01 78.5469L159.046 78.9498C157.946 81.7782 155.28 82.8232 152.697 83.3614C151.716 83.5657 150.709 83.7041 149.772 83.8328C149.472 83.8741 149.178 83.9143 148.896 83.9555Z" fill="#032068"/>
<path d="M129.09 90.6361C129.09 91.2614 128.583 91.7683 127.958 91.7683C127.333 91.7683 126.826 91.2614 126.826 90.6361C126.826 90.0108 127.333 89.5039 127.958 89.5039C128.583 89.5039 129.09 90.0108 129.09 90.6361Z" fill="#FF9F9F"/>
<path d="M139.281 90.0707C139.281 90.696 138.774 91.2029 138.148 91.2029C137.523 91.2029 137.016 90.696 137.016 90.0707C137.016 89.4454 137.523 88.9385 138.148 88.9385C138.774 88.9385 139.281 89.4454 139.281 90.0707Z" fill="#FF9F9F"/>
<path d="M149.469 83.2767C149.469 83.902 148.963 84.4089 148.337 84.4089C147.712 84.4089 147.205 83.902 147.205 83.2767C147.205 82.6514 147.712 82.1445 148.337 82.1445C148.963 82.1445 149.469 82.6514 149.469 83.2767Z" fill="#FF9F9F"/>
<path d="M159.66 78.7474C159.66 79.3727 159.154 79.8797 158.528 79.8797C157.903 79.8797 157.396 79.3727 157.396 78.7474C157.396 78.1221 157.903 77.6152 158.528 77.6152C159.154 77.6152 159.66 78.1221 159.66 78.7474Z" fill="#FF9F9F"/>
<path d="M46.9457 95.289L48.0534 100.546V103.866L45.5611 106.079L38.0842 105.249V100.269L38.3611 94.4589C35.3149 90.5855 34.2072 83.1155 37.5303 79.2421C40.8534 75.3687 49.438 74.8153 51.0996 83.9455C52.4288 91.2496 48.8842 94.5513 46.9457 95.289Z" fill="#EFCB96"/>
<path d="M64.9458 197.658L62.109 166.671H22.3939L18.4224 197.658H64.9458Z" fill="#032068"/>
<path d="M91.5307 108.847C91.5307 109.732 90.6076 111.245 90.1461 111.89L90.6999 115.21L94.8538 115.764C95.9615 114.38 99.2846 113.827 100.115 111.613C100.78 109.843 98.9154 107.924 97.9 107.463L101.342 102.649C101.745 102.085 101.65 101.308 101.124 100.857C100.566 100.379 99.7261 100.44 99.2437 100.995L94.5769 106.357C94.5769 106.541 94.4107 106.523 93.7461 104.973C92.9153 103.037 92.0846 103.867 91.5307 104.143C90.9769 104.42 91.5307 107.74 91.5307 108.847Z" fill="#EFCB96"/>
<path d="M43.6222 103.313C47.3884 103.313 48.3299 100.362 48.3299 98.8867C50.9884 98.8867 52.7297 100.184 53.2835 100.552L57.7454 113.274L58.5762 166.948C49.2715 169.825 37.5299 168.147 32.8221 166.948L29.776 100.823C31.6065 99.6596 34.2807 99.1515 36.2026 98.9706C37.1429 98.8821 37.952 99.5472 38.4325 100.36C39.2677 101.772 40.9 103.313 43.6222 103.313Z" fill="white"/>
<path fill-rule="evenodd" clip-rule="evenodd" d="M52.8545 100.882L57.2325 113.364L58.056 166.567C49.1773 169.18 38.1414 167.704 33.3181 166.541L30.3036 101.104C32.0189 100.113 34.4385 99.6517 36.2507 99.4812C36.903 99.4198 37.5548 99.8848 37.9897 100.62C38.8901 102.142 40.67 103.826 43.6221 103.826C45.6601 103.826 46.9901 103.018 47.7967 101.965C48.4299 101.138 48.7217 100.186 48.812 99.4148C50.8486 99.5443 52.2391 100.465 52.8545 100.882ZM53.4567 100.048C52.7939 99.5977 50.9916 98.3721 48.3299 98.3721H47.8157V98.8858C47.8157 99.5348 47.6041 100.525 46.9799 101.34C46.3742 102.131 45.3504 102.799 43.6221 102.799C41.1298 102.799 39.6452 101.399 38.8751 100.097C38.349 99.2078 37.3826 98.3426 36.1543 98.4582C34.2134 98.6409 31.4372 99.1573 29.4998 100.389L29.2485 100.549L32.3259 167.351L32.695 167.445C37.4403 168.653 49.2911 170.356 58.7281 167.438L59.0962 167.324L58.2582 113.181L53.7118 100.219L53.5687 100.124C53.536 100.102 53.4986 100.077 53.4567 100.048Z" fill="#032068"/>
<path d="M53.3151 127.661C52.9277 120.887 50.8184 108.685 49.4306 101.41C49.0912 98.3236 47.9296 98.1026 51.6808 99.1797C64.8163 102.951 67.9952 120.208 72.1461 120.467C75.1008 120.652 82.2372 115.723 86.8833 112.154C88.2806 111.081 90.2645 111.178 91.5108 112.424L94.4804 115.39C95.3898 116.299 95.7282 117.64 95.2236 118.822C91.7926 126.858 82.1454 139.542 76.0231 142.601C70.7061 145.257 66.4229 141.494 64.946 139.281C65.0383 146.382 65.1675 161.525 64.946 165.288C64.669 169.991 64.946 173.865 61.6229 174.418C58.2998 174.971 51.9305 173.865 51.9305 172.758C51.9305 171.651 53.869 137.344 53.3151 127.661Z" fill="#FF9F9F"/>
<path d="M40.0226 127.383C39.8189 122.296 37.2589 108.556 35.6997 100.783C35.3092 98.8369 35.4648 98.7194 33.417 99.2879C19.0642 103.273 7.66873 127.812 8.73005 137.62C9.61621 145.81 16.1147 158.74 19.2532 164.181C19.0686 167.501 19.0317 174.252 20.3609 174.694C22.0225 175.248 36.4226 174.694 37.2533 173.034C38.0841 171.374 40.2995 134.3 40.0226 127.383Z" fill="#FF9F9F"/>
<path d="M36.8732 164.806C38.6125 164.055 39.4133 162.038 38.662 160.3L33.2068 147.684C32.4554 145.946 30.4363 145.146 28.697 145.897L10.1549 153.899C8.41555 154.65 7.61468 156.667 8.36605 158.405L13.8212 171.021C14.5726 172.759 16.5917 173.559 18.331 172.808L36.8732 164.806Z" fill="white"/>
<path fill-rule="evenodd" clip-rule="evenodd" d="M37.0769 165.277C39.0769 164.414 39.9978 162.094 39.1338 160.096L33.6787 147.48C32.8147 145.482 30.4929 144.561 28.4929 145.425L9.95076 153.428C7.95075 154.291 7.02984 156.61 7.89384 158.609L13.349 171.225C14.213 173.223 16.5347 174.143 18.5347 173.28L37.0769 165.277ZM38.1898 160.503C38.8285 161.981 38.1477 163.695 36.6691 164.334L18.1269 172.337C16.6483 172.975 14.9318 172.294 14.2931 170.817L8.83792 158.201C8.19916 156.724 8.87999 155.009 10.3586 154.371L28.9008 146.368C30.3794 145.73 32.0958 146.41 32.7346 147.887L38.1898 160.503Z" fill="#032068"/>
<path d="M10.1143 127.66C11.8681 130.427 14.5451 138.063 11.222 146.474C9.56043 143.338 7.01271 135.186 10.1143 127.66Z" fill="#032068"/>
<path d="M81.2842 138.451C78.6072 137.805 71.8687 137.399 66.3302 140.941C68.5456 143.431 74.638 146.419 81.2842 138.451Z" fill="#032068"/>
<path d="M63.5616 123.787C64.1154 128.767 64.6693 135.131 64.9462 139.834C66.2755 141.383 69.5616 142.877 71.0386 143.431C67.2724 139.225 65.2231 129.874 63.5616 123.787Z" fill="#032068"/>
<path d="M31.6793 166.199C31.4577 165.535 29.187 163.34 28.0793 162.325C25.7715 162.049 21.3221 162.325 21.9868 165.645C22.8175 169.795 23.6483 173.115 28.0793 171.732C31.624 170.625 31.2178 168.32 30.5716 167.305C31.0331 167.213 31.9008 166.863 31.6793 166.199Z" fill="#EFCB96"/>
<path d="M42.3098 197.647L44.9058 182.615V197.647H42.3098Z" fill="white"/>
<path d="M38.6377 88.9261L38.3608 93.9062L38.2929 99.3506C38.1907 99.3462 37.8801 98.8783 37.7787 98.8759C32.8204 98.7582 28.685 101.258 27.2375 102.433C25.2991 94.4095 31.9916 88.9261 31.9916 85.8827C31.9916 82.8393 33.3763 73.4325 42.7917 73.1558C49.8541 72.9483 51.7877 78.724 51.9254 82.8663C51.9394 83.2875 51.5539 83.5974 51.1581 83.4514C49.2614 82.7521 46.8371 80.8066 45.395 79.2776C44.9939 78.8524 44.1667 78.9884 43.9055 79.5112C43.239 80.8455 42.2639 82.081 41.5653 82.9253C41.4631 83.0489 41.4076 83.2026 41.4045 83.363C41.3896 84.1474 41.3078 85.2118 41.1816 86.2631C41.0931 87.0004 40.0673 86.9977 39.8354 86.2922C39.5746 85.499 39.2601 84.7403 38.9146 84.2226C37.8069 82.5626 36.1454 83.946 36.1454 85.8827C36.1454 87.432 37.8069 88.5572 38.6377 88.9261Z" fill="#032068"/>
<path d="M53.5918 99.993C52.4841 98.8863 51.2841 93.4451 50.8225 90.8628C50.3795 93.0762 48.0533 94.7362 46.9456 95.2895L47.8056 99.3506L48.0627 98.5801C50.2781 98.5801 52.5764 99.5319 53.5918 99.993Z" fill="#032068"/>
<path d="M23.1081 164.868L27.1199 163.289C28.6592 162.683 29.5461 161.067 29.2343 159.444C28.3693 154.94 27.2642 149.026 26.4533 144.289L12.607 150.347C14.1578 154.552 17.1302 160.399 18.4225 162.797L19.0763 163.695C19.9957 164.958 21.6536 165.441 23.1081 164.868Z" fill="#FF9F9F"/>
<path d="M25.3456 136.513C25.3456 134.079 29.6841 126.922 31.7148 122.68C27.254 135.931 26.9944 139.043 29.0711 158.754C27.7732 152.27 25.3456 137.675 25.3456 136.513Z" fill="#032068"/>
<path d="M42.5697 95.2129C44.4388 96.0428 46.2905 95.5587 46.9828 95.2129L47.502 97.8065C45.0099 97.8065 43.1754 96.0774 42.5697 95.2129Z" fill="#032068"/>
<path d="M181.314 138.529L182.177 143.063L181.314 147.812C179.083 148.1 174.535 148.676 174.189 148.676C173.844 148.676 171.311 146.517 170.087 145.438L171.383 138.529C167.756 137.32 166.561 131.98 166.417 129.462C165.554 119.099 172.462 117.804 173.758 117.804C175.053 117.804 183.257 117.804 184.336 126.439C185.2 133.348 182.681 137.378 181.314 138.529Z" fill="#EFCB96"/>
<path d="M202.256 192.069H168.361L125.398 191.853C122.739 190.12 121.995 187.323 121.988 184.95C121.982 183.006 123.384 181.442 125.135 180.598C132.092 177.244 142.651 172.054 144.612 170.696C147.419 168.753 150.01 158.175 155.191 149.971C159.336 143.408 167.137 141.911 170.304 141.983C170.592 143.278 171.815 145.869 176.133 145.869C180.451 145.869 182.25 143.278 182.826 141.983C185.056 141.983 191.245 143.192 196.427 148.028C202.899 154.069 205.706 167.87 208.296 180.601L208.301 180.627C210.374 190.817 205.135 192.357 202.256 192.069Z" fill="#FF9F9F"/>
<path d="M187.791 175.446L184.553 162.276L185.201 175.446L170.454 179.042C168.561 179.504 166.79 180.681 166.432 182.597C165.793 186.014 167.068 189.648 168.577 190.99C167.282 189.136 167.282 182.138 168.793 181.059C170.002 180.195 184.985 177.389 192.325 176.093L187.791 175.446Z" fill="#032068"/>
<path d="M155.623 158.822L147.635 192.069H144.181L155.623 158.822Z" fill="#032068"/>
<path d="M178.94 134.211C179.804 139.219 181.027 139.752 181.531 139.392C187.576 135.506 187.43 123.09 183.69 118.883C180.235 114.997 177.645 116.508 170.52 114.781C163.396 113.054 161.021 116.076 162.316 119.962C164.181 125.556 170.088 122.553 171.6 123.2C173.111 123.848 175.054 125.575 175.917 129.029C176.781 132.484 177.213 131.836 177.861 129.893C178.508 127.95 180.235 125.143 181.531 128.598C182.567 131.361 180.235 133.491 178.94 134.211Z" fill="#032068"/>
<path d="M153.464 192.069C153.464 186.197 162.172 184.441 166.418 184.297C166.418 187.233 168.217 190.702 169.225 192.069H153.464Z" fill="#EFCB96"/>
<path d="M111.502 191.673C111.502 186.453 118.403 185.344 122.125 185.216C122.125 187.826 124.436 190.457 125.319 191.673H111.502Z" fill="#EFCB96"/>
<path fill-rule="evenodd" clip-rule="evenodd" d="M208.763 184.277C208.865 188.444 207.403 192.069 202.944 192.069H199.017C200.053 185.161 205.534 180.987 208.125 179.764C208.182 180.043 208.239 180.322 208.295 180.601L208.301 180.627C208.577 181.985 208.723 183.197 208.763 184.277Z" fill="#032068"/>
<path d="M175.527 138.463C173.516 139.133 172.123 138.742 171.425 138.463L170.777 141.485C173.458 141.15 174.968 139.231 175.527 138.463Z" fill="#032068"/>
<path d="M133.721 166.21L143.355 188.218C143.838 189.323 143.034 190.563 141.834 190.563H112.438C111.763 190.563 111.155 190.152 110.9 189.524L101.969 167.515C101.522 166.416 102.326 165.212 103.507 165.212H132.201C132.859 165.212 133.456 165.603 133.721 166.21Z" fill="white"/>
<path fill-rule="evenodd" clip-rule="evenodd" d="M132.2 165.559C132.722 165.559 133.195 165.869 133.405 166.349L143.039 188.358C143.422 189.233 142.785 190.216 141.834 190.216H112.438C111.903 190.216 111.421 189.89 111.219 189.392L102.288 167.384C101.934 166.512 102.571 165.559 103.507 165.559H132.2ZM134.037 166.069C133.716 165.337 132.996 164.864 132.2 164.864H103.507C102.081 164.864 101.11 166.318 101.649 167.646L110.58 189.654C110.888 190.414 111.622 190.91 112.438 190.91H141.834C143.283 190.91 144.254 189.412 143.67 188.078L134.037 166.069Z" fill="#032068"/>
<path d="M124.742 176.127C124.202 174.866 122.968 174.05 121.604 174.05C119.147 174.05 117.493 176.58 118.466 178.85L118.708 179.416C119.248 180.676 120.482 181.492 121.847 181.492C124.304 181.492 125.958 178.962 124.985 176.692L124.742 176.127Z" fill="#FF9F9F"/>
<path d="M112.899 192.656H163.917C164.747 192.656 165.419 191.98 165.419 191.145C165.419 190.31 164.747 189.633 163.917 189.633H112.899C111.823 189.633 111.095 190.739 111.516 191.736C111.752 192.294 112.297 192.656 112.899 192.656Z" fill="#032068"/>
<path d="M194.453 69.261L196.251 67.6599C196.571 67.3747 197.066 67.6675 196.97 68.0855L196.445 70.3778C196.414 70.5165 196.451 70.6617 196.544 70.7678L198.242 72.6869C198.515 72.996 198.249 73.4801 197.842 73.4155L195.284 73.0102C195.16 72.9905 195.033 73.0253 194.935 73.1058L192.732 74.9247C192.405 75.1948 191.926 74.8926 192.028 74.4807L192.671 71.8798C192.703 71.7531 192.677 71.6192 192.6 71.5142L190.889 69.1688C190.638 68.8239 190.977 68.3561 191.382 68.4885L194.024 69.3512C194.173 69.3996 194.336 69.3653 194.453 69.261Z" fill="#FF9F9F"/>
<path d="M202.647 97.7548L203.392 97.5371C203.803 97.417 204.123 97.8951 203.858 98.2322L203.391 98.8254C203.303 98.9372 203.274 99.0845 203.313 99.221L203.572 100.125C203.686 100.523 203.239 100.847 202.9 100.612L202.104 100.064C202.001 99.9928 201.871 99.9696 201.749 100L200.699 100.265C200.288 100.369 199.985 99.8886 200.254 99.5597L200.871 98.8028C200.954 98.7016 200.988 98.5692 200.964 98.4412L200.761 97.3626C200.682 96.942 201.188 96.6647 201.497 96.9593L202.222 97.6517C202.335 97.7595 202.497 97.7987 202.647 97.7548Z" fill="#FF9F9F"/>
<path d="M17.0107 193.767C17.0107 192.846 17.5946 192.1 18.3147 192.1H199.133C199.853 192.1 200.437 192.846 200.437 193.767V195.99C200.437 196.911 199.853 197.658 199.133 197.658H18.3147C17.5946 197.658 17.0107 196.911 17.0107 195.99V193.767Z" fill="white"/>
<path fill-rule="evenodd" clip-rule="evenodd" d="M16.5762 193.767C16.5762 192.539 17.3546 191.544 18.3148 191.544H199.133C200.094 191.544 200.872 192.539 200.872 193.767V195.991C200.872 197.219 200.094 198.214 199.133 198.214H18.3148C17.3546 198.214 16.5762 197.219 16.5762 195.991V193.767ZM18.3148 192.656C17.8347 192.656 17.4455 193.153 17.4455 193.767V195.991C17.4455 196.605 17.8347 197.102 18.3148 197.102H199.133C199.613 197.102 200.003 196.605 200.003 195.991V193.767C200.003 193.153 199.613 192.656 199.133 192.656H18.3148Z" fill="#032068"/>
</svg>
