<svg width="21" height="28" viewBox="0 0 21 28" fill="none" xmlns="http://www.w3.org/2000/svg">
<path id="Vector" fill-rule="evenodd" clip-rule="evenodd" d="M0.944175 10.8355C0.900193 5.20973 5.29388 0.631108 10.8142 0.677101C16.3219 0.722974 20.771 5.35615 20.815 10.9719C20.8517 15.6782 17.6529 20.165 13.2941 21.4118C13.3443 21.515 13.3868 21.6149 13.4164 21.7099C13.8165 22.9892 12.9874 24.2771 11.71 24.5367V26.2687C11.71 26.7676 11.3056 27.172 10.8068 27.172C10.3079 27.172 9.90352 26.7676 9.90352 26.2687V24.5367C8.62608 24.2771 7.79699 22.9892 8.19709 21.7099C8.23017 21.604 8.27908 21.4924 8.33683 21.3765C4.01053 20.0638 0.980714 15.5102 0.944175 10.8355ZM10.7992 2.48352C6.34282 2.44641 2.71408 6.14889 2.75061 10.8214C2.78797 15.6003 6.43345 19.9093 10.8142 19.9458C15.2153 19.9824 19.0455 15.7174 19.0085 10.986C18.9719 6.3034 15.2682 2.52075 10.7992 2.48352ZM10.7992 21.7523C11.0073 21.754 11.2138 21.7483 11.4187 21.7355C11.4283 21.7565 11.4389 21.7773 11.4504 21.7979L11.6487 22.1599L11.6934 22.2526C11.7541 22.4544 11.6337 22.71 11.3484 22.7668C11.3484 22.7668 11.3208 22.771 11.2325 22.7735L10.8068 22.7764C10.6079 22.7764 10.4783 22.7763 10.381 22.7735C10.2928 22.771 10.2652 22.7668 10.2652 22.7668C9.97987 22.71 9.85968 22.4538 9.92038 22.2519C9.92255 22.2468 9.9335 22.2206 9.96494 22.1599C10.0078 22.077 10.0686 21.9676 10.1632 21.7979C10.1763 21.7744 10.1881 21.7507 10.1989 21.7267C10.3971 21.7419 10.5972 21.7506 10.7992 21.7523Z" fill="#EA3639"/>
</svg>
