<svg width="26" height="26" viewBox="0 0 26 26" fill="none" xmlns="http://www.w3.org/2000/svg">
<g clip-path="url(#clip0_1521_17474)">
<path d="M8.05331 4.2206H4.19222C2.77061 4.2206 1.61816 5.35559 1.61816 6.75566V10.5582M8.05331 4.2206H16.419M8.05331 4.2206V1.68555M8.05331 4.2206V6.1219M16.419 4.2206H20.2801C21.7017 4.2206 22.8541 5.35559 22.8541 6.75566V10.5582H1.61816M16.419 4.2206V1.68555M16.419 4.2206V6.1219M1.61816 10.5582V20.0647C1.61816 21.4648 2.77061 22.5998 4.19222 22.5998H10.6274" stroke="#EA3639" stroke-width="1.94246" stroke-linecap="round" stroke-linejoin="round"/>
<g clip-path="url(#clip1_1521_17474)">
<path d="M14.5139 22.4668C14.2942 22.6865 14.2942 23.0528 14.5139 23.2726C14.7337 23.4923 15.1 23.4923 15.3197 23.2726L23.3228 15.123C23.5426 14.9032 23.5426 14.5369 23.3228 14.3172C23.1031 14.0974 22.7368 14.0974 22.517 14.3172L14.5139 22.4668Z" fill="#EA3639"/>
<path d="M22.517 23.2726C22.7368 23.4923 23.1031 23.4923 23.3228 23.2726C23.5426 23.0528 23.5426 22.6865 23.3228 22.4668L15.3197 14.3172C15.1 14.0974 14.7337 14.0974 14.5139 14.3172C14.2942 14.5369 14.2942 14.9032 14.5139 15.123L22.517 23.2726Z" fill="#EA3639"/>
</g>
</g>
<defs>
<clipPath id="clip0_1521_17474">
<rect width="25.7406" height="25.7406" fill="white" transform="translate(0.00927734 0.0761719)"/>
</clipPath>
<clipPath id="clip1_1521_17474">
<rect width="9.44287" height="9.44287" fill="white" transform="translate(14.0825 14.1533)"/>
</clipPath>
</defs>
</svg>
