<svg width="24" height="24" viewBox="0 0 24 24" fill="none" xmlns="http://www.w3.org/2000/svg">
<g id="medical-kit-svgrepo-com 1">
<path id="Vector" d="M1.96924 13.7511C1.96924 10.0558 1.96924 8.20811 3.11723 7.0601C4.26523 5.91211 6.1129 5.91211 9.80825 5.91211H13.7277C17.4231 5.91211 19.2708 5.91211 20.4187 7.0601C21.5668 8.20811 21.5668 10.0558 21.5668 13.7511C21.5668 17.4464 21.5668 19.2942 20.4187 20.4421C19.2708 21.5901 17.4231 21.5901 13.7277 21.5901H9.80825C6.1129 21.5901 4.26523 21.5901 3.11723 20.4421C1.96924 19.2942 1.96924 17.4464 1.96924 13.7511Z" stroke="#EA3639" stroke-width="1.46981"/>
<path id="Vector_2" d="M15.6872 5.91364C15.6872 4.06597 15.6872 3.14213 15.1131 2.56814C14.5391 1.99414 13.6153 1.99414 11.7676 1.99414C9.91999 1.99414 8.99614 1.99414 8.42215 2.56814C7.84814 3.14213 7.84814 4.06597 7.84814 5.91364" stroke="#EA3639" stroke-width="1.46981"/>
<path id="Vector_3" d="M13.2375 13.7511H10.2979M11.7677 12.2812V15.2209" stroke="#EA3639" stroke-width="1.46981" stroke-linecap="round"/>
<path id="Vector_4" d="M11.7676 17.6779C13.9323 17.6779 15.6872 15.9231 15.6872 13.7584C15.6872 11.5937 13.9323 9.83887 11.7676 9.83887C9.60297 9.83887 7.84814 11.5937 7.84814 13.7584C7.84814 15.9231 9.60297 17.6779 11.7676 17.6779Z" stroke="#EA3639" stroke-width="1.46981"/>
</g>
</svg>
