<svg width="26" height="27" viewBox="0 0 26 27" fill="none" xmlns="http://www.w3.org/2000/svg">
<path d="M14.3648 2.18232C14.4365 1.73935 14.8553 1.43887 15.2982 1.51058C15.3257 1.51583 15.4139 1.53232 15.4601 1.54261C15.5525 1.56319 15.6815 1.59489 15.8422 1.64172C16.1638 1.73537 16.6129 1.88963 17.152 2.13679C18.2313 2.63161 19.6676 3.49719 21.158 4.98764C22.6485 6.47809 23.5141 7.91439 24.0089 8.99369C24.256 9.53278 24.4103 9.98193 24.5039 10.3034C24.5508 10.4642 24.5824 10.5932 24.603 10.6856C24.6133 10.7318 24.6209 10.7689 24.6261 10.7964L24.6324 10.8302C24.7041 11.2731 24.4063 11.7091 23.9633 11.7808C23.5216 11.8523 23.1055 11.5533 23.0321 11.1124C23.0298 11.1006 23.0236 11.0689 23.0169 11.0389C23.0036 10.9789 22.9804 10.8837 22.9438 10.7579C22.8705 10.5062 22.7432 10.1321 22.5317 9.67091C22.1094 8.74975 21.35 7.47771 20.0089 6.13669C18.668 4.79568 17.3959 4.03626 16.4748 3.61394C16.0136 3.40253 15.6395 3.2752 15.3878 3.20189C15.262 3.16524 15.1038 3.12894 15.0438 3.11557C14.6029 3.0421 14.2933 2.62402 14.3648 2.18232Z" fill="#F20000"/>
<path fill-rule="evenodd" clip-rule="evenodd" d="M14.6096 5.91762C14.7329 5.48616 15.1826 5.23632 15.614 5.35959L15.3908 6.14084C15.614 5.35959 15.614 5.35959 15.614 5.35959L15.6156 5.36005L15.6172 5.36053L15.6209 5.36158L15.6293 5.36409L15.6507 5.37076C15.6671 5.37598 15.6874 5.38279 15.7118 5.39142C15.7605 5.40868 15.8247 5.43324 15.9036 5.46704C16.0614 5.53468 16.2771 5.63914 16.542 5.79591C17.0723 6.10973 17.796 6.63101 18.6465 7.48139C19.4969 8.33177 20.0182 9.05565 20.3319 9.58591C20.4888 9.85079 20.5932 10.0664 20.6608 10.2243C20.6946 10.3031 20.7192 10.3674 20.7364 10.4161C20.7451 10.4404 20.7519 10.4608 20.7571 10.4772L20.7637 10.4986L20.7663 10.507L20.7673 10.5106L20.7678 10.5123C20.7678 10.5123 20.7683 10.5138 19.987 10.737L20.7683 10.5138C20.8916 10.9453 20.6417 11.395 20.2102 11.5183C19.7824 11.6405 19.3366 11.396 19.209 10.9712L19.205 10.9595C19.1992 10.9432 19.1873 10.9112 19.1672 10.8644C19.1271 10.7709 19.0544 10.6179 18.9335 10.4136C18.692 10.0054 18.2557 9.38873 17.4975 8.63044C16.7391 7.87216 16.1224 7.43589 15.7143 7.19435C15.51 7.07343 15.357 7.00074 15.2634 6.96065C15.2166 6.9406 15.1847 6.92864 15.1683 6.92287L15.1567 6.91886C14.7319 6.79117 14.4873 6.34543 14.6096 5.91762Z" fill="#F20000"/>
<path fill-rule="evenodd" clip-rule="evenodd" d="M5.42442 4.91965C7.24449 3.09957 10.3159 3.23793 11.5832 5.50873L12.2863 6.76857C13.1139 8.25146 12.7612 10.1225 11.5497 11.3488C11.5336 11.3709 11.448 11.4954 11.4374 11.7129C11.4239 11.9906 11.5224 12.6328 12.5174 13.6277C13.512 14.6224 14.1541 14.7212 14.432 14.7077C14.6497 14.6972 14.7743 14.6116 14.7964 14.5955C16.0227 13.384 17.8937 13.0312 19.3766 13.8589L20.6364 14.562C22.9072 15.8293 23.0455 18.9006 21.2255 20.7207C20.2519 21.6943 18.9575 22.5594 17.4363 22.617C15.1819 22.7025 11.4387 22.1203 7.73181 18.4133C4.02487 14.7064 3.44271 10.9632 3.52816 8.70891C3.58584 7.18769 4.45087 5.89319 5.42442 4.91965ZM10.1642 6.30065C9.51528 5.13786 7.77145 4.87071 6.57346 6.06869C5.7335 6.90866 5.18744 7.83578 5.152 8.77046C5.08073 10.6504 5.54487 13.9283 8.88086 17.2643C12.2169 20.6003 15.4947 21.0645 17.3747 20.9932C18.3094 20.9578 19.2365 20.4117 20.0764 19.5716C21.2744 18.3737 21.0072 16.6299 19.8445 15.9809L18.5847 15.2779C17.801 14.8405 16.7001 14.9897 15.9274 15.7624C15.8516 15.8383 15.3683 16.2891 14.5109 16.3309C13.6331 16.3735 12.5707 15.9791 11.3684 14.7768C10.1656 13.5741 9.77138 12.5113 9.81435 11.6335C9.85634 10.776 10.3072 10.2933 10.3827 10.2178C11.1554 9.44503 11.3047 8.34418 10.8674 7.56049L10.1642 6.30065Z" fill="#F20000"/>
</svg>
