<svg width="15" height="16" viewBox="0 0 15 16" fill="none" xmlns="http://www.w3.org/2000/svg">
<path d="M13.3496 1.18359C13.0996 1.18359 12.8499 1.27686 12.6624 1.46436L12.2058 1.9209L13.5815 3.29663L14.0381 2.84009C14.4131 2.46509 14.4131 1.84561 14.0381 1.46436C13.8506 1.27686 13.5996 1.18359 13.3496 1.18359ZM3.125 2.37744C2.44184 2.37744 1.875 2.94428 1.875 3.62744V12.3774C1.875 13.0606 2.44184 13.6274 3.125 13.6274H11.875C12.5582 13.6274 13.125 13.0606 13.125 12.3774V6.75244C13.1262 6.66962 13.1109 6.58739 13.08 6.51054C13.0491 6.43368 13.0033 6.36373 12.9451 6.30475C12.8869 6.24577 12.8177 6.19894 12.7412 6.16697C12.6648 6.135 12.5828 6.11854 12.5 6.11854C12.4172 6.11854 12.3352 6.135 12.2588 6.16697C12.1823 6.19894 12.1131 6.24577 12.0549 6.30475C11.9967 6.36373 11.9509 6.43368 11.92 6.51054C11.8891 6.58739 11.8738 6.66962 11.875 6.75244V12.3774H3.125V3.62744H8.75C8.83282 3.62861 8.91505 3.61331 8.9919 3.58243C9.06876 3.55154 9.13871 3.50569 9.19769 3.44754C9.25667 3.38939 9.3035 3.32009 9.33547 3.24368C9.36744 3.16727 9.3839 3.08527 9.3839 3.00244C9.3839 2.91961 9.36744 2.83761 9.33547 2.7612C9.3035 2.68479 9.25667 2.61549 9.19769 2.55734C9.13871 2.49919 9.06876 2.45334 8.9919 2.42245C8.91505 2.39157 8.83282 2.37627 8.75 2.37744H3.125ZM11.5442 2.58374L8.80005 5.32788C8.6438 5.48413 8.53159 5.6769 8.47534 5.8894L8.19946 6.9209C8.13696 7.15215 8.35029 7.36548 8.58154 7.30298L9.61304 7.0271C9.82554 6.97085 10.0183 6.85864 10.1746 6.70239L12.9187 3.95825L11.5442 2.58374Z" fill="white"/>
</svg>
