<svg xmlns="http://www.w3.org/2000/svg" width="38" height="39" viewBox="0 0 38 39" fill="none">
  <path fill-rule="evenodd" clip-rule="evenodd" d="M7.94191 7.23658H30.0238C31.766 7.23658 33.1783 8.64892 33.1783 10.3911V23.0093C33.1783 24.7515 31.766 26.1639 30.0238 26.1639H7.94191C6.1997 26.1639 4.78736 24.7515 4.78736 23.0093V10.3911C4.78736 8.64892 6.1997 7.23658 7.94191 7.23658ZM1.63281 10.3911C1.63281 6.90671 4.45749 4.08203 7.94191 4.08203H30.0238C33.5082 4.08203 36.3329 6.90671 36.3329 10.3911V23.0093C36.3329 26.4938 33.5082 29.3184 30.0238 29.3184H20.5601V32.473H25.2919V35.6275H12.6737V32.473H17.4056V29.3184H7.94191C4.45749 29.3184 1.63281 26.4938 1.63281 23.0093V10.3911ZM18.9863 10.0094L16.7557 12.24L16.7562 12.2405L12.295 16.7017L14.5256 18.9323L17.4083 16.0496V23.0107H20.5628V16.047L23.4475 18.9318L25.6782 16.7012L21.2174 12.2405L18.9868 10.0098L18.9863 10.0094Z" fill="#09132C" fill-opacity="0.6"/>
</svg>