<svg width="20" height="21" viewBox="0 0 20 21" fill="none" xmlns="http://www.w3.org/2000/svg">
<path d="M10.7858 10.4966L3.25378 11.7526C3.16719 11.7671 3.08593 11.8041 3.01817 11.8599C2.95041 11.9157 2.89854 11.9884 2.86778 12.0706L0.270783 19.0276C0.022783 19.6676 0.691783 20.2776 1.30578 19.9706L19.3058 10.9706C19.4305 10.9084 19.5353 10.8126 19.6086 10.6941C19.6819 10.5756 19.7207 10.439 19.7207 10.2996C19.7207 10.1603 19.6819 10.0237 19.6086 9.90518C19.5353 9.78665 19.4305 9.6909 19.3058 9.62864L1.30578 0.628644C0.691783 0.321644 0.022783 0.932644 0.270783 1.57164L2.86878 8.52864C2.8994 8.61106 2.9512 8.68394 3.01897 8.73995C3.08674 8.79596 3.16808 8.8331 3.25478 8.84764L10.7868 10.1026C10.8331 10.1108 10.8751 10.135 10.9054 10.171C10.9357 10.207 10.9523 10.2526 10.9523 10.2996C10.9523 10.3467 10.9357 10.3923 10.9054 10.4283C10.8751 10.4643 10.8331 10.4885 10.7868 10.4966H10.7858Z" fill="#FF4F4F"/>
</svg>
