<svg width="22" height="22" viewBox="0 0 22 22" fill="none" xmlns="http://www.w3.org/2000/svg">
<path d="M11 0.5C8.42633 0.5 6.33333 2.593 6.33333 5.16667C6.33333 7.74033 8.42633 9.83333 11 9.83333C13.5737 9.83333 15.6667 7.74033 15.6667 5.16667C15.6667 2.593 13.5737 0.5 11 0.5ZM11 2.83333C12.2868 2.83333 13.3333 3.87983 13.3333 5.16667C13.3333 6.4535 12.2868 7.5 11 7.5C9.71317 7.5 8.66667 6.4535 8.66667 5.16667C8.66667 3.87983 9.71317 2.83333 11 2.83333ZM8.00814 13.641C4.53264 14.2838 0.5 15.9327 0.5 18.5833V21.5H21.5V18.5833C21.5 15.9327 17.4674 14.2826 13.9919 13.641L11 16.6328L8.00814 13.641ZM7.25846 16.1908L9.35026 18.2826L10.2344 19.1667H2.83333V18.5833C2.83333 18.0828 4.3488 16.9199 7.25846 16.1908ZM14.7415 16.1908C17.6512 16.9199 19.1667 18.0828 19.1667 18.5833V19.1667H11.7656L12.6497 18.2826L14.7415 16.1908Z" fill="#888888"/>
</svg>
