<svg width="24" height="21" viewBox="0 0 24 21" fill="none" xmlns="http://www.w3.org/2000/svg">
<path d="M12 0C10.067 0 8.5 1.567 8.5 3.5C8.5 5.433 10.067 7 12 7C13.933 7 15.5 5.433 15.5 3.5C15.5 1.567 13.933 0 12 0ZM12 2C12.827 2 13.5 2.673 13.5 3.5C13.5 4.327 12.827 5 12 5C11.173 5 10.5 4.327 10.5 3.5C10.5 2.673 11.173 2 12 2ZM4.5 3C3.119 3 2 4.119 2 5.5C2 6.881 3.119 8 4.5 8C5.881 8 7 6.881 7 5.5C7 4.119 5.881 3 4.5 3ZM4.5 4.72266C4.929 4.72266 5.27734 5.071 5.27734 5.5C5.27734 5.929 4.929 6.27734 4.5 6.27734C4.071 6.27734 3.72266 5.929 3.72266 5.5C3.72266 5.071 4.071 4.72266 4.5 4.72266ZM11.9297 9C10.6097 9 8.545 9.37509 7 10.1211C7.00492 10.1223 6.79685 10.2318 6.53516 10.3906C5.89915 10.152 5.20397 10 4.5 10C2.263 10 0 11.3976 0 12.9316V16H4.5H6H12.0918C12.5721 18.8283 15.0396 21 18 21C21.3019 21 24 18.3019 24 15C24 11.6981 21.3019 9 18 9C17.0954 9 16.2396 9.20839 15.4688 9.57031C14.2374 9.19402 12.9348 9 12 9C11.989 9 11.9758 9.00195 11.9648 9.00195C11.9538 9.00195 11.9417 9 11.9297 9ZM18 11C20.221 11 22 12.779 22 15C22 17.221 20.221 19 18 19C15.779 19 14 17.221 14 15C14 12.779 15.779 11 18 11ZM11.9648 11.002C12.4421 11.0042 12.9293 11.0629 13.4102 11.1465C12.7364 11.9472 12.274 12.9272 12.0918 14H7V12.5664C7.376 11.9644 9.83784 11.012 11.9648 11.002ZM4.5 12C4.70212 12 4.88496 12.0348 5.07031 12.0645C5.03258 12.2043 5 12.3468 5 12.5V14H4.5H2V13.0098C2.184 12.6898 3.198 12 4.5 12ZM18.4902 12.5996L16.2109 13.5312V14.7773L17.1641 14.4082V17.4004H18.7969V12.5996H18.4902Z" fill="#888888"/>
</svg>
