<svg width="38" height="38" viewBox="0 0 38 38" fill="none" xmlns="http://www.w3.org/2000/svg">
<g clip-path="url(#clip0_15073_13541)">
<path d="M28.12 0L27.6643 2.43141C27.4363 2.50741 27.1323 2.5837 26.9043 2.7357L24.8514 1.29141L22.5714 3.57141L23.94 5.47141C23.864 5.77541 23.7117 6.00459 23.6357 6.30859L21.28 6.68859V9.88L23.6357 10.26C23.7117 10.488 23.788 10.792 23.94 11.02L22.5714 13.0714L24.8514 15.3514L26.9043 13.9843C27.2083 14.1363 27.436 14.2126 27.74 14.2886L28.12 16.72H31.2357L31.6914 14.3643C31.9194 14.2883 32.1474 14.212 32.4514 14.06L34.5043 15.4286L36.7843 13.1486L35.34 11.1714C35.492 10.8674 35.5683 10.5637 35.6443 10.3357L38 9.88V6.68859L35.5686 6.30859C35.4926 6.08059 35.4163 5.77659 35.2643 5.54859L36.6314 3.4957L34.4286 1.29141L32.4514 2.7357C32.2234 2.5837 31.9194 2.50741 31.6914 2.43141L31.3114 0H28.12ZM29.4114 1.52H30.02L30.3243 3.57141L30.78 3.7243C31.236 3.8763 31.6914 4.0277 32.0714 4.2557L32.5286 4.56L34.2757 3.26859L34.6557 3.64859L33.44 5.3957L33.6686 5.7757C33.8966 6.2317 34.048 6.6883 34.2 7.1443L34.3514 7.6L36.48 7.9043V8.51141L34.4286 8.96859L34.2757 9.4243C34.1237 9.8803 33.9723 10.3357 33.7443 10.7157L33.44 11.1714L34.7314 12.92L34.2757 13.3757L32.5286 12.16L32.1486 12.3886C31.6926 12.6166 31.236 12.768 30.78 12.92L30.3243 13.0714L29.9443 15.2H29.3357L29.0314 13.1486L28.5757 12.9957C28.1197 12.8437 27.6643 12.6923 27.2843 12.4643L26.8286 12.16L25.0043 13.3757L24.5486 12.92L25.7643 11.1714L25.5357 10.7914C25.3077 10.3354 25.1563 9.8043 25.0043 9.4243L24.8514 8.96859L22.8 8.58859V7.98L24.9286 7.6L25.0043 7.06859C25.0803 6.68859 25.232 6.23141 25.46 5.85141L25.7643 5.47141L24.5486 3.7243L25.0043 3.26859L26.7514 4.4843L27.1314 4.33141C27.6634 4.10341 28.1197 3.8763 28.5757 3.7243L29.0314 3.64859L29.4114 1.52ZM29.64 5.2443C27.968 5.2443 26.6 6.6123 26.6 8.2843C26.6 9.9563 27.968 11.3243 29.64 11.3243C31.312 11.3243 32.68 10.0323 32.68 8.2843C32.68 6.6123 31.312 5.2443 29.64 5.2443ZM6.08001 6.08C4.40345 6.08 3.04001 7.44344 3.04001 9.12V25.84C3.04001 26.3965 3.20104 26.9109 3.46306 27.36H1.52001C1.31845 27.36 1.12515 27.4401 0.982631 27.5826C0.840108 27.7251 0.76003 27.9184 0.76001 28.12C0.76001 30.2096 2.47038 31.92 4.56001 31.92H33.44C35.5296 31.92 37.24 30.2096 37.24 28.12C37.24 27.9184 37.1599 27.7251 37.0174 27.5826C36.8749 27.4401 36.6816 27.36 36.48 27.36H34.537C34.799 26.9109 34.96 26.3965 34.96 25.84V16.677C34.4789 16.9855 33.9735 17.2581 33.44 17.48V25.84C33.44 26.6783 32.7583 27.36 31.92 27.36H6.08001C5.24173 27.36 4.56001 26.6783 4.56001 25.84V9.12C4.56001 8.28172 5.24173 7.6 6.08001 7.6H19.7986C19.8381 7.08092 19.9183 6.574 20.0346 6.08H6.08001ZM29.64 6.84C30.476 6.84 31.16 7.448 31.16 8.36C31.16 9.196 30.476 9.88 29.64 9.88C28.804 9.88 28.12 9.196 28.12 8.36C28.12 7.524 28.804 6.84 29.64 6.84ZM2.59321 28.88H6.08001H31.92H35.4068C35.0746 29.7255 34.4097 30.4 33.44 30.4H4.56001C3.59036 30.4 2.9254 29.7255 2.59321 28.88Z" fill="black"/>
</g>
<defs>
<clipPath id="clip0_15073_13541">
<rect width="38" height="38" fill="white"/>
</clipPath>
</defs>
</svg>
