<svg width="67" height="66" viewBox="0 0 67 66" fill="none" xmlns="http://www.w3.org/2000/svg">
<path d="M6.75174 6.60156C3.84558 6.60156 1.46143 8.9866 1.46143 11.8919V46.1912C1.46143 49.0965 3.84558 51.4816 6.75174 51.4816H15.9814C16.1563 51.484 16.33 51.4517 16.4923 51.3865C16.6546 51.3213 16.8024 51.2244 16.9269 51.1016C17.0515 50.9788 17.1504 50.8324 17.2179 50.6711C17.2855 50.5097 17.3202 50.3365 17.3202 50.1616C17.3202 49.9866 17.2855 49.8134 17.2179 49.6521C17.1504 49.4907 17.0515 49.3443 16.9269 49.2215C16.8024 49.0987 16.6546 49.0019 16.4923 48.9366C16.33 48.8714 16.1563 48.8391 15.9814 48.8416H6.75174C5.27286 48.8416 4.10143 47.6684 4.10143 46.1912V11.8919C4.10143 10.4147 5.27286 9.24156 6.75174 9.24156H59.5311C61.0082 9.24156 62.1814 10.4147 62.1814 11.8919V46.1912C62.1814 47.6701 61.0082 48.8416 59.5311 48.8416H55.5814C55.4065 48.8391 55.2328 48.8714 55.0705 48.9366C54.9082 49.0019 54.7605 49.0987 54.6359 49.2215C54.5113 49.3443 54.4124 49.4907 54.3449 49.6521C54.2774 49.8134 54.2426 49.9866 54.2426 50.1616C54.2426 50.3365 54.2774 50.5097 54.3449 50.6711C54.4124 50.8324 54.5113 50.9788 54.6359 51.1016C54.7605 51.2244 54.9082 51.3213 55.0705 51.3865C55.2328 51.4517 55.4065 51.484 55.5814 51.4816H59.5311C62.4364 51.4816 64.8214 49.0974 64.8214 46.1912V11.8919C64.8214 8.9866 62.4364 6.60156 59.5311 6.60156H6.75174ZM31.8214 15.8416C23.8177 15.8416 17.3014 22.3579 17.3014 30.3616C17.3014 30.996 17.3426 31.622 17.4226 32.2384C17.4389 32.4151 17.4906 32.5867 17.5746 32.7429C17.6587 32.8992 17.7734 33.0369 17.9119 33.1478C18.0504 33.2587 18.2098 33.3406 18.3806 33.3885C18.5515 33.4364 18.7302 33.4494 18.9061 33.4267C19.0821 33.404 19.2517 33.346 19.4048 33.2563C19.5578 33.1666 19.6912 33.0469 19.797 32.9045C19.9028 32.762 19.9788 32.5997 20.0204 32.4273C20.0621 32.2548 20.0685 32.0757 20.0394 31.9007C19.9742 31.3978 19.9414 30.8835 19.9414 30.3616C19.9414 23.7845 25.2444 18.4816 31.8214 18.4816C38.3984 18.4816 43.7014 23.7845 43.7014 30.3616C43.7014 30.9386 43.6597 31.5031 43.5803 32.0554C43.5307 32.4021 43.6209 32.7542 43.8309 33.0344C44.041 33.3146 44.3538 33.4998 44.7004 33.5494C45.0471 33.599 45.3993 33.5088 45.6795 33.2987C45.9596 33.0887 46.1449 32.7759 46.1945 32.4292C46.2919 31.7513 46.3414 31.0623 46.3414 30.3616C46.3414 22.3579 39.8251 15.8416 31.8214 15.8416ZM31.8214 21.1216C26.7337 21.1216 22.5814 25.2738 22.5814 30.3616C22.579 30.5365 22.6113 30.7101 22.6765 30.8725C22.7417 31.0348 22.8386 31.1825 22.9614 31.3071C23.0842 31.4316 23.2305 31.5306 23.3919 31.5981C23.5533 31.6656 23.7265 31.7004 23.9014 31.7004C24.0764 31.7004 24.2495 31.6656 24.4109 31.5981C24.5723 31.5306 24.7187 31.4316 24.8415 31.3071C24.9643 31.1825 25.0611 31.0348 25.1264 30.8725C25.1916 30.7101 25.2239 30.5365 25.2214 30.3616C25.2214 26.7003 28.1602 23.7616 31.8214 23.7616C35.4827 23.7616 38.4214 26.7003 38.4214 30.3616C38.4189 30.5365 38.4513 30.7101 38.5165 30.8725C38.5817 31.0348 38.6786 31.1825 38.8014 31.3071C38.9242 31.4316 39.0705 31.5306 39.2319 31.5981C39.3933 31.6656 39.5665 31.7004 39.7414 31.7004C39.9164 31.7004 40.0895 31.6656 40.2509 31.5981C40.4123 31.5306 40.5587 31.4316 40.6815 31.3071C40.8043 31.1825 40.9011 31.0348 40.9664 30.8725C41.0316 30.7101 41.0639 30.5365 41.0614 30.3616C41.0614 25.2738 36.9091 21.1216 31.8214 21.1216ZM31.8188 27.0616C29.9986 27.0616 28.5188 28.5426 28.5188 30.3616V48.1326L25.9949 45.606C24.7461 44.3586 22.5719 44.3586 21.3285 45.606C20.7054 46.2304 20.3617 47.0588 20.3617 47.9392C20.3617 48.821 20.7041 49.652 21.3285 50.275L28.7199 57.6665C28.877 57.8183 32.5593 61.3816 35.7814 61.3816H42.0875C46.7181 61.3816 50.6043 57.7627 50.9356 53.1058C50.9502 53.0055 50.9614 52.9058 50.9614 52.8016V43.5616C50.9614 41.7413 49.4817 40.2616 47.6614 40.2616C46.8232 40.2616 46.0573 40.5769 45.4752 41.0917C45.0066 39.8377 43.7965 38.9416 42.3814 38.9416C41.5432 38.9416 40.7786 39.2569 40.1952 39.7717C39.7266 38.5177 38.5139 37.6216 37.0988 37.6216C36.357 37.6216 35.6706 37.8697 35.1188 38.2841V30.3616C35.1188 28.5426 33.6391 27.0616 31.8188 27.0616Z" fill="#171717"/>
</svg>
