<svg width="36" height="37" viewBox="0 0 36 37" fill="none" xmlns="http://www.w3.org/2000/svg">
<g clip-path="url(#clip0_716_23231)">
<path d="M18.0925 1.59424C11.9869 1.59424 6.86648 5.89097 5.58079 11.6125C5.71159 11.5986 5.84795 11.568 5.98153 11.568C6.34608 11.568 6.69672 11.6431 7.02788 11.7461C8.23564 6.75088 12.73 3.01906 18.0925 3.01906C23.4523 3.01906 27.9494 6.75088 29.1572 11.7461C29.4883 11.6431 29.8362 11.568 30.2035 11.568C30.3371 11.568 30.4735 11.5986 30.6043 11.6125C29.3186 5.89097 24.1953 1.59424 18.0925 1.59424ZM5.98153 12.9928C4.80438 12.9928 3.84429 13.9529 3.84429 15.1301V25.8163C3.84429 26.9934 4.80438 27.9535 5.98153 27.9535C7.15868 27.9535 8.11876 26.9934 8.11876 25.8163V15.1301C8.11876 13.9529 7.15868 12.9928 5.98153 12.9928ZM30.2035 12.9928C29.0264 12.9928 28.0663 13.9529 28.0663 15.1301V25.8163C28.0663 26.9934 29.0264 27.9535 30.2035 27.9535C31.3807 27.9535 32.3408 26.9934 32.3408 25.8163V15.1301C32.3408 13.9529 31.3807 12.9928 30.2035 12.9928ZM2.41946 15.2191C1.13378 16.2516 0.282227 18.1884 0.282227 20.4732C0.282227 22.7579 1.13378 24.6948 2.41946 25.7272V15.2191ZM33.7656 15.2191V25.7272C35.0513 24.6948 35.9028 22.7579 35.9028 20.4732C35.9028 18.1884 35.0513 16.2516 33.7656 15.2191ZM29.2017 29.2225C28.5728 31.1566 26.9393 32.228 24.5042 32.228H23.725C23.7724 32.4589 23.7918 32.6955 23.7918 32.9404C23.7918 33.1853 23.7724 33.4218 23.725 33.6528H24.5042C27.7045 33.6528 29.9197 32.0443 30.6488 29.3338C30.4985 29.3533 30.3566 29.3783 30.2035 29.3783C29.8529 29.3783 29.5217 29.3171 29.2017 29.2225ZM16.6677 30.8031C15.4906 30.8031 14.5305 31.7632 14.5305 32.9404C14.5305 34.1175 15.4906 35.0776 16.6677 35.0776H20.2298C21.4069 35.0776 22.367 34.1175 22.367 32.9404C22.367 31.7632 21.4069 30.8031 20.2298 30.8031H16.6677Z" fill="black"/>
</g>
<defs>
<clipPath id="clip0_716_23231">
<rect width="35.6206" height="35.6206" fill="white" transform="translate(0.282227 0.875)"/>
</clipPath>
</defs>
</svg>
