<svg width="57" height="56" viewBox="0 0 57 56" fill="none" xmlns="http://www.w3.org/2000/svg">
<g clip-path="url(#clip0_701_11015)">
<path d="M0.573242 4.47656V6.71656H56.5732V4.47656H0.573242ZM28.6848 9.06813C26.8928 9.06813 26.4448 10.0766 26.4448 11.1966V30.2366C26.4448 32.7006 25.4381 34.605 21.0701 34.605C14.7981 34.605 12.2217 36.1734 12.2217 40.0934C12.2217 42.7814 12.7821 46.6997 21.0701 46.6997C28.6861 46.6997 28.5732 41.1006 28.5732 38.0766V21.2766C28.5732 19.8206 29.1341 19.0366 30.0301 19.0366C35.6301 19.0366 34.2848 22.3966 42.1248 22.3966H42.1817C42.5289 22.3966 44.2532 22.3078 44.2532 20.4934V14.5566C44.2532 12.8766 43.5808 12.4281 42.1248 12.4281C34.2848 12.4281 36.0768 9.06813 28.6848 9.06813ZM0.573242 15.6766V17.9166H24.0932V15.6766H0.573242ZM46.4932 15.6766V17.9166H56.5732V15.6766H46.4932ZM0.573242 26.8766V29.1166H24.0932V26.8766H0.573242ZM30.8132 26.8766V29.1166H56.5732V26.8766H30.8132ZM0.573242 38.0766V40.3166H9.98168C9.98168 40.3166 9.75812 38.8606 10.4301 38.0766H0.573242ZM30.8132 38.0766C30.8132 39.6446 30.5901 40.3166 30.5901 40.3166H56.5732V38.0766H30.8132ZM0.573242 49.2766V51.5166H56.5732V49.2766H0.573242Z" fill="black"/>
</g>
<defs>
<clipPath id="clip0_701_11015">
<rect width="56" height="56" fill="white" transform="translate(0.573242)"/>
</clipPath>
</defs>
</svg>
