<svg width="69" height="68" viewBox="0 0 69 68" fill="none" xmlns="http://www.w3.org/2000/svg">
<path d="M11.0928 10.8828C8.10438 10.8828 5.65275 13.3344 5.65275 16.3228V46.2428C5.65275 47.2365 5.94331 48.1582 6.4151 48.9628H2.93275C2.18067 48.9628 1.57275 49.5721 1.57275 50.3228C1.57275 54.0723 4.62323 57.1228 8.37275 57.1228H60.0528C63.8023 57.1228 66.8528 54.0723 66.8528 50.3228C66.8528 49.5721 66.2448 48.9628 65.4928 48.9628H62.0104C62.4822 48.1582 62.7728 47.2365 62.7728 46.2428V16.3228C62.7728 13.3344 60.3211 10.8828 57.3328 10.8828H11.0928ZM11.0928 13.6028H57.3328C58.8514 13.6028 60.0528 14.8041 60.0528 16.3228V46.2428C60.0528 47.7615 58.8514 48.9628 57.3328 48.9628H11.0928C9.57409 48.9628 8.37275 47.7615 8.37275 46.2428V16.3228C8.37275 14.8041 9.57409 13.6028 11.0928 13.6028ZM27.4128 22.7456V39.82L42.3515 31.2828L27.4128 22.7456Z" fill="#171717"/>
</svg>
