<svg width="42" height="42" viewBox="0 0 42 42" fill="none" xmlns="http://www.w3.org/2000/svg">
<g id="icons8-bbq-2 1">
<path id="Vector" d="M15.8811 1.65391C15.845 1.66048 15.8089 1.67032 15.7761 1.68016C15.4611 1.73594 15.2085 1.96563 15.1199 2.27079C15.0313 2.57923 15.1232 2.90735 15.3561 3.12391C15.9697 3.73094 16.0025 3.99344 15.9599 4.25266C15.9172 4.51188 15.6679 4.90235 15.3036 5.38141C14.9394 5.86048 14.4439 6.42485 14.3061 7.24516C14.1683 8.06548 14.5129 9.00719 15.3561 9.84391C15.6908 10.1786 16.2289 10.1786 16.5636 9.84391C16.8983 9.50923 16.8983 8.9711 16.5636 8.63641C15.9533 8.02938 15.9172 7.76688 15.9599 7.50766C16.0025 7.24844 16.2782 6.85798 16.6424 6.37891C17.0066 5.89985 17.4758 5.33548 17.6136 4.51516C17.7514 3.69485 17.4069 2.75313 16.5636 1.91641C16.3897 1.72938 16.1371 1.63423 15.8811 1.65391ZM20.9211 1.65391C20.885 1.66048 20.8489 1.67032 20.8161 1.68016C20.5011 1.73594 20.2485 1.96563 20.1599 2.27079C20.0713 2.57923 20.1632 2.90735 20.3961 3.12391C21.0097 3.73094 21.0425 3.99344 20.9999 4.25266C20.9572 4.51188 20.7079 4.90235 20.3436 5.38141C19.9794 5.86048 19.4839 6.42485 19.3461 7.24516C19.2083 8.06548 19.5529 9.00719 20.3961 9.84391C20.7308 10.1786 21.2689 10.1786 21.6036 9.84391C21.9383 9.50923 21.9383 8.9711 21.6036 8.63641C20.9933 8.02938 20.9572 7.76688 20.9999 7.50766C21.0425 7.24844 21.3182 6.85798 21.6824 6.37891C22.0466 5.89985 22.5158 5.33548 22.6536 4.51516C22.7914 3.69485 22.4469 2.75313 21.6036 1.91641C21.4297 1.72938 21.1771 1.63423 20.9211 1.65391ZM25.9611 1.65391C25.925 1.66048 25.8889 1.67032 25.8561 1.68016C25.5411 1.73594 25.2885 1.96563 25.1999 2.27079C25.1113 2.57923 25.2032 2.90735 25.4361 3.12391C26.0497 3.73094 26.0825 3.99344 26.0399 4.25266C25.9972 4.51188 25.7479 4.90235 25.3836 5.38141C25.0194 5.86048 24.5239 6.42485 24.3861 7.24516C24.2483 8.06548 24.5929 9.00719 25.4361 9.84391C25.7708 10.1786 26.3089 10.1786 26.6436 9.84391C26.9783 9.50923 26.9783 8.9711 26.6436 8.63641C26.0333 8.02938 25.9972 7.76688 26.0399 7.50766C26.0825 7.24844 26.3582 6.85798 26.7224 6.37891C27.0866 5.89985 27.5558 5.33548 27.6936 4.51516C27.8314 3.69485 27.4869 2.75313 26.6436 1.91641C26.4697 1.72938 26.2171 1.63423 25.9611 1.65391ZM5.87988 11.7602V12.6002C5.87988 20.9378 12.6622 27.7202 20.9999 27.7202C29.3375 27.7202 36.1199 20.9378 36.1199 12.6002V11.7602H5.87988ZM12.8099 27.2477L9.26613 39.2439C9.13488 39.6902 9.39738 40.1627 9.84363 40.2939C9.92238 40.3169 10.0011 40.3202 10.0799 40.3202C10.4441 40.3202 10.7854 40.0839 10.8936 39.7164L12.9411 32.7602H29.0061L29.3999 34.0727C28.4057 34.6567 27.7199 35.7297 27.7199 36.9602C27.7199 38.8075 29.2325 40.3202 31.0799 40.3202C32.9272 40.3202 34.4399 38.8075 34.4399 36.9602C34.4399 35.1128 32.9272 33.6002 31.0799 33.6002C31.0536 33.6002 31.0274 33.6002 31.0011 33.6002L29.1899 27.2477C28.6944 27.5266 28.1661 27.7825 27.6411 28.0089L28.5336 31.0802H13.4399L14.3324 28.0089C13.8074 27.7825 13.3054 27.5266 12.8099 27.2477ZM31.0799 35.2802C32.0183 35.2802 32.7599 36.0217 32.7599 36.9602C32.7599 37.8986 32.0183 38.6402 31.0799 38.6402C30.1414 38.6402 29.3999 37.8986 29.3999 36.9602C29.3999 36.0217 30.1414 35.2802 31.0799 35.2802Z" fill="#FF9B9B"/>
</g>
</svg>
