<svg width="40" height="40" viewBox="0 0 40 40" fill="none" xmlns="http://www.w3.org/2000/svg">
<g id="icons8-car-4 1" clip-path="url(#clip0_1500_21203)">
<path id="Vector" d="M4.69341 8.7998C3.46262 8.7998 2.35758 9.57407 1.93716 10.7311L1.92466 10.7639L0.324658 16.7732C0.117722 17.1683 -0.0111268 17.6093 -0.0144045 18.0826L-0.056592 24.7561C-0.0649652 26.0659 1.0099 27.1502 2.31997 27.1514L4.06216 27.1529C4.19394 28.0725 4.56169 28.9616 5.20122 29.6811C6.0145 30.596 7.26632 31.1998 8.79966 31.1998C11.17 31.1998 13.0631 29.4309 13.445 27.1654L26.5325 27.1826C26.6695 28.088 26.971 28.972 27.6012 29.6811C28.4145 30.596 29.6663 31.1998 31.1997 31.1998C33.5696 31.1998 35.5455 29.4601 35.9278 27.1951L37.6575 27.1967C38.9412 27.1991 39.9997 26.1426 39.9997 24.8592V20.3295C39.9997 18.3695 38.5725 16.6849 36.6387 16.3623L29.6997 15.2061L26.2887 10.3311C25.617 9.37135 24.5176 8.7998 23.3465 8.7998H4.69341ZM4.69341 10.3998H7.89341L7.29341 15.1998H7.19966H2.88716C2.71616 15.1998 2.55035 15.2225 2.38716 15.2514L3.44497 11.2732C3.6388 10.7469 4.13257 10.3998 4.69341 10.3998ZM9.50591 10.3998H16.7997V15.1998H8.90591L9.50591 10.3998ZM18.3997 10.3998H23.3465C23.9979 10.3998 24.6047 10.7151 24.9778 11.2482L27.7434 15.1998H18.3997V10.3998ZM8.79966 23.1998C10.5764 23.1998 11.9997 24.623 11.9997 26.3998C11.9997 28.1766 10.5764 29.5998 8.79966 29.5998C7.66633 29.5998 6.91814 29.2036 6.3981 28.6186C5.87805 28.0335 5.59966 27.222 5.59966 26.3998C5.59966 25.5776 5.87805 24.7661 6.3981 24.1811C6.91814 23.596 7.66633 23.1998 8.79966 23.1998ZM31.1997 23.1998C32.9764 23.1998 34.3997 24.623 34.3997 26.3998C34.3997 28.1766 32.9764 29.5998 31.1997 29.5998C30.0663 29.5998 29.3181 29.2036 28.7981 28.6186C28.278 28.0335 27.9997 27.222 27.9997 26.3998C27.9997 25.5776 28.278 24.7661 28.7981 24.1811C29.3181 23.596 30.0663 23.1998 31.1997 23.1998Z" fill="#FF9B9B"/>
</g>
<defs>
<clipPath id="clip0_1500_21203">
<rect width="40" height="40" fill="white"/>
</clipPath>
</defs>
</svg>
