<svg width="42" height="42" viewBox="0 0 42 42" fill="none" xmlns="http://www.w3.org/2000/svg">
<g id="icons8-gasoline-2 1" clip-path="url(#clip0_1500_21191)">
<path id="Vector" d="M34.44 0C33.1406 0.0984379 31.8216 0.728438 30.765 1.785L28.14 4.43625L29.925 6.195L32.55 3.57C33.1603 2.95969 33.8953 2.58562 34.5712 2.52H42V0H34.44ZM20.4225 3.8325C19.5037 3.8325 18.562 4.17047 17.8762 4.85625L14.7 8.05875C14.257 8.50172 14.0175 9.09562 14.0175 9.7125C14.0175 10.3294 14.257 10.897 14.7 11.34L25.9612 22.6012C26.4042 23.0442 26.9916 23.2837 27.615 23.2837C28.2188 23.2837 28.8028 23.0606 29.3212 22.6012L30.0825 21.84C30.6239 21.2986 30.9717 20.5636 31.08 19.6875V19.5562L30.3187 14.0175C30.4008 12.9511 30.0628 11.9995 29.3212 11.2612L28.9275 10.8675L29.3475 9.58125L29.3737 9.47625C29.5247 8.72812 29.3212 7.98 28.8225 7.48125L26.5387 5.1975C26.1253 4.78734 25.5839 4.5675 25.0425 4.5675C24.8128 4.5675 24.5995 4.60687 24.4387 4.6725L23.1525 5.0925L22.9425 4.85625C22.2567 4.17047 21.3412 3.8325 20.4225 3.8325ZM12.8362 11.6025L3.59625 20.8162C2.86453 21.548 2.84156 22.8047 3.59625 23.7037L11.0775 31.1587C11.9273 32.0086 13.043 32.4975 14.2275 32.4975C15.412 32.4975 16.5539 32.0086 17.4037 31.1587L24.7537 23.7825L13.5187 12.5475C13.2398 12.2686 13.02 11.9372 12.8362 11.6025ZM15.33 17.22C15.727 17.22 16.1306 17.3053 16.5112 17.43C14.0536 20.0714 14.2702 23.2772 14.28 23.415C14.3161 23.8547 14.6869 24.2025 15.12 24.2025C15.143 24.2025 15.1758 24.2058 15.1987 24.2025C15.6614 24.1631 15.9994 23.7464 15.96 23.2837C15.9567 23.2575 15.7664 20.5373 17.9025 18.4012C17.9353 18.3684 17.955 18.3323 17.9812 18.2962L20.3175 20.6587C20.8228 21.1641 20.8228 21.9122 20.3175 22.4175L15.8025 26.9587C14.9625 27.8841 13.5187 27.8775 12.6788 27.0375L9.24 23.5987C8.73469 23.0934 8.73469 22.3453 9.24 21.84L12.8625 18.2175C13.5352 17.5448 14.4178 17.22 15.33 17.22ZM1.86375 24.0712C0.669375 25.8234 0 27.9661 0 30.1612C0 34.4892 2.90391 40.0214 9.2925 41.9475L10.0275 39.5325C4.52156 37.8755 2.52 33.0225 2.52 30.1612C2.52 28.7011 2.90391 27.2869 3.59625 26.0662L2.31 24.78C2.12625 24.5602 1.995 24.3108 1.86375 24.0712Z" fill="#FF9B9B"/>
</g>
<defs>
<clipPath id="clip0_1500_21191">
<rect width="42" height="42" fill="white"/>
</clipPath>
</defs>
</svg>
