<svg width="52" height="52" viewBox="0 0 52 52" fill="none" xmlns="http://www.w3.org/2000/svg">
<g id="icons8-pdf 1" clip-path="url(#clip0_712_14453)">
<path id="Vector" d="M51.6969 43.7233C51.6969 48.127 48.127 51.6969 43.7233 51.6969H8.73921C4.3355 51.6969 0.765625 48.127 0.765625 43.7233V11.1313L11.1313 0.765625H43.7233C48.127 0.765625 51.6969 4.3355 51.6969 8.73921V43.7233Z" fill="#E24C3F"/>
<path id="Vector_2" opacity="0.2" d="M0.765625 16.6833V11.1284H6.29401L0.765625 16.6833Z" fill="#5D5D5D"/>
<path id="Vector_3" d="M0.765625 11.1313H7.67613C9.57644 11.1313 11.1313 9.60295 11.1313 7.70264V0.765625L0.765625 11.1313Z" fill="#FF7063"/>
<path id="Vector_4" d="M9.30176 35.0279V18.3511H17.5562C18.3397 18.3511 19.0357 18.4793 19.6438 18.735C20.2516 18.9911 20.7555 19.347 21.1556 19.8029C21.5553 20.2588 21.8594 20.8028 22.0674 21.4346C22.2751 22.0667 22.3792 22.7662 22.3792 23.5341C22.3792 24.302 22.2792 25.0219 22.0792 25.6936C21.8791 26.3655 21.5832 26.9456 21.1916 27.4334C20.7993 27.9215 20.2996 28.3055 19.6918 28.5852C19.0837 28.8653 18.372 29.0051 17.5561 29.0051H12.0132V35.028L9.30176 35.0279ZM12.0133 20.8466V26.4615H16.6205C17.6762 26.4615 18.4479 26.2257 18.936 25.7537C19.4237 25.282 19.6678 24.5419 19.6678 23.534C19.6678 22.5742 19.4078 21.8866 18.888 21.4703C18.368 21.0546 17.6121 20.8465 16.6205 20.8465H12.0133V20.8466Z" fill="#FF7063"/>
<path id="Vector_5" d="M32.1462 18.777L34.7617 18.0571V32.2625C34.7617 32.5666 34.7773 32.8384 34.8096 33.0784C34.8415 33.3183 34.8816 33.5425 34.9295 33.7502C34.9934 33.9422 35.0653 34.1462 35.1456 34.3621C35.2254 34.5781 35.3292 34.7982 35.4574 35.022H32.698C32.602 34.8623 32.506 34.6463 32.41 34.3742C32.3457 34.0861 32.2979 33.8305 32.266 33.6063C31.7862 34.0861 31.238 34.4904 30.6223 34.8181C30.0063 35.1457 29.3464 35.31 28.6427 35.31C27.8107 35.31 27.079 35.1739 26.4471 34.902C25.815 34.6302 25.2833 34.2542 24.8514 33.7744C24.4196 33.2944 24.0957 32.7226 23.8796 32.0586C23.6637 31.395 23.5557 30.6788 23.5557 29.911V28.7592C23.5557 26.7278 24.0914 25.2 25.1634 24.1761C26.2349 23.1524 27.7947 22.6403 29.8424 22.6403C30.6261 22.6403 31.3939 22.7925 32.1461 23.0962V18.777H32.1462ZM32.1462 25.5198C31.7941 25.3121 31.3903 25.1682 30.9344 25.0878C30.4785 25.008 30.0502 24.9679 29.6506 24.9679C29.0107 24.9679 28.4707 25.056 28.0309 25.2318C27.5908 25.4081 27.2309 25.6559 26.9511 25.9757C26.6709 26.2958 26.4713 26.6798 26.3511 27.1275C26.2312 27.5755 26.1712 28.0634 26.1712 28.5912V29.4791C26.1712 29.9271 26.2031 30.3632 26.2672 30.7869C26.3309 31.2109 26.4551 31.5828 26.6391 31.9026C26.8227 32.2228 27.0748 32.4825 27.3948 32.6824C27.7147 32.8826 28.1305 32.9824 28.6427 32.9824C28.9787 32.9824 29.3104 32.9265 29.6386 32.8143C29.9662 32.7026 30.2824 32.5546 30.5865 32.3705C30.8902 32.1867 31.1743 31.9828 31.4381 31.7585C31.7021 31.5347 31.9381 31.3026 32.1462 31.0627V25.5198Z" fill="#FF7063"/>
<path id="Vector_6" d="M38.0964 21.5844C38.0964 21.1368 38.1564 20.7008 38.2765 20.2767C38.3964 19.8531 38.5842 19.477 38.8402 19.1489C39.0959 18.8213 39.432 18.5573 39.8479 18.3571C40.2638 18.1573 40.7597 18.0571 41.3358 18.0571C41.6076 18.0571 41.9153 18.0852 42.2596 18.1412C42.6035 18.1974 42.9033 18.2652 43.1595 18.3452V20.4087H42.1996C41.7035 20.4087 41.3317 20.5448 41.084 20.8167C40.8358 21.0889 40.712 21.4645 40.712 21.9445V22.9283H43.0397L42.3438 25.0878H40.7121V35.022H38.0966V25.0878H36.585V22.9283H38.0966V21.5844H38.0964Z" fill="#FF7063"/>
<path id="Vector_7" d="M9.30176 34.4225V17.7456H17.5562C18.3397 17.7456 19.0357 17.8738 19.6438 18.1295C20.2516 18.3856 20.7555 18.7415 21.1556 19.1974C21.5553 19.6533 21.8594 20.1973 22.0674 20.8291C22.2751 21.4612 22.3792 22.1608 22.3792 22.9286C22.3792 23.6965 22.2792 24.4164 22.0792 25.0882C21.8791 25.7601 21.5832 26.3401 21.1916 26.8279C20.7993 27.316 20.2996 27.7 19.6918 27.9797C19.0837 28.2599 18.372 28.3996 17.5561 28.3996H12.0132V34.4226L9.30176 34.4225ZM12.0133 20.2411V25.856H16.6205C17.6762 25.856 18.4479 25.6202 18.936 25.1482C19.4237 24.6765 19.6678 23.9364 19.6678 22.9285C19.6678 21.9687 19.4078 21.2811 18.888 20.8649C18.368 20.4491 17.6121 20.241 16.6205 20.241H12.0133V20.2411Z" fill="white"/>
<path id="Vector_8" d="M32.1462 18.1801L34.7617 17.4602V31.6655C34.7617 31.9696 34.7773 32.2414 34.8096 32.4814C34.8415 32.7213 34.8816 32.9456 34.9295 33.1533C34.9934 33.3453 35.0653 33.5493 35.1456 33.7652C35.2254 33.9812 35.3292 34.2012 35.4574 34.4251H32.698C32.602 34.2653 32.506 34.0493 32.41 33.7772C32.3457 33.4892 32.2979 33.2335 32.266 33.0094C31.7862 33.4892 31.238 33.8935 30.6223 34.2212C30.0063 34.5488 29.3464 34.713 28.6427 34.713C27.8107 34.713 27.079 34.577 26.4471 34.3051C25.815 34.0333 25.2833 33.6572 24.8514 33.1774C24.4196 32.6975 24.0957 32.1257 23.8796 31.4617C23.6637 30.7981 23.5557 30.0819 23.5557 29.314V28.1623C23.5557 26.1309 24.0914 24.603 25.1634 23.5791C26.2349 22.5555 27.7947 22.0434 29.8424 22.0434C30.6261 22.0434 31.3939 22.1956 32.1461 22.4993V18.1801H32.1462ZM32.1462 24.9229C31.7941 24.7152 31.3903 24.5712 30.9344 24.4909C30.4785 24.4111 30.0502 24.371 29.6506 24.371C29.0107 24.371 28.4707 24.4591 28.0309 24.6348C27.5908 24.8112 27.2309 25.0589 26.9511 25.3788C26.6709 25.6989 26.4713 26.0828 26.3511 26.5306C26.2312 26.9786 26.1712 27.4665 26.1712 27.9943V28.8822C26.1712 29.3302 26.2031 29.7662 26.2672 30.1899C26.3309 30.6139 26.4551 30.9859 26.6391 31.3056C26.8227 31.6259 27.0748 31.8856 27.3948 32.0855C27.7147 32.2857 28.1305 32.3855 28.6427 32.3855C28.9787 32.3855 29.3104 32.3295 29.6386 32.2174C29.9662 32.1057 30.2824 31.9577 30.5865 31.7736C30.8902 31.5898 31.1743 31.3859 31.4381 31.1616C31.7021 30.9378 31.9381 30.7057 32.1462 30.4658V24.9229Z" fill="white"/>
<path id="Vector_9" d="M38.0964 20.9875C38.0964 20.5399 38.1564 20.1038 38.2765 19.6798C38.3964 19.2562 38.5842 18.8801 38.8402 18.552C39.0959 18.2244 39.432 17.9603 39.8479 17.7602C40.2638 17.5604 40.7597 17.4602 41.3358 17.4602C41.6076 17.4602 41.9153 17.4883 42.2596 17.5442C42.6035 17.6004 42.9033 17.6683 43.1595 17.7483V19.8118H42.1996C41.7035 19.8118 41.3317 19.9479 41.084 20.2198C40.8358 20.492 40.712 20.8676 40.712 21.3475V22.3314H43.0397L42.3438 24.4909H40.7121V34.4251H38.0966V24.4909H36.585V22.3314H38.0966V20.9875H38.0964Z" fill="white"/>
</g>
<defs>
<clipPath id="clip0_712_14453">
<rect width="50.9313" height="50.9313" fill="white" transform="translate(0.765625 0.765625)"/>
</clipPath>
</defs>
</svg>
