<svg width="50" height="50" viewBox="0 0 50 50" fill="none" xmlns="http://www.w3.org/2000/svg">
<g id="icons8-windows-mobile 1">
<path id="Vector" d="M17.3166 16C16.0488 16 15.0115 17.0432 15.0115 18.3182V20.5051C14.9962 20.5901 14.9962 20.6751 15.0115 20.7601V44.4596C14.9962 44.5446 14.9962 44.6297 15.0115 44.7147V47.6818C15.0115 48.9568 16.0488 50 17.3166 50H32.6834C33.9512 50 34.9885 48.9568 34.9885 47.6818V44.7222C35.0038 44.6372 35.0038 44.5522 34.9885 44.4672V20.7677C35.0038 20.6827 35.0038 20.5976 34.9885 20.5126V18.3182C34.9885 17.0432 33.9512 16 32.6834 16H17.3166ZM16.5482 21.4091H33.4518V43.8182H16.5482V21.4091Z" fill="#FF9B9B"/>
</g>
</svg>
