<svg width="41" height="41" viewBox="0 0 41 41" fill="none" xmlns="http://www.w3.org/2000/svg">
<g id="icons8-trees-2 1" clip-path="url(#clip0_1500_21179)">
<path id="Vector" d="M28.8281 0.0253906C28.543 0.0253906 28.2548 0.150313 28.1106 0.409766L21.9606 11.4285C21.8485 11.6271 21.8389 11.877 21.9094 12.0948C21.9798 12.3126 22.1368 12.4855 22.345 12.5816C22.4699 12.6393 25.4648 14.0166 28.905 14.0166C32.3548 14.0166 35.2184 12.6393 35.3369 12.5816C35.5387 12.4823 35.6796 12.2838 35.7469 12.0691C35.8141 11.8545 35.7789 11.6239 35.67 11.4285L29.5456 0.409766C29.4015 0.150313 29.1132 0.0253906 28.8281 0.0253906ZM12.1719 1.56289C9.97133 1.56289 7.91813 2.83773 6.84188 4.81727C4.66055 5.20164 3.02375 7.15875 3.02375 9.48102C3.02375 9.65719 3.03016 9.81734 3.04938 9.99352C2.0532 11.153 1.51188 12.6329 1.51188 14.196C1.51188 14.7277 1.58234 15.2787 1.7425 15.8616C1.58555 16.3485 1.51188 16.845 1.51188 17.3479C1.51188 17.7098 1.55352 18.0878 1.64 18.4498C0.602188 19.3498 0 20.6471 0 22.0629C0 24.0905 1.2268 25.8778 3.02375 26.5473C3.01734 26.6338 3.02375 26.717 3.02375 26.8035C3.02375 29.4237 5.09617 31.5441 7.63625 31.5441C7.84445 31.5441 8.05266 31.5634 8.25125 31.5698C8.97195 31.5954 9.74391 31.6018 10.4294 31.2623C11.0764 32.1335 12.0245 32.441 12.915 32.441C13.4275 32.441 13.9176 32.3385 14.3244 32.2104C14.6543 32.3834 14.981 32.4987 15.2981 32.5691C14.9105 31.8068 14.9105 30.8651 15.4006 30.1091L18.9625 24.651C18.4372 24.3243 18.1393 24.0328 18.0144 23.9079C17.22 23.1167 17.063 21.9059 17.63 20.9354L21.3713 14.5291L21.6531 14.0166C21.6531 14.0166 21.3104 13.8693 21.1663 13.7604C20.7883 13.4625 20.4968 13.0749 20.3463 12.6073C20.1348 11.9602 20.1957 11.2331 20.5256 10.6341L20.7306 10.301C20.1989 9.32406 19.3245 8.56492 18.2706 8.17414C18.277 8.08766 18.2962 7.97875 18.2962 7.89227C18.2962 4.40086 15.5448 1.56289 12.1719 1.56289ZM23.1906 14.6573L19.0394 21.7554C18.8504 22.0789 18.9016 22.4921 19.1675 22.7548C19.2604 22.8477 20.138 23.6837 22.3706 24.3435C24.1932 24.8816 26.3937 25.1635 28.9306 25.1635C36.1569 25.1635 38.2934 22.9534 38.5144 22.7035C38.745 22.4409 38.7962 22.0597 38.6169 21.7554L34.4912 14.6829C33.178 15.1377 31.176 15.6566 28.905 15.6566C26.6148 15.6566 24.5359 15.1089 23.1906 14.6573ZM20.4744 25.3941L16.8356 31.006C16.6114 31.352 16.6723 31.8164 16.9894 32.0823C17.1175 32.1912 20.2021 34.696 29.0075 34.696C37.8353 34.696 40.6797 32.1656 40.795 32.0566C41.0833 31.7844 41.1377 31.3391 40.9231 31.006L37.31 25.4454C35.6412 26.1565 33.0082 26.8035 28.9819 26.8035C26.288 26.8035 23.9338 26.4928 21.9606 25.9066C21.3969 25.7401 20.9036 25.5735 20.4744 25.3941ZM10.3525 33.3635C10.5511 36.8261 9.38516 37.6045 8.55875 38.1554C7.98859 38.5366 7.13016 39.1067 7.43125 40.3591C7.52094 40.7275 7.84766 40.9998 8.22563 40.9998H17.9375C18.3891 40.9998 18.7575 40.6346 18.7575 40.1798C18.7575 39.4206 18.2354 38.9946 17.7581 38.6166C17.015 38.0273 15.8875 37.1176 15.4262 34.2348C15.0034 34.1803 14.5774 34.0842 14.1706 33.9273C13.8087 34.0009 13.3859 34.081 12.915 34.081C11.9573 34.081 11.086 33.8152 10.3525 33.3635ZM32.0825 36.2335C31.1312 36.304 30.1062 36.336 28.9819 36.336C28.2355 36.336 27.5277 36.3168 26.855 36.2848C26.8614 37.5916 26.5987 38.2066 26.3425 38.4885C26.067 38.7928 25.673 38.8473 25.0869 38.8473H24.7794C24.4238 38.8473 23.8441 38.8569 23.4725 39.3085C23.3188 39.4975 23.1426 39.8274 23.2419 40.3335C23.3188 40.7179 23.6711 40.9998 24.0619 40.9998H34.235C34.2414 40.9998 34.2542 40.9998 34.2606 40.9998C34.7155 40.9998 35.0806 40.6346 35.0806 40.1798C35.0806 39.9235 34.9589 39.6897 34.7731 39.5391C34.1613 38.8793 33.4182 38.8729 33.005 38.8729H32.8769C32.611 38.8729 32.5085 38.8633 32.4669 38.8216C32.3708 38.7256 32.0921 38.2483 32.0825 36.2335Z" fill="#FF9B9B"/>
</g>
<defs>
<clipPath id="clip0_1500_21179">
<rect width="41" height="41" fill="white"/>
</clipPath>
</defs>
</svg>
