<svg width="28" height="28" viewBox="0 0 28 28" fill="none" xmlns="http://www.w3.org/2000/svg">
<g id="icons8-waste-2 1">
<path id="Vector" d="M11.7597 0C10.8387 0 10.0797 0.759063 10.0797 1.68V2.24H5.42469C4.73344 2.24 4.12969 2.71469 3.90219 3.36C2.6925 3.39938 1.71687 4.39469 1.67969 5.635C1.69937 5.92813 1.94219 6.16 2.23969 6.16H25.7597C26.0572 6.16 26.3022 5.92813 26.3197 5.635C26.2825 4.39469 25.3069 3.39938 24.0972 3.36C23.8697 2.71469 23.2659 2.24 22.5747 2.24H17.9197V1.68C17.9197 0.759063 17.1606 0 16.2397 0H11.7597ZM11.7597 1.12H16.2397C16.5503 1.12 16.7997 1.36938 16.7997 1.68V2.24H11.1997V1.68C11.1997 1.36938 11.4491 1.12 11.7597 1.12ZM2.95719 7.28L5.72219 26.18C5.87313 27.2366 6.76125 28 7.83969 28H20.1597C21.1966 28 22.0409 27.2847 22.2772 26.18L25.0422 7.28H2.95719ZM6.87719 9.135C7.18344 9.09781 7.46562 9.30125 7.50719 9.6075L9.34469 23.555C9.38406 23.8612 9.17844 24.1456 8.87219 24.185C8.84812 24.1894 8.80875 24.185 8.78469 24.185C8.50906 24.185 8.27938 23.9947 8.24219 23.7125L6.38719 9.765C6.34562 9.45875 6.57094 9.17656 6.87719 9.135ZM11.6197 9.135C11.915 9.11969 12.2016 9.34938 12.2147 9.66L12.8272 23.6075C12.8403 23.9159 12.5931 24.1719 12.2847 24.185C12.2759 24.185 12.2759 24.185 12.2672 24.185C11.9697 24.185 11.7203 23.9597 11.7072 23.66L11.0947 9.7125C11.0816 9.40406 11.3112 9.14813 11.6197 9.135ZM16.3797 9.135C16.6881 9.14813 16.9178 9.40406 16.9047 9.7125L16.2922 23.66C16.2791 23.9597 16.0297 24.185 15.7322 24.185C15.7234 24.185 15.7234 24.185 15.7147 24.185C15.4062 24.1719 15.1591 23.9159 15.1722 23.6075L15.7847 9.66C15.7978 9.35156 16.0756 9.12844 16.3797 9.135ZM21.1222 9.135C21.4284 9.17438 21.6537 9.45875 21.6122 9.765L19.7572 23.7125C19.72 23.9947 19.4903 24.185 19.2147 24.185C19.1906 24.185 19.1534 24.1894 19.1272 24.185C18.8209 24.1456 18.6131 23.8612 18.6547 23.555L20.4922 9.6075C20.5316 9.30125 20.8137 9.09562 21.1222 9.135Z" fill="#FF9B9B"/>
</g>
</svg>
