<svg width="34" height="34" viewBox="0 0 34 34" fill="none" xmlns="http://www.w3.org/2000/svg">
<path d="M12.0428 21.6695H5.87031C4.97715 21.6695 4.25 20.9424 4.25 20.0492V13.1828C4.25 12.2896 4.97715 11.5625 5.87031 11.5625H12.0428V21.6695ZM5.87031 13.1828V20.0492H10.4225V13.1828H5.87031Z" fill="#888888"/>
<path d="M22.7699 13.9141H20.4922V20.0865H22.7699C23.2182 20.0865 23.5801 19.7246 23.5801 19.2764V14.7242C23.5801 14.276 23.2182 13.9141 22.7699 13.9141Z" fill="#FAFAFA"/>
<path d="M22.7676 20.8987H19.6797V13.1059H22.7676C23.6607 13.1059 24.3879 13.8331 24.3879 14.7262V19.2784C24.3879 20.1716 23.6641 20.8987 22.7676 20.8987ZM21.3033 19.2784H22.7709V14.7262H21.3033V19.2784ZM26.6656 16.2303H28.2096C28.6346 16.2303 28.9799 16.5757 28.9799 17.0007C28.9799 17.4257 28.6346 17.771 28.2096 17.771H26.6656C26.2406 17.771 25.8953 17.4257 25.8953 17.0007C25.8953 16.5757 26.2406 16.2303 26.6656 16.2303ZM27.1537 20.1915L28.4885 20.9618C28.857 21.1743 28.9832 21.6458 28.7707 22.0143C28.5582 22.3829 28.0867 22.5091 27.7182 22.2966L26.3834 21.5262C26.0148 21.3137 25.8887 20.8423 26.1012 20.4737C26.3137 20.1051 26.7852 19.979 27.1537 20.1915ZM26.3834 12.4751L27.7182 11.7048C28.0867 11.4923 28.5582 11.6184 28.7707 11.987C28.9832 12.3555 28.857 12.827 28.4885 13.0395L27.1537 13.8098C26.7852 14.0223 26.3137 13.8962 26.1012 13.5276C25.8887 13.1591 26.0148 12.6876 26.3834 12.4751Z" fill="#888888"/>
<path d="M19.6861 26.8397C19.3939 26.8397 19.1051 26.7601 18.8527 26.6106L10.4258 21.5538V11.7954L18.9225 7.27647C19.7094 6.85479 20.6955 7.15693 21.1139 7.94717C21.2367 8.18291 21.3031 8.44522 21.3031 8.70752V25.2161C21.3064 26.1126 20.5793 26.8397 19.6861 26.8397ZM12.0461 20.6341L19.6861 25.2194V8.71084L12.0461 12.7716V20.6341Z" fill="#888888"/>
<path d="M6.60938 21.25H9.69727V25.842C9.69727 26.2902 9.33535 26.6521 8.88711 26.6521H7.41953C6.97129 26.6521 6.60938 26.2902 6.60938 25.842V21.25Z" fill="#FAFAFA"/>
<path d="M8.88086 27.46H7.41328C6.52012 27.46 5.79297 26.7328 5.79297 25.8396V20.4375H10.5012V25.8396C10.5012 26.7328 9.77402 27.46 8.88086 27.46ZM7.41328 22.0578V25.8396H8.88086V22.0578H7.41328Z" fill="#888888"/>
</svg>
