<svg xmlns="http://www.w3.org/2000/svg" width="40" height="40" viewBox="0 0 40 40" fill="none">
  <path d="M38.75 36.25H1.25V38.75H38.75V36.25Z" fill="#FF3A3A"/>
  <path d="M35.6006 11.8889C33.7734 11.3799 31.8309 11.416 30.1312 11.9905L30.0614 12.0139L24.9754 14.4311L10.1332 8.53049C9.48524 8.27017 8.77723 8.19704 8.08977 8.31945C7.40232 8.44185 6.76306 8.75487 6.24481 9.22284L4.25778 11.0039C4.04816 11.1919 3.88355 11.4246 3.77617 11.6848C3.66878 11.9451 3.62138 12.2262 3.63748 12.5072C3.65357 12.7883 3.73276 13.0621 3.86915 13.3084C4.00555 13.5547 4.19565 13.7671 4.42536 13.9299L13.6259 20.45L10.0968 22.2987L7.30184 19.745C6.76746 19.2577 6.10373 18.9351 5.39041 18.8159C4.67709 18.6967 3.94453 18.786 3.28075 19.0731L1.76083 19.7321C1.52327 19.8351 1.3096 19.9861 1.13329 20.1757C0.956977 20.3653 0.821843 20.5894 0.736398 20.8338C0.650953 21.0782 0.61705 21.3376 0.636825 21.5958C0.656599 21.8539 0.729623 22.1052 0.851295 22.3337L6.54044 33.0233L37.5234 17.7519C39.3786 16.8787 39.6047 15.4828 39.1968 14.466C38.7446 13.3389 37.4336 12.3996 35.6006 11.8889ZM36.4522 15.4931L36.4405 15.4985L7.60887 29.7095L3.37637 21.7564L4.27481 21.3667C4.49607 21.271 4.74027 21.2412 4.97805 21.281C5.21583 21.3207 5.43708 21.4283 5.6152 21.5907L9.70395 25.3266L18.4015 20.7705L6.5095 12.3428L7.91348 11.0844C8.08624 10.9284 8.29932 10.8241 8.52846 10.7833C8.75761 10.7425 8.9936 10.7669 9.20958 10.8536L25.0645 17.1568L30.9981 14.3369C32.2056 13.9456 33.6436 13.9334 34.9561 14.3046C36.0368 14.6104 36.6109 15.0546 36.8054 15.2876C36.6955 15.3687 36.5771 15.4377 36.4523 15.4933L36.4522 15.4931Z" fill="#FF3A3A"/>
</svg>