<svg width="292" height="292" viewBox="0 0 292 292" fill="none" xmlns="http://www.w3.org/2000/svg">
<g clip-path="url(#clip0_29361_26085)">
<path d="M66.8934 258.125C77.9914 246.665 91.564 236.568 105.904 227.8C138.536 206.643 110.229 158.8 75.9606 177.353C59.0453 187.667 44.1526 198.574 31.3506 210.649C37.2268 233.178 48.4881 249.573 66.8934 258.125Z" fill="white"/>
<path d="M66.8506 258.427C66.8251 258.422 66.7999 258.415 66.7757 258.403C57.7603 254.214 50.1624 247.96 44.1934 239.815C38.4903 232.032 34.0761 222.249 31.0733 210.736C31.0601 210.685 31.0607 210.632 31.0752 210.582C31.0897 210.531 31.1175 210.486 31.1556 210.45C43.4715 198.834 58.0793 187.93 75.8139 177.117L75.827 177.109C83.8532 172.764 92.1342 171.747 99.7746 174.167C106.576 176.321 112.435 181.071 116.272 187.543C120.11 194.015 121.471 201.439 120.104 208.448C118.569 216.319 113.715 223.1 106.068 228.058C90.3935 237.643 77.2878 247.83 67.1086 258.342C67.0406 258.412 66.9437 258.442 66.8506 258.427ZM31.6823 210.756C34.6654 222.124 39.0328 231.784 44.6644 239.469C50.533 247.478 57.9908 253.639 66.8337 257.785C77.0267 247.291 90.1207 237.125 105.757 227.564C113.261 222.698 118.026 216.048 119.53 208.336C120.87 201.468 119.534 194.189 115.77 187.841C112.006 181.493 106.262 176.835 99.5979 174.724C92.1145 172.353 83.9927 173.355 76.1114 177.62C58.4755 188.374 43.9404 199.214 31.6823 210.756Z" fill="#262626"/>
<path d="M102.926 229.668C102.926 229.668 123.373 218.682 126.885 217.597C129.662 216.74 147.48 215.084 152.152 214.861C162.374 214.375 162.538 200.574 153.225 200.444C147.945 200.37 128.944 200.09 124.746 201.173C119.223 202.598 108.245 207.956 108.245 207.956" fill="white"/>
<path d="M102.899 229.948C102.839 229.938 102.783 229.91 102.74 229.867C102.697 229.824 102.669 229.768 102.659 229.708C102.649 229.648 102.658 229.586 102.685 229.531C102.712 229.476 102.755 229.432 102.809 229.403C103.645 228.954 123.321 218.392 126.82 217.311C129.587 216.456 147.427 214.787 152.159 214.562C157.456 214.31 159.807 210.494 159.749 207.055C159.698 203.951 157.666 200.791 153.242 200.728L153.053 200.726C137.061 200.501 127.568 200.744 124.84 201.448C119.409 202.85 108.504 208.158 108.395 208.212C108.325 208.246 108.245 208.25 108.171 208.225C108.098 208.2 108.038 208.147 108.004 208.077C107.97 208.007 107.965 207.927 107.99 207.854C108.015 207.781 108.069 207.72 108.138 207.686C108.249 207.632 119.206 202.298 124.694 200.882C127.473 200.165 137.017 199.916 153.061 200.141L153.25 200.144C155.407 200.174 157.224 200.922 158.507 202.307C159.654 203.545 160.303 205.228 160.333 207.045C160.367 209.049 159.661 210.961 158.348 212.428C156.864 214.085 154.733 215.024 152.187 215.146C147.473 215.37 129.725 217.025 126.992 217.869C123.547 218.933 103.289 229.808 103.085 229.918C103.028 229.948 102.963 229.959 102.899 229.948Z" fill="#262626"/>
<path d="M107.882 211.102C107.882 211.102 123.831 202.96 126.735 202.887C129.64 202.813 146.879 203.493 151.541 203.872C161.741 204.699 162.192 190.928 152.973 189.606C147.747 188.856 126.911 186.465 122.593 186.85C118.274 187.236 104.944 193.951 104.944 193.951" fill="white"/>
<path d="M107.81 211.379C107.75 211.369 107.694 211.34 107.651 211.296C107.607 211.252 107.579 211.196 107.57 211.135C107.56 211.075 107.57 211.012 107.598 210.958C107.626 210.903 107.671 210.858 107.725 210.83C108.379 210.497 123.767 202.658 126.704 202.583C129.686 202.508 146.862 203.19 151.541 203.569C153.749 203.748 155.644 203.225 157.022 202.057C158.233 201.029 159.005 199.531 159.195 197.837C159.582 194.389 157.544 190.549 152.908 189.884C147.886 189.163 126.956 186.741 122.595 187.13C118.381 187.506 105.184 194.134 105.051 194.201C105.017 194.218 104.979 194.229 104.941 194.232C104.903 194.235 104.864 194.231 104.827 194.219C104.791 194.207 104.757 194.188 104.727 194.162C104.698 194.137 104.674 194.107 104.657 194.072C104.64 194.038 104.629 194 104.626 193.962C104.624 193.923 104.629 193.885 104.641 193.848C104.653 193.811 104.672 193.778 104.698 193.749C104.723 193.72 104.754 193.696 104.789 193.679C105.335 193.403 118.219 186.934 122.543 186.548C126.948 186.155 147.955 188.583 152.991 189.305C155.288 189.636 157.154 190.729 158.391 192.47C159.485 194.011 159.99 195.991 159.776 197.902C159.569 199.744 158.725 201.378 157.4 202.503C155.902 203.773 153.859 204.344 151.494 204.152C146.825 203.773 129.691 203.092 126.719 203.168C124.474 203.225 113.487 208.545 107.991 211.351C107.935 211.38 107.872 211.389 107.81 211.379Z" fill="#262626"/>
<path d="M102.801 197.773C102.801 197.773 118.226 189.181 121.118 189.466C124.009 189.75 141.738 191.024 146.374 191.639C156.518 192.985 157.671 179.256 148.531 177.464C143.35 176.449 123.311 173.19 118.978 173.041C114.645 172.892 99.3683 180.916 99.3683 180.916" fill="white"/>
<path d="M102.751 198.068C102.691 198.058 102.636 198.03 102.593 197.987C102.55 197.945 102.521 197.89 102.511 197.83C102.5 197.77 102.509 197.709 102.535 197.654C102.561 197.599 102.604 197.554 102.657 197.525C103.29 197.172 118.195 188.891 121.144 189.182C122.076 189.273 124.536 189.467 127.65 189.711C134.24 190.229 143.265 190.939 146.41 191.356C148.606 191.648 150.526 191.222 151.961 190.125C153.223 189.161 154.07 187.704 154.346 186.022C154.909 182.598 153.072 178.66 148.473 177.758C142.897 176.666 123.212 173.486 118.966 173.34C114.759 173.195 99.6542 181.102 99.5021 181.182C99.4335 181.218 99.3534 181.225 99.2795 181.202C99.2056 181.179 99.1438 181.128 99.1077 181.059C99.0899 181.025 99.0789 180.988 99.0754 180.95C99.0719 180.911 99.076 180.873 99.0874 180.836C99.0988 180.8 99.1174 180.766 99.1419 180.736C99.1665 180.707 99.1966 180.682 99.2306 180.664C99.2689 180.644 103.107 178.632 107.425 176.664C113.254 174.007 117.144 172.693 118.986 172.756C123.464 172.91 143.716 176.23 148.585 177.185C150.861 177.631 152.67 178.819 153.817 180.621C154.832 182.216 155.235 184.219 154.923 186.117C154.366 189.507 151.495 192.621 146.334 191.935C143.204 191.52 134.188 190.811 127.605 190.294C124.487 190.049 122.025 189.856 121.087 189.763C120.444 189.7 118.278 190.138 111.005 193.78C106.841 195.866 102.98 198.014 102.941 198.035C102.883 198.068 102.816 198.079 102.751 198.068Z" fill="#262626"/>
<path d="M98.6363 184.346C98.6363 184.346 114.319 177.653 117.125 176.896C120.04 176.109 142.242 176.386 146.918 176.456C157.151 176.607 156.692 162.837 147.405 162.127C142.141 161.724 116.391 162.398 111.984 162.839C107.67 163.271 75.9723 177.356 75.9723 177.356" fill="white"/>
<path d="M98.5776 184.647C98.5152 184.637 98.4579 184.606 98.4143 184.561C98.3706 184.515 98.3429 184.456 98.3354 184.394C98.3279 184.331 98.3409 184.267 98.3725 184.213C98.4042 184.158 98.4527 184.115 98.5108 184.09C99.152 183.816 114.245 177.38 117.038 176.626C120.023 175.821 142.447 176.11 146.912 176.176C149.127 176.209 150.983 175.562 152.281 174.305C153.422 173.199 154.093 171.653 154.171 169.951C154.329 166.484 152.045 162.788 147.372 162.43C142.134 162.029 116.444 162.698 112.002 163.142C107.784 163.565 76.3967 177.495 76.0802 177.636C76.0094 177.667 75.9292 177.669 75.857 177.641C75.7849 177.613 75.7268 177.558 75.6954 177.487C75.664 177.416 75.6619 177.336 75.6896 177.264C75.7172 177.191 75.7724 177.133 75.843 177.102C77.1389 176.526 107.633 162.993 111.944 162.561C116.398 162.115 142.162 161.445 147.417 161.847C149.728 162.024 151.665 162.993 153.014 164.649C154.208 166.114 154.842 168.056 154.755 169.978C154.598 173.409 152.109 176.838 146.903 176.761C144.175 176.72 120.162 176.389 117.19 177.191C114.436 177.934 98.8967 184.561 98.74 184.628C98.6888 184.649 98.6324 184.656 98.5776 184.647Z" fill="#262626"/>
<path d="M80.6663 245.524C62.6783 239.253 42.0226 218.325 39.092 203.694C34.01 207.724 29.5369 211.864 24.6823 216.034C27.6128 230.665 48.9021 251.848 66.8899 258.12C71.1127 253.832 75.2519 249.942 80.6663 245.524Z" fill="white"/>
<path d="M66.8319 258.42C66.8157 258.417 66.7995 258.413 66.7837 258.408C58.163 255.402 48.3728 248.85 39.9235 240.431C31.456 231.993 25.7926 223.126 24.3859 216.104C24.3757 216.053 24.3793 216 24.3962 215.951C24.413 215.902 24.4427 215.858 24.482 215.824C26.0416 214.485 27.5844 213.128 29.0764 211.817C32.2081 209.063 35.4465 206.216 38.9005 203.477C38.9397 203.446 38.9862 203.425 39.0355 203.417C39.0849 203.409 39.1355 203.414 39.1825 203.431C39.2294 203.449 39.2712 203.478 39.3037 203.516C39.3363 203.554 39.3585 203.599 39.3684 203.648C40.758 210.587 46.2478 219.298 54.43 227.55C62.6485 235.838 72.2425 242.293 80.7524 245.26C80.8015 245.278 80.8451 245.307 80.8787 245.347C80.9124 245.387 80.9349 245.435 80.9439 245.486C80.9529 245.537 80.9481 245.59 80.9299 245.638C80.9118 245.687 80.881 245.73 80.8407 245.763C75.9554 249.749 71.8424 253.509 67.0877 258.337C67.0205 258.405 66.9246 258.435 66.8319 258.42ZM24.9931 216.156C28.015 230.597 48.9985 251.499 66.802 257.795C71.3871 253.147 75.3869 249.481 80.0705 245.638C71.6032 242.57 62.137 236.152 54.0153 227.962C45.9356 219.813 40.4515 211.197 38.8942 204.229C35.5896 206.869 32.4765 209.606 29.4621 212.256C28.0106 213.532 26.5108 214.85 24.9931 216.156Z" fill="#262626"/>
<path d="M67.1666 218.601C76.6495 214.617 81.8005 198.105 77.2124 186.331C77.2124 186.331 80.5486 165.802 81.8185 153.965C82.8189 144.64 70.9516 143.334 68.6637 151.767C67.8422 154.795 63.4296 172.574 61.0218 178.393C58.9619 183.371 57.5871 189.187 54.6715 191.471" fill="white"/>
<path d="M67.1399 218.894C67.0774 218.884 67.02 218.853 66.9762 218.807C66.9325 218.762 66.9049 218.703 66.8975 218.64C66.8902 218.577 66.9035 218.513 66.9355 218.458C66.9675 218.404 67.0163 218.361 67.0748 218.336C76.3939 214.421 81.4758 198.027 76.9614 186.442C76.9424 186.393 76.9369 186.34 76.9452 186.289C76.9786 186.083 80.2947 165.632 81.5491 153.939C82.0528 149.246 79.2767 147.025 76.7463 146.549C72.7818 145.799 69.8342 148.651 68.9668 151.849C68.827 152.364 68.5771 153.33 68.2608 154.552C66.6562 160.756 63.3174 173.665 61.3129 178.509C60.7808 179.795 60.289 181.153 59.8134 182.466C58.4169 186.321 57.0976 189.963 54.8728 191.706C54.8118 191.754 54.7343 191.775 54.6574 191.766C54.5805 191.757 54.5104 191.717 54.4627 191.656C54.4149 191.595 54.3934 191.518 54.4027 191.441C54.4121 191.364 54.4517 191.294 54.5127 191.246C56.6056 189.606 57.897 186.041 59.2641 182.267C59.7419 180.947 60.2361 179.584 60.7731 178.285C62.7621 173.478 66.0941 160.597 67.6954 154.406C68.0121 153.181 68.2622 152.214 68.403 151.695C68.9742 149.59 70.1604 147.935 71.8335 146.909C73.3457 145.982 75.1316 145.649 76.8546 145.974C78.4892 146.282 79.9122 147.166 80.8612 148.463C81.9242 149.916 82.3631 151.831 82.1304 154.001C80.9136 165.342 77.7621 184.899 77.5349 186.304C79.7166 191.961 79.8018 198.945 77.7665 205.479C75.7165 212.059 71.9021 216.942 67.3013 218.875C67.2481 218.897 67.1925 218.903 67.1399 218.894Z" fill="#262626"/>
</g>
<g clip-path="url(#clip1_29361_26085)">
<path d="M225.371 232.722L92.9762 254.809C89.5163 255.387 86.2437 253.051 85.6663 249.592L54.5797 63.3405C54.0024 59.8817 56.3392 56.6099 59.7989 56.0326L192.193 33.945C195.653 33.3677 198.926 35.7038 199.503 39.1626L230.59 225.414C231.167 228.873 228.83 232.145 225.371 232.722Z" fill="#262626"/>
<path d="M92.1554 255.168C88.8828 255.284 85.9439 252.953 85.3909 249.639L54.3043 63.3876C54.0131 61.6427 54.419 59.8887 55.4473 58.449C56.4755 57.0092 58.0031 56.0559 59.7487 55.7646L192.143 33.677C195.745 33.0753 199.167 35.5173 199.768 39.1196L230.855 225.371C231.146 227.116 230.74 228.87 229.712 230.309C228.683 231.749 227.156 232.702 225.41 232.994L93.0159 255.081C92.7313 255.129 92.4438 255.158 92.1554 255.168ZM193.023 34.1375C192.762 34.1467 192.498 34.173 192.233 34.2172L59.8388 56.3048C58.2376 56.5719 56.8364 57.4463 55.893 58.7671C54.9497 60.0878 54.5775 61.6968 54.8447 63.2975L85.9312 249.549C86.4827 252.853 89.6191 255.093 92.9259 254.541L225.32 232.454C226.922 232.187 228.323 231.312 229.266 229.991C230.209 228.671 230.582 227.062 230.315 225.461L199.228 39.2098C198.72 36.1699 196.024 34.0312 193.023 34.1375Z" fill="#262626"/>
<path d="M62.306 62.7974L191.995 41.1593L222.843 225.968L93.1545 247.606L62.306 62.7974Z" fill="white"/>
<path d="M93.1779 247.87C93.1115 247.872 93.0465 247.85 92.9951 247.808C92.9437 247.766 92.9093 247.707 92.8984 247.641L62.0535 62.8385C62.0416 62.7668 62.0586 62.6934 62.1007 62.6342C62.1429 62.5752 62.2069 62.5353 62.2786 62.5233L191.963 40.8876C192.035 40.8758 192.108 40.8928 192.167 40.9349C192.227 40.9771 192.267 41.041 192.279 41.1126L223.123 225.915C223.129 225.951 223.128 225.987 223.12 226.022C223.112 226.057 223.097 226.09 223.076 226.12C223.055 226.149 223.029 226.174 222.998 226.193C222.968 226.212 222.934 226.224 222.898 226.23L93.2135 247.866C93.2017 247.868 93.1898 247.869 93.1779 247.87ZM62.6388 63.0184L93.3935 247.281L222.538 225.736L191.783 41.4728L62.6388 63.0184Z" fill="#262626"/>
</g>
<g clip-path="url(#clip2_29361_26085)">
<path d="M99.8438 71.4005L160.102 61.4805L161.355 69.0909L101.096 79.011L99.8438 71.4005Z" fill="#262626"/>
<path d="M101.083 79.3018C101.013 79.3017 100.947 79.2771 100.894 79.2323C100.841 79.1876 100.806 79.1255 100.795 79.0573L99.5429 71.4467C99.5304 71.3704 99.5487 71.2922 99.5938 71.2293C99.6388 71.1665 99.707 71.124 99.7833 71.1113L160.042 61.1913C160.118 61.1788 160.196 61.1972 160.259 61.2423C160.322 61.2874 160.365 61.3556 160.377 61.4319L161.629 69.0423C161.642 69.1187 161.624 69.1969 161.579 69.2598C161.533 69.3226 161.465 69.365 161.389 69.3776L101.13 79.2979C101.114 79.3005 101.098 79.3018 101.083 79.3018ZM100.166 71.6399L101.324 78.6746L161.007 68.8493L159.849 61.8147L100.166 71.6399ZM86.3594 88.3123L178.269 73.1817L179.521 80.7922L87.6116 95.9229L86.3594 88.3123Z" fill="#262626"/>
<path d="M87.6158 96.2118C87.5466 96.2117 87.4798 96.1871 87.4272 96.1423C87.3745 96.0975 87.3395 96.0355 87.3283 95.9673L86.0761 88.3567C86.0636 88.2804 86.0819 88.2022 86.127 88.1393C86.172 88.0764 86.2402 88.034 86.3164 88.0213L178.226 72.8906C178.264 72.8844 178.303 72.8857 178.34 72.8944C178.377 72.9031 178.412 72.9191 178.444 72.9414C178.475 72.9638 178.501 72.992 178.521 73.0246C178.542 73.0571 178.555 73.0934 178.561 73.1312L179.814 80.7416C179.826 80.818 179.808 80.8961 179.763 80.959C179.718 81.0219 179.649 81.0643 179.573 81.077L87.6636 96.208C87.6475 96.2106 87.6315 96.2118 87.6158 96.2118ZM86.6992 88.5499L87.8567 95.5846L179.191 80.5487L178.033 73.5142L86.6992 88.5499ZM81.3465 112.252C81.2732 112.252 81.2026 112.224 81.1487 112.175C81.0948 112.125 81.0616 112.057 81.0556 111.984C81.0497 111.911 81.0715 111.838 81.1167 111.78C81.1619 111.722 81.2272 111.684 81.2995 111.672L190.556 93.6856C190.594 93.6794 190.633 93.6807 190.67 93.6894C190.707 93.6981 190.743 93.7141 190.774 93.7365C190.805 93.7588 190.831 93.7871 190.852 93.8196C190.872 93.8522 190.885 93.8884 190.892 93.9262C190.898 93.964 190.897 94.0027 190.888 94.04C190.879 94.0773 190.863 94.1125 190.841 94.1437C190.818 94.1748 190.79 94.2012 190.758 94.2214C190.725 94.2416 190.689 94.2552 190.651 94.2615L81.3942 112.248C81.3781 112.251 81.3622 112.252 81.3465 112.252ZM83.9737 128.22C83.9004 128.22 83.8298 128.192 83.7759 128.142C83.722 128.093 83.6888 128.024 83.6828 127.951C83.6769 127.878 83.6987 127.806 83.7439 127.748C83.7891 127.69 83.8544 127.652 83.9267 127.64L193.184 109.653C193.221 109.647 193.26 109.648 193.297 109.657C193.335 109.666 193.37 109.682 193.401 109.704C193.432 109.727 193.459 109.755 193.479 109.787C193.499 109.82 193.513 109.856 193.519 109.894C193.525 109.932 193.524 109.97 193.515 110.008C193.506 110.045 193.49 110.08 193.468 110.111C193.446 110.143 193.417 110.169 193.385 110.189C193.352 110.209 193.316 110.223 193.278 110.229L84.0214 128.216C84.0053 128.218 83.9894 128.22 83.9737 128.22ZM86.601 144.187C86.5277 144.188 86.4571 144.16 86.4032 144.11C86.3493 144.061 86.3161 143.992 86.3102 143.919C86.3043 143.846 86.3261 143.774 86.3712 143.716C86.4164 143.658 86.4817 143.619 86.5541 143.608L195.811 125.621C195.887 125.609 195.965 125.627 196.028 125.672C196.091 125.717 196.134 125.785 196.146 125.862C196.159 125.938 196.14 126.016 196.095 126.079C196.05 126.142 195.982 126.184 195.906 126.197L86.6487 144.184C86.6327 144.186 86.6168 144.187 86.601 144.187ZM89.2282 160.155C89.1549 160.155 89.0843 160.128 89.0304 160.078C88.9765 160.028 88.9433 159.96 88.9374 159.887C88.9314 159.814 88.9532 159.741 88.9984 159.684C89.0436 159.626 89.1089 159.587 89.1812 159.575L198.438 141.589C198.476 141.583 198.515 141.584 198.552 141.593C198.589 141.601 198.624 141.617 198.656 141.64C198.687 141.662 198.713 141.69 198.733 141.723C198.754 141.755 198.767 141.792 198.773 141.829C198.78 141.867 198.778 141.906 198.77 141.943C198.761 141.981 198.745 142.016 198.722 142.047C198.7 142.078 198.672 142.105 198.639 142.125C198.607 142.145 198.571 142.159 198.533 142.165L89.2759 160.151C89.2599 160.154 89.244 160.155 89.2282 160.155ZM91.8555 176.123C91.7822 176.123 91.7116 176.095 91.6577 176.046C91.6038 175.996 91.5706 175.928 91.5647 175.855C91.5588 175.782 91.5806 175.709 91.6258 175.651C91.671 175.594 91.7362 175.555 91.8086 175.543L201.065 157.557C201.142 157.544 201.22 157.562 201.283 157.607C201.346 157.653 201.388 157.721 201.401 157.797C201.413 157.874 201.395 157.952 201.35 158.015C201.305 158.078 201.237 158.12 201.16 158.132L91.9032 176.119C91.8872 176.122 91.8713 176.123 91.8555 176.123ZM94.4829 192.091C94.4096 192.091 94.339 192.063 94.2851 192.013C94.2312 191.964 94.198 191.895 94.192 191.822C94.1861 191.749 94.2079 191.677 94.2531 191.619C94.2983 191.561 94.3636 191.523 94.4359 191.511L149.064 182.518C149.102 182.511 149.141 182.513 149.178 182.521C149.215 182.53 149.251 182.546 149.282 182.568C149.313 182.591 149.339 182.619 149.36 182.652C149.38 182.684 149.393 182.72 149.4 182.758C149.406 182.796 149.404 182.835 149.396 182.872C149.387 182.909 149.371 182.945 149.349 182.976C149.326 183.007 149.298 183.033 149.266 183.053C149.233 183.074 149.197 183.087 149.159 183.093L94.5306 192.087C94.5145 192.089 94.4986 192.091 94.4829 192.091ZM100.762 230.253C100.689 230.253 100.618 230.225 100.564 230.175C100.51 230.126 100.477 230.058 100.471 229.984C100.465 229.911 100.487 229.839 100.532 229.781C100.577 229.723 100.643 229.685 100.715 229.673L142.012 222.874C142.087 222.864 142.163 222.884 142.224 222.929C142.285 222.974 142.326 223.042 142.338 223.116C142.351 223.191 142.333 223.268 142.29 223.33C142.247 223.393 142.181 223.436 142.107 223.45L100.81 230.249C100.794 230.251 100.778 230.253 100.762 230.253ZM112.559 227.174C111.937 227.174 111.256 227.076 110.513 226.861C107.318 225.937 104.229 222.851 102.235 218.783C101.784 219.077 101.314 219.343 100.829 219.578C100.76 219.612 100.685 219.632 100.608 219.637C100.532 219.642 100.455 219.632 100.382 219.607C100.309 219.582 100.242 219.543 100.184 219.492C100.127 219.441 100.08 219.379 100.046 219.31C100.012 219.241 99.9927 219.166 99.9883 219.089C99.9838 219.012 99.9946 218.935 100.02 218.862C100.045 218.79 100.085 218.723 100.136 218.666C100.188 218.608 100.25 218.562 100.319 218.529C100.813 218.29 101.29 218.018 101.747 217.714C101.436 216.981 101.163 216.231 100.932 215.468C99.4989 210.742 99.9591 206.51 102.195 203.856C103.013 202.885 103.882 202.984 104.328 203.13C105.803 203.613 107.012 205.996 107.203 208.797C107.457 212.512 105.991 215.829 103.199 218.082C105.047 221.923 107.948 224.905 110.837 225.741C114.411 226.775 115.756 224.575 116.223 223.295C114.088 221.435 112.634 218.587 113.241 215.415C113.256 215.334 113.289 215.257 113.336 215.19C113.383 215.122 113.444 215.066 113.515 215.024C113.586 214.981 113.665 214.955 113.747 214.945C113.829 214.936 113.912 214.944 113.99 214.969C117.05 215.94 118.268 219.798 117.56 222.877C118.169 223.322 118.824 223.682 119.488 223.937C122.008 224.906 124.235 224.294 125.445 222.298C125.513 222.185 125.577 222.07 125.637 221.954C123.487 220.162 122.304 217.398 122.509 214.345C122.515 214.253 122.543 214.163 122.591 214.084C122.638 214.005 122.704 213.938 122.782 213.889C122.86 213.84 122.948 213.81 123.04 213.802C123.132 213.794 123.225 213.808 123.31 213.843C125.719 214.818 126.696 216.443 127.092 217.635C127.504 218.878 127.485 220.265 127.065 221.547C127.536 221.863 128.021 222.114 128.494 222.299C130.747 223.183 133.95 223.144 136.183 220.383C136.282 220.267 136.422 220.194 136.574 220.18C136.726 220.165 136.877 220.211 136.995 220.307C137.114 220.403 137.19 220.541 137.208 220.693C137.226 220.844 137.184 220.996 137.09 221.117C134.924 223.795 131.383 224.686 128.068 223.386C127.554 223.185 127.06 222.937 126.591 222.644C126.544 222.732 126.494 222.818 126.443 222.903C124.938 225.384 122.113 226.198 119.069 225.027C118.424 224.779 117.788 224.444 117.184 224.035C116.449 225.743 114.943 227.174 112.559 227.174ZM114.289 216.366C114.118 218.569 115.09 220.553 116.533 221.996C116.813 219.815 116.024 217.357 114.289 216.366ZM123.655 215.299C123.722 217.708 124.757 219.53 126.077 220.763C126.299 219.84 126.274 218.875 125.984 218.002C125.608 216.868 124.81 215.946 123.655 215.299ZM103.763 204.203C103.599 204.203 103.366 204.277 103.087 204.608C101.111 206.954 100.732 210.789 102.049 215.129C102.24 215.76 102.462 216.381 102.713 216.99C105.976 214.234 106.153 210.539 106.039 208.877C105.868 206.376 104.829 204.522 103.965 204.24C103.921 204.225 103.853 204.203 103.763 204.203ZM185.568 188.01C178.04 190.558 174.002 198.727 176.549 206.256C179.096 213.786 187.263 217.825 194.79 215.277C202.318 212.73 206.355 204.561 203.808 197.031C201.262 189.502 193.095 185.463 185.568 188.01ZM194.127 213.318C187.682 215.5 180.688 212.041 178.507 205.594C176.327 199.146 179.784 192.151 186.23 189.969C192.676 187.788 199.669 191.246 201.85 197.694C204.031 204.142 200.573 211.137 194.127 213.318Z" fill="#262626"/>
<path d="M190.176 216.338C187.95 216.338 185.737 215.825 183.683 214.81C180.168 213.071 177.54 210.068 176.283 206.352C173.689 198.682 177.817 190.331 185.485 187.737C193.153 185.142 201.501 189.27 204.095 196.94C206.69 204.61 202.562 212.961 194.894 215.556C193.35 216.078 191.76 216.338 190.176 216.338ZM190.202 187.538C188.681 187.538 187.154 187.788 185.672 188.289C178.309 190.781 174.345 198.8 176.836 206.165C178.043 209.733 180.566 212.617 183.942 214.286C187.317 215.956 191.14 216.21 194.707 215.003C202.07 212.511 206.034 204.492 203.543 197.127C202.336 193.56 199.812 190.675 196.437 189.006C194.465 188.031 192.339 187.538 190.202 187.538ZM190.2 214.264C184.939 214.264 180.019 210.944 178.242 205.69C177.162 202.497 177.39 199.076 178.883 196.055C180.376 193.034 182.956 190.775 186.147 189.695C189.339 188.616 192.759 188.843 195.779 190.337C198.799 191.83 201.057 194.411 202.137 197.603C204.366 204.193 200.82 211.368 194.232 213.597C192.933 214.038 191.571 214.263 190.2 214.264ZM190.2 189.608C188.902 189.608 187.599 189.82 186.334 190.248C183.29 191.278 180.83 193.432 179.406 196.314C177.982 199.195 177.765 202.458 178.794 205.503C180.92 211.787 187.762 215.17 194.045 213.044C200.328 210.918 203.71 204.075 201.584 197.79C200.554 194.746 198.401 192.284 195.521 190.86C193.838 190.028 192.024 189.608 190.2 189.608L190.2 189.608Z" fill="#262626"/>
<path d="M190.156 212.397C188.528 212.397 186.909 212.022 185.407 211.279C182.835 210.007 180.913 207.81 179.994 205.092C179.075 202.374 179.268 199.461 180.54 196.889C181.811 194.317 184.007 192.394 186.725 191.474C189.442 190.555 192.354 190.749 194.926 192.02C197.497 193.292 199.419 195.489 200.338 198.207C201.258 200.925 201.064 203.838 199.793 206.41C198.521 208.982 196.325 210.905 193.608 211.825C192.478 212.207 191.315 212.397 190.156 212.397ZM190.175 191.486C189.08 191.486 187.98 191.666 186.912 192.027C184.342 192.897 182.265 194.715 181.063 197.147C179.861 199.58 179.677 202.335 180.547 204.905C181.416 207.475 183.234 209.553 185.665 210.756C188.097 211.958 190.851 212.141 193.421 211.272C195.99 210.402 198.068 208.584 199.27 206.152C200.472 203.719 200.655 200.964 199.786 198.394C198.917 195.824 197.099 193.746 194.667 192.544C193.246 191.841 191.715 191.486 190.175 191.486V191.486Z" fill="#262626"/>
<path d="M184.694 207.383C185.729 206.851 186.106 205.641 186.124 204.549C186.144 203.378 185.811 202.112 185.124 201.154C184.761 200.648 184.304 200.227 183.712 200.013C183.521 199.944 183.32 200.092 183.263 200.268C182.744 201.886 183.534 203.608 184.794 204.648C185.784 205.465 187.547 206.204 188.584 205.04C189.279 204.26 189.286 203.09 189.166 202.113L188.801 202.477C188.888 202.472 188.976 202.473 189.063 202.48C189.123 202.484 189.009 202.466 189.109 202.488C189.157 202.499 189.204 202.509 189.251 202.522C189.328 202.543 189.402 202.57 189.476 202.597C189.567 202.631 189.432 202.577 189.487 202.601C189.552 202.63 189.617 202.66 189.681 202.692C190.003 202.856 190.305 203.057 190.621 203.232C190.948 203.413 191.294 203.566 191.672 203.593C192.073 203.622 192.445 203.451 192.74 203.189C193.259 202.728 193.547 202.023 193.788 201.39L193.252 201.608C194.746 202.327 196.666 201.782 197.533 200.358C197.777 199.956 197.147 199.589 196.903 199.99C196.253 201.058 194.751 201.522 193.621 200.978C193.394 200.869 193.173 200.965 193.085 201.196C192.893 201.699 192.654 202.253 192.287 202.614C192.255 202.646 192.221 202.676 192.186 202.706C192.143 202.743 192.229 202.676 192.185 202.708C192.168 202.719 192.151 202.731 192.134 202.742C192.102 202.764 192.068 202.782 192.033 202.802C192.017 202.811 192 202.818 191.983 202.826C191.942 202.845 192.047 202.806 191.982 202.825C191.948 202.835 191.915 202.846 191.88 202.854C191.842 202.863 191.768 202.866 191.85 202.862C191.773 202.866 191.698 202.866 191.621 202.859C191.705 202.867 191.626 202.858 191.59 202.85C191.556 202.842 191.521 202.834 191.487 202.824C191.453 202.814 191.418 202.803 191.384 202.791C191.363 202.783 191.263 202.743 191.298 202.758C191.343 202.777 191.251 202.737 191.238 202.73C191.203 202.714 191.168 202.697 191.134 202.679C191.054 202.638 190.975 202.595 190.897 202.55C190.601 202.38 190.314 202.193 190.008 202.042C189.634 201.858 189.225 201.716 188.802 201.748C188.624 201.761 188.411 201.905 188.437 202.113C188.47 202.378 188.492 202.645 188.494 202.913C188.496 203.081 188.489 203.248 188.474 203.415C188.472 203.438 188.469 203.461 188.467 203.484C188.455 203.596 188.479 203.412 188.462 203.521C188.435 203.7 188.395 203.879 188.335 204.051C188.328 204.07 188.273 204.208 188.313 204.115C188.299 204.147 188.285 204.179 188.269 204.21C188.233 204.284 188.192 204.356 188.146 204.424C188.129 204.45 188.11 204.476 188.092 204.501C188.155 204.415 188.086 204.505 188.069 204.524C188.022 204.577 187.971 204.623 187.919 204.67C187.846 204.737 187.968 204.642 187.899 204.686C187.873 204.702 187.847 204.722 187.82 204.738C187.796 204.753 187.771 204.767 187.746 204.78C187.73 204.789 187.618 204.84 187.676 204.815C187.736 204.79 187.638 204.829 187.621 204.835C187.595 204.844 187.568 204.852 187.541 204.86C187.472 204.879 187.402 204.891 187.332 204.904C187.408 204.89 187.371 204.9 187.32 204.903C187.284 204.905 187.247 204.908 187.21 204.909C187.142 204.91 187.075 204.908 187.007 204.904C186.972 204.901 186.938 204.897 186.904 204.894C186.941 204.897 186.939 204.901 186.873 204.888C186.798 204.874 186.723 204.859 186.649 204.84C186.54 204.811 186.432 204.777 186.327 204.737C186.301 204.727 186.179 204.676 186.271 204.716C185.961 204.582 185.673 204.408 185.403 204.207C185.39 204.197 185.349 204.165 185.41 204.212C185.395 204.201 185.38 204.189 185.365 204.177C185.332 204.15 185.298 204.123 185.266 204.095C185.059 203.92 184.867 203.728 184.692 203.521C184.663 203.487 184.636 203.453 184.608 203.418C184.598 203.406 184.566 203.364 184.611 203.423C184.54 203.329 184.472 203.233 184.407 203.134C184.311 202.986 184.224 202.833 184.146 202.674C184.125 202.63 184.105 202.585 184.084 202.541C184.045 202.454 184.103 202.588 184.081 202.533C184.031 202.411 183.987 202.286 183.95 202.16C183.909 202.019 183.876 201.876 183.853 201.731C183.853 201.728 183.84 201.633 183.847 201.692C183.854 201.747 183.844 201.664 183.843 201.653C183.823 201.445 183.822 201.237 183.841 201.029C183.842 201.009 183.845 200.989 183.847 200.969C183.858 200.868 183.834 201.046 183.85 200.946C183.859 200.895 183.867 200.845 183.878 200.795C183.901 200.682 183.932 200.571 183.967 200.462L183.518 200.717C183.548 200.727 183.577 200.738 183.605 200.75C183.592 200.744 183.542 200.72 183.604 200.751C183.652 200.774 183.698 200.797 183.744 200.823C183.791 200.85 183.836 200.878 183.88 200.907C183.903 200.923 183.924 200.938 183.947 200.954C184.018 201.003 183.938 200.944 183.99 200.987C184.117 201.091 184.234 201.206 184.342 201.331C184.361 201.353 184.38 201.375 184.399 201.398C184.399 201.398 184.469 201.485 184.43 201.435C184.751 201.851 184.963 202.302 185.116 202.768C185.435 203.741 185.536 204.804 185.182 205.755C185.174 205.777 185.166 205.799 185.158 205.82C185.133 205.881 185.17 205.799 185.133 205.875C185.106 205.931 185.079 205.987 185.049 206.041C185.017 206.1 184.982 206.157 184.945 206.212C184.933 206.23 184.92 206.248 184.908 206.266C184.895 206.284 184.882 206.302 184.869 206.319C184.892 206.288 184.891 206.289 184.864 206.322C184.787 206.413 184.702 206.498 184.611 206.575C184.533 206.643 184.646 206.552 184.595 206.589C184.564 206.611 184.533 206.633 184.5 206.654C184.444 206.69 184.386 206.722 184.327 206.753C183.909 206.968 184.278 207.597 184.695 207.383L184.694 207.383Z" fill="#262626"/>
</g>
<g clip-path="url(#clip3_29361_26085)">
<path d="M266.526 207.936C250.676 196.416 232.143 187.621 211.065 181.148C174.428 171.707 158.82 223.421 194.645 235.75C211.128 240.618 225.815 249.102 237.796 260.206C256.273 247.852 267.069 231.123 266.526 207.936L266.526 207.936Z" fill="white"/>
<path d="M237.812 260.503C237.771 260.508 237.728 260.504 237.689 260.49C237.649 260.477 237.612 260.456 237.582 260.427C225.481 249.212 210.6 240.778 194.547 236.037C186.141 233.144 179.962 227.885 176.666 220.823C173.732 214.537 173.277 207.218 175.384 200.215C177.493 193.212 181.914 187.355 187.834 183.724C194.482 179.646 202.535 178.66 211.122 180.873C221.75 184.137 231.754 188.012 240.867 192.394C250.173 196.87 258.859 202.022 266.682 207.708C266.756 207.761 266.8 207.846 266.802 207.937C267.066 219.193 264.619 229.404 259.531 238.286C254.765 246.605 247.502 254.065 237.942 260.456C237.904 260.482 237.859 260.498 237.812 260.503ZM199.173 180.471C187.004 181.816 178.849 190.729 175.943 200.383C172.182 212.88 176.455 229.194 194.725 235.482C202.864 237.885 210.712 241.221 218.038 245.393C225.168 249.455 231.819 254.315 237.809 259.843C257.39 246.682 266.686 229.752 266.222 208.095C250.846 196.942 232.256 187.973 210.963 181.434C206.705 180.337 202.764 180.075 199.173 180.471Z" fill="#262626"/>
<path d="M182.508 215.717C182.508 215.717 167.455 210.278 163.275 212.866C161.667 213.861 159.239 228.818 161.846 231.522C166.139 235.975 180.014 237.562 182.208 237.829C185.537 238.233 189.416 236.271 189.86 232.63C190.347 228.633 187.379 225.797 184.813 225.074C182.247 224.35 172.931 222.116 172.931 222.116" fill="white"/>
<path d="M183.983 238.133C183.386 238.199 182.785 238.198 182.196 238.126L182.038 238.107C176.023 237.381 165.376 235.588 161.658 231.733C159.828 229.834 160.519 223.043 160.775 221.007C161.228 217.396 162.163 213.233 163.143 212.626C167.395 209.993 182.01 215.227 182.63 215.451C182.701 215.478 182.759 215.532 182.791 215.602C182.823 215.671 182.827 215.751 182.801 215.823C182.775 215.895 182.721 215.954 182.652 215.987C182.583 216.02 182.504 216.024 182.431 215.999C182.282 215.945 167.464 210.637 163.451 213.121C162.876 213.477 161.896 216.76 161.354 221.079C160.704 226.263 160.981 230.19 162.079 231.328C164.741 234.089 171.854 236.291 182.108 237.528L182.266 237.547C183.884 237.744 185.604 237.364 186.985 236.506C188.472 235.582 189.399 234.196 189.593 232.603C190.07 228.684 187.052 226.009 184.756 225.362C182.225 224.649 172.979 222.43 172.886 222.408C172.812 222.389 172.748 222.341 172.709 222.276C172.669 222.21 172.657 222.132 172.675 222.057C172.693 221.983 172.739 221.918 172.804 221.878C172.869 221.837 172.948 221.824 173.022 221.841C173.115 221.863 182.372 224.084 184.915 224.801C186.355 225.207 187.748 226.174 188.735 227.454C189.552 228.513 190.464 230.278 190.172 232.673C189.956 234.445 188.934 235.983 187.293 237.002C186.304 237.616 185.154 238.003 183.983 238.133Z" fill="#262626"/>
<path d="M183.783 202.725C183.783 202.725 168.73 197.285 164.549 199.874C162.942 200.869 160.892 217.4 163.499 220.104C167.792 224.557 181.667 226.144 183.862 226.411C187.191 226.815 190.478 224.058 190.922 220.417C191.409 216.42 188.51 214.469 185.943 213.745C183.377 213.022 174.537 210.903 174.537 210.903" fill="white"/>
<path d="M185.133 226.72C184.693 226.769 184.252 226.768 183.817 226.715L183.66 226.696C177.644 225.97 166.997 224.177 163.28 220.321C161.605 218.585 161.756 212.03 162.394 206.944C162.532 205.845 163.276 200.328 164.386 199.641C168.638 197.008 183.253 202.242 183.873 202.466C183.944 202.493 184.002 202.547 184.034 202.617C184.066 202.686 184.07 202.766 184.043 202.838C184.017 202.91 183.964 202.969 183.895 203.002C183.826 203.035 183.746 203.039 183.674 203.014C183.525 202.96 168.707 197.652 164.694 200.136C164.243 200.415 163.488 202.921 162.974 207.016C162.324 212.193 162.274 218.438 163.7 219.916C166.362 222.678 173.476 224.88 183.73 226.117L183.888 226.136C185.398 226.319 186.997 225.804 188.276 224.723C189.566 223.632 190.421 222.056 190.623 220.397C191.156 216.023 187.466 214.495 185.855 214.041C183.324 213.327 174.548 211.222 174.46 211.201C174.385 211.182 174.322 211.134 174.282 211.069C174.243 211.003 174.23 210.925 174.248 210.85C174.266 210.776 174.313 210.711 174.378 210.671C174.443 210.63 174.521 210.617 174.596 210.634C174.684 210.655 183.471 212.763 186.013 213.479C187.099 213.786 188.635 214.415 189.784 215.672C190.957 216.955 191.434 218.569 191.202 220.467C190.983 222.271 190.053 223.984 188.653 225.168C187.616 226.045 186.381 226.582 185.133 226.72Z" fill="#262626"/>
<path d="M189.104 189.533C189.104 189.533 172.628 183.748 168.447 186.337C166.84 187.332 162.832 205.368 165.439 208.072C169.732 212.524 186.063 214.737 188.258 215.004C191.587 215.408 194.978 213.676 195.421 210.036C195.909 206.039 192.941 203.203 190.374 202.48C187.808 201.756 178.961 199.635 178.961 199.635" fill="white"/>
<path d="M190.088 215.309C189.481 215.376 188.854 215.373 188.222 215.296C187.472 215.205 169.79 213.008 165.229 208.277C163.978 206.98 164.201 202.833 164.609 199.582C165.296 194.111 167.13 186.811 168.293 186.091C172.544 183.46 188.522 189.023 189.2 189.261C189.273 189.286 189.333 189.34 189.366 189.41C189.4 189.479 189.404 189.559 189.379 189.632C189.353 189.705 189.299 189.765 189.23 189.799C189.16 189.832 189.08 189.837 189.007 189.811C188.843 189.754 172.615 184.102 168.601 186.587C167.859 187.046 165.997 193.213 165.189 199.655C164.642 204.007 164.81 207.002 165.649 207.872C170.069 212.456 187.551 214.627 188.293 214.717C189.926 214.915 191.514 214.587 192.765 213.793C194.116 212.936 194.934 211.626 195.132 210.004C195.609 206.085 192.591 203.41 190.295 202.763C187.764 202.05 178.982 199.943 178.893 199.922C178.819 199.903 178.755 199.855 178.716 199.79C178.676 199.724 178.664 199.646 178.682 199.571C178.7 199.497 178.746 199.433 178.811 199.392C178.876 199.351 178.955 199.338 179.029 199.355C179.118 199.376 187.911 201.485 190.453 202.202C191.894 202.608 193.287 203.575 194.274 204.855C195.09 205.914 196.003 207.679 195.711 210.074C195.491 211.875 194.581 213.332 193.078 214.286C192.202 214.842 191.177 215.189 190.088 215.309L190.088 215.309Z" fill="#262626"/>
<path d="M215.583 182.599C202.463 178.119 177.283 174.504 172.803 175.356C168.773 176.122 152.485 186.675 151.342 187.387C141.861 193.298 149.992 204.859 159.185 199.988C165.127 196.839 176.713 190.381 176.713 190.381L190.369 192.351" fill="white"/>
<path d="M155.702 201.398C154.593 201.521 153.494 201.43 152.435 201.122C150.472 200.551 148.774 199.231 147.775 197.499C146.038 194.485 146.42 190.113 151.189 187.141C151.287 187.079 151.498 186.945 151.804 186.75C163.062 179.574 170.305 175.535 172.749 175.07C177.35 174.194 202.627 177.867 215.678 182.324C215.714 182.336 215.748 182.356 215.776 182.381C215.805 182.406 215.829 182.437 215.846 182.471C215.862 182.506 215.872 182.543 215.875 182.581C215.877 182.619 215.872 182.658 215.86 182.694C215.847 182.73 215.828 182.764 215.803 182.792C215.777 182.821 215.746 182.845 215.712 182.862C215.678 182.878 215.64 182.888 215.602 182.891C215.564 182.893 215.525 182.888 215.489 182.876C209.607 180.867 200.648 178.823 190.908 177.266C182.266 175.885 175.012 175.232 172.858 175.643C171.204 175.957 166.263 178.225 152.118 187.242C151.81 187.438 151.597 187.574 151.498 187.635C146.755 190.592 146.801 194.639 148.281 197.208C150.087 200.34 154.365 202.213 159.049 199.731C164.921 196.62 176.456 190.192 176.572 190.127C176.628 190.096 176.693 190.084 176.756 190.093L190.412 192.063C190.489 192.074 190.558 192.115 190.604 192.177C190.651 192.239 190.67 192.317 190.659 192.394C190.648 192.47 190.607 192.539 190.545 192.586C190.483 192.632 190.405 192.652 190.329 192.641L176.77 190.685C175.695 191.284 164.931 197.275 159.323 200.246C158.127 200.88 156.909 201.265 155.702 201.399L155.702 201.398Z" fill="#262626"/>
<path d="M209.21 227.509C197.525 225.384 191.04 211.154 191.04 211.154C191.04 211.154 171.761 211.113 167.829 210.932C163.362 210.726 157.086 210.358 156.627 204.466C156.076 197.399 162.292 196.684 165.699 196.532C168.469 196.409 194.086 194.083 202.963 195.373C210.03 196.4 219.863 200.21 219.863 200.21" fill="white"/>
<path d="M209.213 227.789C209.186 227.792 209.157 227.791 209.128 227.786C203.004 226.672 198.329 222.234 195.486 218.707C192.796 215.37 191.192 212.193 190.825 211.435C188.836 211.43 171.474 211.383 167.786 211.213C165.714 211.118 162.876 210.988 160.589 210.093C157.957 209.064 156.516 207.175 156.306 204.479C156.126 202.175 156.641 200.323 157.836 198.974C159.815 196.739 163.247 196.338 165.657 196.231C166.129 196.21 167.294 196.123 168.906 196.002C176.892 195.403 195.594 194.002 202.975 195.074C209.994 196.094 219.84 199.89 219.938 199.929C219.974 199.942 220.007 199.963 220.034 199.99C220.062 200.016 220.084 200.048 220.1 200.083C220.115 200.118 220.124 200.156 220.124 200.194C220.125 200.232 220.119 200.27 220.105 200.306C220.091 200.342 220.07 200.374 220.044 200.402C220.017 200.43 219.985 200.452 219.95 200.467C219.915 200.483 219.877 200.491 219.839 200.492C219.801 200.493 219.763 200.486 219.727 200.472C219.629 200.434 209.844 196.662 202.891 195.652C195.573 194.588 176.916 195.987 168.95 196.584C167.332 196.705 166.163 196.793 165.682 196.814C163.379 196.916 160.104 197.292 158.273 199.36C157.187 200.587 156.721 202.294 156.888 204.433C157.333 210.149 163.639 210.439 167.812 210.631C171.693 210.809 190.818 210.852 191.01 210.852C191.066 210.852 191.121 210.868 191.168 210.899C191.215 210.929 191.252 210.972 191.275 211.023C191.291 211.058 192.923 214.601 195.949 218.353C198.729 221.798 203.289 226.131 209.233 227.212C209.302 227.225 209.364 227.262 209.408 227.316C209.452 227.371 209.475 227.439 209.472 227.509C209.47 227.579 209.442 227.646 209.394 227.698C209.347 227.749 209.282 227.781 209.212 227.789L209.213 227.789Z" fill="#262626"/>
<path d="M272.101 212.188C281.489 227.909 269.73 256.474 243.831 266.346C239.992 262.062 235.698 258.08 230.964 254.388C253.113 246.111 265.838 220.586 258.435 202.438C263.048 205.371 267.61 208.588 272.101 212.188Z" fill="white"/>
<path d="M243.818 266.637C243.772 266.642 243.726 266.636 243.682 266.619C243.639 266.602 243.6 266.576 243.569 266.541C239.784 262.317 235.467 258.306 230.74 254.618C230.699 254.586 230.667 254.544 230.648 254.496C230.629 254.447 230.623 254.395 230.631 254.344C230.638 254.292 230.66 254.244 230.693 254.204C230.725 254.164 230.768 254.133 230.817 254.115C242.096 249.9 251.793 240.624 256.759 229.302C260.859 219.95 261.343 210.449 258.12 202.548C258.096 202.491 258.092 202.427 258.107 202.367C258.122 202.307 258.155 202.253 258.203 202.214C258.25 202.174 258.309 202.151 258.371 202.147C258.433 202.143 258.494 202.158 258.547 202.192C263.443 205.305 267.922 208.501 272.239 211.961C272.266 211.982 272.289 212.009 272.307 212.039C276.205 218.565 276.605 227.588 273.406 236.793C271.232 243.051 267.527 249.04 262.693 254.115C257.472 259.597 250.97 263.92 243.891 266.619C243.868 266.628 243.843 266.634 243.819 266.636L243.818 266.637ZM231.505 254.477C236.046 258.054 240.203 261.929 243.87 266.002C257.445 260.765 268.272 249.787 272.855 236.602C275.989 227.582 275.616 218.758 271.832 212.383C267.767 209.127 263.556 206.105 258.986 203.165C260.409 207.006 260.997 211.207 260.736 215.669C260.466 220.276 259.308 224.941 257.293 229.536C254.884 235.03 251.302 240.192 246.936 244.464C242.401 248.901 237.213 252.268 231.505 254.477Z" fill="#262626"/>
</g>
<g clip-path="url(#clip4_29361_26085)">
<path d="M216.992 148.734L219.016 147.078C221.451 145.086 224.721 145.053 226.321 147.006C227.921 148.958 227.244 152.155 224.809 154.148L222.785 155.804L216.992 148.734Z" fill="#FF4F4F"/>
<path d="M222.757 156.101C222.672 156.101 222.589 156.065 222.531 155.995L216.738 148.925C216.689 148.865 216.666 148.789 216.673 148.712C216.681 148.635 216.719 148.564 216.779 148.515L218.802 146.859C221.358 144.768 224.819 144.753 226.518 146.827C228.217 148.9 227.521 152.288 224.965 154.38L222.941 156.035C222.887 156.08 222.822 156.102 222.757 156.102L222.757 156.101ZM217.374 148.782L222.798 155.4L224.596 153.928C226.902 152.041 227.562 149.021 226.067 147.196C224.571 145.372 221.479 145.423 219.172 147.31L217.374 148.782Z" fill="#FF4F4F"/>
<path d="M141.445 210.532L216.955 148.742L222.748 155.811L147.239 217.601L141.445 210.532Z" fill="#FF4F4F"/>
<path d="M147.257 217.887C147.213 217.887 147.171 217.877 147.132 217.859C147.093 217.84 147.058 217.814 147.031 217.78L141.238 210.711C141.189 210.651 141.166 210.574 141.173 210.497C141.181 210.421 141.219 210.35 141.279 210.301L216.789 148.511C216.849 148.462 216.925 148.439 217.002 148.447C217.079 148.454 217.15 148.492 217.199 148.552L222.992 155.621C223.041 155.681 223.064 155.758 223.057 155.835C223.049 155.912 223.011 155.982 222.951 156.031L147.441 217.821C147.389 217.864 147.324 217.887 147.257 217.887ZM141.874 210.567L147.297 217.185L222.356 155.765L216.933 149.147L141.874 210.567L141.874 210.567Z" fill="#FF4F4F"/>
<path d="M136.352 220.61L137.784 218.355L138.846 219.651L136.352 220.61Z" fill="#262626"/>
<path d="M136.362 220.901C136.31 220.901 136.259 220.887 136.214 220.86C136.169 220.833 136.132 220.795 136.106 220.749C136.081 220.704 136.069 220.652 136.07 220.6C136.072 220.548 136.088 220.497 136.116 220.453L137.549 218.198C137.573 218.159 137.607 218.126 137.647 218.103C137.686 218.079 137.731 218.066 137.777 218.063C137.823 218.06 137.869 218.068 137.912 218.087C137.954 218.105 137.991 218.134 138.021 218.169L139.083 219.465C139.112 219.501 139.132 219.543 139.142 219.588C139.152 219.633 139.151 219.68 139.139 219.725C139.127 219.769 139.105 219.81 139.074 219.845C139.043 219.879 139.005 219.906 138.962 219.922L136.467 220.881C136.433 220.894 136.397 220.901 136.362 220.901ZM137.825 218.851L137.082 220.02L138.375 219.523L137.825 218.851Z" fill="#262626"/>
<path d="M141.496 210.531L137.25 218.564L138.571 220.177L147.29 217.6L141.496 210.531Z" fill="white"/>
<path d="M138.559 220.463C138.515 220.463 138.473 220.453 138.434 220.435C138.395 220.416 138.36 220.389 138.333 220.356L137.011 218.743C136.975 218.699 136.953 218.645 136.947 218.588C136.941 218.531 136.952 218.473 136.979 218.423L141.226 210.39C141.248 210.347 141.281 210.311 141.321 210.284C141.361 210.257 141.407 210.241 141.454 210.236C141.502 210.231 141.551 210.238 141.595 210.257C141.64 210.275 141.679 210.304 141.709 210.341L147.502 217.411C147.533 217.448 147.554 217.492 147.563 217.539C147.572 217.586 147.57 217.635 147.556 217.681C147.541 217.727 147.516 217.769 147.482 217.803C147.448 217.836 147.406 217.861 147.359 217.875L138.641 220.451C138.614 220.459 138.587 220.463 138.559 220.463ZM137.586 218.524L138.662 219.837L146.773 217.44L141.536 211.05L137.586 218.524Z" fill="#262626"/>
<path d="M175.787 182.453L181.581 189.522L177.348 192.986L171.555 185.917L175.787 182.453Z" fill="white"/>
<path d="M177.343 193.288C177.3 193.288 177.257 193.278 177.218 193.26C177.179 193.241 177.144 193.214 177.117 193.181L171.324 186.112C171.275 186.052 171.252 185.975 171.259 185.898C171.267 185.821 171.305 185.751 171.365 185.702L175.597 182.238C175.657 182.189 175.734 182.166 175.811 182.173C175.888 182.181 175.959 182.219 176.008 182.279L181.801 189.348C181.85 189.408 181.873 189.484 181.866 189.561C181.858 189.638 181.82 189.709 181.76 189.758L177.528 193.222C177.475 193.264 177.41 193.288 177.343 193.288ZM171.96 185.968L177.384 192.586L181.165 189.492L175.742 182.874L171.96 185.968Z" fill="#262626"/>
<path d="M218.788 147.258L224.582 154.327L219.817 158.226L214.023 151.157L218.788 147.258Z" fill="white"/>
<path d="M219.819 158.508C219.735 158.508 219.651 158.472 219.593 158.402L213.8 151.332C213.751 151.272 213.728 151.196 213.736 151.119C213.743 151.042 213.781 150.971 213.841 150.922L218.606 147.023C218.666 146.974 218.743 146.951 218.82 146.958C218.897 146.966 218.967 147.004 219.016 147.064L224.81 154.133C224.859 154.193 224.882 154.27 224.874 154.347C224.866 154.424 224.829 154.494 224.769 154.543L220.004 158.442C219.95 158.487 219.884 158.508 219.819 158.508ZM214.437 151.189L219.86 157.807L224.174 154.277L218.75 147.659L214.437 151.189Z" fill="#262626"/>
<path d="M224.398 154.481L219.828 158.22L219.161 162.524L189.488 186.805C189.377 186.895 189.285 187.005 189.217 187.131C189.149 187.257 189.106 187.395 189.092 187.537C189.077 187.679 189.091 187.823 189.132 187.96C189.173 188.096 189.241 188.224 189.332 188.334C189.422 188.445 189.534 188.537 189.66 188.604C189.786 188.671 189.924 188.713 190.067 188.727C190.209 188.74 190.353 188.726 190.489 188.684C190.626 188.642 190.753 188.573 190.863 188.482L223.686 161.623C225.857 159.847 226.175 156.65 224.398 154.481Z" fill="white"/>
<path d="M190.176 189.033C190.129 189.033 190.083 189.031 190.037 189.026C189.857 189.009 189.682 188.956 189.522 188.871C189.363 188.785 189.222 188.669 189.108 188.529C188.627 187.942 188.713 187.074 189.301 186.593L218.887 162.383L219.537 158.19C219.548 158.119 219.585 158.054 219.64 158.009L224.21 154.269C224.27 154.22 224.347 154.197 224.424 154.205C224.501 154.212 224.572 154.25 224.621 154.31C226.497 156.6 226.16 159.988 223.868 161.863L191.045 188.722C190.8 188.923 190.493 189.033 190.175 189.033L190.176 189.033ZM220.096 158.389L219.446 162.582C219.435 162.653 219.398 162.718 219.343 162.763L189.67 187.044C189.508 187.177 189.405 187.37 189.384 187.579C189.363 187.788 189.426 187.997 189.559 188.16C189.625 188.24 189.706 188.307 189.798 188.356C189.89 188.406 189.991 188.436 190.094 188.446C190.198 188.457 190.303 188.447 190.402 188.417C190.502 188.386 190.595 188.337 190.675 188.271L223.499 161.412C225.465 159.802 225.817 156.943 224.347 154.91L220.096 158.389Z" fill="#262626"/>
</g>
<g clip-path="url(#clip5_29361_26085)">
<path d="M209.354 227.566C197.688 225.439 191.211 211.209 191.211 211.209C191.211 211.209 171.964 211.165 168.038 210.983C163.578 210.777 157.313 210.408 156.853 204.516C156.302 197.45 162.508 196.736 165.91 196.585C168.674 196.463 194.248 194.141 203.111 195.432C210.167 196.46 219.984 200.272 219.984 200.272" fill="white"/>
<path d="M209.387 227.854C209.36 227.857 209.331 227.856 209.303 227.851C203.188 226.736 198.521 222.298 195.682 218.771C192.995 215.434 191.393 212.257 191.027 211.498C189.041 211.493 171.707 211.443 168.025 211.272C165.957 211.177 163.124 211.046 160.84 210.151C158.213 209.122 156.774 207.233 156.564 204.536C156.384 202.234 156.898 200.382 158.09 199.033C160.065 196.799 163.492 196.398 165.898 196.292C166.369 196.271 167.532 196.184 169.141 196.063C177.114 195.466 195.785 194.068 203.154 195.142C210.162 196.163 219.992 199.96 220.09 199.998C220.126 200.012 220.159 200.033 220.186 200.059C220.214 200.086 220.236 200.117 220.252 200.152C220.267 200.187 220.275 200.225 220.276 200.264C220.277 200.302 220.27 200.34 220.257 200.376C220.243 200.411 220.222 200.444 220.196 200.472C220.169 200.499 220.138 200.521 220.103 200.537C220.068 200.552 220.03 200.561 219.992 200.562C219.953 200.562 219.915 200.556 219.88 200.542C219.782 200.504 210.012 196.73 203.07 195.719C195.764 194.654 177.138 196.049 169.185 196.645C167.57 196.766 166.404 196.853 165.924 196.874C163.624 196.976 160.355 197.351 158.527 199.419C157.443 200.645 156.978 202.352 157.145 204.491C157.591 210.206 163.886 210.497 168.052 210.69C171.927 210.869 191.02 210.915 191.212 210.916C191.268 210.916 191.323 210.932 191.369 210.962C191.416 210.992 191.454 211.035 191.477 211.086C191.493 211.122 193.122 214.664 196.144 218.416C198.92 221.862 203.474 226.196 209.407 227.277C209.476 227.29 209.538 227.327 209.582 227.381C209.626 227.436 209.649 227.504 209.646 227.574C209.644 227.644 209.616 227.711 209.569 227.763C209.521 227.814 209.457 227.846 209.387 227.854L209.387 227.854Z" fill="#262626"/>
</g>
<g clip-path="url(#clip6_29361_26085)">
<path d="M67.3779 218.576C76.8344 214.548 81.9073 197.999 77.271 186.233C77.271 186.233 80.5128 165.672 81.7288 153.819C82.6869 144.481 70.8246 143.225 68.5762 151.675C67.769 154.709 63.4394 172.523 61.0598 178.358C59.024 183.35 57.6763 189.177 54.7734 191.476" fill="white"/>
<path d="M67.3703 218.859C67.303 218.859 67.2377 218.836 67.1855 218.793C67.1333 218.751 67.0975 218.691 67.084 218.625C67.0705 218.559 67.0803 218.49 67.1116 218.43C67.143 218.371 67.1939 218.324 67.2559 218.297C76.5491 214.338 81.5534 197.907 76.9917 186.331C76.9725 186.282 76.9667 186.229 76.9749 186.178C77.0073 185.972 80.2294 165.488 81.4307 153.779C81.9128 149.079 79.1293 146.868 76.5993 146.403C73.6008 145.851 69.9767 147.508 68.8504 151.741C68.7129 152.257 68.4673 153.226 68.1563 154.453C66.581 160.669 63.3028 173.602 61.322 178.459C60.7962 179.748 60.3108 181.109 59.8415 182.425C58.4633 186.29 57.1616 189.941 54.9465 191.695C54.8857 191.742 54.8088 191.763 54.7326 191.754C54.6565 191.745 54.587 191.705 54.5394 191.645C54.4918 191.585 54.4699 191.508 54.4783 191.432C54.4868 191.355 54.525 191.285 54.5846 191.237C56.6684 189.586 57.9428 186.012 59.2919 182.228C59.7634 180.906 60.251 179.539 60.7818 178.238C62.7472 173.418 66.0186 160.512 67.5907 154.309C67.9021 153.081 68.148 152.11 68.2864 151.59C69.5039 147.014 73.443 145.227 76.7046 145.827C79.6986 146.378 82.5007 149.069 82.0113 153.838C80.8462 165.195 77.7845 184.783 77.5639 186.19C79.7686 191.844 79.885 198.834 77.8804 205.382C75.8616 211.978 72.0723 216.881 67.4842 218.836C67.447 218.852 67.4083 218.859 67.3703 218.859Z" fill="#262626"/>
</g>
<defs>
<clipPath id="clip0_29361_26085">
<rect width="132.714" height="112.566" fill="white" transform="translate(37.1875 139.355) rotate(9.48055)"/>
</clipPath>
<clipPath id="clip1_29361_26085">
<rect width="170.82" height="228.636" fill="white" transform="translate(52.9688 27.7773) rotate(-2.02824)"/>
</clipPath>
<clipPath id="clip2_29361_26085">
<rect width="123.808" height="169.068" fill="white" transform="translate(81.0547 61.1719)"/>
</clipPath>
<clipPath id="clip3_29361_26085">
<rect width="124.83" height="98.842" fill="white" transform="translate(145.031 178.117) rotate(-6.30461)"/>
</clipPath>
<clipPath id="clip4_29361_26085">
<rect width="91.396" height="75.628" fill="white" transform="translate(136.07 145.281)"/>
</clipPath>
<clipPath id="clip5_29361_26085">
<rect width="63.802" height="36.208" fill="white" transform="translate(155.766 197.352) rotate(-6.30438)"/>
</clipPath>
<clipPath id="clip6_29361_26085">
<rect width="27.594" height="73.146" fill="white" transform="translate(54.4766 145.715)"/>
</clipPath>
</defs>
</svg>
