<svg width="26" height="25" viewBox="0 0 26 25" fill="none" xmlns="http://www.w3.org/2000/svg">
<g id="wallet" clip-path="url(#clip0_1521_17396)">
<path id="Icon" d="M15.409 1.625H4.53628C3.20187 1.625 2.12012 2.70675 2.12012 4.04116V5.24924M2.12012 5.24924V19.1422C2.12012 20.4766 3.20187 21.5583 4.53628 21.5583H19.6373C20.9717 21.5583 22.0534 20.4766 22.0534 19.1422V7.6654C22.0534 6.33099 20.9717 5.24924 19.6373 5.24924H2.12012ZM18.7312 13.4038C18.7312 14.2378 18.0551 14.9139 17.2211 14.9139C16.3871 14.9139 15.711 14.2378 15.711 13.4038C15.711 12.5698 16.3871 11.8937 17.2211 11.8937C18.0551 11.8937 18.7312 12.5698 18.7312 13.4038Z" stroke="#EA3639" stroke-width="1.85136" stroke-linecap="round" stroke-linejoin="round"/>
</g>
<defs>
<clipPath id="clip0_1521_17396">
<rect width="24.5333" height="24.5333" fill="white" transform="translate(0.58667 0.0917969)"/>
</clipPath>
</defs>
</svg>
