<svg width="36" height="35" viewBox="0 0 36 35" fill="none" xmlns="http://www.w3.org/2000/svg">
<path opacity="0.2" d="M5.14896 10.1016C5.05084 10.2701 4.99942 10.4618 5 10.6568V24.009C5.00104 24.2019 5.05291 24.3911 5.15039 24.5575C5.24787 24.7239 5.3875 24.8617 5.55522 24.9569L17.472 31.6601C17.6327 31.7519 17.8151 31.7987 18.0002 31.7956V31.7956L18.122 17.3329L5.14896 10.1016Z" fill="#A4A4A4"/>
<path d="M31.0003 24.0082V10.6559C30.9993 10.4631 30.9474 10.2739 30.8499 10.1074C30.7524 9.94102 30.6128 9.80324 30.4451 9.708L18.5283 3.00479C18.3677 2.91209 18.1856 2.86328 18.0001 2.86328C17.8147 2.86328 17.6326 2.91209 17.472 3.00479L5.55521 9.708C5.3875 9.80324 5.24786 9.94102 5.15039 10.1074C5.05291 10.2739 5.00104 10.4631 5 10.6559V24.0082C5.00104 24.201 5.05291 24.3902 5.15039 24.5566C5.24786 24.7231 5.3875 24.8608 5.55521 24.9561L17.472 31.6593C17.6326 31.752 17.8147 31.8008 18.0001 31.8008C18.1856 31.8008 18.3677 31.752 18.5283 31.6593L30.4451 24.9561C30.6128 24.8608 30.7524 24.7231 30.8499 24.5566C30.9474 24.3902 30.9993 24.201 31.0003 24.0082V24.0082Z" stroke="#A4A4A4" stroke-width="2.16669" stroke-linecap="round" stroke-linejoin="round"/>
<path d="M24.6356 20.6499V13.6082L11.5 6.36328" stroke="#A4A4A4" stroke-width="2.16669" stroke-linecap="round" stroke-linejoin="round"/>
<path d="M30.8508 10.1016L18.1215 17.3329L5.14844 10.1016" stroke="#A4A4A4" stroke-width="2.16669" stroke-linecap="round" stroke-linejoin="round"/>
<path d="M18.1219 17.332L18 31.7947" stroke="#A4A4A4" stroke-width="2.16669" stroke-linecap="round" stroke-linejoin="round"/>
</svg>
