<svg width="36" height="35" viewBox="0 0 36 35" fill="none" xmlns="http://www.w3.org/2000/svg">
<g clip-path="url(#clip0_25601_33669)">
<path opacity="0.2" d="M17.9981 4.33203C15.368 4.33187 12.7997 5.12942 10.6323 6.61937C8.46485 8.10932 6.80029 10.2216 5.85839 12.6773C4.91649 15.133 4.74154 17.8166 5.35663 20.3738C5.97172 22.931 7.34793 25.2415 9.30355 27.0003C10.1192 25.3953 11.3633 24.0475 12.8979 23.1061C14.4325 22.1648 16.1978 21.6667 17.9981 21.667C16.9267 21.667 15.8794 21.3493 14.9885 20.7541C14.0977 20.1588 13.4033 19.3128 12.9933 18.3229C12.5833 17.3331 12.476 16.2438 12.685 15.193C12.8941 14.1422 13.41 13.1769 14.1676 12.4193C14.9252 11.6617 15.8905 11.1458 16.9413 10.9367C17.9921 10.7277 19.0813 10.835 20.0712 11.245C21.0611 11.655 21.9071 12.3494 22.5024 13.2402C23.0976 14.1311 23.4153 15.1784 23.4153 16.2498C23.4153 17.6866 22.8446 19.0645 21.8287 20.0804C20.8127 21.0963 19.4349 21.667 17.9981 21.667C19.7983 21.6666 21.5635 22.1645 23.0981 23.1056C24.6327 24.0466 25.8769 25.3942 26.6927 26.9989C28.6478 25.24 30.0236 22.9296 30.6384 20.3727C31.2532 17.8157 31.0781 15.1324 30.1363 12.677C29.1944 10.2216 27.5301 8.1096 25.363 6.61972C23.1959 5.12984 20.628 4.33218 17.9981 4.33203Z" fill="#A4A4A4"/>
<path d="M17.9992 21.6703C20.991 21.6703 23.4164 19.245 23.4164 16.2531C23.4164 13.2613 20.991 10.8359 17.9992 10.8359C15.0074 10.8359 12.582 13.2613 12.582 16.2531C12.582 19.245 15.0074 21.6703 17.9992 21.6703Z" stroke="#A4A4A4" stroke-width="2.17" stroke-linecap="round" stroke-linejoin="round"/>
<path d="M9.30469 27.0008C10.1199 25.3952 11.3637 24.0467 12.8984 23.1047C14.433 22.1627 16.1986 21.6641 17.9993 21.6641C19.8 21.6641 21.5655 22.1627 23.1002 23.1047C24.6348 24.0467 25.8787 25.3952 26.6939 27.0008" stroke="#A4A4A4" stroke-width="2.17" stroke-linecap="round" stroke-linejoin="round"/>
<path d="M24.5 7.58594H31.0006" stroke="#A4A4A4" stroke-width="2.17" stroke-linecap="round" stroke-linejoin="round"/>
<path d="M27.75 4.33203V10.8327" stroke="#A4A4A4" stroke-width="2.17" stroke-linecap="round" stroke-linejoin="round"/>
<path d="M30.8202 15.1665C31.2773 17.8823 30.8594 20.6731 29.6269 23.136C28.3944 25.5988 26.4111 27.6062 23.9633 28.8684C21.5155 30.1305 18.73 30.5821 16.0088 30.1578C13.2877 29.7336 10.7717 28.4555 8.82435 26.5081C6.87696 24.5607 5.59886 22.0448 5.17461 19.3236C4.75035 16.6025 5.2019 13.8169 6.46404 11.3691C7.72618 8.92131 9.7336 6.93798 12.1964 5.70549C14.6593 4.473 17.4501 4.05513 20.166 4.51221" stroke="#A4A4A4" stroke-width="2.17" stroke-linecap="round" stroke-linejoin="round"/>
</g>
<defs>
<clipPath id="clip0_25601_33669">
<rect width="34.67" height="34.67" fill="white" transform="translate(0.664062)"/>
</clipPath>
</defs>
</svg>
