<svg width="36" height="35" viewBox="0 0 36 35" fill="none" xmlns="http://www.w3.org/2000/svg">
<g id="Duotone/Package">
<path id="Vector" opacity="0.2" d="M5.14896 10.1094C5.05084 10.2779 4.99942 10.4696 5 10.6646V24.0168C5.00104 24.2097 5.05291 24.3989 5.15039 24.5653C5.24787 24.7317 5.3875 24.8695 5.55522 24.9648L17.472 31.668C17.6327 31.7598 17.8151 31.8065 18.0002 31.8034L18.122 17.3407L5.14896 10.1094Z" fill="#A4A4A4"/>
<path id="Vector_2" d="M31.0003 24.0043V10.652C30.9993 10.4591 30.9474 10.27 30.8499 10.1035C30.7524 9.93711 30.6128 9.79933 30.4451 9.70409L18.5283 3.00089C18.3677 2.90818 18.1856 2.85938 18.0001 2.85938C17.8147 2.85938 17.6326 2.90818 17.472 3.00089L5.55521 9.70409C5.3875 9.79933 5.24786 9.93711 5.15039 10.1035C5.05291 10.27 5.00104 10.4591 5 10.652V24.0043C5.00104 24.1971 5.05291 24.3863 5.15039 24.5527C5.24786 24.7192 5.3875 24.8569 5.55521 24.9522L17.472 31.6554C17.6326 31.7481 17.8147 31.7969 18.0001 31.7969C18.1856 31.7969 18.3677 31.7481 18.5283 31.6554L30.4451 24.9522C30.6128 24.8569 30.7524 24.7192 30.8499 24.5527C30.9474 24.3863 30.9993 24.1971 31.0003 24.0043V24.0043Z" stroke="#A4A4A4" stroke-width="2.16669" stroke-linecap="round" stroke-linejoin="round"/>
<path id="Vector_3" d="M24.6356 20.6538V13.6121L11.5 6.36719" stroke="#A4A4A4" stroke-width="2.16669" stroke-linecap="round" stroke-linejoin="round"/>
<path id="Vector_4" d="M30.8513 10.1094L18.122 17.3407L5.14893 10.1094" stroke="#A4A4A4" stroke-width="2.16669" stroke-linecap="round" stroke-linejoin="round"/>
<path id="Vector_5" d="M18.1219 17.3359L18 31.7986" stroke="#A4A4A4" stroke-width="2.16669" stroke-linecap="round" stroke-linejoin="round"/>
</g>
</svg>
