<svg width="36" height="35" viewBox="0 0 36 35" fill="none" xmlns="http://www.w3.org/2000/svg">
<g id="Duotone/Truck">
<path id="Vector" opacity="0.2" d="M24.2514 19.5H2.58447V24.9167C2.58447 25.204 2.69861 25.4796 2.90178 25.6828C3.10494 25.8859 3.3805 26.0001 3.66782 26.0001H6.37618C6.37618 25.1381 6.7186 24.3115 7.3281 23.702C7.9376 23.0925 8.76426 22.75 9.62622 22.75C10.4882 22.75 11.3148 23.0925 11.9243 23.702C12.5338 24.3115 12.8763 25.1381 12.8763 26.0001H22.6264C22.626 25.4292 22.776 24.8683 23.0613 24.3739C23.3465 23.8794 23.757 23.4688 24.2514 23.1834V19.5Z" fill="#A4A4A4"/>
<path id="Vector_2" opacity="0.2" d="M29.1265 26.0001C29.1269 25.4294 28.977 24.8687 28.6919 24.3744C28.4068 23.88 27.9965 23.4694 27.5024 23.1839C27.0083 22.8984 26.4477 22.7481 25.877 22.748C25.3063 22.7479 24.7457 22.8981 24.2515 23.1834V16.25H32.9182V24.9168C32.9182 25.2041 32.8041 25.4796 32.6009 25.6828C32.3978 25.886 32.1222 26.0001 31.8349 26.0001H29.1265Z" fill="#A4A4A4"/>
<path id="Vector_3" d="M24.2515 10.836H30.0203C30.2361 10.8346 30.4473 10.8985 30.6262 11.0193C30.805 11.1402 30.9431 11.3123 31.0224 11.5131L32.9182 16.2527" stroke="#A4A4A4" stroke-width="2.16669" stroke-linecap="round" stroke-linejoin="round"/>
<path id="Vector_4" d="M2.58447 19.5H24.2514" stroke="#A4A4A4" stroke-width="2.16669" stroke-linecap="round" stroke-linejoin="round"/>
<path id="Vector_5" d="M25.8765 29.2501C27.6714 29.2501 29.1265 27.795 29.1265 26C29.1265 24.2051 27.6714 22.75 25.8765 22.75C24.0816 22.75 22.6265 24.2051 22.6265 26C22.6265 27.795 24.0816 29.2501 25.8765 29.2501Z" stroke="#A4A4A4" stroke-width="2.16669" stroke-miterlimit="10"/>
<path id="Vector_6" d="M9.6265 29.2501C11.4214 29.2501 12.8765 27.795 12.8765 26C12.8765 24.2051 11.4214 22.75 9.6265 22.75C7.83156 22.75 6.37646 24.2051 6.37646 26C6.37646 27.795 7.83156 29.2501 9.6265 29.2501Z" stroke="#A4A4A4" stroke-width="2.16669" stroke-miterlimit="10"/>
<path id="Vector_7" d="M22.6266 26H12.8765" stroke="#A4A4A4" stroke-width="2.16669" stroke-linecap="round" stroke-linejoin="round"/>
<path id="Vector_8" d="M6.37618 25.9976H3.66782C3.3805 25.9976 3.10494 25.8835 2.90178 25.6803C2.69861 25.4771 2.58447 25.2016 2.58447 24.9142V9.74741C2.58447 9.46009 2.69861 9.18453 2.90178 8.98137C3.10494 8.7782 3.3805 8.66406 3.66782 8.66406H24.2514V23.1809" stroke="#A4A4A4" stroke-width="2.16669" stroke-linecap="round" stroke-linejoin="round"/>
<path id="Vector_9" d="M24.2515 16.25H32.9182V24.9168C32.9182 25.2041 32.8041 25.4796 32.6009 25.6828C32.3978 25.886 32.1222 26.0001 31.8349 26.0001H29.1265" stroke="#A4A4A4" stroke-width="2.16669" stroke-linecap="round" stroke-linejoin="round"/>
</g>
</svg>
